%TF.GenerationSoftware,KiCad,Pcbnew,9.0.0*%
%TF.CreationDate,2025-03-21T19:43:46+05:30*%
%TF.ProjectId,HF-PA-v10,48462d50-412d-4763-9130-2e6b69636164,rev?*%
%TF.SameCoordinates,Original*%
%TF.FileFunction,Soldermask,Top*%
%TF.FilePolarity,Negative*%
%FSLAX46Y46*%
G04 Gerber Fmt 4.6, Leading zero omitted, Abs format (unit mm)*
G04 Created by KiCad (PCBNEW 9.0.0) date 2025-03-21 19:43:46*
%MOMM*%
%LPD*%
G01*
G04 APERTURE LIST*
G04 Aperture macros list*
%AMRoundRect*
0 Rectangle with rounded corners*
0 $1 Rounding radius*
0 $2 $3 $4 $5 $6 $7 $8 $9 X,Y pos of 4 corners*
0 Add a 4 corners polygon primitive as box body*
4,1,4,$2,$3,$4,$5,$6,$7,$8,$9,$2,$3,0*
0 Add four circle primitives for the rounded corners*
1,1,$1+$1,$2,$3*
1,1,$1+$1,$4,$5*
1,1,$1+$1,$6,$7*
1,1,$1+$1,$8,$9*
0 Add four rect primitives between the rounded corners*
20,1,$1+$1,$2,$3,$4,$5,0*
20,1,$1+$1,$4,$5,$6,$7,0*
20,1,$1+$1,$6,$7,$8,$9,0*
20,1,$1+$1,$8,$9,$2,$3,0*%
G04 Aperture macros list end*
%ADD10RoundRect,0.250000X-0.650000X0.412500X-0.650000X-0.412500X0.650000X-0.412500X0.650000X0.412500X0*%
%ADD11C,0.800000*%
%ADD12C,6.400000*%
%ADD13RoundRect,0.250000X1.350000X-0.385000X1.350000X0.385000X-1.350000X0.385000X-1.350000X-0.385000X0*%
%ADD14RoundRect,0.250000X1.600000X-0.425000X1.600000X0.425000X-1.600000X0.425000X-1.600000X-0.425000X0*%
%ADD15O,4.400000X2.200000*%
%ADD16O,4.000000X2.000000*%
%ADD17O,2.000000X4.000000*%
%ADD18R,2.200000X2.200000*%
%ADD19O,2.200000X2.200000*%
%ADD20RoundRect,0.250000X-0.400000X-0.625000X0.400000X-0.625000X0.400000X0.625000X-0.400000X0.625000X0*%
%ADD21RoundRect,0.250000X-1.350000X0.385000X-1.350000X-0.385000X1.350000X-0.385000X1.350000X0.385000X0*%
%ADD22RoundRect,0.250000X-1.600000X0.425000X-1.600000X-0.425000X1.600000X-0.425000X1.600000X0.425000X0*%
%ADD23R,1.905000X2.000000*%
%ADD24O,1.905000X2.000000*%
%ADD25RoundRect,0.250000X-0.412500X-0.650000X0.412500X-0.650000X0.412500X0.650000X-0.412500X0.650000X0*%
%ADD26RoundRect,0.250000X0.412500X0.650000X-0.412500X0.650000X-0.412500X-0.650000X0.412500X-0.650000X0*%
%ADD27RoundRect,0.150000X-0.825000X-0.150000X0.825000X-0.150000X0.825000X0.150000X-0.825000X0.150000X0*%
%ADD28R,1.600000X1.600000*%
%ADD29C,1.600000*%
%ADD30R,5.500000X2.150000*%
%ADD31RoundRect,0.250000X2.050000X0.300000X-2.050000X0.300000X-2.050000X-0.300000X2.050000X-0.300000X0*%
%ADD32RoundRect,0.289364X5.290636X5.150636X-5.290636X5.150636X-5.290636X-5.150636X5.290636X-5.150636X0*%
G04 APERTURE END LIST*
D10*
%TO.C,C2*%
X27810000Y-38983486D03*
X27810000Y-42108486D03*
%TD*%
D11*
%TO.C,H3*%
X1250000Y-40310000D03*
X1952944Y-38612944D03*
X1952944Y-42007056D03*
X3650000Y-37910000D03*
D12*
X3650000Y-40310000D03*
D11*
X3650000Y-42710000D03*
X5347056Y-38612944D03*
X5347056Y-42007056D03*
X6050000Y-40310000D03*
%TD*%
D13*
%TO.C,RF_OUT1*%
X58580000Y-20425000D03*
D14*
X58330000Y-17600000D03*
X58330000Y-23250000D03*
%TD*%
D10*
%TO.C,C12*%
X30250000Y-38990000D03*
X30250000Y-42115000D03*
%TD*%
D15*
%TO.C,Power1*%
X36410000Y-36505000D03*
D16*
X36410000Y-42505000D03*
D17*
X41110000Y-39505000D03*
%TD*%
D11*
%TO.C,H4*%
X55022944Y-40480000D03*
X55725888Y-38782944D03*
X55725888Y-42177056D03*
X57422944Y-38080000D03*
D12*
X57422944Y-40480000D03*
D11*
X57422944Y-42880000D03*
X59120000Y-38782944D03*
X59120000Y-42177056D03*
X59822944Y-40480000D03*
%TD*%
D18*
%TO.C,D1*%
X21310000Y-27930000D03*
D19*
X23850000Y-27930000D03*
%TD*%
D20*
%TO.C,R4*%
X16585000Y-23880000D03*
X19685000Y-23880000D03*
%TD*%
D21*
%TO.C,RF_IN1*%
X2555000Y-20405000D03*
D22*
X2805000Y-23230000D03*
X2805000Y-17580000D03*
%TD*%
D23*
%TO.C,Q1*%
X23650000Y-23875000D03*
D24*
X26190000Y-23875000D03*
X28730000Y-23875000D03*
%TD*%
D25*
%TO.C,C7*%
X11137500Y-25350000D03*
X14262500Y-25350000D03*
%TD*%
D26*
%TO.C,C3*%
X54600000Y-20420000D03*
X51475000Y-20420000D03*
%TD*%
D27*
%TO.C,U2*%
X8610000Y-19130000D03*
X8610000Y-20400000D03*
X8610000Y-21670000D03*
X8610000Y-22940000D03*
X13560000Y-22940000D03*
X13560000Y-21670000D03*
X13560000Y-20400000D03*
X13560000Y-19130000D03*
%TD*%
D28*
%TO.C,C6*%
X47032349Y-37305000D03*
D29*
X52032349Y-37305000D03*
%TD*%
D30*
%TO.C,T1*%
X36410000Y-23865000D03*
X36410000Y-27295000D03*
X45910000Y-27295000D03*
X45910000Y-23865000D03*
%TD*%
D11*
%TO.C,H1*%
X1180000Y-3550000D03*
X1882944Y-1852944D03*
X1882944Y-5247056D03*
X3580000Y-1150000D03*
D12*
X3580000Y-3550000D03*
D11*
X3580000Y-5950000D03*
X5277056Y-1852944D03*
X5277056Y-5247056D03*
X5980000Y-3550000D03*
%TD*%
D10*
%TO.C,C5*%
X43885000Y-38030000D03*
X43885000Y-41155000D03*
%TD*%
D25*
%TO.C,C8*%
X27522500Y-33030000D03*
X30647500Y-33030000D03*
%TD*%
D31*
%TO.C,U1*%
X23835000Y-38135000D03*
D32*
X13805000Y-35555000D03*
D31*
X23835000Y-33055000D03*
%TD*%
D25*
%TO.C,C10*%
X38537500Y-33600000D03*
X41662500Y-33600000D03*
%TD*%
D11*
%TO.C,H2*%
X55002944Y-3610000D03*
X55705888Y-1912944D03*
X55705888Y-5307056D03*
X57402944Y-1210000D03*
D12*
X57402944Y-3610000D03*
D11*
X57402944Y-6010000D03*
X59100000Y-1912944D03*
X59100000Y-5307056D03*
X59802944Y-3610000D03*
%TD*%
D25*
%TO.C,C11*%
X11087500Y-17000000D03*
X14212500Y-17000000D03*
%TD*%
M02*
