%TF.GenerationSoftware,KiCad,Pcbnew,9.0.0*%
%TF.CreationDate,2025-03-21T19:43:46+05:30*%
%TF.ProjectId,HF-PA-v10,48462d50-412d-4763-9130-2e6b69636164,rev?*%
%TF.SameCoordinates,Original*%
%TF.FileFunction,Copper,L2,Bot*%
%TF.FilePolarity,Positive*%
%FSLAX46Y46*%
G04 Gerber Fmt 4.6, Leading zero omitted, Abs format (unit mm)*
G04 Created by KiCad (PCBNEW 9.0.0) date 2025-03-21 19:43:46*
%MOMM*%
%LPD*%
G01*
G04 APERTURE LIST*
G04 Aperture macros list*
%AMRoundRect*
0 Rectangle with rounded corners*
0 $1 Rounding radius*
0 $2 $3 $4 $5 $6 $7 $8 $9 X,Y pos of 4 corners*
0 Add a 4 corners polygon primitive as box body*
4,1,4,$2,$3,$4,$5,$6,$7,$8,$9,$2,$3,0*
0 Add four circle primitives for the rounded corners*
1,1,$1+$1,$2,$3*
1,1,$1+$1,$4,$5*
1,1,$1+$1,$6,$7*
1,1,$1+$1,$8,$9*
0 Add four rect primitives between the rounded corners*
20,1,$1+$1,$2,$3,$4,$5,0*
20,1,$1+$1,$4,$5,$6,$7,0*
20,1,$1+$1,$6,$7,$8,$9,0*
20,1,$1+$1,$8,$9,$2,$3,0*%
G04 Aperture macros list end*
%TA.AperFunction,ComponentPad*%
%ADD10C,0.800000*%
%TD*%
%TA.AperFunction,ComponentPad*%
%ADD11C,6.400000*%
%TD*%
%TA.AperFunction,SMDPad,CuDef*%
%ADD12RoundRect,0.250000X1.600000X-0.425000X1.600000X0.425000X-1.600000X0.425000X-1.600000X-0.425000X0*%
%TD*%
%TA.AperFunction,ComponentPad*%
%ADD13O,4.400000X2.200000*%
%TD*%
%TA.AperFunction,ComponentPad*%
%ADD14O,4.000000X2.000000*%
%TD*%
%TA.AperFunction,ComponentPad*%
%ADD15O,2.000000X4.000000*%
%TD*%
%TA.AperFunction,ComponentPad*%
%ADD16R,2.200000X2.200000*%
%TD*%
%TA.AperFunction,ComponentPad*%
%ADD17O,2.200000X2.200000*%
%TD*%
%TA.AperFunction,SMDPad,CuDef*%
%ADD18RoundRect,0.250000X-1.600000X0.425000X-1.600000X-0.425000X1.600000X-0.425000X1.600000X0.425000X0*%
%TD*%
%TA.AperFunction,ComponentPad*%
%ADD19R,1.905000X2.000000*%
%TD*%
%TA.AperFunction,ComponentPad*%
%ADD20O,1.905000X2.000000*%
%TD*%
%TA.AperFunction,ComponentPad*%
%ADD21R,1.600000X1.600000*%
%TD*%
%TA.AperFunction,ComponentPad*%
%ADD22C,1.600000*%
%TD*%
%TA.AperFunction,ViaPad*%
%ADD23C,0.800000*%
%TD*%
%TA.AperFunction,Conductor*%
%ADD24C,1.000000*%
%TD*%
G04 APERTURE END LIST*
D10*
%TO.P,H3,1,1*%
%TO.N,GND*%
X1250000Y-40310000D03*
X1952944Y-38612944D03*
X1952944Y-42007056D03*
X3650000Y-37910000D03*
D11*
X3650000Y-40310000D03*
D10*
X3650000Y-42710000D03*
X5347056Y-38612944D03*
X5347056Y-42007056D03*
X6050000Y-40310000D03*
%TD*%
D12*
%TO.P,RF_OUT1,2,Ext*%
%TO.N,GND*%
X58330000Y-17600000D03*
X58330000Y-23250000D03*
%TD*%
D13*
%TO.P,Power1,1*%
%TO.N,+VDC*%
X36410000Y-36505000D03*
D14*
%TO.P,Power1,2*%
%TO.N,GND*%
X36410000Y-42505000D03*
D15*
%TO.P,Power1,3*%
%TO.N,unconnected-(Power1-Pad3)*%
X41110000Y-39505000D03*
%TD*%
D10*
%TO.P,H4,1,1*%
%TO.N,GND*%
X55022944Y-40480000D03*
X55725888Y-38782944D03*
X55725888Y-42177056D03*
X57422944Y-38080000D03*
D11*
X57422944Y-40480000D03*
D10*
X57422944Y-42880000D03*
X59120000Y-38782944D03*
X59120000Y-42177056D03*
X59822944Y-40480000D03*
%TD*%
D16*
%TO.P,D1,1,K*%
%TO.N,4.5V*%
X21310000Y-27930000D03*
D17*
%TO.P,D1,2,A*%
%TO.N,Net-(D1-A)*%
X23850000Y-27930000D03*
%TD*%
D18*
%TO.P,RF_IN1,2,Ext*%
%TO.N,GND*%
X2805000Y-23230000D03*
X2805000Y-17580000D03*
%TD*%
D19*
%TO.P,Q1,1,G*%
%TO.N,Net-(Q1-G)*%
X23650000Y-23875000D03*
D20*
%TO.P,Q1,2,S*%
%TO.N,GND*%
X26190000Y-23875000D03*
%TO.P,Q1,3,D*%
%TO.N,/DRAIN*%
X28730000Y-23875000D03*
%TD*%
D21*
%TO.P,C6,1*%
%TO.N,+VDC*%
X47032349Y-37305000D03*
D22*
%TO.P,C6,2*%
%TO.N,GND*%
X52032349Y-37305000D03*
%TD*%
D10*
%TO.P,H1,1,1*%
%TO.N,GND*%
X1180000Y-3550000D03*
X1882944Y-1852944D03*
X1882944Y-5247056D03*
X3580000Y-1150000D03*
D11*
X3580000Y-3550000D03*
D10*
X3580000Y-5950000D03*
X5277056Y-1852944D03*
X5277056Y-5247056D03*
X5980000Y-3550000D03*
%TD*%
%TO.P,H2,1,1*%
%TO.N,GND*%
X55002944Y-3610000D03*
X55705888Y-1912944D03*
X55705888Y-5307056D03*
X57402944Y-1210000D03*
D11*
X57402944Y-3610000D03*
D10*
X57402944Y-6010000D03*
X59100000Y-1912944D03*
X59100000Y-5307056D03*
X59802944Y-3610000D03*
%TD*%
D23*
%TO.N,GND*%
X14610000Y-4630000D03*
X10975000Y-33900000D03*
X26200000Y-27650000D03*
X16775000Y-39800000D03*
X16725000Y-30900000D03*
X56610000Y-31630000D03*
X12525000Y-38300000D03*
X44560000Y-32950000D03*
X26200000Y-26150000D03*
X16110000Y-6130000D03*
X13110000Y-4630000D03*
X37625000Y-15550000D03*
X13110000Y-7630000D03*
X16110000Y-1630000D03*
X13110000Y-12105000D03*
X18200000Y-36900000D03*
X59450000Y-11050000D03*
X16100000Y-16300000D03*
X48500000Y-41950000D03*
X7100000Y-28650000D03*
X37625000Y-14050000D03*
X50850000Y-30150000D03*
X30700000Y-29150000D03*
X10110000Y-7630000D03*
X7110000Y-12130000D03*
X10110000Y-10605000D03*
X42125000Y-17050000D03*
X16110000Y-12105000D03*
X7150000Y-17550000D03*
X55100000Y-15550000D03*
X53840000Y-27370000D03*
X24080000Y-36630000D03*
X36125000Y-12550000D03*
X12110000Y-42630000D03*
X53700000Y-15550000D03*
X45100000Y-11050000D03*
X4110000Y-13380000D03*
X36125000Y-17050000D03*
X25580000Y-35130000D03*
X11610000Y-7630000D03*
X18200000Y-32400000D03*
X27500000Y-36650000D03*
X42125000Y-11050000D03*
X49350000Y-30150000D03*
X47780000Y-2140000D03*
X16110000Y-9130000D03*
X8610000Y-14880000D03*
X36125000Y-14050000D03*
X52350000Y-31650000D03*
X9525000Y-39800000D03*
X53700000Y-12550000D03*
X22610000Y-42630000D03*
X46375000Y-14050000D03*
X29200000Y-26150000D03*
X36125000Y-11050000D03*
X47220000Y-42960000D03*
X5610000Y-36130000D03*
X36125000Y-15550000D03*
X7110000Y-10630000D03*
X14610000Y-1630000D03*
X52200000Y-11050000D03*
X4110000Y-36130000D03*
X7110000Y-31630000D03*
X13110000Y-3130000D03*
X52200000Y-15550000D03*
X24110000Y-42630000D03*
X4110000Y-33130000D03*
X55110000Y-30130000D03*
X13610000Y-42630000D03*
X47850000Y-11050000D03*
X46375000Y-15550000D03*
X34625000Y-12550000D03*
X14610000Y-12105000D03*
X39125000Y-17050000D03*
X16725000Y-36900000D03*
X34625000Y-11050000D03*
X32200000Y-27650000D03*
X56600000Y-28850000D03*
X43600000Y-17050000D03*
X40625000Y-12550000D03*
X46375000Y-11050000D03*
X10110000Y-6130000D03*
X8600000Y-27150000D03*
X45100000Y-15550000D03*
X57975000Y-14050000D03*
X5610000Y-14880000D03*
X58110000Y-31630000D03*
X50725000Y-17050000D03*
X55100000Y-27350000D03*
X49255000Y-2140000D03*
X46060000Y-32950000D03*
X58110000Y-33130000D03*
X11610000Y-6130000D03*
X49350000Y-11050000D03*
X15450000Y-32400000D03*
X16725000Y-35400000D03*
X30700000Y-26150000D03*
X56600000Y-27350000D03*
X21110000Y-42630000D03*
X5610000Y-30130000D03*
X8650000Y-16050000D03*
X1110000Y-14880000D03*
X39125000Y-11050000D03*
X10110000Y-9130000D03*
X27500000Y-35150000D03*
X13110000Y-6130000D03*
X42030000Y-2140000D03*
X12475000Y-30900000D03*
X48500000Y-42950000D03*
X5600000Y-28650000D03*
X29200000Y-27650000D03*
X17650000Y-25850000D03*
X7110000Y-36130000D03*
X4110000Y-31630000D03*
X59610000Y-31630000D03*
X5610000Y-33130000D03*
X37625000Y-17050000D03*
X10975000Y-32400000D03*
X11610000Y-3130000D03*
X46375000Y-12550000D03*
X30700000Y-30700000D03*
X32200000Y-30700000D03*
X14610000Y-9130000D03*
X52350000Y-30150000D03*
X6310000Y-23340000D03*
X50725000Y-11050000D03*
X53000000Y-42950000D03*
X19150000Y-25850000D03*
X13110000Y-1630000D03*
X13950000Y-35400000D03*
X11610000Y-12105000D03*
X4110000Y-28630000D03*
X24080000Y-35130000D03*
X32200000Y-26150000D03*
X15500000Y-39800000D03*
X12525000Y-39800000D03*
X14610000Y-6130000D03*
X30500000Y-35150000D03*
X10975000Y-30900000D03*
X58100000Y-27350000D03*
X18200000Y-33900000D03*
X10110000Y-1630000D03*
X53000000Y-41950000D03*
X32200000Y-29150000D03*
X56600000Y-11050000D03*
X11610000Y-9130000D03*
X25610000Y-42630000D03*
X51500000Y-41950000D03*
X13950000Y-30900000D03*
X8610000Y-12130000D03*
X59450000Y-15550000D03*
X55100000Y-28850000D03*
X16725000Y-32400000D03*
X12475000Y-33900000D03*
X4110000Y-34630000D03*
X40625000Y-17050000D03*
X9475000Y-30900000D03*
X42125000Y-12550000D03*
X1110000Y-10630000D03*
X16170000Y-25860000D03*
X4110000Y-27130000D03*
X16110000Y-14855000D03*
X37625000Y-11050000D03*
X43600000Y-14050000D03*
X7110000Y-13380000D03*
X27700000Y-26150000D03*
X59600000Y-28850000D03*
X16610000Y-42630000D03*
X15110000Y-42630000D03*
X49350000Y-12550000D03*
X9475000Y-36900000D03*
X16110000Y-13380000D03*
X7110000Y-33130000D03*
X50000000Y-42950000D03*
X52200000Y-17050000D03*
X15500000Y-38300000D03*
X9475000Y-32400000D03*
X53840000Y-28870000D03*
X2610000Y-9130000D03*
X36030000Y-2140000D03*
X10110000Y-12105000D03*
X5610000Y-9130000D03*
X40625000Y-15550000D03*
X42125000Y-14050000D03*
X40625000Y-11050000D03*
X25580000Y-36630000D03*
X14610000Y-10605000D03*
X13110000Y-10605000D03*
X39030000Y-2140000D03*
X57975000Y-12550000D03*
X45100000Y-17050000D03*
X16110000Y-4630000D03*
X55100000Y-14050000D03*
X51500000Y-42950000D03*
X7110000Y-9130000D03*
X2610000Y-34630000D03*
X8610000Y-9130000D03*
X59450000Y-12550000D03*
X1110000Y-36130000D03*
X5610000Y-31630000D03*
X34625000Y-15550000D03*
X1110000Y-34630000D03*
X9525000Y-38300000D03*
X2610000Y-28630000D03*
X59450000Y-14050000D03*
X56600000Y-14050000D03*
X42125000Y-15550000D03*
X43600000Y-11050000D03*
X50725000Y-15550000D03*
X17600000Y-17800000D03*
X58110000Y-30130000D03*
X39125000Y-15550000D03*
X8600000Y-25650000D03*
X27700000Y-30700000D03*
X45100000Y-14050000D03*
X8600000Y-28650000D03*
X13110000Y-14855000D03*
X47850000Y-17050000D03*
X12475000Y-32400000D03*
X12475000Y-36900000D03*
X49350000Y-17050000D03*
X11025000Y-38300000D03*
X43600000Y-15550000D03*
X59600000Y-27350000D03*
X14610000Y-14855000D03*
X10110000Y-13380000D03*
X18250000Y-39800000D03*
X33680000Y-32650000D03*
X16775000Y-38300000D03*
X8610000Y-10630000D03*
X9475000Y-33900000D03*
X49350000Y-15550000D03*
X17600000Y-20550000D03*
X14610000Y-7630000D03*
X1110000Y-12130000D03*
X2610000Y-13380000D03*
X6310000Y-24840000D03*
X29000000Y-36650000D03*
X13110000Y-13380000D03*
X16110000Y-3130000D03*
X53700000Y-14050000D03*
X7110000Y-14880000D03*
X4110000Y-14880000D03*
X7100000Y-27150000D03*
X5610000Y-34630000D03*
X43530000Y-2140000D03*
X30500000Y-36650000D03*
X22580000Y-35130000D03*
X57975000Y-15550000D03*
X5600000Y-27150000D03*
X18250000Y-38300000D03*
X57975000Y-11050000D03*
X18200000Y-30900000D03*
X46375000Y-17050000D03*
X30700000Y-27650000D03*
X29000000Y-35150000D03*
X10110000Y-4630000D03*
X11610000Y-1630000D03*
X11025000Y-39800000D03*
X13110000Y-9130000D03*
X16100000Y-17800000D03*
X10975000Y-35400000D03*
X11610000Y-10605000D03*
X17600000Y-19075000D03*
X52200000Y-12550000D03*
X56600000Y-15550000D03*
X2610000Y-12130000D03*
X1110000Y-9130000D03*
X8610000Y-13380000D03*
X50850000Y-31650000D03*
X17600000Y-16300000D03*
X7150000Y-16050000D03*
X39125000Y-14050000D03*
X5610000Y-13380000D03*
X37530000Y-2140000D03*
X18200000Y-35400000D03*
X47220000Y-41960000D03*
X8650000Y-17550000D03*
X13950000Y-36900000D03*
X10975000Y-36900000D03*
X39125000Y-12550000D03*
X53700000Y-17050000D03*
X19610000Y-42630000D03*
X56600000Y-12550000D03*
X22580000Y-36630000D03*
X43600000Y-12550000D03*
X27700000Y-29150000D03*
X2610000Y-33130000D03*
X7100000Y-25650000D03*
X15450000Y-33900000D03*
X58100000Y-28850000D03*
X47850000Y-12550000D03*
X55100000Y-11050000D03*
X34625000Y-14050000D03*
X10610000Y-42630000D03*
X16110000Y-10605000D03*
X6310000Y-21840000D03*
X27700000Y-27650000D03*
X40625000Y-14050000D03*
X53850000Y-30150000D03*
X7110000Y-30130000D03*
X16110000Y-7630000D03*
X16725000Y-33900000D03*
X50755000Y-2140000D03*
X7110000Y-34630000D03*
X2610000Y-10630000D03*
X1110000Y-33130000D03*
X49350000Y-14050000D03*
X2610000Y-31630000D03*
X40530000Y-2140000D03*
X10110000Y-3130000D03*
X44560000Y-34450000D03*
X15450000Y-35400000D03*
X26200000Y-29150000D03*
X4110000Y-12130000D03*
X46505000Y-2140000D03*
X11610000Y-14855000D03*
X10110000Y-14855000D03*
X15450000Y-30900000D03*
X53850000Y-31650000D03*
X11610000Y-13380000D03*
X11610000Y-4630000D03*
X14000000Y-38300000D03*
X37625000Y-12550000D03*
X13950000Y-33900000D03*
X59610000Y-33130000D03*
X56610000Y-30130000D03*
X14610000Y-3130000D03*
X52200000Y-14050000D03*
X45100000Y-12550000D03*
X4110000Y-30130000D03*
X5600000Y-25650000D03*
X5610000Y-10630000D03*
X59610000Y-30130000D03*
X34625000Y-17050000D03*
X5610000Y-12130000D03*
X2610000Y-30130000D03*
X2610000Y-27130000D03*
X53700000Y-11050000D03*
X47850000Y-14050000D03*
X50725000Y-12550000D03*
X33680000Y-34200000D03*
X4110000Y-10630000D03*
X4110000Y-9130000D03*
X29200000Y-30700000D03*
X16100000Y-19075000D03*
X13950000Y-32400000D03*
X2610000Y-14880000D03*
X15450000Y-36900000D03*
X29200000Y-29150000D03*
X55110000Y-31630000D03*
X50725000Y-14050000D03*
X12475000Y-35400000D03*
X18110000Y-42630000D03*
X49350000Y-31650000D03*
X1110000Y-13380000D03*
X55100000Y-12550000D03*
X45005000Y-2140000D03*
X59610000Y-34630000D03*
X9475000Y-35400000D03*
X14000000Y-39800000D03*
X58110000Y-34630000D03*
X47850000Y-15550000D03*
X14610000Y-13380000D03*
X2610000Y-36130000D03*
%TD*%
D24*
%TO.N,GND*%
X26190000Y-23875000D02*
X26190000Y-29140000D01*
%TD*%
%TA.AperFunction,Conductor*%
%TO.N,GND*%
G36*
X20750000Y-41750000D02*
G01*
X7750000Y-41750000D01*
X7750000Y-29750000D01*
X20750000Y-29750000D01*
X20750000Y-41750000D01*
G37*
%TD.AperFunction*%
%TD*%
%TA.AperFunction,Conductor*%
%TO.N,GND*%
G36*
X2429588Y-41352330D02*
G01*
X2607670Y-41530412D01*
X2709301Y-41604251D01*
X2164885Y-42148666D01*
X2202944Y-42056784D01*
X2202944Y-41957328D01*
X2164884Y-41865442D01*
X2094558Y-41795116D01*
X2002672Y-41757056D01*
X1903216Y-41757056D01*
X1811330Y-41795116D01*
X1741004Y-41865442D01*
X1702944Y-41957328D01*
X1702944Y-42056784D01*
X1741004Y-42148670D01*
X1811330Y-42218996D01*
X1903216Y-42257056D01*
X2002672Y-42257056D01*
X2094554Y-42218997D01*
X1215232Y-43098319D01*
X1215233Y-43098320D01*
X1443249Y-43285448D01*
X1745519Y-43487418D01*
X1745537Y-43487429D01*
X2066130Y-43658790D01*
X2066135Y-43658792D01*
X2192028Y-43710939D01*
X2200803Y-43718010D01*
X2211614Y-43721185D01*
X2227517Y-43739538D01*
X2246431Y-43754780D01*
X2249990Y-43765473D01*
X2257369Y-43773989D01*
X2260825Y-43798028D01*
X2268496Y-43821074D01*
X2265709Y-43831992D01*
X2267313Y-43843147D01*
X2257223Y-43865240D01*
X2251217Y-43888773D01*
X2242969Y-43896451D01*
X2238288Y-43906703D01*
X2217855Y-43919833D01*
X2200080Y-43936384D01*
X2187464Y-43939365D01*
X2179510Y-43944477D01*
X2144575Y-43949500D01*
X2004067Y-43949500D01*
X1995957Y-43949235D01*
X1753642Y-43933353D01*
X1737562Y-43931235D01*
X1598778Y-43903629D01*
X1503401Y-43884657D01*
X1487735Y-43880459D01*
X1261654Y-43803715D01*
X1246674Y-43797510D01*
X1032541Y-43691912D01*
X1018495Y-43683803D01*
X819977Y-43551157D01*
X807109Y-43541283D01*
X627605Y-43383863D01*
X616136Y-43372394D01*
X458716Y-43192890D01*
X448842Y-43180022D01*
X415418Y-43130000D01*
X316196Y-42981504D01*
X308089Y-42967463D01*
X202485Y-42753318D01*
X196287Y-42738352D01*
X119538Y-42512257D01*
X115344Y-42496607D01*
X68762Y-42262424D01*
X66647Y-42246367D01*
X50765Y-42004042D01*
X50500Y-41995933D01*
X50500Y-41911993D01*
X70185Y-41844954D01*
X122989Y-41799199D01*
X192147Y-41789255D01*
X255703Y-41818280D01*
X289061Y-41864541D01*
X301204Y-41893858D01*
X301209Y-41893869D01*
X472570Y-42214462D01*
X472581Y-42214480D01*
X674551Y-42516750D01*
X861678Y-42744765D01*
X861679Y-42744766D01*
X2355747Y-41250697D01*
X2429588Y-41352330D01*
G37*
%TD.AperFunction*%
%TA.AperFunction,Conductor*%
G36*
X55785289Y-70185D02*
G01*
X55831044Y-122989D01*
X55840988Y-192147D01*
X55811963Y-255703D01*
X55776703Y-283858D01*
X55498481Y-432570D01*
X55498463Y-432581D01*
X55196202Y-634545D01*
X55196198Y-634548D01*
X54968177Y-821679D01*
X54968177Y-821680D01*
X55847500Y-1701003D01*
X55755616Y-1662944D01*
X55656160Y-1662944D01*
X55564274Y-1701004D01*
X55493948Y-1771330D01*
X55455888Y-1863216D01*
X55455888Y-1962672D01*
X55493947Y-2054556D01*
X54614624Y-1175233D01*
X54614623Y-1175233D01*
X54427492Y-1403254D01*
X54427489Y-1403258D01*
X54225525Y-1705519D01*
X54225514Y-1705537D01*
X54054153Y-2026130D01*
X54054151Y-2026135D01*
X53915030Y-2362002D01*
X53809497Y-2709898D01*
X53809494Y-2709909D01*
X53738576Y-3066443D01*
X53702944Y-3428234D01*
X53702944Y-3791765D01*
X53738576Y-4153556D01*
X53809494Y-4510090D01*
X53809497Y-4510101D01*
X53915030Y-4857997D01*
X54054151Y-5193864D01*
X54054153Y-5193869D01*
X54225514Y-5514462D01*
X54225525Y-5514480D01*
X54427495Y-5816750D01*
X54614622Y-6044765D01*
X54614623Y-6044766D01*
X56108691Y-4550697D01*
X56182532Y-4652330D01*
X56360614Y-4830412D01*
X56462245Y-4904251D01*
X55917829Y-5448666D01*
X55955888Y-5356784D01*
X55955888Y-5257328D01*
X55917828Y-5165442D01*
X55847502Y-5095116D01*
X55755616Y-5057056D01*
X55656160Y-5057056D01*
X55564274Y-5095116D01*
X55493948Y-5165442D01*
X55455888Y-5257328D01*
X55455888Y-5356784D01*
X55493948Y-5448670D01*
X55564274Y-5518996D01*
X55656160Y-5557056D01*
X55755616Y-5557056D01*
X55847498Y-5518997D01*
X54968176Y-6398319D01*
X54968177Y-6398320D01*
X55196193Y-6585448D01*
X55498463Y-6787418D01*
X55498481Y-6787429D01*
X55819074Y-6958790D01*
X55819079Y-6958792D01*
X56154946Y-7097913D01*
X56502842Y-7203446D01*
X56502853Y-7203449D01*
X56859387Y-7274367D01*
X57221178Y-7310000D01*
X57584710Y-7310000D01*
X57946500Y-7274367D01*
X58303034Y-7203449D01*
X58303045Y-7203446D01*
X58650941Y-7097913D01*
X58986808Y-6958792D01*
X58986813Y-6958790D01*
X59307406Y-6787429D01*
X59307424Y-6787418D01*
X59609680Y-6585457D01*
X59609694Y-6585447D01*
X59837709Y-6398320D01*
X59837710Y-6398319D01*
X58958387Y-5518996D01*
X59050272Y-5557056D01*
X59149728Y-5557056D01*
X59241614Y-5518996D01*
X59311940Y-5448670D01*
X59350000Y-5356784D01*
X59350000Y-5257328D01*
X59311940Y-5165443D01*
X60191263Y-6044766D01*
X60191264Y-6044765D01*
X60378391Y-5816750D01*
X60378401Y-5816736D01*
X60580362Y-5514480D01*
X60580373Y-5514462D01*
X60716142Y-5260457D01*
X60765104Y-5210613D01*
X60833242Y-5195152D01*
X60898922Y-5218984D01*
X60941290Y-5274541D01*
X60949500Y-5318910D01*
X60949500Y-38733671D01*
X60929815Y-38800710D01*
X60877011Y-38846465D01*
X60807853Y-38856409D01*
X60744297Y-38827384D01*
X60716142Y-38792125D01*
X60600368Y-38575529D01*
X60600362Y-38575519D01*
X60398392Y-38273249D01*
X60211264Y-38045233D01*
X60211263Y-38045232D01*
X59331941Y-38924553D01*
X59370000Y-38832672D01*
X59370000Y-38733216D01*
X59331940Y-38641330D01*
X59261614Y-38571004D01*
X59169728Y-38532944D01*
X59070272Y-38532944D01*
X58978386Y-38571004D01*
X58908060Y-38641330D01*
X58870000Y-38733216D01*
X58870000Y-38832672D01*
X58908060Y-38924558D01*
X58978386Y-38994884D01*
X59070272Y-39032944D01*
X59169728Y-39032944D01*
X59261609Y-38994885D01*
X58717195Y-39539300D01*
X58643356Y-39437670D01*
X58465274Y-39259588D01*
X58363642Y-39185748D01*
X59857710Y-37691679D01*
X59857709Y-37691678D01*
X59629694Y-37504551D01*
X59327424Y-37302581D01*
X59327406Y-37302570D01*
X59006813Y-37131209D01*
X59006808Y-37131207D01*
X58670941Y-36992086D01*
X58323045Y-36886553D01*
X58323034Y-36886550D01*
X57966500Y-36815632D01*
X57604710Y-36780000D01*
X57241178Y-36780000D01*
X56879387Y-36815632D01*
X56522853Y-36886550D01*
X56522842Y-36886553D01*
X56174946Y-36992086D01*
X55839079Y-37131207D01*
X55839074Y-37131209D01*
X55518481Y-37302570D01*
X55518463Y-37302581D01*
X55216202Y-37504545D01*
X55216198Y-37504548D01*
X54988177Y-37691679D01*
X54988177Y-37691680D01*
X55867500Y-38571003D01*
X55775616Y-38532944D01*
X55676160Y-38532944D01*
X55584274Y-38571004D01*
X55513948Y-38641330D01*
X55475888Y-38733216D01*
X55475888Y-38832672D01*
X55513947Y-38924556D01*
X54634624Y-38045233D01*
X54634623Y-38045233D01*
X54447492Y-38273254D01*
X54447489Y-38273258D01*
X54245525Y-38575519D01*
X54245514Y-38575537D01*
X54074153Y-38896130D01*
X54074151Y-38896135D01*
X53935030Y-39232002D01*
X53829497Y-39579898D01*
X53829494Y-39579909D01*
X53758576Y-39936443D01*
X53722944Y-40298234D01*
X53722944Y-40661765D01*
X53758576Y-41023556D01*
X53829494Y-41380090D01*
X53829497Y-41380101D01*
X53935030Y-41727997D01*
X54074151Y-42063864D01*
X54074153Y-42063869D01*
X54245514Y-42384462D01*
X54245525Y-42384480D01*
X54447495Y-42686750D01*
X54634622Y-42914765D01*
X54634623Y-42914766D01*
X56128691Y-41420697D01*
X56202532Y-41522330D01*
X56380614Y-41700412D01*
X56482245Y-41774251D01*
X55937829Y-42318666D01*
X55975888Y-42226784D01*
X55975888Y-42127328D01*
X55937828Y-42035442D01*
X55867502Y-41965116D01*
X55775616Y-41927056D01*
X55676160Y-41927056D01*
X55584274Y-41965116D01*
X55513948Y-42035442D01*
X55475888Y-42127328D01*
X55475888Y-42226784D01*
X55513948Y-42318670D01*
X55584274Y-42388996D01*
X55676160Y-42427056D01*
X55775616Y-42427056D01*
X55867498Y-42388997D01*
X54988176Y-43268319D01*
X54988177Y-43268320D01*
X55216193Y-43455448D01*
X55518463Y-43657418D01*
X55518481Y-43657429D01*
X55628325Y-43716142D01*
X55678170Y-43765104D01*
X55693630Y-43833242D01*
X55669798Y-43898922D01*
X55614241Y-43941290D01*
X55569872Y-43949500D01*
X38355401Y-43949500D01*
X38288362Y-43929815D01*
X38242607Y-43877011D01*
X38232663Y-43807853D01*
X38261688Y-43744297D01*
X38282515Y-43725182D01*
X38387186Y-43649133D01*
X38554133Y-43482186D01*
X38692914Y-43291171D01*
X38800102Y-43080802D01*
X38873065Y-42856247D01*
X38889102Y-42755000D01*
X37843012Y-42755000D01*
X37875925Y-42697993D01*
X37910000Y-42570826D01*
X37910000Y-42439174D01*
X37875925Y-42312007D01*
X37843012Y-42255000D01*
X38889102Y-42255000D01*
X38873065Y-42153752D01*
X38800102Y-41929197D01*
X38692914Y-41718828D01*
X38554133Y-41527813D01*
X38387186Y-41360866D01*
X38196171Y-41222085D01*
X37985802Y-41114897D01*
X37761247Y-41041934D01*
X37761248Y-41041934D01*
X37528052Y-41005000D01*
X36660000Y-41005000D01*
X36660000Y-42005000D01*
X36160000Y-42005000D01*
X36160000Y-41005000D01*
X35291948Y-41005000D01*
X35058752Y-41041934D01*
X34834197Y-41114897D01*
X34623828Y-41222085D01*
X34432813Y-41360866D01*
X34265866Y-41527813D01*
X34127085Y-41718828D01*
X34019897Y-41929197D01*
X33946934Y-42153752D01*
X33930898Y-42255000D01*
X34976988Y-42255000D01*
X34944075Y-42312007D01*
X34910000Y-42439174D01*
X34910000Y-42570826D01*
X34944075Y-42697993D01*
X34976988Y-42755000D01*
X33930898Y-42755000D01*
X33946934Y-42856247D01*
X34019897Y-43080802D01*
X34127085Y-43291171D01*
X34265866Y-43482186D01*
X34432813Y-43649133D01*
X34537485Y-43725182D01*
X34580150Y-43780512D01*
X34586129Y-43850125D01*
X34553523Y-43911920D01*
X34492684Y-43946278D01*
X34464599Y-43949500D01*
X5155425Y-43949500D01*
X5088386Y-43929815D01*
X5042631Y-43877011D01*
X5032687Y-43807853D01*
X5061712Y-43744297D01*
X5107972Y-43710939D01*
X5233864Y-43658792D01*
X5233869Y-43658790D01*
X5554462Y-43487429D01*
X5554480Y-43487418D01*
X5856736Y-43285457D01*
X5856750Y-43285447D01*
X6084765Y-43098320D01*
X6084766Y-43098319D01*
X5205443Y-42218996D01*
X5297328Y-42257056D01*
X5396784Y-42257056D01*
X5488670Y-42218996D01*
X5558996Y-42148670D01*
X5597056Y-42056784D01*
X5597056Y-41957328D01*
X5558996Y-41865443D01*
X6438319Y-42744766D01*
X6438320Y-42744765D01*
X6625447Y-42516750D01*
X6625457Y-42516736D01*
X6821611Y-42223172D01*
X6827418Y-42214480D01*
X6827429Y-42214462D01*
X6998790Y-41893869D01*
X6998792Y-41893864D01*
X7058383Y-41750000D01*
X7750000Y-41750000D01*
X20750000Y-41750000D01*
X20750000Y-38410513D01*
X39909500Y-38410513D01*
X39909500Y-40599486D01*
X39939059Y-40786118D01*
X39997454Y-40965836D01*
X40062853Y-41094187D01*
X40083240Y-41134199D01*
X40194310Y-41287073D01*
X40327927Y-41420690D01*
X40480801Y-41531760D01*
X40560347Y-41572290D01*
X40649163Y-41617545D01*
X40649165Y-41617545D01*
X40649168Y-41617547D01*
X40745497Y-41648846D01*
X40828881Y-41675940D01*
X41015514Y-41705500D01*
X41015519Y-41705500D01*
X41204486Y-41705500D01*
X41391118Y-41675940D01*
X41570832Y-41617547D01*
X41739199Y-41531760D01*
X41892073Y-41420690D01*
X42025690Y-41287073D01*
X42136760Y-41134199D01*
X42222547Y-40965832D01*
X42280940Y-40786118D01*
X42289828Y-40730000D01*
X42310500Y-40599486D01*
X42310500Y-38410513D01*
X42280940Y-38223881D01*
X42247817Y-38121940D01*
X42222547Y-38044168D01*
X42222545Y-38044165D01*
X42222545Y-38044163D01*
X42177290Y-37955347D01*
X42136760Y-37875801D01*
X42025690Y-37722927D01*
X41892073Y-37589310D01*
X41739199Y-37478240D01*
X41702212Y-37459394D01*
X41570836Y-37392454D01*
X41391118Y-37334059D01*
X41204486Y-37304500D01*
X41204481Y-37304500D01*
X41015519Y-37304500D01*
X41015514Y-37304500D01*
X40828881Y-37334059D01*
X40649163Y-37392454D01*
X40480800Y-37478240D01*
X40421011Y-37521680D01*
X40327927Y-37589310D01*
X40327925Y-37589312D01*
X40327924Y-37589312D01*
X40194312Y-37722924D01*
X40194312Y-37722925D01*
X40194310Y-37722927D01*
X40161282Y-37768386D01*
X40083240Y-37875800D01*
X39997454Y-38044163D01*
X39939059Y-38223881D01*
X39909500Y-38410513D01*
X20750000Y-38410513D01*
X20750000Y-36402648D01*
X34009500Y-36402648D01*
X34009500Y-36607352D01*
X34012081Y-36623650D01*
X34041522Y-36809534D01*
X34104781Y-37004223D01*
X34197715Y-37186613D01*
X34318028Y-37352213D01*
X34462786Y-37496971D01*
X34589885Y-37589312D01*
X34628390Y-37617287D01*
X34712219Y-37660000D01*
X34810776Y-37710218D01*
X34810778Y-37710218D01*
X34810781Y-37710220D01*
X34915137Y-37744127D01*
X35005465Y-37773477D01*
X35106557Y-37789488D01*
X35207648Y-37805500D01*
X35207649Y-37805500D01*
X37612351Y-37805500D01*
X37612352Y-37805500D01*
X37814534Y-37773477D01*
X38009219Y-37710220D01*
X38191610Y-37617287D01*
X38323203Y-37521680D01*
X38357213Y-37496971D01*
X38357215Y-37496968D01*
X38357219Y-37496966D01*
X38501966Y-37352219D01*
X38501968Y-37352215D01*
X38501971Y-37352213D01*
X38574532Y-37252339D01*
X38622287Y-37186610D01*
X38715220Y-37004219D01*
X38778477Y-36809534D01*
X38810500Y-36607352D01*
X38810500Y-36485247D01*
X46031849Y-36485247D01*
X46031849Y-38124752D01*
X46043480Y-38183229D01*
X46043481Y-38183230D01*
X46087796Y-38249552D01*
X46154118Y-38293867D01*
X46154119Y-38293868D01*
X46212596Y-38305499D01*
X46212599Y-38305500D01*
X46212601Y-38305500D01*
X47852099Y-38305500D01*
X47852100Y-38305499D01*
X47866917Y-38302552D01*
X47910578Y-38293868D01*
X47910578Y-38293867D01*
X47910580Y-38293867D01*
X47976901Y-38249552D01*
X48021216Y-38183231D01*
X48021216Y-38183229D01*
X48021217Y-38183229D01*
X48032848Y-38124752D01*
X48032849Y-38124750D01*
X48032849Y-37202682D01*
X50732349Y-37202682D01*
X50732349Y-37407317D01*
X50764358Y-37609417D01*
X50827593Y-37804031D01*
X50920490Y-37986350D01*
X50920496Y-37986359D01*
X50952872Y-38030921D01*
X50952873Y-38030922D01*
X51632349Y-37351446D01*
X51632349Y-37357661D01*
X51659608Y-37459394D01*
X51712269Y-37550606D01*
X51786743Y-37625080D01*
X51877955Y-37677741D01*
X51979688Y-37705000D01*
X51985902Y-37705000D01*
X51306425Y-38384474D01*
X51350999Y-38416859D01*
X51533317Y-38509755D01*
X51727931Y-38572990D01*
X51930032Y-38605000D01*
X52134666Y-38605000D01*
X52336766Y-38572990D01*
X52531380Y-38509755D01*
X52713698Y-38416859D01*
X52758270Y-38384474D01*
X52078796Y-37705000D01*
X52085010Y-37705000D01*
X52186743Y-37677741D01*
X52277955Y-37625080D01*
X52352429Y-37550606D01*
X52405090Y-37459394D01*
X52432349Y-37357661D01*
X52432349Y-37351447D01*
X53111823Y-38030921D01*
X53144208Y-37986349D01*
X53237104Y-37804031D01*
X53270200Y-37702175D01*
X53300339Y-37609417D01*
X53332349Y-37407317D01*
X53332349Y-37202682D01*
X53300339Y-37000582D01*
X53237104Y-36805968D01*
X53144208Y-36623650D01*
X53111823Y-36579077D01*
X53111823Y-36579076D01*
X52432349Y-37258551D01*
X52432349Y-37252339D01*
X52405090Y-37150606D01*
X52352429Y-37059394D01*
X52277955Y-36984920D01*
X52186743Y-36932259D01*
X52085010Y-36905000D01*
X52078795Y-36905000D01*
X52758271Y-36225524D01*
X52758270Y-36225523D01*
X52713708Y-36193147D01*
X52713699Y-36193141D01*
X52531380Y-36100244D01*
X52336766Y-36037009D01*
X52134666Y-36005000D01*
X51930032Y-36005000D01*
X51727931Y-36037009D01*
X51533317Y-36100244D01*
X51350993Y-36193143D01*
X51306426Y-36225523D01*
X51306426Y-36225524D01*
X51985903Y-36905000D01*
X51979688Y-36905000D01*
X51877955Y-36932259D01*
X51786743Y-36984920D01*
X51712269Y-37059394D01*
X51659608Y-37150606D01*
X51632349Y-37252339D01*
X51632349Y-37258553D01*
X50952873Y-36579077D01*
X50952872Y-36579077D01*
X50920492Y-36623644D01*
X50827593Y-36805968D01*
X50764358Y-37000582D01*
X50732349Y-37202682D01*
X48032849Y-37202682D01*
X48032849Y-36485249D01*
X48032848Y-36485247D01*
X48021217Y-36426770D01*
X48021216Y-36426769D01*
X47976901Y-36360447D01*
X47910579Y-36316132D01*
X47910578Y-36316131D01*
X47852101Y-36304500D01*
X47852097Y-36304500D01*
X46212601Y-36304500D01*
X46212596Y-36304500D01*
X46154119Y-36316131D01*
X46154118Y-36316132D01*
X46087796Y-36360447D01*
X46043481Y-36426769D01*
X46043480Y-36426770D01*
X46031849Y-36485247D01*
X38810500Y-36485247D01*
X38810500Y-36402648D01*
X38778477Y-36200466D01*
X38715220Y-36005781D01*
X38715218Y-36005778D01*
X38715218Y-36005776D01*
X38681503Y-35939607D01*
X38622287Y-35823390D01*
X38614556Y-35812749D01*
X38501971Y-35657786D01*
X38357213Y-35513028D01*
X38191613Y-35392715D01*
X38191612Y-35392714D01*
X38191610Y-35392713D01*
X38134653Y-35363691D01*
X38009223Y-35299781D01*
X37814534Y-35236522D01*
X37639995Y-35208878D01*
X37612352Y-35204500D01*
X35207648Y-35204500D01*
X35183329Y-35208351D01*
X35005465Y-35236522D01*
X34810776Y-35299781D01*
X34628386Y-35392715D01*
X34462786Y-35513028D01*
X34318028Y-35657786D01*
X34197715Y-35823386D01*
X34104781Y-36005776D01*
X34041522Y-36200465D01*
X34016184Y-36360447D01*
X34009500Y-36402648D01*
X20750000Y-36402648D01*
X20750000Y-29750000D01*
X7750000Y-29750000D01*
X7750000Y-41750000D01*
X7058383Y-41750000D01*
X7137913Y-41557997D01*
X7243446Y-41210101D01*
X7243449Y-41210090D01*
X7314367Y-40853556D01*
X7350000Y-40491765D01*
X7350000Y-40128234D01*
X7314367Y-39766443D01*
X7243449Y-39409909D01*
X7243446Y-39409898D01*
X7137913Y-39062002D01*
X6998792Y-38726135D01*
X6998790Y-38726130D01*
X6858733Y-38464102D01*
X6858732Y-38464101D01*
X6827424Y-38405529D01*
X6827418Y-38405519D01*
X6625448Y-38103249D01*
X6438320Y-37875233D01*
X6438319Y-37875232D01*
X5558997Y-38754554D01*
X5597056Y-38662672D01*
X5597056Y-38563216D01*
X5558996Y-38471330D01*
X5488670Y-38401004D01*
X5396784Y-38362944D01*
X5297328Y-38362944D01*
X5205442Y-38401004D01*
X5135116Y-38471330D01*
X5097056Y-38563216D01*
X5097056Y-38662672D01*
X5135116Y-38754558D01*
X5205442Y-38824884D01*
X5297328Y-38862944D01*
X5396784Y-38862944D01*
X5488666Y-38824885D01*
X4944251Y-39369300D01*
X4870412Y-39267670D01*
X4692330Y-39089588D01*
X4590698Y-39015748D01*
X6084766Y-37521679D01*
X6084765Y-37521678D01*
X5856750Y-37334551D01*
X5554480Y-37132581D01*
X5554462Y-37132570D01*
X5233869Y-36961209D01*
X5233864Y-36961207D01*
X4897997Y-36822086D01*
X4550101Y-36716553D01*
X4550090Y-36716550D01*
X4193556Y-36645632D01*
X3831766Y-36610000D01*
X3468234Y-36610000D01*
X3106443Y-36645632D01*
X2749909Y-36716550D01*
X2749898Y-36716553D01*
X2402002Y-36822086D01*
X2066135Y-36961207D01*
X2066130Y-36961209D01*
X1745537Y-37132570D01*
X1745519Y-37132581D01*
X1443258Y-37334545D01*
X1443254Y-37334548D01*
X1215233Y-37521679D01*
X1215233Y-37521680D01*
X2094556Y-38401003D01*
X2002672Y-38362944D01*
X1903216Y-38362944D01*
X1811330Y-38401004D01*
X1741004Y-38471330D01*
X1702944Y-38563216D01*
X1702944Y-38662672D01*
X1741003Y-38754556D01*
X861680Y-37875233D01*
X861679Y-37875233D01*
X674548Y-38103254D01*
X674545Y-38103258D01*
X472581Y-38405519D01*
X472570Y-38405537D01*
X301209Y-38726130D01*
X301207Y-38726135D01*
X289061Y-38755459D01*
X245220Y-38809862D01*
X178926Y-38831927D01*
X111226Y-38814648D01*
X63616Y-38763510D01*
X50500Y-38708006D01*
X50500Y-26810247D01*
X20009500Y-26810247D01*
X20009500Y-29049752D01*
X20021131Y-29108229D01*
X20021132Y-29108230D01*
X20065447Y-29174552D01*
X20131769Y-29218867D01*
X20131770Y-29218868D01*
X20190247Y-29230499D01*
X20190250Y-29230500D01*
X20190252Y-29230500D01*
X22429750Y-29230500D01*
X22429751Y-29230499D01*
X22444568Y-29227552D01*
X22488229Y-29218868D01*
X22488229Y-29218867D01*
X22488231Y-29218867D01*
X22554552Y-29174552D01*
X22598867Y-29108231D01*
X22598867Y-29108229D01*
X22598868Y-29108229D01*
X22610499Y-29049752D01*
X22610500Y-29049750D01*
X22610500Y-28818150D01*
X22630185Y-28751111D01*
X22682989Y-28705356D01*
X22752147Y-28695412D01*
X22815703Y-28724437D01*
X22834819Y-28745266D01*
X22858031Y-28777215D01*
X22858032Y-28777217D01*
X23002786Y-28921971D01*
X23157749Y-29034556D01*
X23168390Y-29042287D01*
X23284607Y-29101503D01*
X23350776Y-29135218D01*
X23350778Y-29135218D01*
X23350781Y-29135220D01*
X23455137Y-29169127D01*
X23545465Y-29198477D01*
X23646557Y-29214488D01*
X23747648Y-29230500D01*
X23747649Y-29230500D01*
X23952351Y-29230500D01*
X23952352Y-29230500D01*
X24154534Y-29198477D01*
X24349219Y-29135220D01*
X24531610Y-29042287D01*
X24624590Y-28974732D01*
X24697213Y-28921971D01*
X24697215Y-28921968D01*
X24697219Y-28921966D01*
X24841966Y-28777219D01*
X24841968Y-28777215D01*
X24841971Y-28777213D01*
X24901402Y-28695412D01*
X24962287Y-28611610D01*
X25055220Y-28429219D01*
X25118477Y-28234534D01*
X25150500Y-28032352D01*
X25150500Y-27827648D01*
X25118477Y-27625466D01*
X25055220Y-27430781D01*
X25055218Y-27430778D01*
X25055218Y-27430776D01*
X25021503Y-27364607D01*
X24962287Y-27248390D01*
X24954556Y-27237749D01*
X24841971Y-27082786D01*
X24697213Y-26938028D01*
X24531613Y-26817715D01*
X24531612Y-26817714D01*
X24531610Y-26817713D01*
X24474653Y-26788691D01*
X24349223Y-26724781D01*
X24154534Y-26661522D01*
X23979995Y-26633878D01*
X23952352Y-26629500D01*
X23747648Y-26629500D01*
X23723329Y-26633351D01*
X23545465Y-26661522D01*
X23350776Y-26724781D01*
X23168386Y-26817715D01*
X23002786Y-26938028D01*
X22858028Y-27082786D01*
X22834818Y-27114734D01*
X22779489Y-27157400D01*
X22709875Y-27163379D01*
X22648080Y-27130774D01*
X22613723Y-27069935D01*
X22610500Y-27041849D01*
X22610500Y-26810249D01*
X22610499Y-26810247D01*
X22598868Y-26751770D01*
X22598867Y-26751769D01*
X22554552Y-26685447D01*
X22488230Y-26641132D01*
X22488229Y-26641131D01*
X22429752Y-26629500D01*
X22429748Y-26629500D01*
X20190252Y-26629500D01*
X20190247Y-26629500D01*
X20131770Y-26641131D01*
X20131769Y-26641132D01*
X20065447Y-26685447D01*
X20021132Y-26751769D01*
X20021131Y-26751770D01*
X20009500Y-26810247D01*
X50500Y-26810247D01*
X50500Y-23704986D01*
X455001Y-23704986D01*
X465494Y-23807697D01*
X520641Y-23974119D01*
X520643Y-23974124D01*
X612684Y-24123345D01*
X736654Y-24247315D01*
X885875Y-24339356D01*
X885880Y-24339358D01*
X1052302Y-24394505D01*
X1052309Y-24394506D01*
X1155019Y-24404999D01*
X2554999Y-24404999D01*
X3055000Y-24404999D01*
X4454972Y-24404999D01*
X4454986Y-24404998D01*
X4557697Y-24394505D01*
X4724119Y-24339358D01*
X4724124Y-24339356D01*
X4873345Y-24247315D01*
X4997315Y-24123345D01*
X5089356Y-23974124D01*
X5089358Y-23974119D01*
X5144505Y-23807697D01*
X5144506Y-23807690D01*
X5154999Y-23704986D01*
X5155000Y-23704973D01*
X5155000Y-23480000D01*
X3055000Y-23480000D01*
X3055000Y-24404999D01*
X2554999Y-24404999D01*
X2555000Y-24404998D01*
X2555000Y-23480000D01*
X455001Y-23480000D01*
X455001Y-23704986D01*
X50500Y-23704986D01*
X50500Y-22755013D01*
X455000Y-22755013D01*
X455000Y-22980000D01*
X2555000Y-22980000D01*
X3055000Y-22980000D01*
X5154999Y-22980000D01*
X5154999Y-22755028D01*
X5154998Y-22755013D01*
X5144505Y-22652302D01*
X5089358Y-22485880D01*
X5089356Y-22485875D01*
X4997315Y-22336654D01*
X4873345Y-22212684D01*
X4724124Y-22120643D01*
X4724119Y-22120641D01*
X4557697Y-22065494D01*
X4557690Y-22065493D01*
X4454986Y-22055000D01*
X3055000Y-22055000D01*
X3055000Y-22980000D01*
X2555000Y-22980000D01*
X2555000Y-22055000D01*
X1155028Y-22055000D01*
X1155012Y-22055001D01*
X1052302Y-22065494D01*
X885880Y-22120641D01*
X885875Y-22120643D01*
X736654Y-22212684D01*
X612684Y-22336654D01*
X520643Y-22485875D01*
X520641Y-22485880D01*
X465494Y-22652302D01*
X465493Y-22652309D01*
X455000Y-22755013D01*
X50500Y-22755013D01*
X50500Y-18054986D01*
X455001Y-18054986D01*
X465494Y-18157697D01*
X520641Y-18324119D01*
X520643Y-18324124D01*
X612684Y-18473345D01*
X736654Y-18597315D01*
X885875Y-18689356D01*
X885880Y-18689358D01*
X1052302Y-18744505D01*
X1052309Y-18744506D01*
X1155019Y-18754999D01*
X2554999Y-18754999D01*
X3055000Y-18754999D01*
X4454972Y-18754999D01*
X4454986Y-18754998D01*
X4557697Y-18744505D01*
X4724119Y-18689358D01*
X4724124Y-18689356D01*
X4873345Y-18597315D01*
X4997315Y-18473345D01*
X5089356Y-18324124D01*
X5089358Y-18324119D01*
X5144505Y-18157697D01*
X5144506Y-18157690D01*
X5154999Y-18054986D01*
X5155000Y-18054973D01*
X5155000Y-17830000D01*
X3055000Y-17830000D01*
X3055000Y-18754999D01*
X2554999Y-18754999D01*
X2555000Y-18754998D01*
X2555000Y-17830000D01*
X455001Y-17830000D01*
X455001Y-18054986D01*
X50500Y-18054986D01*
X50500Y-17105013D01*
X455000Y-17105013D01*
X455000Y-17330000D01*
X2555000Y-17330000D01*
X3055000Y-17330000D01*
X5154999Y-17330000D01*
X5154999Y-17105028D01*
X5154998Y-17105013D01*
X5144505Y-17002302D01*
X5089358Y-16835880D01*
X5089356Y-16835875D01*
X4997315Y-16686654D01*
X4873345Y-16562684D01*
X4724124Y-16470643D01*
X4724119Y-16470641D01*
X4557697Y-16415494D01*
X4557690Y-16415493D01*
X4454986Y-16405000D01*
X3055000Y-16405000D01*
X3055000Y-17330000D01*
X2555000Y-17330000D01*
X2555000Y-16405000D01*
X1155028Y-16405000D01*
X1155012Y-16405001D01*
X1052302Y-16415494D01*
X885880Y-16470641D01*
X885875Y-16470643D01*
X736654Y-16562684D01*
X612684Y-16686654D01*
X520643Y-16835875D01*
X520641Y-16835880D01*
X465494Y-17002302D01*
X465493Y-17002309D01*
X455000Y-17105013D01*
X50500Y-17105013D01*
X50500Y-5290820D01*
X70185Y-5223781D01*
X122989Y-5178026D01*
X192147Y-5168082D01*
X255703Y-5197107D01*
X283858Y-5232367D01*
X402570Y-5454462D01*
X402581Y-5454480D01*
X604551Y-5756750D01*
X791678Y-5984765D01*
X791679Y-5984766D01*
X2285747Y-4490697D01*
X2359588Y-4592330D01*
X2537670Y-4770412D01*
X2639301Y-4844251D01*
X2094885Y-5388666D01*
X2132944Y-5296784D01*
X2132944Y-5197328D01*
X2094884Y-5105442D01*
X2024558Y-5035116D01*
X1932672Y-4997056D01*
X1833216Y-4997056D01*
X1741330Y-5035116D01*
X1671004Y-5105442D01*
X1632944Y-5197328D01*
X1632944Y-5296784D01*
X1671004Y-5388670D01*
X1741330Y-5458996D01*
X1833216Y-5497056D01*
X1932672Y-5497056D01*
X2024554Y-5458997D01*
X1145232Y-6338319D01*
X1145233Y-6338320D01*
X1373249Y-6525448D01*
X1675519Y-6727418D01*
X1675537Y-6727429D01*
X1996130Y-6898790D01*
X1996135Y-6898792D01*
X2332002Y-7037913D01*
X2679898Y-7143446D01*
X2679909Y-7143449D01*
X3036443Y-7214367D01*
X3398234Y-7250000D01*
X3761766Y-7250000D01*
X4123556Y-7214367D01*
X4480090Y-7143449D01*
X4480101Y-7143446D01*
X4827997Y-7037913D01*
X5163864Y-6898792D01*
X5163869Y-6898790D01*
X5484462Y-6727429D01*
X5484480Y-6727418D01*
X5786736Y-6525457D01*
X5786750Y-6525447D01*
X6014765Y-6338320D01*
X6014766Y-6338319D01*
X5135443Y-5458996D01*
X5227328Y-5497056D01*
X5326784Y-5497056D01*
X5418670Y-5458996D01*
X5488996Y-5388670D01*
X5527056Y-5296784D01*
X5527056Y-5197328D01*
X5488996Y-5105443D01*
X6368319Y-5984766D01*
X6368320Y-5984765D01*
X6555447Y-5756750D01*
X6555457Y-5756736D01*
X6757418Y-5454480D01*
X6757429Y-5454462D01*
X6928790Y-5133869D01*
X6928792Y-5133864D01*
X7067913Y-4797997D01*
X7173446Y-4450101D01*
X7173449Y-4450089D01*
X7200461Y-4314293D01*
X18890000Y-4314293D01*
X18890000Y-10090000D01*
X18903181Y-10103181D01*
X18936666Y-10164504D01*
X18939500Y-10190862D01*
X18939500Y-21330918D01*
X18969082Y-21360500D01*
X19010918Y-21360500D01*
X20976000Y-21360500D01*
X21043039Y-21380185D01*
X21088794Y-21432989D01*
X21100000Y-21484500D01*
X21100000Y-24950000D01*
X22440195Y-24950000D01*
X22507234Y-24969685D01*
X22543297Y-25005109D01*
X22552947Y-25019552D01*
X22619269Y-25063867D01*
X22619270Y-25063868D01*
X22677747Y-25075499D01*
X22677750Y-25075500D01*
X22677752Y-25075500D01*
X24622250Y-25075500D01*
X24622251Y-25075499D01*
X24637068Y-25072552D01*
X24680729Y-25063868D01*
X24680729Y-25063867D01*
X24680731Y-25063867D01*
X24747052Y-25019552D01*
X24756703Y-25005109D01*
X24810315Y-24960304D01*
X24859805Y-24950000D01*
X25111993Y-24950000D01*
X25179032Y-24969685D01*
X25199674Y-24986319D01*
X25243757Y-25030402D01*
X25428723Y-25164788D01*
X25632429Y-25268582D01*
X25849871Y-25339234D01*
X25940000Y-25353509D01*
X25940000Y-25074000D01*
X25959685Y-25006961D01*
X26012489Y-24961206D01*
X26064000Y-24950000D01*
X26316000Y-24950000D01*
X26383039Y-24969685D01*
X26428794Y-25022489D01*
X26440000Y-25074000D01*
X26440000Y-25353508D01*
X26530128Y-25339234D01*
X26747570Y-25268582D01*
X26951276Y-25164788D01*
X27136242Y-25030402D01*
X27180326Y-24986319D01*
X27241649Y-24952834D01*
X27268007Y-24950000D01*
X28177112Y-24950000D01*
X28233407Y-24963515D01*
X28287404Y-24991028D01*
X28460001Y-25047108D01*
X28460002Y-25047108D01*
X28460005Y-25047109D01*
X28639257Y-25075500D01*
X28639258Y-25075500D01*
X28820742Y-25075500D01*
X28820743Y-25075500D01*
X28999995Y-25047109D01*
X28999998Y-25047108D01*
X28999999Y-25047108D01*
X29172595Y-24991028D01*
X29172595Y-24991027D01*
X29172598Y-24991027D01*
X29226593Y-24963514D01*
X29282888Y-24950000D01*
X31410000Y-24950000D01*
X31410000Y-23724986D01*
X55980001Y-23724986D01*
X55990494Y-23827697D01*
X56045641Y-23994119D01*
X56045643Y-23994124D01*
X56137684Y-24143345D01*
X56261654Y-24267315D01*
X56410875Y-24359356D01*
X56410880Y-24359358D01*
X56577302Y-24414505D01*
X56577309Y-24414506D01*
X56680019Y-24424999D01*
X58079999Y-24424999D01*
X58580000Y-24424999D01*
X59979972Y-24424999D01*
X59979986Y-24424998D01*
X60082697Y-24414505D01*
X60249119Y-24359358D01*
X60249124Y-24359356D01*
X60398345Y-24267315D01*
X60522315Y-24143345D01*
X60614356Y-23994124D01*
X60614358Y-23994119D01*
X60669505Y-23827697D01*
X60669506Y-23827690D01*
X60679999Y-23724986D01*
X60680000Y-23724973D01*
X60680000Y-23500000D01*
X58580000Y-23500000D01*
X58580000Y-24424999D01*
X58079999Y-24424999D01*
X58080000Y-24424998D01*
X58080000Y-23500000D01*
X55980001Y-23500000D01*
X55980001Y-23724986D01*
X31410000Y-23724986D01*
X31410000Y-22775013D01*
X55980000Y-22775013D01*
X55980000Y-23000000D01*
X58080000Y-23000000D01*
X58580000Y-23000000D01*
X60679999Y-23000000D01*
X60679999Y-22775028D01*
X60679998Y-22775013D01*
X60669505Y-22672302D01*
X60614358Y-22505880D01*
X60614356Y-22505875D01*
X60522315Y-22356654D01*
X60398345Y-22232684D01*
X60249124Y-22140643D01*
X60249119Y-22140641D01*
X60082697Y-22085494D01*
X60082690Y-22085493D01*
X59979986Y-22075000D01*
X58580000Y-22075000D01*
X58580000Y-23000000D01*
X58080000Y-23000000D01*
X58080000Y-22075000D01*
X56680028Y-22075000D01*
X56680012Y-22075001D01*
X56577302Y-22085494D01*
X56410880Y-22140641D01*
X56410875Y-22140643D01*
X56261654Y-22232684D01*
X56137684Y-22356654D01*
X56045643Y-22505875D01*
X56045641Y-22505880D01*
X55990494Y-22672302D01*
X55990493Y-22672309D01*
X55980000Y-22775013D01*
X31410000Y-22775013D01*
X31410000Y-21484500D01*
X31429685Y-21417461D01*
X31482489Y-21371706D01*
X31534000Y-21360500D01*
X33330918Y-21360500D01*
X33360500Y-21330918D01*
X33360500Y-18074986D01*
X55980001Y-18074986D01*
X55990494Y-18177697D01*
X56045641Y-18344119D01*
X56045643Y-18344124D01*
X56137684Y-18493345D01*
X56261654Y-18617315D01*
X56410875Y-18709356D01*
X56410880Y-18709358D01*
X56577302Y-18764505D01*
X56577309Y-18764506D01*
X56680019Y-18774999D01*
X58079999Y-18774999D01*
X58580000Y-18774999D01*
X59979972Y-18774999D01*
X59979986Y-18774998D01*
X60082697Y-18764505D01*
X60249119Y-18709358D01*
X60249124Y-18709356D01*
X60398345Y-18617315D01*
X60522315Y-18493345D01*
X60614356Y-18344124D01*
X60614358Y-18344119D01*
X60669505Y-18177697D01*
X60669506Y-18177690D01*
X60679999Y-18074986D01*
X60680000Y-18074973D01*
X60680000Y-17850000D01*
X58580000Y-17850000D01*
X58580000Y-18774999D01*
X58079999Y-18774999D01*
X58080000Y-18774998D01*
X58080000Y-17850000D01*
X55980001Y-17850000D01*
X55980001Y-18074986D01*
X33360500Y-18074986D01*
X33360500Y-17125013D01*
X55980000Y-17125013D01*
X55980000Y-17350000D01*
X58080000Y-17350000D01*
X58580000Y-17350000D01*
X60679999Y-17350000D01*
X60679999Y-17125028D01*
X60679998Y-17125013D01*
X60669505Y-17022302D01*
X60614358Y-16855880D01*
X60614356Y-16855875D01*
X60522315Y-16706654D01*
X60398345Y-16582684D01*
X60249124Y-16490643D01*
X60249119Y-16490641D01*
X60082697Y-16435494D01*
X60082690Y-16435493D01*
X59979986Y-16425000D01*
X58580000Y-16425000D01*
X58580000Y-17350000D01*
X58080000Y-17350000D01*
X58080000Y-16425000D01*
X56680028Y-16425000D01*
X56680012Y-16425001D01*
X56577302Y-16435494D01*
X56410880Y-16490641D01*
X56410875Y-16490643D01*
X56261654Y-16582684D01*
X56137684Y-16706654D01*
X56045643Y-16855875D01*
X56045641Y-16855880D01*
X55990494Y-17022302D01*
X55990493Y-17022309D01*
X55980000Y-17125013D01*
X33360500Y-17125013D01*
X33360500Y-10164082D01*
X33330918Y-10134500D01*
X33330916Y-10134498D01*
X33316546Y-10128546D01*
X33262143Y-10084704D01*
X33240079Y-10018410D01*
X33240000Y-10013986D01*
X33240000Y-4332780D01*
X33259685Y-4265741D01*
X33276319Y-4245099D01*
X33290918Y-4230500D01*
X33320500Y-4200918D01*
X33320500Y-1109082D01*
X33290918Y-1079500D01*
X18970918Y-1079500D01*
X18929082Y-1079500D01*
X18929081Y-1079500D01*
X18899500Y-1109081D01*
X18899500Y-4200918D01*
X18899888Y-4201855D01*
X18902025Y-4221728D01*
X18909012Y-4240460D01*
X18905684Y-4255759D01*
X18907358Y-4271324D01*
X18898410Y-4289198D01*
X18894162Y-4308733D01*
X18890000Y-4314293D01*
X7200461Y-4314293D01*
X7214354Y-4244447D01*
X7244367Y-4093556D01*
X7280000Y-3731765D01*
X7280000Y-3368234D01*
X7244367Y-3006443D01*
X7173449Y-2649909D01*
X7173446Y-2649898D01*
X7067913Y-2302002D01*
X6928792Y-1966135D01*
X6928790Y-1966130D01*
X6757429Y-1645537D01*
X6757418Y-1645519D01*
X6555448Y-1343249D01*
X6368320Y-1115233D01*
X6368319Y-1115232D01*
X5488997Y-1994554D01*
X5527056Y-1902672D01*
X5527056Y-1803216D01*
X5488996Y-1711330D01*
X5418670Y-1641004D01*
X5326784Y-1602944D01*
X5227328Y-1602944D01*
X5135442Y-1641004D01*
X5065116Y-1711330D01*
X5027056Y-1803216D01*
X5027056Y-1902672D01*
X5065116Y-1994558D01*
X5135442Y-2064884D01*
X5227328Y-2102944D01*
X5326784Y-2102944D01*
X5418666Y-2064885D01*
X4874251Y-2609300D01*
X4800412Y-2507670D01*
X4622330Y-2329588D01*
X4520698Y-2255748D01*
X6014766Y-761679D01*
X6014765Y-761678D01*
X5786750Y-574551D01*
X5484480Y-372581D01*
X5484462Y-372570D01*
X5318493Y-283858D01*
X5268648Y-234896D01*
X5253188Y-166758D01*
X5277020Y-101078D01*
X5332577Y-58710D01*
X5376946Y-50500D01*
X55718250Y-50500D01*
X55785289Y-70185D01*
G37*
%TD.AperFunction*%
%TA.AperFunction,Conductor*%
G36*
X60211263Y-42914766D02*
G01*
X60211264Y-42914765D01*
X60398391Y-42686750D01*
X60398401Y-42686736D01*
X60600362Y-42384480D01*
X60600373Y-42384462D01*
X60694622Y-42208134D01*
X60706735Y-42195801D01*
X60714748Y-42180485D01*
X60730710Y-42171394D01*
X60743584Y-42158290D01*
X60760441Y-42154464D01*
X60775463Y-42145911D01*
X60793806Y-42146894D01*
X60811721Y-42142829D01*
X60827970Y-42148724D01*
X60845233Y-42149650D01*
X60860132Y-42160394D01*
X60877401Y-42166660D01*
X60887884Y-42180406D01*
X60901905Y-42190517D01*
X60908630Y-42207610D01*
X60919770Y-42222218D01*
X60921255Y-42239700D01*
X60927486Y-42255535D01*
X60925597Y-42290778D01*
X60884657Y-42496597D01*
X60880459Y-42512264D01*
X60803715Y-42738345D01*
X60797508Y-42753331D01*
X60691913Y-42967457D01*
X60683803Y-42981504D01*
X60551157Y-43180022D01*
X60541283Y-43192890D01*
X60383863Y-43372394D01*
X60372394Y-43383863D01*
X60192890Y-43541283D01*
X60180022Y-43551157D01*
X59981504Y-43683803D01*
X59967457Y-43691913D01*
X59753331Y-43797508D01*
X59738345Y-43803715D01*
X59512264Y-43880459D01*
X59496598Y-43884657D01*
X59401222Y-43903629D01*
X59369917Y-43909855D01*
X59300326Y-43903629D01*
X59245149Y-43860766D01*
X59221904Y-43794877D01*
X59237971Y-43726880D01*
X59287273Y-43678881D01*
X59327406Y-43657429D01*
X59327424Y-43657418D01*
X59629680Y-43455457D01*
X59629694Y-43455447D01*
X59857709Y-43268320D01*
X59857710Y-43268319D01*
X58978387Y-42388996D01*
X59070272Y-42427056D01*
X59169728Y-42427056D01*
X59261614Y-42388996D01*
X59331940Y-42318670D01*
X59370000Y-42226784D01*
X59370000Y-42127328D01*
X59331940Y-42035443D01*
X60211263Y-42914766D01*
G37*
%TD.AperFunction*%
%TA.AperFunction,Conductor*%
G36*
X59261612Y-41965115D02*
G01*
X59169728Y-41927056D01*
X59070272Y-41927056D01*
X58978386Y-41965116D01*
X58908060Y-42035442D01*
X58870000Y-42127328D01*
X58870000Y-42226784D01*
X58908059Y-42318668D01*
X58363642Y-41774251D01*
X58465274Y-41700412D01*
X58643356Y-41522330D01*
X58717195Y-41420698D01*
X59261612Y-41965115D01*
G37*
%TD.AperFunction*%
%TA.AperFunction,Conductor*%
G36*
X5488668Y-41795115D02*
G01*
X5396784Y-41757056D01*
X5297328Y-41757056D01*
X5205442Y-41795116D01*
X5135116Y-41865442D01*
X5097056Y-41957328D01*
X5097056Y-42056784D01*
X5135115Y-42148668D01*
X4590698Y-41604251D01*
X4692330Y-41530412D01*
X4870412Y-41352330D01*
X4944251Y-41250698D01*
X5488668Y-41795115D01*
G37*
%TD.AperFunction*%
%TA.AperFunction,Conductor*%
G36*
X56482245Y-39185748D02*
G01*
X56380614Y-39259588D01*
X56202532Y-39437670D01*
X56128692Y-39539301D01*
X55584275Y-38994884D01*
X55676160Y-39032944D01*
X55775616Y-39032944D01*
X55867502Y-38994884D01*
X55937828Y-38924558D01*
X55975888Y-38832672D01*
X55975888Y-38733216D01*
X55937828Y-38641331D01*
X56482245Y-39185748D01*
G37*
%TD.AperFunction*%
%TA.AperFunction,Conductor*%
G36*
X2709301Y-39015748D02*
G01*
X2607670Y-39089588D01*
X2429588Y-39267670D01*
X2355748Y-39369301D01*
X1811331Y-38824884D01*
X1903216Y-38862944D01*
X2002672Y-38862944D01*
X2094558Y-38824884D01*
X2164884Y-38754558D01*
X2202944Y-38662672D01*
X2202944Y-38563216D01*
X2164884Y-38471331D01*
X2709301Y-39015748D01*
G37*
%TD.AperFunction*%
%TA.AperFunction,Conductor*%
G36*
X59241612Y-5095115D02*
G01*
X59149728Y-5057056D01*
X59050272Y-5057056D01*
X58958386Y-5095116D01*
X58888060Y-5165442D01*
X58850000Y-5257328D01*
X58850000Y-5356784D01*
X58888059Y-5448668D01*
X58343642Y-4904251D01*
X58445274Y-4830412D01*
X58623356Y-4652330D01*
X58697195Y-4550698D01*
X59241612Y-5095115D01*
G37*
%TD.AperFunction*%
%TA.AperFunction,Conductor*%
G36*
X5418668Y-5035115D02*
G01*
X5326784Y-4997056D01*
X5227328Y-4997056D01*
X5135442Y-5035116D01*
X5065116Y-5105442D01*
X5027056Y-5197328D01*
X5027056Y-5296784D01*
X5065115Y-5388668D01*
X4520698Y-4844251D01*
X4622330Y-4770412D01*
X4800412Y-4592330D01*
X4874251Y-4490698D01*
X5418668Y-5035115D01*
G37*
%TD.AperFunction*%
%TA.AperFunction,Conductor*%
G36*
X56462245Y-2315748D02*
G01*
X56360614Y-2389588D01*
X56182532Y-2567670D01*
X56108692Y-2669301D01*
X55564275Y-2124884D01*
X55656160Y-2162944D01*
X55755616Y-2162944D01*
X55847502Y-2124884D01*
X55917828Y-2054558D01*
X55955888Y-1962672D01*
X55955888Y-1863216D01*
X55917828Y-1771331D01*
X56462245Y-2315748D01*
G37*
%TD.AperFunction*%
%TA.AperFunction,Conductor*%
G36*
X59246369Y-66647D02*
G01*
X59262424Y-68762D01*
X59496607Y-115344D01*
X59512257Y-119538D01*
X59738352Y-196287D01*
X59753318Y-202485D01*
X59967460Y-308088D01*
X59981504Y-316196D01*
X60015950Y-339212D01*
X60180026Y-448845D01*
X60192890Y-458716D01*
X60372394Y-616136D01*
X60383863Y-627605D01*
X60541283Y-807109D01*
X60551156Y-819976D01*
X60552294Y-821679D01*
X60683803Y-1018495D01*
X60691912Y-1032541D01*
X60774359Y-1199728D01*
X60797508Y-1246668D01*
X60803715Y-1261654D01*
X60880459Y-1487735D01*
X60884657Y-1503401D01*
X60924861Y-1705519D01*
X60931235Y-1737560D01*
X60933353Y-1753642D01*
X60941542Y-1878587D01*
X60926284Y-1946771D01*
X60876585Y-1995881D01*
X60808225Y-2010326D01*
X60742907Y-1985520D01*
X60708449Y-1945150D01*
X60580373Y-1705537D01*
X60580362Y-1705519D01*
X60378392Y-1403249D01*
X60191264Y-1175233D01*
X60191263Y-1175232D01*
X59311941Y-2054553D01*
X59350000Y-1962672D01*
X59350000Y-1863216D01*
X59311940Y-1771330D01*
X59241614Y-1701004D01*
X59149728Y-1662944D01*
X59050272Y-1662944D01*
X58958386Y-1701004D01*
X58888060Y-1771330D01*
X58850000Y-1863216D01*
X58850000Y-1962672D01*
X58888060Y-2054558D01*
X58958386Y-2124884D01*
X59050272Y-2162944D01*
X59149728Y-2162944D01*
X59241609Y-2124885D01*
X58697195Y-2669300D01*
X58623356Y-2567670D01*
X58445274Y-2389588D01*
X58343642Y-2315748D01*
X59837710Y-821679D01*
X59837709Y-821678D01*
X59609694Y-634551D01*
X59307424Y-432581D01*
X59307414Y-432575D01*
X59042001Y-290708D01*
X59035411Y-284234D01*
X59026737Y-281058D01*
X59010882Y-260139D01*
X58992157Y-241745D01*
X58990112Y-232736D01*
X58984533Y-225374D01*
X58982504Y-199204D01*
X58976697Y-173608D01*
X58979847Y-164924D01*
X58979134Y-155714D01*
X58991576Y-132600D01*
X59000529Y-107928D01*
X59007873Y-102326D01*
X59012253Y-94192D01*
X59035215Y-81475D01*
X59056087Y-65559D01*
X59066917Y-63919D01*
X59073376Y-60343D01*
X59108560Y-57615D01*
X59246369Y-66647D01*
G37*
%TD.AperFunction*%
%TA.AperFunction,Conductor*%
G36*
X2639301Y-2255748D02*
G01*
X2537670Y-2329588D01*
X2359588Y-2507670D01*
X2285748Y-2609301D01*
X1741331Y-2064884D01*
X1833216Y-2102944D01*
X1932672Y-2102944D01*
X2024558Y-2064884D01*
X2094884Y-1994558D01*
X2132944Y-1902672D01*
X2132944Y-1803216D01*
X2094884Y-1711331D01*
X2639301Y-2255748D01*
G37*
%TD.AperFunction*%
%TA.AperFunction,Conductor*%
G36*
X1793755Y-77656D02*
G01*
X1848933Y-120519D01*
X1872177Y-186409D01*
X1856109Y-254406D01*
X1806809Y-302404D01*
X1675529Y-372575D01*
X1675519Y-372581D01*
X1373258Y-574545D01*
X1373254Y-574548D01*
X1145233Y-761679D01*
X1145233Y-761680D01*
X2024556Y-1641003D01*
X1932672Y-1602944D01*
X1833216Y-1602944D01*
X1741330Y-1641004D01*
X1671004Y-1711330D01*
X1632944Y-1803216D01*
X1632944Y-1902672D01*
X1671003Y-1994556D01*
X791680Y-1115233D01*
X791679Y-1115233D01*
X604548Y-1343254D01*
X604545Y-1343258D01*
X402581Y-1645519D01*
X402575Y-1645529D01*
X298416Y-1840396D01*
X291943Y-1846985D01*
X288767Y-1855659D01*
X267847Y-1871514D01*
X249453Y-1890240D01*
X240444Y-1892283D01*
X233084Y-1897863D01*
X206915Y-1899891D01*
X181316Y-1905700D01*
X172632Y-1902549D01*
X163423Y-1903263D01*
X140309Y-1890820D01*
X115636Y-1881868D01*
X110035Y-1874523D01*
X101901Y-1870145D01*
X89183Y-1847181D01*
X73267Y-1826310D01*
X71627Y-1815480D01*
X68051Y-1809022D01*
X65323Y-1773834D01*
X66647Y-1753632D01*
X68762Y-1737574D01*
X115342Y-1503401D01*
X119539Y-1487738D01*
X165747Y-1351614D01*
X196286Y-1261646D01*
X202485Y-1246680D01*
X308091Y-1032533D01*
X316191Y-1018502D01*
X448851Y-819962D01*
X458706Y-807119D01*
X616141Y-627599D01*
X627599Y-616141D01*
X807119Y-458706D01*
X819962Y-448851D01*
X1018502Y-316191D01*
X1032533Y-308091D01*
X1246680Y-202485D01*
X1261646Y-196286D01*
X1449261Y-132600D01*
X1487738Y-119539D01*
X1503405Y-115341D01*
X1724166Y-71429D01*
X1793755Y-77656D01*
G37*
%TD.AperFunction*%
%TD*%
M02*
