%TF.GenerationSoftware,KiCad,Pcbnew,9.0.0*%
%TF.CreationDate,2025-03-21T19:43:46+05:30*%
%TF.ProjectId,HF-PA-v10,48462d50-412d-4763-9130-2e6b69636164,rev?*%
%TF.SameCoordinates,Original*%
%TF.FileFunction,Legend,Top*%
%TF.FilePolarity,Positive*%
%FSLAX46Y46*%
G04 Gerber Fmt 4.6, Leading zero omitted, Abs format (unit mm)*
G04 Created by KiCad (PCBNEW 9.0.0) date 2025-03-21 19:43:46*
%MOMM*%
%LPD*%
G01*
G04 APERTURE LIST*
G04 Aperture macros list*
%AMRoundRect*
0 Rectangle with rounded corners*
0 $1 Rounding radius*
0 $2 $3 $4 $5 $6 $7 $8 $9 X,Y pos of 4 corners*
0 Add a 4 corners polygon primitive as box body*
4,1,4,$2,$3,$4,$5,$6,$7,$8,$9,$2,$3,0*
0 Add four circle primitives for the rounded corners*
1,1,$1+$1,$2,$3*
1,1,$1+$1,$4,$5*
1,1,$1+$1,$6,$7*
1,1,$1+$1,$8,$9*
0 Add four rect primitives between the rounded corners*
20,1,$1+$1,$2,$3,$4,$5,0*
20,1,$1+$1,$4,$5,$6,$7,0*
20,1,$1+$1,$6,$7,$8,$9,0*
20,1,$1+$1,$8,$9,$2,$3,0*%
G04 Aperture macros list end*
%ADD10C,0.150000*%
%ADD11C,0.100000*%
%ADD12C,0.120000*%
%ADD13C,0.127000*%
%ADD14C,0.200000*%
%ADD15C,0.300000*%
%ADD16RoundRect,0.250000X-0.650000X0.412500X-0.650000X-0.412500X0.650000X-0.412500X0.650000X0.412500X0*%
%ADD17C,0.800000*%
%ADD18C,6.400000*%
%ADD19RoundRect,0.250000X1.350000X-0.385000X1.350000X0.385000X-1.350000X0.385000X-1.350000X-0.385000X0*%
%ADD20RoundRect,0.250000X1.600000X-0.425000X1.600000X0.425000X-1.600000X0.425000X-1.600000X-0.425000X0*%
%ADD21O,4.400000X2.200000*%
%ADD22O,4.000000X2.000000*%
%ADD23O,2.000000X4.000000*%
%ADD24R,2.200000X2.200000*%
%ADD25O,2.200000X2.200000*%
%ADD26RoundRect,0.250000X-0.400000X-0.625000X0.400000X-0.625000X0.400000X0.625000X-0.400000X0.625000X0*%
%ADD27RoundRect,0.250000X-1.350000X0.385000X-1.350000X-0.385000X1.350000X-0.385000X1.350000X0.385000X0*%
%ADD28RoundRect,0.250000X-1.600000X0.425000X-1.600000X-0.425000X1.600000X-0.425000X1.600000X0.425000X0*%
%ADD29O,3.500000X3.500000*%
%ADD30R,1.905000X2.000000*%
%ADD31O,1.905000X2.000000*%
%ADD32RoundRect,0.250000X-0.412500X-0.650000X0.412500X-0.650000X0.412500X0.650000X-0.412500X0.650000X0*%
%ADD33RoundRect,0.250000X0.412500X0.650000X-0.412500X0.650000X-0.412500X-0.650000X0.412500X-0.650000X0*%
%ADD34RoundRect,0.150000X-0.825000X-0.150000X0.825000X-0.150000X0.825000X0.150000X-0.825000X0.150000X0*%
%ADD35R,1.600000X1.600000*%
%ADD36C,1.600000*%
%ADD37R,5.500000X2.150000*%
%ADD38RoundRect,0.250000X2.050000X0.300000X-2.050000X0.300000X-2.050000X-0.300000X2.050000X-0.300000X0*%
%ADD39RoundRect,0.289364X5.290636X5.150636X-5.290636X5.150636X-5.290636X-5.150636X5.290636X-5.150636X0*%
G04 APERTURE END LIST*
D10*
X53412969Y-26109819D02*
X52936779Y-26109819D01*
X52936779Y-26109819D02*
X52936779Y-25109819D01*
X53746303Y-26109819D02*
X53746303Y-25109819D01*
X53746303Y-25109819D02*
X54127255Y-25109819D01*
X54127255Y-25109819D02*
X54222493Y-25157438D01*
X54222493Y-25157438D02*
X54270112Y-25205057D01*
X54270112Y-25205057D02*
X54317731Y-25300295D01*
X54317731Y-25300295D02*
X54317731Y-25443152D01*
X54317731Y-25443152D02*
X54270112Y-25538390D01*
X54270112Y-25538390D02*
X54222493Y-25586009D01*
X54222493Y-25586009D02*
X54127255Y-25633628D01*
X54127255Y-25633628D02*
X53746303Y-25633628D01*
X55079636Y-25586009D02*
X54746303Y-25586009D01*
X54746303Y-26109819D02*
X54746303Y-25109819D01*
X54746303Y-25109819D02*
X55222493Y-25109819D01*
X56365351Y-25728866D02*
X57127256Y-25728866D01*
X56746303Y-26109819D02*
X56746303Y-25347914D01*
X58317732Y-25824104D02*
X58793922Y-25824104D01*
X58222494Y-26109819D02*
X58555827Y-25109819D01*
X58555827Y-25109819D02*
X58889160Y-26109819D01*
X59222494Y-26109819D02*
X59222494Y-25109819D01*
X59222494Y-25109819D02*
X59793922Y-26109819D01*
X59793922Y-26109819D02*
X59793922Y-25109819D01*
X60127256Y-25109819D02*
X60698684Y-25109819D01*
X60412970Y-26109819D02*
X60412970Y-25109819D01*
X1680180Y-25143922D02*
X1680180Y-25715350D01*
X680180Y-25429636D02*
X1680180Y-25429636D01*
X1680180Y-25905827D02*
X1680180Y-26477255D01*
X680180Y-26191541D02*
X1680180Y-26191541D01*
X680180Y-27286779D02*
X680180Y-26810589D01*
X680180Y-26810589D02*
X1680180Y-26810589D01*
X680180Y-28382018D02*
X1346847Y-28382018D01*
X1680180Y-28382018D02*
X1632561Y-28334399D01*
X1632561Y-28334399D02*
X1584942Y-28382018D01*
X1584942Y-28382018D02*
X1632561Y-28429637D01*
X1632561Y-28429637D02*
X1680180Y-28382018D01*
X1680180Y-28382018D02*
X1584942Y-28382018D01*
X1346847Y-28858208D02*
X680180Y-28858208D01*
X1251609Y-28858208D02*
X1299228Y-28905827D01*
X1299228Y-28905827D02*
X1346847Y-29001065D01*
X1346847Y-29001065D02*
X1346847Y-29143922D01*
X1346847Y-29143922D02*
X1299228Y-29239160D01*
X1299228Y-29239160D02*
X1203990Y-29286779D01*
X1203990Y-29286779D02*
X680180Y-29286779D01*
X1346847Y-29762970D02*
X346847Y-29762970D01*
X1299228Y-29762970D02*
X1346847Y-29858208D01*
X1346847Y-29858208D02*
X1346847Y-30048684D01*
X1346847Y-30048684D02*
X1299228Y-30143922D01*
X1299228Y-30143922D02*
X1251609Y-30191541D01*
X1251609Y-30191541D02*
X1156371Y-30239160D01*
X1156371Y-30239160D02*
X870657Y-30239160D01*
X870657Y-30239160D02*
X775419Y-30191541D01*
X775419Y-30191541D02*
X727800Y-30143922D01*
X727800Y-30143922D02*
X680180Y-30048684D01*
X680180Y-30048684D02*
X680180Y-29858208D01*
X680180Y-29858208D02*
X727800Y-29762970D01*
X1346847Y-31096303D02*
X680180Y-31096303D01*
X1346847Y-30667732D02*
X823038Y-30667732D01*
X823038Y-30667732D02*
X727800Y-30715351D01*
X727800Y-30715351D02*
X680180Y-30810589D01*
X680180Y-30810589D02*
X680180Y-30953446D01*
X680180Y-30953446D02*
X727800Y-31048684D01*
X727800Y-31048684D02*
X775419Y-31096303D01*
X1346847Y-31429637D02*
X1346847Y-31810589D01*
X1680180Y-31572494D02*
X823038Y-31572494D01*
X823038Y-31572494D02*
X727800Y-31620113D01*
X727800Y-31620113D02*
X680180Y-31715351D01*
X680180Y-31715351D02*
X680180Y-31810589D01*
X775419Y-32143923D02*
X727800Y-32191542D01*
X727800Y-32191542D02*
X680180Y-32143923D01*
X680180Y-32143923D02*
X727800Y-32096304D01*
X727800Y-32096304D02*
X775419Y-32143923D01*
X775419Y-32143923D02*
X680180Y-32143923D01*
X1061133Y-32143923D02*
X1632561Y-32096304D01*
X1632561Y-32096304D02*
X1680180Y-32143923D01*
X1680180Y-32143923D02*
X1632561Y-32191542D01*
X1632561Y-32191542D02*
X1061133Y-32143923D01*
X1061133Y-32143923D02*
X1680180Y-32143923D01*
X34336779Y-7659819D02*
X34336779Y-6659819D01*
X34336779Y-6659819D02*
X34574874Y-6659819D01*
X34574874Y-6659819D02*
X34717731Y-6707438D01*
X34717731Y-6707438D02*
X34812969Y-6802676D01*
X34812969Y-6802676D02*
X34860588Y-6897914D01*
X34860588Y-6897914D02*
X34908207Y-7088390D01*
X34908207Y-7088390D02*
X34908207Y-7231247D01*
X34908207Y-7231247D02*
X34860588Y-7421723D01*
X34860588Y-7421723D02*
X34812969Y-7516961D01*
X34812969Y-7516961D02*
X34717731Y-7612200D01*
X34717731Y-7612200D02*
X34574874Y-7659819D01*
X34574874Y-7659819D02*
X34336779Y-7659819D01*
X35336779Y-7659819D02*
X35336779Y-6659819D01*
X35765350Y-7659819D02*
X35765350Y-7136009D01*
X35765350Y-7136009D02*
X35717731Y-7040771D01*
X35717731Y-7040771D02*
X35622493Y-6993152D01*
X35622493Y-6993152D02*
X35479636Y-6993152D01*
X35479636Y-6993152D02*
X35384398Y-7040771D01*
X35384398Y-7040771D02*
X35336779Y-7088390D01*
X36241541Y-7659819D02*
X36241541Y-6993152D01*
X36241541Y-6659819D02*
X36193922Y-6707438D01*
X36193922Y-6707438D02*
X36241541Y-6755057D01*
X36241541Y-6755057D02*
X36289160Y-6707438D01*
X36289160Y-6707438D02*
X36241541Y-6659819D01*
X36241541Y-6659819D02*
X36241541Y-6755057D01*
X36717731Y-7659819D02*
X36717731Y-6993152D01*
X36717731Y-7183628D02*
X36765350Y-7088390D01*
X36765350Y-7088390D02*
X36812969Y-7040771D01*
X36812969Y-7040771D02*
X36908207Y-6993152D01*
X36908207Y-6993152D02*
X37003445Y-6993152D01*
X37765350Y-6993152D02*
X37765350Y-7659819D01*
X37336779Y-6993152D02*
X37336779Y-7516961D01*
X37336779Y-7516961D02*
X37384398Y-7612200D01*
X37384398Y-7612200D02*
X37479636Y-7659819D01*
X37479636Y-7659819D02*
X37622493Y-7659819D01*
X37622493Y-7659819D02*
X37717731Y-7612200D01*
X37717731Y-7612200D02*
X37765350Y-7564580D01*
X39003446Y-7278866D02*
X39765351Y-7278866D01*
X39384398Y-7659819D02*
X39384398Y-6897914D01*
X41574874Y-7659819D02*
X41241541Y-7183628D01*
X41003446Y-7659819D02*
X41003446Y-6659819D01*
X41003446Y-6659819D02*
X41384398Y-6659819D01*
X41384398Y-6659819D02*
X41479636Y-6707438D01*
X41479636Y-6707438D02*
X41527255Y-6755057D01*
X41527255Y-6755057D02*
X41574874Y-6850295D01*
X41574874Y-6850295D02*
X41574874Y-6993152D01*
X41574874Y-6993152D02*
X41527255Y-7088390D01*
X41527255Y-7088390D02*
X41479636Y-7136009D01*
X41479636Y-7136009D02*
X41384398Y-7183628D01*
X41384398Y-7183628D02*
X41003446Y-7183628D01*
X42432017Y-7659819D02*
X42432017Y-7136009D01*
X42432017Y-7136009D02*
X42384398Y-7040771D01*
X42384398Y-7040771D02*
X42289160Y-6993152D01*
X42289160Y-6993152D02*
X42098684Y-6993152D01*
X42098684Y-6993152D02*
X42003446Y-7040771D01*
X42432017Y-7612200D02*
X42336779Y-7659819D01*
X42336779Y-7659819D02*
X42098684Y-7659819D01*
X42098684Y-7659819D02*
X42003446Y-7612200D01*
X42003446Y-7612200D02*
X41955827Y-7516961D01*
X41955827Y-7516961D02*
X41955827Y-7421723D01*
X41955827Y-7421723D02*
X42003446Y-7326485D01*
X42003446Y-7326485D02*
X42098684Y-7278866D01*
X42098684Y-7278866D02*
X42336779Y-7278866D01*
X42336779Y-7278866D02*
X42432017Y-7231247D01*
X42765351Y-6993152D02*
X43146303Y-6993152D01*
X42908208Y-7659819D02*
X42908208Y-6802676D01*
X42908208Y-6802676D02*
X42955827Y-6707438D01*
X42955827Y-6707438D02*
X43051065Y-6659819D01*
X43051065Y-6659819D02*
X43146303Y-6659819D01*
X43908208Y-7659819D02*
X43908208Y-7136009D01*
X43908208Y-7136009D02*
X43860589Y-7040771D01*
X43860589Y-7040771D02*
X43765351Y-6993152D01*
X43765351Y-6993152D02*
X43574875Y-6993152D01*
X43574875Y-6993152D02*
X43479637Y-7040771D01*
X43908208Y-7612200D02*
X43812970Y-7659819D01*
X43812970Y-7659819D02*
X43574875Y-7659819D01*
X43574875Y-7659819D02*
X43479637Y-7612200D01*
X43479637Y-7612200D02*
X43432018Y-7516961D01*
X43432018Y-7516961D02*
X43432018Y-7421723D01*
X43432018Y-7421723D02*
X43479637Y-7326485D01*
X43479637Y-7326485D02*
X43574875Y-7278866D01*
X43574875Y-7278866D02*
X43812970Y-7278866D01*
X43812970Y-7278866D02*
X43908208Y-7231247D01*
X44527256Y-7659819D02*
X44432018Y-7612200D01*
X44432018Y-7612200D02*
X44384399Y-7516961D01*
X44384399Y-7516961D02*
X44384399Y-6659819D01*
X44241542Y-7183628D02*
X44527256Y-6993152D01*
X45670114Y-7278866D02*
X46432019Y-7278866D01*
X46051066Y-7659819D02*
X46051066Y-6897914D01*
X48003447Y-7136009D02*
X48146304Y-7183628D01*
X48146304Y-7183628D02*
X48193923Y-7231247D01*
X48193923Y-7231247D02*
X48241542Y-7326485D01*
X48241542Y-7326485D02*
X48241542Y-7469342D01*
X48241542Y-7469342D02*
X48193923Y-7564580D01*
X48193923Y-7564580D02*
X48146304Y-7612200D01*
X48146304Y-7612200D02*
X48051066Y-7659819D01*
X48051066Y-7659819D02*
X47670114Y-7659819D01*
X47670114Y-7659819D02*
X47670114Y-6659819D01*
X47670114Y-6659819D02*
X48003447Y-6659819D01*
X48003447Y-6659819D02*
X48098685Y-6707438D01*
X48098685Y-6707438D02*
X48146304Y-6755057D01*
X48146304Y-6755057D02*
X48193923Y-6850295D01*
X48193923Y-6850295D02*
X48193923Y-6945533D01*
X48193923Y-6945533D02*
X48146304Y-7040771D01*
X48146304Y-7040771D02*
X48098685Y-7088390D01*
X48098685Y-7088390D02*
X48003447Y-7136009D01*
X48003447Y-7136009D02*
X47670114Y-7136009D01*
X48670114Y-7659819D02*
X48670114Y-6993152D01*
X48670114Y-7183628D02*
X48717733Y-7088390D01*
X48717733Y-7088390D02*
X48765352Y-7040771D01*
X48765352Y-7040771D02*
X48860590Y-6993152D01*
X48860590Y-6993152D02*
X48955828Y-6993152D01*
X49717733Y-7659819D02*
X49717733Y-7136009D01*
X49717733Y-7136009D02*
X49670114Y-7040771D01*
X49670114Y-7040771D02*
X49574876Y-6993152D01*
X49574876Y-6993152D02*
X49384400Y-6993152D01*
X49384400Y-6993152D02*
X49289162Y-7040771D01*
X49717733Y-7612200D02*
X49622495Y-7659819D01*
X49622495Y-7659819D02*
X49384400Y-7659819D01*
X49384400Y-7659819D02*
X49289162Y-7612200D01*
X49289162Y-7612200D02*
X49241543Y-7516961D01*
X49241543Y-7516961D02*
X49241543Y-7421723D01*
X49241543Y-7421723D02*
X49289162Y-7326485D01*
X49289162Y-7326485D02*
X49384400Y-7278866D01*
X49384400Y-7278866D02*
X49622495Y-7278866D01*
X49622495Y-7278866D02*
X49717733Y-7231247D01*
X50622495Y-7659819D02*
X50622495Y-6659819D01*
X50622495Y-7612200D02*
X50527257Y-7659819D01*
X50527257Y-7659819D02*
X50336781Y-7659819D01*
X50336781Y-7659819D02*
X50241543Y-7612200D01*
X50241543Y-7612200D02*
X50193924Y-7564580D01*
X50193924Y-7564580D02*
X50146305Y-7469342D01*
X50146305Y-7469342D02*
X50146305Y-7183628D01*
X50146305Y-7183628D02*
X50193924Y-7088390D01*
X50193924Y-7088390D02*
X50241543Y-7040771D01*
X50241543Y-7040771D02*
X50336781Y-6993152D01*
X50336781Y-6993152D02*
X50527257Y-6993152D01*
X50527257Y-6993152D02*
X50622495Y-7040771D01*
X17667438Y-13439411D02*
X17619819Y-13534649D01*
X17619819Y-13534649D02*
X17619819Y-13677506D01*
X17619819Y-13677506D02*
X17667438Y-13820363D01*
X17667438Y-13820363D02*
X17762676Y-13915601D01*
X17762676Y-13915601D02*
X17857914Y-13963220D01*
X17857914Y-13963220D02*
X18048390Y-14010839D01*
X18048390Y-14010839D02*
X18191247Y-14010839D01*
X18191247Y-14010839D02*
X18381723Y-13963220D01*
X18381723Y-13963220D02*
X18476961Y-13915601D01*
X18476961Y-13915601D02*
X18572200Y-13820363D01*
X18572200Y-13820363D02*
X18619819Y-13677506D01*
X18619819Y-13677506D02*
X18619819Y-13582268D01*
X18619819Y-13582268D02*
X18572200Y-13439411D01*
X18572200Y-13439411D02*
X18524580Y-13391792D01*
X18524580Y-13391792D02*
X18191247Y-13391792D01*
X18191247Y-13391792D02*
X18191247Y-13582268D01*
X18572200Y-13010839D02*
X18619819Y-12867982D01*
X18619819Y-12867982D02*
X18619819Y-12629887D01*
X18619819Y-12629887D02*
X18572200Y-12534649D01*
X18572200Y-12534649D02*
X18524580Y-12487030D01*
X18524580Y-12487030D02*
X18429342Y-12439411D01*
X18429342Y-12439411D02*
X18334104Y-12439411D01*
X18334104Y-12439411D02*
X18238866Y-12487030D01*
X18238866Y-12487030D02*
X18191247Y-12534649D01*
X18191247Y-12534649D02*
X18143628Y-12629887D01*
X18143628Y-12629887D02*
X18096009Y-12820363D01*
X18096009Y-12820363D02*
X18048390Y-12915601D01*
X18048390Y-12915601D02*
X18000771Y-12963220D01*
X18000771Y-12963220D02*
X17905533Y-13010839D01*
X17905533Y-13010839D02*
X17810295Y-13010839D01*
X17810295Y-13010839D02*
X17715057Y-12963220D01*
X17715057Y-12963220D02*
X17667438Y-12915601D01*
X17667438Y-12915601D02*
X17619819Y-12820363D01*
X17619819Y-12820363D02*
X17619819Y-12582268D01*
X17619819Y-12582268D02*
X17667438Y-12439411D01*
X18619819Y-12010839D02*
X17619819Y-12010839D01*
X17619819Y-12010839D02*
X17619819Y-11772744D01*
X17619819Y-11772744D02*
X17667438Y-11629887D01*
X17667438Y-11629887D02*
X17762676Y-11534649D01*
X17762676Y-11534649D02*
X17857914Y-11487030D01*
X17857914Y-11487030D02*
X18048390Y-11439411D01*
X18048390Y-11439411D02*
X18191247Y-11439411D01*
X18191247Y-11439411D02*
X18381723Y-11487030D01*
X18381723Y-11487030D02*
X18476961Y-11534649D01*
X18476961Y-11534649D02*
X18572200Y-11629887D01*
X18572200Y-11629887D02*
X18619819Y-11772744D01*
X18619819Y-11772744D02*
X18619819Y-12010839D01*
X34336779Y-9819819D02*
X34336779Y-8819819D01*
X34336779Y-8819819D02*
X34670112Y-9534104D01*
X34670112Y-9534104D02*
X35003445Y-8819819D01*
X35003445Y-8819819D02*
X35003445Y-9819819D01*
X35908207Y-9819819D02*
X35908207Y-9296009D01*
X35908207Y-9296009D02*
X35860588Y-9200771D01*
X35860588Y-9200771D02*
X35765350Y-9153152D01*
X35765350Y-9153152D02*
X35574874Y-9153152D01*
X35574874Y-9153152D02*
X35479636Y-9200771D01*
X35908207Y-9772200D02*
X35812969Y-9819819D01*
X35812969Y-9819819D02*
X35574874Y-9819819D01*
X35574874Y-9819819D02*
X35479636Y-9772200D01*
X35479636Y-9772200D02*
X35432017Y-9676961D01*
X35432017Y-9676961D02*
X35432017Y-9581723D01*
X35432017Y-9581723D02*
X35479636Y-9486485D01*
X35479636Y-9486485D02*
X35574874Y-9438866D01*
X35574874Y-9438866D02*
X35812969Y-9438866D01*
X35812969Y-9438866D02*
X35908207Y-9391247D01*
X36384398Y-9819819D02*
X36384398Y-9153152D01*
X36384398Y-9343628D02*
X36432017Y-9248390D01*
X36432017Y-9248390D02*
X36479636Y-9200771D01*
X36479636Y-9200771D02*
X36574874Y-9153152D01*
X36574874Y-9153152D02*
X36670112Y-9153152D01*
X37432017Y-9772200D02*
X37336779Y-9819819D01*
X37336779Y-9819819D02*
X37146303Y-9819819D01*
X37146303Y-9819819D02*
X37051065Y-9772200D01*
X37051065Y-9772200D02*
X37003446Y-9724580D01*
X37003446Y-9724580D02*
X36955827Y-9629342D01*
X36955827Y-9629342D02*
X36955827Y-9343628D01*
X36955827Y-9343628D02*
X37003446Y-9248390D01*
X37003446Y-9248390D02*
X37051065Y-9200771D01*
X37051065Y-9200771D02*
X37146303Y-9153152D01*
X37146303Y-9153152D02*
X37336779Y-9153152D01*
X37336779Y-9153152D02*
X37432017Y-9200771D01*
X37860589Y-9819819D02*
X37860589Y-8819819D01*
X38289160Y-9819819D02*
X38289160Y-9296009D01*
X38289160Y-9296009D02*
X38241541Y-9200771D01*
X38241541Y-9200771D02*
X38146303Y-9153152D01*
X38146303Y-9153152D02*
X38003446Y-9153152D01*
X38003446Y-9153152D02*
X37908208Y-9200771D01*
X37908208Y-9200771D02*
X37860589Y-9248390D01*
X39479637Y-8915057D02*
X39527256Y-8867438D01*
X39527256Y-8867438D02*
X39622494Y-8819819D01*
X39622494Y-8819819D02*
X39860589Y-8819819D01*
X39860589Y-8819819D02*
X39955827Y-8867438D01*
X39955827Y-8867438D02*
X40003446Y-8915057D01*
X40003446Y-8915057D02*
X40051065Y-9010295D01*
X40051065Y-9010295D02*
X40051065Y-9105533D01*
X40051065Y-9105533D02*
X40003446Y-9248390D01*
X40003446Y-9248390D02*
X39432018Y-9819819D01*
X39432018Y-9819819D02*
X40051065Y-9819819D01*
X40670113Y-8819819D02*
X40765351Y-8819819D01*
X40765351Y-8819819D02*
X40860589Y-8867438D01*
X40860589Y-8867438D02*
X40908208Y-8915057D01*
X40908208Y-8915057D02*
X40955827Y-9010295D01*
X40955827Y-9010295D02*
X41003446Y-9200771D01*
X41003446Y-9200771D02*
X41003446Y-9438866D01*
X41003446Y-9438866D02*
X40955827Y-9629342D01*
X40955827Y-9629342D02*
X40908208Y-9724580D01*
X40908208Y-9724580D02*
X40860589Y-9772200D01*
X40860589Y-9772200D02*
X40765351Y-9819819D01*
X40765351Y-9819819D02*
X40670113Y-9819819D01*
X40670113Y-9819819D02*
X40574875Y-9772200D01*
X40574875Y-9772200D02*
X40527256Y-9724580D01*
X40527256Y-9724580D02*
X40479637Y-9629342D01*
X40479637Y-9629342D02*
X40432018Y-9438866D01*
X40432018Y-9438866D02*
X40432018Y-9200771D01*
X40432018Y-9200771D02*
X40479637Y-9010295D01*
X40479637Y-9010295D02*
X40527256Y-8915057D01*
X40527256Y-8915057D02*
X40574875Y-8867438D01*
X40574875Y-8867438D02*
X40670113Y-8819819D01*
X41384399Y-8915057D02*
X41432018Y-8867438D01*
X41432018Y-8867438D02*
X41527256Y-8819819D01*
X41527256Y-8819819D02*
X41765351Y-8819819D01*
X41765351Y-8819819D02*
X41860589Y-8867438D01*
X41860589Y-8867438D02*
X41908208Y-8915057D01*
X41908208Y-8915057D02*
X41955827Y-9010295D01*
X41955827Y-9010295D02*
X41955827Y-9105533D01*
X41955827Y-9105533D02*
X41908208Y-9248390D01*
X41908208Y-9248390D02*
X41336780Y-9819819D01*
X41336780Y-9819819D02*
X41955827Y-9819819D01*
X42860589Y-8819819D02*
X42384399Y-8819819D01*
X42384399Y-8819819D02*
X42336780Y-9296009D01*
X42336780Y-9296009D02*
X42384399Y-9248390D01*
X42384399Y-9248390D02*
X42479637Y-9200771D01*
X42479637Y-9200771D02*
X42717732Y-9200771D01*
X42717732Y-9200771D02*
X42812970Y-9248390D01*
X42812970Y-9248390D02*
X42860589Y-9296009D01*
X42860589Y-9296009D02*
X42908208Y-9391247D01*
X42908208Y-9391247D02*
X42908208Y-9629342D01*
X42908208Y-9629342D02*
X42860589Y-9724580D01*
X42860589Y-9724580D02*
X42812970Y-9772200D01*
X42812970Y-9772200D02*
X42717732Y-9819819D01*
X42717732Y-9819819D02*
X42479637Y-9819819D01*
X42479637Y-9819819D02*
X42384399Y-9772200D01*
X42384399Y-9772200D02*
X42336780Y-9724580D01*
X34289160Y-5322200D02*
X34432017Y-5369819D01*
X34432017Y-5369819D02*
X34670112Y-5369819D01*
X34670112Y-5369819D02*
X34765350Y-5322200D01*
X34765350Y-5322200D02*
X34812969Y-5274580D01*
X34812969Y-5274580D02*
X34860588Y-5179342D01*
X34860588Y-5179342D02*
X34860588Y-5084104D01*
X34860588Y-5084104D02*
X34812969Y-4988866D01*
X34812969Y-4988866D02*
X34765350Y-4941247D01*
X34765350Y-4941247D02*
X34670112Y-4893628D01*
X34670112Y-4893628D02*
X34479636Y-4846009D01*
X34479636Y-4846009D02*
X34384398Y-4798390D01*
X34384398Y-4798390D02*
X34336779Y-4750771D01*
X34336779Y-4750771D02*
X34289160Y-4655533D01*
X34289160Y-4655533D02*
X34289160Y-4560295D01*
X34289160Y-4560295D02*
X34336779Y-4465057D01*
X34336779Y-4465057D02*
X34384398Y-4417438D01*
X34384398Y-4417438D02*
X34479636Y-4369819D01*
X34479636Y-4369819D02*
X34717731Y-4369819D01*
X34717731Y-4369819D02*
X34860588Y-4417438D01*
X35193922Y-4703152D02*
X35384398Y-5369819D01*
X35384398Y-5369819D02*
X35574874Y-4893628D01*
X35574874Y-4893628D02*
X35765350Y-5369819D01*
X35765350Y-5369819D02*
X35955826Y-4703152D01*
X36336779Y-5369819D02*
X36336779Y-4703152D01*
X36336779Y-4369819D02*
X36289160Y-4417438D01*
X36289160Y-4417438D02*
X36336779Y-4465057D01*
X36336779Y-4465057D02*
X36384398Y-4417438D01*
X36384398Y-4417438D02*
X36336779Y-4369819D01*
X36336779Y-4369819D02*
X36336779Y-4465057D01*
X36670112Y-4703152D02*
X37051064Y-4703152D01*
X36812969Y-4369819D02*
X36812969Y-5226961D01*
X36812969Y-5226961D02*
X36860588Y-5322200D01*
X36860588Y-5322200D02*
X36955826Y-5369819D01*
X36955826Y-5369819D02*
X37051064Y-5369819D01*
X37812969Y-5322200D02*
X37717731Y-5369819D01*
X37717731Y-5369819D02*
X37527255Y-5369819D01*
X37527255Y-5369819D02*
X37432017Y-5322200D01*
X37432017Y-5322200D02*
X37384398Y-5274580D01*
X37384398Y-5274580D02*
X37336779Y-5179342D01*
X37336779Y-5179342D02*
X37336779Y-4893628D01*
X37336779Y-4893628D02*
X37384398Y-4798390D01*
X37384398Y-4798390D02*
X37432017Y-4750771D01*
X37432017Y-4750771D02*
X37527255Y-4703152D01*
X37527255Y-4703152D02*
X37717731Y-4703152D01*
X37717731Y-4703152D02*
X37812969Y-4750771D01*
X38241541Y-5369819D02*
X38241541Y-4369819D01*
X38670112Y-5369819D02*
X38670112Y-4846009D01*
X38670112Y-4846009D02*
X38622493Y-4750771D01*
X38622493Y-4750771D02*
X38527255Y-4703152D01*
X38527255Y-4703152D02*
X38384398Y-4703152D01*
X38384398Y-4703152D02*
X38289160Y-4750771D01*
X38289160Y-4750771D02*
X38241541Y-4798390D01*
X39146303Y-5369819D02*
X39146303Y-4703152D01*
X39146303Y-4798390D02*
X39193922Y-4750771D01*
X39193922Y-4750771D02*
X39289160Y-4703152D01*
X39289160Y-4703152D02*
X39432017Y-4703152D01*
X39432017Y-4703152D02*
X39527255Y-4750771D01*
X39527255Y-4750771D02*
X39574874Y-4846009D01*
X39574874Y-4846009D02*
X39574874Y-5369819D01*
X39574874Y-4846009D02*
X39622493Y-4750771D01*
X39622493Y-4750771D02*
X39717731Y-4703152D01*
X39717731Y-4703152D02*
X39860588Y-4703152D01*
X39860588Y-4703152D02*
X39955827Y-4750771D01*
X39955827Y-4750771D02*
X40003446Y-4846009D01*
X40003446Y-4846009D02*
X40003446Y-5369819D01*
X40622493Y-5369819D02*
X40527255Y-5322200D01*
X40527255Y-5322200D02*
X40479636Y-5274580D01*
X40479636Y-5274580D02*
X40432017Y-5179342D01*
X40432017Y-5179342D02*
X40432017Y-4893628D01*
X40432017Y-4893628D02*
X40479636Y-4798390D01*
X40479636Y-4798390D02*
X40527255Y-4750771D01*
X40527255Y-4750771D02*
X40622493Y-4703152D01*
X40622493Y-4703152D02*
X40765350Y-4703152D01*
X40765350Y-4703152D02*
X40860588Y-4750771D01*
X40860588Y-4750771D02*
X40908207Y-4798390D01*
X40908207Y-4798390D02*
X40955826Y-4893628D01*
X40955826Y-4893628D02*
X40955826Y-5179342D01*
X40955826Y-5179342D02*
X40908207Y-5274580D01*
X40908207Y-5274580D02*
X40860588Y-5322200D01*
X40860588Y-5322200D02*
X40765350Y-5369819D01*
X40765350Y-5369819D02*
X40622493Y-5369819D01*
X41812969Y-5369819D02*
X41812969Y-4369819D01*
X41812969Y-5322200D02*
X41717731Y-5369819D01*
X41717731Y-5369819D02*
X41527255Y-5369819D01*
X41527255Y-5369819D02*
X41432017Y-5322200D01*
X41432017Y-5322200D02*
X41384398Y-5274580D01*
X41384398Y-5274580D02*
X41336779Y-5179342D01*
X41336779Y-5179342D02*
X41336779Y-4893628D01*
X41336779Y-4893628D02*
X41384398Y-4798390D01*
X41384398Y-4798390D02*
X41432017Y-4750771D01*
X41432017Y-4750771D02*
X41527255Y-4703152D01*
X41527255Y-4703152D02*
X41717731Y-4703152D01*
X41717731Y-4703152D02*
X41812969Y-4750771D01*
X42670112Y-5322200D02*
X42574874Y-5369819D01*
X42574874Y-5369819D02*
X42384398Y-5369819D01*
X42384398Y-5369819D02*
X42289160Y-5322200D01*
X42289160Y-5322200D02*
X42241541Y-5226961D01*
X42241541Y-5226961D02*
X42241541Y-4846009D01*
X42241541Y-4846009D02*
X42289160Y-4750771D01*
X42289160Y-4750771D02*
X42384398Y-4703152D01*
X42384398Y-4703152D02*
X42574874Y-4703152D01*
X42574874Y-4703152D02*
X42670112Y-4750771D01*
X42670112Y-4750771D02*
X42717731Y-4846009D01*
X42717731Y-4846009D02*
X42717731Y-4941247D01*
X42717731Y-4941247D02*
X42241541Y-5036485D01*
X44479636Y-5274580D02*
X44432017Y-5322200D01*
X44432017Y-5322200D02*
X44289160Y-5369819D01*
X44289160Y-5369819D02*
X44193922Y-5369819D01*
X44193922Y-5369819D02*
X44051065Y-5322200D01*
X44051065Y-5322200D02*
X43955827Y-5226961D01*
X43955827Y-5226961D02*
X43908208Y-5131723D01*
X43908208Y-5131723D02*
X43860589Y-4941247D01*
X43860589Y-4941247D02*
X43860589Y-4798390D01*
X43860589Y-4798390D02*
X43908208Y-4607914D01*
X43908208Y-4607914D02*
X43955827Y-4512676D01*
X43955827Y-4512676D02*
X44051065Y-4417438D01*
X44051065Y-4417438D02*
X44193922Y-4369819D01*
X44193922Y-4369819D02*
X44289160Y-4369819D01*
X44289160Y-4369819D02*
X44432017Y-4417438D01*
X44432017Y-4417438D02*
X44479636Y-4465057D01*
X45051065Y-5369819D02*
X44955827Y-5322200D01*
X44955827Y-5322200D02*
X44908208Y-5274580D01*
X44908208Y-5274580D02*
X44860589Y-5179342D01*
X44860589Y-5179342D02*
X44860589Y-4893628D01*
X44860589Y-4893628D02*
X44908208Y-4798390D01*
X44908208Y-4798390D02*
X44955827Y-4750771D01*
X44955827Y-4750771D02*
X45051065Y-4703152D01*
X45051065Y-4703152D02*
X45193922Y-4703152D01*
X45193922Y-4703152D02*
X45289160Y-4750771D01*
X45289160Y-4750771D02*
X45336779Y-4798390D01*
X45336779Y-4798390D02*
X45384398Y-4893628D01*
X45384398Y-4893628D02*
X45384398Y-5179342D01*
X45384398Y-5179342D02*
X45336779Y-5274580D01*
X45336779Y-5274580D02*
X45289160Y-5322200D01*
X45289160Y-5322200D02*
X45193922Y-5369819D01*
X45193922Y-5369819D02*
X45051065Y-5369819D01*
X45955827Y-5369819D02*
X45860589Y-5322200D01*
X45860589Y-5322200D02*
X45812970Y-5274580D01*
X45812970Y-5274580D02*
X45765351Y-5179342D01*
X45765351Y-5179342D02*
X45765351Y-4893628D01*
X45765351Y-4893628D02*
X45812970Y-4798390D01*
X45812970Y-4798390D02*
X45860589Y-4750771D01*
X45860589Y-4750771D02*
X45955827Y-4703152D01*
X45955827Y-4703152D02*
X46098684Y-4703152D01*
X46098684Y-4703152D02*
X46193922Y-4750771D01*
X46193922Y-4750771D02*
X46241541Y-4798390D01*
X46241541Y-4798390D02*
X46289160Y-4893628D01*
X46289160Y-4893628D02*
X46289160Y-5179342D01*
X46289160Y-5179342D02*
X46241541Y-5274580D01*
X46241541Y-5274580D02*
X46193922Y-5322200D01*
X46193922Y-5322200D02*
X46098684Y-5369819D01*
X46098684Y-5369819D02*
X45955827Y-5369819D01*
X46860589Y-5369819D02*
X46765351Y-5322200D01*
X46765351Y-5322200D02*
X46717732Y-5226961D01*
X46717732Y-5226961D02*
X46717732Y-4369819D01*
X47193923Y-5084104D02*
X47670113Y-5084104D01*
X47098685Y-5369819D02*
X47432018Y-4369819D01*
X47432018Y-4369819D02*
X47765351Y-5369819D01*
X48098685Y-5369819D02*
X48098685Y-4369819D01*
X48098685Y-4369819D02*
X48432018Y-5084104D01*
X48432018Y-5084104D02*
X48765351Y-4369819D01*
X48765351Y-4369819D02*
X48765351Y-5369819D01*
X49241542Y-5369819D02*
X49241542Y-4369819D01*
X49241542Y-4369819D02*
X49622494Y-4369819D01*
X49622494Y-4369819D02*
X49717732Y-4417438D01*
X49717732Y-4417438D02*
X49765351Y-4465057D01*
X49765351Y-4465057D02*
X49812970Y-4560295D01*
X49812970Y-4560295D02*
X49812970Y-4703152D01*
X49812970Y-4703152D02*
X49765351Y-4798390D01*
X49765351Y-4798390D02*
X49717732Y-4846009D01*
X49717732Y-4846009D02*
X49622494Y-4893628D01*
X49622494Y-4893628D02*
X49241542Y-4893628D01*
X51527256Y-4417438D02*
X51432018Y-4369819D01*
X51432018Y-4369819D02*
X51289161Y-4369819D01*
X51289161Y-4369819D02*
X51146304Y-4417438D01*
X51146304Y-4417438D02*
X51051066Y-4512676D01*
X51051066Y-4512676D02*
X51003447Y-4607914D01*
X51003447Y-4607914D02*
X50955828Y-4798390D01*
X50955828Y-4798390D02*
X50955828Y-4941247D01*
X50955828Y-4941247D02*
X51003447Y-5131723D01*
X51003447Y-5131723D02*
X51051066Y-5226961D01*
X51051066Y-5226961D02*
X51146304Y-5322200D01*
X51146304Y-5322200D02*
X51289161Y-5369819D01*
X51289161Y-5369819D02*
X51384399Y-5369819D01*
X51384399Y-5369819D02*
X51527256Y-5322200D01*
X51527256Y-5322200D02*
X51574875Y-5274580D01*
X51574875Y-5274580D02*
X51574875Y-4941247D01*
X51574875Y-4941247D02*
X51384399Y-4941247D01*
X51955828Y-5322200D02*
X52098685Y-5369819D01*
X52098685Y-5369819D02*
X52336780Y-5369819D01*
X52336780Y-5369819D02*
X52432018Y-5322200D01*
X52432018Y-5322200D02*
X52479637Y-5274580D01*
X52479637Y-5274580D02*
X52527256Y-5179342D01*
X52527256Y-5179342D02*
X52527256Y-5084104D01*
X52527256Y-5084104D02*
X52479637Y-4988866D01*
X52479637Y-4988866D02*
X52432018Y-4941247D01*
X52432018Y-4941247D02*
X52336780Y-4893628D01*
X52336780Y-4893628D02*
X52146304Y-4846009D01*
X52146304Y-4846009D02*
X52051066Y-4798390D01*
X52051066Y-4798390D02*
X52003447Y-4750771D01*
X52003447Y-4750771D02*
X51955828Y-4655533D01*
X51955828Y-4655533D02*
X51955828Y-4560295D01*
X51955828Y-4560295D02*
X52003447Y-4465057D01*
X52003447Y-4465057D02*
X52051066Y-4417438D01*
X52051066Y-4417438D02*
X52146304Y-4369819D01*
X52146304Y-4369819D02*
X52384399Y-4369819D01*
X52384399Y-4369819D02*
X52527256Y-4417438D01*
X52955828Y-5369819D02*
X52955828Y-4369819D01*
X52955828Y-4369819D02*
X53193923Y-4369819D01*
X53193923Y-4369819D02*
X53336780Y-4417438D01*
X53336780Y-4417438D02*
X53432018Y-4512676D01*
X53432018Y-4512676D02*
X53479637Y-4607914D01*
X53479637Y-4607914D02*
X53527256Y-4798390D01*
X53527256Y-4798390D02*
X53527256Y-4941247D01*
X53527256Y-4941247D02*
X53479637Y-5131723D01*
X53479637Y-5131723D02*
X53432018Y-5226961D01*
X53432018Y-5226961D02*
X53336780Y-5322200D01*
X53336780Y-5322200D02*
X53193923Y-5369819D01*
X53193923Y-5369819D02*
X52955828Y-5369819D01*
D11*
X26544895Y-41865238D02*
X26544895Y-42322381D01*
X26544895Y-42093809D02*
X25744895Y-42093809D01*
X25744895Y-42093809D02*
X25859180Y-42170000D01*
X25859180Y-42170000D02*
X25935371Y-42246190D01*
X25935371Y-42246190D02*
X25973466Y-42322381D01*
X25744895Y-41369999D02*
X25744895Y-41293809D01*
X25744895Y-41293809D02*
X25782990Y-41217618D01*
X25782990Y-41217618D02*
X25821085Y-41179523D01*
X25821085Y-41179523D02*
X25897276Y-41141428D01*
X25897276Y-41141428D02*
X26049657Y-41103333D01*
X26049657Y-41103333D02*
X26240133Y-41103333D01*
X26240133Y-41103333D02*
X26392514Y-41141428D01*
X26392514Y-41141428D02*
X26468704Y-41179523D01*
X26468704Y-41179523D02*
X26506800Y-41217618D01*
X26506800Y-41217618D02*
X26544895Y-41293809D01*
X26544895Y-41293809D02*
X26544895Y-41369999D01*
X26544895Y-41369999D02*
X26506800Y-41446190D01*
X26506800Y-41446190D02*
X26468704Y-41484285D01*
X26468704Y-41484285D02*
X26392514Y-41522380D01*
X26392514Y-41522380D02*
X26240133Y-41560476D01*
X26240133Y-41560476D02*
X26049657Y-41560476D01*
X26049657Y-41560476D02*
X25897276Y-41522380D01*
X25897276Y-41522380D02*
X25821085Y-41484285D01*
X25821085Y-41484285D02*
X25782990Y-41446190D01*
X25782990Y-41446190D02*
X25744895Y-41369999D01*
X25744895Y-40608094D02*
X25744895Y-40531904D01*
X25744895Y-40531904D02*
X25782990Y-40455713D01*
X25782990Y-40455713D02*
X25821085Y-40417618D01*
X25821085Y-40417618D02*
X25897276Y-40379523D01*
X25897276Y-40379523D02*
X26049657Y-40341428D01*
X26049657Y-40341428D02*
X26240133Y-40341428D01*
X26240133Y-40341428D02*
X26392514Y-40379523D01*
X26392514Y-40379523D02*
X26468704Y-40417618D01*
X26468704Y-40417618D02*
X26506800Y-40455713D01*
X26506800Y-40455713D02*
X26544895Y-40531904D01*
X26544895Y-40531904D02*
X26544895Y-40608094D01*
X26544895Y-40608094D02*
X26506800Y-40684285D01*
X26506800Y-40684285D02*
X26468704Y-40722380D01*
X26468704Y-40722380D02*
X26392514Y-40760475D01*
X26392514Y-40760475D02*
X26240133Y-40798571D01*
X26240133Y-40798571D02*
X26049657Y-40798571D01*
X26049657Y-40798571D02*
X25897276Y-40760475D01*
X25897276Y-40760475D02*
X25821085Y-40722380D01*
X25821085Y-40722380D02*
X25782990Y-40684285D01*
X25782990Y-40684285D02*
X25744895Y-40608094D01*
X26011561Y-39998570D02*
X26544895Y-39998570D01*
X26087752Y-39998570D02*
X26049657Y-39960475D01*
X26049657Y-39960475D02*
X26011561Y-39884285D01*
X26011561Y-39884285D02*
X26011561Y-39769999D01*
X26011561Y-39769999D02*
X26049657Y-39693808D01*
X26049657Y-39693808D02*
X26125847Y-39655713D01*
X26125847Y-39655713D02*
X26544895Y-39655713D01*
D10*
X19288095Y-28304819D02*
X19288095Y-27304819D01*
X19859523Y-28304819D02*
X19430952Y-27733390D01*
X19859523Y-27304819D02*
X19288095Y-27876247D01*
X52082261Y-22582295D02*
X51625118Y-22582295D01*
X51853690Y-22582295D02*
X51853690Y-21782295D01*
X51853690Y-21782295D02*
X51777499Y-21896580D01*
X51777499Y-21896580D02*
X51701309Y-21972771D01*
X51701309Y-21972771D02*
X51625118Y-22010866D01*
X52577500Y-21782295D02*
X52653690Y-21782295D01*
X52653690Y-21782295D02*
X52729881Y-21820390D01*
X52729881Y-21820390D02*
X52767976Y-21858485D01*
X52767976Y-21858485D02*
X52806071Y-21934676D01*
X52806071Y-21934676D02*
X52844166Y-22087057D01*
X52844166Y-22087057D02*
X52844166Y-22277533D01*
X52844166Y-22277533D02*
X52806071Y-22429914D01*
X52806071Y-22429914D02*
X52767976Y-22506104D01*
X52767976Y-22506104D02*
X52729881Y-22544200D01*
X52729881Y-22544200D02*
X52653690Y-22582295D01*
X52653690Y-22582295D02*
X52577500Y-22582295D01*
X52577500Y-22582295D02*
X52501309Y-22544200D01*
X52501309Y-22544200D02*
X52463214Y-22506104D01*
X52463214Y-22506104D02*
X52425119Y-22429914D01*
X52425119Y-22429914D02*
X52387023Y-22277533D01*
X52387023Y-22277533D02*
X52387023Y-22087057D01*
X52387023Y-22087057D02*
X52425119Y-21934676D01*
X52425119Y-21934676D02*
X52463214Y-21858485D01*
X52463214Y-21858485D02*
X52501309Y-21820390D01*
X52501309Y-21820390D02*
X52577500Y-21782295D01*
X53339405Y-21782295D02*
X53415595Y-21782295D01*
X53415595Y-21782295D02*
X53491786Y-21820390D01*
X53491786Y-21820390D02*
X53529881Y-21858485D01*
X53529881Y-21858485D02*
X53567976Y-21934676D01*
X53567976Y-21934676D02*
X53606071Y-22087057D01*
X53606071Y-22087057D02*
X53606071Y-22277533D01*
X53606071Y-22277533D02*
X53567976Y-22429914D01*
X53567976Y-22429914D02*
X53529881Y-22506104D01*
X53529881Y-22506104D02*
X53491786Y-22544200D01*
X53491786Y-22544200D02*
X53415595Y-22582295D01*
X53415595Y-22582295D02*
X53339405Y-22582295D01*
X53339405Y-22582295D02*
X53263214Y-22544200D01*
X53263214Y-22544200D02*
X53225119Y-22506104D01*
X53225119Y-22506104D02*
X53187024Y-22429914D01*
X53187024Y-22429914D02*
X53148928Y-22277533D01*
X53148928Y-22277533D02*
X53148928Y-22087057D01*
X53148928Y-22087057D02*
X53187024Y-21934676D01*
X53187024Y-21934676D02*
X53225119Y-21858485D01*
X53225119Y-21858485D02*
X53263214Y-21820390D01*
X53263214Y-21820390D02*
X53339405Y-21782295D01*
X53948929Y-22048961D02*
X53948929Y-22582295D01*
X53948929Y-22125152D02*
X53987024Y-22087057D01*
X53987024Y-22087057D02*
X54063214Y-22048961D01*
X54063214Y-22048961D02*
X54177500Y-22048961D01*
X54177500Y-22048961D02*
X54253691Y-22087057D01*
X54253691Y-22087057D02*
X54291786Y-22163247D01*
X54291786Y-22163247D02*
X54291786Y-22582295D01*
D11*
X6402990Y-20940476D02*
X6364895Y-21016666D01*
X6364895Y-21016666D02*
X6364895Y-21130952D01*
X6364895Y-21130952D02*
X6402990Y-21245238D01*
X6402990Y-21245238D02*
X6479180Y-21321428D01*
X6479180Y-21321428D02*
X6555371Y-21359523D01*
X6555371Y-21359523D02*
X6707752Y-21397619D01*
X6707752Y-21397619D02*
X6822038Y-21397619D01*
X6822038Y-21397619D02*
X6974419Y-21359523D01*
X6974419Y-21359523D02*
X7050609Y-21321428D01*
X7050609Y-21321428D02*
X7126800Y-21245238D01*
X7126800Y-21245238D02*
X7164895Y-21130952D01*
X7164895Y-21130952D02*
X7164895Y-21054761D01*
X7164895Y-21054761D02*
X7126800Y-20940476D01*
X7126800Y-20940476D02*
X7088704Y-20902380D01*
X7088704Y-20902380D02*
X6822038Y-20902380D01*
X6822038Y-20902380D02*
X6822038Y-21054761D01*
X7164895Y-20559523D02*
X6364895Y-20559523D01*
X6364895Y-20559523D02*
X6364895Y-20369047D01*
X6364895Y-20369047D02*
X6402990Y-20254761D01*
X6402990Y-20254761D02*
X6479180Y-20178571D01*
X6479180Y-20178571D02*
X6555371Y-20140476D01*
X6555371Y-20140476D02*
X6707752Y-20102380D01*
X6707752Y-20102380D02*
X6822038Y-20102380D01*
X6822038Y-20102380D02*
X6974419Y-20140476D01*
X6974419Y-20140476D02*
X7050609Y-20178571D01*
X7050609Y-20178571D02*
X7126800Y-20254761D01*
X7126800Y-20254761D02*
X7164895Y-20369047D01*
X7164895Y-20369047D02*
X7164895Y-20559523D01*
D10*
X53530952Y-34354819D02*
X52959524Y-34354819D01*
X53245238Y-34354819D02*
X53245238Y-33354819D01*
X53245238Y-33354819D02*
X53150000Y-33497676D01*
X53150000Y-33497676D02*
X53054762Y-33592914D01*
X53054762Y-33592914D02*
X52959524Y-33640533D01*
X54150000Y-33354819D02*
X54245238Y-33354819D01*
X54245238Y-33354819D02*
X54340476Y-33402438D01*
X54340476Y-33402438D02*
X54388095Y-33450057D01*
X54388095Y-33450057D02*
X54435714Y-33545295D01*
X54435714Y-33545295D02*
X54483333Y-33735771D01*
X54483333Y-33735771D02*
X54483333Y-33973866D01*
X54483333Y-33973866D02*
X54435714Y-34164342D01*
X54435714Y-34164342D02*
X54388095Y-34259580D01*
X54388095Y-34259580D02*
X54340476Y-34307200D01*
X54340476Y-34307200D02*
X54245238Y-34354819D01*
X54245238Y-34354819D02*
X54150000Y-34354819D01*
X54150000Y-34354819D02*
X54054762Y-34307200D01*
X54054762Y-34307200D02*
X54007143Y-34259580D01*
X54007143Y-34259580D02*
X53959524Y-34164342D01*
X53959524Y-34164342D02*
X53911905Y-33973866D01*
X53911905Y-33973866D02*
X53911905Y-33735771D01*
X53911905Y-33735771D02*
X53959524Y-33545295D01*
X53959524Y-33545295D02*
X54007143Y-33450057D01*
X54007143Y-33450057D02*
X54054762Y-33402438D01*
X54054762Y-33402438D02*
X54150000Y-33354819D01*
X55102381Y-33354819D02*
X55197619Y-33354819D01*
X55197619Y-33354819D02*
X55292857Y-33402438D01*
X55292857Y-33402438D02*
X55340476Y-33450057D01*
X55340476Y-33450057D02*
X55388095Y-33545295D01*
X55388095Y-33545295D02*
X55435714Y-33735771D01*
X55435714Y-33735771D02*
X55435714Y-33973866D01*
X55435714Y-33973866D02*
X55388095Y-34164342D01*
X55388095Y-34164342D02*
X55340476Y-34259580D01*
X55340476Y-34259580D02*
X55292857Y-34307200D01*
X55292857Y-34307200D02*
X55197619Y-34354819D01*
X55197619Y-34354819D02*
X55102381Y-34354819D01*
X55102381Y-34354819D02*
X55007143Y-34307200D01*
X55007143Y-34307200D02*
X54959524Y-34259580D01*
X54959524Y-34259580D02*
X54911905Y-34164342D01*
X54911905Y-34164342D02*
X54864286Y-33973866D01*
X54864286Y-33973866D02*
X54864286Y-33735771D01*
X54864286Y-33735771D02*
X54911905Y-33545295D01*
X54911905Y-33545295D02*
X54959524Y-33450057D01*
X54959524Y-33450057D02*
X55007143Y-33402438D01*
X55007143Y-33402438D02*
X55102381Y-33354819D01*
X56292857Y-33688152D02*
X56292857Y-34354819D01*
X55864286Y-33688152D02*
X55864286Y-34211961D01*
X55864286Y-34211961D02*
X55911905Y-34307200D01*
X55911905Y-34307200D02*
X56007143Y-34354819D01*
X56007143Y-34354819D02*
X56150000Y-34354819D01*
X56150000Y-34354819D02*
X56245238Y-34307200D01*
X56245238Y-34307200D02*
X56292857Y-34259580D01*
X34672022Y-17969062D02*
X35244256Y-17969062D01*
X34958139Y-18970471D02*
X34958139Y-17969062D01*
X36102606Y-18970471D02*
X35530372Y-18970471D01*
X35816489Y-18970471D02*
X35816489Y-17969062D01*
X35816489Y-17969062D02*
X35721117Y-18112120D01*
X35721117Y-18112120D02*
X35625744Y-18207492D01*
X35625744Y-18207492D02*
X35530372Y-18255179D01*
X43004761Y-43012295D02*
X42547618Y-43012295D01*
X42776190Y-43012295D02*
X42776190Y-42212295D01*
X42776190Y-42212295D02*
X42699999Y-42326580D01*
X42699999Y-42326580D02*
X42623809Y-42402771D01*
X42623809Y-42402771D02*
X42547618Y-42440866D01*
X43500000Y-42212295D02*
X43576190Y-42212295D01*
X43576190Y-42212295D02*
X43652381Y-42250390D01*
X43652381Y-42250390D02*
X43690476Y-42288485D01*
X43690476Y-42288485D02*
X43728571Y-42364676D01*
X43728571Y-42364676D02*
X43766666Y-42517057D01*
X43766666Y-42517057D02*
X43766666Y-42707533D01*
X43766666Y-42707533D02*
X43728571Y-42859914D01*
X43728571Y-42859914D02*
X43690476Y-42936104D01*
X43690476Y-42936104D02*
X43652381Y-42974200D01*
X43652381Y-42974200D02*
X43576190Y-43012295D01*
X43576190Y-43012295D02*
X43500000Y-43012295D01*
X43500000Y-43012295D02*
X43423809Y-42974200D01*
X43423809Y-42974200D02*
X43385714Y-42936104D01*
X43385714Y-42936104D02*
X43347619Y-42859914D01*
X43347619Y-42859914D02*
X43309523Y-42707533D01*
X43309523Y-42707533D02*
X43309523Y-42517057D01*
X43309523Y-42517057D02*
X43347619Y-42364676D01*
X43347619Y-42364676D02*
X43385714Y-42288485D01*
X43385714Y-42288485D02*
X43423809Y-42250390D01*
X43423809Y-42250390D02*
X43500000Y-42212295D01*
X44261905Y-42212295D02*
X44338095Y-42212295D01*
X44338095Y-42212295D02*
X44414286Y-42250390D01*
X44414286Y-42250390D02*
X44452381Y-42288485D01*
X44452381Y-42288485D02*
X44490476Y-42364676D01*
X44490476Y-42364676D02*
X44528571Y-42517057D01*
X44528571Y-42517057D02*
X44528571Y-42707533D01*
X44528571Y-42707533D02*
X44490476Y-42859914D01*
X44490476Y-42859914D02*
X44452381Y-42936104D01*
X44452381Y-42936104D02*
X44414286Y-42974200D01*
X44414286Y-42974200D02*
X44338095Y-43012295D01*
X44338095Y-43012295D02*
X44261905Y-43012295D01*
X44261905Y-43012295D02*
X44185714Y-42974200D01*
X44185714Y-42974200D02*
X44147619Y-42936104D01*
X44147619Y-42936104D02*
X44109524Y-42859914D01*
X44109524Y-42859914D02*
X44071428Y-42707533D01*
X44071428Y-42707533D02*
X44071428Y-42517057D01*
X44071428Y-42517057D02*
X44109524Y-42364676D01*
X44109524Y-42364676D02*
X44147619Y-42288485D01*
X44147619Y-42288485D02*
X44185714Y-42250390D01*
X44185714Y-42250390D02*
X44261905Y-42212295D01*
X44871429Y-42478961D02*
X44871429Y-43012295D01*
X44871429Y-42555152D02*
X44909524Y-42517057D01*
X44909524Y-42517057D02*
X44985714Y-42478961D01*
X44985714Y-42478961D02*
X45100000Y-42478961D01*
X45100000Y-42478961D02*
X45176191Y-42517057D01*
X45176191Y-42517057D02*
X45214286Y-42593247D01*
X45214286Y-42593247D02*
X45214286Y-43012295D01*
X32534795Y-33705238D02*
X32534795Y-34162381D01*
X32534795Y-33933809D02*
X31734795Y-33933809D01*
X31734795Y-33933809D02*
X31849080Y-34010000D01*
X31849080Y-34010000D02*
X31925271Y-34086190D01*
X31925271Y-34086190D02*
X31963366Y-34162381D01*
X31734795Y-33209999D02*
X31734795Y-33133809D01*
X31734795Y-33133809D02*
X31772890Y-33057618D01*
X31772890Y-33057618D02*
X31810985Y-33019523D01*
X31810985Y-33019523D02*
X31887176Y-32981428D01*
X31887176Y-32981428D02*
X32039557Y-32943333D01*
X32039557Y-32943333D02*
X32230033Y-32943333D01*
X32230033Y-32943333D02*
X32382414Y-32981428D01*
X32382414Y-32981428D02*
X32458604Y-33019523D01*
X32458604Y-33019523D02*
X32496700Y-33057618D01*
X32496700Y-33057618D02*
X32534795Y-33133809D01*
X32534795Y-33133809D02*
X32534795Y-33209999D01*
X32534795Y-33209999D02*
X32496700Y-33286190D01*
X32496700Y-33286190D02*
X32458604Y-33324285D01*
X32458604Y-33324285D02*
X32382414Y-33362380D01*
X32382414Y-33362380D02*
X32230033Y-33400476D01*
X32230033Y-33400476D02*
X32039557Y-33400476D01*
X32039557Y-33400476D02*
X31887176Y-33362380D01*
X31887176Y-33362380D02*
X31810985Y-33324285D01*
X31810985Y-33324285D02*
X31772890Y-33286190D01*
X31772890Y-33286190D02*
X31734795Y-33209999D01*
X31734795Y-32448094D02*
X31734795Y-32371904D01*
X31734795Y-32371904D02*
X31772890Y-32295713D01*
X31772890Y-32295713D02*
X31810985Y-32257618D01*
X31810985Y-32257618D02*
X31887176Y-32219523D01*
X31887176Y-32219523D02*
X32039557Y-32181428D01*
X32039557Y-32181428D02*
X32230033Y-32181428D01*
X32230033Y-32181428D02*
X32382414Y-32219523D01*
X32382414Y-32219523D02*
X32458604Y-32257618D01*
X32458604Y-32257618D02*
X32496700Y-32295713D01*
X32496700Y-32295713D02*
X32534795Y-32371904D01*
X32534795Y-32371904D02*
X32534795Y-32448094D01*
X32534795Y-32448094D02*
X32496700Y-32524285D01*
X32496700Y-32524285D02*
X32458604Y-32562380D01*
X32458604Y-32562380D02*
X32382414Y-32600475D01*
X32382414Y-32600475D02*
X32230033Y-32638571D01*
X32230033Y-32638571D02*
X32039557Y-32638571D01*
X32039557Y-32638571D02*
X31887176Y-32600475D01*
X31887176Y-32600475D02*
X31810985Y-32562380D01*
X31810985Y-32562380D02*
X31772890Y-32524285D01*
X31772890Y-32524285D02*
X31734795Y-32448094D01*
X32001461Y-31838570D02*
X32534795Y-31838570D01*
X32077652Y-31838570D02*
X32039557Y-31800475D01*
X32039557Y-31800475D02*
X32001461Y-31724285D01*
X32001461Y-31724285D02*
X32001461Y-31609999D01*
X32001461Y-31609999D02*
X32039557Y-31533808D01*
X32039557Y-31533808D02*
X32115747Y-31495713D01*
X32115747Y-31495713D02*
X32534795Y-31495713D01*
X9302381Y-28704819D02*
X9969047Y-28704819D01*
X9969047Y-28704819D02*
X9540476Y-29704819D01*
X10492857Y-29133390D02*
X10397619Y-29085771D01*
X10397619Y-29085771D02*
X10350000Y-29038152D01*
X10350000Y-29038152D02*
X10302381Y-28942914D01*
X10302381Y-28942914D02*
X10302381Y-28895295D01*
X10302381Y-28895295D02*
X10350000Y-28800057D01*
X10350000Y-28800057D02*
X10397619Y-28752438D01*
X10397619Y-28752438D02*
X10492857Y-28704819D01*
X10492857Y-28704819D02*
X10683333Y-28704819D01*
X10683333Y-28704819D02*
X10778571Y-28752438D01*
X10778571Y-28752438D02*
X10826190Y-28800057D01*
X10826190Y-28800057D02*
X10873809Y-28895295D01*
X10873809Y-28895295D02*
X10873809Y-28942914D01*
X10873809Y-28942914D02*
X10826190Y-29038152D01*
X10826190Y-29038152D02*
X10778571Y-29085771D01*
X10778571Y-29085771D02*
X10683333Y-29133390D01*
X10683333Y-29133390D02*
X10492857Y-29133390D01*
X10492857Y-29133390D02*
X10397619Y-29181009D01*
X10397619Y-29181009D02*
X10350000Y-29228628D01*
X10350000Y-29228628D02*
X10302381Y-29323866D01*
X10302381Y-29323866D02*
X10302381Y-29514342D01*
X10302381Y-29514342D02*
X10350000Y-29609580D01*
X10350000Y-29609580D02*
X10397619Y-29657200D01*
X10397619Y-29657200D02*
X10492857Y-29704819D01*
X10492857Y-29704819D02*
X10683333Y-29704819D01*
X10683333Y-29704819D02*
X10778571Y-29657200D01*
X10778571Y-29657200D02*
X10826190Y-29609580D01*
X10826190Y-29609580D02*
X10873809Y-29514342D01*
X10873809Y-29514342D02*
X10873809Y-29323866D01*
X10873809Y-29323866D02*
X10826190Y-29228628D01*
X10826190Y-29228628D02*
X10778571Y-29181009D01*
X10778571Y-29181009D02*
X10683333Y-29133390D01*
X11492857Y-28704819D02*
X11588095Y-28704819D01*
X11588095Y-28704819D02*
X11683333Y-28752438D01*
X11683333Y-28752438D02*
X11730952Y-28800057D01*
X11730952Y-28800057D02*
X11778571Y-28895295D01*
X11778571Y-28895295D02*
X11826190Y-29085771D01*
X11826190Y-29085771D02*
X11826190Y-29323866D01*
X11826190Y-29323866D02*
X11778571Y-29514342D01*
X11778571Y-29514342D02*
X11730952Y-29609580D01*
X11730952Y-29609580D02*
X11683333Y-29657200D01*
X11683333Y-29657200D02*
X11588095Y-29704819D01*
X11588095Y-29704819D02*
X11492857Y-29704819D01*
X11492857Y-29704819D02*
X11397619Y-29657200D01*
X11397619Y-29657200D02*
X11350000Y-29609580D01*
X11350000Y-29609580D02*
X11302381Y-29514342D01*
X11302381Y-29514342D02*
X11254762Y-29323866D01*
X11254762Y-29323866D02*
X11254762Y-29085771D01*
X11254762Y-29085771D02*
X11302381Y-28895295D01*
X11302381Y-28895295D02*
X11350000Y-28800057D01*
X11350000Y-28800057D02*
X11397619Y-28752438D01*
X11397619Y-28752438D02*
X11492857Y-28704819D01*
X12730952Y-28704819D02*
X12254762Y-28704819D01*
X12254762Y-28704819D02*
X12207143Y-29181009D01*
X12207143Y-29181009D02*
X12254762Y-29133390D01*
X12254762Y-29133390D02*
X12350000Y-29085771D01*
X12350000Y-29085771D02*
X12588095Y-29085771D01*
X12588095Y-29085771D02*
X12683333Y-29133390D01*
X12683333Y-29133390D02*
X12730952Y-29181009D01*
X12730952Y-29181009D02*
X12778571Y-29276247D01*
X12778571Y-29276247D02*
X12778571Y-29514342D01*
X12778571Y-29514342D02*
X12730952Y-29609580D01*
X12730952Y-29609580D02*
X12683333Y-29657200D01*
X12683333Y-29657200D02*
X12588095Y-29704819D01*
X12588095Y-29704819D02*
X12350000Y-29704819D01*
X12350000Y-29704819D02*
X12254762Y-29657200D01*
X12254762Y-29657200D02*
X12207143Y-29609580D01*
X13969048Y-29704819D02*
X13969048Y-28704819D01*
X13969048Y-28704819D02*
X14207143Y-28704819D01*
X14207143Y-28704819D02*
X14350000Y-28752438D01*
X14350000Y-28752438D02*
X14445238Y-28847676D01*
X14445238Y-28847676D02*
X14492857Y-28942914D01*
X14492857Y-28942914D02*
X14540476Y-29133390D01*
X14540476Y-29133390D02*
X14540476Y-29276247D01*
X14540476Y-29276247D02*
X14492857Y-29466723D01*
X14492857Y-29466723D02*
X14445238Y-29561961D01*
X14445238Y-29561961D02*
X14350000Y-29657200D01*
X14350000Y-29657200D02*
X14207143Y-29704819D01*
X14207143Y-29704819D02*
X13969048Y-29704819D01*
X14921429Y-28800057D02*
X14969048Y-28752438D01*
X14969048Y-28752438D02*
X15064286Y-28704819D01*
X15064286Y-28704819D02*
X15302381Y-28704819D01*
X15302381Y-28704819D02*
X15397619Y-28752438D01*
X15397619Y-28752438D02*
X15445238Y-28800057D01*
X15445238Y-28800057D02*
X15492857Y-28895295D01*
X15492857Y-28895295D02*
X15492857Y-28990533D01*
X15492857Y-28990533D02*
X15445238Y-29133390D01*
X15445238Y-29133390D02*
X14873810Y-29704819D01*
X14873810Y-29704819D02*
X15492857Y-29704819D01*
X15921429Y-29704819D02*
X15921429Y-28704819D01*
X15921429Y-28704819D02*
X16302381Y-28704819D01*
X16302381Y-28704819D02*
X16397619Y-28752438D01*
X16397619Y-28752438D02*
X16445238Y-28800057D01*
X16445238Y-28800057D02*
X16492857Y-28895295D01*
X16492857Y-28895295D02*
X16492857Y-29038152D01*
X16492857Y-29038152D02*
X16445238Y-29133390D01*
X16445238Y-29133390D02*
X16397619Y-29181009D01*
X16397619Y-29181009D02*
X16302381Y-29228628D01*
X16302381Y-29228628D02*
X15921429Y-29228628D01*
X16873810Y-29419104D02*
X17350000Y-29419104D01*
X16778572Y-29704819D02*
X17111905Y-28704819D01*
X17111905Y-28704819D02*
X17445238Y-29704819D01*
X17778572Y-29704819D02*
X17778572Y-28704819D01*
X18350000Y-29704819D02*
X17921429Y-29133390D01*
X18350000Y-28704819D02*
X17778572Y-29276247D01*
X43512295Y-34585238D02*
X43512295Y-35042381D01*
X43512295Y-34813809D02*
X42712295Y-34813809D01*
X42712295Y-34813809D02*
X42826580Y-34890000D01*
X42826580Y-34890000D02*
X42902771Y-34966190D01*
X42902771Y-34966190D02*
X42940866Y-35042381D01*
X42712295Y-34089999D02*
X42712295Y-34013809D01*
X42712295Y-34013809D02*
X42750390Y-33937618D01*
X42750390Y-33937618D02*
X42788485Y-33899523D01*
X42788485Y-33899523D02*
X42864676Y-33861428D01*
X42864676Y-33861428D02*
X43017057Y-33823333D01*
X43017057Y-33823333D02*
X43207533Y-33823333D01*
X43207533Y-33823333D02*
X43359914Y-33861428D01*
X43359914Y-33861428D02*
X43436104Y-33899523D01*
X43436104Y-33899523D02*
X43474200Y-33937618D01*
X43474200Y-33937618D02*
X43512295Y-34013809D01*
X43512295Y-34013809D02*
X43512295Y-34089999D01*
X43512295Y-34089999D02*
X43474200Y-34166190D01*
X43474200Y-34166190D02*
X43436104Y-34204285D01*
X43436104Y-34204285D02*
X43359914Y-34242380D01*
X43359914Y-34242380D02*
X43207533Y-34280476D01*
X43207533Y-34280476D02*
X43017057Y-34280476D01*
X43017057Y-34280476D02*
X42864676Y-34242380D01*
X42864676Y-34242380D02*
X42788485Y-34204285D01*
X42788485Y-34204285D02*
X42750390Y-34166190D01*
X42750390Y-34166190D02*
X42712295Y-34089999D01*
X42712295Y-33328094D02*
X42712295Y-33251904D01*
X42712295Y-33251904D02*
X42750390Y-33175713D01*
X42750390Y-33175713D02*
X42788485Y-33137618D01*
X42788485Y-33137618D02*
X42864676Y-33099523D01*
X42864676Y-33099523D02*
X43017057Y-33061428D01*
X43017057Y-33061428D02*
X43207533Y-33061428D01*
X43207533Y-33061428D02*
X43359914Y-33099523D01*
X43359914Y-33099523D02*
X43436104Y-33137618D01*
X43436104Y-33137618D02*
X43474200Y-33175713D01*
X43474200Y-33175713D02*
X43512295Y-33251904D01*
X43512295Y-33251904D02*
X43512295Y-33328094D01*
X43512295Y-33328094D02*
X43474200Y-33404285D01*
X43474200Y-33404285D02*
X43436104Y-33442380D01*
X43436104Y-33442380D02*
X43359914Y-33480475D01*
X43359914Y-33480475D02*
X43207533Y-33518571D01*
X43207533Y-33518571D02*
X43017057Y-33518571D01*
X43017057Y-33518571D02*
X42864676Y-33480475D01*
X42864676Y-33480475D02*
X42788485Y-33442380D01*
X42788485Y-33442380D02*
X42750390Y-33404285D01*
X42750390Y-33404285D02*
X42712295Y-33328094D01*
X42978961Y-32718570D02*
X43512295Y-32718570D01*
X43055152Y-32718570D02*
X43017057Y-32680475D01*
X43017057Y-32680475D02*
X42978961Y-32604285D01*
X42978961Y-32604285D02*
X42978961Y-32489999D01*
X42978961Y-32489999D02*
X43017057Y-32413808D01*
X43017057Y-32413808D02*
X43093247Y-32375713D01*
X43093247Y-32375713D02*
X43512295Y-32375713D01*
D12*
%TO.C,C2*%
X26900000Y-39834734D02*
X26900000Y-41257238D01*
X28720000Y-39834734D02*
X28720000Y-41257238D01*
%TO.C,RF_OUT1*%
X55820000Y-20175000D02*
X55820000Y-20675000D01*
X55820000Y-20675000D02*
X56320000Y-20425000D01*
X56320000Y-20425000D02*
X55820000Y-20175000D01*
X56870000Y-19585000D02*
X56870000Y-18475000D01*
X56870000Y-22375000D02*
X56870000Y-21265000D01*
X60120000Y-19585000D02*
X60120000Y-18475000D01*
X60120000Y-22375000D02*
X60120000Y-21265000D01*
%TO.C,C12*%
X29340000Y-39841248D02*
X29340000Y-41263752D01*
X31160000Y-39841248D02*
X31160000Y-41263752D01*
D13*
%TO.C,Power1*%
X31910000Y-35805000D02*
X33890000Y-35805000D01*
D12*
X31910000Y-43845000D02*
X40860000Y-43865000D01*
D13*
X40910000Y-35805000D02*
X38930000Y-35805000D01*
X40910000Y-35805000D02*
X40910000Y-37185000D01*
D14*
X36510000Y-34405000D02*
G75*
G02*
X36310000Y-34405000I-100000J0D01*
G01*
X36310000Y-34405000D02*
G75*
G02*
X36510000Y-34405000I100000J0D01*
G01*
D12*
%TO.C,D1*%
X22538847Y-26830000D02*
G75*
G02*
X22598449Y-29097366I1311153J-1100000D01*
G01*
%TO.C,R4*%
X17407936Y-22970000D02*
X18862064Y-22970000D01*
X17407936Y-24790000D02*
X18862064Y-24790000D01*
%TO.C,RF_IN1*%
X1015000Y-18455000D02*
X1015000Y-19565000D01*
X1015000Y-21245000D02*
X1015000Y-22355000D01*
X4265000Y-18455000D02*
X4265000Y-19565000D01*
X4265000Y-21245000D02*
X4265000Y-22355000D01*
X4815000Y-20405000D02*
X5315000Y-20655000D01*
X5315000Y-20155000D02*
X4815000Y-20405000D01*
X5315000Y-20655000D02*
X5315000Y-20155000D01*
%TO.C,C7*%
X11988748Y-24440000D02*
X13411252Y-24440000D01*
X11988748Y-26260000D02*
X13411252Y-26260000D01*
%TO.C,C3*%
X53748752Y-19510000D02*
X52326248Y-19510000D01*
X53748752Y-21330000D02*
X52326248Y-21330000D01*
%TO.C,U2*%
X11085000Y-18475000D02*
X9135000Y-18475000D01*
X11085000Y-18475000D02*
X13035000Y-18475000D01*
X11085000Y-23595000D02*
X9135000Y-23595000D01*
X11085000Y-23595000D02*
X13035000Y-23595000D01*
X8385000Y-18570000D02*
X8145000Y-18240000D01*
X8625000Y-18240000D01*
X8385000Y-18570000D01*
G36*
X8385000Y-18570000D02*
G01*
X8145000Y-18240000D01*
X8625000Y-18240000D01*
X8385000Y-18570000D01*
G37*
%TO.C,C6*%
X45122651Y-34990000D02*
X45922651Y-34990000D01*
X45522651Y-34590000D02*
X45522651Y-35390000D01*
X49532349Y-33225000D02*
X49532349Y-41385000D01*
X49572349Y-33225000D02*
X49572349Y-41385000D01*
X49612349Y-33225000D02*
X49612349Y-41385000D01*
X49652349Y-33226000D02*
X49652349Y-41384000D01*
X49692349Y-33228000D02*
X49692349Y-41382000D01*
X49732349Y-33229000D02*
X49732349Y-41381000D01*
X49772349Y-33231000D02*
X49772349Y-41379000D01*
X49812349Y-33234000D02*
X49812349Y-41376000D01*
X49852349Y-33237000D02*
X49852349Y-41373000D01*
X49892349Y-33240000D02*
X49892349Y-41370000D01*
X49932349Y-33244000D02*
X49932349Y-41366000D01*
X49972349Y-33248000D02*
X49972349Y-41362000D01*
X50012349Y-33253000D02*
X50012349Y-41357000D01*
X50052349Y-33257000D02*
X50052349Y-41353000D01*
X50092349Y-33263000D02*
X50092349Y-41347000D01*
X50132349Y-33268000D02*
X50132349Y-41342000D01*
X50172349Y-33275000D02*
X50172349Y-41335000D01*
X50212349Y-33281000D02*
X50212349Y-41329000D01*
X50253349Y-33288000D02*
X50253349Y-41322000D01*
X50293349Y-33295000D02*
X50293349Y-41315000D01*
X50333349Y-33303000D02*
X50333349Y-41307000D01*
X50373349Y-33311000D02*
X50373349Y-41299000D01*
X50413349Y-33320000D02*
X50413349Y-41290000D01*
X50453349Y-33329000D02*
X50453349Y-41281000D01*
X50493349Y-33338000D02*
X50493349Y-41272000D01*
X50533349Y-33348000D02*
X50533349Y-41262000D01*
X50573349Y-33358000D02*
X50573349Y-41252000D01*
X50613349Y-33369000D02*
X50613349Y-41241000D01*
X50653349Y-33380000D02*
X50653349Y-41230000D01*
X50693349Y-33391000D02*
X50693349Y-41219000D01*
X50733349Y-33403000D02*
X50733349Y-41207000D01*
X50773349Y-33416000D02*
X50773349Y-41194000D01*
X50813349Y-33428000D02*
X50813349Y-41182000D01*
X50853349Y-33442000D02*
X50853349Y-41168000D01*
X50893349Y-33455000D02*
X50893349Y-41155000D01*
X50933349Y-33470000D02*
X50933349Y-41140000D01*
X50973349Y-33484000D02*
X50973349Y-41126000D01*
X51013349Y-33500000D02*
X51013349Y-36265000D01*
X51013349Y-38345000D02*
X51013349Y-41110000D01*
X51053349Y-33515000D02*
X51053349Y-36265000D01*
X51053349Y-38345000D02*
X51053349Y-41095000D01*
X51093349Y-33531000D02*
X51093349Y-36265000D01*
X51093349Y-38345000D02*
X51093349Y-41079000D01*
X51133349Y-33548000D02*
X51133349Y-36265000D01*
X51133349Y-38345000D02*
X51133349Y-41062000D01*
X51173349Y-33565000D02*
X51173349Y-36265000D01*
X51173349Y-38345000D02*
X51173349Y-41045000D01*
X51213349Y-33583000D02*
X51213349Y-36265000D01*
X51213349Y-38345000D02*
X51213349Y-41027000D01*
X51253349Y-33601000D02*
X51253349Y-36265000D01*
X51253349Y-38345000D02*
X51253349Y-41009000D01*
X51293349Y-33619000D02*
X51293349Y-36265000D01*
X51293349Y-38345000D02*
X51293349Y-40991000D01*
X51333349Y-33639000D02*
X51333349Y-36265000D01*
X51333349Y-38345000D02*
X51333349Y-40971000D01*
X51373349Y-33658000D02*
X51373349Y-36265000D01*
X51373349Y-38345000D02*
X51373349Y-40952000D01*
X51413349Y-33678000D02*
X51413349Y-36265000D01*
X51413349Y-38345000D02*
X51413349Y-40932000D01*
X51453349Y-33699000D02*
X51453349Y-36265000D01*
X51453349Y-38345000D02*
X51453349Y-40911000D01*
X51493349Y-33721000D02*
X51493349Y-36265000D01*
X51493349Y-38345000D02*
X51493349Y-40889000D01*
X51533349Y-33743000D02*
X51533349Y-36265000D01*
X51533349Y-38345000D02*
X51533349Y-40867000D01*
X51573349Y-33765000D02*
X51573349Y-36265000D01*
X51573349Y-38345000D02*
X51573349Y-40845000D01*
X51613349Y-33788000D02*
X51613349Y-36265000D01*
X51613349Y-38345000D02*
X51613349Y-40822000D01*
X51653349Y-33812000D02*
X51653349Y-36265000D01*
X51653349Y-38345000D02*
X51653349Y-40798000D01*
X51693349Y-33836000D02*
X51693349Y-36265000D01*
X51693349Y-38345000D02*
X51693349Y-40774000D01*
X51733349Y-33861000D02*
X51733349Y-36265000D01*
X51733349Y-38345000D02*
X51733349Y-40749000D01*
X51773349Y-33887000D02*
X51773349Y-36265000D01*
X51773349Y-38345000D02*
X51773349Y-40723000D01*
X51813349Y-33913000D02*
X51813349Y-36265000D01*
X51813349Y-38345000D02*
X51813349Y-40697000D01*
X51853349Y-33940000D02*
X51853349Y-36265000D01*
X51853349Y-38345000D02*
X51853349Y-40670000D01*
X51893349Y-33967000D02*
X51893349Y-36265000D01*
X51893349Y-38345000D02*
X51893349Y-40643000D01*
X51933349Y-33996000D02*
X51933349Y-36265000D01*
X51933349Y-38345000D02*
X51933349Y-40614000D01*
X51973349Y-34025000D02*
X51973349Y-36265000D01*
X51973349Y-38345000D02*
X51973349Y-40585000D01*
X52013349Y-34055000D02*
X52013349Y-36265000D01*
X52013349Y-38345000D02*
X52013349Y-40555000D01*
X52053349Y-34085000D02*
X52053349Y-36265000D01*
X52053349Y-38345000D02*
X52053349Y-40525000D01*
X52093349Y-34116000D02*
X52093349Y-36265000D01*
X52093349Y-38345000D02*
X52093349Y-40494000D01*
X52133349Y-34149000D02*
X52133349Y-36265000D01*
X52133349Y-38345000D02*
X52133349Y-40461000D01*
X52173349Y-34181000D02*
X52173349Y-36265000D01*
X52173349Y-38345000D02*
X52173349Y-40429000D01*
X52213349Y-34215000D02*
X52213349Y-36265000D01*
X52213349Y-38345000D02*
X52213349Y-40395000D01*
X52253349Y-34250000D02*
X52253349Y-36265000D01*
X52253349Y-38345000D02*
X52253349Y-40360000D01*
X52293349Y-34286000D02*
X52293349Y-36265000D01*
X52293349Y-38345000D02*
X52293349Y-40324000D01*
X52333349Y-34322000D02*
X52333349Y-36265000D01*
X52333349Y-38345000D02*
X52333349Y-40288000D01*
X52373349Y-34360000D02*
X52373349Y-36265000D01*
X52373349Y-38345000D02*
X52373349Y-40250000D01*
X52413349Y-34398000D02*
X52413349Y-36265000D01*
X52413349Y-38345000D02*
X52413349Y-40212000D01*
X52453349Y-34438000D02*
X52453349Y-36265000D01*
X52453349Y-38345000D02*
X52453349Y-40172000D01*
X52493349Y-34479000D02*
X52493349Y-36265000D01*
X52493349Y-38345000D02*
X52493349Y-40131000D01*
X52533349Y-34521000D02*
X52533349Y-36265000D01*
X52533349Y-38345000D02*
X52533349Y-40089000D01*
X52573349Y-34564000D02*
X52573349Y-36265000D01*
X52573349Y-38345000D02*
X52573349Y-40046000D01*
X52613349Y-34608000D02*
X52613349Y-36265000D01*
X52613349Y-38345000D02*
X52613349Y-40002000D01*
X52653349Y-34654000D02*
X52653349Y-36265000D01*
X52653349Y-38345000D02*
X52653349Y-39956000D01*
X52693349Y-34701000D02*
X52693349Y-36265000D01*
X52693349Y-38345000D02*
X52693349Y-39909000D01*
X52733349Y-34749000D02*
X52733349Y-36265000D01*
X52733349Y-38345000D02*
X52733349Y-39861000D01*
X52773349Y-34800000D02*
X52773349Y-36265000D01*
X52773349Y-38345000D02*
X52773349Y-39810000D01*
X52813349Y-34851000D02*
X52813349Y-36265000D01*
X52813349Y-38345000D02*
X52813349Y-39759000D01*
X52853349Y-34905000D02*
X52853349Y-36265000D01*
X52853349Y-38345000D02*
X52853349Y-39705000D01*
X52893349Y-34960000D02*
X52893349Y-36265000D01*
X52893349Y-38345000D02*
X52893349Y-39650000D01*
X52933349Y-35018000D02*
X52933349Y-36265000D01*
X52933349Y-38345000D02*
X52933349Y-39592000D01*
X52973349Y-35077000D02*
X52973349Y-36265000D01*
X52973349Y-38345000D02*
X52973349Y-39533000D01*
X53013349Y-35139000D02*
X53013349Y-36265000D01*
X53013349Y-38345000D02*
X53013349Y-39471000D01*
X53053349Y-35203000D02*
X53053349Y-36265000D01*
X53053349Y-38345000D02*
X53053349Y-39407000D01*
X53093349Y-35271000D02*
X53093349Y-39339000D01*
X53133349Y-35341000D02*
X53133349Y-39269000D01*
X53173349Y-35415000D02*
X53173349Y-39195000D01*
X53213349Y-35492000D02*
X53213349Y-39118000D01*
X53253349Y-35574000D02*
X53253349Y-39036000D01*
X53293349Y-35660000D02*
X53293349Y-38950000D01*
X53333349Y-35753000D02*
X53333349Y-38857000D01*
X53373349Y-35852000D02*
X53373349Y-38758000D01*
X53413349Y-35959000D02*
X53413349Y-38651000D01*
X53453349Y-36076000D02*
X53453349Y-38534000D01*
X53493349Y-36207000D02*
X53493349Y-38403000D01*
X53533349Y-36357000D02*
X53533349Y-38253000D01*
X53573349Y-36537000D02*
X53573349Y-38073000D01*
X53613349Y-36772000D02*
X53613349Y-37838000D01*
X53652349Y-37305000D02*
G75*
G02*
X45412349Y-37305000I-4120000J0D01*
G01*
X45412349Y-37305000D02*
G75*
G02*
X53652349Y-37305000I4120000J0D01*
G01*
D13*
%TO.C,T1*%
X34910000Y-19330000D02*
X47410000Y-19330000D01*
X34910000Y-21670000D02*
X34910000Y-19330000D01*
X34910000Y-31830000D02*
X34910000Y-29490000D01*
X47410000Y-19330000D02*
X47410000Y-21670000D01*
X47410000Y-29490000D02*
X47410000Y-31830000D01*
X47410000Y-31830000D02*
X34910000Y-31830000D01*
D15*
X34310000Y-22180000D02*
G75*
G02*
X34010000Y-22180000I-150000J0D01*
G01*
X34010000Y-22180000D02*
G75*
G02*
X34310000Y-22180000I150000J0D01*
G01*
D12*
%TO.C,C5*%
X42975000Y-38881248D02*
X42975000Y-40303752D01*
X44795000Y-38881248D02*
X44795000Y-40303752D01*
%TO.C,C8*%
X28373748Y-32120000D02*
X29796252Y-32120000D01*
X28373748Y-33940000D02*
X29796252Y-33940000D01*
%TO.C,U1*%
X19510000Y-30395000D02*
X21010000Y-30395000D01*
X19510000Y-40795000D02*
X21010000Y-40795000D01*
X21010000Y-30395000D02*
X21010000Y-32205000D01*
X21010000Y-32205000D02*
X22110000Y-32205000D01*
X21010000Y-38985000D02*
X26135000Y-38985000D01*
X21010000Y-40795000D02*
X21010000Y-38985000D01*
%TO.C,C10*%
X39388748Y-32690000D02*
X40811252Y-32690000D01*
X39388748Y-34510000D02*
X40811252Y-34510000D01*
%TO.C,C11*%
X11938748Y-16090000D02*
X13361252Y-16090000D01*
X11938748Y-17910000D02*
X13361252Y-17910000D01*
%TD*%
%LPC*%
D16*
%TO.C,C2*%
X27810000Y-38983486D03*
X27810000Y-42108486D03*
%TD*%
D17*
%TO.C,H3*%
X1250000Y-40310000D03*
X1952944Y-38612944D03*
X1952944Y-42007056D03*
X3650000Y-37910000D03*
D18*
X3650000Y-40310000D03*
D17*
X3650000Y-42710000D03*
X5347056Y-38612944D03*
X5347056Y-42007056D03*
X6050000Y-40310000D03*
%TD*%
D19*
%TO.C,RF_OUT1*%
X58580000Y-20425000D03*
D20*
X58330000Y-17600000D03*
X58330000Y-23250000D03*
%TD*%
D16*
%TO.C,C12*%
X30250000Y-38990000D03*
X30250000Y-42115000D03*
%TD*%
D21*
%TO.C,Power1*%
X36410000Y-36505000D03*
D22*
X36410000Y-42505000D03*
D23*
X41110000Y-39505000D03*
%TD*%
D17*
%TO.C,H4*%
X55022944Y-40480000D03*
X55725888Y-38782944D03*
X55725888Y-42177056D03*
X57422944Y-38080000D03*
D18*
X57422944Y-40480000D03*
D17*
X57422944Y-42880000D03*
X59120000Y-38782944D03*
X59120000Y-42177056D03*
X59822944Y-40480000D03*
%TD*%
D24*
%TO.C,D1*%
X21310000Y-27930000D03*
D25*
X23850000Y-27930000D03*
%TD*%
D26*
%TO.C,R4*%
X16585000Y-23880000D03*
X19685000Y-23880000D03*
%TD*%
D27*
%TO.C,RF_IN1*%
X2555000Y-20405000D03*
D28*
X2805000Y-23230000D03*
X2805000Y-17580000D03*
%TD*%
D29*
%TO.C,Q1*%
X26190000Y-7215000D03*
D30*
X23650000Y-23875000D03*
D31*
X26190000Y-23875000D03*
X28730000Y-23875000D03*
%TD*%
D32*
%TO.C,C7*%
X11137500Y-25350000D03*
X14262500Y-25350000D03*
%TD*%
D33*
%TO.C,C3*%
X54600000Y-20420000D03*
X51475000Y-20420000D03*
%TD*%
D34*
%TO.C,U2*%
X8610000Y-19130000D03*
X8610000Y-20400000D03*
X8610000Y-21670000D03*
X8610000Y-22940000D03*
X13560000Y-22940000D03*
X13560000Y-21670000D03*
X13560000Y-20400000D03*
X13560000Y-19130000D03*
%TD*%
D35*
%TO.C,C6*%
X47032349Y-37305000D03*
D36*
X52032349Y-37305000D03*
%TD*%
D37*
%TO.C,T1*%
X36410000Y-23865000D03*
X36410000Y-27295000D03*
X45910000Y-27295000D03*
X45910000Y-23865000D03*
%TD*%
D17*
%TO.C,H1*%
X1180000Y-3550000D03*
X1882944Y-1852944D03*
X1882944Y-5247056D03*
X3580000Y-1150000D03*
D18*
X3580000Y-3550000D03*
D17*
X3580000Y-5950000D03*
X5277056Y-1852944D03*
X5277056Y-5247056D03*
X5980000Y-3550000D03*
%TD*%
D16*
%TO.C,C5*%
X43885000Y-38030000D03*
X43885000Y-41155000D03*
%TD*%
D32*
%TO.C,C8*%
X27522500Y-33030000D03*
X30647500Y-33030000D03*
%TD*%
D38*
%TO.C,U1*%
X23835000Y-38135000D03*
D39*
X13805000Y-35555000D03*
D38*
X23835000Y-33055000D03*
%TD*%
D32*
%TO.C,C10*%
X38537500Y-33600000D03*
X41662500Y-33600000D03*
%TD*%
D17*
%TO.C,H2*%
X55002944Y-3610000D03*
X55705888Y-1912944D03*
X55705888Y-5307056D03*
X57402944Y-1210000D03*
D18*
X57402944Y-3610000D03*
D17*
X57402944Y-6010000D03*
X59100000Y-1912944D03*
X59100000Y-5307056D03*
X59802944Y-3610000D03*
%TD*%
D32*
%TO.C,C11*%
X11087500Y-17000000D03*
X14212500Y-17000000D03*
%TD*%
%LPD*%
M02*
