M48
; DRILL file {KiCad 9.0.0} date 2025-03-21T19:43:46+0530
; FORMAT={-:-/ absolute / inch / decimal}
; #@! TF.CreationDate,2025-03-21T19:43:46+05:30
; #@! TF.GenerationSoftware,Kicad,Pcbnew,9.0.0
; #@! TF.FileFunction,Plated,1,2,PTH
FMAT,2
INCH
; #@! TA.AperFunction,Plated,PTH,ViaDrill
T1C0.0157
; #@! TA.AperFunction,Plated,PTH,ComponentDrill
T2C0.0197
; #@! TA.AperFunction,Plated,PTH,ComponentDrill
T3C0.0315
; #@! TA.AperFunction,Plated,PTH,ComponentDrill
T4C0.0394
; #@! TA.AperFunction,Plated,PTH,ComponentDrill
T5C0.0433
; #@! TA.AperFunction,Plated,PTH,ComponentDrill
T6C0.1260
%
G90
G05
T1
X0.0437Y-0.3594
X0.0437Y-0.4185
X0.0437Y-0.4776
X0.0437Y-0.5268
X0.0437Y-0.5858
X0.0437Y-1.3043
X0.0437Y-1.3634
X0.0437Y-1.4224
X0.1028Y-0.3594
X0.1028Y-0.4185
X0.1028Y-0.4776
X0.1028Y-0.5268
X0.1028Y-0.5858
X0.1028Y-1.0681
X0.1028Y-1.1272
X0.1028Y-1.1862
X0.1028Y-1.2453
X0.1028Y-1.3043
X0.1028Y-1.3634
X0.1028Y-1.4224
X0.1618Y-0.3594
X0.1618Y-0.4185
X0.1618Y-0.4776
X0.1618Y-0.5268
X0.1618Y-0.5858
X0.1618Y-1.0681
X0.1618Y-1.1272
X0.1618Y-1.1862
X0.1618Y-1.2453
X0.1618Y-1.3043
X0.1618Y-1.3634
X0.1618Y-1.4224
X0.2205Y-1.0098
X0.2205Y-1.0689
X0.2205Y-1.128
X0.2209Y-0.3594
X0.2209Y-0.4185
X0.2209Y-0.4776
X0.2209Y-0.5268
X0.2209Y-0.5858
X0.2209Y-1.1862
X0.2209Y-1.2453
X0.2209Y-1.3043
X0.2209Y-1.3634
X0.2209Y-1.4224
X0.2484Y-0.8598
X0.2484Y-0.9189
X0.2484Y-0.978
X0.2795Y-1.0098
X0.2795Y-1.0689
X0.2795Y-1.128
X0.2799Y-0.3594
X0.2799Y-0.4185
X0.2799Y-0.4776
X0.2799Y-0.5268
X0.2799Y-0.5858
X0.2799Y-1.1862
X0.2799Y-1.2453
X0.2799Y-1.3043
X0.2799Y-1.3634
X0.2799Y-1.4224
X0.2815Y-0.6319
X0.2815Y-0.6909
X0.3386Y-1.0098
X0.3386Y-1.0689
X0.3386Y-1.128
X0.339Y-0.3594
X0.339Y-0.4185
X0.339Y-0.4776
X0.339Y-0.5268
X0.339Y-0.5858
X0.3406Y-0.6319
X0.3406Y-0.6909
X0.373Y-1.2165
X0.373Y-1.2756
X0.373Y-1.3346
X0.373Y-1.3937
X0.373Y-1.4528
X0.375Y-1.5079
X0.375Y-1.5669
X0.398Y-0.0642
X0.398Y-0.1232
X0.398Y-0.1823
X0.398Y-0.2413
X0.398Y-0.3004
X0.398Y-0.3594
X0.398Y-0.4175
X0.398Y-0.4766
X0.398Y-0.5268
X0.398Y-0.5848
X0.4177Y-1.6783
X0.4321Y-1.2165
X0.4321Y-1.2756
X0.4321Y-1.3346
X0.4321Y-1.3937
X0.4321Y-1.4528
X0.4341Y-1.5079
X0.4341Y-1.5669
X0.4571Y-0.0642
X0.4571Y-0.1232
X0.4571Y-0.1823
X0.4571Y-0.2413
X0.4571Y-0.3004
X0.4571Y-0.3594
X0.4571Y-0.4175
X0.4571Y-0.4766
X0.4571Y-0.5268
X0.4571Y-0.5848
X0.4768Y-1.6783
X0.4911Y-1.2165
X0.4911Y-1.2756
X0.4911Y-1.3346
X0.4911Y-1.3937
X0.4911Y-1.4528
X0.4931Y-1.5079
X0.4931Y-1.5669
X0.5161Y-0.0642
X0.5161Y-0.1232
X0.5161Y-0.1823
X0.5161Y-0.2413
X0.5161Y-0.3004
X0.5161Y-0.3594
X0.5161Y-0.4175
X0.5161Y-0.4766
X0.5161Y-0.5268
X0.5161Y-0.5848
X0.5358Y-1.6783
X0.5492Y-1.2165
X0.5492Y-1.2756
X0.5492Y-1.3346
X0.5492Y-1.3937
X0.5492Y-1.4528
X0.5512Y-1.5079
X0.5512Y-1.5669
X0.5752Y-0.0642
X0.5752Y-0.1232
X0.5752Y-0.1823
X0.5752Y-0.2413
X0.5752Y-0.3004
X0.5752Y-0.3594
X0.5752Y-0.4175
X0.5752Y-0.4766
X0.5752Y-0.5268
X0.5752Y-0.5848
X0.5949Y-1.6783
X0.6083Y-1.2165
X0.6083Y-1.2756
X0.6083Y-1.3346
X0.6083Y-1.3937
X0.6083Y-1.4528
X0.6102Y-1.5079
X0.6102Y-1.5669
X0.6339Y-0.6417
X0.6339Y-0.7008
X0.6339Y-0.751
X0.6343Y-0.0642
X0.6343Y-0.1232
X0.6343Y-0.1823
X0.6343Y-0.2413
X0.6343Y-0.3004
X0.6343Y-0.3594
X0.6343Y-0.4175
X0.6343Y-0.4766
X0.6343Y-0.5268
X0.6343Y-0.5848
X0.6366Y-1.0181
X0.6539Y-1.6783
X0.6585Y-1.2165
X0.6585Y-1.2756
X0.6585Y-1.3346
X0.6585Y-1.3937
X0.6585Y-1.4528
X0.6604Y-1.5079
X0.6604Y-1.5669
X0.6929Y-0.6417
X0.6929Y-0.7008
X0.6929Y-0.751
X0.6929Y-0.8091
X0.6949Y-1.0177
X0.713Y-1.6783
X0.7165Y-1.2165
X0.7165Y-1.2756
X0.7165Y-1.3346
X0.7165Y-1.3937
X0.7165Y-1.4528
X0.7185Y-1.5079
X0.7185Y-1.5669
X0.7539Y-1.0177
X0.772Y-1.6783
X0.8311Y-1.6783
X0.889Y-1.3831
X0.889Y-1.4421
X0.8902Y-1.6783
X0.948Y-1.3831
X0.948Y-1.4421
X0.9492Y-1.6783
X1.0071Y-1.3831
X1.0071Y-1.4421
X1.0083Y-1.6783
X1.0315Y-1.0295
X1.0315Y-1.0886
X1.0315Y-1.1476
X1.0827Y-1.3839
X1.0827Y-1.4429
X1.0906Y-1.0295
X1.0906Y-1.0886
X1.0906Y-1.1476
X1.0906Y-1.2087
X1.1417Y-1.3839
X1.1417Y-1.4429
X1.1496Y-1.0295
X1.1496Y-1.0886
X1.1496Y-1.1476
X1.1496Y-1.2087
X1.2008Y-1.3839
X1.2008Y-1.4429
X1.2087Y-1.0295
X1.2087Y-1.0886
X1.2087Y-1.1476
X1.2087Y-1.2087
X1.2677Y-1.0295
X1.2677Y-1.0886
X1.2677Y-1.1476
X1.2677Y-1.2087
X1.326Y-1.2854
X1.326Y-1.3465
X1.3632Y-0.435
X1.3632Y-0.4941
X1.3632Y-0.5531
X1.3632Y-0.6122
X1.3632Y-0.6713
X1.4185Y-0.0843
X1.4222Y-0.435
X1.4222Y-0.4941
X1.4222Y-0.5531
X1.4222Y-0.6122
X1.4222Y-0.6713
X1.4776Y-0.0843
X1.4813Y-0.435
X1.4813Y-0.4941
X1.4813Y-0.5531
X1.4813Y-0.6122
X1.4813Y-0.6713
X1.5366Y-0.0843
X1.5404Y-0.435
X1.5404Y-0.4941
X1.5404Y-0.5531
X1.5404Y-0.6122
X1.5404Y-0.6713
X1.5957Y-0.0843
X1.5994Y-0.435
X1.5994Y-0.4941
X1.5994Y-0.5531
X1.5994Y-0.6122
X1.5994Y-0.6713
X1.6547Y-0.0843
X1.6585Y-0.435
X1.6585Y-0.4941
X1.6585Y-0.5531
X1.6585Y-0.6122
X1.6585Y-0.6713
X1.7138Y-0.0843
X1.7165Y-0.435
X1.7165Y-0.4941
X1.7165Y-0.5531
X1.7165Y-0.6122
X1.7165Y-0.6713
X1.7543Y-1.2972
X1.7543Y-1.3563
X1.7719Y-0.0843
X1.7756Y-0.435
X1.7756Y-0.4941
X1.7756Y-0.5531
X1.7756Y-0.6122
X1.7756Y-0.6713
X1.8134Y-1.2972
X1.8258Y-0.435
X1.8258Y-0.4941
X1.8258Y-0.5531
X1.8258Y-0.6122
X1.8258Y-0.6713
X1.8309Y-0.0843
X1.8591Y-1.652
X1.8591Y-1.6913
X1.8811Y-0.0843
X1.8839Y-0.435
X1.8839Y-0.4941
X1.8839Y-0.5531
X1.8839Y-0.6122
X1.8839Y-0.6713
X1.9094Y-1.6516
X1.9094Y-1.6909
X1.9392Y-0.0843
X1.9429Y-0.435
X1.9429Y-0.4941
X1.9429Y-0.5531
X1.9429Y-0.6122
X1.9429Y-0.6713
X1.9429Y-1.187
X1.9429Y-1.2461
X1.9685Y-1.6909
X1.997Y-0.435
X1.997Y-0.4941
X1.997Y-0.5531
X1.997Y-0.6122
X1.997Y-0.6713
X1.9982Y-0.0843
X2.002Y-1.187
X2.002Y-1.2461
X2.0276Y-1.6516
X2.0276Y-1.6909
X2.0551Y-0.435
X2.0551Y-0.4941
X2.0551Y-0.5531
X2.0551Y-0.6122
X2.0551Y-0.6713
X2.061Y-1.187
X2.061Y-1.2461
X2.0866Y-1.6516
X2.0866Y-1.6909
X2.1142Y-0.435
X2.1142Y-0.4941
X2.1142Y-0.5531
X2.1142Y-0.6122
X2.1142Y-0.6713
X2.1197Y-1.0776
X2.1197Y-1.1366
X2.1201Y-1.187
X2.1201Y-1.2461
X2.1693Y-0.435
X2.1693Y-0.4941
X2.1693Y-0.5531
X2.1693Y-0.6122
X2.1693Y-1.0768
X2.1693Y-1.1358
X2.1697Y-1.1862
X2.1697Y-1.2453
X2.2283Y-0.435
X2.2283Y-0.4941
X2.2283Y-0.5531
X2.2283Y-0.6122
X2.2283Y-1.0768
X2.2283Y-1.1358
X2.2287Y-1.1862
X2.2287Y-1.2453
X2.2825Y-0.435
X2.2825Y-0.4941
X2.2825Y-0.5531
X2.2825Y-0.6122
X2.2874Y-1.0768
X2.2874Y-1.1358
X2.2878Y-1.1862
X2.2878Y-1.2453
X2.2878Y-1.3043
X2.2878Y-1.3634
X2.3406Y-0.435
X2.3406Y-0.4941
X2.3406Y-0.5531
X2.3406Y-0.6122
X2.3465Y-1.0768
X2.3465Y-1.1358
X2.3469Y-1.1862
X2.3469Y-1.2453
X2.3469Y-1.3043
X2.3469Y-1.3634
T2
X0.0465Y-0.1398
X0.0492Y-1.587
X0.0741Y-0.073
X0.0741Y-0.2066
X0.0769Y-1.5202
X0.0769Y-1.6538
X0.1409Y-0.0453
X0.1409Y-0.2343
X0.1437Y-1.4925
X0.1437Y-1.6815
X0.2078Y-0.073
X0.2078Y-0.2066
X0.2105Y-1.5202
X0.2105Y-1.6538
X0.2354Y-0.1398
X0.2382Y-1.587
X2.1655Y-0.1421
X2.1663Y-1.5937
X2.1931Y-0.0753
X2.1931Y-0.2089
X2.1939Y-1.5269
X2.1939Y-1.6605
X2.26Y-0.0476
X2.26Y-0.2366
X2.2607Y-1.4992
X2.2607Y-1.6882
X2.3268Y-0.0753
X2.3268Y-0.2089
X2.3276Y-1.5269
X2.3276Y-1.6605
X2.3544Y-0.1421
X2.3552Y-1.5937
T3
X1.8517Y-1.4687
X2.0485Y-1.4687
T5
X0.839Y-1.0996
X0.9311Y-0.94
X0.939Y-1.0996
X1.0311Y-0.94
X1.1311Y-0.94
T6
X0.1409Y-0.1398
X0.1437Y-1.587
X2.26Y-0.1421
X2.2607Y-1.5937
T4
G00X1.3843Y-1.4372
M15
G01X1.4827Y-1.4372
M16
G05
G00X1.3941Y-1.6734
M15
G01X1.4728Y-1.6734
M16
G05
G00X1.6185Y-1.5947
M15
G01X1.6185Y-1.5159
M16
G05
M30
