%TF.GenerationSoftware,KiCad,Pcbnew,9.0.0*%
%TF.CreationDate,2025-03-21T19:43:46+05:30*%
%TF.ProjectId,HF-PA-v10,48462d50-412d-4763-9130-2e6b69636164,rev?*%
%TF.SameCoordinates,Original*%
%TF.FileFunction,Copper,L1,Top*%
%TF.FilePolarity,Positive*%
%FSLAX46Y46*%
G04 Gerber Fmt 4.6, Leading zero omitted, Abs format (unit mm)*
G04 Created by KiCad (PCBNEW 9.0.0) date 2025-03-21 19:43:46*
%MOMM*%
%LPD*%
G01*
G04 APERTURE LIST*
G04 Aperture macros list*
%AMRoundRect*
0 Rectangle with rounded corners*
0 $1 Rounding radius*
0 $2 $3 $4 $5 $6 $7 $8 $9 X,Y pos of 4 corners*
0 Add a 4 corners polygon primitive as box body*
4,1,4,$2,$3,$4,$5,$6,$7,$8,$9,$2,$3,0*
0 Add four circle primitives for the rounded corners*
1,1,$1+$1,$2,$3*
1,1,$1+$1,$4,$5*
1,1,$1+$1,$6,$7*
1,1,$1+$1,$8,$9*
0 Add four rect primitives between the rounded corners*
20,1,$1+$1,$2,$3,$4,$5,0*
20,1,$1+$1,$4,$5,$6,$7,0*
20,1,$1+$1,$6,$7,$8,$9,0*
20,1,$1+$1,$8,$9,$2,$3,0*%
G04 Aperture macros list end*
%TA.AperFunction,SMDPad,CuDef*%
%ADD10RoundRect,0.250000X-0.650000X0.412500X-0.650000X-0.412500X0.650000X-0.412500X0.650000X0.412500X0*%
%TD*%
%TA.AperFunction,ComponentPad*%
%ADD11C,0.800000*%
%TD*%
%TA.AperFunction,ComponentPad*%
%ADD12C,6.400000*%
%TD*%
%TA.AperFunction,SMDPad,CuDef*%
%ADD13RoundRect,0.250000X1.350000X-0.385000X1.350000X0.385000X-1.350000X0.385000X-1.350000X-0.385000X0*%
%TD*%
%TA.AperFunction,SMDPad,CuDef*%
%ADD14RoundRect,0.250000X1.600000X-0.425000X1.600000X0.425000X-1.600000X0.425000X-1.600000X-0.425000X0*%
%TD*%
%TA.AperFunction,ComponentPad*%
%ADD15O,4.400000X2.200000*%
%TD*%
%TA.AperFunction,ComponentPad*%
%ADD16O,4.000000X2.000000*%
%TD*%
%TA.AperFunction,ComponentPad*%
%ADD17O,2.000000X4.000000*%
%TD*%
%TA.AperFunction,ComponentPad*%
%ADD18R,2.200000X2.200000*%
%TD*%
%TA.AperFunction,ComponentPad*%
%ADD19O,2.200000X2.200000*%
%TD*%
%TA.AperFunction,SMDPad,CuDef*%
%ADD20RoundRect,0.250000X-0.400000X-0.625000X0.400000X-0.625000X0.400000X0.625000X-0.400000X0.625000X0*%
%TD*%
%TA.AperFunction,SMDPad,CuDef*%
%ADD21RoundRect,0.250000X-1.350000X0.385000X-1.350000X-0.385000X1.350000X-0.385000X1.350000X0.385000X0*%
%TD*%
%TA.AperFunction,SMDPad,CuDef*%
%ADD22RoundRect,0.250000X-1.600000X0.425000X-1.600000X-0.425000X1.600000X-0.425000X1.600000X0.425000X0*%
%TD*%
%TA.AperFunction,ComponentPad*%
%ADD23R,1.905000X2.000000*%
%TD*%
%TA.AperFunction,ComponentPad*%
%ADD24O,1.905000X2.000000*%
%TD*%
%TA.AperFunction,SMDPad,CuDef*%
%ADD25RoundRect,0.250000X-0.412500X-0.650000X0.412500X-0.650000X0.412500X0.650000X-0.412500X0.650000X0*%
%TD*%
%TA.AperFunction,SMDPad,CuDef*%
%ADD26RoundRect,0.250000X0.412500X0.650000X-0.412500X0.650000X-0.412500X-0.650000X0.412500X-0.650000X0*%
%TD*%
%TA.AperFunction,SMDPad,CuDef*%
%ADD27RoundRect,0.150000X-0.825000X-0.150000X0.825000X-0.150000X0.825000X0.150000X-0.825000X0.150000X0*%
%TD*%
%TA.AperFunction,ComponentPad*%
%ADD28R,1.600000X1.600000*%
%TD*%
%TA.AperFunction,ComponentPad*%
%ADD29C,1.600000*%
%TD*%
%TA.AperFunction,SMDPad,CuDef*%
%ADD30R,5.500000X2.150000*%
%TD*%
%TA.AperFunction,SMDPad,CuDef*%
%ADD31RoundRect,0.250000X2.050000X0.300000X-2.050000X0.300000X-2.050000X-0.300000X2.050000X-0.300000X0*%
%TD*%
%TA.AperFunction,SMDPad,CuDef*%
%ADD32RoundRect,0.250000X2.025000X2.375000X-2.025000X2.375000X-2.025000X-2.375000X2.025000X-2.375000X0*%
%TD*%
%TA.AperFunction,SMDPad,CuDef*%
%ADD33RoundRect,0.289364X5.290636X5.150636X-5.290636X5.150636X-5.290636X-5.150636X5.290636X-5.150636X0*%
%TD*%
%TA.AperFunction,SMDPad,CuDef*%
%ADD34RoundRect,0.292857X2.862143X2.372143X-2.862143X2.372143X-2.862143X-2.372143X2.862143X-2.372143X0*%
%TD*%
%TA.AperFunction,SMDPad,CuDef*%
%ADD35RoundRect,0.288461X2.876539X2.336539X-2.876539X2.336539X-2.876539X-2.336539X2.876539X-2.336539X0*%
%TD*%
%TA.AperFunction,ViaPad*%
%ADD36C,0.800000*%
%TD*%
%TA.AperFunction,Conductor*%
%ADD37C,1.000000*%
%TD*%
%TA.AperFunction,Conductor*%
%ADD38C,2.000000*%
%TD*%
%TA.AperFunction,Conductor*%
%ADD39C,0.500000*%
%TD*%
G04 APERTURE END LIST*
D10*
%TO.P,C2,1*%
%TO.N,+VDC*%
X27810000Y-38983486D03*
%TO.P,C2,2*%
%TO.N,GND*%
X27810000Y-42108486D03*
%TD*%
D11*
%TO.P,H3,1,1*%
%TO.N,GND*%
X1250000Y-40310000D03*
X1952944Y-38612944D03*
X1952944Y-42007056D03*
X3650000Y-37910000D03*
D12*
X3650000Y-40310000D03*
D11*
X3650000Y-42710000D03*
X5347056Y-38612944D03*
X5347056Y-42007056D03*
X6050000Y-40310000D03*
%TD*%
D13*
%TO.P,RF_OUT1,1,In*%
%TO.N,Net-(RF_OUT1-In)*%
X58580000Y-20425000D03*
D14*
%TO.P,RF_OUT1,2,Ext*%
%TO.N,GND*%
X58330000Y-17600000D03*
X58330000Y-23250000D03*
%TD*%
D10*
%TO.P,C12,1*%
%TO.N,+VDC*%
X30250000Y-38990000D03*
%TO.P,C12,2*%
%TO.N,GND*%
X30250000Y-42115000D03*
%TD*%
D15*
%TO.P,Power1,1*%
%TO.N,+VDC*%
X36410000Y-36505000D03*
D16*
%TO.P,Power1,2*%
%TO.N,GND*%
X36410000Y-42505000D03*
D17*
%TO.P,Power1,3*%
%TO.N,unconnected-(Power1-Pad3)*%
X41110000Y-39505000D03*
%TD*%
D11*
%TO.P,H4,1,1*%
%TO.N,GND*%
X55022944Y-40480000D03*
X55725888Y-38782944D03*
X55725888Y-42177056D03*
X57422944Y-38080000D03*
D12*
X57422944Y-40480000D03*
D11*
X57422944Y-42880000D03*
X59120000Y-38782944D03*
X59120000Y-42177056D03*
X59822944Y-40480000D03*
%TD*%
D18*
%TO.P,D1,1,K*%
%TO.N,4.5V*%
X21310000Y-27930000D03*
D19*
%TO.P,D1,2,A*%
%TO.N,Net-(D1-A)*%
X23850000Y-27930000D03*
%TD*%
D20*
%TO.P,R4,1*%
%TO.N,Net-(R4-Pad1)*%
X16585000Y-23880000D03*
%TO.P,R4,2*%
%TO.N,Net-(Q1-G)*%
X19685000Y-23880000D03*
%TD*%
D21*
%TO.P,RF_IN1,1,In*%
%TO.N,Net-(RF_IN1-In)*%
X2555000Y-20405000D03*
D22*
%TO.P,RF_IN1,2,Ext*%
%TO.N,GND*%
X2805000Y-23230000D03*
X2805000Y-17580000D03*
%TD*%
D23*
%TO.P,Q1,1,G*%
%TO.N,Net-(Q1-G)*%
X23650000Y-23875000D03*
D24*
%TO.P,Q1,2,S*%
%TO.N,GND*%
X26190000Y-23875000D03*
%TO.P,Q1,3,D*%
%TO.N,/DRAIN*%
X28730000Y-23875000D03*
%TD*%
D25*
%TO.P,C7,1*%
%TO.N,4.5V*%
X11137500Y-25350000D03*
%TO.P,C7,2*%
%TO.N,GND*%
X14262500Y-25350000D03*
%TD*%
D26*
%TO.P,C3,1*%
%TO.N,Net-(RF_OUT1-In)*%
X54600000Y-20420000D03*
%TO.P,C3,2*%
%TO.N,Net-(C3-Pad2)*%
X51475000Y-20420000D03*
%TD*%
D27*
%TO.P,U2,1,VDD*%
%TO.N,4.5V*%
X8610000Y-19130000D03*
%TO.P,U2,2,IN*%
%TO.N,Net-(RF_IN1-In)*%
X8610000Y-20400000D03*
%TO.P,U2,3,EN*%
%TO.N,4.5V*%
X8610000Y-21670000D03*
%TO.P,U2,4,GND*%
%TO.N,GND*%
X8610000Y-22940000D03*
%TO.P,U2,5,GND*%
X13560000Y-22940000D03*
%TO.P,U2,6,OUT*%
%TO.N,Net-(R4-Pad1)*%
X13560000Y-21670000D03*
%TO.P,U2,7,OUT*%
X13560000Y-20400000D03*
%TO.P,U2,8,VDD*%
%TO.N,4.5V*%
X13560000Y-19130000D03*
%TD*%
D28*
%TO.P,C6,1*%
%TO.N,+VDC*%
X47032349Y-37305000D03*
D29*
%TO.P,C6,2*%
%TO.N,GND*%
X52032349Y-37305000D03*
%TD*%
D30*
%TO.P,T1,1*%
%TO.N,/DRAIN*%
X36410000Y-23865000D03*
%TO.P,T1,2*%
%TO.N,+VDC*%
X36410000Y-27295000D03*
%TO.P,T1,3*%
%TO.N,Net-(C3-Pad2)*%
X45910000Y-27295000D03*
%TO.P,T1,4*%
%TO.N,/DRAIN*%
X45910000Y-23865000D03*
%TD*%
D11*
%TO.P,H1,1,1*%
%TO.N,GND*%
X1180000Y-3550000D03*
X1882944Y-1852944D03*
X1882944Y-5247056D03*
X3580000Y-1150000D03*
D12*
X3580000Y-3550000D03*
D11*
X3580000Y-5950000D03*
X5277056Y-1852944D03*
X5277056Y-5247056D03*
X5980000Y-3550000D03*
%TD*%
D10*
%TO.P,C5,1*%
%TO.N,+VDC*%
X43885000Y-38030000D03*
%TO.P,C5,2*%
%TO.N,GND*%
X43885000Y-41155000D03*
%TD*%
D25*
%TO.P,C8,1*%
%TO.N,Net-(D1-A)*%
X27522500Y-33030000D03*
%TO.P,C8,2*%
%TO.N,GND*%
X30647500Y-33030000D03*
%TD*%
D31*
%TO.P,U1,1,IN*%
%TO.N,+VDC*%
X23835000Y-38135000D03*
D32*
%TO.P,U1,2,GND*%
%TO.N,GND*%
X17110000Y-38370000D03*
X17110000Y-32820000D03*
D33*
X13805000Y-35555000D03*
D34*
X11380000Y-32780000D03*
D35*
X11370000Y-38370000D03*
D31*
%TO.P,U1,3,OUT*%
%TO.N,Net-(D1-A)*%
X23835000Y-33055000D03*
%TD*%
D25*
%TO.P,C10,1*%
%TO.N,+VDC*%
X38537500Y-33600000D03*
%TO.P,C10,2*%
%TO.N,GND*%
X41662500Y-33600000D03*
%TD*%
D11*
%TO.P,H2,1,1*%
%TO.N,GND*%
X55002944Y-3610000D03*
X55705888Y-1912944D03*
X55705888Y-5307056D03*
X57402944Y-1210000D03*
D12*
X57402944Y-3610000D03*
D11*
X57402944Y-6010000D03*
X59100000Y-1912944D03*
X59100000Y-5307056D03*
X59802944Y-3610000D03*
%TD*%
D25*
%TO.P,C11,1*%
%TO.N,4.5V*%
X11087500Y-17000000D03*
%TO.P,C11,2*%
%TO.N,GND*%
X14212500Y-17000000D03*
%TD*%
D36*
%TO.N,GND*%
X14610000Y-4630000D03*
X10975000Y-33900000D03*
X26200000Y-27650000D03*
X16775000Y-39800000D03*
X16725000Y-30900000D03*
X56610000Y-31630000D03*
X12525000Y-38300000D03*
X44560000Y-32950000D03*
X26200000Y-26150000D03*
X16110000Y-6130000D03*
X13110000Y-4630000D03*
X37625000Y-15550000D03*
X13110000Y-7630000D03*
X16110000Y-1630000D03*
X13110000Y-12105000D03*
X18200000Y-36900000D03*
X59450000Y-11050000D03*
X16100000Y-16300000D03*
X48500000Y-41950000D03*
X7100000Y-28650000D03*
X37625000Y-14050000D03*
X50850000Y-30150000D03*
X30700000Y-29150000D03*
X10110000Y-7630000D03*
X7110000Y-12130000D03*
X10110000Y-10605000D03*
X42125000Y-17050000D03*
X16110000Y-12105000D03*
X7150000Y-17550000D03*
X55100000Y-15550000D03*
X53840000Y-27370000D03*
X24080000Y-36630000D03*
X36125000Y-12550000D03*
X12110000Y-42630000D03*
X53700000Y-15550000D03*
X45100000Y-11050000D03*
X4110000Y-13380000D03*
X36125000Y-17050000D03*
X25580000Y-35130000D03*
X11610000Y-7630000D03*
X18200000Y-32400000D03*
X27500000Y-36650000D03*
X42125000Y-11050000D03*
X49350000Y-30150000D03*
X47780000Y-2140000D03*
X16110000Y-9130000D03*
X8610000Y-14880000D03*
X36125000Y-14050000D03*
X52350000Y-31650000D03*
X9525000Y-39800000D03*
X53700000Y-12550000D03*
X22610000Y-42630000D03*
X46375000Y-14050000D03*
X29200000Y-26150000D03*
X36125000Y-11050000D03*
X47220000Y-42960000D03*
X5610000Y-36130000D03*
X36125000Y-15550000D03*
X7110000Y-10630000D03*
X14610000Y-1630000D03*
X52200000Y-11050000D03*
X4110000Y-36130000D03*
X7110000Y-31630000D03*
X13110000Y-3130000D03*
X52200000Y-15550000D03*
X24110000Y-42630000D03*
X4110000Y-33130000D03*
X55110000Y-30130000D03*
X13610000Y-42630000D03*
X47850000Y-11050000D03*
X46375000Y-15550000D03*
X34625000Y-12550000D03*
X14610000Y-12105000D03*
X39125000Y-17050000D03*
X16725000Y-36900000D03*
X34625000Y-11050000D03*
X32200000Y-27650000D03*
X56600000Y-28850000D03*
X43600000Y-17050000D03*
X40625000Y-12550000D03*
X46375000Y-11050000D03*
X10110000Y-6130000D03*
X8600000Y-27150000D03*
X45100000Y-15550000D03*
X57975000Y-14050000D03*
X5610000Y-14880000D03*
X58110000Y-31630000D03*
X50725000Y-17050000D03*
X55100000Y-27350000D03*
X49255000Y-2140000D03*
X46060000Y-32950000D03*
X58110000Y-33130000D03*
X11610000Y-6130000D03*
X49350000Y-11050000D03*
X15450000Y-32400000D03*
X16725000Y-35400000D03*
X30700000Y-26150000D03*
X56600000Y-27350000D03*
X21110000Y-42630000D03*
X5610000Y-30130000D03*
X8650000Y-16050000D03*
X1110000Y-14880000D03*
X39125000Y-11050000D03*
X10110000Y-9130000D03*
X27500000Y-35150000D03*
X13110000Y-6130000D03*
X42030000Y-2140000D03*
X12475000Y-30900000D03*
X48500000Y-42950000D03*
X5600000Y-28650000D03*
X29200000Y-27650000D03*
X17650000Y-25850000D03*
X7110000Y-36130000D03*
X4110000Y-31630000D03*
X59610000Y-31630000D03*
X5610000Y-33130000D03*
X37625000Y-17050000D03*
X10975000Y-32400000D03*
X11610000Y-3130000D03*
X46375000Y-12550000D03*
X30700000Y-30700000D03*
X32200000Y-30700000D03*
X14610000Y-9130000D03*
X52350000Y-30150000D03*
X6310000Y-23340000D03*
X50725000Y-11050000D03*
X53000000Y-42950000D03*
X19150000Y-25850000D03*
X13110000Y-1630000D03*
X13950000Y-35400000D03*
X11610000Y-12105000D03*
X4110000Y-28630000D03*
X24080000Y-35130000D03*
X32200000Y-26150000D03*
X15500000Y-39800000D03*
X12525000Y-39800000D03*
X14610000Y-6130000D03*
X30500000Y-35150000D03*
X10975000Y-30900000D03*
X58100000Y-27350000D03*
X18200000Y-33900000D03*
X10110000Y-1630000D03*
X53000000Y-41950000D03*
X32200000Y-29150000D03*
X56600000Y-11050000D03*
X11610000Y-9130000D03*
X25610000Y-42630000D03*
X51500000Y-41950000D03*
X13950000Y-30900000D03*
X8610000Y-12130000D03*
X59450000Y-15550000D03*
X55100000Y-28850000D03*
X16725000Y-32400000D03*
X12475000Y-33900000D03*
X4110000Y-34630000D03*
X40625000Y-17050000D03*
X9475000Y-30900000D03*
X42125000Y-12550000D03*
X1110000Y-10630000D03*
X16170000Y-25860000D03*
X4110000Y-27130000D03*
X16110000Y-14855000D03*
X37625000Y-11050000D03*
X43600000Y-14050000D03*
X7110000Y-13380000D03*
X27700000Y-26150000D03*
X59600000Y-28850000D03*
X16610000Y-42630000D03*
X15110000Y-42630000D03*
X49350000Y-12550000D03*
X9475000Y-36900000D03*
X16110000Y-13380000D03*
X7110000Y-33130000D03*
X50000000Y-42950000D03*
X52200000Y-17050000D03*
X15500000Y-38300000D03*
X9475000Y-32400000D03*
X53840000Y-28870000D03*
X2610000Y-9130000D03*
X36030000Y-2140000D03*
X10110000Y-12105000D03*
X5610000Y-9130000D03*
X40625000Y-15550000D03*
X42125000Y-14050000D03*
X40625000Y-11050000D03*
X25580000Y-36630000D03*
X14610000Y-10605000D03*
X13110000Y-10605000D03*
X39030000Y-2140000D03*
X57975000Y-12550000D03*
X45100000Y-17050000D03*
X16110000Y-4630000D03*
X55100000Y-14050000D03*
X51500000Y-42950000D03*
X7110000Y-9130000D03*
X2610000Y-34630000D03*
X8610000Y-9130000D03*
X59450000Y-12550000D03*
X1110000Y-36130000D03*
X5610000Y-31630000D03*
X34625000Y-15550000D03*
X1110000Y-34630000D03*
X9525000Y-38300000D03*
X2610000Y-28630000D03*
X59450000Y-14050000D03*
X56600000Y-14050000D03*
X42125000Y-15550000D03*
X43600000Y-11050000D03*
X50725000Y-15550000D03*
X17600000Y-17800000D03*
X58110000Y-30130000D03*
X39125000Y-15550000D03*
X8600000Y-25650000D03*
X27700000Y-30700000D03*
X45100000Y-14050000D03*
X8600000Y-28650000D03*
X13110000Y-14855000D03*
X47850000Y-17050000D03*
X12475000Y-32400000D03*
X12475000Y-36900000D03*
X49350000Y-17050000D03*
X11025000Y-38300000D03*
X43600000Y-15550000D03*
X59600000Y-27350000D03*
X14610000Y-14855000D03*
X10110000Y-13380000D03*
X18250000Y-39800000D03*
X33680000Y-32650000D03*
X16775000Y-38300000D03*
X8610000Y-10630000D03*
X9475000Y-33900000D03*
X49350000Y-15550000D03*
X17600000Y-20550000D03*
X14610000Y-7630000D03*
X1110000Y-12130000D03*
X2610000Y-13380000D03*
X6310000Y-24840000D03*
X29000000Y-36650000D03*
X13110000Y-13380000D03*
X16110000Y-3130000D03*
X53700000Y-14050000D03*
X7110000Y-14880000D03*
X4110000Y-14880000D03*
X7100000Y-27150000D03*
X5610000Y-34630000D03*
X43530000Y-2140000D03*
X30500000Y-36650000D03*
X22580000Y-35130000D03*
X57975000Y-15550000D03*
X5600000Y-27150000D03*
X18250000Y-38300000D03*
X57975000Y-11050000D03*
X18200000Y-30900000D03*
X46375000Y-17050000D03*
X30700000Y-27650000D03*
X29000000Y-35150000D03*
X10110000Y-4630000D03*
X11610000Y-1630000D03*
X11025000Y-39800000D03*
X13110000Y-9130000D03*
X16100000Y-17800000D03*
X10975000Y-35400000D03*
X11610000Y-10605000D03*
X17600000Y-19075000D03*
X52200000Y-12550000D03*
X56600000Y-15550000D03*
X2610000Y-12130000D03*
X1110000Y-9130000D03*
X8610000Y-13380000D03*
X50850000Y-31650000D03*
X17600000Y-16300000D03*
X7150000Y-16050000D03*
X39125000Y-14050000D03*
X5610000Y-13380000D03*
X37530000Y-2140000D03*
X18200000Y-35400000D03*
X47220000Y-41960000D03*
X8650000Y-17550000D03*
X13950000Y-36900000D03*
X10975000Y-36900000D03*
X39125000Y-12550000D03*
X53700000Y-17050000D03*
X19610000Y-42630000D03*
X56600000Y-12550000D03*
X22580000Y-36630000D03*
X43600000Y-12550000D03*
X27700000Y-29150000D03*
X2610000Y-33130000D03*
X7100000Y-25650000D03*
X15450000Y-33900000D03*
X58100000Y-28850000D03*
X47850000Y-12550000D03*
X55100000Y-11050000D03*
X34625000Y-14050000D03*
X10610000Y-42630000D03*
X16110000Y-10605000D03*
X6310000Y-21840000D03*
X27700000Y-27650000D03*
X40625000Y-14050000D03*
X53850000Y-30150000D03*
X7110000Y-30130000D03*
X16110000Y-7630000D03*
X16725000Y-33900000D03*
X50755000Y-2140000D03*
X7110000Y-34630000D03*
X2610000Y-10630000D03*
X1110000Y-33130000D03*
X49350000Y-14050000D03*
X2610000Y-31630000D03*
X40530000Y-2140000D03*
X10110000Y-3130000D03*
X44560000Y-34450000D03*
X15450000Y-35400000D03*
X26200000Y-29150000D03*
X4110000Y-12130000D03*
X46505000Y-2140000D03*
X11610000Y-14855000D03*
X10110000Y-14855000D03*
X15450000Y-30900000D03*
X53850000Y-31650000D03*
X11610000Y-13380000D03*
X11610000Y-4630000D03*
X14000000Y-38300000D03*
X37625000Y-12550000D03*
X13950000Y-33900000D03*
X59610000Y-33130000D03*
X56610000Y-30130000D03*
X14610000Y-3130000D03*
X52200000Y-14050000D03*
X45100000Y-12550000D03*
X4110000Y-30130000D03*
X5600000Y-25650000D03*
X5610000Y-10630000D03*
X59610000Y-30130000D03*
X34625000Y-17050000D03*
X5610000Y-12130000D03*
X2610000Y-30130000D03*
X2610000Y-27130000D03*
X53700000Y-11050000D03*
X47850000Y-14050000D03*
X50725000Y-12550000D03*
X33680000Y-34200000D03*
X4110000Y-10630000D03*
X4110000Y-9130000D03*
X29200000Y-30700000D03*
X16100000Y-19075000D03*
X13950000Y-32400000D03*
X2610000Y-14880000D03*
X15450000Y-36900000D03*
X29200000Y-29150000D03*
X55110000Y-31630000D03*
X50725000Y-14050000D03*
X12475000Y-35400000D03*
X18110000Y-42630000D03*
X49350000Y-31650000D03*
X1110000Y-13380000D03*
X55100000Y-12550000D03*
X45005000Y-2140000D03*
X59610000Y-34630000D03*
X9475000Y-35400000D03*
X14000000Y-39800000D03*
X58110000Y-34630000D03*
X47850000Y-15550000D03*
X14610000Y-13380000D03*
X2610000Y-36130000D03*
%TD*%
D37*
%TO.N,GND*%
X8600000Y-22950000D02*
X8610000Y-22940000D01*
X14262500Y-23642500D02*
X13560000Y-22940000D01*
X8600000Y-25650000D02*
X8600000Y-22950000D01*
X14262500Y-25350000D02*
X14262500Y-23642500D01*
X14262500Y-25350000D02*
X14762500Y-25850000D01*
X14762500Y-25850000D02*
X19150000Y-25850000D01*
%TO.N,Net-(Q1-G)*%
X19685000Y-23880000D02*
X23645000Y-23880000D01*
%TO.N,/DRAIN*%
X36410000Y-23865000D02*
X45910000Y-23865000D01*
X28730000Y-23875000D02*
X36400000Y-23875000D01*
D38*
%TO.N,Net-(RF_OUT1-In)*%
X58575000Y-20420000D02*
X58580000Y-20425000D01*
X54600000Y-20420000D02*
X58575000Y-20420000D01*
D37*
%TO.N,Net-(RF_IN1-In)*%
X2555000Y-20405000D02*
X8605000Y-20405000D01*
X8605000Y-20405000D02*
X8610000Y-20400000D01*
D38*
%TO.N,Net-(C3-Pad2)*%
X51475000Y-26940000D02*
X51120000Y-27295000D01*
X51120000Y-27295000D02*
X45910000Y-27295000D01*
X51475000Y-20420000D02*
X51475000Y-26940000D01*
%TO.N,+VDC*%
X36410000Y-27295000D02*
X36410000Y-33610000D01*
X36420000Y-33600000D02*
X38537500Y-33600000D01*
D37*
X27810000Y-38185000D02*
X27810000Y-38983486D01*
X27760000Y-38135000D02*
X27810000Y-38185000D01*
D38*
X36410000Y-33610000D02*
X36410000Y-36505000D01*
D37*
X40835000Y-36505000D02*
X44032349Y-36505000D01*
X30285000Y-38135000D02*
X36155000Y-38135000D01*
X43885000Y-38030000D02*
X43885000Y-36652349D01*
X30285000Y-38135000D02*
X27760000Y-38135000D01*
X27760000Y-38135000D02*
X23835000Y-38135000D01*
D38*
X36410000Y-33610000D02*
X36420000Y-33600000D01*
D37*
X36410000Y-37880000D02*
X36410000Y-36505000D01*
X43885000Y-36652349D02*
X44032349Y-36505000D01*
X46232349Y-36505000D02*
X47032349Y-37305000D01*
X36410000Y-36505000D02*
X40835000Y-36505000D01*
X36155000Y-38135000D02*
X36410000Y-37880000D01*
X30250000Y-38170000D02*
X30250000Y-38990000D01*
X30285000Y-38135000D02*
X30250000Y-38170000D01*
X30210000Y-38210000D02*
X30285000Y-38135000D01*
X40835000Y-36505000D02*
X46232349Y-36505000D01*
D39*
%TO.N,4.5V*%
X11085000Y-19750000D02*
X11085000Y-21780000D01*
D37*
X11300000Y-27930000D02*
X11137500Y-27767500D01*
D39*
X11085000Y-19130000D02*
X13560000Y-19130000D01*
X10975000Y-21670000D02*
X11085000Y-21780000D01*
X11085000Y-22500000D02*
X11085000Y-24007500D01*
X8610000Y-21670000D02*
X10975000Y-21670000D01*
X11087500Y-19747500D02*
X11087500Y-17000000D01*
D37*
X21310000Y-27930000D02*
X11300000Y-27930000D01*
D39*
X8610000Y-19130000D02*
X11085000Y-19130000D01*
D37*
X11137500Y-25350000D02*
X11137500Y-22552500D01*
D39*
X11085000Y-19130000D02*
X11085000Y-19750000D01*
D37*
X11137500Y-27767500D02*
X11137500Y-25350000D01*
D39*
X11085000Y-19750000D02*
X11087500Y-19747500D01*
X11085000Y-21780000D02*
X11085000Y-22500000D01*
D37*
%TO.N,Net-(D1-A)*%
X23835000Y-31155000D02*
X23850000Y-31140000D01*
X23835000Y-31155000D02*
X23835000Y-28116766D01*
X23835000Y-33055000D02*
X27497500Y-33055000D01*
X23835000Y-33055000D02*
X23835000Y-31155000D01*
X23850000Y-31140000D02*
X23850000Y-27930000D01*
%TO.N,Net-(R4-Pad1)*%
X16000000Y-21670000D02*
X13560000Y-21670000D01*
X16585000Y-22255000D02*
X16000000Y-21670000D01*
X13560000Y-20400000D02*
X13560000Y-21670000D01*
X16585000Y-23880000D02*
X16585000Y-22255000D01*
%TD*%
%TA.AperFunction,Conductor*%
%TO.N,GND*%
G36*
X2429588Y-41352330D02*
G01*
X2607670Y-41530412D01*
X2709301Y-41604251D01*
X2164885Y-42148666D01*
X2202944Y-42056784D01*
X2202944Y-41957328D01*
X2164884Y-41865442D01*
X2094558Y-41795116D01*
X2002672Y-41757056D01*
X1903216Y-41757056D01*
X1811330Y-41795116D01*
X1741004Y-41865442D01*
X1702944Y-41957328D01*
X1702944Y-42056784D01*
X1741004Y-42148670D01*
X1811330Y-42218996D01*
X1903216Y-42257056D01*
X2002672Y-42257056D01*
X2094554Y-42218997D01*
X1215232Y-43098319D01*
X1215233Y-43098320D01*
X1443249Y-43285448D01*
X1745519Y-43487418D01*
X1745537Y-43487429D01*
X2066130Y-43658790D01*
X2066135Y-43658792D01*
X2192028Y-43710939D01*
X2200803Y-43718010D01*
X2211614Y-43721185D01*
X2227517Y-43739538D01*
X2246431Y-43754780D01*
X2249990Y-43765473D01*
X2257369Y-43773989D01*
X2260825Y-43798028D01*
X2268496Y-43821074D01*
X2265709Y-43831992D01*
X2267313Y-43843147D01*
X2257223Y-43865240D01*
X2251217Y-43888773D01*
X2242969Y-43896451D01*
X2238288Y-43906703D01*
X2217855Y-43919833D01*
X2200080Y-43936384D01*
X2187464Y-43939365D01*
X2179510Y-43944477D01*
X2144575Y-43949500D01*
X2004067Y-43949500D01*
X1995957Y-43949235D01*
X1753642Y-43933353D01*
X1737562Y-43931235D01*
X1598778Y-43903629D01*
X1503401Y-43884657D01*
X1487735Y-43880459D01*
X1261654Y-43803715D01*
X1246674Y-43797510D01*
X1032541Y-43691912D01*
X1018495Y-43683803D01*
X819977Y-43551157D01*
X807109Y-43541283D01*
X627605Y-43383863D01*
X616136Y-43372394D01*
X518000Y-43260491D01*
X458714Y-43192887D01*
X448842Y-43180022D01*
X415418Y-43130000D01*
X316196Y-42981504D01*
X308089Y-42967463D01*
X202485Y-42753318D01*
X196287Y-42738352D01*
X119538Y-42512257D01*
X115344Y-42496607D01*
X68762Y-42262424D01*
X66647Y-42246367D01*
X50765Y-42004042D01*
X50500Y-41995933D01*
X50500Y-41911993D01*
X70185Y-41844954D01*
X122989Y-41799199D01*
X192147Y-41789255D01*
X255703Y-41818280D01*
X289061Y-41864541D01*
X301204Y-41893858D01*
X301209Y-41893869D01*
X472570Y-42214462D01*
X472581Y-42214480D01*
X674551Y-42516750D01*
X861678Y-42744765D01*
X861679Y-42744766D01*
X2355747Y-41250697D01*
X2429588Y-41352330D01*
G37*
%TD.AperFunction*%
%TA.AperFunction,Conductor*%
G36*
X55785289Y-70185D02*
G01*
X55831044Y-122989D01*
X55840988Y-192147D01*
X55811963Y-255703D01*
X55776703Y-283858D01*
X55498481Y-432570D01*
X55498463Y-432581D01*
X55196202Y-634545D01*
X55196198Y-634548D01*
X54968177Y-821679D01*
X54968177Y-821680D01*
X55847500Y-1701003D01*
X55755616Y-1662944D01*
X55656160Y-1662944D01*
X55564274Y-1701004D01*
X55493948Y-1771330D01*
X55455888Y-1863216D01*
X55455888Y-1962672D01*
X55493947Y-2054556D01*
X54614624Y-1175233D01*
X54614623Y-1175233D01*
X54427492Y-1403254D01*
X54427489Y-1403258D01*
X54225525Y-1705519D01*
X54225514Y-1705537D01*
X54054153Y-2026130D01*
X54054151Y-2026135D01*
X53915030Y-2362002D01*
X53809497Y-2709898D01*
X53809494Y-2709909D01*
X53738576Y-3066443D01*
X53702944Y-3428234D01*
X53702944Y-3791765D01*
X53738576Y-4153556D01*
X53809494Y-4510090D01*
X53809497Y-4510101D01*
X53915030Y-4857997D01*
X54054151Y-5193864D01*
X54054153Y-5193869D01*
X54225514Y-5514462D01*
X54225525Y-5514480D01*
X54427495Y-5816750D01*
X54614622Y-6044765D01*
X54614623Y-6044766D01*
X56108691Y-4550697D01*
X56182532Y-4652330D01*
X56360614Y-4830412D01*
X56462245Y-4904251D01*
X55917829Y-5448666D01*
X55955888Y-5356784D01*
X55955888Y-5257328D01*
X55917828Y-5165442D01*
X55847502Y-5095116D01*
X55755616Y-5057056D01*
X55656160Y-5057056D01*
X55564274Y-5095116D01*
X55493948Y-5165442D01*
X55455888Y-5257328D01*
X55455888Y-5356784D01*
X55493948Y-5448670D01*
X55564274Y-5518996D01*
X55656160Y-5557056D01*
X55755616Y-5557056D01*
X55847498Y-5518997D01*
X54968176Y-6398319D01*
X54968177Y-6398320D01*
X55196193Y-6585448D01*
X55498463Y-6787418D01*
X55498481Y-6787429D01*
X55819074Y-6958790D01*
X55819079Y-6958792D01*
X56154946Y-7097913D01*
X56502842Y-7203446D01*
X56502853Y-7203449D01*
X56859387Y-7274367D01*
X57221178Y-7310000D01*
X57584710Y-7310000D01*
X57946500Y-7274367D01*
X58303034Y-7203449D01*
X58303045Y-7203446D01*
X58650941Y-7097913D01*
X58986808Y-6958792D01*
X58986813Y-6958790D01*
X59307406Y-6787429D01*
X59307424Y-6787418D01*
X59609680Y-6585457D01*
X59609694Y-6585447D01*
X59837709Y-6398320D01*
X59837710Y-6398319D01*
X58958387Y-5518996D01*
X59050272Y-5557056D01*
X59149728Y-5557056D01*
X59241614Y-5518996D01*
X59311940Y-5448670D01*
X59350000Y-5356784D01*
X59350000Y-5257328D01*
X59311940Y-5165443D01*
X60191263Y-6044766D01*
X60191264Y-6044765D01*
X60378391Y-5816750D01*
X60378401Y-5816736D01*
X60580362Y-5514480D01*
X60580373Y-5514462D01*
X60716142Y-5260457D01*
X60765104Y-5210613D01*
X60833242Y-5195152D01*
X60898922Y-5218984D01*
X60941290Y-5274541D01*
X60949500Y-5318910D01*
X60949500Y-18596000D01*
X60929815Y-18663039D01*
X60877011Y-18708794D01*
X60825500Y-18720000D01*
X60595023Y-18720000D01*
X60527984Y-18700315D01*
X60482229Y-18647511D01*
X60472285Y-18578353D01*
X60501310Y-18514797D01*
X60507342Y-18508319D01*
X60522315Y-18493345D01*
X60614356Y-18344124D01*
X60614358Y-18344119D01*
X60669505Y-18177697D01*
X60669506Y-18177690D01*
X60679999Y-18074986D01*
X60680000Y-18074973D01*
X60680000Y-17850000D01*
X55980001Y-17850000D01*
X55980001Y-18074986D01*
X55990494Y-18177697D01*
X56045641Y-18344119D01*
X56045643Y-18344124D01*
X56137684Y-18493345D01*
X56189488Y-18545149D01*
X56222973Y-18606472D01*
X56217989Y-18676164D01*
X56190000Y-18719714D01*
X56190000Y-19095500D01*
X56170315Y-19162539D01*
X56117511Y-19208294D01*
X56066000Y-19219500D01*
X54505514Y-19219500D01*
X54318880Y-19249060D01*
X54318877Y-19249060D01*
X54139172Y-19307451D01*
X54139171Y-19307451D01*
X54129487Y-19312385D01*
X54109770Y-19319430D01*
X54109922Y-19319862D01*
X53974619Y-19367206D01*
X53974617Y-19367207D01*
X53865350Y-19447850D01*
X53865346Y-19447854D01*
X53841711Y-19479878D01*
X53821016Y-19500430D01*
X53821629Y-19501148D01*
X53817928Y-19504308D01*
X53684309Y-19637928D01*
X53573240Y-19790800D01*
X53487454Y-19959163D01*
X53429059Y-20138881D01*
X53399500Y-20325513D01*
X53399500Y-20514486D01*
X53429059Y-20701118D01*
X53487454Y-20880836D01*
X53546348Y-20996420D01*
X53573240Y-21049199D01*
X53684310Y-21202073D01*
X53786814Y-21304577D01*
X53817930Y-21335693D01*
X53821629Y-21338852D01*
X53821010Y-21339575D01*
X53841713Y-21360123D01*
X53848893Y-21369852D01*
X53865350Y-21392150D01*
X53974618Y-21472793D01*
X54058559Y-21502165D01*
X54109925Y-21520139D01*
X54109773Y-21520572D01*
X54129497Y-21527619D01*
X54139168Y-21532547D01*
X54275631Y-21576886D01*
X54318881Y-21590940D01*
X54505514Y-21620500D01*
X54505519Y-21620500D01*
X56066000Y-21620500D01*
X56133039Y-21640185D01*
X56178794Y-21692989D01*
X56190000Y-21744500D01*
X56190000Y-22252977D01*
X56170315Y-22320016D01*
X56153681Y-22340658D01*
X56137684Y-22356654D01*
X56045643Y-22505875D01*
X56045641Y-22505880D01*
X55990494Y-22672302D01*
X55990493Y-22672309D01*
X55980000Y-22775013D01*
X55980000Y-23000000D01*
X60679999Y-23000000D01*
X60679999Y-22775028D01*
X60679998Y-22775013D01*
X60669505Y-22672302D01*
X60612086Y-22499023D01*
X60613415Y-22498582D01*
X60604110Y-22437332D01*
X60632628Y-22373547D01*
X60691103Y-22335305D01*
X60726985Y-22330000D01*
X60825500Y-22330000D01*
X60892539Y-22349685D01*
X60938294Y-22402489D01*
X60949500Y-22454000D01*
X60949500Y-38733671D01*
X60929815Y-38800710D01*
X60877011Y-38846465D01*
X60807853Y-38856409D01*
X60744297Y-38827384D01*
X60716142Y-38792125D01*
X60600368Y-38575529D01*
X60600362Y-38575519D01*
X60398392Y-38273249D01*
X60211264Y-38045233D01*
X60211263Y-38045232D01*
X59331941Y-38924553D01*
X59370000Y-38832672D01*
X59370000Y-38733216D01*
X59331940Y-38641330D01*
X59261614Y-38571004D01*
X59169728Y-38532944D01*
X59070272Y-38532944D01*
X58978386Y-38571004D01*
X58908060Y-38641330D01*
X58870000Y-38733216D01*
X58870000Y-38832672D01*
X58908060Y-38924558D01*
X58978386Y-38994884D01*
X59070272Y-39032944D01*
X59169728Y-39032944D01*
X59261609Y-38994885D01*
X58717195Y-39539300D01*
X58643356Y-39437670D01*
X58465274Y-39259588D01*
X58363642Y-39185748D01*
X59857710Y-37691679D01*
X59857709Y-37691678D01*
X59629694Y-37504551D01*
X59327424Y-37302581D01*
X59327406Y-37302570D01*
X59006813Y-37131209D01*
X59006808Y-37131207D01*
X58670941Y-36992086D01*
X58323045Y-36886553D01*
X58323034Y-36886550D01*
X57966500Y-36815632D01*
X57604710Y-36780000D01*
X57241178Y-36780000D01*
X56879387Y-36815632D01*
X56522853Y-36886550D01*
X56522842Y-36886553D01*
X56174946Y-36992086D01*
X55839079Y-37131207D01*
X55839074Y-37131209D01*
X55518481Y-37302570D01*
X55518463Y-37302581D01*
X55216202Y-37504545D01*
X55216198Y-37504548D01*
X54988177Y-37691679D01*
X54988177Y-37691680D01*
X55867500Y-38571003D01*
X55775616Y-38532944D01*
X55676160Y-38532944D01*
X55584274Y-38571004D01*
X55513948Y-38641330D01*
X55475888Y-38733216D01*
X55475888Y-38832672D01*
X55513947Y-38924556D01*
X54634624Y-38045233D01*
X54634623Y-38045233D01*
X54447492Y-38273254D01*
X54447489Y-38273258D01*
X54245525Y-38575519D01*
X54245514Y-38575537D01*
X54074153Y-38896130D01*
X54074151Y-38896135D01*
X53935030Y-39232002D01*
X53829497Y-39579898D01*
X53829494Y-39579909D01*
X53758576Y-39936443D01*
X53722944Y-40298234D01*
X53722944Y-40661765D01*
X53758576Y-41023556D01*
X53829494Y-41380090D01*
X53829497Y-41380101D01*
X53935030Y-41727997D01*
X54074151Y-42063864D01*
X54074153Y-42063869D01*
X54245514Y-42384462D01*
X54245525Y-42384480D01*
X54447495Y-42686750D01*
X54634622Y-42914765D01*
X54634623Y-42914766D01*
X56128691Y-41420697D01*
X56202532Y-41522330D01*
X56380614Y-41700412D01*
X56482245Y-41774251D01*
X55937829Y-42318666D01*
X55975888Y-42226784D01*
X55975888Y-42127328D01*
X55937828Y-42035442D01*
X55867502Y-41965116D01*
X55775616Y-41927056D01*
X55676160Y-41927056D01*
X55584274Y-41965116D01*
X55513948Y-42035442D01*
X55475888Y-42127328D01*
X55475888Y-42226784D01*
X55513948Y-42318670D01*
X55584274Y-42388996D01*
X55676160Y-42427056D01*
X55775616Y-42427056D01*
X55867498Y-42388997D01*
X54988176Y-43268319D01*
X54988177Y-43268320D01*
X55216193Y-43455448D01*
X55518463Y-43657418D01*
X55518481Y-43657429D01*
X55628325Y-43716142D01*
X55678170Y-43765104D01*
X55693630Y-43833242D01*
X55669798Y-43898922D01*
X55614241Y-43941290D01*
X55569872Y-43949500D01*
X38355401Y-43949500D01*
X38288362Y-43929815D01*
X38242607Y-43877011D01*
X38232663Y-43807853D01*
X38261688Y-43744297D01*
X38282515Y-43725182D01*
X38387186Y-43649133D01*
X38554133Y-43482186D01*
X38692914Y-43291171D01*
X38800102Y-43080802D01*
X38873065Y-42856247D01*
X38889102Y-42755000D01*
X37843012Y-42755000D01*
X37875925Y-42697993D01*
X37910000Y-42570826D01*
X37910000Y-42439174D01*
X37875925Y-42312007D01*
X37843012Y-42255000D01*
X38889102Y-42255000D01*
X38873065Y-42153752D01*
X38800102Y-41929197D01*
X38692914Y-41718828D01*
X38554133Y-41527813D01*
X38387186Y-41360866D01*
X38196171Y-41222085D01*
X37985802Y-41114897D01*
X37761247Y-41041934D01*
X37761248Y-41041934D01*
X37528052Y-41005000D01*
X36660000Y-41005000D01*
X36660000Y-42005000D01*
X36160000Y-42005000D01*
X36160000Y-41005000D01*
X35291948Y-41005000D01*
X35058752Y-41041934D01*
X34834197Y-41114897D01*
X34623828Y-41222085D01*
X34432813Y-41360866D01*
X34265866Y-41527813D01*
X34127085Y-41718828D01*
X34019897Y-41929197D01*
X33946934Y-42153752D01*
X33930898Y-42255000D01*
X34976988Y-42255000D01*
X34944075Y-42312007D01*
X34910000Y-42439174D01*
X34910000Y-42570826D01*
X34944075Y-42697993D01*
X34976988Y-42755000D01*
X33930898Y-42755000D01*
X33946934Y-42856247D01*
X34019897Y-43080802D01*
X34127085Y-43291171D01*
X34265866Y-43482186D01*
X34432813Y-43649133D01*
X34537485Y-43725182D01*
X34580150Y-43780512D01*
X34586129Y-43850125D01*
X34553523Y-43911920D01*
X34492684Y-43946278D01*
X34464599Y-43949500D01*
X5155425Y-43949500D01*
X5088386Y-43929815D01*
X5042631Y-43877011D01*
X5032687Y-43807853D01*
X5061712Y-43744297D01*
X5107972Y-43710939D01*
X5233864Y-43658792D01*
X5233869Y-43658790D01*
X5554462Y-43487429D01*
X5554480Y-43487418D01*
X5856736Y-43285457D01*
X5856750Y-43285447D01*
X6084765Y-43098320D01*
X6084766Y-43098319D01*
X5205443Y-42218996D01*
X5297328Y-42257056D01*
X5396784Y-42257056D01*
X5488670Y-42218996D01*
X5558996Y-42148670D01*
X5597056Y-42056784D01*
X5597056Y-41957328D01*
X5558996Y-41865443D01*
X6438319Y-42744766D01*
X6438320Y-42744765D01*
X6580948Y-42570972D01*
X26410001Y-42570972D01*
X26420494Y-42673683D01*
X26475641Y-42840105D01*
X26475643Y-42840110D01*
X26567684Y-42989331D01*
X26691654Y-43113301D01*
X26840875Y-43205342D01*
X26840880Y-43205344D01*
X27007302Y-43260491D01*
X27007309Y-43260492D01*
X27110019Y-43270985D01*
X27559999Y-43270985D01*
X28060000Y-43270985D01*
X28509972Y-43270985D01*
X28509986Y-43270984D01*
X28612697Y-43260491D01*
X28779119Y-43205344D01*
X28779124Y-43205342D01*
X28928345Y-43113301D01*
X28939062Y-43102585D01*
X29000385Y-43069100D01*
X29070077Y-43074084D01*
X29114424Y-43102585D01*
X29131654Y-43119815D01*
X29280875Y-43211856D01*
X29280880Y-43211858D01*
X29447302Y-43267005D01*
X29447309Y-43267006D01*
X29550019Y-43277499D01*
X29999999Y-43277499D01*
X30500000Y-43277499D01*
X30949972Y-43277499D01*
X30949986Y-43277498D01*
X31052697Y-43267005D01*
X31219119Y-43211858D01*
X31219124Y-43211856D01*
X31368345Y-43119815D01*
X31492315Y-42995845D01*
X31584356Y-42846624D01*
X31584358Y-42846619D01*
X31639505Y-42680197D01*
X31639506Y-42680190D01*
X31649999Y-42577486D01*
X31650000Y-42577473D01*
X31650000Y-42365000D01*
X30500000Y-42365000D01*
X30500000Y-43277499D01*
X29999999Y-43277499D01*
X30000000Y-43277498D01*
X30000000Y-42365000D01*
X28777876Y-42365000D01*
X28755692Y-42358486D01*
X28060000Y-42358486D01*
X28060000Y-43270985D01*
X27559999Y-43270985D01*
X27560000Y-43270984D01*
X27560000Y-42358486D01*
X26410001Y-42358486D01*
X26410001Y-42570972D01*
X6580948Y-42570972D01*
X6625447Y-42516750D01*
X6625457Y-42516736D01*
X6811548Y-42238233D01*
X6827421Y-42214476D01*
X6827429Y-42214462D01*
X6998790Y-41893869D01*
X6998792Y-41893864D01*
X7101462Y-41645999D01*
X26410000Y-41645999D01*
X26410000Y-41858486D01*
X27560000Y-41858486D01*
X28060000Y-41858486D01*
X29282124Y-41858486D01*
X29304308Y-41865000D01*
X30000000Y-41865000D01*
X30500000Y-41865000D01*
X31649999Y-41865000D01*
X31649999Y-41652528D01*
X31649998Y-41652513D01*
X31639505Y-41549802D01*
X31584358Y-41383380D01*
X31584356Y-41383375D01*
X31492315Y-41234154D01*
X31368345Y-41110184D01*
X31219124Y-41018143D01*
X31219119Y-41018141D01*
X31052697Y-40962994D01*
X31052690Y-40962993D01*
X30949986Y-40952500D01*
X30500000Y-40952500D01*
X30500000Y-41865000D01*
X30000000Y-41865000D01*
X30000000Y-40952500D01*
X29550028Y-40952500D01*
X29550012Y-40952501D01*
X29447302Y-40962994D01*
X29280880Y-41018141D01*
X29280875Y-41018143D01*
X29131654Y-41110184D01*
X29120938Y-41120901D01*
X29059615Y-41154386D01*
X28989923Y-41149402D01*
X28945576Y-41120901D01*
X28928345Y-41103670D01*
X28779124Y-41011629D01*
X28779119Y-41011627D01*
X28612697Y-40956480D01*
X28612690Y-40956479D01*
X28509986Y-40945986D01*
X28060000Y-40945986D01*
X28060000Y-41858486D01*
X27560000Y-41858486D01*
X27560000Y-40945986D01*
X27110028Y-40945986D01*
X27110012Y-40945987D01*
X27007302Y-40956480D01*
X26840880Y-41011627D01*
X26840875Y-41011629D01*
X26691654Y-41103670D01*
X26567684Y-41227640D01*
X26475643Y-41376861D01*
X26475641Y-41376866D01*
X26420494Y-41543288D01*
X26420493Y-41543295D01*
X26410000Y-41645999D01*
X7101462Y-41645999D01*
X7122422Y-41595397D01*
X7122422Y-41595395D01*
X7137912Y-41558001D01*
X7243446Y-41210101D01*
X7243449Y-41210090D01*
X7314367Y-40853556D01*
X7350000Y-40491765D01*
X7350000Y-40128234D01*
X7314367Y-39766443D01*
X7243449Y-39409909D01*
X7243446Y-39409898D01*
X7137913Y-39062002D01*
X6998792Y-38726135D01*
X6998790Y-38726130D01*
X6827429Y-38405537D01*
X6827418Y-38405519D01*
X6625448Y-38103249D01*
X6438320Y-37875233D01*
X6438319Y-37875232D01*
X5558997Y-38754554D01*
X5597056Y-38662672D01*
X5597056Y-38563216D01*
X5558996Y-38471330D01*
X5488670Y-38401004D01*
X5396784Y-38362944D01*
X5297328Y-38362944D01*
X5205442Y-38401004D01*
X5135116Y-38471330D01*
X5097056Y-38563216D01*
X5097056Y-38662672D01*
X5135116Y-38754558D01*
X5205442Y-38824884D01*
X5297328Y-38862944D01*
X5396784Y-38862944D01*
X5488666Y-38824885D01*
X4944251Y-39369300D01*
X4870412Y-39267670D01*
X4692330Y-39089588D01*
X4590698Y-39015748D01*
X5825715Y-37780730D01*
X21334500Y-37780730D01*
X21334500Y-38489269D01*
X21337353Y-38519699D01*
X21337353Y-38519701D01*
X21375513Y-38628752D01*
X21382207Y-38647882D01*
X21462850Y-38757150D01*
X21572118Y-38837793D01*
X21597590Y-38846706D01*
X21700299Y-38882646D01*
X21730730Y-38885500D01*
X21730734Y-38885500D01*
X25939270Y-38885500D01*
X25969699Y-38882646D01*
X26008025Y-38869235D01*
X26084549Y-38842459D01*
X26125504Y-38835500D01*
X26585500Y-38835500D01*
X26652539Y-38855185D01*
X26698294Y-38907989D01*
X26709500Y-38959500D01*
X26709500Y-39450255D01*
X26712353Y-39480685D01*
X26712353Y-39480687D01*
X26757206Y-39608866D01*
X26757207Y-39608868D01*
X26837850Y-39718136D01*
X26947118Y-39798779D01*
X26989845Y-39813730D01*
X27075299Y-39843632D01*
X27105730Y-39846486D01*
X27105734Y-39846486D01*
X28514270Y-39846486D01*
X28544699Y-39843632D01*
X28544701Y-39843632D01*
X28608790Y-39821205D01*
X28672882Y-39798779D01*
X28782150Y-39718136D01*
X28862793Y-39608868D01*
X28907646Y-39480685D01*
X28907647Y-39480673D01*
X28908265Y-39477846D01*
X28909306Y-39475941D01*
X28910139Y-39473563D01*
X28910532Y-39473700D01*
X28941796Y-39416548D01*
X29003143Y-39383108D01*
X29072831Y-39388144D01*
X29128734Y-39430057D01*
X29148138Y-39480398D01*
X29150744Y-39479830D01*
X29152353Y-39487201D01*
X29197206Y-39615380D01*
X29197207Y-39615382D01*
X29277850Y-39724650D01*
X29387118Y-39805293D01*
X29429845Y-39820244D01*
X29515299Y-39850146D01*
X29545730Y-39853000D01*
X29545734Y-39853000D01*
X30954270Y-39853000D01*
X30984699Y-39850146D01*
X30984701Y-39850146D01*
X31048790Y-39827719D01*
X31112882Y-39805293D01*
X31222150Y-39724650D01*
X31302793Y-39615382D01*
X31325219Y-39551290D01*
X31347646Y-39487201D01*
X31347646Y-39487199D01*
X31350500Y-39456769D01*
X31350500Y-38959500D01*
X31370185Y-38892461D01*
X31422989Y-38846706D01*
X31474500Y-38835500D01*
X36223996Y-38835500D01*
X36315040Y-38817389D01*
X36359328Y-38808580D01*
X36465385Y-38764650D01*
X36486807Y-38755777D01*
X36486808Y-38755776D01*
X36486811Y-38755775D01*
X36601543Y-38679114D01*
X36651904Y-38628752D01*
X36674148Y-38610909D01*
X36697170Y-38583486D01*
X36954113Y-38326543D01*
X36971400Y-38300672D01*
X36975947Y-38293868D01*
X37022709Y-38223882D01*
X37030775Y-38211811D01*
X37044470Y-38178743D01*
X37064063Y-38146466D01*
X37313152Y-37849769D01*
X37371334Y-37811083D01*
X37408121Y-37805500D01*
X37612351Y-37805500D01*
X37612352Y-37805500D01*
X37814534Y-37773477D01*
X38009219Y-37710220D01*
X38088821Y-37669659D01*
X38109616Y-37661335D01*
X39618272Y-37210686D01*
X39653762Y-37205500D01*
X40499586Y-37205500D01*
X40566625Y-37225185D01*
X40612380Y-37277989D01*
X40622324Y-37347147D01*
X40593299Y-37410703D01*
X40555881Y-37439985D01*
X40480800Y-37478240D01*
X40393579Y-37541610D01*
X40327927Y-37589310D01*
X40327925Y-37589312D01*
X40327924Y-37589312D01*
X40194312Y-37722924D01*
X40194312Y-37722925D01*
X40194310Y-37722927D01*
X40152311Y-37780734D01*
X40083240Y-37875800D01*
X39997454Y-38044163D01*
X39939059Y-38223881D01*
X39909500Y-38410513D01*
X39909500Y-40599486D01*
X39939059Y-40786118D01*
X39997454Y-40965836D01*
X40062853Y-41094187D01*
X40083240Y-41134199D01*
X40194310Y-41287073D01*
X40327927Y-41420690D01*
X40480801Y-41531760D01*
X40503440Y-41543295D01*
X40649163Y-41617545D01*
X40649165Y-41617545D01*
X40649168Y-41617547D01*
X40736734Y-41645999D01*
X40828881Y-41675940D01*
X41015514Y-41705500D01*
X41015519Y-41705500D01*
X41204486Y-41705500D01*
X41391118Y-41675940D01*
X41570832Y-41617547D01*
X41570952Y-41617486D01*
X42485001Y-41617486D01*
X42495494Y-41720197D01*
X42550641Y-41886619D01*
X42550643Y-41886624D01*
X42642684Y-42035845D01*
X42766654Y-42159815D01*
X42915875Y-42251856D01*
X42915880Y-42251858D01*
X43082302Y-42307005D01*
X43082309Y-42307006D01*
X43185019Y-42317499D01*
X43634999Y-42317499D01*
X44135000Y-42317499D01*
X44584972Y-42317499D01*
X44584986Y-42317498D01*
X44687697Y-42307005D01*
X44854119Y-42251858D01*
X44854124Y-42251856D01*
X45003345Y-42159815D01*
X45127315Y-42035845D01*
X45219356Y-41886624D01*
X45219358Y-41886619D01*
X45274505Y-41720197D01*
X45274506Y-41720190D01*
X45284999Y-41617486D01*
X45285000Y-41617473D01*
X45285000Y-41405000D01*
X44135000Y-41405000D01*
X44135000Y-42317499D01*
X43634999Y-42317499D01*
X43635000Y-42317498D01*
X43635000Y-41405000D01*
X42485001Y-41405000D01*
X42485001Y-41617486D01*
X41570952Y-41617486D01*
X41739199Y-41531760D01*
X41892073Y-41420690D01*
X42025690Y-41287073D01*
X42136760Y-41134199D01*
X42222547Y-40965832D01*
X42243069Y-40902669D01*
X42282507Y-40844996D01*
X42346866Y-40817798D01*
X42415712Y-40829713D01*
X42467188Y-40876957D01*
X42471130Y-40891130D01*
X42485000Y-40905000D01*
X43635000Y-40905000D01*
X44135000Y-40905000D01*
X45284999Y-40905000D01*
X45284999Y-40692528D01*
X45284998Y-40692513D01*
X45274505Y-40589802D01*
X45219358Y-40423380D01*
X45219356Y-40423375D01*
X45180441Y-40360284D01*
X45127315Y-40274154D01*
X45003345Y-40150184D01*
X44854124Y-40058143D01*
X44854119Y-40058141D01*
X44687697Y-40002994D01*
X44687690Y-40002993D01*
X44584986Y-39992500D01*
X44135000Y-39992500D01*
X44135000Y-40905000D01*
X43635000Y-40905000D01*
X43635000Y-39992500D01*
X43185028Y-39992500D01*
X43185012Y-39992501D01*
X43082302Y-40002994D01*
X42915880Y-40058141D01*
X42915875Y-40058143D01*
X42766654Y-40150184D01*
X42642684Y-40274154D01*
X42550643Y-40423375D01*
X42547592Y-40429921D01*
X42545187Y-40428799D01*
X42512425Y-40476110D01*
X42447907Y-40502928D01*
X42379132Y-40490607D01*
X42327936Y-40443060D01*
X42310500Y-40379655D01*
X42310500Y-38410513D01*
X42280940Y-38223881D01*
X42247817Y-38121940D01*
X42222547Y-38044168D01*
X42222545Y-38044165D01*
X42222545Y-38044163D01*
X42170097Y-37941228D01*
X42136760Y-37875801D01*
X42025690Y-37722927D01*
X41892073Y-37589310D01*
X41739199Y-37478240D01*
X41664118Y-37439984D01*
X41613323Y-37392010D01*
X41596528Y-37324190D01*
X41619065Y-37258055D01*
X41673780Y-37214603D01*
X41720414Y-37205500D01*
X42733532Y-37205500D01*
X42800571Y-37225185D01*
X42846326Y-37277989D01*
X42856270Y-37347147D01*
X42836152Y-37396188D01*
X42836551Y-37396399D01*
X42834384Y-37400498D01*
X42833305Y-37403130D01*
X42832208Y-37404615D01*
X42832206Y-37404619D01*
X42787353Y-37532798D01*
X42787353Y-37532800D01*
X42784500Y-37563230D01*
X42784500Y-38496769D01*
X42787353Y-38527199D01*
X42787353Y-38527201D01*
X42832206Y-38655380D01*
X42832207Y-38655382D01*
X42912850Y-38764650D01*
X43022118Y-38845293D01*
X43050388Y-38855185D01*
X43150299Y-38890146D01*
X43180730Y-38893000D01*
X43180734Y-38893000D01*
X44589270Y-38893000D01*
X44619699Y-38890146D01*
X44619701Y-38890146D01*
X44697438Y-38862944D01*
X44747882Y-38845293D01*
X44857150Y-38764650D01*
X44937793Y-38655382D01*
X44962950Y-38583486D01*
X44982646Y-38527201D01*
X44982646Y-38527199D01*
X44985500Y-38496769D01*
X44985500Y-37563230D01*
X44982646Y-37532800D01*
X44982646Y-37532798D01*
X44937793Y-37404619D01*
X44937791Y-37404615D01*
X44936695Y-37403130D01*
X44935998Y-37401223D01*
X44933449Y-37396399D01*
X44934109Y-37396050D01*
X44912726Y-37337500D01*
X44928045Y-37269330D01*
X44977787Y-37220264D01*
X45036468Y-37205500D01*
X45291548Y-37205500D01*
X45358587Y-37225185D01*
X45378902Y-37241493D01*
X45995204Y-37853222D01*
X46028916Y-37914419D01*
X46031849Y-37941228D01*
X46031849Y-38124752D01*
X46043480Y-38183229D01*
X46043481Y-38183230D01*
X46087796Y-38249552D01*
X46154118Y-38293867D01*
X46154119Y-38293868D01*
X46212596Y-38305499D01*
X46212599Y-38305500D01*
X46212601Y-38305500D01*
X47852099Y-38305500D01*
X47852100Y-38305499D01*
X47866917Y-38302552D01*
X47910578Y-38293868D01*
X47910578Y-38293867D01*
X47910580Y-38293867D01*
X47976901Y-38249552D01*
X48021216Y-38183231D01*
X48021216Y-38183229D01*
X48021217Y-38183229D01*
X48032848Y-38124752D01*
X48032849Y-38124750D01*
X48032849Y-37202682D01*
X50732349Y-37202682D01*
X50732349Y-37407317D01*
X50764358Y-37609417D01*
X50827593Y-37804031D01*
X50920490Y-37986350D01*
X50920496Y-37986359D01*
X50952872Y-38030921D01*
X50952873Y-38030922D01*
X51632349Y-37351446D01*
X51632349Y-37357661D01*
X51659608Y-37459394D01*
X51712269Y-37550606D01*
X51786743Y-37625080D01*
X51877955Y-37677741D01*
X51979688Y-37705000D01*
X51985902Y-37705000D01*
X51306425Y-38384474D01*
X51350999Y-38416859D01*
X51533317Y-38509755D01*
X51727931Y-38572990D01*
X51930032Y-38605000D01*
X52134666Y-38605000D01*
X52336766Y-38572990D01*
X52531380Y-38509755D01*
X52713698Y-38416859D01*
X52758270Y-38384474D01*
X52078796Y-37705000D01*
X52085010Y-37705000D01*
X52186743Y-37677741D01*
X52277955Y-37625080D01*
X52352429Y-37550606D01*
X52405090Y-37459394D01*
X52432349Y-37357661D01*
X52432349Y-37351447D01*
X53111823Y-38030921D01*
X53144208Y-37986349D01*
X53237104Y-37804031D01*
X53270200Y-37702175D01*
X53300339Y-37609417D01*
X53332349Y-37407317D01*
X53332349Y-37202682D01*
X53300339Y-37000582D01*
X53237104Y-36805968D01*
X53144208Y-36623650D01*
X53111823Y-36579077D01*
X53111823Y-36579076D01*
X52432349Y-37258551D01*
X52432349Y-37252339D01*
X52405090Y-37150606D01*
X52352429Y-37059394D01*
X52277955Y-36984920D01*
X52186743Y-36932259D01*
X52085010Y-36905000D01*
X52078795Y-36905000D01*
X52758271Y-36225524D01*
X52758270Y-36225523D01*
X52713708Y-36193147D01*
X52713699Y-36193141D01*
X52531380Y-36100244D01*
X52336766Y-36037009D01*
X52134666Y-36005000D01*
X51930032Y-36005000D01*
X51727931Y-36037009D01*
X51533317Y-36100244D01*
X51350993Y-36193143D01*
X51306426Y-36225523D01*
X51306426Y-36225524D01*
X51985903Y-36905000D01*
X51979688Y-36905000D01*
X51877955Y-36932259D01*
X51786743Y-36984920D01*
X51712269Y-37059394D01*
X51659608Y-37150606D01*
X51632349Y-37252339D01*
X51632349Y-37258553D01*
X50952873Y-36579077D01*
X50952872Y-36579077D01*
X50920492Y-36623644D01*
X50827593Y-36805968D01*
X50764358Y-37000582D01*
X50732349Y-37202682D01*
X48032849Y-37202682D01*
X48032849Y-36485249D01*
X48032848Y-36485247D01*
X48021217Y-36426770D01*
X48021216Y-36426769D01*
X47976901Y-36360447D01*
X47910579Y-36316132D01*
X47910578Y-36316131D01*
X47852101Y-36304500D01*
X47852097Y-36304500D01*
X47285161Y-36304500D01*
X47251797Y-36299927D01*
X46958591Y-36218014D01*
X46904274Y-36186268D01*
X46678895Y-35960888D01*
X46678894Y-35960887D01*
X46564156Y-35884222D01*
X46436681Y-35831421D01*
X46436671Y-35831418D01*
X46301345Y-35804500D01*
X46301343Y-35804500D01*
X46301342Y-35804500D01*
X45465542Y-35804500D01*
X45455567Y-35803540D01*
X45449917Y-35804500D01*
X40903993Y-35804500D01*
X39653766Y-35804500D01*
X39618276Y-35799313D01*
X38109616Y-35348662D01*
X38088812Y-35340334D01*
X38009218Y-35299779D01*
X37814536Y-35236523D01*
X37715102Y-35220774D01*
X37684310Y-35206177D01*
X37653297Y-35192014D01*
X37652799Y-35191239D01*
X37651967Y-35190845D01*
X37633948Y-35161906D01*
X37615523Y-35133236D01*
X37615350Y-35132038D01*
X37615036Y-35131533D01*
X37610500Y-35098301D01*
X37610500Y-34924500D01*
X37630185Y-34857461D01*
X37682989Y-34811706D01*
X37734500Y-34800500D01*
X38631986Y-34800500D01*
X38818618Y-34770940D01*
X38998332Y-34712547D01*
X38998342Y-34712542D01*
X39007996Y-34707623D01*
X39027727Y-34700574D01*
X39027575Y-34700139D01*
X39059274Y-34689046D01*
X39162882Y-34652793D01*
X39272150Y-34572150D01*
X39295785Y-34540123D01*
X39316499Y-34519583D01*
X39315873Y-34518849D01*
X39319562Y-34515697D01*
X39319573Y-34515690D01*
X39453190Y-34382073D01*
X39512830Y-34299986D01*
X40500001Y-34299986D01*
X40510494Y-34402697D01*
X40565641Y-34569119D01*
X40565643Y-34569124D01*
X40657684Y-34718345D01*
X40781654Y-34842315D01*
X40930875Y-34934356D01*
X40930880Y-34934358D01*
X41097302Y-34989505D01*
X41097309Y-34989506D01*
X41200019Y-34999999D01*
X41412499Y-34999999D01*
X41912500Y-34999999D01*
X42124972Y-34999999D01*
X42124986Y-34999998D01*
X42227697Y-34989505D01*
X42394119Y-34934358D01*
X42394124Y-34934356D01*
X42543345Y-34842315D01*
X42667315Y-34718345D01*
X42759356Y-34569124D01*
X42759358Y-34569119D01*
X42814505Y-34402697D01*
X42814506Y-34402690D01*
X42824999Y-34299986D01*
X42825000Y-34299973D01*
X42825000Y-33850000D01*
X41912500Y-33850000D01*
X41912500Y-34999999D01*
X41412499Y-34999999D01*
X41412500Y-34999998D01*
X41412500Y-33850000D01*
X40500001Y-33850000D01*
X40500001Y-34299986D01*
X39512830Y-34299986D01*
X39564260Y-34229199D01*
X39650047Y-34060832D01*
X39708440Y-33881118D01*
X39724576Y-33779240D01*
X39738000Y-33694486D01*
X39738000Y-33505513D01*
X39708440Y-33318881D01*
X39650045Y-33139163D01*
X39564260Y-32970801D01*
X39563499Y-32969754D01*
X39563498Y-32969752D01*
X39563496Y-32969750D01*
X39512829Y-32900013D01*
X40500000Y-32900013D01*
X40500000Y-33350000D01*
X41412500Y-33350000D01*
X41912500Y-33350000D01*
X42824999Y-33350000D01*
X42824999Y-32900028D01*
X42824998Y-32900013D01*
X42814505Y-32797302D01*
X42759358Y-32630880D01*
X42759356Y-32630875D01*
X42667315Y-32481654D01*
X42543345Y-32357684D01*
X42394124Y-32265643D01*
X42394119Y-32265641D01*
X42227697Y-32210494D01*
X42227690Y-32210493D01*
X42124986Y-32200000D01*
X41912500Y-32200000D01*
X41912500Y-33350000D01*
X41412500Y-33350000D01*
X41412500Y-32200000D01*
X41200029Y-32200000D01*
X41200012Y-32200001D01*
X41097302Y-32210494D01*
X40930880Y-32265641D01*
X40930875Y-32265643D01*
X40781654Y-32357684D01*
X40657684Y-32481654D01*
X40565643Y-32630875D01*
X40565641Y-32630880D01*
X40510494Y-32797302D01*
X40510493Y-32797309D01*
X40500000Y-32900013D01*
X39512829Y-32900013D01*
X39453190Y-32817927D01*
X39319573Y-32684310D01*
X39319571Y-32684309D01*
X39315866Y-32681144D01*
X39316482Y-32680422D01*
X39295786Y-32659876D01*
X39272150Y-32627850D01*
X39162882Y-32547207D01*
X39162880Y-32547206D01*
X39027578Y-32499862D01*
X39027729Y-32499429D01*
X39008005Y-32492381D01*
X38998341Y-32487457D01*
X38998332Y-32487453D01*
X38818618Y-32429059D01*
X38631986Y-32399500D01*
X38631981Y-32399500D01*
X37734500Y-32399500D01*
X37667461Y-32379815D01*
X37621706Y-32327011D01*
X37610500Y-32275500D01*
X37610500Y-28694500D01*
X37630185Y-28627461D01*
X37682989Y-28581706D01*
X37734500Y-28570500D01*
X39179750Y-28570500D01*
X39179751Y-28570499D01*
X39194568Y-28567552D01*
X39238229Y-28558868D01*
X39238229Y-28558867D01*
X39238231Y-28558867D01*
X39304552Y-28514552D01*
X39348867Y-28448231D01*
X39348867Y-28448229D01*
X39348868Y-28448229D01*
X39360499Y-28389752D01*
X39360500Y-28389750D01*
X39360500Y-26200249D01*
X39360499Y-26200247D01*
X42959500Y-26200247D01*
X42959500Y-28389752D01*
X42971131Y-28448229D01*
X42971132Y-28448230D01*
X43015447Y-28514552D01*
X43081769Y-28558867D01*
X43081770Y-28558868D01*
X43140247Y-28570499D01*
X43140250Y-28570500D01*
X43140252Y-28570500D01*
X48679750Y-28570500D01*
X48679751Y-28570499D01*
X48694568Y-28567552D01*
X48738229Y-28558868D01*
X48738229Y-28558867D01*
X48738231Y-28558867D01*
X48781997Y-28529623D01*
X48801790Y-28516398D01*
X48868467Y-28495520D01*
X48870681Y-28495500D01*
X51214486Y-28495500D01*
X51401118Y-28465940D01*
X51455626Y-28448229D01*
X51580832Y-28407547D01*
X51749199Y-28321760D01*
X51902074Y-28210690D01*
X52390690Y-27722073D01*
X52501760Y-27569199D01*
X52587547Y-27400832D01*
X52645940Y-27221118D01*
X52656032Y-27157400D01*
X52675500Y-27034486D01*
X52675500Y-23724986D01*
X55980001Y-23724986D01*
X55990494Y-23827697D01*
X56045641Y-23994119D01*
X56045643Y-23994124D01*
X56137684Y-24143345D01*
X56261654Y-24267315D01*
X56410875Y-24359356D01*
X56410880Y-24359358D01*
X56577302Y-24414505D01*
X56577309Y-24414506D01*
X56680019Y-24424999D01*
X58079999Y-24424999D01*
X58580000Y-24424999D01*
X59979972Y-24424999D01*
X59979986Y-24424998D01*
X60082697Y-24414505D01*
X60249119Y-24359358D01*
X60249124Y-24359356D01*
X60398345Y-24267315D01*
X60522315Y-24143345D01*
X60614356Y-23994124D01*
X60614358Y-23994119D01*
X60669505Y-23827697D01*
X60669506Y-23827690D01*
X60679999Y-23724986D01*
X60680000Y-23724973D01*
X60680000Y-23500000D01*
X58580000Y-23500000D01*
X58580000Y-24424999D01*
X58079999Y-24424999D01*
X58080000Y-24424998D01*
X58080000Y-23500000D01*
X55980001Y-23500000D01*
X55980001Y-23724986D01*
X52675500Y-23724986D01*
X52675500Y-20325513D01*
X52645940Y-20138881D01*
X52587545Y-19959163D01*
X52539491Y-19864853D01*
X52501760Y-19790801D01*
X52390690Y-19637927D01*
X52257073Y-19504310D01*
X52257070Y-19504308D01*
X52253366Y-19501144D01*
X52253982Y-19500422D01*
X52233286Y-19479876D01*
X52209650Y-19447850D01*
X52119603Y-19381393D01*
X52100382Y-19367207D01*
X52100380Y-19367206D01*
X51965078Y-19319862D01*
X51965229Y-19319429D01*
X51945505Y-19312381D01*
X51935841Y-19307457D01*
X51935832Y-19307453D01*
X51756118Y-19249059D01*
X51569486Y-19219500D01*
X51569481Y-19219500D01*
X51380519Y-19219500D01*
X51380514Y-19219500D01*
X51193880Y-19249060D01*
X51193877Y-19249060D01*
X51014172Y-19307451D01*
X51014171Y-19307451D01*
X51004487Y-19312385D01*
X50984770Y-19319430D01*
X50984922Y-19319862D01*
X50849619Y-19367206D01*
X50849617Y-19367207D01*
X50740350Y-19447850D01*
X50740346Y-19447854D01*
X50716711Y-19479878D01*
X50696016Y-19500430D01*
X50696629Y-19501148D01*
X50692928Y-19504308D01*
X50559309Y-19637928D01*
X50448240Y-19790800D01*
X50362454Y-19959163D01*
X50304059Y-20138881D01*
X50274500Y-20325513D01*
X50274500Y-25970500D01*
X50254815Y-26037539D01*
X50202011Y-26083294D01*
X50150500Y-26094500D01*
X48870681Y-26094500D01*
X48803642Y-26074815D01*
X48801790Y-26073602D01*
X48738230Y-26031132D01*
X48738229Y-26031131D01*
X48679752Y-26019500D01*
X48679748Y-26019500D01*
X43140252Y-26019500D01*
X43140247Y-26019500D01*
X43081770Y-26031131D01*
X43081769Y-26031132D01*
X43015447Y-26075447D01*
X42971132Y-26141769D01*
X42971131Y-26141770D01*
X42959500Y-26200247D01*
X39360499Y-26200247D01*
X39348868Y-26141770D01*
X39348867Y-26141769D01*
X39304552Y-26075447D01*
X39238230Y-26031132D01*
X39238229Y-26031131D01*
X39179752Y-26019500D01*
X39179748Y-26019500D01*
X33640252Y-26019500D01*
X33640247Y-26019500D01*
X33581770Y-26031131D01*
X33581769Y-26031132D01*
X33515447Y-26075447D01*
X33471132Y-26141769D01*
X33471131Y-26141770D01*
X33459500Y-26200247D01*
X33459500Y-28389752D01*
X33471131Y-28448229D01*
X33471132Y-28448230D01*
X33515447Y-28514552D01*
X33581769Y-28558867D01*
X33581770Y-28558868D01*
X33640247Y-28570499D01*
X33640250Y-28570500D01*
X33640252Y-28570500D01*
X35085500Y-28570500D01*
X35152539Y-28590185D01*
X35198294Y-28642989D01*
X35209500Y-28694500D01*
X35209500Y-35098301D01*
X35189815Y-35165340D01*
X35137011Y-35211095D01*
X35104898Y-35220774D01*
X35005465Y-35236522D01*
X34810776Y-35299781D01*
X34628386Y-35392715D01*
X34462786Y-35513028D01*
X34318028Y-35657786D01*
X34197715Y-35823386D01*
X34104781Y-36005776D01*
X34041522Y-36200465D01*
X34016184Y-36360447D01*
X34009500Y-36402648D01*
X34009500Y-36607352D01*
X34012081Y-36623650D01*
X34041522Y-36809534D01*
X34104781Y-37004223D01*
X34197712Y-37186609D01*
X34234770Y-37237615D01*
X34258249Y-37303422D01*
X34242423Y-37371476D01*
X34192317Y-37420170D01*
X34134451Y-37434500D01*
X26125504Y-37434500D01*
X26084549Y-37427541D01*
X25969701Y-37387354D01*
X25969699Y-37387353D01*
X25939270Y-37384500D01*
X25939266Y-37384500D01*
X21730734Y-37384500D01*
X21730730Y-37384500D01*
X21700300Y-37387353D01*
X21700298Y-37387353D01*
X21572119Y-37432206D01*
X21572117Y-37432207D01*
X21462850Y-37512850D01*
X21382207Y-37622117D01*
X21382206Y-37622119D01*
X21337353Y-37750298D01*
X21337353Y-37750300D01*
X21334500Y-37780730D01*
X5825715Y-37780730D01*
X6084766Y-37521679D01*
X6084765Y-37521678D01*
X5856750Y-37334551D01*
X5554480Y-37132581D01*
X5554462Y-37132570D01*
X5233869Y-36961209D01*
X5233864Y-36961207D01*
X4897997Y-36822086D01*
X4550101Y-36716553D01*
X4550090Y-36716550D01*
X4193556Y-36645632D01*
X3831766Y-36610000D01*
X3468234Y-36610000D01*
X3106443Y-36645632D01*
X2749909Y-36716550D01*
X2749898Y-36716553D01*
X2402002Y-36822086D01*
X2066135Y-36961207D01*
X2066130Y-36961209D01*
X1745537Y-37132570D01*
X1745519Y-37132581D01*
X1443258Y-37334545D01*
X1443254Y-37334548D01*
X1215233Y-37521679D01*
X1215233Y-37521680D01*
X2094556Y-38401003D01*
X2002672Y-38362944D01*
X1903216Y-38362944D01*
X1811330Y-38401004D01*
X1741004Y-38471330D01*
X1702944Y-38563216D01*
X1702944Y-38662672D01*
X1741003Y-38754556D01*
X861680Y-37875233D01*
X861679Y-37875233D01*
X674548Y-38103254D01*
X674545Y-38103258D01*
X472581Y-38405519D01*
X472570Y-38405537D01*
X301209Y-38726130D01*
X301207Y-38726135D01*
X289061Y-38755459D01*
X245220Y-38809862D01*
X178926Y-38831927D01*
X111226Y-38814648D01*
X63616Y-38763510D01*
X50500Y-38708006D01*
X50500Y-23704986D01*
X455001Y-23704986D01*
X465494Y-23807697D01*
X520641Y-23974119D01*
X520643Y-23974124D01*
X612684Y-24123345D01*
X736654Y-24247315D01*
X885875Y-24339356D01*
X885880Y-24339358D01*
X1052302Y-24394505D01*
X1052309Y-24394506D01*
X1155019Y-24404999D01*
X2554999Y-24404999D01*
X3055000Y-24404999D01*
X4454972Y-24404999D01*
X4454986Y-24404998D01*
X4557697Y-24394505D01*
X4724119Y-24339358D01*
X4724124Y-24339356D01*
X4873345Y-24247315D01*
X4997315Y-24123345D01*
X5089356Y-23974124D01*
X5089358Y-23974119D01*
X5144505Y-23807697D01*
X5144506Y-23807690D01*
X5154999Y-23704986D01*
X5155000Y-23704973D01*
X5155000Y-23480000D01*
X3055000Y-23480000D01*
X3055000Y-24404999D01*
X2554999Y-24404999D01*
X2555000Y-24404998D01*
X2555000Y-23480000D01*
X455001Y-23480000D01*
X455001Y-23704986D01*
X50500Y-23704986D01*
X50500Y-23190001D01*
X7137704Y-23190001D01*
X7137899Y-23192486D01*
X7183718Y-23350198D01*
X7267314Y-23491552D01*
X7267321Y-23491561D01*
X7383438Y-23607678D01*
X7383447Y-23607685D01*
X7524803Y-23691282D01*
X7524806Y-23691283D01*
X7682504Y-23737099D01*
X7682510Y-23737100D01*
X7719350Y-23739999D01*
X7719366Y-23740000D01*
X8360000Y-23740000D01*
X8860000Y-23740000D01*
X9500634Y-23740000D01*
X9500649Y-23739999D01*
X9537489Y-23737100D01*
X9537495Y-23737099D01*
X9695193Y-23691283D01*
X9695196Y-23691282D01*
X9836552Y-23607685D01*
X9836561Y-23607678D01*
X9952678Y-23491561D01*
X9952685Y-23491552D01*
X10036281Y-23350198D01*
X10082100Y-23192486D01*
X10082295Y-23190001D01*
X10082295Y-23190000D01*
X8860000Y-23190000D01*
X8860000Y-23740000D01*
X8360000Y-23740000D01*
X8360000Y-23190000D01*
X7137705Y-23190000D01*
X7137704Y-23190001D01*
X50500Y-23190001D01*
X50500Y-22374000D01*
X70185Y-22306961D01*
X122989Y-22261206D01*
X174500Y-22250000D01*
X443958Y-22250000D01*
X510997Y-22269685D01*
X556752Y-22322489D01*
X566696Y-22391647D01*
X549497Y-22439096D01*
X520645Y-22485871D01*
X520641Y-22485880D01*
X465494Y-22652302D01*
X465493Y-22652309D01*
X455000Y-22755013D01*
X455000Y-22980000D01*
X5154999Y-22980000D01*
X5154999Y-22755028D01*
X5154998Y-22755013D01*
X5144505Y-22652302D01*
X5089358Y-22485880D01*
X5089356Y-22485875D01*
X5058717Y-22436202D01*
X5040277Y-22368810D01*
X5061199Y-22302146D01*
X5076575Y-22283423D01*
X5109998Y-22250000D01*
X5110000Y-22250000D01*
X5110000Y-21229500D01*
X5129685Y-21162461D01*
X5182489Y-21116706D01*
X5234000Y-21105500D01*
X7404456Y-21105500D01*
X7471495Y-21125185D01*
X7517250Y-21177989D01*
X7527194Y-21247147D01*
X7500966Y-21304577D01*
X7501773Y-21305153D01*
X7498805Y-21309309D01*
X7498169Y-21310703D01*
X7496632Y-21312353D01*
X7495804Y-21313513D01*
X7444426Y-21418608D01*
X7434500Y-21486739D01*
X7434500Y-21853260D01*
X7444426Y-21921391D01*
X7444427Y-21921393D01*
X7495802Y-22026483D01*
X7495803Y-22026484D01*
X7495804Y-22026486D01*
X7501773Y-22034847D01*
X7500658Y-22035642D01*
X7528970Y-22087490D01*
X7523986Y-22157182D01*
X7482114Y-22213115D01*
X7470926Y-22220580D01*
X7383444Y-22272317D01*
X7383438Y-22272321D01*
X7267321Y-22388438D01*
X7267314Y-22388447D01*
X7183718Y-22529801D01*
X7137899Y-22687513D01*
X7137704Y-22689998D01*
X7137705Y-22690000D01*
X10082295Y-22690000D01*
X10082295Y-22689998D01*
X10082100Y-22687513D01*
X10036281Y-22529801D01*
X9952685Y-22388447D01*
X9952678Y-22388438D01*
X9896421Y-22332181D01*
X9862936Y-22270858D01*
X9867920Y-22201166D01*
X9909792Y-22145233D01*
X9975256Y-22120816D01*
X9984102Y-22120500D01*
X10372646Y-22120500D01*
X10439685Y-22140185D01*
X10485440Y-22192989D01*
X10495384Y-22262147D01*
X10487207Y-22291953D01*
X10463920Y-22348171D01*
X10463918Y-22348177D01*
X10437000Y-22483504D01*
X10437000Y-23731443D01*
X10433750Y-23754983D01*
X10434533Y-23755123D01*
X10287300Y-24581885D01*
X10287269Y-24582056D01*
X10285491Y-24592046D01*
X10277354Y-24615301D01*
X10274500Y-24645734D01*
X10274500Y-24653765D01*
X10273764Y-24657898D01*
X10273106Y-24662921D01*
X10273104Y-24662938D01*
X10271302Y-24676716D01*
X10271123Y-24678849D01*
X10270628Y-24686368D01*
X10270629Y-24686371D01*
X10272285Y-24695624D01*
X10272559Y-24697149D01*
X10274500Y-24719003D01*
X10274500Y-26005583D01*
X10273764Y-26042101D01*
X10274500Y-26046233D01*
X10274500Y-26054269D01*
X10277353Y-26084694D01*
X10277353Y-26084698D01*
X10282201Y-26098551D01*
X10287238Y-26117765D01*
X10434293Y-26943532D01*
X10433863Y-26943608D01*
X10437000Y-26968319D01*
X10437000Y-27698506D01*
X10437000Y-27836494D01*
X10437000Y-27836496D01*
X10436999Y-27836496D01*
X10463918Y-27971822D01*
X10463921Y-27971832D01*
X10516722Y-28099307D01*
X10593387Y-28214045D01*
X10853454Y-28474112D01*
X10968192Y-28550777D01*
X11063333Y-28590185D01*
X11095672Y-28603580D01*
X11095676Y-28603580D01*
X11095677Y-28603581D01*
X11231003Y-28630500D01*
X11231006Y-28630500D01*
X11231007Y-28630500D01*
X19122216Y-28630500D01*
X19177670Y-28643591D01*
X19957339Y-29033425D01*
X20008497Y-29081011D01*
X20014915Y-29097584D01*
X20016458Y-29096946D01*
X20021132Y-29108230D01*
X20065447Y-29174552D01*
X20131769Y-29218867D01*
X20131770Y-29218868D01*
X20190247Y-29230499D01*
X20190250Y-29230500D01*
X20190252Y-29230500D01*
X22429750Y-29230500D01*
X22429751Y-29230499D01*
X22444568Y-29227552D01*
X22488229Y-29218868D01*
X22488229Y-29218867D01*
X22488231Y-29218867D01*
X22554552Y-29174552D01*
X22598867Y-29108231D01*
X22605784Y-29073452D01*
X22638169Y-29011543D01*
X22698884Y-28976968D01*
X22768654Y-28980707D01*
X22825326Y-29021572D01*
X22846487Y-29063078D01*
X23129585Y-30038376D01*
X23134500Y-30072942D01*
X23134500Y-32180500D01*
X23114815Y-32247539D01*
X23062011Y-32293294D01*
X23010500Y-32304500D01*
X21730730Y-32304500D01*
X21700300Y-32307353D01*
X21700298Y-32307353D01*
X21572119Y-32352206D01*
X21572117Y-32352207D01*
X21462850Y-32432850D01*
X21382207Y-32542117D01*
X21382206Y-32542119D01*
X21337353Y-32670298D01*
X21337353Y-32670300D01*
X21334500Y-32700730D01*
X21334500Y-33409269D01*
X21337353Y-33439699D01*
X21337353Y-33439701D01*
X21363884Y-33515519D01*
X21382207Y-33567882D01*
X21462850Y-33677150D01*
X21572118Y-33757793D01*
X21614845Y-33772744D01*
X21700299Y-33802646D01*
X21730730Y-33805500D01*
X21730734Y-33805500D01*
X25939270Y-33805500D01*
X25969699Y-33802646D01*
X26036590Y-33779240D01*
X26084549Y-33762459D01*
X26088637Y-33761764D01*
X26090569Y-33760523D01*
X26125504Y-33755500D01*
X26138685Y-33755500D01*
X26165877Y-33758518D01*
X26650865Y-33867531D01*
X26711955Y-33901438D01*
X26723438Y-33914875D01*
X26787850Y-34002150D01*
X26897118Y-34082793D01*
X26939845Y-34097744D01*
X27025299Y-34127646D01*
X27055730Y-34130500D01*
X27055734Y-34130500D01*
X27989270Y-34130500D01*
X28019699Y-34127646D01*
X28019701Y-34127646D01*
X28083790Y-34105219D01*
X28147882Y-34082793D01*
X28257150Y-34002150D01*
X28337793Y-33892882D01*
X28377558Y-33779240D01*
X28382646Y-33764701D01*
X28382646Y-33764699D01*
X28385500Y-33734269D01*
X28385500Y-33729986D01*
X29485001Y-33729986D01*
X29495494Y-33832697D01*
X29550641Y-33999119D01*
X29550643Y-33999124D01*
X29642684Y-34148345D01*
X29766654Y-34272315D01*
X29915875Y-34364356D01*
X29915880Y-34364358D01*
X30082302Y-34419505D01*
X30082309Y-34419506D01*
X30185019Y-34429999D01*
X30397499Y-34429999D01*
X30897500Y-34429999D01*
X31109972Y-34429999D01*
X31109986Y-34429998D01*
X31212697Y-34419505D01*
X31379119Y-34364358D01*
X31379124Y-34364356D01*
X31528345Y-34272315D01*
X31652315Y-34148345D01*
X31744356Y-33999124D01*
X31744358Y-33999119D01*
X31799505Y-33832697D01*
X31799506Y-33832690D01*
X31809999Y-33729986D01*
X31810000Y-33729973D01*
X31810000Y-33280000D01*
X30897500Y-33280000D01*
X30897500Y-34429999D01*
X30397499Y-34429999D01*
X30397500Y-34429998D01*
X30397500Y-33280000D01*
X29485001Y-33280000D01*
X29485001Y-33729986D01*
X28385500Y-33729986D01*
X28385500Y-32330013D01*
X29485000Y-32330013D01*
X29485000Y-32780000D01*
X30397500Y-32780000D01*
X30897500Y-32780000D01*
X31809999Y-32780000D01*
X31809999Y-32330028D01*
X31809998Y-32330013D01*
X31799505Y-32227302D01*
X31744358Y-32060880D01*
X31744356Y-32060875D01*
X31652315Y-31911654D01*
X31528345Y-31787684D01*
X31379124Y-31695643D01*
X31379119Y-31695641D01*
X31212697Y-31640494D01*
X31212690Y-31640493D01*
X31109986Y-31630000D01*
X30897500Y-31630000D01*
X30897500Y-32780000D01*
X30397500Y-32780000D01*
X30397500Y-31630000D01*
X30185029Y-31630000D01*
X30185012Y-31630001D01*
X30082302Y-31640494D01*
X29915880Y-31695641D01*
X29915875Y-31695643D01*
X29766654Y-31787684D01*
X29642684Y-31911654D01*
X29550643Y-32060875D01*
X29550641Y-32060880D01*
X29495494Y-32227302D01*
X29495493Y-32227309D01*
X29485000Y-32330013D01*
X28385500Y-32330013D01*
X28385500Y-32325730D01*
X28382646Y-32295300D01*
X28382646Y-32295298D01*
X28349006Y-32199163D01*
X28337793Y-32167118D01*
X28257150Y-32057850D01*
X28147882Y-31977207D01*
X28147880Y-31977206D01*
X28019700Y-31932353D01*
X27989270Y-31929500D01*
X27989266Y-31929500D01*
X27055734Y-31929500D01*
X27055730Y-31929500D01*
X27025300Y-31932353D01*
X27025298Y-31932353D01*
X26897119Y-31977206D01*
X26897117Y-31977207D01*
X26787850Y-32057850D01*
X26701689Y-32174595D01*
X26700445Y-32173677D01*
X26658917Y-32216342D01*
X26629714Y-32228204D01*
X26167454Y-32350383D01*
X26135768Y-32354500D01*
X26125504Y-32354500D01*
X26084549Y-32347541D01*
X25969701Y-32307354D01*
X25969699Y-32307353D01*
X25939270Y-32304500D01*
X25939266Y-32304500D01*
X24659500Y-32304500D01*
X24592461Y-32284815D01*
X24546706Y-32232011D01*
X24535500Y-32180500D01*
X24535500Y-31296614D01*
X24537883Y-31272422D01*
X24550500Y-31208995D01*
X24550500Y-30073765D01*
X24555687Y-30038275D01*
X24796976Y-29230499D01*
X25006336Y-28529613D01*
X25014660Y-28508821D01*
X25055220Y-28429219D01*
X25118477Y-28234534D01*
X25150500Y-28032352D01*
X25150500Y-27827648D01*
X25133779Y-27722075D01*
X25118477Y-27625465D01*
X25055218Y-27430776D01*
X25021503Y-27364607D01*
X24962287Y-27248390D01*
X24910404Y-27176978D01*
X24841971Y-27082786D01*
X24697213Y-26938028D01*
X24531613Y-26817715D01*
X24531612Y-26817714D01*
X24531610Y-26817713D01*
X24474653Y-26788691D01*
X24349223Y-26724781D01*
X24154534Y-26661522D01*
X23979995Y-26633878D01*
X23952352Y-26629500D01*
X23747648Y-26629500D01*
X23723329Y-26633351D01*
X23545465Y-26661522D01*
X23350776Y-26724781D01*
X23168386Y-26817715D01*
X23002786Y-26938028D01*
X22858028Y-27082786D01*
X22834818Y-27114734D01*
X22779489Y-27157400D01*
X22709875Y-27163379D01*
X22648080Y-27130774D01*
X22613723Y-27069935D01*
X22610500Y-27041849D01*
X22610500Y-26810249D01*
X22610499Y-26810247D01*
X22598868Y-26751770D01*
X22598867Y-26751769D01*
X22554552Y-26685447D01*
X22488230Y-26641132D01*
X22488229Y-26641131D01*
X22429752Y-26629500D01*
X22429748Y-26629500D01*
X20190252Y-26629500D01*
X20190247Y-26629500D01*
X20131770Y-26641131D01*
X20131769Y-26641132D01*
X20065447Y-26685447D01*
X20021132Y-26751769D01*
X20016460Y-26763050D01*
X20012348Y-26761347D01*
X19990501Y-26802398D01*
X19957341Y-26826570D01*
X19177669Y-27216409D01*
X19122214Y-27229500D01*
X11962000Y-27229500D01*
X11953314Y-27226949D01*
X11944353Y-27228238D01*
X11920312Y-27217259D01*
X11894961Y-27209815D01*
X11889033Y-27202974D01*
X11880797Y-27199213D01*
X11866507Y-27176978D01*
X11849206Y-27157011D01*
X11846918Y-27146496D01*
X11843023Y-27140435D01*
X11838000Y-27105500D01*
X11838000Y-26968557D01*
X11841251Y-26945017D01*
X11840467Y-26944878D01*
X11896630Y-26629500D01*
X11987760Y-26117765D01*
X11992798Y-26098551D01*
X11997646Y-26084699D01*
X12000500Y-26054266D01*
X12000500Y-26049986D01*
X13100001Y-26049986D01*
X13110494Y-26152697D01*
X13165641Y-26319119D01*
X13165643Y-26319124D01*
X13257684Y-26468345D01*
X13381654Y-26592315D01*
X13530875Y-26684356D01*
X13530880Y-26684358D01*
X13697302Y-26739505D01*
X13697309Y-26739506D01*
X13800019Y-26749999D01*
X14012499Y-26749999D01*
X14512500Y-26749999D01*
X14724972Y-26749999D01*
X14724986Y-26749998D01*
X14827697Y-26739505D01*
X14994119Y-26684358D01*
X14994124Y-26684356D01*
X15143345Y-26592315D01*
X15267315Y-26468345D01*
X15359356Y-26319124D01*
X15359358Y-26319119D01*
X15414505Y-26152697D01*
X15414506Y-26152690D01*
X15424999Y-26049986D01*
X15425000Y-26049973D01*
X15425000Y-25600000D01*
X14512500Y-25600000D01*
X14512500Y-26749999D01*
X14012499Y-26749999D01*
X14012500Y-26749998D01*
X14012500Y-25600000D01*
X13100001Y-25600000D01*
X13100001Y-26049986D01*
X12000500Y-26049986D01*
X12000500Y-26046228D01*
X12001235Y-26042101D01*
X12003696Y-26023287D01*
X12003877Y-26021134D01*
X12004370Y-26013628D01*
X12000500Y-25992009D01*
X12000500Y-24695624D01*
X12000502Y-24694986D01*
X12000506Y-24694020D01*
X12001235Y-24657898D01*
X12000707Y-24654938D01*
X12000733Y-24650013D01*
X13100000Y-24650013D01*
X13100000Y-25100000D01*
X15424999Y-25100000D01*
X15424999Y-24650028D01*
X15424998Y-24650013D01*
X15414505Y-24547302D01*
X15359358Y-24380880D01*
X15359356Y-24380875D01*
X15267315Y-24231654D01*
X15143345Y-24107684D01*
X14994124Y-24015643D01*
X14994119Y-24015641D01*
X14827697Y-23960494D01*
X14827690Y-23960493D01*
X14724986Y-23950000D01*
X14625954Y-23950000D01*
X14558915Y-23930315D01*
X14513160Y-23877511D01*
X14503216Y-23808353D01*
X14532241Y-23744797D01*
X14591019Y-23707023D01*
X14591360Y-23706923D01*
X14645197Y-23691281D01*
X14786552Y-23607685D01*
X14786561Y-23607678D01*
X14902678Y-23491561D01*
X14902685Y-23491552D01*
X14986281Y-23350198D01*
X15032100Y-23192486D01*
X15032295Y-23190001D01*
X15032295Y-23190000D01*
X13810000Y-23190000D01*
X13810000Y-23740000D01*
X13815092Y-23745092D01*
X13848577Y-23806415D01*
X13843593Y-23876107D01*
X13801721Y-23932040D01*
X13740013Y-23956131D01*
X13697302Y-23960494D01*
X13530880Y-24015641D01*
X13530875Y-24015643D01*
X13381654Y-24107684D01*
X13257684Y-24231654D01*
X13165643Y-24380875D01*
X13165641Y-24380880D01*
X13110494Y-24547302D01*
X13110493Y-24547309D01*
X13100000Y-24650013D01*
X12000733Y-24650013D01*
X12000735Y-24649684D01*
X12000693Y-24648627D01*
X12000636Y-24648630D01*
X12000500Y-24645736D01*
X11997646Y-24615302D01*
X11992797Y-24601444D01*
X11987759Y-24582227D01*
X11987451Y-24580500D01*
X11853390Y-23827690D01*
X11840707Y-23756469D01*
X11841134Y-23756392D01*
X11838000Y-23731681D01*
X11838000Y-23173223D01*
X11857685Y-23106184D01*
X11910489Y-23060429D01*
X11979647Y-23050485D01*
X12043203Y-23079510D01*
X12080977Y-23138288D01*
X12085618Y-23163495D01*
X12087899Y-23192489D01*
X12087900Y-23192495D01*
X12133716Y-23350193D01*
X12133717Y-23350196D01*
X12217314Y-23491552D01*
X12217321Y-23491561D01*
X12333438Y-23607678D01*
X12333447Y-23607685D01*
X12474803Y-23691282D01*
X12474806Y-23691283D01*
X12632504Y-23737099D01*
X12632510Y-23737100D01*
X12669350Y-23739999D01*
X12669366Y-23740000D01*
X13310000Y-23740000D01*
X13310000Y-23064000D01*
X13329685Y-22996961D01*
X13382489Y-22951206D01*
X13434000Y-22940000D01*
X13560000Y-22940000D01*
X13560000Y-22814000D01*
X13579685Y-22746961D01*
X13632489Y-22701206D01*
X13684000Y-22690000D01*
X15032295Y-22690000D01*
X15032295Y-22689998D01*
X15032100Y-22687511D01*
X15032099Y-22687505D01*
X14986077Y-22529095D01*
X14986276Y-22459225D01*
X15024218Y-22400555D01*
X15087857Y-22371712D01*
X15105153Y-22370500D01*
X15658481Y-22370500D01*
X15687921Y-22379144D01*
X15717908Y-22385668D01*
X15722923Y-22389422D01*
X15725520Y-22390185D01*
X15746162Y-22406819D01*
X15805495Y-22466152D01*
X15838980Y-22527475D01*
X15840127Y-22574218D01*
X15745649Y-23141089D01*
X15740381Y-23161649D01*
X15737353Y-23170302D01*
X15737353Y-23170304D01*
X15734500Y-23200730D01*
X15734500Y-23200734D01*
X15734500Y-23207988D01*
X15733307Y-23215147D01*
X15731057Y-23233955D01*
X15730901Y-23236090D01*
X15730498Y-23243410D01*
X15734500Y-23264545D01*
X15734500Y-24559269D01*
X15737353Y-24589699D01*
X15737353Y-24589701D01*
X15774806Y-24696732D01*
X15782207Y-24717882D01*
X15862850Y-24827150D01*
X15972118Y-24907793D01*
X16014845Y-24922744D01*
X16100299Y-24952646D01*
X16130730Y-24955500D01*
X16130734Y-24955500D01*
X17039270Y-24955500D01*
X17069699Y-24952646D01*
X17069701Y-24952646D01*
X17133790Y-24930219D01*
X17197882Y-24907793D01*
X17307150Y-24827150D01*
X17387793Y-24717882D01*
X17413039Y-24645734D01*
X17432646Y-24589701D01*
X17432646Y-24589699D01*
X17435500Y-24559269D01*
X17435500Y-23255197D01*
X17435500Y-23253270D01*
X17436691Y-23215139D01*
X17435513Y-23208075D01*
X17435516Y-23201106D01*
X17435500Y-23200759D01*
X17435500Y-23200734D01*
X17435500Y-23200730D01*
X18834500Y-23200730D01*
X18834500Y-24559269D01*
X18837353Y-24589699D01*
X18837353Y-24589701D01*
X18874806Y-24696732D01*
X18882207Y-24717882D01*
X18962850Y-24827150D01*
X19072118Y-24907793D01*
X19114845Y-24922744D01*
X19200299Y-24952646D01*
X19230730Y-24955500D01*
X19230734Y-24955500D01*
X20139270Y-24955500D01*
X20169699Y-24952646D01*
X20169701Y-24952646D01*
X20233790Y-24930219D01*
X20297882Y-24907793D01*
X20407150Y-24827150D01*
X20472222Y-24738979D01*
X20527865Y-24696732D01*
X20544303Y-24691746D01*
X21016399Y-24583628D01*
X21044079Y-24580500D01*
X21660500Y-24580500D01*
X21713469Y-24592383D01*
X21885441Y-24673630D01*
X22491052Y-24959748D01*
X22492054Y-24960221D01*
X22542185Y-25003444D01*
X22552350Y-25018657D01*
X22552949Y-25019553D01*
X22552950Y-25019554D01*
X22619269Y-25063867D01*
X22619270Y-25063868D01*
X22677747Y-25075499D01*
X22677750Y-25075500D01*
X22677752Y-25075500D01*
X24622250Y-25075500D01*
X24622251Y-25075499D01*
X24637068Y-25072552D01*
X24680729Y-25063868D01*
X24680729Y-25063867D01*
X24680731Y-25063867D01*
X24747052Y-25019552D01*
X24791367Y-24953231D01*
X24791367Y-24953229D01*
X24791368Y-24953229D01*
X24802999Y-24894752D01*
X24803000Y-24894750D01*
X24803000Y-24866231D01*
X24822685Y-24799192D01*
X24875489Y-24753437D01*
X24944647Y-24743493D01*
X25008203Y-24772518D01*
X25027318Y-24793346D01*
X25082092Y-24868736D01*
X25082097Y-24868742D01*
X25243757Y-25030402D01*
X25428723Y-25164788D01*
X25632429Y-25268582D01*
X25849871Y-25339234D01*
X25940000Y-25353509D01*
X25940000Y-24365747D01*
X25977708Y-24387518D01*
X26117591Y-24425000D01*
X26262409Y-24425000D01*
X26402292Y-24387518D01*
X26440000Y-24365747D01*
X26440000Y-25353508D01*
X26530128Y-25339234D01*
X26747570Y-25268582D01*
X26951276Y-25164788D01*
X27136242Y-25030402D01*
X27297902Y-24868742D01*
X27432288Y-24683776D01*
X27517583Y-24516376D01*
X27565557Y-24465580D01*
X27633378Y-24448785D01*
X27699513Y-24471322D01*
X27738553Y-24516377D01*
X27743864Y-24526802D01*
X27758764Y-24547309D01*
X27850541Y-24673629D01*
X27978871Y-24801959D01*
X28125696Y-24908634D01*
X28226942Y-24960221D01*
X28287404Y-24991028D01*
X28460001Y-25047108D01*
X28460002Y-25047108D01*
X28460005Y-25047109D01*
X28639257Y-25075500D01*
X28639258Y-25075500D01*
X28820742Y-25075500D01*
X28820743Y-25075500D01*
X28999995Y-25047109D01*
X28999998Y-25047108D01*
X28999999Y-25047108D01*
X29172604Y-24991025D01*
X29176573Y-24989381D01*
X29191202Y-24984364D01*
X29963070Y-24772518D01*
X30664797Y-24579922D01*
X30697616Y-24575500D01*
X32572535Y-24575500D01*
X32627752Y-24588472D01*
X33375229Y-24960221D01*
X33431262Y-24988088D01*
X33479146Y-25030223D01*
X33515448Y-25084553D01*
X33581769Y-25128867D01*
X33581770Y-25128868D01*
X33640247Y-25140499D01*
X33640250Y-25140500D01*
X33640252Y-25140500D01*
X39179750Y-25140500D01*
X39179751Y-25140499D01*
X39194568Y-25137552D01*
X39238229Y-25128868D01*
X39238229Y-25128867D01*
X39238231Y-25128867D01*
X39304552Y-25084552D01*
X39348584Y-25018654D01*
X39396227Y-24976640D01*
X40192330Y-24578591D01*
X40247784Y-24565500D01*
X42072216Y-24565500D01*
X42127670Y-24578591D01*
X42923771Y-24976641D01*
X42971418Y-25018658D01*
X43015447Y-25084552D01*
X43081769Y-25128867D01*
X43081770Y-25128868D01*
X43140247Y-25140499D01*
X43140250Y-25140500D01*
X43140252Y-25140500D01*
X48679750Y-25140500D01*
X48679751Y-25140499D01*
X48694568Y-25137552D01*
X48738229Y-25128868D01*
X48738229Y-25128867D01*
X48738231Y-25128867D01*
X48804552Y-25084552D01*
X48848867Y-25018231D01*
X48848867Y-25018229D01*
X48848868Y-25018229D01*
X48860499Y-24959752D01*
X48860500Y-24959750D01*
X48860500Y-22770249D01*
X48860499Y-22770247D01*
X48848868Y-22711770D01*
X48848867Y-22711769D01*
X48804552Y-22645447D01*
X48738230Y-22601132D01*
X48738229Y-22601131D01*
X48679752Y-22589500D01*
X48679748Y-22589500D01*
X43140252Y-22589500D01*
X43140247Y-22589500D01*
X43081770Y-22601131D01*
X43081769Y-22601132D01*
X43015446Y-22645448D01*
X42971421Y-22711336D01*
X42923775Y-22753353D01*
X42127669Y-23151409D01*
X42072214Y-23164500D01*
X40247784Y-23164500D01*
X40192330Y-23151409D01*
X39396228Y-22753358D01*
X39348581Y-22711341D01*
X39331737Y-22686133D01*
X39304552Y-22645448D01*
X39238231Y-22601133D01*
X39238230Y-22601132D01*
X39238229Y-22601131D01*
X39179752Y-22589500D01*
X39179748Y-22589500D01*
X33640252Y-22589500D01*
X33640247Y-22589500D01*
X33581770Y-22601131D01*
X33581769Y-22601132D01*
X33515447Y-22645447D01*
X33464348Y-22721923D01*
X33460793Y-22719547D01*
X33431536Y-22755802D01*
X33416578Y-22764687D01*
X32627588Y-23161290D01*
X32571897Y-23174500D01*
X30697611Y-23174500D01*
X30664795Y-23170078D01*
X29191190Y-22765630D01*
X29176558Y-22760614D01*
X29172601Y-22758974D01*
X29172598Y-22758973D01*
X29172594Y-22758971D01*
X29172590Y-22758970D01*
X28999997Y-22702891D01*
X28880493Y-22683963D01*
X28820743Y-22674500D01*
X28639257Y-22674500D01*
X28579506Y-22683963D01*
X28460003Y-22702891D01*
X28460000Y-22702891D01*
X28287404Y-22758971D01*
X28125695Y-22841366D01*
X28067335Y-22883768D01*
X27978871Y-22948041D01*
X27978869Y-22948043D01*
X27978868Y-22948043D01*
X27850543Y-23076368D01*
X27850543Y-23076369D01*
X27850541Y-23076371D01*
X27828881Y-23106184D01*
X27743866Y-23223195D01*
X27738552Y-23233625D01*
X27690577Y-23284420D01*
X27622755Y-23301214D01*
X27556621Y-23278675D01*
X27517583Y-23233623D01*
X27432288Y-23066223D01*
X27297902Y-22881257D01*
X27136242Y-22719597D01*
X26951276Y-22585211D01*
X26747568Y-22481417D01*
X26530124Y-22410765D01*
X26440000Y-22396490D01*
X26440000Y-23384252D01*
X26402292Y-23362482D01*
X26262409Y-23325000D01*
X26117591Y-23325000D01*
X25977708Y-23362482D01*
X25940000Y-23384252D01*
X25940000Y-22396490D01*
X25939999Y-22396490D01*
X25849875Y-22410765D01*
X25632431Y-22481417D01*
X25428723Y-22585211D01*
X25243757Y-22719597D01*
X25082096Y-22881258D01*
X25027318Y-22956654D01*
X24971987Y-22999319D01*
X24902374Y-23005298D01*
X24840579Y-22972692D01*
X24806222Y-22911853D01*
X24803000Y-22883768D01*
X24803000Y-22855249D01*
X24802999Y-22855247D01*
X24791368Y-22796770D01*
X24791367Y-22796769D01*
X24747052Y-22730447D01*
X24680730Y-22686132D01*
X24680729Y-22686131D01*
X24622252Y-22674500D01*
X24622248Y-22674500D01*
X22677752Y-22674500D01*
X22677747Y-22674500D01*
X22619270Y-22686131D01*
X22619268Y-22686132D01*
X22552950Y-22730446D01*
X22552946Y-22730449D01*
X22536677Y-22754798D01*
X22487025Y-22797794D01*
X21903858Y-23076371D01*
X21726091Y-23161290D01*
X21713323Y-23167389D01*
X21659874Y-23179500D01*
X21044078Y-23179500D01*
X21016403Y-23176371D01*
X20709930Y-23106184D01*
X20544307Y-23068253D01*
X20483354Y-23034099D01*
X20472219Y-23021016D01*
X20407150Y-22932850D01*
X20297882Y-22852207D01*
X20297880Y-22852206D01*
X20169700Y-22807353D01*
X20139270Y-22804500D01*
X20139266Y-22804500D01*
X19230734Y-22804500D01*
X19230730Y-22804500D01*
X19200300Y-22807353D01*
X19200298Y-22807353D01*
X19072119Y-22852206D01*
X19072117Y-22852207D01*
X18962850Y-22932850D01*
X18882207Y-23042117D01*
X18882206Y-23042119D01*
X18837353Y-23170298D01*
X18837353Y-23170300D01*
X18834500Y-23200730D01*
X17435500Y-23200730D01*
X17432646Y-23170301D01*
X17429618Y-23161648D01*
X17424348Y-23141084D01*
X17418531Y-23106184D01*
X17289334Y-22330993D01*
X17289333Y-22330991D01*
X17289332Y-22330982D01*
X17289132Y-22330174D01*
X17288789Y-22327726D01*
X17288543Y-22326248D01*
X17288581Y-22326241D01*
X17285578Y-22304783D01*
X17285500Y-22302585D01*
X17285500Y-22186007D01*
X17282415Y-22170500D01*
X17258580Y-22050672D01*
X17258578Y-22050667D01*
X17205777Y-21923192D01*
X17129112Y-21808454D01*
X16446545Y-21125887D01*
X16331807Y-21049222D01*
X16204332Y-20996421D01*
X16204322Y-20996418D01*
X16068996Y-20969500D01*
X16068994Y-20969500D01*
X16068993Y-20969500D01*
X14760544Y-20969500D01*
X14693505Y-20949815D01*
X14647750Y-20897011D01*
X14637806Y-20827853D01*
X14666831Y-20764297D01*
X14672863Y-20757819D01*
X14674196Y-20756485D01*
X14674198Y-20756483D01*
X14725573Y-20651393D01*
X14735500Y-20583260D01*
X14735500Y-20216740D01*
X14725573Y-20148607D01*
X14674198Y-20043517D01*
X14674196Y-20043515D01*
X14674196Y-20043514D01*
X14591485Y-19960803D01*
X14486391Y-19909426D01*
X14418261Y-19899500D01*
X14418260Y-19899500D01*
X14101519Y-19899500D01*
X14075307Y-19891803D01*
X14048330Y-19887513D01*
X14039512Y-19881292D01*
X14034480Y-19879815D01*
X14018927Y-19867991D01*
X14016310Y-19865654D01*
X14006542Y-19855886D01*
X14001890Y-19852778D01*
X13995410Y-19846991D01*
X13981362Y-19824397D01*
X13964303Y-19803983D01*
X13963198Y-19795185D01*
X13958517Y-19787656D01*
X13958913Y-19761053D01*
X13955600Y-19734657D01*
X13959426Y-19726659D01*
X13959559Y-19717794D01*
X13974277Y-19695626D01*
X13985759Y-19671632D01*
X13993300Y-19666973D01*
X13998206Y-19659586D01*
X14022569Y-19648896D01*
X14045204Y-19634916D01*
X14058517Y-19633123D01*
X14062188Y-19631513D01*
X14065988Y-19632117D01*
X14078002Y-19630500D01*
X14418261Y-19630500D01*
X14440971Y-19627191D01*
X14486393Y-19620573D01*
X14591483Y-19569198D01*
X14674198Y-19486483D01*
X14725573Y-19381393D01*
X14735500Y-19313260D01*
X14735500Y-18946740D01*
X14725573Y-18878607D01*
X14674198Y-18773517D01*
X14674196Y-18773515D01*
X14674196Y-18773514D01*
X14591485Y-18690803D01*
X14561540Y-18676164D01*
X14486393Y-18639427D01*
X14486392Y-18639426D01*
X14478155Y-18635400D01*
X14426573Y-18588272D01*
X14408658Y-18520738D01*
X14430099Y-18454239D01*
X14484088Y-18409889D01*
X14532615Y-18399999D01*
X14674971Y-18399999D01*
X14674987Y-18399998D01*
X14777697Y-18389505D01*
X14944119Y-18334358D01*
X14944124Y-18334356D01*
X15093345Y-18242315D01*
X15217315Y-18118345D01*
X15309356Y-17969124D01*
X15309358Y-17969119D01*
X15364505Y-17802697D01*
X15364506Y-17802690D01*
X15374999Y-17699986D01*
X15375000Y-17699973D01*
X15375000Y-17250000D01*
X13050001Y-17250000D01*
X13050001Y-17699986D01*
X13060494Y-17802697D01*
X13115641Y-17969119D01*
X13115643Y-17969124D01*
X13207684Y-18118345D01*
X13331654Y-18242315D01*
X13480875Y-18334356D01*
X13480880Y-18334358D01*
X13642139Y-18387794D01*
X13699584Y-18427566D01*
X13726407Y-18492082D01*
X13714092Y-18560858D01*
X13666549Y-18612058D01*
X13603135Y-18629500D01*
X12787483Y-18629500D01*
X12765537Y-18626926D01*
X12765435Y-18627505D01*
X12761926Y-18626880D01*
X12760458Y-18626704D01*
X12756638Y-18626249D01*
X12756636Y-18626248D01*
X12756633Y-18626248D01*
X12709595Y-18626058D01*
X12709594Y-18626058D01*
X12709592Y-18626058D01*
X12625514Y-18635400D01*
X12272713Y-18674599D01*
X12272492Y-18674662D01*
X12272386Y-18674693D01*
X12271873Y-18674765D01*
X12267584Y-18675613D01*
X12267537Y-18675375D01*
X12238197Y-18679500D01*
X11706608Y-18679500D01*
X11639569Y-18659815D01*
X11593814Y-18607011D01*
X11583870Y-18537853D01*
X11594893Y-18501687D01*
X11670791Y-18344124D01*
X11902258Y-17863605D01*
X11902793Y-17862882D01*
X11903285Y-17861474D01*
X11912782Y-17841760D01*
X11926159Y-17805695D01*
X11927286Y-17801483D01*
X11929522Y-17790208D01*
X11934106Y-17773392D01*
X11947646Y-17734699D01*
X11950500Y-17704266D01*
X11950500Y-16300013D01*
X13050000Y-16300013D01*
X13050000Y-16750000D01*
X13962500Y-16750000D01*
X14462500Y-16750000D01*
X15374999Y-16750000D01*
X15374999Y-16300028D01*
X15374998Y-16300013D01*
X15364505Y-16197302D01*
X15309358Y-16030880D01*
X15309356Y-16030875D01*
X15217315Y-15881654D01*
X15093345Y-15757684D01*
X14944124Y-15665643D01*
X14944119Y-15665641D01*
X14777697Y-15610494D01*
X14777690Y-15610493D01*
X14674986Y-15600000D01*
X14462500Y-15600000D01*
X14462500Y-16750000D01*
X13962500Y-16750000D01*
X13962500Y-15600000D01*
X13750029Y-15600000D01*
X13750012Y-15600001D01*
X13647302Y-15610494D01*
X13480880Y-15665641D01*
X13480875Y-15665643D01*
X13331654Y-15757684D01*
X13207684Y-15881654D01*
X13115643Y-16030875D01*
X13115641Y-16030880D01*
X13060494Y-16197302D01*
X13060493Y-16197309D01*
X13050000Y-16300013D01*
X11950500Y-16300013D01*
X11950500Y-16295734D01*
X11947646Y-16265301D01*
X11947646Y-16265300D01*
X11947646Y-16265298D01*
X11902793Y-16137119D01*
X11902792Y-16137117D01*
X11822150Y-16027850D01*
X11712882Y-15947207D01*
X11712880Y-15947206D01*
X11584700Y-15902353D01*
X11554270Y-15899500D01*
X11554266Y-15899500D01*
X10620734Y-15899500D01*
X10620730Y-15899500D01*
X10590300Y-15902353D01*
X10590298Y-15902353D01*
X10462119Y-15947206D01*
X10462117Y-15947207D01*
X10352850Y-16027850D01*
X10272207Y-16137117D01*
X10272206Y-16137119D01*
X10227353Y-16265298D01*
X10227353Y-16265300D01*
X10224500Y-16295730D01*
X10224500Y-17704269D01*
X10227353Y-17734694D01*
X10227354Y-17734701D01*
X10253189Y-17808536D01*
X10254915Y-17813469D01*
X10262217Y-17841761D01*
X10271717Y-17861483D01*
X10272208Y-17862886D01*
X10273202Y-17864765D01*
X10275289Y-17868899D01*
X10580106Y-18501687D01*
X10591466Y-18570627D01*
X10563750Y-18634764D01*
X10505759Y-18673736D01*
X10468392Y-18679500D01*
X9931929Y-18679500D01*
X9903413Y-18675087D01*
X9903249Y-18675863D01*
X9897293Y-18674600D01*
X9653485Y-18647511D01*
X9460407Y-18626058D01*
X9460402Y-18626058D01*
X9413361Y-18626248D01*
X9408075Y-18626879D01*
X9404575Y-18627503D01*
X9404472Y-18626926D01*
X9382514Y-18629500D01*
X7751739Y-18629500D01*
X7683608Y-18639426D01*
X7578514Y-18690803D01*
X7495803Y-18773514D01*
X7444426Y-18878608D01*
X7434500Y-18946739D01*
X7434500Y-19313260D01*
X7444426Y-19381391D01*
X7495803Y-19486485D01*
X7502137Y-19492819D01*
X7535622Y-19554142D01*
X7530638Y-19623834D01*
X7488766Y-19679767D01*
X7423302Y-19704184D01*
X7414456Y-19704500D01*
X5234000Y-19704500D01*
X5166961Y-19684815D01*
X5121206Y-19632011D01*
X5110000Y-19580500D01*
X5110000Y-18640000D01*
X5107216Y-18637216D01*
X5049658Y-18620315D01*
X5003903Y-18567511D01*
X4993959Y-18498353D01*
X5011158Y-18450903D01*
X5089356Y-18324124D01*
X5089358Y-18324119D01*
X5144505Y-18157697D01*
X5144506Y-18157690D01*
X5154999Y-18054986D01*
X5155000Y-18054973D01*
X5155000Y-17830000D01*
X455001Y-17830000D01*
X455001Y-18054986D01*
X465494Y-18157697D01*
X520641Y-18324119D01*
X520643Y-18324124D01*
X598842Y-18450903D01*
X617282Y-18518295D01*
X596360Y-18584959D01*
X542718Y-18629729D01*
X493303Y-18640000D01*
X174500Y-18640000D01*
X107461Y-18620315D01*
X61706Y-18567511D01*
X50500Y-18516000D01*
X50500Y-17105013D01*
X455000Y-17105013D01*
X455000Y-17330000D01*
X2555000Y-17330000D01*
X3055000Y-17330000D01*
X5154999Y-17330000D01*
X5154999Y-17105028D01*
X5154998Y-17105013D01*
X5144505Y-17002302D01*
X5089358Y-16835880D01*
X5089356Y-16835875D01*
X4997315Y-16686654D01*
X4873345Y-16562684D01*
X4724124Y-16470643D01*
X4724119Y-16470641D01*
X4557697Y-16415494D01*
X4557690Y-16415493D01*
X4454986Y-16405000D01*
X3055000Y-16405000D01*
X3055000Y-17330000D01*
X2555000Y-17330000D01*
X2555000Y-16405000D01*
X1155028Y-16405000D01*
X1155012Y-16405001D01*
X1052302Y-16415494D01*
X885880Y-16470641D01*
X885875Y-16470643D01*
X736654Y-16562684D01*
X612684Y-16686654D01*
X520643Y-16835875D01*
X520641Y-16835880D01*
X465494Y-17002302D01*
X465493Y-17002309D01*
X455000Y-17105013D01*
X50500Y-17105013D01*
X50500Y-5290820D01*
X70185Y-5223781D01*
X122989Y-5178026D01*
X192147Y-5168082D01*
X255703Y-5197107D01*
X283858Y-5232367D01*
X402570Y-5454462D01*
X402581Y-5454480D01*
X604551Y-5756750D01*
X791678Y-5984765D01*
X791679Y-5984766D01*
X2285747Y-4490697D01*
X2359588Y-4592330D01*
X2537670Y-4770412D01*
X2639301Y-4844251D01*
X2094885Y-5388666D01*
X2132944Y-5296784D01*
X2132944Y-5197328D01*
X2094884Y-5105442D01*
X2024558Y-5035116D01*
X1932672Y-4997056D01*
X1833216Y-4997056D01*
X1741330Y-5035116D01*
X1671004Y-5105442D01*
X1632944Y-5197328D01*
X1632944Y-5296784D01*
X1671004Y-5388670D01*
X1741330Y-5458996D01*
X1833216Y-5497056D01*
X1932672Y-5497056D01*
X2024554Y-5458997D01*
X1145232Y-6338319D01*
X1145233Y-6338320D01*
X1373249Y-6525448D01*
X1675519Y-6727418D01*
X1675537Y-6727429D01*
X1996130Y-6898790D01*
X1996135Y-6898792D01*
X2332002Y-7037913D01*
X2679898Y-7143446D01*
X2679909Y-7143449D01*
X3036443Y-7214367D01*
X3398234Y-7250000D01*
X3761766Y-7250000D01*
X4123556Y-7214367D01*
X4480090Y-7143449D01*
X4480101Y-7143446D01*
X4827997Y-7037913D01*
X5163864Y-6898792D01*
X5163869Y-6898790D01*
X5484462Y-6727429D01*
X5484480Y-6727418D01*
X5786736Y-6525457D01*
X5786750Y-6525447D01*
X6014765Y-6338320D01*
X6014766Y-6338319D01*
X5135443Y-5458996D01*
X5227328Y-5497056D01*
X5326784Y-5497056D01*
X5418670Y-5458996D01*
X5488996Y-5388670D01*
X5527056Y-5296784D01*
X5527056Y-5197328D01*
X5488996Y-5105443D01*
X6368319Y-5984766D01*
X6368320Y-5984765D01*
X6555447Y-5756750D01*
X6555457Y-5756736D01*
X6757418Y-5454480D01*
X6757429Y-5454462D01*
X6928790Y-5133869D01*
X6928792Y-5133864D01*
X7067913Y-4797997D01*
X7173446Y-4450101D01*
X7173449Y-4450089D01*
X7200461Y-4314293D01*
X18890000Y-4314293D01*
X18890000Y-10090000D01*
X18903181Y-10103181D01*
X18936666Y-10164504D01*
X18939500Y-10190862D01*
X18939500Y-21330918D01*
X18969082Y-21360500D01*
X33330918Y-21360500D01*
X33360500Y-21330918D01*
X33360500Y-17125013D01*
X55980000Y-17125013D01*
X55980000Y-17350000D01*
X58080000Y-17350000D01*
X58580000Y-17350000D01*
X60679999Y-17350000D01*
X60679999Y-17125028D01*
X60679998Y-17125013D01*
X60669505Y-17022302D01*
X60614358Y-16855880D01*
X60614356Y-16855875D01*
X60522315Y-16706654D01*
X60398345Y-16582684D01*
X60249124Y-16490643D01*
X60249119Y-16490641D01*
X60082697Y-16435494D01*
X60082690Y-16435493D01*
X59979986Y-16425000D01*
X58580000Y-16425000D01*
X58580000Y-17350000D01*
X58080000Y-17350000D01*
X58080000Y-16425000D01*
X56680028Y-16425000D01*
X56680012Y-16425001D01*
X56577302Y-16435494D01*
X56410880Y-16490641D01*
X56410875Y-16490643D01*
X56261654Y-16582684D01*
X56137684Y-16706654D01*
X56045643Y-16855875D01*
X56045641Y-16855880D01*
X55990494Y-17022302D01*
X55990493Y-17022309D01*
X55980000Y-17125013D01*
X33360500Y-17125013D01*
X33360500Y-10164082D01*
X33352198Y-10144041D01*
X33332834Y-10108578D01*
X33330000Y-10082220D01*
X33330000Y-4305875D01*
X33313505Y-4275667D01*
X33318489Y-4205975D01*
X33320112Y-4201851D01*
X33320497Y-4200920D01*
X33320500Y-4200918D01*
X33320500Y-1109082D01*
X33290918Y-1079500D01*
X18970918Y-1079500D01*
X18929082Y-1079500D01*
X18929081Y-1079500D01*
X18899500Y-1109081D01*
X18899500Y-4200918D01*
X18899888Y-4201855D01*
X18902025Y-4221728D01*
X18909012Y-4240460D01*
X18905684Y-4255759D01*
X18907358Y-4271324D01*
X18898410Y-4289198D01*
X18894162Y-4308733D01*
X18890000Y-4314293D01*
X7200461Y-4314293D01*
X7214354Y-4244447D01*
X7244367Y-4093556D01*
X7280000Y-3731765D01*
X7280000Y-3368234D01*
X7244367Y-3006443D01*
X7173449Y-2649909D01*
X7173446Y-2649898D01*
X7067913Y-2302002D01*
X6928792Y-1966135D01*
X6928790Y-1966130D01*
X6757429Y-1645537D01*
X6757418Y-1645519D01*
X6555448Y-1343249D01*
X6368320Y-1115233D01*
X6368319Y-1115232D01*
X5488997Y-1994554D01*
X5527056Y-1902672D01*
X5527056Y-1803216D01*
X5488996Y-1711330D01*
X5418670Y-1641004D01*
X5326784Y-1602944D01*
X5227328Y-1602944D01*
X5135442Y-1641004D01*
X5065116Y-1711330D01*
X5027056Y-1803216D01*
X5027056Y-1902672D01*
X5065116Y-1994558D01*
X5135442Y-2064884D01*
X5227328Y-2102944D01*
X5326784Y-2102944D01*
X5418666Y-2064885D01*
X4874251Y-2609300D01*
X4800412Y-2507670D01*
X4622330Y-2329588D01*
X4520698Y-2255748D01*
X6014766Y-761679D01*
X6014765Y-761678D01*
X5786750Y-574551D01*
X5484480Y-372581D01*
X5484462Y-372570D01*
X5318493Y-283858D01*
X5268648Y-234896D01*
X5253188Y-166758D01*
X5277020Y-101078D01*
X5332577Y-58710D01*
X5376946Y-50500D01*
X55718250Y-50500D01*
X55785289Y-70185D01*
G37*
%TD.AperFunction*%
%TA.AperFunction,Conductor*%
G36*
X60211263Y-42914766D02*
G01*
X60211264Y-42914765D01*
X60398391Y-42686750D01*
X60398401Y-42686736D01*
X60600362Y-42384480D01*
X60600373Y-42384462D01*
X60694622Y-42208134D01*
X60706735Y-42195801D01*
X60714748Y-42180485D01*
X60730710Y-42171394D01*
X60743584Y-42158290D01*
X60760441Y-42154464D01*
X60775463Y-42145911D01*
X60793806Y-42146894D01*
X60811721Y-42142829D01*
X60827970Y-42148724D01*
X60845233Y-42149650D01*
X60860132Y-42160394D01*
X60877401Y-42166660D01*
X60887884Y-42180406D01*
X60901905Y-42190517D01*
X60908630Y-42207610D01*
X60919770Y-42222218D01*
X60921255Y-42239700D01*
X60927486Y-42255535D01*
X60925597Y-42290778D01*
X60884657Y-42496597D01*
X60880459Y-42512264D01*
X60803715Y-42738345D01*
X60797508Y-42753331D01*
X60691913Y-42967457D01*
X60683803Y-42981504D01*
X60551157Y-43180022D01*
X60541283Y-43192890D01*
X60383863Y-43372394D01*
X60372394Y-43383863D01*
X60192890Y-43541283D01*
X60180022Y-43551157D01*
X59981504Y-43683803D01*
X59967457Y-43691913D01*
X59753331Y-43797508D01*
X59738345Y-43803715D01*
X59512264Y-43880459D01*
X59496598Y-43884657D01*
X59401222Y-43903629D01*
X59369917Y-43909855D01*
X59300326Y-43903629D01*
X59245149Y-43860766D01*
X59221904Y-43794877D01*
X59237971Y-43726880D01*
X59287273Y-43678881D01*
X59327406Y-43657429D01*
X59327424Y-43657418D01*
X59629680Y-43455457D01*
X59629694Y-43455447D01*
X59857709Y-43268320D01*
X59857710Y-43268319D01*
X58978387Y-42388996D01*
X59070272Y-42427056D01*
X59169728Y-42427056D01*
X59261614Y-42388996D01*
X59331940Y-42318670D01*
X59370000Y-42226784D01*
X59370000Y-42127328D01*
X59331940Y-42035443D01*
X60211263Y-42914766D01*
G37*
%TD.AperFunction*%
%TA.AperFunction,Conductor*%
G36*
X59261612Y-41965115D02*
G01*
X59169728Y-41927056D01*
X59070272Y-41927056D01*
X58978386Y-41965116D01*
X58908060Y-42035442D01*
X58870000Y-42127328D01*
X58870000Y-42226784D01*
X58908059Y-42318668D01*
X58363642Y-41774251D01*
X58465274Y-41700412D01*
X58643356Y-41522330D01*
X58717195Y-41420698D01*
X59261612Y-41965115D01*
G37*
%TD.AperFunction*%
%TA.AperFunction,Conductor*%
G36*
X5488668Y-41795115D02*
G01*
X5396784Y-41757056D01*
X5297328Y-41757056D01*
X5205442Y-41795116D01*
X5135116Y-41865442D01*
X5097056Y-41957328D01*
X5097056Y-42056784D01*
X5135115Y-42148668D01*
X4590698Y-41604251D01*
X4692330Y-41530412D01*
X4870412Y-41352330D01*
X4944251Y-41250698D01*
X5488668Y-41795115D01*
G37*
%TD.AperFunction*%
%TA.AperFunction,Conductor*%
G36*
X56482245Y-39185748D02*
G01*
X56380614Y-39259588D01*
X56202532Y-39437670D01*
X56128692Y-39539301D01*
X55584275Y-38994884D01*
X55676160Y-39032944D01*
X55775616Y-39032944D01*
X55867502Y-38994884D01*
X55937828Y-38924558D01*
X55975888Y-38832672D01*
X55975888Y-38733216D01*
X55937828Y-38641331D01*
X56482245Y-39185748D01*
G37*
%TD.AperFunction*%
%TA.AperFunction,Conductor*%
G36*
X2709301Y-39015748D02*
G01*
X2607670Y-39089588D01*
X2429588Y-39267670D01*
X2355748Y-39369301D01*
X1811331Y-38824884D01*
X1903216Y-38862944D01*
X2002672Y-38862944D01*
X2094558Y-38824884D01*
X2164884Y-38754558D01*
X2202944Y-38662672D01*
X2202944Y-38563216D01*
X2164884Y-38471331D01*
X2709301Y-39015748D01*
G37*
%TD.AperFunction*%
%TA.AperFunction,Conductor*%
G36*
X59241612Y-5095115D02*
G01*
X59149728Y-5057056D01*
X59050272Y-5057056D01*
X58958386Y-5095116D01*
X58888060Y-5165442D01*
X58850000Y-5257328D01*
X58850000Y-5356784D01*
X58888059Y-5448668D01*
X58343642Y-4904251D01*
X58445274Y-4830412D01*
X58623356Y-4652330D01*
X58697195Y-4550698D01*
X59241612Y-5095115D01*
G37*
%TD.AperFunction*%
%TA.AperFunction,Conductor*%
G36*
X5418668Y-5035115D02*
G01*
X5326784Y-4997056D01*
X5227328Y-4997056D01*
X5135442Y-5035116D01*
X5065116Y-5105442D01*
X5027056Y-5197328D01*
X5027056Y-5296784D01*
X5065115Y-5388668D01*
X4520698Y-4844251D01*
X4622330Y-4770412D01*
X4800412Y-4592330D01*
X4874251Y-4490698D01*
X5418668Y-5035115D01*
G37*
%TD.AperFunction*%
%TA.AperFunction,Conductor*%
G36*
X56462245Y-2315748D02*
G01*
X56360614Y-2389588D01*
X56182532Y-2567670D01*
X56108692Y-2669301D01*
X55564275Y-2124884D01*
X55656160Y-2162944D01*
X55755616Y-2162944D01*
X55847502Y-2124884D01*
X55917828Y-2054558D01*
X55955888Y-1962672D01*
X55955888Y-1863216D01*
X55917828Y-1771331D01*
X56462245Y-2315748D01*
G37*
%TD.AperFunction*%
%TA.AperFunction,Conductor*%
G36*
X59246369Y-66647D02*
G01*
X59262424Y-68762D01*
X59496607Y-115344D01*
X59512257Y-119538D01*
X59738352Y-196287D01*
X59753318Y-202485D01*
X59967460Y-308088D01*
X59981504Y-316196D01*
X60015950Y-339212D01*
X60180026Y-448845D01*
X60192890Y-458716D01*
X60372394Y-616136D01*
X60383863Y-627605D01*
X60541283Y-807109D01*
X60551156Y-819976D01*
X60552294Y-821679D01*
X60683803Y-1018495D01*
X60691912Y-1032541D01*
X60774359Y-1199728D01*
X60797508Y-1246668D01*
X60803715Y-1261654D01*
X60880459Y-1487735D01*
X60884657Y-1503401D01*
X60924861Y-1705519D01*
X60931235Y-1737560D01*
X60933353Y-1753642D01*
X60941542Y-1878587D01*
X60926284Y-1946771D01*
X60876585Y-1995881D01*
X60808225Y-2010326D01*
X60742907Y-1985520D01*
X60708449Y-1945150D01*
X60580373Y-1705537D01*
X60580362Y-1705519D01*
X60378392Y-1403249D01*
X60191264Y-1175233D01*
X60191263Y-1175232D01*
X59311941Y-2054553D01*
X59350000Y-1962672D01*
X59350000Y-1863216D01*
X59311940Y-1771330D01*
X59241614Y-1701004D01*
X59149728Y-1662944D01*
X59050272Y-1662944D01*
X58958386Y-1701004D01*
X58888060Y-1771330D01*
X58850000Y-1863216D01*
X58850000Y-1962672D01*
X58888060Y-2054558D01*
X58958386Y-2124884D01*
X59050272Y-2162944D01*
X59149728Y-2162944D01*
X59241609Y-2124885D01*
X58697195Y-2669300D01*
X58623356Y-2567670D01*
X58445274Y-2389588D01*
X58343642Y-2315748D01*
X59837710Y-821679D01*
X59837709Y-821678D01*
X59609694Y-634551D01*
X59307424Y-432581D01*
X59307414Y-432575D01*
X59042001Y-290708D01*
X59035411Y-284234D01*
X59026737Y-281058D01*
X59010882Y-260139D01*
X58992157Y-241745D01*
X58990112Y-232736D01*
X58984533Y-225374D01*
X58982504Y-199204D01*
X58976697Y-173608D01*
X58979847Y-164924D01*
X58979134Y-155714D01*
X58991576Y-132600D01*
X59000529Y-107928D01*
X59007873Y-102326D01*
X59012253Y-94192D01*
X59035215Y-81475D01*
X59056087Y-65559D01*
X59066917Y-63919D01*
X59073376Y-60343D01*
X59108560Y-57615D01*
X59246369Y-66647D01*
G37*
%TD.AperFunction*%
%TA.AperFunction,Conductor*%
G36*
X2639301Y-2255748D02*
G01*
X2537670Y-2329588D01*
X2359588Y-2507670D01*
X2285748Y-2609301D01*
X1741331Y-2064884D01*
X1833216Y-2102944D01*
X1932672Y-2102944D01*
X2024558Y-2064884D01*
X2094884Y-1994558D01*
X2132944Y-1902672D01*
X2132944Y-1803216D01*
X2094884Y-1711331D01*
X2639301Y-2255748D01*
G37*
%TD.AperFunction*%
%TA.AperFunction,Conductor*%
G36*
X1793755Y-77656D02*
G01*
X1848933Y-120519D01*
X1872177Y-186409D01*
X1856109Y-254406D01*
X1806809Y-302404D01*
X1675529Y-372575D01*
X1675519Y-372581D01*
X1373258Y-574545D01*
X1373254Y-574548D01*
X1145233Y-761679D01*
X1145233Y-761680D01*
X2024556Y-1641003D01*
X1932672Y-1602944D01*
X1833216Y-1602944D01*
X1741330Y-1641004D01*
X1671004Y-1711330D01*
X1632944Y-1803216D01*
X1632944Y-1902672D01*
X1671003Y-1994556D01*
X791680Y-1115233D01*
X791679Y-1115233D01*
X604548Y-1343254D01*
X604545Y-1343258D01*
X402581Y-1645519D01*
X402575Y-1645529D01*
X298416Y-1840396D01*
X291943Y-1846985D01*
X288767Y-1855659D01*
X267847Y-1871514D01*
X249453Y-1890240D01*
X240444Y-1892283D01*
X233084Y-1897863D01*
X206915Y-1899891D01*
X181316Y-1905700D01*
X172632Y-1902549D01*
X163423Y-1903263D01*
X140309Y-1890820D01*
X115636Y-1881868D01*
X110035Y-1874523D01*
X101901Y-1870145D01*
X89183Y-1847181D01*
X73267Y-1826310D01*
X71627Y-1815480D01*
X68051Y-1809022D01*
X65323Y-1773834D01*
X66647Y-1753632D01*
X68762Y-1737574D01*
X115342Y-1503401D01*
X119539Y-1487738D01*
X165747Y-1351614D01*
X196286Y-1261646D01*
X202485Y-1246680D01*
X308091Y-1032533D01*
X316191Y-1018502D01*
X448851Y-819962D01*
X458706Y-807119D01*
X616141Y-627599D01*
X627599Y-616141D01*
X807119Y-458706D01*
X819962Y-448851D01*
X1018502Y-316191D01*
X1032533Y-308091D01*
X1246680Y-202485D01*
X1261646Y-196286D01*
X1449261Y-132600D01*
X1487738Y-119539D01*
X1503405Y-115341D01*
X1724166Y-71429D01*
X1793755Y-77656D01*
G37*
%TD.AperFunction*%
%TD*%
%TA.AperFunction,Conductor*%
%TO.N,Net-(Q1-G)*%
G36*
X20336350Y-23231448D02*
G01*
X20975913Y-23377919D01*
X20983211Y-23383106D01*
X20985000Y-23389323D01*
X20985000Y-24370676D01*
X20981573Y-24378949D01*
X20975912Y-24382081D01*
X20336358Y-24528550D01*
X20327529Y-24527056D01*
X20325448Y-24525393D01*
X20171677Y-24370676D01*
X19692196Y-23888246D01*
X19688795Y-23879964D01*
X19692196Y-23871753D01*
X20325449Y-23234605D01*
X20333710Y-23231154D01*
X20336350Y-23231448D01*
G37*
%TD.AperFunction*%
%TD*%
%TA.AperFunction,Conductor*%
%TO.N,Net-(Q1-G)*%
G36*
X22703349Y-22930825D02*
G01*
X23642702Y-23866733D01*
X23646144Y-23875000D01*
X23642732Y-23883279D01*
X23642724Y-23883288D01*
X22703324Y-24824170D01*
X22695053Y-24827603D01*
X22690046Y-24826482D01*
X21751702Y-24383166D01*
X21745686Y-24376533D01*
X21745000Y-24372587D01*
X21745000Y-23387376D01*
X21748427Y-23379103D01*
X21751652Y-23376822D01*
X22690049Y-22928555D01*
X22698990Y-22928082D01*
X22703349Y-22930825D01*
G37*
%TD.AperFunction*%
%TD*%
%TA.AperFunction,Conductor*%
%TO.N,/DRAIN*%
G36*
X39164217Y-22867113D02*
G01*
X39164500Y-22867250D01*
X40153532Y-23361766D01*
X40159400Y-23368531D01*
X40160000Y-23372231D01*
X40160000Y-24357769D01*
X40156573Y-24366042D01*
X40153532Y-24368234D01*
X39164500Y-24862749D01*
X39155568Y-24863384D01*
X39155271Y-24863280D01*
X37167224Y-24140617D01*
X36439248Y-23875995D01*
X36432644Y-23869949D01*
X36432250Y-23861003D01*
X36438297Y-23854398D01*
X36439241Y-23854006D01*
X39155271Y-22866719D01*
X39164217Y-22867113D01*
G37*
%TD.AperFunction*%
%TD*%
%TA.AperFunction,Conductor*%
%TO.N,/DRAIN*%
G36*
X43164728Y-22866719D02*
G01*
X45880750Y-23854004D01*
X45887355Y-23860051D01*
X45887749Y-23868997D01*
X45881702Y-23875602D01*
X45880750Y-23875996D01*
X43164728Y-24863280D01*
X43155782Y-24862886D01*
X43155499Y-24862749D01*
X42166468Y-24368234D01*
X42160600Y-24361469D01*
X42160000Y-24357769D01*
X42160000Y-23372231D01*
X42163427Y-23363958D01*
X42166468Y-23361766D01*
X43155500Y-22867249D01*
X43164431Y-22866615D01*
X43164728Y-22866719D01*
G37*
%TD.AperFunction*%
%TD*%
%TA.AperFunction,Conductor*%
%TO.N,/DRAIN*%
G36*
X28997635Y-22925607D02*
G01*
X30626398Y-23372639D01*
X30633468Y-23378133D01*
X30635000Y-23383921D01*
X30635000Y-24366078D01*
X30631573Y-24374351D01*
X30626397Y-24377361D01*
X28997642Y-24824390D01*
X28988757Y-24823275D01*
X28983262Y-24816204D01*
X28983250Y-24816158D01*
X28729824Y-23878051D01*
X28729824Y-23871949D01*
X28861663Y-23383921D01*
X28983250Y-22933840D01*
X28988716Y-22926748D01*
X28997596Y-22925597D01*
X28997635Y-22925607D01*
G37*
%TD.AperFunction*%
%TD*%
%TA.AperFunction,Conductor*%
%TO.N,/DRAIN*%
G36*
X33664699Y-22874025D02*
G01*
X35073049Y-23382214D01*
X36380723Y-23854075D01*
X36387342Y-23860106D01*
X36387757Y-23869051D01*
X36381726Y-23875670D01*
X36380775Y-23876067D01*
X33664725Y-24870606D01*
X33655778Y-24870232D01*
X33655492Y-24870095D01*
X32666490Y-24378227D01*
X32660608Y-24371475D01*
X32660000Y-24367751D01*
X32660000Y-23382214D01*
X32663427Y-23373941D01*
X32666443Y-23371760D01*
X33655508Y-22874587D01*
X33664437Y-22873935D01*
X33664699Y-22874025D01*
G37*
%TD.AperFunction*%
%TD*%
%TA.AperFunction,Conductor*%
%TO.N,Net-(RF_IN1-In)*%
G36*
X4780064Y-19903484D02*
G01*
X4787726Y-19908119D01*
X4790000Y-19915050D01*
X4790000Y-20894949D01*
X4786573Y-20903222D01*
X4780064Y-20906515D01*
X3908519Y-21039463D01*
X3901779Y-21038486D01*
X2576527Y-20415588D01*
X2570498Y-20408968D01*
X2570916Y-20400023D01*
X2576527Y-20394411D01*
X3901782Y-19771512D01*
X3908516Y-19770536D01*
X4780064Y-19903484D01*
G37*
%TD.AperFunction*%
%TD*%
%TA.AperFunction,Conductor*%
%TO.N,+VDC*%
G36*
X44384087Y-36708427D02*
G01*
X44387180Y-36713923D01*
X44545935Y-37363583D01*
X44544570Y-37372433D01*
X44542833Y-37374642D01*
X43893264Y-38022754D01*
X43884987Y-38026172D01*
X43876736Y-38022754D01*
X43227166Y-37374642D01*
X43223730Y-37366373D01*
X43224063Y-37363588D01*
X43382820Y-36713923D01*
X43388113Y-36706699D01*
X43394186Y-36705000D01*
X44375814Y-36705000D01*
X44384087Y-36708427D01*
G37*
%TD.AperFunction*%
%TD*%
%TA.AperFunction,Conductor*%
%TO.N,+VDC*%
G36*
X36417796Y-36513671D02*
G01*
X36418494Y-36514502D01*
X37244648Y-37597554D01*
X37246940Y-37606209D01*
X37244306Y-37612172D01*
X36516760Y-38478776D01*
X36508816Y-38482909D01*
X36500276Y-38480214D01*
X36499526Y-38479526D01*
X35801447Y-37781447D01*
X35246254Y-37602976D01*
X35239427Y-37597181D01*
X35238696Y-37588256D01*
X35241896Y-37583243D01*
X36401264Y-36513009D01*
X36409666Y-36509916D01*
X36417796Y-36513671D01*
G37*
%TD.AperFunction*%
%TD*%
%TA.AperFunction,Conductor*%
%TO.N,+VDC*%
G36*
X45447196Y-36009147D02*
G01*
X47211280Y-36501977D01*
X47218325Y-36507504D01*
X47219518Y-36515933D01*
X47034463Y-37300276D01*
X47029228Y-37307541D01*
X47029218Y-37307547D01*
X46240192Y-37794227D01*
X46231352Y-37795654D01*
X46225808Y-37792573D01*
X45435807Y-37008432D01*
X45432349Y-37000172D01*
X45432349Y-36020417D01*
X45435776Y-36012144D01*
X45444049Y-36008717D01*
X45447196Y-36009147D01*
G37*
%TD.AperFunction*%
%TD*%
%TA.AperFunction,Conductor*%
%TO.N,+VDC*%
G36*
X37920244Y-35506568D02*
G01*
X39580513Y-36002505D01*
X39587459Y-36008157D01*
X39588864Y-36013716D01*
X39588864Y-36996283D01*
X39585437Y-37004556D01*
X39580513Y-37007494D01*
X37920247Y-37503430D01*
X37911339Y-37502514D01*
X37910426Y-37501966D01*
X37074618Y-36946979D01*
X36423677Y-36514745D01*
X36418681Y-36507316D01*
X36420403Y-36498528D01*
X36423676Y-36495254D01*
X37910426Y-35508032D01*
X37919214Y-35506311D01*
X37920244Y-35506568D01*
G37*
%TD.AperFunction*%
%TD*%
%TA.AperFunction,Conductor*%
%TO.N,+VDC*%
G36*
X45447196Y-36009147D02*
G01*
X47211280Y-36501977D01*
X47218325Y-36507504D01*
X47219518Y-36515933D01*
X47034463Y-37300276D01*
X47029228Y-37307541D01*
X47029218Y-37307547D01*
X46240192Y-37794227D01*
X46231352Y-37795654D01*
X46225808Y-37792573D01*
X45435807Y-37008432D01*
X45432349Y-37000172D01*
X45432349Y-36020417D01*
X45435776Y-36012144D01*
X45444049Y-36008717D01*
X45447196Y-36009147D01*
G37*
%TD.AperFunction*%
%TD*%
%TA.AperFunction,Conductor*%
%TO.N,4.5V*%
G36*
X12737565Y-18830931D02*
G01*
X13341470Y-19050267D01*
X13530721Y-19119003D01*
X13537327Y-19125048D01*
X13537724Y-19133994D01*
X13531679Y-19140600D01*
X13530721Y-19140997D01*
X12737568Y-19429067D01*
X12732282Y-19429698D01*
X12295408Y-19381156D01*
X12287564Y-19376837D01*
X12285000Y-19369528D01*
X12285000Y-18890471D01*
X12288427Y-18882198D01*
X12295406Y-18878843D01*
X12732286Y-18830301D01*
X12737565Y-18830931D01*
G37*
%TD.AperFunction*%
%TD*%
%TA.AperFunction,Conductor*%
%TO.N,4.5V*%
G36*
X9874593Y-21418843D02*
G01*
X9882436Y-21423162D01*
X9885000Y-21430471D01*
X9885000Y-21909528D01*
X9881573Y-21917801D01*
X9874592Y-21921156D01*
X9437717Y-21969698D01*
X9432431Y-21969067D01*
X8639278Y-21680997D01*
X8632672Y-21674952D01*
X8632275Y-21666006D01*
X8638320Y-21659400D01*
X8639278Y-21659003D01*
X9432435Y-21370931D01*
X9437713Y-21370301D01*
X9874593Y-21418843D01*
G37*
%TD.AperFunction*%
%TD*%
%TA.AperFunction,Conductor*%
%TO.N,4.5V*%
G36*
X11095138Y-17008059D02*
G01*
X11096363Y-17009284D01*
X11725964Y-17739862D01*
X11728769Y-17748366D01*
X11727642Y-17752578D01*
X11340690Y-18555878D01*
X11334012Y-18561844D01*
X11330149Y-18562500D01*
X10844851Y-18562500D01*
X10836578Y-18559073D01*
X10834310Y-18555878D01*
X10447357Y-17752578D01*
X10446854Y-17743637D01*
X10449032Y-17739865D01*
X11078637Y-17009283D01*
X11086634Y-17005254D01*
X11095138Y-17008059D01*
G37*
%TD.AperFunction*%
%TD*%
%TA.AperFunction,Conductor*%
%TO.N,4.5V*%
G36*
X20215931Y-26935387D02*
G01*
X21301464Y-27921339D01*
X21305285Y-27929438D01*
X21302259Y-27937866D01*
X21301464Y-27938661D01*
X20215931Y-28924612D01*
X20207503Y-28927638D01*
X20202833Y-28926416D01*
X19216468Y-28433234D01*
X19210600Y-28426469D01*
X19210000Y-28422769D01*
X19210000Y-27437231D01*
X19213427Y-27428958D01*
X19216468Y-27426766D01*
X20202834Y-26933582D01*
X20211765Y-26932948D01*
X20215931Y-26935387D01*
G37*
%TD.AperFunction*%
%TD*%
%TA.AperFunction,Conductor*%
%TO.N,4.5V*%
G36*
X9874593Y-18878843D02*
G01*
X9882436Y-18883162D01*
X9885000Y-18890471D01*
X9885000Y-19369528D01*
X9881573Y-19377801D01*
X9874592Y-19381156D01*
X9437717Y-19429698D01*
X9432431Y-19429067D01*
X8639278Y-19140997D01*
X8632672Y-19134952D01*
X8632275Y-19126006D01*
X8638320Y-19119400D01*
X8639278Y-19119003D01*
X9432435Y-18830931D01*
X9437713Y-18830301D01*
X9874593Y-18878843D01*
G37*
%TD.AperFunction*%
%TD*%
%TA.AperFunction,Conductor*%
%TO.N,4.5V*%
G36*
X11635972Y-23790927D02*
G01*
X11639218Y-23797149D01*
X11798918Y-24693927D01*
X11796994Y-24702673D01*
X11795599Y-24704323D01*
X11145700Y-25342942D01*
X11137398Y-25346297D01*
X11129300Y-25342942D01*
X10479400Y-24704323D01*
X10475900Y-24696080D01*
X10476081Y-24693927D01*
X10635782Y-23797149D01*
X10640606Y-23789605D01*
X10647301Y-23787500D01*
X11627699Y-23787500D01*
X11635972Y-23790927D01*
G37*
%TD.AperFunction*%
%TD*%
%TA.AperFunction,Conductor*%
%TO.N,4.5V*%
G36*
X11145698Y-25357056D02*
G01*
X11484794Y-25690266D01*
X11795599Y-25995676D01*
X11799099Y-26003919D01*
X11798918Y-26006072D01*
X11639218Y-26902851D01*
X11634394Y-26910395D01*
X11627699Y-26912500D01*
X10647301Y-26912500D01*
X10639028Y-26909073D01*
X10635782Y-26902851D01*
X10476081Y-26006072D01*
X10478005Y-25997326D01*
X10479400Y-25995676D01*
X11129301Y-25357056D01*
X11137602Y-25353702D01*
X11145698Y-25357056D01*
G37*
%TD.AperFunction*%
%TD*%
%TA.AperFunction,Conductor*%
%TO.N,Net-(D1-A)*%
G36*
X23854387Y-27930817D02*
G01*
X24837217Y-28338051D01*
X24843547Y-28344383D01*
X24843921Y-28352295D01*
X24337539Y-30000600D01*
X24331834Y-30007502D01*
X24326355Y-30008864D01*
X23343787Y-30008864D01*
X23335514Y-30005437D01*
X23332551Y-30000426D01*
X22850058Y-28338189D01*
X22851043Y-28329288D01*
X22856968Y-28324056D01*
X23845586Y-27930756D01*
X23854387Y-27930817D01*
G37*
%TD.AperFunction*%
%TD*%
%TA.AperFunction,Conductor*%
%TO.N,Net-(D1-A)*%
G36*
X26862465Y-32382789D02*
G01*
X26864770Y-32384545D01*
X27515161Y-33021829D01*
X27518671Y-33030067D01*
X27515347Y-33038356D01*
X26869542Y-33700354D01*
X26861312Y-33703883D01*
X26858601Y-33703599D01*
X26206634Y-33557053D01*
X26199314Y-33551895D01*
X26197500Y-33545638D01*
X26197500Y-32564009D01*
X26200927Y-32555736D01*
X26206207Y-32552698D01*
X26853592Y-32381590D01*
X26862465Y-32382789D01*
G37*
%TD.AperFunction*%
%TD*%
%TA.AperFunction,Conductor*%
%TO.N,Net-(D1-A)*%
G36*
X24840146Y-28330992D02*
G01*
X24846523Y-28337280D01*
X24846956Y-28345182D01*
X24352495Y-30000513D01*
X24346843Y-30007459D01*
X24341284Y-30008864D01*
X23358716Y-30008864D01*
X23350443Y-30005437D01*
X23347505Y-30000513D01*
X22853043Y-28345180D01*
X22853959Y-28336274D01*
X22859851Y-28330993D01*
X23845601Y-27930786D01*
X23854399Y-27930786D01*
X24840146Y-28330992D01*
G37*
%TD.AperFunction*%
%TD*%
%TA.AperFunction,Conductor*%
%TO.N,Net-(R4-Pad1)*%
G36*
X17083362Y-22358427D02*
G01*
X17086630Y-22364777D01*
X17233987Y-23248923D01*
X17231967Y-23257646D01*
X17230562Y-23259273D01*
X16593116Y-23873183D01*
X16584780Y-23876454D01*
X16576884Y-23873183D01*
X15939437Y-23259273D01*
X15935855Y-23251066D01*
X15936011Y-23248931D01*
X16083370Y-22364775D01*
X16088111Y-22357179D01*
X16094911Y-22355000D01*
X17075089Y-22355000D01*
X17083362Y-22358427D01*
G37*
%TD.AperFunction*%
%TD*%
M02*
