%TF.GenerationSoftware,KiCad,Pcbnew,8.99.0-unknown-8ec1016ccf~178~ubuntu22.04.1*%
%TF.CreationDate,2024-05-09T20:44:09+05:30*%
%TF.ProjectId,HF-PA-v10,48462d50-412d-4763-9130-2e6b69636164,rev?*%
%TF.SameCoordinates,Original*%
%TF.FileFunction,Legend,Top*%
%TF.FilePolarity,Positive*%
%FSLAX46Y46*%
G04 Gerber Fmt 4.6, Leading zero omitted, Abs format (unit mm)*
G04 Created by KiCad (PCBNEW 8.99.0-unknown-8ec1016ccf~178~ubuntu22.04.1) date 2024-05-09 20:44:09*
%MOMM*%
%LPD*%
G01*
G04 APERTURE LIST*
G04 Aperture macros list*
%AMRoundRect*
0 Rectangle with rounded corners*
0 $1 Rounding radius*
0 $2 $3 $4 $5 $6 $7 $8 $9 X,Y pos of 4 corners*
0 Add a 4 corners polygon primitive as box body*
4,1,4,$2,$3,$4,$5,$6,$7,$8,$9,$2,$3,0*
0 Add four circle primitives for the rounded corners*
1,1,$1+$1,$2,$3*
1,1,$1+$1,$4,$5*
1,1,$1+$1,$6,$7*
1,1,$1+$1,$8,$9*
0 Add four rect primitives between the rounded corners*
20,1,$1+$1,$2,$3,$4,$5,0*
20,1,$1+$1,$4,$5,$6,$7,0*
20,1,$1+$1,$6,$7,$8,$9,0*
20,1,$1+$1,$8,$9,$2,$3,0*%
G04 Aperture macros list end*
%ADD10C,0.150000*%
%ADD11C,0.300000*%
%ADD12C,0.120000*%
%ADD13C,0.127000*%
%ADD14C,0.200000*%
%ADD15C,0.800000*%
%ADD16C,6.400000*%
%ADD17R,3.600000X1.270000*%
%ADD18R,4.200000X1.350000*%
%ADD19RoundRect,0.250000X-0.412500X-0.650000X0.412500X-0.650000X0.412500X0.650000X-0.412500X0.650000X0*%
%ADD20O,4.400000X2.200000*%
%ADD21O,4.000000X2.000000*%
%ADD22O,2.000000X4.000000*%
%ADD23RoundRect,0.250000X0.650000X-0.412500X0.650000X0.412500X-0.650000X0.412500X-0.650000X-0.412500X0*%
%ADD24O,3.500000X3.500000*%
%ADD25R,2.000000X1.905000*%
%ADD26O,2.000000X1.905000*%
%ADD27R,1.270000X3.600000*%
%ADD28R,1.350000X4.200000*%
%ADD29O,3.600000X3.600000*%
%ADD30R,4.500000X2.500000*%
%ADD31O,4.500000X2.500000*%
%ADD32RoundRect,0.250000X0.412500X0.650000X-0.412500X0.650000X-0.412500X-0.650000X0.412500X-0.650000X0*%
%ADD33R,2.200000X2.200000*%
%ADD34O,2.200000X2.200000*%
%ADD35RoundRect,0.162500X-0.837500X-0.162500X0.837500X-0.162500X0.837500X0.162500X-0.837500X0.162500X0*%
%ADD36R,1.600000X1.600000*%
%ADD37C,1.600000*%
%ADD38R,5.500000X2.150000*%
%ADD39RoundRect,0.250000X-0.650000X0.412500X-0.650000X-0.412500X0.650000X-0.412500X0.650000X0.412500X0*%
%ADD40RoundRect,0.250000X-0.625000X0.400000X-0.625000X-0.400000X0.625000X-0.400000X0.625000X0.400000X0*%
G04 APERTURE END LIST*
D10*
X152971541Y-107649819D02*
X153638207Y-107649819D01*
X153638207Y-107649819D02*
X153209636Y-108649819D01*
X154162017Y-108078390D02*
X154066779Y-108030771D01*
X154066779Y-108030771D02*
X154019160Y-107983152D01*
X154019160Y-107983152D02*
X153971541Y-107887914D01*
X153971541Y-107887914D02*
X153971541Y-107840295D01*
X153971541Y-107840295D02*
X154019160Y-107745057D01*
X154019160Y-107745057D02*
X154066779Y-107697438D01*
X154066779Y-107697438D02*
X154162017Y-107649819D01*
X154162017Y-107649819D02*
X154352493Y-107649819D01*
X154352493Y-107649819D02*
X154447731Y-107697438D01*
X154447731Y-107697438D02*
X154495350Y-107745057D01*
X154495350Y-107745057D02*
X154542969Y-107840295D01*
X154542969Y-107840295D02*
X154542969Y-107887914D01*
X154542969Y-107887914D02*
X154495350Y-107983152D01*
X154495350Y-107983152D02*
X154447731Y-108030771D01*
X154447731Y-108030771D02*
X154352493Y-108078390D01*
X154352493Y-108078390D02*
X154162017Y-108078390D01*
X154162017Y-108078390D02*
X154066779Y-108126009D01*
X154066779Y-108126009D02*
X154019160Y-108173628D01*
X154019160Y-108173628D02*
X153971541Y-108268866D01*
X153971541Y-108268866D02*
X153971541Y-108459342D01*
X153971541Y-108459342D02*
X154019160Y-108554580D01*
X154019160Y-108554580D02*
X154066779Y-108602200D01*
X154066779Y-108602200D02*
X154162017Y-108649819D01*
X154162017Y-108649819D02*
X154352493Y-108649819D01*
X154352493Y-108649819D02*
X154447731Y-108602200D01*
X154447731Y-108602200D02*
X154495350Y-108554580D01*
X154495350Y-108554580D02*
X154542969Y-108459342D01*
X154542969Y-108459342D02*
X154542969Y-108268866D01*
X154542969Y-108268866D02*
X154495350Y-108173628D01*
X154495350Y-108173628D02*
X154447731Y-108126009D01*
X154447731Y-108126009D02*
X154352493Y-108078390D01*
X155495350Y-108649819D02*
X154923922Y-108649819D01*
X155209636Y-108649819D02*
X155209636Y-107649819D01*
X155209636Y-107649819D02*
X155114398Y-107792676D01*
X155114398Y-107792676D02*
X155019160Y-107887914D01*
X155019160Y-107887914D02*
X154923922Y-107935533D01*
X155876303Y-107745057D02*
X155923922Y-107697438D01*
X155923922Y-107697438D02*
X156019160Y-107649819D01*
X156019160Y-107649819D02*
X156257255Y-107649819D01*
X156257255Y-107649819D02*
X156352493Y-107697438D01*
X156352493Y-107697438D02*
X156400112Y-107745057D01*
X156400112Y-107745057D02*
X156447731Y-107840295D01*
X156447731Y-107840295D02*
X156447731Y-107935533D01*
X156447731Y-107935533D02*
X156400112Y-108078390D01*
X156400112Y-108078390D02*
X155828684Y-108649819D01*
X155828684Y-108649819D02*
X156447731Y-108649819D01*
D11*
X187854510Y-70079400D02*
X188997368Y-70079400D01*
X188425939Y-70650828D02*
X188425939Y-69507971D01*
D10*
X199592969Y-90049819D02*
X199116779Y-90049819D01*
X199116779Y-90049819D02*
X199116779Y-89049819D01*
X199926303Y-90049819D02*
X199926303Y-89049819D01*
X199926303Y-89049819D02*
X200307255Y-89049819D01*
X200307255Y-89049819D02*
X200402493Y-89097438D01*
X200402493Y-89097438D02*
X200450112Y-89145057D01*
X200450112Y-89145057D02*
X200497731Y-89240295D01*
X200497731Y-89240295D02*
X200497731Y-89383152D01*
X200497731Y-89383152D02*
X200450112Y-89478390D01*
X200450112Y-89478390D02*
X200402493Y-89526009D01*
X200402493Y-89526009D02*
X200307255Y-89573628D01*
X200307255Y-89573628D02*
X199926303Y-89573628D01*
X201259636Y-89526009D02*
X200926303Y-89526009D01*
X200926303Y-90049819D02*
X200926303Y-89049819D01*
X200926303Y-89049819D02*
X201402493Y-89049819D01*
X202545351Y-89668866D02*
X203307256Y-89668866D01*
X202926303Y-90049819D02*
X202926303Y-89287914D01*
X204497732Y-89764104D02*
X204973922Y-89764104D01*
X204402494Y-90049819D02*
X204735827Y-89049819D01*
X204735827Y-89049819D02*
X205069160Y-90049819D01*
X205402494Y-90049819D02*
X205402494Y-89049819D01*
X205402494Y-89049819D02*
X205973922Y-90049819D01*
X205973922Y-90049819D02*
X205973922Y-89049819D01*
X206307256Y-89049819D02*
X206878684Y-89049819D01*
X206592970Y-90049819D02*
X206592970Y-89049819D01*
X180083922Y-107669819D02*
X180655350Y-107669819D01*
X180369636Y-108669819D02*
X180369636Y-107669819D01*
X180845827Y-107669819D02*
X181417255Y-107669819D01*
X181131541Y-108669819D02*
X181131541Y-107669819D01*
X182226779Y-108669819D02*
X181750589Y-108669819D01*
X181750589Y-108669819D02*
X181750589Y-107669819D01*
X183322018Y-108669819D02*
X183322018Y-108003152D01*
X183322018Y-107669819D02*
X183274399Y-107717438D01*
X183274399Y-107717438D02*
X183322018Y-107765057D01*
X183322018Y-107765057D02*
X183369637Y-107717438D01*
X183369637Y-107717438D02*
X183322018Y-107669819D01*
X183322018Y-107669819D02*
X183322018Y-107765057D01*
X183798208Y-108003152D02*
X183798208Y-108669819D01*
X183798208Y-108098390D02*
X183845827Y-108050771D01*
X183845827Y-108050771D02*
X183941065Y-108003152D01*
X183941065Y-108003152D02*
X184083922Y-108003152D01*
X184083922Y-108003152D02*
X184179160Y-108050771D01*
X184179160Y-108050771D02*
X184226779Y-108146009D01*
X184226779Y-108146009D02*
X184226779Y-108669819D01*
X184702970Y-108003152D02*
X184702970Y-109003152D01*
X184702970Y-108050771D02*
X184798208Y-108003152D01*
X184798208Y-108003152D02*
X184988684Y-108003152D01*
X184988684Y-108003152D02*
X185083922Y-108050771D01*
X185083922Y-108050771D02*
X185131541Y-108098390D01*
X185131541Y-108098390D02*
X185179160Y-108193628D01*
X185179160Y-108193628D02*
X185179160Y-108479342D01*
X185179160Y-108479342D02*
X185131541Y-108574580D01*
X185131541Y-108574580D02*
X185083922Y-108622200D01*
X185083922Y-108622200D02*
X184988684Y-108669819D01*
X184988684Y-108669819D02*
X184798208Y-108669819D01*
X184798208Y-108669819D02*
X184702970Y-108622200D01*
X186036303Y-108003152D02*
X186036303Y-108669819D01*
X185607732Y-108003152D02*
X185607732Y-108526961D01*
X185607732Y-108526961D02*
X185655351Y-108622200D01*
X185655351Y-108622200D02*
X185750589Y-108669819D01*
X185750589Y-108669819D02*
X185893446Y-108669819D01*
X185893446Y-108669819D02*
X185988684Y-108622200D01*
X185988684Y-108622200D02*
X186036303Y-108574580D01*
X186369637Y-108003152D02*
X186750589Y-108003152D01*
X186512494Y-107669819D02*
X186512494Y-108526961D01*
X186512494Y-108526961D02*
X186560113Y-108622200D01*
X186560113Y-108622200D02*
X186655351Y-108669819D01*
X186655351Y-108669819D02*
X186750589Y-108669819D01*
X187083923Y-108574580D02*
X187131542Y-108622200D01*
X187131542Y-108622200D02*
X187083923Y-108669819D01*
X187083923Y-108669819D02*
X187036304Y-108622200D01*
X187036304Y-108622200D02*
X187083923Y-108574580D01*
X187083923Y-108574580D02*
X187083923Y-108669819D01*
X187083923Y-108288866D02*
X187036304Y-107717438D01*
X187036304Y-107717438D02*
X187083923Y-107669819D01*
X187083923Y-107669819D02*
X187131542Y-107717438D01*
X187131542Y-107717438D02*
X187083923Y-108288866D01*
X187083923Y-108288866D02*
X187083923Y-107669819D01*
X186576779Y-104879819D02*
X186576779Y-103879819D01*
X186576779Y-103879819D02*
X186814874Y-103879819D01*
X186814874Y-103879819D02*
X186957731Y-103927438D01*
X186957731Y-103927438D02*
X187052969Y-104022676D01*
X187052969Y-104022676D02*
X187100588Y-104117914D01*
X187100588Y-104117914D02*
X187148207Y-104308390D01*
X187148207Y-104308390D02*
X187148207Y-104451247D01*
X187148207Y-104451247D02*
X187100588Y-104641723D01*
X187100588Y-104641723D02*
X187052969Y-104736961D01*
X187052969Y-104736961D02*
X186957731Y-104832200D01*
X186957731Y-104832200D02*
X186814874Y-104879819D01*
X186814874Y-104879819D02*
X186576779Y-104879819D01*
X187576779Y-104879819D02*
X187576779Y-103879819D01*
X188005350Y-104879819D02*
X188005350Y-104356009D01*
X188005350Y-104356009D02*
X187957731Y-104260771D01*
X187957731Y-104260771D02*
X187862493Y-104213152D01*
X187862493Y-104213152D02*
X187719636Y-104213152D01*
X187719636Y-104213152D02*
X187624398Y-104260771D01*
X187624398Y-104260771D02*
X187576779Y-104308390D01*
X188481541Y-104879819D02*
X188481541Y-104213152D01*
X188481541Y-103879819D02*
X188433922Y-103927438D01*
X188433922Y-103927438D02*
X188481541Y-103975057D01*
X188481541Y-103975057D02*
X188529160Y-103927438D01*
X188529160Y-103927438D02*
X188481541Y-103879819D01*
X188481541Y-103879819D02*
X188481541Y-103975057D01*
X188957731Y-104879819D02*
X188957731Y-104213152D01*
X188957731Y-104403628D02*
X189005350Y-104308390D01*
X189005350Y-104308390D02*
X189052969Y-104260771D01*
X189052969Y-104260771D02*
X189148207Y-104213152D01*
X189148207Y-104213152D02*
X189243445Y-104213152D01*
X190005350Y-104213152D02*
X190005350Y-104879819D01*
X189576779Y-104213152D02*
X189576779Y-104736961D01*
X189576779Y-104736961D02*
X189624398Y-104832200D01*
X189624398Y-104832200D02*
X189719636Y-104879819D01*
X189719636Y-104879819D02*
X189862493Y-104879819D01*
X189862493Y-104879819D02*
X189957731Y-104832200D01*
X189957731Y-104832200D02*
X190005350Y-104784580D01*
X191243446Y-104498866D02*
X192005351Y-104498866D01*
X191624398Y-104879819D02*
X191624398Y-104117914D01*
X193814874Y-104879819D02*
X193481541Y-104403628D01*
X193243446Y-104879819D02*
X193243446Y-103879819D01*
X193243446Y-103879819D02*
X193624398Y-103879819D01*
X193624398Y-103879819D02*
X193719636Y-103927438D01*
X193719636Y-103927438D02*
X193767255Y-103975057D01*
X193767255Y-103975057D02*
X193814874Y-104070295D01*
X193814874Y-104070295D02*
X193814874Y-104213152D01*
X193814874Y-104213152D02*
X193767255Y-104308390D01*
X193767255Y-104308390D02*
X193719636Y-104356009D01*
X193719636Y-104356009D02*
X193624398Y-104403628D01*
X193624398Y-104403628D02*
X193243446Y-104403628D01*
X194672017Y-104879819D02*
X194672017Y-104356009D01*
X194672017Y-104356009D02*
X194624398Y-104260771D01*
X194624398Y-104260771D02*
X194529160Y-104213152D01*
X194529160Y-104213152D02*
X194338684Y-104213152D01*
X194338684Y-104213152D02*
X194243446Y-104260771D01*
X194672017Y-104832200D02*
X194576779Y-104879819D01*
X194576779Y-104879819D02*
X194338684Y-104879819D01*
X194338684Y-104879819D02*
X194243446Y-104832200D01*
X194243446Y-104832200D02*
X194195827Y-104736961D01*
X194195827Y-104736961D02*
X194195827Y-104641723D01*
X194195827Y-104641723D02*
X194243446Y-104546485D01*
X194243446Y-104546485D02*
X194338684Y-104498866D01*
X194338684Y-104498866D02*
X194576779Y-104498866D01*
X194576779Y-104498866D02*
X194672017Y-104451247D01*
X195005351Y-104213152D02*
X195386303Y-104213152D01*
X195148208Y-104879819D02*
X195148208Y-104022676D01*
X195148208Y-104022676D02*
X195195827Y-103927438D01*
X195195827Y-103927438D02*
X195291065Y-103879819D01*
X195291065Y-103879819D02*
X195386303Y-103879819D01*
X196148208Y-104879819D02*
X196148208Y-104356009D01*
X196148208Y-104356009D02*
X196100589Y-104260771D01*
X196100589Y-104260771D02*
X196005351Y-104213152D01*
X196005351Y-104213152D02*
X195814875Y-104213152D01*
X195814875Y-104213152D02*
X195719637Y-104260771D01*
X196148208Y-104832200D02*
X196052970Y-104879819D01*
X196052970Y-104879819D02*
X195814875Y-104879819D01*
X195814875Y-104879819D02*
X195719637Y-104832200D01*
X195719637Y-104832200D02*
X195672018Y-104736961D01*
X195672018Y-104736961D02*
X195672018Y-104641723D01*
X195672018Y-104641723D02*
X195719637Y-104546485D01*
X195719637Y-104546485D02*
X195814875Y-104498866D01*
X195814875Y-104498866D02*
X196052970Y-104498866D01*
X196052970Y-104498866D02*
X196148208Y-104451247D01*
X196767256Y-104879819D02*
X196672018Y-104832200D01*
X196672018Y-104832200D02*
X196624399Y-104736961D01*
X196624399Y-104736961D02*
X196624399Y-103879819D01*
X196481542Y-104403628D02*
X196767256Y-104213152D01*
X156436779Y-70959819D02*
X156436779Y-69959819D01*
X157484397Y-70959819D02*
X157151064Y-70483628D01*
X156912969Y-70959819D02*
X156912969Y-69959819D01*
X156912969Y-69959819D02*
X157293921Y-69959819D01*
X157293921Y-69959819D02*
X157389159Y-70007438D01*
X157389159Y-70007438D02*
X157436778Y-70055057D01*
X157436778Y-70055057D02*
X157484397Y-70150295D01*
X157484397Y-70150295D02*
X157484397Y-70293152D01*
X157484397Y-70293152D02*
X157436778Y-70388390D01*
X157436778Y-70388390D02*
X157389159Y-70436009D01*
X157389159Y-70436009D02*
X157293921Y-70483628D01*
X157293921Y-70483628D02*
X156912969Y-70483628D01*
X158246302Y-70436009D02*
X157912969Y-70436009D01*
X157912969Y-70959819D02*
X157912969Y-69959819D01*
X157912969Y-69959819D02*
X158389159Y-69959819D01*
X159246302Y-69959819D02*
X158770112Y-69959819D01*
X158770112Y-69959819D02*
X158722493Y-70436009D01*
X158722493Y-70436009D02*
X158770112Y-70388390D01*
X158770112Y-70388390D02*
X158865350Y-70340771D01*
X158865350Y-70340771D02*
X159103445Y-70340771D01*
X159103445Y-70340771D02*
X159198683Y-70388390D01*
X159198683Y-70388390D02*
X159246302Y-70436009D01*
X159246302Y-70436009D02*
X159293921Y-70531247D01*
X159293921Y-70531247D02*
X159293921Y-70769342D01*
X159293921Y-70769342D02*
X159246302Y-70864580D01*
X159246302Y-70864580D02*
X159198683Y-70912200D01*
X159198683Y-70912200D02*
X159103445Y-70959819D01*
X159103445Y-70959819D02*
X158865350Y-70959819D01*
X158865350Y-70959819D02*
X158770112Y-70912200D01*
X158770112Y-70912200D02*
X158722493Y-70864580D01*
X160246302Y-70959819D02*
X159674874Y-70959819D01*
X159960588Y-70959819D02*
X159960588Y-69959819D01*
X159960588Y-69959819D02*
X159865350Y-70102676D01*
X159865350Y-70102676D02*
X159770112Y-70197914D01*
X159770112Y-70197914D02*
X159674874Y-70245533D01*
X160865350Y-69959819D02*
X160960588Y-69959819D01*
X160960588Y-69959819D02*
X161055826Y-70007438D01*
X161055826Y-70007438D02*
X161103445Y-70055057D01*
X161103445Y-70055057D02*
X161151064Y-70150295D01*
X161151064Y-70150295D02*
X161198683Y-70340771D01*
X161198683Y-70340771D02*
X161198683Y-70578866D01*
X161198683Y-70578866D02*
X161151064Y-70769342D01*
X161151064Y-70769342D02*
X161103445Y-70864580D01*
X161103445Y-70864580D02*
X161055826Y-70912200D01*
X161055826Y-70912200D02*
X160960588Y-70959819D01*
X160960588Y-70959819D02*
X160865350Y-70959819D01*
X160865350Y-70959819D02*
X160770112Y-70912200D01*
X160770112Y-70912200D02*
X160722493Y-70864580D01*
X160722493Y-70864580D02*
X160674874Y-70769342D01*
X160674874Y-70769342D02*
X160627255Y-70578866D01*
X160627255Y-70578866D02*
X160627255Y-70340771D01*
X160627255Y-70340771D02*
X160674874Y-70150295D01*
X160674874Y-70150295D02*
X160722493Y-70055057D01*
X160722493Y-70055057D02*
X160770112Y-70007438D01*
X160770112Y-70007438D02*
X160865350Y-69959819D01*
X182439160Y-102892256D02*
X182582017Y-102939875D01*
X182582017Y-102939875D02*
X182820112Y-102939875D01*
X182820112Y-102939875D02*
X182915350Y-102892256D01*
X182915350Y-102892256D02*
X182962969Y-102844636D01*
X182962969Y-102844636D02*
X183010588Y-102749398D01*
X183010588Y-102749398D02*
X183010588Y-102654160D01*
X183010588Y-102654160D02*
X182962969Y-102558922D01*
X182962969Y-102558922D02*
X182915350Y-102511303D01*
X182915350Y-102511303D02*
X182820112Y-102463684D01*
X182820112Y-102463684D02*
X182629636Y-102416065D01*
X182629636Y-102416065D02*
X182534398Y-102368446D01*
X182534398Y-102368446D02*
X182486779Y-102320827D01*
X182486779Y-102320827D02*
X182439160Y-102225589D01*
X182439160Y-102225589D02*
X182439160Y-102130351D01*
X182439160Y-102130351D02*
X182486779Y-102035113D01*
X182486779Y-102035113D02*
X182534398Y-101987494D01*
X182534398Y-101987494D02*
X182629636Y-101939875D01*
X182629636Y-101939875D02*
X182867731Y-101939875D01*
X182867731Y-101939875D02*
X183010588Y-101987494D01*
X183343922Y-102273208D02*
X183534398Y-102939875D01*
X183534398Y-102939875D02*
X183724874Y-102463684D01*
X183724874Y-102463684D02*
X183915350Y-102939875D01*
X183915350Y-102939875D02*
X184105826Y-102273208D01*
X184486779Y-102939875D02*
X184486779Y-102273208D01*
X184486779Y-101939875D02*
X184439160Y-101987494D01*
X184439160Y-101987494D02*
X184486779Y-102035113D01*
X184486779Y-102035113D02*
X184534398Y-101987494D01*
X184534398Y-101987494D02*
X184486779Y-101939875D01*
X184486779Y-101939875D02*
X184486779Y-102035113D01*
X184820112Y-102273208D02*
X185201064Y-102273208D01*
X184962969Y-101939875D02*
X184962969Y-102797017D01*
X184962969Y-102797017D02*
X185010588Y-102892256D01*
X185010588Y-102892256D02*
X185105826Y-102939875D01*
X185105826Y-102939875D02*
X185201064Y-102939875D01*
X185962969Y-102892256D02*
X185867731Y-102939875D01*
X185867731Y-102939875D02*
X185677255Y-102939875D01*
X185677255Y-102939875D02*
X185582017Y-102892256D01*
X185582017Y-102892256D02*
X185534398Y-102844636D01*
X185534398Y-102844636D02*
X185486779Y-102749398D01*
X185486779Y-102749398D02*
X185486779Y-102463684D01*
X185486779Y-102463684D02*
X185534398Y-102368446D01*
X185534398Y-102368446D02*
X185582017Y-102320827D01*
X185582017Y-102320827D02*
X185677255Y-102273208D01*
X185677255Y-102273208D02*
X185867731Y-102273208D01*
X185867731Y-102273208D02*
X185962969Y-102320827D01*
X186391541Y-102939875D02*
X186391541Y-101939875D01*
X186820112Y-102939875D02*
X186820112Y-102416065D01*
X186820112Y-102416065D02*
X186772493Y-102320827D01*
X186772493Y-102320827D02*
X186677255Y-102273208D01*
X186677255Y-102273208D02*
X186534398Y-102273208D01*
X186534398Y-102273208D02*
X186439160Y-102320827D01*
X186439160Y-102320827D02*
X186391541Y-102368446D01*
X187296303Y-102939875D02*
X187296303Y-102273208D01*
X187296303Y-102368446D02*
X187343922Y-102320827D01*
X187343922Y-102320827D02*
X187439160Y-102273208D01*
X187439160Y-102273208D02*
X187582017Y-102273208D01*
X187582017Y-102273208D02*
X187677255Y-102320827D01*
X187677255Y-102320827D02*
X187724874Y-102416065D01*
X187724874Y-102416065D02*
X187724874Y-102939875D01*
X187724874Y-102416065D02*
X187772493Y-102320827D01*
X187772493Y-102320827D02*
X187867731Y-102273208D01*
X187867731Y-102273208D02*
X188010588Y-102273208D01*
X188010588Y-102273208D02*
X188105827Y-102320827D01*
X188105827Y-102320827D02*
X188153446Y-102416065D01*
X188153446Y-102416065D02*
X188153446Y-102939875D01*
X188772493Y-102939875D02*
X188677255Y-102892256D01*
X188677255Y-102892256D02*
X188629636Y-102844636D01*
X188629636Y-102844636D02*
X188582017Y-102749398D01*
X188582017Y-102749398D02*
X188582017Y-102463684D01*
X188582017Y-102463684D02*
X188629636Y-102368446D01*
X188629636Y-102368446D02*
X188677255Y-102320827D01*
X188677255Y-102320827D02*
X188772493Y-102273208D01*
X188772493Y-102273208D02*
X188915350Y-102273208D01*
X188915350Y-102273208D02*
X189010588Y-102320827D01*
X189010588Y-102320827D02*
X189058207Y-102368446D01*
X189058207Y-102368446D02*
X189105826Y-102463684D01*
X189105826Y-102463684D02*
X189105826Y-102749398D01*
X189105826Y-102749398D02*
X189058207Y-102844636D01*
X189058207Y-102844636D02*
X189010588Y-102892256D01*
X189010588Y-102892256D02*
X188915350Y-102939875D01*
X188915350Y-102939875D02*
X188772493Y-102939875D01*
X189962969Y-102939875D02*
X189962969Y-101939875D01*
X189962969Y-102892256D02*
X189867731Y-102939875D01*
X189867731Y-102939875D02*
X189677255Y-102939875D01*
X189677255Y-102939875D02*
X189582017Y-102892256D01*
X189582017Y-102892256D02*
X189534398Y-102844636D01*
X189534398Y-102844636D02*
X189486779Y-102749398D01*
X189486779Y-102749398D02*
X189486779Y-102463684D01*
X189486779Y-102463684D02*
X189534398Y-102368446D01*
X189534398Y-102368446D02*
X189582017Y-102320827D01*
X189582017Y-102320827D02*
X189677255Y-102273208D01*
X189677255Y-102273208D02*
X189867731Y-102273208D01*
X189867731Y-102273208D02*
X189962969Y-102320827D01*
X190820112Y-102892256D02*
X190724874Y-102939875D01*
X190724874Y-102939875D02*
X190534398Y-102939875D01*
X190534398Y-102939875D02*
X190439160Y-102892256D01*
X190439160Y-102892256D02*
X190391541Y-102797017D01*
X190391541Y-102797017D02*
X190391541Y-102416065D01*
X190391541Y-102416065D02*
X190439160Y-102320827D01*
X190439160Y-102320827D02*
X190534398Y-102273208D01*
X190534398Y-102273208D02*
X190724874Y-102273208D01*
X190724874Y-102273208D02*
X190820112Y-102320827D01*
X190820112Y-102320827D02*
X190867731Y-102416065D01*
X190867731Y-102416065D02*
X190867731Y-102511303D01*
X190867731Y-102511303D02*
X190391541Y-102606541D01*
X192629636Y-102844636D02*
X192582017Y-102892256D01*
X192582017Y-102892256D02*
X192439160Y-102939875D01*
X192439160Y-102939875D02*
X192343922Y-102939875D01*
X192343922Y-102939875D02*
X192201065Y-102892256D01*
X192201065Y-102892256D02*
X192105827Y-102797017D01*
X192105827Y-102797017D02*
X192058208Y-102701779D01*
X192058208Y-102701779D02*
X192010589Y-102511303D01*
X192010589Y-102511303D02*
X192010589Y-102368446D01*
X192010589Y-102368446D02*
X192058208Y-102177970D01*
X192058208Y-102177970D02*
X192105827Y-102082732D01*
X192105827Y-102082732D02*
X192201065Y-101987494D01*
X192201065Y-101987494D02*
X192343922Y-101939875D01*
X192343922Y-101939875D02*
X192439160Y-101939875D01*
X192439160Y-101939875D02*
X192582017Y-101987494D01*
X192582017Y-101987494D02*
X192629636Y-102035113D01*
X193201065Y-102939875D02*
X193105827Y-102892256D01*
X193105827Y-102892256D02*
X193058208Y-102844636D01*
X193058208Y-102844636D02*
X193010589Y-102749398D01*
X193010589Y-102749398D02*
X193010589Y-102463684D01*
X193010589Y-102463684D02*
X193058208Y-102368446D01*
X193058208Y-102368446D02*
X193105827Y-102320827D01*
X193105827Y-102320827D02*
X193201065Y-102273208D01*
X193201065Y-102273208D02*
X193343922Y-102273208D01*
X193343922Y-102273208D02*
X193439160Y-102320827D01*
X193439160Y-102320827D02*
X193486779Y-102368446D01*
X193486779Y-102368446D02*
X193534398Y-102463684D01*
X193534398Y-102463684D02*
X193534398Y-102749398D01*
X193534398Y-102749398D02*
X193486779Y-102844636D01*
X193486779Y-102844636D02*
X193439160Y-102892256D01*
X193439160Y-102892256D02*
X193343922Y-102939875D01*
X193343922Y-102939875D02*
X193201065Y-102939875D01*
X194105827Y-102939875D02*
X194010589Y-102892256D01*
X194010589Y-102892256D02*
X193962970Y-102844636D01*
X193962970Y-102844636D02*
X193915351Y-102749398D01*
X193915351Y-102749398D02*
X193915351Y-102463684D01*
X193915351Y-102463684D02*
X193962970Y-102368446D01*
X193962970Y-102368446D02*
X194010589Y-102320827D01*
X194010589Y-102320827D02*
X194105827Y-102273208D01*
X194105827Y-102273208D02*
X194248684Y-102273208D01*
X194248684Y-102273208D02*
X194343922Y-102320827D01*
X194343922Y-102320827D02*
X194391541Y-102368446D01*
X194391541Y-102368446D02*
X194439160Y-102463684D01*
X194439160Y-102463684D02*
X194439160Y-102749398D01*
X194439160Y-102749398D02*
X194391541Y-102844636D01*
X194391541Y-102844636D02*
X194343922Y-102892256D01*
X194343922Y-102892256D02*
X194248684Y-102939875D01*
X194248684Y-102939875D02*
X194105827Y-102939875D01*
X195010589Y-102939875D02*
X194915351Y-102892256D01*
X194915351Y-102892256D02*
X194867732Y-102797017D01*
X194867732Y-102797017D02*
X194867732Y-101939875D01*
X195343923Y-102654160D02*
X195820113Y-102654160D01*
X195248685Y-102939875D02*
X195582018Y-101939875D01*
X195582018Y-101939875D02*
X195915351Y-102939875D01*
X196248685Y-102939875D02*
X196248685Y-101939875D01*
X196248685Y-101939875D02*
X196582018Y-102654160D01*
X196582018Y-102654160D02*
X196915351Y-101939875D01*
X196915351Y-101939875D02*
X196915351Y-102939875D01*
X197391542Y-102939875D02*
X197391542Y-101939875D01*
X197391542Y-101939875D02*
X197772494Y-101939875D01*
X197772494Y-101939875D02*
X197867732Y-101987494D01*
X197867732Y-101987494D02*
X197915351Y-102035113D01*
X197915351Y-102035113D02*
X197962970Y-102130351D01*
X197962970Y-102130351D02*
X197962970Y-102273208D01*
X197962970Y-102273208D02*
X197915351Y-102368446D01*
X197915351Y-102368446D02*
X197867732Y-102416065D01*
X197867732Y-102416065D02*
X197772494Y-102463684D01*
X197772494Y-102463684D02*
X197391542Y-102463684D01*
X199058209Y-102273208D02*
X199296304Y-102939875D01*
X199296304Y-102939875D02*
X199534399Y-102273208D01*
X199820114Y-101939875D02*
X200439161Y-101939875D01*
X200439161Y-101939875D02*
X200105828Y-102320827D01*
X200105828Y-102320827D02*
X200248685Y-102320827D01*
X200248685Y-102320827D02*
X200343923Y-102368446D01*
X200343923Y-102368446D02*
X200391542Y-102416065D01*
X200391542Y-102416065D02*
X200439161Y-102511303D01*
X200439161Y-102511303D02*
X200439161Y-102749398D01*
X200439161Y-102749398D02*
X200391542Y-102844636D01*
X200391542Y-102844636D02*
X200343923Y-102892256D01*
X200343923Y-102892256D02*
X200248685Y-102939875D01*
X200248685Y-102939875D02*
X199962971Y-102939875D01*
X199962971Y-102939875D02*
X199867733Y-102892256D01*
X199867733Y-102892256D02*
X199820114Y-102844636D01*
X189914819Y-95582857D02*
X189914819Y-96154285D01*
X189914819Y-95868571D02*
X188914819Y-95868571D01*
X188914819Y-95868571D02*
X189057676Y-95963809D01*
X189057676Y-95963809D02*
X189152914Y-96059047D01*
X189152914Y-96059047D02*
X189200533Y-96154285D01*
X188914819Y-94963809D02*
X188914819Y-94868571D01*
X188914819Y-94868571D02*
X188962438Y-94773333D01*
X188962438Y-94773333D02*
X189010057Y-94725714D01*
X189010057Y-94725714D02*
X189105295Y-94678095D01*
X189105295Y-94678095D02*
X189295771Y-94630476D01*
X189295771Y-94630476D02*
X189533866Y-94630476D01*
X189533866Y-94630476D02*
X189724342Y-94678095D01*
X189724342Y-94678095D02*
X189819580Y-94725714D01*
X189819580Y-94725714D02*
X189867200Y-94773333D01*
X189867200Y-94773333D02*
X189914819Y-94868571D01*
X189914819Y-94868571D02*
X189914819Y-94963809D01*
X189914819Y-94963809D02*
X189867200Y-95059047D01*
X189867200Y-95059047D02*
X189819580Y-95106666D01*
X189819580Y-95106666D02*
X189724342Y-95154285D01*
X189724342Y-95154285D02*
X189533866Y-95201904D01*
X189533866Y-95201904D02*
X189295771Y-95201904D01*
X189295771Y-95201904D02*
X189105295Y-95154285D01*
X189105295Y-95154285D02*
X189010057Y-95106666D01*
X189010057Y-95106666D02*
X188962438Y-95059047D01*
X188962438Y-95059047D02*
X188914819Y-94963809D01*
X189248152Y-94201904D02*
X189914819Y-94201904D01*
X189343390Y-94201904D02*
X189295771Y-94154285D01*
X189295771Y-94154285D02*
X189248152Y-94059047D01*
X189248152Y-94059047D02*
X189248152Y-93916190D01*
X189248152Y-93916190D02*
X189295771Y-93820952D01*
X189295771Y-93820952D02*
X189391009Y-93773333D01*
X189391009Y-93773333D02*
X189914819Y-93773333D01*
X172165713Y-98382295D02*
X171708570Y-98382295D01*
X171937142Y-98382295D02*
X171937142Y-97582295D01*
X171937142Y-97582295D02*
X171860951Y-97696580D01*
X171860951Y-97696580D02*
X171784761Y-97772771D01*
X171784761Y-97772771D02*
X171708570Y-97810866D01*
X172660952Y-97582295D02*
X172737142Y-97582295D01*
X172737142Y-97582295D02*
X172813333Y-97620390D01*
X172813333Y-97620390D02*
X172851428Y-97658485D01*
X172851428Y-97658485D02*
X172889523Y-97734676D01*
X172889523Y-97734676D02*
X172927618Y-97887057D01*
X172927618Y-97887057D02*
X172927618Y-98077533D01*
X172927618Y-98077533D02*
X172889523Y-98229914D01*
X172889523Y-98229914D02*
X172851428Y-98306104D01*
X172851428Y-98306104D02*
X172813333Y-98344200D01*
X172813333Y-98344200D02*
X172737142Y-98382295D01*
X172737142Y-98382295D02*
X172660952Y-98382295D01*
X172660952Y-98382295D02*
X172584761Y-98344200D01*
X172584761Y-98344200D02*
X172546666Y-98306104D01*
X172546666Y-98306104D02*
X172508571Y-98229914D01*
X172508571Y-98229914D02*
X172470475Y-98077533D01*
X172470475Y-98077533D02*
X172470475Y-97887057D01*
X172470475Y-97887057D02*
X172508571Y-97734676D01*
X172508571Y-97734676D02*
X172546666Y-97658485D01*
X172546666Y-97658485D02*
X172584761Y-97620390D01*
X172584761Y-97620390D02*
X172660952Y-97582295D01*
X173613333Y-97848961D02*
X173613333Y-98382295D01*
X173270476Y-97848961D02*
X173270476Y-98268009D01*
X173270476Y-98268009D02*
X173308571Y-98344200D01*
X173308571Y-98344200D02*
X173384761Y-98382295D01*
X173384761Y-98382295D02*
X173499047Y-98382295D01*
X173499047Y-98382295D02*
X173575238Y-98344200D01*
X173575238Y-98344200D02*
X173613333Y-98306104D01*
X173782295Y-92455833D02*
X173782295Y-92912976D01*
X173782295Y-92684404D02*
X172982295Y-92684404D01*
X172982295Y-92684404D02*
X173096580Y-92760595D01*
X173096580Y-92760595D02*
X173172771Y-92836785D01*
X173172771Y-92836785D02*
X173210866Y-92912976D01*
X173248961Y-92112975D02*
X173782295Y-92112975D01*
X173325152Y-92112975D02*
X173287057Y-92074880D01*
X173287057Y-92074880D02*
X173248961Y-91998690D01*
X173248961Y-91998690D02*
X173248961Y-91884404D01*
X173248961Y-91884404D02*
X173287057Y-91808213D01*
X173287057Y-91808213D02*
X173363247Y-91770118D01*
X173363247Y-91770118D02*
X173782295Y-91770118D01*
X196812261Y-86912295D02*
X196355118Y-86912295D01*
X196583690Y-86912295D02*
X196583690Y-86112295D01*
X196583690Y-86112295D02*
X196507499Y-86226580D01*
X196507499Y-86226580D02*
X196431309Y-86302771D01*
X196431309Y-86302771D02*
X196355118Y-86340866D01*
X197307500Y-86112295D02*
X197383690Y-86112295D01*
X197383690Y-86112295D02*
X197459881Y-86150390D01*
X197459881Y-86150390D02*
X197497976Y-86188485D01*
X197497976Y-86188485D02*
X197536071Y-86264676D01*
X197536071Y-86264676D02*
X197574166Y-86417057D01*
X197574166Y-86417057D02*
X197574166Y-86607533D01*
X197574166Y-86607533D02*
X197536071Y-86759914D01*
X197536071Y-86759914D02*
X197497976Y-86836104D01*
X197497976Y-86836104D02*
X197459881Y-86874200D01*
X197459881Y-86874200D02*
X197383690Y-86912295D01*
X197383690Y-86912295D02*
X197307500Y-86912295D01*
X197307500Y-86912295D02*
X197231309Y-86874200D01*
X197231309Y-86874200D02*
X197193214Y-86836104D01*
X197193214Y-86836104D02*
X197155119Y-86759914D01*
X197155119Y-86759914D02*
X197117023Y-86607533D01*
X197117023Y-86607533D02*
X197117023Y-86417057D01*
X197117023Y-86417057D02*
X197155119Y-86264676D01*
X197155119Y-86264676D02*
X197193214Y-86188485D01*
X197193214Y-86188485D02*
X197231309Y-86150390D01*
X197231309Y-86150390D02*
X197307500Y-86112295D01*
X198069405Y-86112295D02*
X198145595Y-86112295D01*
X198145595Y-86112295D02*
X198221786Y-86150390D01*
X198221786Y-86150390D02*
X198259881Y-86188485D01*
X198259881Y-86188485D02*
X198297976Y-86264676D01*
X198297976Y-86264676D02*
X198336071Y-86417057D01*
X198336071Y-86417057D02*
X198336071Y-86607533D01*
X198336071Y-86607533D02*
X198297976Y-86759914D01*
X198297976Y-86759914D02*
X198259881Y-86836104D01*
X198259881Y-86836104D02*
X198221786Y-86874200D01*
X198221786Y-86874200D02*
X198145595Y-86912295D01*
X198145595Y-86912295D02*
X198069405Y-86912295D01*
X198069405Y-86912295D02*
X197993214Y-86874200D01*
X197993214Y-86874200D02*
X197955119Y-86836104D01*
X197955119Y-86836104D02*
X197917024Y-86759914D01*
X197917024Y-86759914D02*
X197878928Y-86607533D01*
X197878928Y-86607533D02*
X197878928Y-86417057D01*
X197878928Y-86417057D02*
X197917024Y-86264676D01*
X197917024Y-86264676D02*
X197955119Y-86188485D01*
X197955119Y-86188485D02*
X197993214Y-86150390D01*
X197993214Y-86150390D02*
X198069405Y-86112295D01*
X198678929Y-86378961D02*
X198678929Y-86912295D01*
X198678929Y-86455152D02*
X198717024Y-86417057D01*
X198717024Y-86417057D02*
X198793214Y-86378961D01*
X198793214Y-86378961D02*
X198907500Y-86378961D01*
X198907500Y-86378961D02*
X198983691Y-86417057D01*
X198983691Y-86417057D02*
X199021786Y-86493247D01*
X199021786Y-86493247D02*
X199021786Y-86912295D01*
X171609861Y-93924819D02*
X171609861Y-92924819D01*
X172181289Y-93924819D02*
X171752718Y-93353390D01*
X172181289Y-92924819D02*
X171609861Y-93496247D01*
X197091905Y-69704819D02*
X197710952Y-69704819D01*
X197710952Y-69704819D02*
X197377619Y-70085771D01*
X197377619Y-70085771D02*
X197520476Y-70085771D01*
X197520476Y-70085771D02*
X197615714Y-70133390D01*
X197615714Y-70133390D02*
X197663333Y-70181009D01*
X197663333Y-70181009D02*
X197710952Y-70276247D01*
X197710952Y-70276247D02*
X197710952Y-70514342D01*
X197710952Y-70514342D02*
X197663333Y-70609580D01*
X197663333Y-70609580D02*
X197615714Y-70657200D01*
X197615714Y-70657200D02*
X197520476Y-70704819D01*
X197520476Y-70704819D02*
X197234762Y-70704819D01*
X197234762Y-70704819D02*
X197139524Y-70657200D01*
X197139524Y-70657200D02*
X197091905Y-70609580D01*
X198044286Y-69704819D02*
X198663333Y-69704819D01*
X198663333Y-69704819D02*
X198330000Y-70085771D01*
X198330000Y-70085771D02*
X198472857Y-70085771D01*
X198472857Y-70085771D02*
X198568095Y-70133390D01*
X198568095Y-70133390D02*
X198615714Y-70181009D01*
X198615714Y-70181009D02*
X198663333Y-70276247D01*
X198663333Y-70276247D02*
X198663333Y-70514342D01*
X198663333Y-70514342D02*
X198615714Y-70609580D01*
X198615714Y-70609580D02*
X198568095Y-70657200D01*
X198568095Y-70657200D02*
X198472857Y-70704819D01*
X198472857Y-70704819D02*
X198187143Y-70704819D01*
X198187143Y-70704819D02*
X198091905Y-70657200D01*
X198091905Y-70657200D02*
X198044286Y-70609580D01*
X199282381Y-69704819D02*
X199377619Y-69704819D01*
X199377619Y-69704819D02*
X199472857Y-69752438D01*
X199472857Y-69752438D02*
X199520476Y-69800057D01*
X199520476Y-69800057D02*
X199568095Y-69895295D01*
X199568095Y-69895295D02*
X199615714Y-70085771D01*
X199615714Y-70085771D02*
X199615714Y-70323866D01*
X199615714Y-70323866D02*
X199568095Y-70514342D01*
X199568095Y-70514342D02*
X199520476Y-70609580D01*
X199520476Y-70609580D02*
X199472857Y-70657200D01*
X199472857Y-70657200D02*
X199377619Y-70704819D01*
X199377619Y-70704819D02*
X199282381Y-70704819D01*
X199282381Y-70704819D02*
X199187143Y-70657200D01*
X199187143Y-70657200D02*
X199139524Y-70609580D01*
X199139524Y-70609580D02*
X199091905Y-70514342D01*
X199091905Y-70514342D02*
X199044286Y-70323866D01*
X199044286Y-70323866D02*
X199044286Y-70085771D01*
X199044286Y-70085771D02*
X199091905Y-69895295D01*
X199091905Y-69895295D02*
X199139524Y-69800057D01*
X199139524Y-69800057D02*
X199187143Y-69752438D01*
X199187143Y-69752438D02*
X199282381Y-69704819D01*
X200472857Y-70038152D02*
X200472857Y-70704819D01*
X200044286Y-70038152D02*
X200044286Y-70561961D01*
X200044286Y-70561961D02*
X200091905Y-70657200D01*
X200091905Y-70657200D02*
X200187143Y-70704819D01*
X200187143Y-70704819D02*
X200330000Y-70704819D01*
X200330000Y-70704819D02*
X200425238Y-70657200D01*
X200425238Y-70657200D02*
X200472857Y-70609580D01*
X180722022Y-75379062D02*
X181294256Y-75379062D01*
X181008139Y-76380471D02*
X181008139Y-75379062D01*
X182152606Y-76380471D02*
X181580372Y-76380471D01*
X181866489Y-76380471D02*
X181866489Y-75379062D01*
X181866489Y-75379062D02*
X181771117Y-75522120D01*
X181771117Y-75522120D02*
X181675744Y-75617492D01*
X181675744Y-75617492D02*
X181580372Y-75665179D01*
X192435713Y-68642295D02*
X191978570Y-68642295D01*
X192207142Y-68642295D02*
X192207142Y-67842295D01*
X192207142Y-67842295D02*
X192130951Y-67956580D01*
X192130951Y-67956580D02*
X192054761Y-68032771D01*
X192054761Y-68032771D02*
X191978570Y-68070866D01*
X192930952Y-67842295D02*
X193007142Y-67842295D01*
X193007142Y-67842295D02*
X193083333Y-67880390D01*
X193083333Y-67880390D02*
X193121428Y-67918485D01*
X193121428Y-67918485D02*
X193159523Y-67994676D01*
X193159523Y-67994676D02*
X193197618Y-68147057D01*
X193197618Y-68147057D02*
X193197618Y-68337533D01*
X193197618Y-68337533D02*
X193159523Y-68489914D01*
X193159523Y-68489914D02*
X193121428Y-68566104D01*
X193121428Y-68566104D02*
X193083333Y-68604200D01*
X193083333Y-68604200D02*
X193007142Y-68642295D01*
X193007142Y-68642295D02*
X192930952Y-68642295D01*
X192930952Y-68642295D02*
X192854761Y-68604200D01*
X192854761Y-68604200D02*
X192816666Y-68566104D01*
X192816666Y-68566104D02*
X192778571Y-68489914D01*
X192778571Y-68489914D02*
X192740475Y-68337533D01*
X192740475Y-68337533D02*
X192740475Y-68147057D01*
X192740475Y-68147057D02*
X192778571Y-67994676D01*
X192778571Y-67994676D02*
X192816666Y-67918485D01*
X192816666Y-67918485D02*
X192854761Y-67880390D01*
X192854761Y-67880390D02*
X192930952Y-67842295D01*
X193540476Y-68108961D02*
X193540476Y-68642295D01*
X193540476Y-68185152D02*
X193578571Y-68147057D01*
X193578571Y-68147057D02*
X193654761Y-68108961D01*
X193654761Y-68108961D02*
X193769047Y-68108961D01*
X193769047Y-68108961D02*
X193845238Y-68147057D01*
X193845238Y-68147057D02*
X193883333Y-68223247D01*
X193883333Y-68223247D02*
X193883333Y-68642295D01*
X169664761Y-103609795D02*
X169207618Y-103609795D01*
X169436190Y-103609795D02*
X169436190Y-102809795D01*
X169436190Y-102809795D02*
X169359999Y-102924080D01*
X169359999Y-102924080D02*
X169283809Y-103000271D01*
X169283809Y-103000271D02*
X169207618Y-103038366D01*
X170160000Y-102809795D02*
X170236190Y-102809795D01*
X170236190Y-102809795D02*
X170312381Y-102847890D01*
X170312381Y-102847890D02*
X170350476Y-102885985D01*
X170350476Y-102885985D02*
X170388571Y-102962176D01*
X170388571Y-102962176D02*
X170426666Y-103114557D01*
X170426666Y-103114557D02*
X170426666Y-103305033D01*
X170426666Y-103305033D02*
X170388571Y-103457414D01*
X170388571Y-103457414D02*
X170350476Y-103533604D01*
X170350476Y-103533604D02*
X170312381Y-103571700D01*
X170312381Y-103571700D02*
X170236190Y-103609795D01*
X170236190Y-103609795D02*
X170160000Y-103609795D01*
X170160000Y-103609795D02*
X170083809Y-103571700D01*
X170083809Y-103571700D02*
X170045714Y-103533604D01*
X170045714Y-103533604D02*
X170007619Y-103457414D01*
X170007619Y-103457414D02*
X169969523Y-103305033D01*
X169969523Y-103305033D02*
X169969523Y-103114557D01*
X169969523Y-103114557D02*
X170007619Y-102962176D01*
X170007619Y-102962176D02*
X170045714Y-102885985D01*
X170045714Y-102885985D02*
X170083809Y-102847890D01*
X170083809Y-102847890D02*
X170160000Y-102809795D01*
X170921905Y-102809795D02*
X170998095Y-102809795D01*
X170998095Y-102809795D02*
X171074286Y-102847890D01*
X171074286Y-102847890D02*
X171112381Y-102885985D01*
X171112381Y-102885985D02*
X171150476Y-102962176D01*
X171150476Y-102962176D02*
X171188571Y-103114557D01*
X171188571Y-103114557D02*
X171188571Y-103305033D01*
X171188571Y-103305033D02*
X171150476Y-103457414D01*
X171150476Y-103457414D02*
X171112381Y-103533604D01*
X171112381Y-103533604D02*
X171074286Y-103571700D01*
X171074286Y-103571700D02*
X170998095Y-103609795D01*
X170998095Y-103609795D02*
X170921905Y-103609795D01*
X170921905Y-103609795D02*
X170845714Y-103571700D01*
X170845714Y-103571700D02*
X170807619Y-103533604D01*
X170807619Y-103533604D02*
X170769524Y-103457414D01*
X170769524Y-103457414D02*
X170731428Y-103305033D01*
X170731428Y-103305033D02*
X170731428Y-103114557D01*
X170731428Y-103114557D02*
X170769524Y-102962176D01*
X170769524Y-102962176D02*
X170807619Y-102885985D01*
X170807619Y-102885985D02*
X170845714Y-102847890D01*
X170845714Y-102847890D02*
X170921905Y-102809795D01*
X171531429Y-103076461D02*
X171531429Y-103609795D01*
X171531429Y-103152652D02*
X171569524Y-103114557D01*
X171569524Y-103114557D02*
X171645714Y-103076461D01*
X171645714Y-103076461D02*
X171760000Y-103076461D01*
X171760000Y-103076461D02*
X171836191Y-103114557D01*
X171836191Y-103114557D02*
X171874286Y-103190747D01*
X171874286Y-103190747D02*
X171874286Y-103609795D01*
X190323333Y-68624819D02*
X189751905Y-68624819D01*
X190037619Y-68624819D02*
X190037619Y-67624819D01*
X190037619Y-67624819D02*
X189942381Y-67767676D01*
X189942381Y-67767676D02*
X189847143Y-67862914D01*
X189847143Y-67862914D02*
X189751905Y-67910533D01*
X190751905Y-67958152D02*
X190751905Y-68624819D01*
X190751905Y-68053390D02*
X190799524Y-68005771D01*
X190799524Y-68005771D02*
X190894762Y-67958152D01*
X190894762Y-67958152D02*
X191037619Y-67958152D01*
X191037619Y-67958152D02*
X191132857Y-68005771D01*
X191132857Y-68005771D02*
X191180476Y-68101009D01*
X191180476Y-68101009D02*
X191180476Y-68624819D01*
X181164819Y-97701428D02*
X181164819Y-98272856D01*
X181164819Y-97987142D02*
X180164819Y-97987142D01*
X180164819Y-97987142D02*
X180307676Y-98082380D01*
X180307676Y-98082380D02*
X180402914Y-98177618D01*
X180402914Y-98177618D02*
X180450533Y-98272856D01*
X180164819Y-97082380D02*
X180164819Y-96987142D01*
X180164819Y-96987142D02*
X180212438Y-96891904D01*
X180212438Y-96891904D02*
X180260057Y-96844285D01*
X180260057Y-96844285D02*
X180355295Y-96796666D01*
X180355295Y-96796666D02*
X180545771Y-96749047D01*
X180545771Y-96749047D02*
X180783866Y-96749047D01*
X180783866Y-96749047D02*
X180974342Y-96796666D01*
X180974342Y-96796666D02*
X181069580Y-96844285D01*
X181069580Y-96844285D02*
X181117200Y-96891904D01*
X181117200Y-96891904D02*
X181164819Y-96987142D01*
X181164819Y-96987142D02*
X181164819Y-97082380D01*
X181164819Y-97082380D02*
X181117200Y-97177618D01*
X181117200Y-97177618D02*
X181069580Y-97225237D01*
X181069580Y-97225237D02*
X180974342Y-97272856D01*
X180974342Y-97272856D02*
X180783866Y-97320475D01*
X180783866Y-97320475D02*
X180545771Y-97320475D01*
X180545771Y-97320475D02*
X180355295Y-97272856D01*
X180355295Y-97272856D02*
X180260057Y-97225237D01*
X180260057Y-97225237D02*
X180212438Y-97177618D01*
X180212438Y-97177618D02*
X180164819Y-97082380D01*
X180164819Y-96129999D02*
X180164819Y-96034761D01*
X180164819Y-96034761D02*
X180212438Y-95939523D01*
X180212438Y-95939523D02*
X180260057Y-95891904D01*
X180260057Y-95891904D02*
X180355295Y-95844285D01*
X180355295Y-95844285D02*
X180545771Y-95796666D01*
X180545771Y-95796666D02*
X180783866Y-95796666D01*
X180783866Y-95796666D02*
X180974342Y-95844285D01*
X180974342Y-95844285D02*
X181069580Y-95891904D01*
X181069580Y-95891904D02*
X181117200Y-95939523D01*
X181117200Y-95939523D02*
X181164819Y-96034761D01*
X181164819Y-96034761D02*
X181164819Y-96129999D01*
X181164819Y-96129999D02*
X181117200Y-96225237D01*
X181117200Y-96225237D02*
X181069580Y-96272856D01*
X181069580Y-96272856D02*
X180974342Y-96320475D01*
X180974342Y-96320475D02*
X180783866Y-96368094D01*
X180783866Y-96368094D02*
X180545771Y-96368094D01*
X180545771Y-96368094D02*
X180355295Y-96320475D01*
X180355295Y-96320475D02*
X180260057Y-96272856D01*
X180260057Y-96272856D02*
X180212438Y-96225237D01*
X180212438Y-96225237D02*
X180164819Y-96129999D01*
X181164819Y-95368094D02*
X180164819Y-95368094D01*
X180783866Y-95272856D02*
X181164819Y-94987142D01*
X180498152Y-94987142D02*
X180879104Y-95368094D01*
X189964819Y-91686666D02*
X189964819Y-92258094D01*
X189964819Y-91972380D02*
X188964819Y-91972380D01*
X188964819Y-91972380D02*
X189107676Y-92067618D01*
X189107676Y-92067618D02*
X189202914Y-92162856D01*
X189202914Y-92162856D02*
X189250533Y-92258094D01*
X189298152Y-91258094D02*
X189964819Y-91258094D01*
X189393390Y-91258094D02*
X189345771Y-91210475D01*
X189345771Y-91210475D02*
X189298152Y-91115237D01*
X189298152Y-91115237D02*
X189298152Y-90972380D01*
X189298152Y-90972380D02*
X189345771Y-90877142D01*
X189345771Y-90877142D02*
X189441009Y-90829523D01*
X189441009Y-90829523D02*
X189964819Y-90829523D01*
D12*
%TO.C,RF_OUT1*%
X202047500Y-84470000D02*
X202047500Y-84970000D01*
X202047500Y-84970000D02*
X202547500Y-84720000D01*
X202547500Y-84720000D02*
X202047500Y-84470000D01*
X203097500Y-83880000D02*
X203097500Y-82770000D01*
X203097500Y-86670000D02*
X203097500Y-85560000D01*
X206807500Y-83880000D02*
X206807500Y-82770000D01*
X206807500Y-86670000D02*
X206807500Y-85560000D01*
%TO.C,C12*%
X185608748Y-94010000D02*
X187031252Y-94010000D01*
X185608748Y-95830000D02*
X187031252Y-95830000D01*
D13*
%TO.C,Power1*%
X179350000Y-71012500D02*
X179350000Y-69632500D01*
X179350000Y-71012500D02*
X181330000Y-71012500D01*
D12*
X188350000Y-62972500D02*
X179400000Y-62952500D01*
D13*
X188350000Y-71012500D02*
X186370000Y-71012500D01*
D14*
X183950000Y-72412500D02*
G75*
G02*
X183750000Y-72412500I-100000J0D01*
G01*
X183750000Y-72412500D02*
G75*
G02*
X183950000Y-72412500I100000J0D01*
G01*
D12*
%TO.C,C9*%
X170738748Y-95410000D02*
X172161252Y-95410000D01*
X170738748Y-97230000D02*
X172161252Y-97230000D01*
%TO.C,C4*%
X174200000Y-93111252D02*
X174200000Y-91688748D01*
X176020000Y-93111252D02*
X176020000Y-91688748D01*
%TO.C,C1*%
X197028748Y-80350000D02*
X198451252Y-80350000D01*
X197028748Y-82170000D02*
X198451252Y-82170000D01*
%TO.C,RF_IN1*%
X173620000Y-105230000D02*
X174730000Y-105230000D01*
X173620000Y-108940000D02*
X174730000Y-108940000D01*
X175320000Y-104180000D02*
X175570000Y-104680000D01*
X175570000Y-104680000D02*
X175820000Y-104180000D01*
X175820000Y-104180000D02*
X175320000Y-104180000D01*
X176410000Y-105230000D02*
X177520000Y-105230000D01*
X176410000Y-108940000D02*
X177520000Y-108940000D01*
%TO.C,C3*%
X198478752Y-83840000D02*
X197056248Y-83840000D01*
X198478752Y-85660000D02*
X197056248Y-85660000D01*
%TO.C,D1*%
X168881153Y-94530000D02*
G75*
G02*
X168821551Y-92262634I-1311153J1100000D01*
G01*
%TO.C,U2*%
X176100000Y-99022500D02*
X177860000Y-99022500D01*
X177060000Y-95952500D02*
X176260000Y-95952500D01*
X177060000Y-95952500D02*
X177860000Y-95952500D01*
X175760000Y-96002500D02*
X175520000Y-95672500D01*
X176000000Y-95672500D01*
X175760000Y-96002500D01*
G36*
X175760000Y-96002500D02*
G01*
X175520000Y-95672500D01*
X176000000Y-95672500D01*
X175760000Y-96002500D01*
G37*
%TO.C,C6*%
X194277651Y-72865000D02*
X195077651Y-72865000D01*
X194677651Y-72465000D02*
X194677651Y-73265000D01*
X198687349Y-71100000D02*
X198687349Y-79260000D01*
X198727349Y-71100000D02*
X198727349Y-79260000D01*
X198767349Y-71100000D02*
X198767349Y-79260000D01*
X198807349Y-71101000D02*
X198807349Y-79259000D01*
X198847349Y-71103000D02*
X198847349Y-79257000D01*
X198887349Y-71104000D02*
X198887349Y-79256000D01*
X198927349Y-71106000D02*
X198927349Y-79254000D01*
X198967349Y-71109000D02*
X198967349Y-79251000D01*
X199007349Y-71112000D02*
X199007349Y-79248000D01*
X199047349Y-71115000D02*
X199047349Y-79245000D01*
X199087349Y-71119000D02*
X199087349Y-79241000D01*
X199127349Y-71123000D02*
X199127349Y-79237000D01*
X199167349Y-71128000D02*
X199167349Y-79232000D01*
X199207349Y-71132000D02*
X199207349Y-79228000D01*
X199247349Y-71138000D02*
X199247349Y-79222000D01*
X199287349Y-71143000D02*
X199287349Y-79217000D01*
X199327349Y-71150000D02*
X199327349Y-79210000D01*
X199367349Y-71156000D02*
X199367349Y-79204000D01*
X199408349Y-71163000D02*
X199408349Y-79197000D01*
X199448349Y-71170000D02*
X199448349Y-79190000D01*
X199488349Y-71178000D02*
X199488349Y-79182000D01*
X199528349Y-71186000D02*
X199528349Y-79174000D01*
X199568349Y-71195000D02*
X199568349Y-79165000D01*
X199608349Y-71204000D02*
X199608349Y-79156000D01*
X199648349Y-71213000D02*
X199648349Y-79147000D01*
X199688349Y-71223000D02*
X199688349Y-79137000D01*
X199728349Y-71233000D02*
X199728349Y-79127000D01*
X199768349Y-71244000D02*
X199768349Y-79116000D01*
X199808349Y-71255000D02*
X199808349Y-79105000D01*
X199848349Y-71266000D02*
X199848349Y-79094000D01*
X199888349Y-71278000D02*
X199888349Y-79082000D01*
X199928349Y-71291000D02*
X199928349Y-79069000D01*
X199968349Y-71303000D02*
X199968349Y-79057000D01*
X200008349Y-71317000D02*
X200008349Y-79043000D01*
X200048349Y-71330000D02*
X200048349Y-79030000D01*
X200088349Y-71345000D02*
X200088349Y-79015000D01*
X200128349Y-71359000D02*
X200128349Y-79001000D01*
X200168349Y-71375000D02*
X200168349Y-74140000D01*
X200168349Y-76220000D02*
X200168349Y-78985000D01*
X200208349Y-71390000D02*
X200208349Y-74140000D01*
X200208349Y-76220000D02*
X200208349Y-78970000D01*
X200248349Y-71406000D02*
X200248349Y-74140000D01*
X200248349Y-76220000D02*
X200248349Y-78954000D01*
X200288349Y-71423000D02*
X200288349Y-74140000D01*
X200288349Y-76220000D02*
X200288349Y-78937000D01*
X200328349Y-71440000D02*
X200328349Y-74140000D01*
X200328349Y-76220000D02*
X200328349Y-78920000D01*
X200368349Y-71458000D02*
X200368349Y-74140000D01*
X200368349Y-76220000D02*
X200368349Y-78902000D01*
X200408349Y-71476000D02*
X200408349Y-74140000D01*
X200408349Y-76220000D02*
X200408349Y-78884000D01*
X200448349Y-71494000D02*
X200448349Y-74140000D01*
X200448349Y-76220000D02*
X200448349Y-78866000D01*
X200488349Y-71514000D02*
X200488349Y-74140000D01*
X200488349Y-76220000D02*
X200488349Y-78846000D01*
X200528349Y-71533000D02*
X200528349Y-74140000D01*
X200528349Y-76220000D02*
X200528349Y-78827000D01*
X200568349Y-71553000D02*
X200568349Y-74140000D01*
X200568349Y-76220000D02*
X200568349Y-78807000D01*
X200608349Y-71574000D02*
X200608349Y-74140000D01*
X200608349Y-76220000D02*
X200608349Y-78786000D01*
X200648349Y-71596000D02*
X200648349Y-74140000D01*
X200648349Y-76220000D02*
X200648349Y-78764000D01*
X200688349Y-71618000D02*
X200688349Y-74140000D01*
X200688349Y-76220000D02*
X200688349Y-78742000D01*
X200728349Y-71640000D02*
X200728349Y-74140000D01*
X200728349Y-76220000D02*
X200728349Y-78720000D01*
X200768349Y-71663000D02*
X200768349Y-74140000D01*
X200768349Y-76220000D02*
X200768349Y-78697000D01*
X200808349Y-71687000D02*
X200808349Y-74140000D01*
X200808349Y-76220000D02*
X200808349Y-78673000D01*
X200848349Y-71711000D02*
X200848349Y-74140000D01*
X200848349Y-76220000D02*
X200848349Y-78649000D01*
X200888349Y-71736000D02*
X200888349Y-74140000D01*
X200888349Y-76220000D02*
X200888349Y-78624000D01*
X200928349Y-71762000D02*
X200928349Y-74140000D01*
X200928349Y-76220000D02*
X200928349Y-78598000D01*
X200968349Y-71788000D02*
X200968349Y-74140000D01*
X200968349Y-76220000D02*
X200968349Y-78572000D01*
X201008349Y-71815000D02*
X201008349Y-74140000D01*
X201008349Y-76220000D02*
X201008349Y-78545000D01*
X201048349Y-71842000D02*
X201048349Y-74140000D01*
X201048349Y-76220000D02*
X201048349Y-78518000D01*
X201088349Y-71871000D02*
X201088349Y-74140000D01*
X201088349Y-76220000D02*
X201088349Y-78489000D01*
X201128349Y-71900000D02*
X201128349Y-74140000D01*
X201128349Y-76220000D02*
X201128349Y-78460000D01*
X201168349Y-71930000D02*
X201168349Y-74140000D01*
X201168349Y-76220000D02*
X201168349Y-78430000D01*
X201208349Y-71960000D02*
X201208349Y-74140000D01*
X201208349Y-76220000D02*
X201208349Y-78400000D01*
X201248349Y-71991000D02*
X201248349Y-74140000D01*
X201248349Y-76220000D02*
X201248349Y-78369000D01*
X201288349Y-72024000D02*
X201288349Y-74140000D01*
X201288349Y-76220000D02*
X201288349Y-78336000D01*
X201328349Y-72056000D02*
X201328349Y-74140000D01*
X201328349Y-76220000D02*
X201328349Y-78304000D01*
X201368349Y-72090000D02*
X201368349Y-74140000D01*
X201368349Y-76220000D02*
X201368349Y-78270000D01*
X201408349Y-72125000D02*
X201408349Y-74140000D01*
X201408349Y-76220000D02*
X201408349Y-78235000D01*
X201448349Y-72161000D02*
X201448349Y-74140000D01*
X201448349Y-76220000D02*
X201448349Y-78199000D01*
X201488349Y-72197000D02*
X201488349Y-74140000D01*
X201488349Y-76220000D02*
X201488349Y-78163000D01*
X201528349Y-72235000D02*
X201528349Y-74140000D01*
X201528349Y-76220000D02*
X201528349Y-78125000D01*
X201568349Y-72273000D02*
X201568349Y-74140000D01*
X201568349Y-76220000D02*
X201568349Y-78087000D01*
X201608349Y-72313000D02*
X201608349Y-74140000D01*
X201608349Y-76220000D02*
X201608349Y-78047000D01*
X201648349Y-72354000D02*
X201648349Y-74140000D01*
X201648349Y-76220000D02*
X201648349Y-78006000D01*
X201688349Y-72396000D02*
X201688349Y-74140000D01*
X201688349Y-76220000D02*
X201688349Y-77964000D01*
X201728349Y-72439000D02*
X201728349Y-74140000D01*
X201728349Y-76220000D02*
X201728349Y-77921000D01*
X201768349Y-72483000D02*
X201768349Y-74140000D01*
X201768349Y-76220000D02*
X201768349Y-77877000D01*
X201808349Y-72529000D02*
X201808349Y-74140000D01*
X201808349Y-76220000D02*
X201808349Y-77831000D01*
X201848349Y-72576000D02*
X201848349Y-74140000D01*
X201848349Y-76220000D02*
X201848349Y-77784000D01*
X201888349Y-72624000D02*
X201888349Y-74140000D01*
X201888349Y-76220000D02*
X201888349Y-77736000D01*
X201928349Y-72675000D02*
X201928349Y-74140000D01*
X201928349Y-76220000D02*
X201928349Y-77685000D01*
X201968349Y-72726000D02*
X201968349Y-74140000D01*
X201968349Y-76220000D02*
X201968349Y-77634000D01*
X202008349Y-72780000D02*
X202008349Y-74140000D01*
X202008349Y-76220000D02*
X202008349Y-77580000D01*
X202048349Y-72835000D02*
X202048349Y-74140000D01*
X202048349Y-76220000D02*
X202048349Y-77525000D01*
X202088349Y-72893000D02*
X202088349Y-74140000D01*
X202088349Y-76220000D02*
X202088349Y-77467000D01*
X202128349Y-72952000D02*
X202128349Y-74140000D01*
X202128349Y-76220000D02*
X202128349Y-77408000D01*
X202168349Y-73014000D02*
X202168349Y-74140000D01*
X202168349Y-76220000D02*
X202168349Y-77346000D01*
X202208349Y-73078000D02*
X202208349Y-74140000D01*
X202208349Y-76220000D02*
X202208349Y-77282000D01*
X202248349Y-73146000D02*
X202248349Y-77214000D01*
X202288349Y-73216000D02*
X202288349Y-77144000D01*
X202328349Y-73290000D02*
X202328349Y-77070000D01*
X202368349Y-73367000D02*
X202368349Y-76993000D01*
X202408349Y-73449000D02*
X202408349Y-76911000D01*
X202448349Y-73535000D02*
X202448349Y-76825000D01*
X202488349Y-73628000D02*
X202488349Y-76732000D01*
X202528349Y-73727000D02*
X202528349Y-76633000D01*
X202568349Y-73834000D02*
X202568349Y-76526000D01*
X202608349Y-73951000D02*
X202608349Y-76409000D01*
X202648349Y-74082000D02*
X202648349Y-76278000D01*
X202688349Y-74232000D02*
X202688349Y-76128000D01*
X202728349Y-74412000D02*
X202728349Y-75948000D01*
X202768349Y-74647000D02*
X202768349Y-75713000D01*
X202807349Y-75180000D02*
G75*
G02*
X194567349Y-75180000I-4120000J0D01*
G01*
X194567349Y-75180000D02*
G75*
G02*
X202807349Y-75180000I4120000J0D01*
G01*
D13*
%TO.C,T1*%
X180960000Y-76740000D02*
X193460000Y-76740000D01*
X180960000Y-79080000D02*
X180960000Y-76740000D01*
X180960000Y-89240000D02*
X180960000Y-86900000D01*
X193460000Y-76740000D02*
X193460000Y-79080000D01*
X193460000Y-86900000D02*
X193460000Y-89240000D01*
X193460000Y-89240000D02*
X180960000Y-89240000D01*
D11*
X180360000Y-79590000D02*
G75*
G02*
X180060000Y-79590000I-150000J0D01*
G01*
X180060000Y-79590000D02*
G75*
G02*
X180360000Y-79590000I150000J0D01*
G01*
D12*
%TO.C,C5*%
X192130000Y-72011252D02*
X192130000Y-70588748D01*
X193950000Y-72011252D02*
X193950000Y-70588748D01*
%TO.C,C8*%
X169430000Y-99448748D02*
X169430000Y-100871252D01*
X171250000Y-99448748D02*
X171250000Y-100871252D01*
%TO.C,C10*%
X189640000Y-72011252D02*
X189640000Y-70588748D01*
X191460000Y-72011252D02*
X191460000Y-70588748D01*
%TO.C,R2*%
X176950000Y-91662936D02*
X176950000Y-93117064D01*
X178770000Y-91662936D02*
X178770000Y-93117064D01*
%TO.C,R3*%
X179390000Y-91692936D02*
X179390000Y-93147064D01*
X181210000Y-91692936D02*
X181210000Y-93147064D01*
%TO.C,C2*%
X185621248Y-90500000D02*
X187043752Y-90500000D01*
X185621248Y-92320000D02*
X187043752Y-92320000D01*
%TD*%
%LPC*%
D15*
%TO.C,H3*%
X139400000Y-105720000D03*
X140102944Y-104022944D03*
X140102944Y-107417056D03*
X141800000Y-103320000D03*
D16*
X141800000Y-105720000D03*
D15*
X141800000Y-108120000D03*
X143497056Y-104022944D03*
X143497056Y-107417056D03*
X144200000Y-105720000D03*
%TD*%
D17*
%TO.C,RF_OUT1*%
X205007500Y-84720000D03*
D18*
X204807500Y-87545000D03*
X204807500Y-81895000D03*
%TD*%
D19*
%TO.C,C12*%
X184757500Y-94920000D03*
X187882500Y-94920000D03*
%TD*%
D20*
%TO.C,Power1*%
X183850000Y-70312500D03*
D21*
X183850000Y-64312500D03*
D22*
X179150000Y-67312500D03*
%TD*%
D19*
%TO.C,C9*%
X169887500Y-96320000D03*
X173012500Y-96320000D03*
%TD*%
D23*
%TO.C,C4*%
X175110000Y-93962500D03*
X175110000Y-90837500D03*
%TD*%
D15*
%TO.C,H4*%
X201300000Y-105790000D03*
X202002944Y-104092944D03*
X202002944Y-107487056D03*
X203700000Y-103390000D03*
D16*
X203700000Y-105790000D03*
D15*
X203700000Y-108190000D03*
X205397056Y-104092944D03*
X205397056Y-107487056D03*
X206100000Y-105790000D03*
%TD*%
D24*
%TO.C,U3*%
X150920000Y-100390000D03*
D25*
X167580000Y-102930000D03*
D26*
X167580000Y-100390000D03*
X167580000Y-97850000D03*
%TD*%
D19*
%TO.C,C1*%
X196177500Y-81260000D03*
X199302500Y-81260000D03*
%TD*%
D27*
%TO.C,RF_IN1*%
X175570000Y-107140000D03*
D28*
X172745000Y-106940000D03*
X178395000Y-106940000D03*
%TD*%
D29*
%TO.C,Q1*%
X156740000Y-81270000D03*
D30*
X176600000Y-86720000D03*
D31*
X176600000Y-81270000D03*
X176600000Y-75820000D03*
%TD*%
D32*
%TO.C,C3*%
X199330000Y-84750000D03*
X196205000Y-84750000D03*
%TD*%
D33*
%TO.C,D1*%
X170110000Y-93430000D03*
D34*
X167570000Y-93430000D03*
%TD*%
D35*
%TO.C,U2*%
X175270000Y-96512500D03*
X175270000Y-97462500D03*
X175270000Y-98412500D03*
X178690000Y-98412500D03*
X178690000Y-96512500D03*
%TD*%
D36*
%TO.C,C6*%
X196187349Y-75180000D03*
D37*
X201187349Y-75180000D03*
%TD*%
D38*
%TO.C,T1*%
X182460000Y-81275000D03*
X182460000Y-84705000D03*
X191960000Y-84705000D03*
X191960000Y-81275000D03*
%TD*%
D15*
%TO.C,H1*%
X139430000Y-66200000D03*
X140132944Y-64502944D03*
X140132944Y-67897056D03*
X141830000Y-63800000D03*
D16*
X141830000Y-66200000D03*
D15*
X141830000Y-68600000D03*
X143527056Y-64502944D03*
X143527056Y-67897056D03*
X144230000Y-66200000D03*
%TD*%
D23*
%TO.C,C5*%
X193040000Y-72862500D03*
X193040000Y-69737500D03*
%TD*%
D39*
%TO.C,C8*%
X170340000Y-98597500D03*
X170340000Y-101722500D03*
%TD*%
D23*
%TO.C,C10*%
X190550000Y-72862500D03*
X190550000Y-69737500D03*
%TD*%
D15*
%TO.C,H2*%
X201352944Y-66177944D03*
X202055888Y-64480888D03*
X202055888Y-67875000D03*
X203752944Y-63777944D03*
D16*
X203752944Y-66177944D03*
D15*
X203752944Y-68577944D03*
X205450000Y-64480888D03*
X205450000Y-67875000D03*
X206152944Y-66177944D03*
%TD*%
D40*
%TO.C,R2*%
X177860000Y-90840000D03*
X177860000Y-93940000D03*
%TD*%
%TO.C,R3*%
X180300000Y-90870000D03*
X180300000Y-93970000D03*
%TD*%
D19*
%TO.C,C2*%
X184770000Y-91410000D03*
X187895000Y-91410000D03*
%TD*%
%LPD*%
M02*
