M48
; DRILL file {KiCad 8.99.0-unknown-8ec1016ccf~178~ubuntu22.04.1} date 2024-05-09T20:44:09+0530
; FORMAT={-:-/ absolute / inch / decimal}
; #@! TF.CreationDate,2024-05-09T20:44:09+05:30
; #@! TF.GenerationSoftware,Kicad,Pcbnew,8.99.0-unknown-8ec1016ccf~178~ubuntu22.04.1
; #@! TF.FileFunction,Plated,1,2,PTH
FMAT,2
INCH
; #@! TA.AperFunction,Plated,PTH,ViaDrill
T1C0.0157
; #@! TA.AperFunction,Plated,PTH,ComponentDrill
T2C0.0197
; #@! TA.AperFunction,Plated,PTH,ComponentDrill
T3C0.0315
; #@! TA.AperFunction,Plated,PTH,ComponentDrill
T4C0.0394
; #@! TA.AperFunction,Plated,PTH,ComponentDrill
T5C0.0433
; #@! TA.AperFunction,Plated,PTH,ComponentDrill
T6C0.0591
; #@! TA.AperFunction,Plated,PTH,ComponentDrill
T7C0.1260
%
G90
G05
T1
X5.5697Y-2.8055
X5.5697Y-2.9055
X5.5697Y-3.0055
X5.5697Y-3.1055
X5.5697Y-3.2059
X5.5697Y-3.3059
X5.5697Y-3.4059
X5.5697Y-3.5059
X5.578Y-3.6874
X5.578Y-3.7874
X5.578Y-3.8874
X5.578Y-3.9874
X5.6685Y-2.8079
X5.6685Y-2.9079
X5.6685Y-3.0079
X5.6685Y-3.1079
X5.6685Y-3.2083
X5.6685Y-3.3083
X5.6685Y-3.4083
X5.6685Y-3.5083
X5.6768Y-3.6898
X5.6768Y-3.7898
X5.6768Y-3.8898
X5.6768Y-3.9898
X5.7957Y-3.6445
X5.7976Y-3.5941
X5.8346Y-2.7744
X5.8366Y-2.6882
X5.839Y-2.5894
X5.8957Y-3.6445
X5.8976Y-3.5941
X5.9346Y-2.7744
X5.9366Y-2.6882
X5.939Y-2.5894
X5.9957Y-3.6445
X5.9976Y-3.5941
X6.0346Y-2.7744
X6.0366Y-2.6882
X6.039Y-2.5894
X6.0957Y-3.6445
X6.0976Y-3.5941
X6.1346Y-2.7744
X6.1366Y-2.6882
X6.139Y-2.5894
X6.1803Y-3.6441
X6.1823Y-3.5937
X6.2161Y-2.6882
X6.2185Y-2.5894
X6.2791Y-3.6465
X6.2811Y-3.5961
X6.3161Y-2.6882
X6.3185Y-2.5894
X6.335Y-2.7744
X6.361Y-3.6465
X6.363Y-3.5961
X6.4161Y-2.6882
X6.4185Y-2.5894
X6.4295Y-3.5972
X6.4311Y-3.6472
X6.435Y-2.7744
X6.487Y-3.5961
X6.4886Y-3.6461
X6.5161Y-2.6882
X6.5185Y-2.5894
X6.5339Y-3.5941
X6.535Y-2.7744
X6.5752Y-3.5941
X6.5811Y-4.202
X6.5811Y-4.2575
X6.6051Y-2.6882
X6.6059Y-2.7736
X6.6075Y-2.5894
X6.6161Y-3.5941
X6.6551Y-4.2035
X6.6551Y-4.2559
X6.6583Y-3.5941
X6.6992Y-3.5941
X6.7051Y-2.6882
X6.7059Y-2.7736
X6.7075Y-2.5894
X6.7405Y-3.5951
X6.785Y-3.5961
X6.8051Y-2.6882
X6.8059Y-2.7736
X6.8075Y-2.5894
X6.8132Y-3.9555
X6.8134Y-3.9051
X6.9051Y-2.6882
X6.9059Y-2.7736
X6.9075Y-2.5894
X7.0354Y-3.939
X7.1087Y-3.3398
X7.1484Y-3.3386
X7.1878Y-3.6004
X7.1886Y-3.3409
X7.1906Y-3.737
X7.2213Y-3.3154
X7.2614Y-3.9504
X7.2622Y-3.3413
X7.2638Y-3.8516
X7.3614Y-3.9504
X7.3638Y-3.8516
X7.4614Y-3.9504
X7.4638Y-3.8516
X7.4713Y-4.2657
X7.4736Y-4.1669
X7.4858Y-2.6217
X7.4882Y-2.5228
X7.5614Y-3.9504
X7.5638Y-3.8516
X7.5713Y-4.2657
X7.5736Y-4.1669
X7.5858Y-2.6217
X7.5882Y-2.5228
X7.6256Y-3.7283
X7.6256Y-3.9504
X7.628Y-3.6295
X7.628Y-3.8516
X7.6713Y-4.2657
X7.6736Y-4.1669
X7.6858Y-2.6217
X7.6882Y-2.5228
X7.7256Y-3.7283
X7.7256Y-3.9504
X7.728Y-3.6295
X7.728Y-3.8516
X7.7713Y-4.2657
X7.7736Y-4.1669
X7.7858Y-2.6217
X7.7882Y-2.5228
X7.8256Y-3.7283
X7.8256Y-3.9504
X7.828Y-3.6295
X7.828Y-3.8516
X7.9256Y-3.7283
X7.9256Y-3.9504
X7.928Y-3.6295
X7.928Y-3.8516
X8.0102Y-3.628
X8.0102Y-3.728
X8.0181Y-2.8071
X8.0181Y-2.9071
X8.0181Y-3.0071
X8.0181Y-3.1071
X8.1091Y-3.6303
X8.1091Y-3.7303
X8.1169Y-2.8094
X8.1169Y-2.9094
X8.1169Y-3.0094
X8.1169Y-3.1094
T2
X5.4882Y-4.1622
X5.4894Y-2.6063
X5.5159Y-4.0954
X5.5159Y-4.229
X5.517Y-2.5395
X5.517Y-2.6731
X5.5827Y-4.0677
X5.5827Y-4.2567
X5.5839Y-2.5118
X5.5839Y-2.7008
X5.6495Y-4.0954
X5.6495Y-4.229
X5.6507Y-2.5395
X5.6507Y-2.6731
X5.6772Y-4.1622
X5.6783Y-2.6063
X7.9252Y-4.165
X7.9273Y-2.6054
X7.9529Y-4.0981
X7.9529Y-4.2318
X7.955Y-2.5386
X7.955Y-2.6722
X8.0197Y-4.0705
X8.0197Y-4.2594
X8.0218Y-2.5109
X8.0218Y-2.6999
X8.0865Y-4.0981
X8.0865Y-4.2318
X8.0886Y-2.5386
X8.0886Y-2.6722
X8.1142Y-4.165
X8.1163Y-2.6054
T3
X7.7239Y-2.9598
X7.9208Y-2.9598
T5
X6.5972Y-3.6783
X6.5976Y-3.8524
X6.5976Y-3.9524
X6.5976Y-4.0524
X6.6972Y-3.6783
T6
X6.9528Y-2.985
X6.9528Y-3.1996
X6.9528Y-3.4142
T7
X5.5827Y-4.1622
X5.5839Y-2.6063
X8.0197Y-4.165
X8.0218Y-2.6054
T4
G00X7.0531Y-2.6107
M15
G01X7.0531Y-2.6895
M16
G05
G00X7.2776Y-2.532
M15
G01X7.1988Y-2.532
M16
G05
G00X7.2874Y-2.7682
M15
G01X7.189Y-2.7682
M16
G05
M30
