%TF.GenerationSoftware,KiCad,Pcbnew,8.99.0-unknown-8ec1016ccf~178~ubuntu22.04.1*%
%TF.CreationDate,2024-05-09T20:44:09+05:30*%
%TF.ProjectId,HF-PA-v10,48462d50-412d-4763-9130-2e6b69636164,rev?*%
%TF.SameCoordinates,Original*%
%TF.FileFunction,Copper,L1,Top*%
%TF.FilePolarity,Positive*%
%FSLAX46Y46*%
G04 Gerber Fmt 4.6, Leading zero omitted, Abs format (unit mm)*
G04 Created by KiCad (PCBNEW 8.99.0-unknown-8ec1016ccf~178~ubuntu22.04.1) date 2024-05-09 20:44:09*
%MOMM*%
%LPD*%
G01*
G04 APERTURE LIST*
G04 Aperture macros list*
%AMRoundRect*
0 Rectangle with rounded corners*
0 $1 Rounding radius*
0 $2 $3 $4 $5 $6 $7 $8 $9 X,Y pos of 4 corners*
0 Add a 4 corners polygon primitive as box body*
4,1,4,$2,$3,$4,$5,$6,$7,$8,$9,$2,$3,0*
0 Add four circle primitives for the rounded corners*
1,1,$1+$1,$2,$3*
1,1,$1+$1,$4,$5*
1,1,$1+$1,$6,$7*
1,1,$1+$1,$8,$9*
0 Add four rect primitives between the rounded corners*
20,1,$1+$1,$2,$3,$4,$5,0*
20,1,$1+$1,$4,$5,$6,$7,0*
20,1,$1+$1,$6,$7,$8,$9,0*
20,1,$1+$1,$8,$9,$2,$3,0*%
G04 Aperture macros list end*
%TA.AperFunction,ComponentPad*%
%ADD10C,0.800000*%
%TD*%
%TA.AperFunction,ComponentPad*%
%ADD11C,6.400000*%
%TD*%
%TA.AperFunction,SMDPad,CuDef*%
%ADD12R,3.600000X1.270000*%
%TD*%
%TA.AperFunction,SMDPad,CuDef*%
%ADD13R,4.200000X1.350000*%
%TD*%
%TA.AperFunction,SMDPad,CuDef*%
%ADD14RoundRect,0.250000X-0.412500X-0.650000X0.412500X-0.650000X0.412500X0.650000X-0.412500X0.650000X0*%
%TD*%
%TA.AperFunction,ComponentPad*%
%ADD15O,4.400000X2.200000*%
%TD*%
%TA.AperFunction,ComponentPad*%
%ADD16O,4.000000X2.000000*%
%TD*%
%TA.AperFunction,ComponentPad*%
%ADD17O,2.000000X4.000000*%
%TD*%
%TA.AperFunction,SMDPad,CuDef*%
%ADD18RoundRect,0.250000X0.650000X-0.412500X0.650000X0.412500X-0.650000X0.412500X-0.650000X-0.412500X0*%
%TD*%
%TA.AperFunction,ComponentPad*%
%ADD19R,2.000000X1.905000*%
%TD*%
%TA.AperFunction,ComponentPad*%
%ADD20O,2.000000X1.905000*%
%TD*%
%TA.AperFunction,SMDPad,CuDef*%
%ADD21R,1.270000X3.600000*%
%TD*%
%TA.AperFunction,SMDPad,CuDef*%
%ADD22R,1.350000X4.200000*%
%TD*%
%TA.AperFunction,ComponentPad*%
%ADD23R,4.500000X2.500000*%
%TD*%
%TA.AperFunction,ComponentPad*%
%ADD24O,4.500000X2.500000*%
%TD*%
%TA.AperFunction,SMDPad,CuDef*%
%ADD25RoundRect,0.250000X0.412500X0.650000X-0.412500X0.650000X-0.412500X-0.650000X0.412500X-0.650000X0*%
%TD*%
%TA.AperFunction,ComponentPad*%
%ADD26R,2.200000X2.200000*%
%TD*%
%TA.AperFunction,ComponentPad*%
%ADD27O,2.200000X2.200000*%
%TD*%
%TA.AperFunction,SMDPad,CuDef*%
%ADD28RoundRect,0.162500X-0.837500X-0.162500X0.837500X-0.162500X0.837500X0.162500X-0.837500X0.162500X0*%
%TD*%
%TA.AperFunction,ComponentPad*%
%ADD29R,1.600000X1.600000*%
%TD*%
%TA.AperFunction,ComponentPad*%
%ADD30C,1.600000*%
%TD*%
%TA.AperFunction,SMDPad,CuDef*%
%ADD31R,5.500000X2.150000*%
%TD*%
%TA.AperFunction,SMDPad,CuDef*%
%ADD32RoundRect,0.250000X-0.650000X0.412500X-0.650000X-0.412500X0.650000X-0.412500X0.650000X0.412500X0*%
%TD*%
%TA.AperFunction,SMDPad,CuDef*%
%ADD33RoundRect,0.250000X-0.625000X0.400000X-0.625000X-0.400000X0.625000X-0.400000X0.625000X0.400000X0*%
%TD*%
%TA.AperFunction,ViaPad*%
%ADD34C,0.800000*%
%TD*%
%TA.AperFunction,Conductor*%
%ADD35C,0.750000*%
%TD*%
%TA.AperFunction,Conductor*%
%ADD36C,1.000000*%
%TD*%
%TA.AperFunction,Conductor*%
%ADD37C,1.500000*%
%TD*%
%TA.AperFunction,Conductor*%
%ADD38C,2.200000*%
%TD*%
G04 APERTURE END LIST*
D10*
%TO.P,H3,1,1*%
%TO.N,GND*%
X139400000Y-105720000D03*
X140102944Y-104022944D03*
X140102944Y-107417056D03*
X141800000Y-103320000D03*
D11*
X141800000Y-105720000D03*
D10*
X141800000Y-108120000D03*
X143497056Y-104022944D03*
X143497056Y-107417056D03*
X144200000Y-105720000D03*
%TD*%
D12*
%TO.P,RF_OUT1,1,In*%
%TO.N,Net-(RF_OUT1-In)*%
X205007500Y-84720000D03*
D13*
%TO.P,RF_OUT1,2,Ext*%
%TO.N,GND*%
X204807500Y-87545000D03*
X204807500Y-81895000D03*
%TD*%
D14*
%TO.P,C12,1*%
%TO.N,+VDC*%
X184757500Y-94920000D03*
%TO.P,C12,2*%
%TO.N,GND*%
X187882500Y-94920000D03*
%TD*%
D15*
%TO.P,Power1,1*%
%TO.N,+VDC*%
X183850000Y-70312500D03*
D16*
%TO.P,Power1,2*%
%TO.N,GND*%
X183850000Y-64312500D03*
D17*
%TO.P,Power1,3*%
%TO.N,unconnected-(Power1-Pad3)*%
X179150000Y-67312500D03*
%TD*%
D14*
%TO.P,C9,1*%
%TO.N,11.5V*%
X169887500Y-96320000D03*
%TO.P,C9,2*%
%TO.N,GND*%
X173012500Y-96320000D03*
%TD*%
D18*
%TO.P,C4,1*%
%TO.N,11.5V*%
X175110000Y-93962500D03*
%TO.P,C4,2*%
%TO.N,GND*%
X175110000Y-90837500D03*
%TD*%
D10*
%TO.P,H4,1,1*%
%TO.N,GND*%
X201300000Y-105790000D03*
X202002944Y-104092944D03*
X202002944Y-107487056D03*
X203700000Y-103390000D03*
D11*
X203700000Y-105790000D03*
D10*
X203700000Y-108190000D03*
X205397056Y-104092944D03*
X205397056Y-107487056D03*
X206100000Y-105790000D03*
%TD*%
D19*
%TO.P,U3,1,VI*%
%TO.N,+VDC*%
X167580000Y-102930000D03*
D20*
%TO.P,U3,2,GND*%
%TO.N,GND*%
X167580000Y-100390000D03*
%TO.P,U3,3,VO*%
%TO.N,Net-(D1-A)*%
X167580000Y-97850000D03*
%TD*%
D14*
%TO.P,C1,1*%
%TO.N,/DRAIN*%
X196177500Y-81260000D03*
%TO.P,C1,2*%
%TO.N,GND*%
X199302500Y-81260000D03*
%TD*%
D21*
%TO.P,RF_IN1,1,In*%
%TO.N,Net-(RF_IN1-In)*%
X175570000Y-107140000D03*
D22*
%TO.P,RF_IN1,2,Ext*%
%TO.N,GND*%
X172745000Y-106940000D03*
X178395000Y-106940000D03*
%TD*%
D23*
%TO.P,Q1,1,G*%
%TO.N,Net-(Q1-G)*%
X176600000Y-86720000D03*
D24*
%TO.P,Q1,2,D*%
%TO.N,/DRAIN*%
X176600000Y-81270000D03*
%TO.P,Q1,3,S*%
%TO.N,GND*%
X176600000Y-75820000D03*
%TD*%
D25*
%TO.P,C3,1*%
%TO.N,Net-(RF_OUT1-In)*%
X199330000Y-84750000D03*
%TO.P,C3,2*%
%TO.N,Net-(C3-Pad2)*%
X196205000Y-84750000D03*
%TD*%
D26*
%TO.P,D1,1,K*%
%TO.N,11.5V*%
X170110000Y-93430000D03*
D27*
%TO.P,D1,2,A*%
%TO.N,Net-(D1-A)*%
X167570000Y-93430000D03*
%TD*%
D28*
%TO.P,U2,1,VDD*%
%TO.N,11.5V*%
X175270000Y-96512500D03*
%TO.P,U2,2,GND*%
%TO.N,GND*%
X175270000Y-97462500D03*
%TO.P,U2,3,IN+*%
%TO.N,Net-(RF_IN1-In)*%
X175270000Y-98412500D03*
%TO.P,U2,4,IN-*%
%TO.N,GND*%
X178690000Y-98412500D03*
%TO.P,U2,5,OUT*%
%TO.N,Net-(U2-OUT)*%
X178690000Y-96512500D03*
%TD*%
D29*
%TO.P,C6,1*%
%TO.N,+VDC*%
X196187349Y-75180000D03*
D30*
%TO.P,C6,2*%
%TO.N,GND*%
X201187349Y-75180000D03*
%TD*%
D31*
%TO.P,T1,1*%
%TO.N,/DRAIN*%
X182460000Y-81275000D03*
%TO.P,T1,2*%
%TO.N,+VDC*%
X182460000Y-84705000D03*
%TO.P,T1,3*%
%TO.N,Net-(C3-Pad2)*%
X191960000Y-84705000D03*
%TO.P,T1,4*%
%TO.N,/DRAIN*%
X191960000Y-81275000D03*
%TD*%
D10*
%TO.P,H1,1,1*%
%TO.N,GND*%
X139430000Y-66200000D03*
X140132944Y-64502944D03*
X140132944Y-67897056D03*
X141830000Y-63800000D03*
D11*
X141830000Y-66200000D03*
D10*
X141830000Y-68600000D03*
X143527056Y-64502944D03*
X143527056Y-67897056D03*
X144230000Y-66200000D03*
%TD*%
D18*
%TO.P,C5,1*%
%TO.N,+VDC*%
X193040000Y-72862500D03*
%TO.P,C5,2*%
%TO.N,GND*%
X193040000Y-69737500D03*
%TD*%
D32*
%TO.P,C8,1*%
%TO.N,Net-(D1-A)*%
X170340000Y-98597500D03*
%TO.P,C8,2*%
%TO.N,GND*%
X170340000Y-101722500D03*
%TD*%
D18*
%TO.P,C10,1*%
%TO.N,+VDC*%
X190550000Y-72862500D03*
%TO.P,C10,2*%
%TO.N,GND*%
X190550000Y-69737500D03*
%TD*%
D10*
%TO.P,H2,1,1*%
%TO.N,GND*%
X201352944Y-66177944D03*
X202055888Y-64480888D03*
X202055888Y-67875000D03*
X203752944Y-63777944D03*
D11*
X203752944Y-66177944D03*
D10*
X203752944Y-68577944D03*
X205450000Y-64480888D03*
X205450000Y-67875000D03*
X206152944Y-66177944D03*
%TD*%
D33*
%TO.P,R2,1*%
%TO.N,Net-(Q1-G)*%
X177860000Y-90840000D03*
%TO.P,R2,2*%
%TO.N,Net-(U2-OUT)*%
X177860000Y-93940000D03*
%TD*%
%TO.P,R3,1*%
%TO.N,Net-(Q1-G)*%
X180300000Y-90870000D03*
%TO.P,R3,2*%
%TO.N,GND*%
X180300000Y-93970000D03*
%TD*%
D14*
%TO.P,C2,1*%
%TO.N,+VDC*%
X184770000Y-91410000D03*
%TO.P,C2,2*%
%TO.N,GND*%
X187895000Y-91410000D03*
%TD*%
D34*
%TO.N,GND*%
X143980000Y-76400000D03*
X197820000Y-64080000D03*
X164810000Y-92610000D03*
X141680000Y-98740000D03*
X143980000Y-71320000D03*
X141470000Y-89050000D03*
X157950000Y-65770000D03*
X141470000Y-76340000D03*
X201370000Y-97830000D03*
X167160000Y-106730000D03*
X192740000Y-64080000D03*
X190140000Y-66590000D03*
X167830000Y-65770000D03*
X163310000Y-91370000D03*
X175450000Y-65770000D03*
X153280000Y-70470000D03*
X198830000Y-97830000D03*
X150850000Y-65770000D03*
X165990000Y-70470000D03*
X172340000Y-91340000D03*
X192060000Y-100340000D03*
X190200000Y-64080000D03*
X206170000Y-78980000D03*
X164770000Y-91340000D03*
X195220000Y-66590000D03*
X193690000Y-100340000D03*
X192370000Y-105840000D03*
X153390000Y-65770000D03*
X168050000Y-91290000D03*
X187040000Y-97830000D03*
X201310000Y-100340000D03*
X172910000Y-65770000D03*
X147260000Y-91290000D03*
X196230000Y-94700000D03*
X203660000Y-76380000D03*
X147210000Y-92570000D03*
X193750000Y-97830000D03*
X189770000Y-108350000D03*
X141470000Y-78880000D03*
X198830000Y-92190000D03*
X196290000Y-97830000D03*
X152340000Y-91290000D03*
X203660000Y-71300000D03*
X155870000Y-68280000D03*
X144190000Y-96260000D03*
X157890000Y-68280000D03*
X172870000Y-70450000D03*
X197450000Y-105840000D03*
X160430000Y-68280000D03*
X167010000Y-91290000D03*
X205970000Y-92210000D03*
X203460000Y-94690000D03*
X169120000Y-91290000D03*
X161570000Y-92620000D03*
X196230000Y-100340000D03*
X206170000Y-76440000D03*
X148310000Y-65770000D03*
X163030000Y-65770000D03*
X163450000Y-70470000D03*
X143980000Y-86570000D03*
X165510000Y-68280000D03*
X167160000Y-108140000D03*
X169040000Y-108100000D03*
X195280000Y-64080000D03*
X196290000Y-92190000D03*
X171209837Y-91316574D03*
X150790000Y-68280000D03*
X203660000Y-73840000D03*
X141470000Y-86510000D03*
X144190000Y-98800000D03*
X154880000Y-91290000D03*
X161620000Y-91340000D03*
X193690000Y-94700000D03*
X192310000Y-108350000D03*
X175390000Y-68280000D03*
X201370000Y-92190000D03*
X141470000Y-73800000D03*
X197760000Y-66590000D03*
X154830000Y-92570000D03*
X148200000Y-70470000D03*
X170310000Y-68280000D03*
X141470000Y-83970000D03*
X143980000Y-78940000D03*
X143980000Y-81490000D03*
X192680000Y-66590000D03*
X205970000Y-94750000D03*
X170330000Y-70450000D03*
X170370000Y-65770000D03*
X197390000Y-108350000D03*
X141680000Y-101280000D03*
X184440000Y-100340000D03*
X159490000Y-92620000D03*
X149800000Y-91290000D03*
X178700000Y-100050000D03*
X170160000Y-91290000D03*
X175410000Y-70450000D03*
X184500000Y-97830000D03*
X152290000Y-92570000D03*
X194850000Y-108350000D03*
X189580000Y-97830000D03*
X162970000Y-68280000D03*
X150740000Y-70470000D03*
X155820000Y-70470000D03*
X167790000Y-70450000D03*
X167770000Y-68280000D03*
X143980000Y-73860000D03*
X159540000Y-91340000D03*
X144190000Y-101340000D03*
X173054721Y-100470673D03*
X160910000Y-70470000D03*
X206170000Y-71360000D03*
X173060000Y-99190000D03*
X160490000Y-65770000D03*
X201310000Y-94700000D03*
X157030000Y-91280000D03*
X163350000Y-92640000D03*
X143980000Y-84030000D03*
X149750000Y-92570000D03*
X189520000Y-100340000D03*
X141470000Y-81430000D03*
X203660000Y-78920000D03*
X155930000Y-65770000D03*
X169040000Y-106770000D03*
X198770000Y-100340000D03*
X165960000Y-91290000D03*
X206170000Y-73900000D03*
X141680000Y-93660000D03*
X148250000Y-68280000D03*
X141680000Y-96200000D03*
X198770000Y-94700000D03*
X144190000Y-93720000D03*
X193750000Y-92190000D03*
X141470000Y-71260000D03*
X165570000Y-65770000D03*
X143980000Y-89110000D03*
X153330000Y-68280000D03*
X203460000Y-92150000D03*
X172850000Y-68280000D03*
X192120000Y-97830000D03*
X189830000Y-105840000D03*
X194910000Y-105840000D03*
X186980000Y-100340000D03*
X156980000Y-92560000D03*
%TO.N,+VDC*%
X181570000Y-84800000D03*
X184460000Y-84870000D03*
X182570000Y-91450000D03*
X182640000Y-94920000D03*
X182590000Y-84860000D03*
X183420000Y-84210000D03*
X180560000Y-84830000D03*
%TD*%
D35*
%TO.N,GND*%
X170340000Y-101722500D02*
X169007500Y-100390000D01*
X174182500Y-97472500D02*
X173070000Y-96360000D01*
X169007500Y-100390000D02*
X167580000Y-100390000D01*
X175440000Y-97472500D02*
X174182500Y-97472500D01*
X175440000Y-97472500D02*
X174562514Y-97472500D01*
D36*
%TO.N,Net-(Q1-G)*%
X177630000Y-90490000D02*
X177930000Y-90790000D01*
X177860000Y-90840000D02*
X180270000Y-90840000D01*
X177630000Y-86870000D02*
X177630000Y-90490000D01*
D37*
%TO.N,/DRAIN*%
X191960000Y-81275000D02*
X196162500Y-81275000D01*
D38*
X176600000Y-81270000D02*
X182455000Y-81270000D01*
X182455000Y-81270000D02*
X182460000Y-81275000D01*
X182460000Y-81275000D02*
X191960000Y-81275000D01*
D37*
X196162500Y-81275000D02*
X196177500Y-81260000D01*
D38*
%TO.N,Net-(RF_OUT1-In)*%
X199330000Y-84750000D02*
X204977500Y-84750000D01*
D35*
%TO.N,Net-(D1-A)*%
X168327500Y-98597500D02*
X167580000Y-97850000D01*
X170340000Y-98597500D02*
X168327500Y-98597500D01*
X167580000Y-97850000D02*
X167580000Y-93600000D01*
D36*
%TO.N,11.5V*%
X170110000Y-93430000D02*
X174577500Y-93430000D01*
X174577500Y-93430000D02*
X175110000Y-93962500D01*
D35*
X175440000Y-94610000D02*
X175440000Y-96522500D01*
X170097500Y-96330000D02*
X170097500Y-93442500D01*
D36*
%TO.N,Net-(U2-OUT)*%
X177860000Y-93940000D02*
X177860000Y-95682500D01*
X177860000Y-95682500D02*
X178690000Y-96512500D01*
D35*
%TO.N,Net-(RF_IN1-In)*%
X175570000Y-98552500D02*
X175440000Y-98422500D01*
X175570000Y-107140000D02*
X175570000Y-98552500D01*
D38*
%TO.N,Net-(C3-Pad2)*%
X191960000Y-84705000D02*
X196160000Y-84705000D01*
D37*
%TO.N,+VDC*%
X186110000Y-75170000D02*
X184650000Y-75170000D01*
X193070000Y-75170000D02*
X191160000Y-75170000D01*
X186120000Y-75180000D02*
X196187349Y-75180000D01*
X191160000Y-75170000D02*
X190570000Y-75170000D01*
X183850000Y-74370000D02*
X183850000Y-70312500D01*
X183270000Y-70892500D02*
X183850000Y-70312500D01*
X186110000Y-75170000D02*
X186120000Y-75180000D01*
X190550000Y-72862500D02*
X190550000Y-75150000D01*
X195330000Y-75170000D02*
X193070000Y-75170000D01*
X182640000Y-94920000D02*
X184757500Y-94920000D01*
X192270000Y-75170000D02*
X192280000Y-75180000D01*
X193040000Y-72862500D02*
X193040000Y-75140000D01*
X186560000Y-70312500D02*
X186600000Y-70352500D01*
X193040000Y-75140000D02*
X193070000Y-75170000D01*
X191160000Y-75170000D02*
X192270000Y-75170000D01*
X182570000Y-91450000D02*
X184730000Y-91450000D01*
X190570000Y-75170000D02*
X186110000Y-75170000D01*
X183850000Y-70312500D02*
X186560000Y-70312500D01*
X190550000Y-75150000D02*
X190570000Y-75170000D01*
X184650000Y-75170000D02*
X183850000Y-74370000D01*
%TD*%
%TA.AperFunction,Conductor*%
%TO.N,GND*%
G36*
X139891004Y-107275442D02*
G01*
X139852944Y-107367328D01*
X139852944Y-107466784D01*
X139891004Y-107558670D01*
X139961330Y-107628996D01*
X140053216Y-107667056D01*
X140152672Y-107667056D01*
X140244554Y-107628997D01*
X139364648Y-108508903D01*
X139364649Y-108508904D01*
X139622206Y-108717468D01*
X139947456Y-108928689D01*
X140146319Y-109030015D01*
X140197115Y-109077989D01*
X140213910Y-109145810D01*
X140191373Y-109211945D01*
X140136658Y-109255397D01*
X140090024Y-109264500D01*
X138457869Y-109264500D01*
X138390830Y-109244815D01*
X138345075Y-109192011D01*
X138333870Y-109140927D01*
X138330501Y-108161633D01*
X138330500Y-108161206D01*
X138330500Y-107577172D01*
X138350185Y-107510133D01*
X138402989Y-107464378D01*
X138472147Y-107454434D01*
X138535703Y-107483459D01*
X138564985Y-107520877D01*
X138591310Y-107572543D01*
X138802531Y-107897793D01*
X139011095Y-108155350D01*
X139011096Y-108155350D01*
X139891004Y-107275442D01*
G37*
%TD.AperFunction*%
%TA.AperFunction,Conductor*%
G36*
X201842875Y-62797848D02*
G01*
X201888681Y-62850607D01*
X201898692Y-62919756D01*
X201869729Y-62983340D01*
X201843473Y-63006223D01*
X201575146Y-63180478D01*
X201317592Y-63389039D01*
X201317592Y-63389040D01*
X202197499Y-64268946D01*
X202105616Y-64230888D01*
X202006160Y-64230888D01*
X201914274Y-64268948D01*
X201843948Y-64339274D01*
X201805888Y-64431160D01*
X201805888Y-64530616D01*
X201843946Y-64622498D01*
X200964040Y-63742592D01*
X200964039Y-63742592D01*
X200755475Y-64000150D01*
X200544254Y-64325400D01*
X200368188Y-64670949D01*
X200229206Y-65033007D01*
X200128831Y-65407613D01*
X200128830Y-65407620D01*
X200068163Y-65790656D01*
X200047866Y-66177943D01*
X200047866Y-66177944D01*
X200068163Y-66565231D01*
X200128830Y-66948267D01*
X200128831Y-66948274D01*
X200229206Y-67322880D01*
X200368188Y-67684938D01*
X200544254Y-68030487D01*
X200755475Y-68355737D01*
X200964039Y-68613294D01*
X200964040Y-68613294D01*
X201843948Y-67733386D01*
X201805888Y-67825272D01*
X201805888Y-67924728D01*
X201843948Y-68016614D01*
X201914274Y-68086940D01*
X202006160Y-68125000D01*
X202105616Y-68125000D01*
X202197498Y-68086941D01*
X201317592Y-68966847D01*
X201317593Y-68966848D01*
X201575150Y-69175412D01*
X201900400Y-69386633D01*
X202245949Y-69562699D01*
X202608007Y-69701681D01*
X202982613Y-69802056D01*
X202982620Y-69802057D01*
X203365656Y-69862724D01*
X203752943Y-69883022D01*
X203752945Y-69883022D01*
X204140231Y-69862724D01*
X204523267Y-69802057D01*
X204523274Y-69802056D01*
X204897880Y-69701681D01*
X205259938Y-69562699D01*
X205605487Y-69386633D01*
X205930727Y-69175420D01*
X205930729Y-69175419D01*
X206188293Y-68966846D01*
X205308387Y-68086940D01*
X205400272Y-68125000D01*
X205499728Y-68125000D01*
X205591614Y-68086940D01*
X205661940Y-68016614D01*
X205700000Y-67924728D01*
X205700000Y-67825272D01*
X205661940Y-67733387D01*
X206541846Y-68613293D01*
X206750419Y-68355729D01*
X206750419Y-68355727D01*
X206950381Y-68047814D01*
X207003402Y-68002311D01*
X207072607Y-67992697D01*
X207136024Y-68022024D01*
X207173518Y-68080981D01*
X207178375Y-68114922D01*
X207199499Y-74255603D01*
X207199500Y-74256030D01*
X207199500Y-80616668D01*
X207179815Y-80683707D01*
X207127011Y-80729462D01*
X207057853Y-80739406D01*
X207032171Y-80732851D01*
X207014885Y-80726404D01*
X207014872Y-80726401D01*
X206955344Y-80720000D01*
X205057500Y-80720000D01*
X205057500Y-82021000D01*
X205037815Y-82088039D01*
X204985011Y-82133794D01*
X204933500Y-82145000D01*
X202207500Y-82145000D01*
X202207500Y-82617844D01*
X202213901Y-82677372D01*
X202213903Y-82677379D01*
X202264145Y-82812086D01*
X202264149Y-82812093D01*
X202350309Y-82927187D01*
X202356582Y-82933460D01*
X202355359Y-82934682D01*
X202390906Y-82982166D01*
X202395890Y-83051858D01*
X202362406Y-83113181D01*
X202301083Y-83146666D01*
X202274724Y-83149500D01*
X199204038Y-83149500D01*
X199079626Y-83169205D01*
X198955214Y-83188910D01*
X198715616Y-83266760D01*
X198491151Y-83381132D01*
X198287350Y-83529201D01*
X198287345Y-83529205D01*
X198109205Y-83707345D01*
X198109201Y-83707350D01*
X197961129Y-83911155D01*
X197961128Y-83911156D01*
X197866893Y-84096101D01*
X197818919Y-84146897D01*
X197751098Y-84163692D01*
X197684963Y-84141154D01*
X197647286Y-84094027D01*
X197645453Y-84094962D01*
X197615985Y-84037128D01*
X197528870Y-83866155D01*
X197509952Y-83840117D01*
X197380798Y-83662350D01*
X197380794Y-83662345D01*
X197202654Y-83484205D01*
X197202649Y-83484201D01*
X196998848Y-83336132D01*
X196998847Y-83336131D01*
X196998845Y-83336130D01*
X196862697Y-83266759D01*
X196774383Y-83221760D01*
X196534785Y-83143910D01*
X196443811Y-83129501D01*
X196285962Y-83104500D01*
X192215677Y-83104500D01*
X192148638Y-83084815D01*
X192102883Y-83032011D01*
X192092939Y-82962853D01*
X192121964Y-82899297D01*
X192180742Y-82861523D01*
X192196279Y-82858027D01*
X192234167Y-82852026D01*
X192253565Y-82850499D01*
X194757871Y-82850499D01*
X194757872Y-82850499D01*
X194817483Y-82844091D01*
X194952331Y-82793796D01*
X195049305Y-82721201D01*
X195093531Y-82700174D01*
X195440556Y-82613417D01*
X195509629Y-82616008D01*
X195612203Y-82649999D01*
X195714991Y-82660500D01*
X196640008Y-82660499D01*
X196640016Y-82660498D01*
X196640019Y-82660498D01*
X196696302Y-82654748D01*
X196742797Y-82649999D01*
X196909334Y-82594814D01*
X197058656Y-82502712D01*
X197182712Y-82378656D01*
X197274814Y-82229334D01*
X197329999Y-82062797D01*
X197340500Y-81960009D01*
X197340500Y-81959986D01*
X198140001Y-81959986D01*
X198150494Y-82062697D01*
X198205641Y-82229119D01*
X198205643Y-82229124D01*
X198297684Y-82378345D01*
X198421654Y-82502315D01*
X198570875Y-82594356D01*
X198570880Y-82594358D01*
X198737302Y-82649505D01*
X198737309Y-82649506D01*
X198840019Y-82659999D01*
X199052499Y-82659999D01*
X199552500Y-82659999D01*
X199764972Y-82659999D01*
X199764986Y-82659998D01*
X199867697Y-82649505D01*
X200034119Y-82594358D01*
X200034124Y-82594356D01*
X200183345Y-82502315D01*
X200307315Y-82378345D01*
X200399356Y-82229124D01*
X200399358Y-82229119D01*
X200454505Y-82062697D01*
X200454506Y-82062690D01*
X200464999Y-81959986D01*
X200465000Y-81959973D01*
X200465000Y-81510000D01*
X199552500Y-81510000D01*
X199552500Y-82659999D01*
X199052499Y-82659999D01*
X199052500Y-82659998D01*
X199052500Y-81510000D01*
X198140001Y-81510000D01*
X198140001Y-81959986D01*
X197340500Y-81959986D01*
X197340499Y-81746998D01*
X197346568Y-81708679D01*
X197397209Y-81552826D01*
X197423832Y-81384734D01*
X197428000Y-81358422D01*
X197428000Y-81172155D01*
X202207500Y-81172155D01*
X202207500Y-81645000D01*
X204557500Y-81645000D01*
X204557500Y-80720000D01*
X202659655Y-80720000D01*
X202600127Y-80726401D01*
X202600120Y-80726403D01*
X202465413Y-80776645D01*
X202465406Y-80776649D01*
X202350312Y-80862809D01*
X202350309Y-80862812D01*
X202264149Y-80977906D01*
X202264145Y-80977913D01*
X202213903Y-81112620D01*
X202213901Y-81112627D01*
X202207500Y-81172155D01*
X197428000Y-81172155D01*
X197428000Y-81161578D01*
X197397209Y-80967173D01*
X197346568Y-80811318D01*
X197340499Y-80772999D01*
X197340499Y-80560013D01*
X198140000Y-80560013D01*
X198140000Y-81010000D01*
X199052500Y-81010000D01*
X199552500Y-81010000D01*
X200464999Y-81010000D01*
X200464999Y-80560028D01*
X200464998Y-80560013D01*
X200454505Y-80457302D01*
X200399358Y-80290880D01*
X200399356Y-80290875D01*
X200307315Y-80141654D01*
X200183345Y-80017684D01*
X200034124Y-79925643D01*
X200034119Y-79925641D01*
X199867697Y-79870494D01*
X199867690Y-79870493D01*
X199764986Y-79860000D01*
X199552500Y-79860000D01*
X199552500Y-81010000D01*
X199052500Y-81010000D01*
X199052500Y-79860000D01*
X198840029Y-79860000D01*
X198840012Y-79860001D01*
X198737302Y-79870494D01*
X198570880Y-79925641D01*
X198570875Y-79925643D01*
X198421654Y-80017684D01*
X198297684Y-80141654D01*
X198205643Y-80290875D01*
X198205641Y-80290880D01*
X198150494Y-80457302D01*
X198150493Y-80457309D01*
X198140000Y-80560013D01*
X197340499Y-80560013D01*
X197340499Y-80559998D01*
X197340498Y-80559981D01*
X197329999Y-80457203D01*
X197329998Y-80457200D01*
X197306984Y-80387748D01*
X197274814Y-80290666D01*
X197182712Y-80141344D01*
X197058656Y-80017288D01*
X196909334Y-79925186D01*
X196742797Y-79870001D01*
X196742795Y-79870000D01*
X196640010Y-79859500D01*
X195714998Y-79859500D01*
X195714980Y-79859501D01*
X195612203Y-79870000D01*
X195612200Y-79870001D01*
X195458032Y-79921088D01*
X195388954Y-79923680D01*
X195093538Y-79849826D01*
X195049301Y-79828795D01*
X194952331Y-79756204D01*
X194952328Y-79756202D01*
X194817482Y-79705908D01*
X194817483Y-79705908D01*
X194757883Y-79699501D01*
X194757881Y-79699500D01*
X194757873Y-79699500D01*
X194757865Y-79699500D01*
X192253564Y-79699500D01*
X192234166Y-79697973D01*
X192085967Y-79674500D01*
X192085962Y-79674500D01*
X182622289Y-79674500D01*
X182602891Y-79672973D01*
X182592420Y-79671314D01*
X182580964Y-79669500D01*
X182580962Y-79669500D01*
X178334993Y-79669500D01*
X178287540Y-79660061D01*
X178163896Y-79608845D01*
X178163889Y-79608843D01*
X178163887Y-79608842D01*
X177942238Y-79549452D01*
X177904215Y-79544446D01*
X177714741Y-79519500D01*
X177714734Y-79519500D01*
X175485266Y-79519500D01*
X175485258Y-79519500D01*
X175268715Y-79548009D01*
X175257762Y-79549452D01*
X175164076Y-79574554D01*
X175036112Y-79608842D01*
X174824123Y-79696650D01*
X174824109Y-79696657D01*
X174625382Y-79811392D01*
X174443338Y-79951081D01*
X174281081Y-80113338D01*
X174141392Y-80295382D01*
X174026657Y-80494109D01*
X174026650Y-80494123D01*
X173938842Y-80706112D01*
X173879453Y-80927759D01*
X173879451Y-80927770D01*
X173849500Y-81155258D01*
X173849500Y-81384741D01*
X173865992Y-81510000D01*
X173879452Y-81612238D01*
X173905293Y-81708679D01*
X173938842Y-81833887D01*
X174026650Y-82045876D01*
X174026657Y-82045890D01*
X174036361Y-82062697D01*
X174132569Y-82229336D01*
X174141392Y-82244617D01*
X174281081Y-82426661D01*
X174281089Y-82426670D01*
X174443330Y-82588911D01*
X174443338Y-82588918D01*
X174443339Y-82588919D01*
X174463891Y-82604689D01*
X174625382Y-82728607D01*
X174625385Y-82728608D01*
X174625388Y-82728611D01*
X174824112Y-82843344D01*
X174824117Y-82843346D01*
X174824123Y-82843349D01*
X174901743Y-82875500D01*
X175036113Y-82931158D01*
X175257762Y-82990548D01*
X175485266Y-83020500D01*
X175485273Y-83020500D01*
X177714727Y-83020500D01*
X177714734Y-83020500D01*
X177942238Y-82990548D01*
X178163887Y-82931158D01*
X178287540Y-82879938D01*
X178334993Y-82870500D01*
X182292711Y-82870500D01*
X182312108Y-82872026D01*
X182322579Y-82873685D01*
X182334036Y-82875500D01*
X191704317Y-82875500D01*
X191771356Y-82895185D01*
X191817111Y-82947989D01*
X191827055Y-83017147D01*
X191798030Y-83080703D01*
X191739252Y-83118477D01*
X191723715Y-83121973D01*
X191685832Y-83127973D01*
X191666434Y-83129500D01*
X189162129Y-83129500D01*
X189162123Y-83129501D01*
X189102516Y-83135908D01*
X188967671Y-83186202D01*
X188967664Y-83186206D01*
X188852455Y-83272452D01*
X188852452Y-83272455D01*
X188766206Y-83387664D01*
X188766202Y-83387671D01*
X188715908Y-83522517D01*
X188711361Y-83564815D01*
X188709501Y-83582123D01*
X188709500Y-83582135D01*
X188709500Y-85827870D01*
X188709501Y-85827876D01*
X188715908Y-85887483D01*
X188766202Y-86022328D01*
X188766206Y-86022335D01*
X188852452Y-86137544D01*
X188852455Y-86137547D01*
X188967664Y-86223793D01*
X188967671Y-86223797D01*
X189102517Y-86274091D01*
X189102516Y-86274091D01*
X189109444Y-86274835D01*
X189162127Y-86280500D01*
X191666434Y-86280499D01*
X191685832Y-86282026D01*
X191746582Y-86291648D01*
X191834038Y-86305500D01*
X191834039Y-86305500D01*
X196285961Y-86305500D01*
X196285962Y-86305500D01*
X196534785Y-86266090D01*
X196774379Y-86188241D01*
X196998845Y-86073870D01*
X197202656Y-85925793D01*
X197380793Y-85747656D01*
X197528870Y-85543845D01*
X197623105Y-85358897D01*
X197671080Y-85308102D01*
X197738900Y-85291307D01*
X197805035Y-85313844D01*
X197842725Y-85360966D01*
X197844547Y-85360038D01*
X197846759Y-85364379D01*
X197938201Y-85543845D01*
X197961132Y-85588848D01*
X198109201Y-85792649D01*
X198109205Y-85792654D01*
X198287345Y-85970794D01*
X198287350Y-85970798D01*
X198465117Y-86099952D01*
X198491155Y-86118870D01*
X198634184Y-86191747D01*
X198715616Y-86233239D01*
X198715618Y-86233239D01*
X198715621Y-86233241D01*
X198955215Y-86311090D01*
X199204038Y-86350500D01*
X199204039Y-86350500D01*
X202224095Y-86350500D01*
X202291134Y-86370185D01*
X202336889Y-86422989D01*
X202346833Y-86492147D01*
X202323361Y-86548812D01*
X202264147Y-86627910D01*
X202264145Y-86627913D01*
X202213903Y-86762620D01*
X202213901Y-86762627D01*
X202207500Y-86822155D01*
X202207500Y-87295000D01*
X204933500Y-87295000D01*
X205000539Y-87314685D01*
X205046294Y-87367489D01*
X205057500Y-87419000D01*
X205057500Y-88720000D01*
X206955328Y-88720000D01*
X206955344Y-88719999D01*
X207014872Y-88713598D01*
X207014878Y-88713597D01*
X207032162Y-88707150D01*
X207101854Y-88702163D01*
X207163178Y-88735646D01*
X207196665Y-88796968D01*
X207199500Y-88823330D01*
X207199500Y-103991706D01*
X207179815Y-104058745D01*
X207127011Y-104104500D01*
X207057853Y-104114444D01*
X206994297Y-104085419D01*
X206965015Y-104048001D01*
X206908689Y-103937456D01*
X206697468Y-103612206D01*
X206488904Y-103354649D01*
X206488903Y-103354648D01*
X205608997Y-104234553D01*
X205647056Y-104142672D01*
X205647056Y-104043216D01*
X205608996Y-103951330D01*
X205538670Y-103881004D01*
X205446784Y-103842944D01*
X205347328Y-103842944D01*
X205255443Y-103881003D01*
X206135350Y-103001096D01*
X206135350Y-103001095D01*
X205877793Y-102792531D01*
X205552543Y-102581310D01*
X205206994Y-102405244D01*
X204844936Y-102266262D01*
X204470330Y-102165887D01*
X204470323Y-102165886D01*
X204087287Y-102105219D01*
X203700001Y-102084922D01*
X203699999Y-102084922D01*
X203312712Y-102105219D01*
X202929676Y-102165886D01*
X202929669Y-102165887D01*
X202555063Y-102266262D01*
X202193005Y-102405244D01*
X201847456Y-102581310D01*
X201522206Y-102792531D01*
X201264648Y-103001095D01*
X201264648Y-103001096D01*
X202144555Y-103881002D01*
X202052672Y-103842944D01*
X201953216Y-103842944D01*
X201861330Y-103881004D01*
X201791004Y-103951330D01*
X201752944Y-104043216D01*
X201752944Y-104142672D01*
X201791002Y-104234554D01*
X200911096Y-103354648D01*
X200911095Y-103354648D01*
X200702531Y-103612206D01*
X200491310Y-103937456D01*
X200315244Y-104283005D01*
X200176262Y-104645063D01*
X200075887Y-105019669D01*
X200075886Y-105019676D01*
X200015219Y-105402712D01*
X199994922Y-105789999D01*
X199994922Y-105790000D01*
X200015219Y-106177287D01*
X200075886Y-106560323D01*
X200075887Y-106560330D01*
X200176262Y-106934936D01*
X200315244Y-107296994D01*
X200491310Y-107642543D01*
X200702531Y-107967793D01*
X200911095Y-108225350D01*
X200911096Y-108225350D01*
X201791004Y-107345442D01*
X201752944Y-107437328D01*
X201752944Y-107536784D01*
X201791004Y-107628670D01*
X201861330Y-107698996D01*
X201953216Y-107737056D01*
X202052672Y-107737056D01*
X202144554Y-107698997D01*
X201264648Y-108578903D01*
X201264649Y-108578904D01*
X201522206Y-108787468D01*
X201847456Y-108998689D01*
X201908936Y-109030015D01*
X201959732Y-109077989D01*
X201976527Y-109145810D01*
X201953990Y-109211945D01*
X201899275Y-109255397D01*
X201852641Y-109264500D01*
X179689052Y-109264500D01*
X179622013Y-109244815D01*
X179576258Y-109192011D01*
X179565763Y-109127244D01*
X179569999Y-109087844D01*
X179570000Y-109087827D01*
X179570000Y-107190000D01*
X177220000Y-107190000D01*
X177220000Y-109087844D01*
X177224237Y-109127244D01*
X177211832Y-109196004D01*
X177164222Y-109247141D01*
X177100948Y-109264500D01*
X176796742Y-109264500D01*
X176729703Y-109244815D01*
X176683948Y-109192011D01*
X176674004Y-109122853D01*
X176680560Y-109097166D01*
X176684037Y-109087844D01*
X176699091Y-109047483D01*
X176705500Y-108987873D01*
X176705499Y-105367384D01*
X176706362Y-105352779D01*
X176708863Y-105331692D01*
X176708857Y-105331463D01*
X176708657Y-105323370D01*
X176706132Y-105283890D01*
X176705569Y-105281649D01*
X176702554Y-105264734D01*
X176699091Y-105232520D01*
X176699091Y-105232517D01*
X176683631Y-105191066D01*
X176679540Y-105177908D01*
X176671117Y-105144336D01*
X176526917Y-104792155D01*
X177220000Y-104792155D01*
X177220000Y-106690000D01*
X178145000Y-106690000D01*
X178645000Y-106690000D01*
X179570000Y-106690000D01*
X179570000Y-104792172D01*
X179569999Y-104792155D01*
X179563598Y-104732627D01*
X179563596Y-104732620D01*
X179513354Y-104597913D01*
X179513350Y-104597906D01*
X179427190Y-104482812D01*
X179427187Y-104482809D01*
X179312093Y-104396649D01*
X179312086Y-104396645D01*
X179177379Y-104346403D01*
X179177372Y-104346401D01*
X179117844Y-104340000D01*
X178645000Y-104340000D01*
X178645000Y-106690000D01*
X178145000Y-106690000D01*
X178145000Y-104340000D01*
X177672155Y-104340000D01*
X177612627Y-104346401D01*
X177612620Y-104346403D01*
X177477913Y-104396645D01*
X177477906Y-104396649D01*
X177362812Y-104482809D01*
X177362809Y-104482812D01*
X177276649Y-104597906D01*
X177276645Y-104597913D01*
X177226403Y-104732620D01*
X177226401Y-104732627D01*
X177220000Y-104792155D01*
X176526917Y-104792155D01*
X176454746Y-104615891D01*
X176445500Y-104568908D01*
X176445500Y-99215338D01*
X176465185Y-99148299D01*
X176505351Y-99109221D01*
X176519388Y-99100736D01*
X176633236Y-98986888D01*
X176716531Y-98849102D01*
X176764430Y-98695387D01*
X176767419Y-98662500D01*
X177193085Y-98662500D01*
X177196064Y-98695292D01*
X177196067Y-98695302D01*
X177243927Y-98848892D01*
X177327163Y-98986580D01*
X177440919Y-99100336D01*
X177578603Y-99183570D01*
X177732207Y-99231434D01*
X177798957Y-99237500D01*
X178440000Y-99237500D01*
X178940000Y-99237500D01*
X179581043Y-99237500D01*
X179647792Y-99231434D01*
X179801396Y-99183570D01*
X179939080Y-99100336D01*
X180052836Y-98986580D01*
X180136072Y-98848892D01*
X180183932Y-98695302D01*
X180183935Y-98695292D01*
X180186914Y-98662500D01*
X178940000Y-98662500D01*
X178940000Y-99237500D01*
X178440000Y-99237500D01*
X178440000Y-98662500D01*
X177193085Y-98662500D01*
X176767419Y-98662500D01*
X176770500Y-98628591D01*
X176770499Y-98196410D01*
X176770499Y-98196409D01*
X176770499Y-98196401D01*
X176764431Y-98129617D01*
X176764429Y-98129609D01*
X176715799Y-97973549D01*
X176714647Y-97903688D01*
X176715799Y-97899767D01*
X176763933Y-97745299D01*
X176763935Y-97745292D01*
X176766914Y-97712500D01*
X176534496Y-97712500D01*
X176470346Y-97694617D01*
X176381602Y-97640969D01*
X176227887Y-97593070D01*
X176227885Y-97593069D01*
X176227883Y-97593069D01*
X176181117Y-97588819D01*
X176161091Y-97587000D01*
X176161088Y-97587000D01*
X175781251Y-97587000D01*
X175714212Y-97567315D01*
X175668457Y-97514511D01*
X175658513Y-97445353D01*
X175687538Y-97381797D01*
X175733788Y-97348443D01*
X175736205Y-97347441D01*
X175783667Y-97337999D01*
X176161097Y-97337999D01*
X176227882Y-97331931D01*
X176227885Y-97331930D01*
X176227887Y-97331930D01*
X176381602Y-97284031D01*
X176470346Y-97230382D01*
X176534496Y-97212500D01*
X176766915Y-97212500D01*
X176766914Y-97212499D01*
X176763935Y-97179707D01*
X176763933Y-97179700D01*
X176715799Y-97025232D01*
X176714647Y-96955371D01*
X176715799Y-96951451D01*
X176716532Y-96949098D01*
X176764430Y-96795387D01*
X176770500Y-96728591D01*
X176770499Y-96296410D01*
X176770499Y-96296409D01*
X176770499Y-96296402D01*
X176767936Y-96268197D01*
X176781473Y-96199652D01*
X176829920Y-96149306D01*
X176897894Y-96133145D01*
X176963816Y-96156299D01*
X176994529Y-96188085D01*
X177082859Y-96320280D01*
X177082860Y-96320281D01*
X177082861Y-96320282D01*
X177153182Y-96390603D01*
X177186666Y-96451924D01*
X177189500Y-96478283D01*
X177189500Y-96728598D01*
X177195568Y-96795382D01*
X177195571Y-96795393D01*
X177243467Y-96949098D01*
X177243468Y-96949100D01*
X177243469Y-96949102D01*
X177326764Y-97086888D01*
X177326766Y-97086891D01*
X177440608Y-97200733D01*
X177440610Y-97200734D01*
X177440612Y-97200736D01*
X177578398Y-97284031D01*
X177732113Y-97331930D01*
X177798909Y-97338000D01*
X178086980Y-97337999D01*
X178154019Y-97357683D01*
X178155845Y-97358880D01*
X178158106Y-97360390D01*
X178202917Y-97413996D01*
X178211633Y-97483320D01*
X178181486Y-97546351D01*
X178122047Y-97583078D01*
X178089227Y-97587500D01*
X177798957Y-97587500D01*
X177732207Y-97593565D01*
X177578603Y-97641429D01*
X177440919Y-97724663D01*
X177327163Y-97838419D01*
X177243927Y-97976107D01*
X177196067Y-98129697D01*
X177196064Y-98129707D01*
X177193085Y-98162499D01*
X177193085Y-98162500D01*
X180186915Y-98162500D01*
X180186914Y-98162499D01*
X180183935Y-98129707D01*
X180183932Y-98129697D01*
X180136072Y-97976107D01*
X180052836Y-97838419D01*
X179939080Y-97724663D01*
X179801396Y-97641429D01*
X179647792Y-97593565D01*
X179581043Y-97587500D01*
X179290773Y-97587500D01*
X179223734Y-97567815D01*
X179177979Y-97515011D01*
X179168035Y-97445853D01*
X179197060Y-97382297D01*
X179221874Y-97360404D01*
X179224120Y-97358903D01*
X179290795Y-97338019D01*
X179293019Y-97337999D01*
X179581097Y-97337999D01*
X179647882Y-97331931D01*
X179647885Y-97331930D01*
X179647887Y-97331930D01*
X179801602Y-97284031D01*
X179939388Y-97200736D01*
X180053236Y-97086888D01*
X180136531Y-96949102D01*
X180184430Y-96795387D01*
X180190500Y-96728591D01*
X180190499Y-96296410D01*
X180190499Y-96296409D01*
X180190499Y-96296401D01*
X180184431Y-96229617D01*
X180184428Y-96229606D01*
X180136532Y-96075901D01*
X180136531Y-96075900D01*
X180136531Y-96075898D01*
X180053236Y-95938112D01*
X180053234Y-95938110D01*
X180053233Y-95938108D01*
X179939391Y-95824266D01*
X179801602Y-95740969D01*
X179781314Y-95734647D01*
X179647887Y-95693070D01*
X179647885Y-95693069D01*
X179647883Y-95693069D01*
X179601117Y-95688819D01*
X179581091Y-95687000D01*
X179581088Y-95687000D01*
X179330782Y-95687000D01*
X179263743Y-95667315D01*
X179243101Y-95650681D01*
X178918485Y-95326065D01*
X178885000Y-95264742D01*
X178885295Y-95210702D01*
X178939603Y-94973572D01*
X178972791Y-94913577D01*
X178977672Y-94908696D01*
X179038995Y-94875211D01*
X179108687Y-94880195D01*
X179153033Y-94908695D01*
X179206654Y-94962315D01*
X179355875Y-95054356D01*
X179355880Y-95054358D01*
X179522302Y-95109505D01*
X179522309Y-95109506D01*
X179625019Y-95119999D01*
X180049999Y-95119999D01*
X180550000Y-95119999D01*
X180974972Y-95119999D01*
X180974986Y-95119998D01*
X181077695Y-95109506D01*
X181249026Y-95052731D01*
X181318854Y-95050329D01*
X181378897Y-95086060D01*
X181410090Y-95148580D01*
X181410504Y-95151038D01*
X181420291Y-95212827D01*
X181481117Y-95400029D01*
X181547047Y-95529423D01*
X181570476Y-95575405D01*
X181686172Y-95734646D01*
X181825354Y-95873828D01*
X181984595Y-95989524D01*
X182059846Y-96027866D01*
X182159970Y-96078882D01*
X182159972Y-96078882D01*
X182159975Y-96078884D01*
X182260317Y-96111487D01*
X182347173Y-96139709D01*
X182541578Y-96170500D01*
X182541583Y-96170500D01*
X183853804Y-96170500D01*
X183918900Y-96188961D01*
X184025659Y-96254810D01*
X184025660Y-96254810D01*
X184025666Y-96254814D01*
X184192203Y-96309999D01*
X184294991Y-96320500D01*
X185220008Y-96320499D01*
X185220016Y-96320498D01*
X185220019Y-96320498D01*
X185276302Y-96314748D01*
X185322797Y-96309999D01*
X185489334Y-96254814D01*
X185638656Y-96162712D01*
X185762712Y-96038656D01*
X185854814Y-95889334D01*
X185909999Y-95722797D01*
X185920500Y-95620009D01*
X185920500Y-95619986D01*
X186720001Y-95619986D01*
X186730494Y-95722697D01*
X186785641Y-95889119D01*
X186785643Y-95889124D01*
X186877684Y-96038345D01*
X187001654Y-96162315D01*
X187150875Y-96254356D01*
X187150880Y-96254358D01*
X187317302Y-96309505D01*
X187317309Y-96309506D01*
X187420019Y-96319999D01*
X187632499Y-96319999D01*
X188132500Y-96319999D01*
X188344972Y-96319999D01*
X188344986Y-96319998D01*
X188447697Y-96309505D01*
X188614119Y-96254358D01*
X188614124Y-96254356D01*
X188763345Y-96162315D01*
X188887315Y-96038345D01*
X188979356Y-95889124D01*
X188979358Y-95889119D01*
X189034505Y-95722697D01*
X189034506Y-95722690D01*
X189044999Y-95619986D01*
X189045000Y-95619973D01*
X189045000Y-95170000D01*
X188132500Y-95170000D01*
X188132500Y-96319999D01*
X187632499Y-96319999D01*
X187632500Y-96319998D01*
X187632500Y-95170000D01*
X186720001Y-95170000D01*
X186720001Y-95619986D01*
X185920500Y-95619986D01*
X185920499Y-95406997D01*
X185926568Y-95368678D01*
X185932353Y-95350875D01*
X185977209Y-95212826D01*
X185999121Y-95074479D01*
X186008000Y-95018422D01*
X186008000Y-94821577D01*
X185982341Y-94659575D01*
X185977209Y-94627174D01*
X185926568Y-94471318D01*
X185920499Y-94433000D01*
X185920499Y-94220013D01*
X186720000Y-94220013D01*
X186720000Y-94670000D01*
X187632500Y-94670000D01*
X188132500Y-94670000D01*
X189044999Y-94670000D01*
X189044999Y-94220028D01*
X189044998Y-94220013D01*
X189034505Y-94117302D01*
X188979358Y-93950880D01*
X188979356Y-93950875D01*
X188887315Y-93801654D01*
X188763345Y-93677684D01*
X188614124Y-93585643D01*
X188614119Y-93585641D01*
X188447697Y-93530494D01*
X188447690Y-93530493D01*
X188344986Y-93520000D01*
X188132500Y-93520000D01*
X188132500Y-94670000D01*
X187632500Y-94670000D01*
X187632500Y-93520000D01*
X187420029Y-93520000D01*
X187420012Y-93520001D01*
X187317302Y-93530494D01*
X187150880Y-93585641D01*
X187150875Y-93585643D01*
X187001654Y-93677684D01*
X186877684Y-93801654D01*
X186785643Y-93950875D01*
X186785641Y-93950880D01*
X186730494Y-94117302D01*
X186730493Y-94117309D01*
X186720000Y-94220013D01*
X185920499Y-94220013D01*
X185920499Y-94219998D01*
X185920498Y-94219981D01*
X185909999Y-94117203D01*
X185909998Y-94117200D01*
X185856530Y-93955845D01*
X185854814Y-93950666D01*
X185762712Y-93801344D01*
X185638656Y-93677288D01*
X185489334Y-93585186D01*
X185322797Y-93530001D01*
X185322795Y-93530000D01*
X185220010Y-93519500D01*
X184294998Y-93519500D01*
X184294980Y-93519501D01*
X184192203Y-93530000D01*
X184192200Y-93530001D01*
X184025668Y-93585185D01*
X184025659Y-93585189D01*
X183918900Y-93651039D01*
X183853804Y-93669500D01*
X182541578Y-93669500D01*
X182347173Y-93700290D01*
X182159970Y-93761117D01*
X181984594Y-93850476D01*
X181871885Y-93932365D01*
X181806078Y-93955845D01*
X181738024Y-93940020D01*
X181689329Y-93889914D01*
X181674999Y-93832047D01*
X181674999Y-93520028D01*
X181674998Y-93520013D01*
X181664505Y-93417302D01*
X181609358Y-93250880D01*
X181609356Y-93250875D01*
X181517315Y-93101654D01*
X181393345Y-92977684D01*
X181244124Y-92885643D01*
X181244119Y-92885641D01*
X181077697Y-92830494D01*
X181077690Y-92830493D01*
X180974986Y-92820000D01*
X180550000Y-92820000D01*
X180550000Y-95119999D01*
X180049999Y-95119999D01*
X180050000Y-95119998D01*
X180050000Y-92820000D01*
X179625028Y-92820000D01*
X179625012Y-92820001D01*
X179522302Y-92830494D01*
X179355880Y-92885641D01*
X179355875Y-92885643D01*
X179206656Y-92977682D01*
X179183033Y-93001306D01*
X179121709Y-93034790D01*
X179052017Y-93029804D01*
X179007672Y-93001304D01*
X178953657Y-92947289D01*
X178953656Y-92947288D01*
X178853710Y-92885641D01*
X178804336Y-92855187D01*
X178804331Y-92855185D01*
X178802862Y-92854698D01*
X178637797Y-92800001D01*
X178637795Y-92800000D01*
X178535010Y-92789500D01*
X177184998Y-92789500D01*
X177184981Y-92789501D01*
X177082203Y-92800000D01*
X177082200Y-92800001D01*
X176915668Y-92855185D01*
X176915663Y-92855187D01*
X176766342Y-92947289D01*
X176642287Y-93071344D01*
X176599953Y-93139978D01*
X176548004Y-93186702D01*
X176479042Y-93197923D01*
X176414960Y-93170079D01*
X176388876Y-93139976D01*
X176352712Y-93081344D01*
X176228657Y-92957289D01*
X176228656Y-92957288D01*
X176079334Y-92865186D01*
X175912797Y-92810001D01*
X175912795Y-92810000D01*
X175810016Y-92799500D01*
X175810009Y-92799500D01*
X175413283Y-92799500D01*
X175346244Y-92779815D01*
X175325606Y-92763185D01*
X175215282Y-92652861D01*
X175215281Y-92652860D01*
X175215280Y-92652859D01*
X175051420Y-92543371D01*
X175051407Y-92543364D01*
X174885472Y-92474633D01*
X174885467Y-92474631D01*
X174869340Y-92467950D01*
X174869329Y-92467947D01*
X174729365Y-92440107D01*
X174729364Y-92440106D01*
X174702703Y-92434803D01*
X174676042Y-92429500D01*
X174676041Y-92429500D01*
X172368604Y-92429500D01*
X172313150Y-92416409D01*
X171678908Y-92099288D01*
X171635096Y-92062690D01*
X171567546Y-91972454D01*
X171452331Y-91886204D01*
X171452329Y-91886203D01*
X171452328Y-91886202D01*
X171317482Y-91835908D01*
X171317483Y-91835908D01*
X171257883Y-91829501D01*
X171257881Y-91829500D01*
X171257873Y-91829500D01*
X171257864Y-91829500D01*
X168962129Y-91829500D01*
X168962123Y-91829501D01*
X168902516Y-91835908D01*
X168767671Y-91886202D01*
X168767664Y-91886206D01*
X168652455Y-91972452D01*
X168595072Y-92049105D01*
X168539138Y-92090976D01*
X168469446Y-92095959D01*
X168431016Y-92080520D01*
X168298859Y-91999533D01*
X168066110Y-91903126D01*
X167821151Y-91844317D01*
X167570000Y-91824551D01*
X167318848Y-91844317D01*
X167073889Y-91903126D01*
X166841140Y-91999533D01*
X166626346Y-92131160D01*
X166626343Y-92131161D01*
X166434776Y-92294776D01*
X166271161Y-92486343D01*
X166271160Y-92486346D01*
X166139533Y-92701140D01*
X166043126Y-92933889D01*
X165984317Y-93178848D01*
X165964551Y-93430000D01*
X165984317Y-93681151D01*
X166043126Y-93926110D01*
X166086799Y-94031547D01*
X166117371Y-94105354D01*
X166121776Y-94115987D01*
X166122986Y-94119019D01*
X166681755Y-95575405D01*
X166696272Y-95613241D01*
X166704500Y-95657659D01*
X166704500Y-95826597D01*
X166697504Y-95867658D01*
X166226004Y-97211193D01*
X166219486Y-97226425D01*
X166185950Y-97292245D01*
X166115278Y-97509750D01*
X166115278Y-97509753D01*
X166094423Y-97641429D01*
X166079500Y-97735646D01*
X166079500Y-97964354D01*
X166081362Y-97976107D01*
X166115278Y-98190246D01*
X166115278Y-98190249D01*
X166185950Y-98407755D01*
X166284275Y-98600727D01*
X166289783Y-98611538D01*
X166424214Y-98796566D01*
X166585934Y-98958286D01*
X166670864Y-99019991D01*
X166713529Y-99075321D01*
X166719508Y-99144935D01*
X166686902Y-99206730D01*
X166670864Y-99220627D01*
X166586257Y-99282097D01*
X166424597Y-99443757D01*
X166290211Y-99628723D01*
X166186417Y-99832429D01*
X166115765Y-100049871D01*
X166101491Y-100140000D01*
X167089252Y-100140000D01*
X167067482Y-100177708D01*
X167030000Y-100317591D01*
X167030000Y-100462409D01*
X167067482Y-100602292D01*
X167089252Y-100640000D01*
X166101491Y-100640000D01*
X166115765Y-100730128D01*
X166186417Y-100947570D01*
X166290213Y-101151279D01*
X166423011Y-101334060D01*
X166446491Y-101399866D01*
X166430666Y-101467920D01*
X166380560Y-101516615D01*
X166366026Y-101523127D01*
X166337671Y-101533702D01*
X166337664Y-101533706D01*
X166222455Y-101619952D01*
X166222452Y-101619955D01*
X166136206Y-101735164D01*
X166136202Y-101735171D01*
X166085908Y-101870017D01*
X166079501Y-101929616D01*
X166079500Y-101929635D01*
X166079500Y-103930370D01*
X166079501Y-103930376D01*
X166085908Y-103989983D01*
X166136202Y-104124828D01*
X166136206Y-104124835D01*
X166222452Y-104240044D01*
X166222455Y-104240047D01*
X166337664Y-104326293D01*
X166337671Y-104326297D01*
X166472517Y-104376591D01*
X166472516Y-104376591D01*
X166479444Y-104377335D01*
X166532127Y-104383000D01*
X168627872Y-104382999D01*
X168687483Y-104376591D01*
X168822331Y-104326296D01*
X168937546Y-104240046D01*
X169023796Y-104124831D01*
X169074091Y-103989983D01*
X169080500Y-103930373D01*
X169080499Y-102862423D01*
X169100183Y-102795386D01*
X169152987Y-102749631D01*
X169222146Y-102739687D01*
X169269596Y-102756886D01*
X169370875Y-102819356D01*
X169370880Y-102819358D01*
X169537302Y-102874505D01*
X169537309Y-102874506D01*
X169640019Y-102884999D01*
X170089999Y-102884999D01*
X170590000Y-102884999D01*
X171039972Y-102884999D01*
X171039986Y-102884998D01*
X171142697Y-102874505D01*
X171309119Y-102819358D01*
X171309124Y-102819356D01*
X171458345Y-102727315D01*
X171582315Y-102603345D01*
X171674356Y-102454124D01*
X171674358Y-102454119D01*
X171729505Y-102287697D01*
X171729506Y-102287690D01*
X171739999Y-102184986D01*
X171740000Y-102184973D01*
X171740000Y-101972500D01*
X170590000Y-101972500D01*
X170590000Y-102884999D01*
X170089999Y-102884999D01*
X170090000Y-102884998D01*
X170090000Y-101472500D01*
X170590000Y-101472500D01*
X171739999Y-101472500D01*
X171739999Y-101260028D01*
X171739998Y-101260013D01*
X171729505Y-101157302D01*
X171674358Y-100990880D01*
X171674356Y-100990875D01*
X171582315Y-100841654D01*
X171458345Y-100717684D01*
X171309124Y-100625643D01*
X171309119Y-100625641D01*
X171142697Y-100570494D01*
X171142690Y-100570493D01*
X171039986Y-100560000D01*
X170590000Y-100560000D01*
X170590000Y-101472500D01*
X170090000Y-101472500D01*
X170090000Y-100560000D01*
X169640028Y-100560000D01*
X169640012Y-100560001D01*
X169537302Y-100570494D01*
X169370880Y-100625641D01*
X169370875Y-100625643D01*
X169248660Y-100701027D01*
X169181267Y-100719467D01*
X169114604Y-100698544D01*
X169089273Y-100676019D01*
X169058510Y-100640000D01*
X168070748Y-100640000D01*
X168092518Y-100602292D01*
X168130000Y-100462409D01*
X168130000Y-100317591D01*
X168092518Y-100177708D01*
X168070748Y-100140000D01*
X169058509Y-100140000D01*
X169044234Y-100049871D01*
X168973582Y-99832429D01*
X168948950Y-99784087D01*
X168936054Y-99715418D01*
X168962330Y-99650677D01*
X169019437Y-99610420D01*
X169089242Y-99607428D01*
X169098134Y-99609986D01*
X169430209Y-99719131D01*
X169489663Y-99734738D01*
X169489671Y-99734739D01*
X169491486Y-99735216D01*
X169491468Y-99735283D01*
X169500053Y-99737688D01*
X169537203Y-99749999D01*
X169639991Y-99760500D01*
X171040008Y-99760499D01*
X171142797Y-99749999D01*
X171309334Y-99694814D01*
X171458656Y-99602712D01*
X171582712Y-99478656D01*
X171674814Y-99329334D01*
X171729999Y-99162797D01*
X171740500Y-99060009D01*
X171740499Y-98134992D01*
X171729999Y-98032203D01*
X171674814Y-97865666D01*
X171582712Y-97716344D01*
X171458656Y-97592288D01*
X171365888Y-97535069D01*
X171309336Y-97500187D01*
X171309331Y-97500185D01*
X171307862Y-97499698D01*
X171142797Y-97445001D01*
X171142795Y-97445000D01*
X171093792Y-97439994D01*
X171029101Y-97413597D01*
X170988950Y-97356416D01*
X170986088Y-97286605D01*
X170988676Y-97277679D01*
X171039999Y-97122797D01*
X171050500Y-97020009D01*
X171050500Y-97019986D01*
X171850001Y-97019986D01*
X171860494Y-97122697D01*
X171915641Y-97289119D01*
X171915643Y-97289124D01*
X172007684Y-97438345D01*
X172131654Y-97562315D01*
X172280875Y-97654356D01*
X172280880Y-97654358D01*
X172447302Y-97709505D01*
X172447309Y-97709506D01*
X172550019Y-97719999D01*
X172762499Y-97719999D01*
X172762500Y-97719998D01*
X172762500Y-96570000D01*
X171850001Y-96570000D01*
X171850001Y-97019986D01*
X171050500Y-97019986D01*
X171050499Y-95672160D01*
X171050708Y-95664964D01*
X171052468Y-95634687D01*
X171053221Y-95621742D01*
X171053074Y-95620013D01*
X171850000Y-95620013D01*
X171850000Y-96070000D01*
X172762500Y-96070000D01*
X172762500Y-94920000D01*
X172550029Y-94920000D01*
X172550012Y-94920001D01*
X172447302Y-94930494D01*
X172280880Y-94985641D01*
X172280875Y-94985643D01*
X172131654Y-95077684D01*
X172007684Y-95201654D01*
X171915643Y-95350875D01*
X171915641Y-95350880D01*
X171860494Y-95517302D01*
X171860493Y-95517309D01*
X171850000Y-95620013D01*
X171053074Y-95620013D01*
X171051891Y-95606087D01*
X171065830Y-95537624D01*
X171070576Y-95529423D01*
X171078220Y-95517309D01*
X171389236Y-95024387D01*
X171441656Y-94978197D01*
X171450770Y-94974378D01*
X171452331Y-94973796D01*
X171567546Y-94887546D01*
X171635101Y-94797302D01*
X171678905Y-94760711D01*
X172313150Y-94443591D01*
X172368604Y-94430500D01*
X173383979Y-94430500D01*
X173451018Y-94450185D01*
X173452923Y-94451434D01*
X173728346Y-94635916D01*
X173771750Y-94687970D01*
X173772136Y-94687791D01*
X173772815Y-94689248D01*
X173773088Y-94689575D01*
X173773629Y-94690993D01*
X173775189Y-94694340D01*
X173830153Y-94783451D01*
X173848593Y-94850843D01*
X173827670Y-94917507D01*
X173774028Y-94962276D01*
X173704697Y-94970937D01*
X173685611Y-94966253D01*
X173577700Y-94930495D01*
X173577690Y-94930493D01*
X173474986Y-94920000D01*
X173262500Y-94920000D01*
X173262500Y-97719999D01*
X173474972Y-97719999D01*
X173474986Y-97719998D01*
X173577695Y-97709506D01*
X173627557Y-97692983D01*
X173697385Y-97690581D01*
X173757427Y-97726312D01*
X173784948Y-97773799D01*
X173824201Y-97899768D01*
X173825351Y-97969628D01*
X173824201Y-97973547D01*
X173805925Y-98032200D01*
X173775570Y-98129613D01*
X173772582Y-98162500D01*
X173769500Y-98196411D01*
X173769500Y-98628598D01*
X173775568Y-98695382D01*
X173775571Y-98695393D01*
X173823467Y-98849098D01*
X173823468Y-98849100D01*
X173823469Y-98849102D01*
X173906578Y-98986580D01*
X173906766Y-98986891D01*
X174020608Y-99100733D01*
X174020610Y-99100734D01*
X174020612Y-99100736D01*
X174158398Y-99184031D01*
X174312113Y-99231930D01*
X174378909Y-99238000D01*
X174570500Y-99237999D01*
X174637539Y-99257683D01*
X174683294Y-99310487D01*
X174694500Y-99361999D01*
X174694500Y-104568905D01*
X174685253Y-104615891D01*
X174468887Y-105144317D01*
X174459813Y-105169222D01*
X174456649Y-105177908D01*
X174455316Y-105181566D01*
X174453470Y-105192484D01*
X174447390Y-105215136D01*
X174440910Y-105232511D01*
X174440908Y-105232520D01*
X174434501Y-105292116D01*
X174434500Y-105292135D01*
X174434500Y-105294323D01*
X174432766Y-105314985D01*
X174431339Y-105323423D01*
X174431338Y-105323435D01*
X174431133Y-105331750D01*
X174431700Y-105371165D01*
X174431700Y-105371166D01*
X174432121Y-105373280D01*
X174434500Y-105397455D01*
X174434500Y-108987870D01*
X174434501Y-108987876D01*
X174440908Y-109047481D01*
X174440909Y-109047483D01*
X174455956Y-109087827D01*
X174459440Y-109097166D01*
X174464424Y-109166858D01*
X174430939Y-109228181D01*
X174369616Y-109261666D01*
X174343258Y-109264500D01*
X174039052Y-109264500D01*
X173972013Y-109244815D01*
X173926258Y-109192011D01*
X173915763Y-109127244D01*
X173919999Y-109087844D01*
X173920000Y-109087827D01*
X173920000Y-107190000D01*
X171570000Y-107190000D01*
X171570000Y-109087844D01*
X171574237Y-109127244D01*
X171561832Y-109196004D01*
X171514222Y-109247141D01*
X171450948Y-109264500D01*
X143509976Y-109264500D01*
X143442937Y-109244815D01*
X143397182Y-109192011D01*
X143387238Y-109122853D01*
X143416263Y-109059297D01*
X143453681Y-109030015D01*
X143652543Y-108928689D01*
X143977783Y-108717476D01*
X143977785Y-108717475D01*
X144235349Y-108508902D01*
X143355443Y-107628996D01*
X143447328Y-107667056D01*
X143546784Y-107667056D01*
X143638670Y-107628996D01*
X143708996Y-107558670D01*
X143747056Y-107466784D01*
X143747056Y-107367328D01*
X143708996Y-107275443D01*
X144588902Y-108155349D01*
X144797475Y-107897785D01*
X144797476Y-107897783D01*
X145008689Y-107572543D01*
X145184755Y-107226994D01*
X145323737Y-106864936D01*
X145424112Y-106490330D01*
X145424113Y-106490323D01*
X145484780Y-106107287D01*
X145505078Y-105720000D01*
X145505078Y-105719999D01*
X145484780Y-105332712D01*
X145424113Y-104949676D01*
X145424112Y-104949669D01*
X145323737Y-104575063D01*
X145184755Y-104213005D01*
X145008689Y-103867456D01*
X144797468Y-103542206D01*
X144588904Y-103284649D01*
X144588903Y-103284648D01*
X143708997Y-104164553D01*
X143747056Y-104072672D01*
X143747056Y-103973216D01*
X143708996Y-103881330D01*
X143638670Y-103811004D01*
X143546784Y-103772944D01*
X143447328Y-103772944D01*
X143355443Y-103811003D01*
X144235350Y-102931096D01*
X144235350Y-102931095D01*
X143977793Y-102722531D01*
X143652543Y-102511310D01*
X143306994Y-102335244D01*
X142944936Y-102196262D01*
X142570330Y-102095887D01*
X142570323Y-102095886D01*
X142187287Y-102035219D01*
X141800001Y-102014922D01*
X141799999Y-102014922D01*
X141412712Y-102035219D01*
X141029676Y-102095886D01*
X141029669Y-102095887D01*
X140655063Y-102196262D01*
X140293005Y-102335244D01*
X139947456Y-102511310D01*
X139622206Y-102722531D01*
X139364648Y-102931095D01*
X139364648Y-102931096D01*
X140244555Y-103811002D01*
X140152672Y-103772944D01*
X140053216Y-103772944D01*
X139961330Y-103811004D01*
X139891004Y-103881330D01*
X139852944Y-103973216D01*
X139852944Y-104072672D01*
X139891002Y-104164554D01*
X139011096Y-103284648D01*
X139011095Y-103284648D01*
X138802531Y-103542206D01*
X138591310Y-103867456D01*
X138564985Y-103919122D01*
X138517010Y-103969918D01*
X138449189Y-103986713D01*
X138383054Y-103964175D01*
X138339603Y-103909460D01*
X138330500Y-103862827D01*
X138330500Y-93659081D01*
X146509500Y-93659081D01*
X146509500Y-93659082D01*
X146509500Y-107340918D01*
X146539082Y-107370500D01*
X165680918Y-107370500D01*
X165710500Y-107340918D01*
X165710500Y-104792155D01*
X171570000Y-104792155D01*
X171570000Y-106690000D01*
X172495000Y-106690000D01*
X172995000Y-106690000D01*
X173920000Y-106690000D01*
X173920000Y-104792172D01*
X173919999Y-104792155D01*
X173913598Y-104732627D01*
X173913596Y-104732620D01*
X173863354Y-104597913D01*
X173863350Y-104597906D01*
X173777190Y-104482812D01*
X173777187Y-104482809D01*
X173662093Y-104396649D01*
X173662086Y-104396645D01*
X173527379Y-104346403D01*
X173527372Y-104346401D01*
X173467844Y-104340000D01*
X172995000Y-104340000D01*
X172995000Y-106690000D01*
X172495000Y-106690000D01*
X172495000Y-104340000D01*
X172022155Y-104340000D01*
X171962627Y-104346401D01*
X171962620Y-104346403D01*
X171827913Y-104396645D01*
X171827906Y-104396649D01*
X171712812Y-104482809D01*
X171712809Y-104482812D01*
X171626649Y-104597906D01*
X171626645Y-104597913D01*
X171576403Y-104732620D01*
X171576401Y-104732627D01*
X171570000Y-104792155D01*
X165710500Y-104792155D01*
X165710500Y-93659082D01*
X165680918Y-93629500D01*
X146580918Y-93629500D01*
X146539082Y-93629500D01*
X146539081Y-93629500D01*
X146509500Y-93659081D01*
X138330500Y-93659081D01*
X138330500Y-91299986D01*
X173710001Y-91299986D01*
X173720494Y-91402697D01*
X173775641Y-91569119D01*
X173775643Y-91569124D01*
X173867684Y-91718345D01*
X173991654Y-91842315D01*
X174140875Y-91934356D01*
X174140880Y-91934358D01*
X174307302Y-91989505D01*
X174307309Y-91989506D01*
X174410019Y-91999999D01*
X174859999Y-91999999D01*
X174860000Y-91999998D01*
X174860000Y-91087500D01*
X173710001Y-91087500D01*
X173710001Y-91299986D01*
X138330500Y-91299986D01*
X138330500Y-71909081D01*
X145949500Y-71909081D01*
X145949500Y-71909082D01*
X145949500Y-90740918D01*
X145979082Y-90770500D01*
X173570918Y-90770500D01*
X173600500Y-90740918D01*
X173600500Y-90711500D01*
X173620185Y-90644461D01*
X173672989Y-90598706D01*
X173724500Y-90587500D01*
X174860000Y-90587500D01*
X174860000Y-89675000D01*
X174410028Y-89675000D01*
X174410012Y-89675001D01*
X174307302Y-89685494D01*
X174140880Y-89740641D01*
X174140875Y-89740643D01*
X173991654Y-89832684D01*
X173867683Y-89956655D01*
X173867680Y-89956659D01*
X173830038Y-90017687D01*
X173778090Y-90064412D01*
X173709128Y-90075633D01*
X173645046Y-90047790D01*
X173606190Y-89989721D01*
X173600500Y-89952590D01*
X173600500Y-85422135D01*
X173849500Y-85422135D01*
X173849500Y-88017870D01*
X173849501Y-88017876D01*
X173855908Y-88077483D01*
X173906202Y-88212328D01*
X173906206Y-88212335D01*
X173992452Y-88327544D01*
X173992455Y-88327547D01*
X174107664Y-88413793D01*
X174107671Y-88413797D01*
X174242517Y-88464091D01*
X174242516Y-88464091D01*
X174249444Y-88464835D01*
X174302127Y-88470500D01*
X175816882Y-88470499D01*
X175883921Y-88490184D01*
X175902088Y-88504411D01*
X176590706Y-89155715D01*
X176625886Y-89216082D01*
X176629500Y-89245803D01*
X176629500Y-89487903D01*
X176627155Y-89511903D01*
X176624605Y-89524824D01*
X176603358Y-89933137D01*
X176580217Y-89999063D01*
X176525106Y-90042012D01*
X176455524Y-90048348D01*
X176393563Y-90016059D01*
X176373987Y-89991789D01*
X176352317Y-89956656D01*
X176228345Y-89832684D01*
X176079124Y-89740643D01*
X176079119Y-89740641D01*
X175912697Y-89685494D01*
X175912690Y-89685493D01*
X175809986Y-89675000D01*
X175360000Y-89675000D01*
X175360000Y-91999999D01*
X175809972Y-91999999D01*
X175809986Y-91999998D01*
X175912697Y-91989505D01*
X176079119Y-91934358D01*
X176079124Y-91934356D01*
X176228345Y-91842315D01*
X176352317Y-91718343D01*
X176394751Y-91649547D01*
X176446699Y-91602822D01*
X176515661Y-91591599D01*
X176579743Y-91619442D01*
X176605828Y-91649545D01*
X176642288Y-91708656D01*
X176766344Y-91832712D01*
X176915666Y-91924814D01*
X177082203Y-91979999D01*
X177184991Y-91990500D01*
X178421356Y-91990499D01*
X178430079Y-91990829D01*
X178430331Y-91990823D01*
X178430335Y-91990824D01*
X178443202Y-91990536D01*
X178443487Y-91990530D01*
X178446257Y-91990499D01*
X178535003Y-91990499D01*
X178535008Y-91990499D01*
X178535013Y-91990498D01*
X178535022Y-91990498D01*
X178545360Y-91989441D01*
X178555354Y-91988420D01*
X178565173Y-91987810D01*
X178574180Y-91987609D01*
X178587557Y-91985378D01*
X178595311Y-91984338D01*
X178637797Y-91979999D01*
X178644317Y-91977838D01*
X178646835Y-91977004D01*
X178665453Y-91972396D01*
X179021433Y-91913066D01*
X179066146Y-91913789D01*
X179474476Y-91995509D01*
X179474489Y-91995511D01*
X179476467Y-91995907D01*
X179476426Y-91996110D01*
X179491653Y-91999876D01*
X179521628Y-92009808D01*
X179522203Y-92009999D01*
X179624991Y-92020500D01*
X180975008Y-92020499D01*
X181077797Y-92009999D01*
X181244334Y-91954814D01*
X181266338Y-91941241D01*
X181333729Y-91922800D01*
X181400393Y-91943721D01*
X181441921Y-91990484D01*
X181490676Y-92086171D01*
X181500476Y-92105405D01*
X181616172Y-92264646D01*
X181755354Y-92403828D01*
X181914595Y-92519524D01*
X181932518Y-92528656D01*
X182089970Y-92608882D01*
X182089972Y-92608882D01*
X182089975Y-92608884D01*
X182190317Y-92641487D01*
X182277173Y-92669709D01*
X182471578Y-92700500D01*
X182471583Y-92700500D01*
X183931155Y-92700500D01*
X183996251Y-92718961D01*
X184038159Y-92744810D01*
X184038160Y-92744810D01*
X184038166Y-92744814D01*
X184204703Y-92799999D01*
X184307491Y-92810500D01*
X185232508Y-92810499D01*
X185232516Y-92810498D01*
X185232519Y-92810498D01*
X185288802Y-92804748D01*
X185335297Y-92799999D01*
X185501834Y-92744814D01*
X185651156Y-92652712D01*
X185775212Y-92528656D01*
X185867314Y-92379334D01*
X185922499Y-92212797D01*
X185933000Y-92110009D01*
X185933000Y-92109986D01*
X186732501Y-92109986D01*
X186742994Y-92212697D01*
X186798141Y-92379119D01*
X186798143Y-92379124D01*
X186890184Y-92528345D01*
X187014154Y-92652315D01*
X187163375Y-92744356D01*
X187163380Y-92744358D01*
X187329802Y-92799505D01*
X187329809Y-92799506D01*
X187432519Y-92809999D01*
X187644999Y-92809999D01*
X188145000Y-92809999D01*
X188357472Y-92809999D01*
X188357486Y-92809998D01*
X188460197Y-92799505D01*
X188626619Y-92744358D01*
X188626624Y-92744356D01*
X188775845Y-92652315D01*
X188899815Y-92528345D01*
X188991856Y-92379124D01*
X188991858Y-92379119D01*
X189047005Y-92212697D01*
X189047006Y-92212690D01*
X189057499Y-92109986D01*
X189057500Y-92109973D01*
X189057500Y-91660000D01*
X188145000Y-91660000D01*
X188145000Y-92809999D01*
X187644999Y-92809999D01*
X187645000Y-92809998D01*
X187645000Y-91660000D01*
X186732501Y-91660000D01*
X186732501Y-92109986D01*
X185933000Y-92109986D01*
X185932999Y-91813889D01*
X185939068Y-91775572D01*
X185949709Y-91742826D01*
X185973661Y-91591599D01*
X185980500Y-91548422D01*
X185980500Y-91351577D01*
X185959972Y-91221977D01*
X185949709Y-91157174D01*
X185946059Y-91145941D01*
X185939068Y-91124423D01*
X185932999Y-91086106D01*
X185932999Y-90710013D01*
X186732500Y-90710013D01*
X186732500Y-91160000D01*
X187645000Y-91160000D01*
X188145000Y-91160000D01*
X189057499Y-91160000D01*
X189057499Y-90710028D01*
X189057498Y-90710013D01*
X189047005Y-90607302D01*
X188991858Y-90440880D01*
X188991856Y-90440875D01*
X188899815Y-90291654D01*
X188775845Y-90167684D01*
X188626624Y-90075643D01*
X188626619Y-90075641D01*
X188460197Y-90020494D01*
X188460190Y-90020493D01*
X188357486Y-90010000D01*
X188145000Y-90010000D01*
X188145000Y-91160000D01*
X187645000Y-91160000D01*
X187645000Y-90010000D01*
X187432529Y-90010000D01*
X187432512Y-90010001D01*
X187329802Y-90020494D01*
X187163380Y-90075641D01*
X187163375Y-90075643D01*
X187014154Y-90167684D01*
X186890184Y-90291654D01*
X186798143Y-90440875D01*
X186798141Y-90440880D01*
X186742994Y-90607302D01*
X186742993Y-90607309D01*
X186732500Y-90710013D01*
X185932999Y-90710013D01*
X185932999Y-90709998D01*
X185932998Y-90709981D01*
X185922499Y-90607203D01*
X185922498Y-90607200D01*
X185912168Y-90576026D01*
X185867314Y-90440666D01*
X185775212Y-90291344D01*
X185651156Y-90167288D01*
X185501834Y-90075186D01*
X185335297Y-90020001D01*
X185335295Y-90020000D01*
X185232510Y-90009500D01*
X184307498Y-90009500D01*
X184307480Y-90009501D01*
X184204703Y-90020000D01*
X184204700Y-90020001D01*
X184038168Y-90075185D01*
X184038163Y-90075187D01*
X183888841Y-90167290D01*
X183883181Y-90171766D01*
X183881386Y-90169495D01*
X183831628Y-90196666D01*
X183805270Y-90199500D01*
X182471578Y-90199500D01*
X182277173Y-90230290D01*
X182089970Y-90291117D01*
X181914595Y-90380475D01*
X181862603Y-90418250D01*
X181796796Y-90441729D01*
X181728742Y-90425903D01*
X181680048Y-90375797D01*
X181666360Y-90330529D01*
X181664999Y-90317204D01*
X181664998Y-90317200D01*
X181656355Y-90291117D01*
X181609814Y-90150666D01*
X181517712Y-90001344D01*
X181393656Y-89877288D01*
X181244334Y-89785186D01*
X181077797Y-89730001D01*
X181077795Y-89730000D01*
X180975010Y-89719500D01*
X179624988Y-89719500D01*
X179621841Y-89719661D01*
X179621832Y-89719484D01*
X179614073Y-89719836D01*
X179607634Y-89719770D01*
X179602324Y-89719716D01*
X179602323Y-89719716D01*
X179602317Y-89719716D01*
X179536851Y-89728444D01*
X179533077Y-89728889D01*
X179522199Y-89730001D01*
X179522009Y-89730042D01*
X179512464Y-89731696D01*
X179140651Y-89781271D01*
X179103878Y-89780672D01*
X178823430Y-89733931D01*
X178760538Y-89703493D01*
X178729614Y-89659931D01*
X178640299Y-89448813D01*
X178630500Y-89400500D01*
X178630500Y-89049696D01*
X178631734Y-89032246D01*
X178696435Y-88577049D01*
X178725358Y-88513447D01*
X178784075Y-88475578D01*
X178819201Y-88470499D01*
X178897871Y-88470499D01*
X178897872Y-88470499D01*
X178957483Y-88464091D01*
X179092331Y-88413796D01*
X179207546Y-88327546D01*
X179252239Y-88267844D01*
X202207500Y-88267844D01*
X202213901Y-88327372D01*
X202213903Y-88327379D01*
X202264145Y-88462086D01*
X202264149Y-88462093D01*
X202350309Y-88577187D01*
X202350312Y-88577190D01*
X202465406Y-88663350D01*
X202465413Y-88663354D01*
X202600120Y-88713596D01*
X202600127Y-88713598D01*
X202659655Y-88719999D01*
X202659672Y-88720000D01*
X204557500Y-88720000D01*
X204557500Y-87795000D01*
X202207500Y-87795000D01*
X202207500Y-88267844D01*
X179252239Y-88267844D01*
X179293796Y-88212331D01*
X179344091Y-88077483D01*
X179350500Y-88017873D01*
X179350499Y-86358686D01*
X179370184Y-86291648D01*
X179422987Y-86245893D01*
X179492146Y-86235949D01*
X179517824Y-86242502D01*
X179602517Y-86274091D01*
X179662127Y-86280500D01*
X185257872Y-86280499D01*
X185317483Y-86274091D01*
X185452331Y-86223796D01*
X185567546Y-86137546D01*
X185653796Y-86022331D01*
X185704091Y-85887483D01*
X185710500Y-85827873D01*
X185710499Y-83582128D01*
X185704091Y-83522517D01*
X185689802Y-83484207D01*
X185653797Y-83387671D01*
X185653793Y-83387664D01*
X185567547Y-83272455D01*
X185567544Y-83272452D01*
X185452335Y-83186206D01*
X185452328Y-83186202D01*
X185317482Y-83135908D01*
X185317483Y-83135908D01*
X185257883Y-83129501D01*
X185257881Y-83129500D01*
X185257873Y-83129500D01*
X185257864Y-83129500D01*
X179662129Y-83129500D01*
X179662123Y-83129501D01*
X179602516Y-83135908D01*
X179467671Y-83186202D01*
X179467664Y-83186206D01*
X179352455Y-83272452D01*
X179352452Y-83272455D01*
X179266206Y-83387664D01*
X179266202Y-83387671D01*
X179215908Y-83522517D01*
X179211361Y-83564815D01*
X179209501Y-83582123D01*
X179209500Y-83582135D01*
X179209500Y-84891311D01*
X179189815Y-84958350D01*
X179137011Y-85004105D01*
X179067853Y-85014049D01*
X179042168Y-85007493D01*
X178957485Y-84975909D01*
X178957483Y-84975908D01*
X178897883Y-84969501D01*
X178897881Y-84969500D01*
X178897873Y-84969500D01*
X178897864Y-84969500D01*
X174302129Y-84969500D01*
X174302123Y-84969501D01*
X174242516Y-84975908D01*
X174107671Y-85026202D01*
X174107664Y-85026206D01*
X173992455Y-85112452D01*
X173992452Y-85112455D01*
X173906206Y-85227664D01*
X173906202Y-85227671D01*
X173855908Y-85362517D01*
X173849501Y-85422116D01*
X173849500Y-85422135D01*
X173600500Y-85422135D01*
X173600500Y-75569999D01*
X173867811Y-75569999D01*
X173867812Y-75570000D01*
X175891759Y-75570000D01*
X175878822Y-75601233D01*
X175850000Y-75746131D01*
X175850000Y-75893869D01*
X175878822Y-76038767D01*
X175891759Y-76070000D01*
X173867812Y-76070000D01*
X173879942Y-76162137D01*
X173939318Y-76383730D01*
X174027102Y-76595659D01*
X174027106Y-76595668D01*
X174141809Y-76794338D01*
X174281455Y-76976329D01*
X174281461Y-76976336D01*
X174443663Y-77138538D01*
X174443670Y-77138544D01*
X174625661Y-77278190D01*
X174824331Y-77392893D01*
X174824340Y-77392897D01*
X175036269Y-77480681D01*
X175257862Y-77540057D01*
X175485289Y-77569998D01*
X175485306Y-77570000D01*
X176350000Y-77570000D01*
X176350000Y-76528240D01*
X176381233Y-76541178D01*
X176526131Y-76570000D01*
X176673869Y-76570000D01*
X176818767Y-76541178D01*
X176850000Y-76528240D01*
X176850000Y-77570000D01*
X177714694Y-77570000D01*
X177714710Y-77569998D01*
X177942137Y-77540057D01*
X178163730Y-77480681D01*
X178375659Y-77392897D01*
X178375668Y-77392893D01*
X178574338Y-77278190D01*
X178756329Y-77138544D01*
X178756336Y-77138538D01*
X178918538Y-76976336D01*
X178918544Y-76976329D01*
X179058190Y-76794338D01*
X179172893Y-76595668D01*
X179172897Y-76595659D01*
X179260681Y-76383730D01*
X179320057Y-76162137D01*
X179332188Y-76070000D01*
X177308241Y-76070000D01*
X177321178Y-76038767D01*
X177350000Y-75893869D01*
X177350000Y-75746131D01*
X177321178Y-75601233D01*
X177308241Y-75570000D01*
X179332188Y-75570000D01*
X179332188Y-75569999D01*
X179320057Y-75477862D01*
X179260681Y-75256269D01*
X179172897Y-75044340D01*
X179172893Y-75044331D01*
X179058190Y-74845661D01*
X178918544Y-74663670D01*
X178918538Y-74663663D01*
X178756336Y-74501461D01*
X178756329Y-74501455D01*
X178574338Y-74361809D01*
X178375668Y-74247106D01*
X178375659Y-74247102D01*
X178163730Y-74159318D01*
X177942137Y-74099942D01*
X177714710Y-74070001D01*
X177714694Y-74070000D01*
X176850000Y-74070000D01*
X176850000Y-75111759D01*
X176818767Y-75098822D01*
X176673869Y-75070000D01*
X176526131Y-75070000D01*
X176381233Y-75098822D01*
X176350000Y-75111759D01*
X176350000Y-74070000D01*
X175485306Y-74070000D01*
X175485289Y-74070001D01*
X175257862Y-74099942D01*
X175036269Y-74159318D01*
X174824340Y-74247102D01*
X174824331Y-74247106D01*
X174625661Y-74361809D01*
X174443670Y-74501455D01*
X174443663Y-74501461D01*
X174281461Y-74663663D01*
X174281455Y-74663670D01*
X174141809Y-74845661D01*
X174027106Y-75044331D01*
X174027102Y-75044340D01*
X173939318Y-75256269D01*
X173879942Y-75477862D01*
X173867811Y-75569999D01*
X173600500Y-75569999D01*
X173600500Y-71909082D01*
X173570918Y-71879500D01*
X146020918Y-71879500D01*
X145979082Y-71879500D01*
X145979081Y-71879500D01*
X145949500Y-71909081D01*
X138330500Y-71909081D01*
X138330500Y-70186538D01*
X181149500Y-70186538D01*
X181149500Y-70438462D01*
X181177991Y-70618345D01*
X181188910Y-70687285D01*
X181266760Y-70926883D01*
X181381132Y-71151348D01*
X181529201Y-71355149D01*
X181529205Y-71355154D01*
X181707345Y-71533294D01*
X181707350Y-71533298D01*
X181856624Y-71641751D01*
X181911155Y-71681370D01*
X182135621Y-71795741D01*
X182375215Y-71873590D01*
X182375235Y-71873593D01*
X182376725Y-71873951D01*
X182377246Y-71874250D01*
X182379849Y-71875096D01*
X182379671Y-71875642D01*
X182437323Y-71908730D01*
X182468036Y-71964207D01*
X182595735Y-72470527D01*
X182599500Y-72500851D01*
X182599500Y-74468422D01*
X182630290Y-74662826D01*
X182691117Y-74850030D01*
X182780476Y-75025405D01*
X182896172Y-75184646D01*
X183835354Y-76123828D01*
X183994595Y-76239524D01*
X184032866Y-76259024D01*
X184169969Y-76328882D01*
X184169971Y-76328882D01*
X184169974Y-76328884D01*
X184270318Y-76361487D01*
X184357173Y-76389709D01*
X184551578Y-76420500D01*
X184551583Y-76420500D01*
X184551584Y-76420500D01*
X184748417Y-76420500D01*
X185948687Y-76420500D01*
X185968086Y-76422027D01*
X186021579Y-76430500D01*
X186021583Y-76430500D01*
X186218416Y-76430500D01*
X192181583Y-76430500D01*
X192378416Y-76430500D01*
X195140620Y-76430500D01*
X195183953Y-76438318D01*
X195279866Y-76474091D01*
X195279865Y-76474091D01*
X195286793Y-76474835D01*
X195339476Y-76480500D01*
X197035221Y-76480499D01*
X197094832Y-76474091D01*
X197229680Y-76423796D01*
X197344895Y-76337546D01*
X197431145Y-76222331D01*
X197481440Y-76087483D01*
X197487849Y-76027873D01*
X197487848Y-75179997D01*
X199882383Y-75179997D01*
X199882383Y-75180002D01*
X199902207Y-75406599D01*
X199902209Y-75406610D01*
X199961079Y-75626317D01*
X199961084Y-75626331D01*
X200057212Y-75832478D01*
X200108323Y-75905472D01*
X200787349Y-75226446D01*
X200787349Y-75232661D01*
X200814608Y-75334394D01*
X200867269Y-75425606D01*
X200941743Y-75500080D01*
X201032955Y-75552741D01*
X201134688Y-75580000D01*
X201140902Y-75580000D01*
X200461875Y-76259025D01*
X200534862Y-76310132D01*
X200534870Y-76310136D01*
X200741017Y-76406264D01*
X200741031Y-76406269D01*
X200960738Y-76465139D01*
X200960749Y-76465141D01*
X201187347Y-76484966D01*
X201187351Y-76484966D01*
X201413948Y-76465141D01*
X201413959Y-76465139D01*
X201633666Y-76406269D01*
X201633680Y-76406264D01*
X201839827Y-76310136D01*
X201912820Y-76259024D01*
X201233796Y-75580000D01*
X201240010Y-75580000D01*
X201341743Y-75552741D01*
X201432955Y-75500080D01*
X201507429Y-75425606D01*
X201560090Y-75334394D01*
X201587349Y-75232661D01*
X201587349Y-75226447D01*
X202266373Y-75905471D01*
X202317485Y-75832478D01*
X202413613Y-75626331D01*
X202413618Y-75626317D01*
X202472488Y-75406610D01*
X202472490Y-75406599D01*
X202492315Y-75180002D01*
X202492315Y-75179997D01*
X202472490Y-74953400D01*
X202472488Y-74953389D01*
X202413618Y-74733682D01*
X202413613Y-74733668D01*
X202317485Y-74527521D01*
X202317481Y-74527513D01*
X202266374Y-74454526D01*
X201587349Y-75133551D01*
X201587349Y-75127339D01*
X201560090Y-75025606D01*
X201507429Y-74934394D01*
X201432955Y-74859920D01*
X201341743Y-74807259D01*
X201240010Y-74780000D01*
X201233797Y-74780000D01*
X201912821Y-74100974D01*
X201839827Y-74049863D01*
X201633680Y-73953735D01*
X201633666Y-73953730D01*
X201413959Y-73894860D01*
X201413948Y-73894858D01*
X201187351Y-73875034D01*
X201187347Y-73875034D01*
X200960749Y-73894858D01*
X200960738Y-73894860D01*
X200741031Y-73953730D01*
X200741022Y-73953734D01*
X200534865Y-74049866D01*
X200534861Y-74049868D01*
X200461875Y-74100973D01*
X200461875Y-74100974D01*
X201140902Y-74780000D01*
X201134688Y-74780000D01*
X201032955Y-74807259D01*
X200941743Y-74859920D01*
X200867269Y-74934394D01*
X200814608Y-75025606D01*
X200787349Y-75127339D01*
X200787349Y-75133552D01*
X200108323Y-74454526D01*
X200108322Y-74454526D01*
X200057217Y-74527512D01*
X200057215Y-74527516D01*
X199961083Y-74733673D01*
X199961079Y-74733682D01*
X199902209Y-74953389D01*
X199902207Y-74953400D01*
X199882383Y-75179997D01*
X197487848Y-75179997D01*
X197487848Y-74332128D01*
X197481440Y-74272517D01*
X197475131Y-74255603D01*
X197431146Y-74137671D01*
X197431142Y-74137664D01*
X197344896Y-74022455D01*
X197344893Y-74022452D01*
X197229684Y-73936206D01*
X197229677Y-73936202D01*
X197094831Y-73885908D01*
X197094832Y-73885908D01*
X197035232Y-73879501D01*
X197035230Y-73879500D01*
X197035222Y-73879500D01*
X197035213Y-73879500D01*
X195339478Y-73879500D01*
X195339472Y-73879501D01*
X195279865Y-73885908D01*
X195210765Y-73911682D01*
X195167432Y-73919500D01*
X194414500Y-73919500D01*
X194347461Y-73899815D01*
X194301706Y-73847011D01*
X194290500Y-73795500D01*
X194290500Y-73766195D01*
X194308960Y-73701099D01*
X194374814Y-73594334D01*
X194429999Y-73427797D01*
X194440500Y-73325009D01*
X194440499Y-72399992D01*
X194429999Y-72297203D01*
X194374814Y-72130666D01*
X194282712Y-71981344D01*
X194158656Y-71857288D01*
X194009334Y-71765186D01*
X193842797Y-71710001D01*
X193842795Y-71710000D01*
X193740016Y-71699500D01*
X193740009Y-71699500D01*
X193526997Y-71699500D01*
X193488679Y-71693431D01*
X193361180Y-71652004D01*
X193332826Y-71642791D01*
X193332824Y-71642790D01*
X193332822Y-71642790D01*
X193138422Y-71612000D01*
X193138417Y-71612000D01*
X192941583Y-71612000D01*
X192941578Y-71612000D01*
X192747172Y-71642791D01*
X192591318Y-71693431D01*
X192553001Y-71699500D01*
X192339999Y-71699500D01*
X192339980Y-71699501D01*
X192237203Y-71710000D01*
X192237200Y-71710001D01*
X192070668Y-71765185D01*
X192070663Y-71765187D01*
X191921342Y-71857289D01*
X191882681Y-71895951D01*
X191821358Y-71929436D01*
X191751666Y-71924452D01*
X191707319Y-71895951D01*
X191668657Y-71857289D01*
X191668656Y-71857288D01*
X191519334Y-71765186D01*
X191352797Y-71710001D01*
X191352795Y-71710000D01*
X191250016Y-71699500D01*
X191250009Y-71699500D01*
X191036997Y-71699500D01*
X190998679Y-71693431D01*
X190871180Y-71652004D01*
X190842826Y-71642791D01*
X190842824Y-71642790D01*
X190842822Y-71642790D01*
X190648422Y-71612000D01*
X190648417Y-71612000D01*
X190451583Y-71612000D01*
X190451578Y-71612000D01*
X190257172Y-71642791D01*
X190101318Y-71693431D01*
X190063001Y-71699500D01*
X189849999Y-71699500D01*
X189849980Y-71699501D01*
X189747203Y-71710000D01*
X189747200Y-71710001D01*
X189580668Y-71765185D01*
X189580663Y-71765187D01*
X189431342Y-71857289D01*
X189307289Y-71981342D01*
X189215187Y-72130663D01*
X189215186Y-72130666D01*
X189160001Y-72297203D01*
X189160001Y-72297204D01*
X189160000Y-72297204D01*
X189149500Y-72399983D01*
X189149500Y-73325001D01*
X189149501Y-73325019D01*
X189160000Y-73427796D01*
X189160001Y-73427799D01*
X189215185Y-73594331D01*
X189215186Y-73594334D01*
X189281039Y-73701099D01*
X189299500Y-73766195D01*
X189299500Y-73795500D01*
X189279815Y-73862539D01*
X189227011Y-73908294D01*
X189175500Y-73919500D01*
X185224500Y-73919500D01*
X185157461Y-73899815D01*
X185111706Y-73847011D01*
X185100500Y-73795500D01*
X185100500Y-72499888D01*
X185104141Y-72470060D01*
X185188253Y-72130663D01*
X185229227Y-71965330D01*
X185264460Y-71904995D01*
X185320650Y-71874582D01*
X185324768Y-71873592D01*
X185324785Y-71873590D01*
X185564379Y-71795741D01*
X185788845Y-71681370D01*
X185820419Y-71658429D01*
X185839104Y-71647222D01*
X185850366Y-71641750D01*
X185935198Y-71584317D01*
X186001747Y-71563035D01*
X186004714Y-71563000D01*
X186259192Y-71563000D01*
X186297507Y-71569068D01*
X186307174Y-71572209D01*
X186362719Y-71581006D01*
X186501579Y-71603000D01*
X186501584Y-71603000D01*
X186698422Y-71603000D01*
X186892827Y-71572209D01*
X186902494Y-71569068D01*
X187080026Y-71511384D01*
X187255406Y-71422024D01*
X187414646Y-71306329D01*
X187553829Y-71167146D01*
X187669524Y-71007906D01*
X187758884Y-70832526D01*
X187819709Y-70645327D01*
X187850500Y-70450922D01*
X187850500Y-70254078D01*
X187841933Y-70199986D01*
X189150001Y-70199986D01*
X189160494Y-70302697D01*
X189215641Y-70469119D01*
X189215643Y-70469124D01*
X189307684Y-70618345D01*
X189431654Y-70742315D01*
X189580875Y-70834356D01*
X189580880Y-70834358D01*
X189747302Y-70889505D01*
X189747309Y-70889506D01*
X189850019Y-70899999D01*
X190299999Y-70899999D01*
X190800000Y-70899999D01*
X191249972Y-70899999D01*
X191249986Y-70899998D01*
X191352697Y-70889505D01*
X191519119Y-70834358D01*
X191519124Y-70834356D01*
X191668345Y-70742315D01*
X191707319Y-70703342D01*
X191768642Y-70669857D01*
X191838334Y-70674841D01*
X191882681Y-70703342D01*
X191921654Y-70742315D01*
X192070875Y-70834356D01*
X192070880Y-70834358D01*
X192237302Y-70889505D01*
X192237309Y-70889506D01*
X192340019Y-70899999D01*
X192789999Y-70899999D01*
X193290000Y-70899999D01*
X193739972Y-70899999D01*
X193739986Y-70899998D01*
X193842697Y-70889505D01*
X194009119Y-70834358D01*
X194009124Y-70834356D01*
X194158345Y-70742315D01*
X194282315Y-70618345D01*
X194374356Y-70469124D01*
X194374358Y-70469119D01*
X194429505Y-70302697D01*
X194429506Y-70302690D01*
X194439999Y-70199986D01*
X194440000Y-70199973D01*
X194440000Y-69987500D01*
X193290000Y-69987500D01*
X193290000Y-70899999D01*
X192789999Y-70899999D01*
X192790000Y-70899998D01*
X192790000Y-69987500D01*
X190800000Y-69987500D01*
X190800000Y-70899999D01*
X190299999Y-70899999D01*
X190300000Y-70899998D01*
X190300000Y-69987500D01*
X189150001Y-69987500D01*
X189150001Y-70199986D01*
X187841933Y-70199986D01*
X187819709Y-70059673D01*
X187780082Y-69937715D01*
X187758884Y-69872475D01*
X187758882Y-69872472D01*
X187758882Y-69872470D01*
X187709755Y-69776053D01*
X187669524Y-69697095D01*
X187553829Y-69537855D01*
X187374646Y-69358672D01*
X187259500Y-69275013D01*
X189150000Y-69275013D01*
X189150000Y-69487500D01*
X190300000Y-69487500D01*
X190800000Y-69487500D01*
X192790000Y-69487500D01*
X193290000Y-69487500D01*
X194439999Y-69487500D01*
X194439999Y-69275028D01*
X194439998Y-69275013D01*
X194429505Y-69172302D01*
X194374358Y-69005880D01*
X194374356Y-69005875D01*
X194282315Y-68856654D01*
X194158345Y-68732684D01*
X194009124Y-68640643D01*
X194009119Y-68640641D01*
X193842697Y-68585494D01*
X193842690Y-68585493D01*
X193739986Y-68575000D01*
X193290000Y-68575000D01*
X193290000Y-69487500D01*
X192790000Y-69487500D01*
X192790000Y-68575000D01*
X192340028Y-68575000D01*
X192340012Y-68575001D01*
X192237302Y-68585494D01*
X192070880Y-68640641D01*
X192070875Y-68640643D01*
X191921654Y-68732684D01*
X191882681Y-68771658D01*
X191821358Y-68805143D01*
X191751666Y-68800159D01*
X191707319Y-68771658D01*
X191668345Y-68732684D01*
X191519124Y-68640643D01*
X191519119Y-68640641D01*
X191352697Y-68585494D01*
X191352690Y-68585493D01*
X191249986Y-68575000D01*
X190800000Y-68575000D01*
X190800000Y-69487500D01*
X190300000Y-69487500D01*
X190300000Y-68575000D01*
X189850028Y-68575000D01*
X189850012Y-68575001D01*
X189747302Y-68585494D01*
X189580880Y-68640641D01*
X189580875Y-68640643D01*
X189431654Y-68732684D01*
X189307684Y-68856654D01*
X189215643Y-69005875D01*
X189215641Y-69005880D01*
X189160494Y-69172302D01*
X189160493Y-69172309D01*
X189150000Y-69275013D01*
X187259500Y-69275013D01*
X187215405Y-69242976D01*
X187040030Y-69153617D01*
X186852826Y-69092790D01*
X186658422Y-69062000D01*
X186658417Y-69062000D01*
X186318196Y-69062000D01*
X186284417Y-69057310D01*
X185682941Y-68887021D01*
X185660426Y-68878196D01*
X185564386Y-68829261D01*
X185324785Y-68751410D01*
X185262936Y-68741614D01*
X185075962Y-68712000D01*
X182624038Y-68712000D01*
X182499626Y-68731705D01*
X182375214Y-68751410D01*
X182135616Y-68829260D01*
X181911151Y-68943632D01*
X181707350Y-69091701D01*
X181707345Y-69091705D01*
X181529205Y-69269845D01*
X181529201Y-69269850D01*
X181381132Y-69473651D01*
X181266760Y-69698116D01*
X181199514Y-69905078D01*
X181188910Y-69937715D01*
X181149500Y-70186538D01*
X138330500Y-70186538D01*
X138330500Y-67998293D01*
X138350185Y-67931254D01*
X138402989Y-67885499D01*
X138472147Y-67875555D01*
X138535703Y-67904580D01*
X138564985Y-67941999D01*
X138621307Y-68052538D01*
X138621308Y-68052541D01*
X138832531Y-68377793D01*
X139041095Y-68635350D01*
X139041096Y-68635350D01*
X139921004Y-67755442D01*
X139882944Y-67847328D01*
X139882944Y-67946784D01*
X139921004Y-68038670D01*
X139991330Y-68108996D01*
X140083216Y-68147056D01*
X140182672Y-68147056D01*
X140274554Y-68108997D01*
X139394648Y-68988903D01*
X139394649Y-68988904D01*
X139652206Y-69197468D01*
X139977456Y-69408689D01*
X140323005Y-69584755D01*
X140685063Y-69723737D01*
X141059669Y-69824112D01*
X141059676Y-69824113D01*
X141442712Y-69884780D01*
X141829999Y-69905078D01*
X141830001Y-69905078D01*
X142217287Y-69884780D01*
X142600323Y-69824113D01*
X142600330Y-69824112D01*
X142974936Y-69723737D01*
X143336994Y-69584755D01*
X143682543Y-69408689D01*
X144007783Y-69197476D01*
X144007785Y-69197475D01*
X144265349Y-68988902D01*
X143385443Y-68108996D01*
X143477328Y-68147056D01*
X143576784Y-68147056D01*
X143668670Y-68108996D01*
X143738996Y-68038670D01*
X143777056Y-67946784D01*
X143777056Y-67847328D01*
X143738996Y-67755443D01*
X144618902Y-68635349D01*
X144827475Y-68377785D01*
X144827476Y-68377783D01*
X145038689Y-68052543D01*
X145214755Y-67706994D01*
X145353737Y-67344936D01*
X145454112Y-66970330D01*
X145454113Y-66970323D01*
X145514780Y-66587287D01*
X145535078Y-66200000D01*
X145535078Y-66199999D01*
X145534785Y-66194402D01*
X177649500Y-66194402D01*
X177649500Y-68430597D01*
X177686446Y-68663868D01*
X177759433Y-68888496D01*
X177819244Y-69005880D01*
X177866657Y-69098933D01*
X178005483Y-69290010D01*
X178172490Y-69457017D01*
X178363567Y-69595843D01*
X178462991Y-69646502D01*
X178574003Y-69703066D01*
X178574005Y-69703066D01*
X178574008Y-69703068D01*
X178694412Y-69742189D01*
X178798631Y-69776053D01*
X179031903Y-69813000D01*
X179031908Y-69813000D01*
X179268097Y-69813000D01*
X179501368Y-69776053D01*
X179725992Y-69703068D01*
X179936433Y-69595843D01*
X180127510Y-69457017D01*
X180294517Y-69290010D01*
X180433343Y-69098933D01*
X180540568Y-68888492D01*
X180613553Y-68663868D01*
X180615793Y-68649728D01*
X180650500Y-68430597D01*
X180650500Y-66194402D01*
X180613553Y-65961131D01*
X180540566Y-65736503D01*
X180433342Y-65526066D01*
X180294517Y-65334990D01*
X180127510Y-65167983D01*
X179936433Y-65029157D01*
X179725996Y-64921933D01*
X179501368Y-64848946D01*
X179268097Y-64812000D01*
X179268092Y-64812000D01*
X179031908Y-64812000D01*
X179031903Y-64812000D01*
X178798631Y-64848946D01*
X178574003Y-64921933D01*
X178363566Y-65029157D01*
X178267889Y-65098671D01*
X178172490Y-65167983D01*
X178172488Y-65167985D01*
X178172487Y-65167985D01*
X178005485Y-65334987D01*
X178005485Y-65334988D01*
X178005483Y-65334990D01*
X177986283Y-65361417D01*
X177866657Y-65526066D01*
X177759433Y-65736503D01*
X177686446Y-65961131D01*
X177649500Y-66194402D01*
X145534785Y-66194402D01*
X145514780Y-65812712D01*
X145454113Y-65429676D01*
X145454112Y-65429669D01*
X145353737Y-65055063D01*
X145214755Y-64693005D01*
X145038689Y-64347456D01*
X144827468Y-64022206D01*
X144618904Y-63764649D01*
X144618903Y-63764648D01*
X143738997Y-64644553D01*
X143777056Y-64552672D01*
X143777056Y-64453216D01*
X143738996Y-64361330D01*
X143668670Y-64291004D01*
X143576784Y-64252944D01*
X143477328Y-64252944D01*
X143385443Y-64291003D01*
X144265350Y-63411096D01*
X144265350Y-63411095D01*
X144007793Y-63202531D01*
X143792124Y-63062473D01*
X143746621Y-63009452D01*
X143737007Y-62940247D01*
X143766334Y-62876830D01*
X143825291Y-62839336D01*
X143859538Y-62834478D01*
X182002878Y-62797432D01*
X182069934Y-62817052D01*
X182115740Y-62869811D01*
X182125751Y-62938960D01*
X182096788Y-63002544D01*
X182067791Y-63027156D01*
X182063836Y-63029579D01*
X181872813Y-63168366D01*
X181705866Y-63335313D01*
X181567085Y-63526328D01*
X181459897Y-63736697D01*
X181386934Y-63961252D01*
X181370898Y-64062500D01*
X182416988Y-64062500D01*
X182384075Y-64119507D01*
X182350000Y-64246674D01*
X182350000Y-64378326D01*
X182384075Y-64505493D01*
X182416988Y-64562500D01*
X181370898Y-64562500D01*
X181386934Y-64663747D01*
X181459897Y-64888302D01*
X181567085Y-65098671D01*
X181705866Y-65289686D01*
X181872813Y-65456633D01*
X182063828Y-65595414D01*
X182274197Y-65702602D01*
X182498752Y-65775565D01*
X182498751Y-65775565D01*
X182731948Y-65812500D01*
X183600000Y-65812500D01*
X183600000Y-64812500D01*
X184100000Y-64812500D01*
X184100000Y-65812500D01*
X184968052Y-65812500D01*
X185201247Y-65775565D01*
X185425802Y-65702602D01*
X185636171Y-65595414D01*
X185827186Y-65456633D01*
X185994133Y-65289686D01*
X186132914Y-65098671D01*
X186240102Y-64888302D01*
X186313065Y-64663747D01*
X186329102Y-64562500D01*
X185283012Y-64562500D01*
X185315925Y-64505493D01*
X185350000Y-64378326D01*
X185350000Y-64246674D01*
X185315925Y-64119507D01*
X185283012Y-64062500D01*
X186329102Y-64062500D01*
X186313065Y-63961252D01*
X186240102Y-63736697D01*
X186132914Y-63526328D01*
X185994133Y-63335313D01*
X185827186Y-63168366D01*
X185636170Y-63029584D01*
X185633716Y-63028334D01*
X185632950Y-63027610D01*
X185632019Y-63027040D01*
X185632138Y-63026844D01*
X185582922Y-62980358D01*
X185566129Y-62912536D01*
X185588669Y-62846402D01*
X185643385Y-62802952D01*
X185689889Y-62793852D01*
X201775821Y-62778229D01*
X201842875Y-62797848D01*
G37*
%TD.AperFunction*%
%TA.AperFunction,Conductor*%
G36*
X206488902Y-108225349D02*
G01*
X206697475Y-107967785D01*
X206697476Y-107967783D01*
X206908691Y-107642541D01*
X206908692Y-107642538D01*
X206965015Y-107531999D01*
X207012989Y-107481202D01*
X207080810Y-107464407D01*
X207146945Y-107486944D01*
X207190397Y-107541659D01*
X207199500Y-107588293D01*
X207199500Y-109140500D01*
X207179815Y-109207539D01*
X207127011Y-109253294D01*
X207075500Y-109264500D01*
X205547359Y-109264500D01*
X205480320Y-109244815D01*
X205434565Y-109192011D01*
X205424621Y-109122853D01*
X205453646Y-109059297D01*
X205491064Y-109030015D01*
X205552543Y-108998689D01*
X205877783Y-108787476D01*
X205877785Y-108787475D01*
X206135349Y-108578902D01*
X205255443Y-107698996D01*
X205347328Y-107737056D01*
X205446784Y-107737056D01*
X205538670Y-107698996D01*
X205608996Y-107628670D01*
X205647056Y-107536784D01*
X205647056Y-107437328D01*
X205608996Y-107345443D01*
X206488902Y-108225349D01*
G37*
%TD.AperFunction*%
%TA.AperFunction,Conductor*%
G36*
X205538668Y-107275115D02*
G01*
X205446784Y-107237056D01*
X205347328Y-107237056D01*
X205255442Y-107275116D01*
X205185116Y-107345442D01*
X205147056Y-107437328D01*
X205147056Y-107536784D01*
X205185115Y-107628668D01*
X204640698Y-107084251D01*
X204742330Y-107010412D01*
X204920412Y-106832330D01*
X204994251Y-106730698D01*
X205538668Y-107275115D01*
G37*
%TD.AperFunction*%
%TA.AperFunction,Conductor*%
G36*
X202479588Y-106832330D02*
G01*
X202657670Y-107010412D01*
X202759300Y-107084251D01*
X202214885Y-107628666D01*
X202252944Y-107536784D01*
X202252944Y-107437328D01*
X202214884Y-107345442D01*
X202144558Y-107275116D01*
X202052672Y-107237056D01*
X201953216Y-107237056D01*
X201861330Y-107275116D01*
X202405748Y-106730698D01*
X202479588Y-106832330D01*
G37*
%TD.AperFunction*%
%TA.AperFunction,Conductor*%
G36*
X143638668Y-107205115D02*
G01*
X143546784Y-107167056D01*
X143447328Y-107167056D01*
X143355442Y-107205116D01*
X143285116Y-107275442D01*
X143247056Y-107367328D01*
X143247056Y-107466784D01*
X143285115Y-107558668D01*
X142740698Y-107014251D01*
X142842330Y-106940412D01*
X143020412Y-106762330D01*
X143094251Y-106660698D01*
X143638668Y-107205115D01*
G37*
%TD.AperFunction*%
%TA.AperFunction,Conductor*%
G36*
X140579588Y-106762330D02*
G01*
X140757670Y-106940412D01*
X140859300Y-107014251D01*
X140314885Y-107558666D01*
X140352944Y-107466784D01*
X140352944Y-107367328D01*
X140314884Y-107275442D01*
X140244558Y-107205116D01*
X140152672Y-107167056D01*
X140053216Y-107167056D01*
X139961330Y-107205116D01*
X140505748Y-106660698D01*
X140579588Y-106762330D01*
G37*
%TD.AperFunction*%
%TA.AperFunction,Conductor*%
G36*
X202759301Y-104495748D02*
G01*
X202657670Y-104569588D01*
X202479588Y-104747670D01*
X202405748Y-104849300D01*
X201861333Y-104304885D01*
X201953216Y-104342944D01*
X202052672Y-104342944D01*
X202144558Y-104304884D01*
X202214884Y-104234558D01*
X202252944Y-104142672D01*
X202252944Y-104043216D01*
X202214885Y-103951332D01*
X202759301Y-104495748D01*
G37*
%TD.AperFunction*%
%TA.AperFunction,Conductor*%
G36*
X205147056Y-104043216D02*
G01*
X205147056Y-104142672D01*
X205185116Y-104234558D01*
X205255442Y-104304884D01*
X205347328Y-104342944D01*
X205446784Y-104342944D01*
X205538665Y-104304885D01*
X204994251Y-104849300D01*
X204920412Y-104747670D01*
X204742330Y-104569588D01*
X204640698Y-104495748D01*
X205185115Y-103951331D01*
X205147056Y-104043216D01*
G37*
%TD.AperFunction*%
%TA.AperFunction,Conductor*%
G36*
X140859301Y-104425748D02*
G01*
X140757670Y-104499588D01*
X140579588Y-104677670D01*
X140505748Y-104779300D01*
X139961333Y-104234885D01*
X140053216Y-104272944D01*
X140152672Y-104272944D01*
X140244558Y-104234884D01*
X140314884Y-104164558D01*
X140352944Y-104072672D01*
X140352944Y-103973216D01*
X140314885Y-103881332D01*
X140859301Y-104425748D01*
G37*
%TD.AperFunction*%
%TA.AperFunction,Conductor*%
G36*
X143247056Y-103973216D02*
G01*
X143247056Y-104072672D01*
X143285116Y-104164558D01*
X143355442Y-104234884D01*
X143447328Y-104272944D01*
X143546784Y-104272944D01*
X143638665Y-104234885D01*
X143094251Y-104779300D01*
X143020412Y-104677670D01*
X142842330Y-104499588D01*
X142740698Y-104425748D01*
X143285115Y-103881331D01*
X143247056Y-103973216D01*
G37*
%TD.AperFunction*%
%TA.AperFunction,Conductor*%
G36*
X143668668Y-67685115D02*
G01*
X143576784Y-67647056D01*
X143477328Y-67647056D01*
X143385442Y-67685116D01*
X143315116Y-67755442D01*
X143277056Y-67847328D01*
X143277056Y-67946784D01*
X143315115Y-68038668D01*
X142770698Y-67494251D01*
X142872330Y-67420412D01*
X143050412Y-67242330D01*
X143124251Y-67140698D01*
X143668668Y-67685115D01*
G37*
%TD.AperFunction*%
%TA.AperFunction,Conductor*%
G36*
X140609588Y-67242330D02*
G01*
X140787670Y-67420412D01*
X140889300Y-67494251D01*
X140344885Y-68038666D01*
X140382944Y-67946784D01*
X140382944Y-67847328D01*
X140344884Y-67755442D01*
X140274558Y-67685116D01*
X140182672Y-67647056D01*
X140083216Y-67647056D01*
X139991330Y-67685116D01*
X140535748Y-67140698D01*
X140609588Y-67242330D01*
G37*
%TD.AperFunction*%
%TA.AperFunction,Conductor*%
G36*
X205591612Y-67663059D02*
G01*
X205499728Y-67625000D01*
X205400272Y-67625000D01*
X205308386Y-67663060D01*
X205238060Y-67733386D01*
X205200000Y-67825272D01*
X205200000Y-67924728D01*
X205238059Y-68016612D01*
X204693642Y-67472195D01*
X204795274Y-67398356D01*
X204973356Y-67220274D01*
X205047195Y-67118642D01*
X205591612Y-67663059D01*
G37*
%TD.AperFunction*%
%TA.AperFunction,Conductor*%
G36*
X202532532Y-67220274D02*
G01*
X202710614Y-67398356D01*
X202812244Y-67472195D01*
X202267829Y-68016610D01*
X202305888Y-67924728D01*
X202305888Y-67825272D01*
X202267828Y-67733386D01*
X202197502Y-67663060D01*
X202105616Y-67625000D01*
X202006160Y-67625000D01*
X201914274Y-67663060D01*
X202458692Y-67118642D01*
X202532532Y-67220274D01*
G37*
%TD.AperFunction*%
%TA.AperFunction,Conductor*%
G36*
X140889301Y-64905748D02*
G01*
X140787670Y-64979588D01*
X140609588Y-65157670D01*
X140535748Y-65259300D01*
X139991333Y-64714885D01*
X140083216Y-64752944D01*
X140182672Y-64752944D01*
X140274558Y-64714884D01*
X140344884Y-64644558D01*
X140382944Y-64552672D01*
X140382944Y-64453216D01*
X140344885Y-64361332D01*
X140889301Y-64905748D01*
G37*
%TD.AperFunction*%
%TA.AperFunction,Conductor*%
G36*
X143277056Y-64453216D02*
G01*
X143277056Y-64552672D01*
X143315116Y-64644558D01*
X143385442Y-64714884D01*
X143477328Y-64752944D01*
X143576784Y-64752944D01*
X143668665Y-64714885D01*
X143124251Y-65259300D01*
X143050412Y-65157670D01*
X142872330Y-64979588D01*
X142770698Y-64905748D01*
X143315115Y-64361331D01*
X143277056Y-64453216D01*
G37*
%TD.AperFunction*%
%TA.AperFunction,Conductor*%
G36*
X202812245Y-64883692D02*
G01*
X202710614Y-64957532D01*
X202532532Y-65135614D01*
X202458692Y-65237244D01*
X201914277Y-64692829D01*
X202006160Y-64730888D01*
X202105616Y-64730888D01*
X202197502Y-64692828D01*
X202267828Y-64622502D01*
X202305888Y-64530616D01*
X202305888Y-64431160D01*
X202267829Y-64339276D01*
X202812245Y-64883692D01*
G37*
%TD.AperFunction*%
%TA.AperFunction,Conductor*%
G36*
X205200000Y-64431160D02*
G01*
X205200000Y-64530616D01*
X205238060Y-64622502D01*
X205308386Y-64692828D01*
X205400272Y-64730888D01*
X205499728Y-64730888D01*
X205591609Y-64692829D01*
X205047195Y-65237244D01*
X204973356Y-65135614D01*
X204795274Y-64957532D01*
X204693642Y-64883692D01*
X205238059Y-64339275D01*
X205200000Y-64431160D01*
G37*
%TD.AperFunction*%
%TA.AperFunction,Conductor*%
G36*
X139861199Y-62858046D02*
G01*
X139907005Y-62910805D01*
X139917016Y-62979954D01*
X139888053Y-63043538D01*
X139861797Y-63066421D01*
X139652202Y-63202534D01*
X139394648Y-63411095D01*
X139394648Y-63411096D01*
X140274555Y-64291002D01*
X140182672Y-64252944D01*
X140083216Y-64252944D01*
X139991330Y-64291004D01*
X139921004Y-64361330D01*
X139882944Y-64453216D01*
X139882944Y-64552672D01*
X139921002Y-64644554D01*
X139041096Y-63764648D01*
X139041095Y-63764648D01*
X138832531Y-64022206D01*
X138621310Y-64347456D01*
X138564985Y-64458001D01*
X138517010Y-64508797D01*
X138449189Y-64525592D01*
X138383055Y-64503055D01*
X138339603Y-64448340D01*
X138330500Y-64401706D01*
X138330500Y-62963726D01*
X138350185Y-62896687D01*
X138402989Y-62850932D01*
X138454372Y-62839727D01*
X139794142Y-62838426D01*
X139861199Y-62858046D01*
G37*
%TD.AperFunction*%
%TA.AperFunction,Conductor*%
G36*
X207103364Y-62792740D02*
G01*
X207149170Y-62845499D01*
X207160425Y-62896693D01*
X207164975Y-64219477D01*
X207145521Y-64286584D01*
X207092875Y-64332521D01*
X207023751Y-64342702D01*
X206960096Y-64313896D01*
X206936981Y-64287439D01*
X206750412Y-64000150D01*
X206541848Y-63742593D01*
X206541847Y-63742592D01*
X205661941Y-64622497D01*
X205700000Y-64530616D01*
X205700000Y-64431160D01*
X205661940Y-64339274D01*
X205591614Y-64268948D01*
X205499728Y-64230888D01*
X205400272Y-64230888D01*
X205308387Y-64268947D01*
X206188294Y-63389040D01*
X206188294Y-63389039D01*
X205930737Y-63180475D01*
X205656510Y-63002389D01*
X205611007Y-62949368D01*
X205601393Y-62880163D01*
X205630720Y-62816746D01*
X205689677Y-62779252D01*
X205723919Y-62774394D01*
X207036306Y-62773120D01*
X207103364Y-62792740D01*
G37*
%TD.AperFunction*%
%TD*%
%TA.AperFunction,Conductor*%
%TO.N,Net-(Q1-G)*%
G36*
X178491068Y-90191011D02*
G01*
X179375224Y-90338370D01*
X179382821Y-90343111D01*
X179385000Y-90349911D01*
X179385000Y-91330088D01*
X179381573Y-91338361D01*
X179375223Y-91341629D01*
X178491076Y-91488987D01*
X178482353Y-91486967D01*
X178480726Y-91485562D01*
X177866816Y-90848116D01*
X177863545Y-90839780D01*
X177866816Y-90831884D01*
X178342108Y-90338370D01*
X178480727Y-90194436D01*
X178488933Y-90190855D01*
X178491068Y-90191011D01*
G37*
%TD.AperFunction*%
%TD*%
%TA.AperFunction,Conductor*%
%TO.N,Net-(Q1-G)*%
G36*
X179677785Y-90223085D02*
G01*
X179679105Y-90224263D01*
X180292483Y-90861156D01*
X180295754Y-90869492D01*
X180292172Y-90877699D01*
X180291757Y-90878080D01*
X179583671Y-91497173D01*
X179575187Y-91500039D01*
X179573674Y-91499838D01*
X178784404Y-91341882D01*
X178776964Y-91336898D01*
X178775000Y-91330409D01*
X178775000Y-90350243D01*
X178778427Y-90341970D01*
X178785153Y-90338646D01*
X179669133Y-90220782D01*
X179677785Y-90223085D01*
G37*
%TD.AperFunction*%
%TD*%
%TA.AperFunction,Conductor*%
%TO.N,Net-(Q1-G)*%
G36*
X178130519Y-89543427D02*
G01*
X178133021Y-89547141D01*
X178402204Y-90183414D01*
X178402272Y-90192369D01*
X178400400Y-90195483D01*
X177867276Y-90832308D01*
X177859338Y-90836452D01*
X177851082Y-90834002D01*
X177098374Y-90243334D01*
X177093981Y-90235531D01*
X177093913Y-90233528D01*
X177129423Y-89551092D01*
X177133275Y-89543008D01*
X177141107Y-89540000D01*
X178122246Y-89540000D01*
X178130519Y-89543427D01*
G37*
%TD.AperFunction*%
%TD*%
%TA.AperFunction,Conductor*%
%TO.N,/DRAIN*%
G36*
X195701139Y-80522784D02*
G01*
X195708333Y-80528115D01*
X195710000Y-80534135D01*
X195710000Y-82015864D01*
X195706573Y-82024137D01*
X195701138Y-82027215D01*
X194713471Y-82274132D01*
X194706636Y-82273777D01*
X193831670Y-81955723D01*
X191989248Y-81285995D01*
X191982644Y-81279949D01*
X191982250Y-81271003D01*
X191988297Y-81264398D01*
X191989241Y-81264006D01*
X194706638Y-80276221D01*
X194713468Y-80275867D01*
X195701139Y-80522784D01*
G37*
%TD.AperFunction*%
%TD*%
%TA.AperFunction,Conductor*%
%TO.N,Net-(D1-A)*%
G36*
X169596976Y-97956766D02*
G01*
X169599334Y-97958343D01*
X169915685Y-98230970D01*
X170330715Y-98588637D01*
X170334745Y-98596634D01*
X170331940Y-98605138D01*
X170330715Y-98606363D01*
X169599338Y-99236653D01*
X169590834Y-99239458D01*
X169588047Y-99238905D01*
X168785547Y-98975144D01*
X168778757Y-98969305D01*
X168777500Y-98964029D01*
X168777500Y-98230970D01*
X168780927Y-98222697D01*
X168785546Y-98219855D01*
X169588048Y-97956094D01*
X169596976Y-97956766D01*
G37*
%TD.AperFunction*%
%TD*%
%TA.AperFunction,Conductor*%
%TO.N,Net-(D1-A)*%
G36*
X167574762Y-93431105D02*
G01*
X168562041Y-93867662D01*
X168568221Y-93874142D01*
X168568272Y-93882449D01*
X167957838Y-95520397D01*
X167951738Y-95526952D01*
X167946875Y-95528011D01*
X167213043Y-95528011D01*
X167204770Y-95524584D01*
X167202119Y-95520502D01*
X166576088Y-93888803D01*
X166576324Y-93879851D01*
X166582206Y-93873944D01*
X167565240Y-93431143D01*
X167574188Y-93430871D01*
X167574762Y-93431105D01*
G37*
%TD.AperFunction*%
%TD*%
%TA.AperFunction,Conductor*%
%TO.N,11.5V*%
G36*
X171217166Y-92433583D02*
G01*
X172203532Y-92926766D01*
X172209400Y-92933531D01*
X172210000Y-92937231D01*
X172210000Y-93922769D01*
X172206573Y-93931042D01*
X172203532Y-93933234D01*
X171217166Y-94426416D01*
X171208234Y-94427051D01*
X171204068Y-94424612D01*
X170989020Y-94229291D01*
X170118534Y-93438659D01*
X170114714Y-93430562D01*
X170117740Y-93422134D01*
X170118527Y-93421346D01*
X171204069Y-92435386D01*
X171212496Y-92432361D01*
X171217166Y-92433583D01*
G37*
%TD.AperFunction*%
%TD*%
%TA.AperFunction,Conductor*%
%TO.N,11.5V*%
G36*
X173597053Y-92933218D02*
G01*
X175212305Y-93297561D01*
X175219622Y-93302724D01*
X175221267Y-93310926D01*
X175112062Y-93956220D01*
X175107303Y-93963806D01*
X175105150Y-93965016D01*
X174215846Y-94347600D01*
X174206892Y-94347721D01*
X174204711Y-94346573D01*
X173587975Y-93933475D01*
X173583008Y-93926024D01*
X173582786Y-93923754D01*
X173582786Y-92944632D01*
X173586213Y-92936359D01*
X173594486Y-92932932D01*
X173597053Y-92933218D01*
G37*
%TD.AperFunction*%
%TD*%
%TA.AperFunction,Conductor*%
%TO.N,11.5V*%
G36*
X175119115Y-93967957D02*
G01*
X175932851Y-94544445D01*
X175937620Y-94552024D01*
X175937626Y-94555926D01*
X175816637Y-95277734D01*
X175811890Y-95285327D01*
X175805098Y-95287500D01*
X175071025Y-95287500D01*
X175062752Y-95284073D01*
X175061500Y-95282594D01*
X175058033Y-95277734D01*
X174597486Y-94632106D01*
X174595471Y-94623381D01*
X174597784Y-94618119D01*
X175103129Y-93970307D01*
X175110917Y-93965893D01*
X175119115Y-93967957D01*
G37*
%TD.AperFunction*%
%TD*%
%TA.AperFunction,Conductor*%
%TO.N,11.5V*%
G36*
X170470025Y-94760927D02*
G01*
X170473410Y-94768210D01*
X170549534Y-95664520D01*
X170546820Y-95673053D01*
X170546076Y-95673855D01*
X169897702Y-96310974D01*
X169889400Y-96314329D01*
X169881157Y-96310829D01*
X169879699Y-96309016D01*
X169337200Y-95475583D01*
X169335560Y-95466781D01*
X169336737Y-95463595D01*
X169719173Y-94763590D01*
X169726147Y-94757973D01*
X169729441Y-94757500D01*
X170461752Y-94757500D01*
X170470025Y-94760927D01*
G37*
%TD.AperFunction*%
%TD*%
%TA.AperFunction,Conductor*%
%TO.N,11.5V*%
G36*
X170117838Y-93437766D02*
G01*
X170118629Y-93438563D01*
X171097526Y-94523417D01*
X171100525Y-94531855D01*
X171098735Y-94537498D01*
X170475943Y-95524543D01*
X170468630Y-95529712D01*
X170466048Y-95530000D01*
X169729017Y-95530000D01*
X169720744Y-95526573D01*
X169719069Y-95524458D01*
X169108089Y-94537522D01*
X169106648Y-94528684D01*
X169109400Y-94523471D01*
X170101310Y-93438504D01*
X170109419Y-93434713D01*
X170117838Y-93437766D01*
G37*
%TD.AperFunction*%
%TD*%
%TA.AperFunction,Conductor*%
%TO.N,Net-(U2-OUT)*%
G36*
X177868246Y-93947196D02*
G01*
X178505393Y-94580448D01*
X178508845Y-94588710D01*
X178508550Y-94591358D01*
X178362081Y-95230912D01*
X178356893Y-95238211D01*
X178350676Y-95240000D01*
X177369324Y-95240000D01*
X177361051Y-95236573D01*
X177357919Y-95230912D01*
X177320866Y-95069126D01*
X177211449Y-94591355D01*
X177212943Y-94582529D01*
X177214601Y-94580453D01*
X177851753Y-93947196D01*
X177860036Y-93943795D01*
X177868246Y-93947196D01*
G37*
%TD.AperFunction*%
%TD*%
%TA.AperFunction,Conductor*%
%TO.N,Net-(RF_IN1-In)*%
G36*
X175945420Y-104708427D02*
G01*
X175947975Y-104712267D01*
X176203312Y-105335878D01*
X176203518Y-105344201D01*
X175581034Y-107109705D01*
X175575051Y-107116368D01*
X175566110Y-107116849D01*
X175559447Y-107110866D01*
X175558966Y-107109705D01*
X174936481Y-105344201D01*
X174936686Y-105335879D01*
X175192025Y-104712267D01*
X175198332Y-104705909D01*
X175202853Y-104705000D01*
X175937147Y-104705000D01*
X175945420Y-104708427D01*
G37*
%TD.AperFunction*%
%TD*%
%TA.AperFunction,Conductor*%
%TO.N,+VDC*%
G36*
X183857939Y-70320160D02*
G01*
X183858655Y-70320870D01*
X184455856Y-70967410D01*
X184845721Y-71389485D01*
X184848817Y-71397888D01*
X184848482Y-71400238D01*
X184602202Y-72393985D01*
X184596886Y-72401191D01*
X184590846Y-72402871D01*
X183109116Y-72402871D01*
X183100843Y-72399444D01*
X183097771Y-72394032D01*
X182851535Y-71417710D01*
X182852835Y-71408850D01*
X182854222Y-71406979D01*
X183841412Y-70320947D01*
X183849512Y-70317131D01*
X183857939Y-70320160D01*
G37*
%TD.AperFunction*%
%TD*%
%TA.AperFunction,Conductor*%
%TO.N,+VDC*%
G36*
X185413707Y-69336167D02*
G01*
X187111143Y-69816738D01*
X187118170Y-69822289D01*
X187119214Y-69831183D01*
X187116229Y-69836269D01*
X186070458Y-70882040D01*
X186068744Y-70883455D01*
X185566975Y-71223157D01*
X185558203Y-71224958D01*
X185554899Y-71223787D01*
X184917241Y-70882829D01*
X183867090Y-70321309D01*
X183861411Y-70314387D01*
X183862290Y-70305475D01*
X183866394Y-70301078D01*
X185404336Y-69337516D01*
X185413164Y-69336029D01*
X185413707Y-69336167D01*
G37*
%TD.AperFunction*%
%TD*%
%TA.AperFunction,Conductor*%
%TO.N,Net-(Q1-G)*%
G36*
X176609514Y-86726549D02*
G01*
X176611979Y-86727962D01*
X178266590Y-87965847D01*
X178271161Y-87973547D01*
X178271165Y-87976861D01*
X178131429Y-88959946D01*
X178126872Y-88967655D01*
X178119845Y-88970000D01*
X177134657Y-88970000D01*
X177126617Y-88966800D01*
X176078600Y-87975571D01*
X176074945Y-87967397D01*
X176075858Y-87962530D01*
X176594189Y-86732785D01*
X176600560Y-86726493D01*
X176609514Y-86726549D01*
G37*
%TD.AperFunction*%
%TD*%
%TA.AperFunction,Conductor*%
%TO.N,Net-(D1-A)*%
G36*
X168426045Y-97328501D02*
G01*
X169187853Y-98219216D01*
X169190662Y-98226820D01*
X169190662Y-98959544D01*
X169187235Y-98967817D01*
X169178962Y-98971244D01*
X169177773Y-98971183D01*
X167360096Y-98785568D01*
X167352214Y-98781319D01*
X167349646Y-98772740D01*
X167349928Y-98771119D01*
X167577864Y-97854565D01*
X167582981Y-97847493D01*
X168410920Y-97326204D01*
X168419747Y-97324697D01*
X168426045Y-97328501D01*
G37*
%TD.AperFunction*%
%TD*%
%TA.AperFunction,Conductor*%
%TO.N,Net-(D1-A)*%
G36*
X167954979Y-95951523D02*
G01*
X167957746Y-95955922D01*
X168528329Y-97581800D01*
X168527835Y-97590741D01*
X168521163Y-97596714D01*
X168520340Y-97596969D01*
X167583051Y-97850175D01*
X167576949Y-97850175D01*
X166639659Y-97596969D01*
X166632566Y-97591503D01*
X166631415Y-97582623D01*
X166631663Y-97581821D01*
X167202254Y-95955922D01*
X167208227Y-95949250D01*
X167213294Y-95948096D01*
X167946706Y-95948096D01*
X167954979Y-95951523D01*
G37*
%TD.AperFunction*%
%TD*%
M02*
