M48
; DRILL file {KiCad 9.0.3} date 2025-07-25T20:49:55+0530
; FORMAT={-:-/ absolute / inch / decimal}
; #@! TF.CreationDate,2025-07-25T20:49:55+05:30
; #@! TF.GenerationSoftware,Kicad,Pcbnew,9.0.3
; #@! TF.FileFunction,Plated,1,2,PTH
FMAT,2
INCH
; #@! TA.AperFunction,Plated,PTH,ViaDrill
T1C0.0157
; #@! TA.AperFunction,Plated,PTH,ComponentDrill
T2C0.0197
; #@! TA.AperFunction,Plated,PTH,ComponentDrill
T3C0.0315
; #@! TA.AperFunction,Plated,PTH,ComponentDrill
T4C0.0394
; #@! TA.AperFunction,Plated,PTH,ComponentDrill
T5C0.1260
%
G90
G05
T1
X0.0906Y-1.187
X0.0906Y-1.2461
X0.0906Y-1.3031
X0.0906Y-1.3622
X0.0906Y-1.4213
X0.1063Y-0.3091
X0.1063Y-0.3681
X0.1063Y-0.4252
X0.1063Y-0.4843
X0.1063Y-0.5433
X0.1496Y-1.3031
X0.1496Y-1.3622
X0.1496Y-1.4213
X0.1504Y-1.187
X0.1504Y-1.2461
X0.1654Y-0.4252
X0.1654Y-0.4843
X0.1654Y-0.5433
X0.1661Y-0.3091
X0.1661Y-0.3681
X0.178Y-0.9146
X0.178Y-0.9736
X0.178Y-1.0327
X0.2087Y-1.3031
X0.2087Y-1.3622
X0.2087Y-1.4213
X0.2094Y-1.187
X0.2094Y-1.2461
X0.2244Y-0.4252
X0.2244Y-0.4843
X0.2244Y-0.5433
X0.2252Y-0.3091
X0.2252Y-0.3681
X0.2291Y-0.915
X0.2291Y-0.9736
X0.2872Y-0.915
X0.2872Y-0.9736
X0.3154Y-1.5811
X0.3154Y-1.6283
X0.3224Y-0.0783
X0.3224Y-0.1374
X0.3224Y-0.1866
X0.3224Y-0.2457
X0.3248Y-0.2949
X0.3254Y-0.3362
X0.3254Y-0.4012
X0.3254Y-0.4642
X0.3254Y-0.5154
X0.3254Y-0.5705
X0.3254Y-0.6098
X0.3463Y-0.915
X0.3463Y-0.9736
X0.3478Y-1.3465
X0.3478Y-1.4055
X0.3478Y-1.4646
X0.3624Y-0.0783
X0.3624Y-0.1374
X0.3624Y-0.1866
X0.3624Y-0.2457
X0.3648Y-0.2949
X0.3654Y-0.3362
X0.3654Y-0.4012
X0.3654Y-0.4642
X0.3654Y-0.5154
X0.3654Y-0.5705
X0.3654Y-0.6098
X0.4053Y-0.0772
X0.4053Y-0.1362
X0.4053Y-0.1854
X0.4053Y-0.2445
X0.4077Y-0.2937
X0.4083Y-0.335
X0.4083Y-0.4
X0.4083Y-0.463
X0.4083Y-0.5142
X0.4083Y-0.5693
X0.4083Y-0.6087
X0.4335Y-1.5811
X0.4335Y-1.6283
X0.4551Y-0.0772
X0.4551Y-0.1362
X0.4551Y-0.1854
X0.4551Y-0.2445
X0.4553Y-0.5138
X0.4553Y-0.563
X0.4553Y-0.6102
X0.4555Y-0.2902
X0.4555Y-0.3492
X0.4555Y-0.3984
X0.4555Y-0.4575
X0.4571Y-1.3465
X0.4571Y-1.4055
X0.4571Y-1.4646
X0.4925Y-1.5811
X0.4925Y-1.6283
X0.502Y-0.7461
X0.502Y-0.7776
X0.503Y-0.687
X0.5039Y-0.8307
X0.5053Y-0.0772
X0.5053Y-0.1362
X0.5053Y-0.1854
X0.5053Y-0.2445
X0.5055Y-0.5138
X0.5055Y-0.563
X0.5055Y-0.6102
X0.5057Y-0.2902
X0.5057Y-0.3492
X0.5057Y-0.3984
X0.5057Y-0.4575
X0.5516Y-1.5811
X0.5516Y-1.6283
X0.5634Y-0.0772
X0.5634Y-0.1362
X0.5634Y-0.1854
X0.5634Y-0.2445
X0.5636Y-0.5138
X0.5636Y-0.563
X0.5636Y-0.6102
X0.5638Y-0.2902
X0.5638Y-0.3492
X0.5638Y-0.3984
X0.5638Y-0.4575
X0.5701Y-1.3862
X0.5701Y-1.4335
X0.6224Y-0.0772
X0.6236Y-0.1138
X0.6681Y-0.3646
X0.6681Y-0.4236
X0.6681Y-0.4827
X0.6681Y-0.5417
X0.6697Y-1.5811
X0.6697Y-1.6283
X0.6701Y-1.6768
X0.672Y-0.8429
X0.672Y-0.902
X0.672Y-0.961
X0.672Y-1.022
X0.672Y-1.0693
X0.672Y-1.2484
X0.6766Y-0.0772
X0.6766Y-0.1854
X0.6766Y-0.2445
X0.6778Y-0.1138
X0.698Y-1.3035
X0.7244Y-0.7274
X0.7248Y-0.6709
X0.7248Y-0.789
X0.7248Y-0.8429
X0.7248Y-0.902
X0.7248Y-0.961
X0.7248Y-1.022
X0.7248Y-1.0693
X0.7248Y-1.2484
X0.7272Y-0.3646
X0.7272Y-0.4236
X0.7272Y-0.4827
X0.7272Y-0.5417
X0.728Y-1.3815
X0.728Y-1.4406
X0.7291Y-1.6768
X0.7346Y-0.0772
X0.7346Y-0.1854
X0.7346Y-0.2445
X0.7358Y-0.1138
X0.7862Y-0.3646
X0.7862Y-0.4236
X0.7862Y-0.4827
X0.7862Y-0.5417
X0.7937Y-0.0772
X0.7937Y-0.1854
X0.7937Y-0.2445
X0.7949Y-0.1138
X0.8114Y-0.9035
X0.8114Y-0.9626
X0.8114Y-1.0197
X0.8114Y-1.0787
X0.8122Y-0.8449
X0.8488Y-0.0772
X0.85Y-0.1138
X0.8626Y-1.3823
X0.8626Y-1.4413
X0.8705Y-0.9035
X0.8705Y-0.9626
X0.8705Y-1.0197
X0.8705Y-1.0787
X0.8705Y-1.1378
X0.8705Y-1.1988
X0.8717Y-1.2457
X0.8717Y-1.3047
X0.9079Y-0.0772
X0.9079Y-0.1362
X0.9079Y-0.1854
X0.9079Y-0.2445
X0.9102Y-0.2937
X0.9108Y-0.335
X0.9108Y-0.4
X0.9108Y-0.463
X0.9108Y-0.5142
X0.9108Y-0.5693
X0.9108Y-0.6205
X0.9108Y-0.6756
X0.9217Y-1.3823
X0.9217Y-1.4413
X0.9295Y-1.0197
X0.9295Y-1.0787
X0.9295Y-1.1378
X0.9295Y-1.1988
X0.9303Y-0.9035
X0.9303Y-0.9626
X0.9307Y-1.2457
X0.9307Y-1.3047
X0.962Y-0.0772
X0.962Y-0.1362
X0.962Y-0.1854
X0.962Y-0.2445
X0.9644Y-0.2937
X0.965Y-0.335
X0.965Y-0.4
X0.965Y-0.463
X0.965Y-0.5142
X0.965Y-0.5693
X0.965Y-0.6205
X0.965Y-0.6756
X0.9886Y-1.0197
X0.9886Y-1.0787
X0.9886Y-1.1378
X0.9886Y-1.1988
X0.9894Y-0.9035
X0.9894Y-0.9626
X0.9898Y-1.2457
X0.9898Y-1.3047
X1.0201Y-0.0772
X1.0201Y-0.1362
X1.0201Y-0.1854
X1.0201Y-0.2445
X1.0224Y-0.2937
X1.023Y-0.335
X1.023Y-0.4
X1.023Y-0.463
X1.023Y-0.5142
X1.023Y-0.5693
X1.023Y-0.6205
X1.023Y-0.6756
X1.0469Y-1.2839
X1.0469Y-1.3449
X1.0791Y-0.0772
X1.0801Y-0.1362
X1.0801Y-0.1874
X1.0801Y-0.2425
X1.0815Y-0.2937
X1.0821Y-0.335
X1.0821Y-0.4
X1.0821Y-0.463
X1.0821Y-0.5142
X1.0821Y-0.5693
X1.0821Y-0.6205
X1.0821Y-0.6756
X1.1293Y-0.0772
X1.1317Y-0.2937
X1.1323Y-0.335
X1.1323Y-0.4
X1.1323Y-0.463
X1.1323Y-0.5142
X1.1323Y-0.5693
X1.1323Y-0.6205
X1.1323Y-0.6756
X1.1343Y-0.1362
X1.1343Y-0.1874
X1.1343Y-0.2425
X1.1874Y-0.0772
X1.1898Y-0.2937
X1.1904Y-0.335
X1.1904Y-0.4
X1.1904Y-0.463
X1.1904Y-0.5142
X1.1904Y-0.5693
X1.1904Y-0.6205
X1.1904Y-0.6756
X1.1923Y-0.1362
X1.1923Y-0.1874
X1.1923Y-0.2425
X1.2465Y-0.0772
X1.2488Y-0.2937
X1.2494Y-0.335
X1.2494Y-0.4
X1.2494Y-0.463
X1.2494Y-0.5142
X1.2494Y-0.5693
X1.2494Y-0.6205
X1.2494Y-0.6756
X1.2514Y-0.1362
X1.2514Y-0.1874
X1.2514Y-0.2425
X1.3006Y-0.0772
X1.3016Y-0.1362
X1.3016Y-0.1874
X1.3016Y-0.2425
X1.303Y-0.2937
X1.3035Y-0.335
X1.3035Y-0.4
X1.3035Y-0.463
X1.3035Y-0.5142
X1.3035Y-0.5693
X1.3035Y-0.6205
X1.3035Y-0.6756
X1.3587Y-0.0772
X1.3596Y-0.1362
X1.3596Y-0.1874
X1.3596Y-0.2425
X1.361Y-0.2937
X1.3616Y-0.335
X1.3616Y-0.4
X1.3616Y-0.463
X1.3616Y-0.5142
X1.3616Y-0.5693
X1.3616Y-0.6205
X1.3616Y-0.6756
X1.4177Y-0.0772
X1.4187Y-0.1362
X1.4187Y-0.1874
X1.4187Y-0.2425
X1.4201Y-0.2937
X1.4207Y-0.335
X1.4207Y-0.4
X1.4207Y-0.463
X1.4207Y-0.5142
X1.4207Y-0.5693
X1.4207Y-0.6205
X1.4207Y-0.6756
X1.4728Y-0.0772
X1.4728Y-0.1362
X1.4728Y-0.1874
X1.4728Y-0.2425
X1.4752Y-0.2937
X1.4752Y-1.2957
X1.4752Y-1.3547
X1.4758Y-0.335
X1.4758Y-0.4
X1.4758Y-0.463
X1.4758Y-0.5142
X1.4758Y-0.5693
X1.4758Y-0.6205
X1.4758Y-0.6756
X1.5309Y-0.1362
X1.5309Y-0.1874
X1.5309Y-0.2425
X1.5319Y-0.0772
X1.5343Y-0.2937
X1.5343Y-1.2957
X1.5348Y-0.335
X1.5348Y-0.4
X1.5348Y-0.463
X1.5348Y-0.5142
X1.5348Y-0.5693
X1.5348Y-0.6205
X1.5348Y-0.6756
X1.5799Y-1.6504
X1.5799Y-1.6898
X1.586Y-0.0772
X1.5884Y-0.2937
X1.589Y-0.335
X1.589Y-0.4
X1.589Y-0.463
X1.589Y-0.5142
X1.589Y-0.5693
X1.589Y-0.6205
X1.589Y-0.6756
X1.59Y-0.1362
X1.59Y-0.1874
X1.59Y-0.2425
X1.6303Y-1.65
X1.6303Y-1.6894
X1.6441Y-0.0772
X1.6451Y-0.1362
X1.6451Y-0.1874
X1.6451Y-0.2425
X1.6465Y-0.2937
X1.647Y-0.335
X1.647Y-0.4
X1.647Y-0.463
X1.647Y-0.5142
X1.647Y-0.5693
X1.647Y-0.6205
X1.647Y-0.6756
X1.6638Y-1.1854
X1.6638Y-1.2445
X1.6894Y-1.6894
X1.6972Y-0.0772
X1.6992Y-0.8567
X1.6992Y-0.9157
X1.6996Y-0.2937
X1.7002Y-0.335
X1.7002Y-0.4
X1.7002Y-0.463
X1.7002Y-0.5142
X1.7002Y-0.5693
X1.7002Y-0.6205
X1.7002Y-0.6756
X1.7041Y-0.1362
X1.7041Y-0.1874
X1.7041Y-0.2425
X1.7228Y-1.1854
X1.7228Y-1.2445
X1.7484Y-1.65
X1.7484Y-1.6894
X1.7514Y-0.0772
X1.7537Y-0.2937
X1.7543Y-0.335
X1.7543Y-0.4
X1.7543Y-0.463
X1.7543Y-0.5142
X1.7543Y-0.5693
X1.7543Y-0.6205
X1.7543Y-0.6756
X1.7583Y-0.1362
X1.7583Y-0.1874
X1.7583Y-0.2425
X1.7583Y-0.8567
X1.7583Y-0.9157
X1.7819Y-1.1854
X1.7819Y-1.2445
X1.8075Y-1.65
X1.8075Y-1.6894
X1.8173Y-0.8567
X1.8173Y-0.9157
X1.8232Y-0.2543
X1.8232Y-0.3134
X1.8232Y-0.3724
X1.8232Y-0.4315
X1.8232Y-0.4925
X1.8232Y-0.5516
X1.8232Y-0.6106
X1.8232Y-0.6717
X1.8409Y-1.2445
X1.8783Y-0.8567
X1.8783Y-0.9157
X1.8823Y-0.3134
X1.8823Y-0.3724
X1.8823Y-0.4315
X1.8823Y-0.4925
X1.8823Y-0.5516
X1.8823Y-0.6106
X1.8823Y-0.6717
X1.8906Y-1.2437
X1.9492Y-0.4335
X1.9492Y-0.4925
X1.9492Y-0.5516
X1.9492Y-0.6106
X1.9496Y-0.6697
X1.95Y-0.3146
X1.95Y-0.3736
X2.0033Y-0.4335
X2.0033Y-0.4925
X2.0033Y-0.5516
X2.0033Y-0.6106
X2.0041Y-0.3146
X2.0041Y-0.3736
X2.0087Y-1.3028
X2.0087Y-1.3618
X2.0201Y-0.6776
X2.0201Y-0.7366
X2.0201Y-0.7957
X2.0201Y-0.8567
X2.0614Y-0.4335
X2.0614Y-0.4925
X2.0614Y-0.5516
X2.0614Y-0.6106
X2.0622Y-0.3146
X2.0622Y-0.3736
X2.0677Y-1.3028
X2.0677Y-1.3618
X2.0791Y-0.6776
X2.0791Y-0.7366
X2.0791Y-0.7957
X2.0791Y-0.8567
T2
X0.0516Y-0.1402
X0.0516Y-1.585
X0.0792Y-0.0733
X0.0792Y-0.207
X0.0792Y-1.5182
X0.0792Y-1.6519
X0.1461Y-0.0457
X0.1461Y-0.2346
X0.1461Y-1.4906
X0.1461Y-1.6795
X0.2129Y-0.0733
X0.2129Y-0.207
X0.2129Y-1.5182
X0.2129Y-1.6519
X0.2406Y-0.1402
X0.2406Y-1.585
X1.8862Y-0.1402
X1.8862Y-1.585
X1.9139Y-0.0733
X1.9139Y-0.207
X1.9139Y-1.5182
X1.9139Y-1.6519
X1.9807Y-0.0457
X1.9807Y-0.2346
X1.9807Y-1.4906
X1.9807Y-1.6795
X2.0475Y-0.0733
X2.0475Y-0.207
X2.0475Y-1.5182
X2.0475Y-1.6519
X2.0752Y-0.1402
X2.0752Y-1.585
T3
X1.5725Y-1.4671
X1.7694Y-1.4671
T5
X0.1461Y-0.1402
X0.1461Y-1.585
X1.9807Y-0.1402
X1.9807Y-1.585
T4
G00X1.1051Y-1.4356
M15
G01X1.2035Y-1.4356
M16
G05
G00X1.115Y-1.6719
M15
G01X1.1937Y-1.6719
M16
G05
G00X1.3394Y-1.5931
M15
G01X1.3394Y-1.5144
M16
G05
M30
