%TF.GenerationSoftware,KiCad,Pcbnew,8.0.0-unknown-202403021604~8dce6c0b67~ubuntu22.04.1*%
%TF.CreationDate,2024-03-03T10:33:34+05:30*%
%TF.ProjectId,HF-PA-v10,48462d50-412d-4763-9130-2e6b69636164,rev?*%
%TF.SameCoordinates,Original*%
%TF.FileFunction,Copper,L1,Top*%
%TF.FilePolarity,Positive*%
%FSLAX46Y46*%
G04 Gerber Fmt 4.6, Leading zero omitted, Abs format (unit mm)*
G04 Created by KiCad (PCBNEW 8.0.0-unknown-202403021604~8dce6c0b67~ubuntu22.04.1) date 2024-03-03 10:33:34*
%MOMM*%
%LPD*%
G01*
G04 APERTURE LIST*
G04 Aperture macros list*
%AMRoundRect*
0 Rectangle with rounded corners*
0 $1 Rounding radius*
0 $2 $3 $4 $5 $6 $7 $8 $9 X,Y pos of 4 corners*
0 Add a 4 corners polygon primitive as box body*
4,1,4,$2,$3,$4,$5,$6,$7,$8,$9,$2,$3,0*
0 Add four circle primitives for the rounded corners*
1,1,$1+$1,$2,$3*
1,1,$1+$1,$4,$5*
1,1,$1+$1,$6,$7*
1,1,$1+$1,$8,$9*
0 Add four rect primitives between the rounded corners*
20,1,$1+$1,$2,$3,$4,$5,0*
20,1,$1+$1,$4,$5,$6,$7,0*
20,1,$1+$1,$6,$7,$8,$9,0*
20,1,$1+$1,$8,$9,$2,$3,0*%
G04 Aperture macros list end*
%TA.AperFunction,SMDPad,CuDef*%
%ADD10RoundRect,0.250000X0.412500X0.650000X-0.412500X0.650000X-0.412500X-0.650000X0.412500X-0.650000X0*%
%TD*%
%TA.AperFunction,ComponentPad*%
%ADD11C,2.000000*%
%TD*%
%TA.AperFunction,ComponentPad*%
%ADD12C,0.800000*%
%TD*%
%TA.AperFunction,ComponentPad*%
%ADD13C,6.400000*%
%TD*%
%TA.AperFunction,SMDPad,CuDef*%
%ADD14RoundRect,0.250000X-0.650000X0.412500X-0.650000X-0.412500X0.650000X-0.412500X0.650000X0.412500X0*%
%TD*%
%TA.AperFunction,SMDPad,CuDef*%
%ADD15R,3.600000X1.270000*%
%TD*%
%TA.AperFunction,SMDPad,CuDef*%
%ADD16R,4.200000X1.350000*%
%TD*%
%TA.AperFunction,ComponentPad*%
%ADD17O,4.400000X2.200000*%
%TD*%
%TA.AperFunction,ComponentPad*%
%ADD18O,4.000000X2.000000*%
%TD*%
%TA.AperFunction,ComponentPad*%
%ADD19O,2.000000X4.000000*%
%TD*%
%TA.AperFunction,ComponentPad*%
%ADD20R,1.600000X1.600000*%
%TD*%
%TA.AperFunction,ComponentPad*%
%ADD21C,1.600000*%
%TD*%
%TA.AperFunction,SMDPad,CuDef*%
%ADD22RoundRect,0.250000X0.650000X-0.412500X0.650000X0.412500X-0.650000X0.412500X-0.650000X-0.412500X0*%
%TD*%
%TA.AperFunction,SMDPad,CuDef*%
%ADD23RoundRect,0.250000X-0.850000X-0.350000X0.850000X-0.350000X0.850000X0.350000X-0.850000X0.350000X0*%
%TD*%
%TA.AperFunction,SMDPad,CuDef*%
%ADD24RoundRect,0.250000X-1.275000X-1.125000X1.275000X-1.125000X1.275000X1.125000X-1.275000X1.125000X0*%
%TD*%
%TA.AperFunction,SMDPad,CuDef*%
%ADD25RoundRect,0.249997X-3.260003X-2.650003X3.260003X-2.650003X3.260003X2.650003X-3.260003X2.650003X0*%
%TD*%
%TA.AperFunction,SMDPad,CuDef*%
%ADD26RoundRect,0.250000X-1.585000X-1.125000X1.585000X-1.125000X1.585000X1.125000X-1.585000X1.125000X0*%
%TD*%
%TA.AperFunction,SMDPad,CuDef*%
%ADD27RoundRect,0.250000X-0.412500X-0.650000X0.412500X-0.650000X0.412500X0.650000X-0.412500X0.650000X0*%
%TD*%
%TA.AperFunction,SMDPad,CuDef*%
%ADD28R,1.270000X3.600000*%
%TD*%
%TA.AperFunction,SMDPad,CuDef*%
%ADD29R,1.350000X4.200000*%
%TD*%
%TA.AperFunction,ComponentPad*%
%ADD30R,4.500000X2.500000*%
%TD*%
%TA.AperFunction,ComponentPad*%
%ADD31O,4.500000X2.500000*%
%TD*%
%TA.AperFunction,ComponentPad*%
%ADD32R,2.200000X2.200000*%
%TD*%
%TA.AperFunction,ComponentPad*%
%ADD33O,2.200000X2.200000*%
%TD*%
%TA.AperFunction,SMDPad,CuDef*%
%ADD34RoundRect,0.162500X-0.617500X-0.162500X0.617500X-0.162500X0.617500X0.162500X-0.617500X0.162500X0*%
%TD*%
%TA.AperFunction,SMDPad,CuDef*%
%ADD35RoundRect,0.250000X-0.625000X0.400000X-0.625000X-0.400000X0.625000X-0.400000X0.625000X0.400000X0*%
%TD*%
%TA.AperFunction,SMDPad,CuDef*%
%ADD36R,2.050000X2.200000*%
%TD*%
%TA.AperFunction,ViaPad*%
%ADD37C,0.800000*%
%TD*%
%TA.AperFunction,Conductor*%
%ADD38C,0.500000*%
%TD*%
%TA.AperFunction,Conductor*%
%ADD39C,1.500000*%
%TD*%
%TA.AperFunction,Conductor*%
%ADD40C,1.000000*%
%TD*%
%TA.AperFunction,Conductor*%
%ADD41C,2.000000*%
%TD*%
%TA.AperFunction,Conductor*%
%ADD42C,0.750000*%
%TD*%
G04 APERTURE END LIST*
D10*
%TO.P,C7,1*%
%TO.N,Net-(C7-Pad1)*%
X189752500Y-89990000D03*
%TO.P,C7,2*%
%TO.N,/DRAIN*%
X186627500Y-89990000D03*
%TD*%
D11*
%TO.P,L4,1*%
%TO.N,Net-(C7-Pad1)*%
X193440000Y-88320000D03*
%TO.P,L4,2*%
%TO.N,Net-(RF_OUT1-In)*%
X198520000Y-88320000D03*
%TD*%
D12*
%TO.P,H3,1,1*%
%TO.N,GND*%
X143872944Y-100222944D03*
X144575888Y-98525888D03*
X144575888Y-101920000D03*
X146272944Y-97822944D03*
D13*
X146272944Y-100222944D03*
D12*
X146272944Y-102622944D03*
X147970000Y-98525888D03*
X147970000Y-101920000D03*
X148672944Y-100222944D03*
%TD*%
D14*
%TO.P,C17,1*%
%TO.N,+VDC*%
X184930000Y-76230000D03*
%TO.P,C17,2*%
%TO.N,GND*%
X184930000Y-79355000D03*
%TD*%
D15*
%TO.P,RF_OUT1,1,In*%
%TO.N,Net-(RF_OUT1-In)*%
X204677500Y-85460000D03*
D16*
%TO.P,RF_OUT1,2,Ext*%
%TO.N,GND*%
X204477500Y-88285000D03*
X204477500Y-82635000D03*
%TD*%
D14*
%TO.P,C14,1*%
%TO.N,+VDC*%
X188650000Y-76207500D03*
%TO.P,C14,2*%
%TO.N,GND*%
X188650000Y-79332500D03*
%TD*%
D17*
%TO.P,Power1,1*%
%TO.N,+VDC*%
X183850000Y-70312500D03*
D18*
%TO.P,Power1,2*%
%TO.N,GND*%
X183850000Y-64312500D03*
D19*
%TO.P,Power1,3*%
%TO.N,unconnected-(Power1-Pad3)*%
X179150000Y-67312500D03*
%TD*%
D20*
%TO.P,C15,1*%
%TO.N,+VDC*%
X175762651Y-67050000D03*
D21*
%TO.P,C15,2*%
%TO.N,GND*%
X170762651Y-67050000D03*
%TD*%
D22*
%TO.P,C9,1*%
%TO.N,11.5V*%
X162350000Y-96172500D03*
%TO.P,C9,2*%
%TO.N,GND*%
X162350000Y-93047500D03*
%TD*%
D10*
%TO.P,C4,1*%
%TO.N,11.5V*%
X167812500Y-93270000D03*
%TO.P,C4,2*%
%TO.N,GND*%
X164687500Y-93270000D03*
%TD*%
D23*
%TO.P,U1,1,IN*%
%TO.N,+VDC*%
X150805000Y-93895000D03*
D24*
%TO.P,U1,2,GND*%
%TO.N,GND*%
X155430000Y-94650000D03*
X155430000Y-97700000D03*
D25*
X157415000Y-96175000D03*
D26*
X159090000Y-94650000D03*
X159090000Y-97700000D03*
D23*
%TO.P,U1,3,OUT*%
%TO.N,Net-(D1-A)*%
X150805000Y-98455000D03*
%TD*%
D12*
%TO.P,H4,1,1*%
%TO.N,GND*%
X201242944Y-100172944D03*
X201945888Y-98475888D03*
X201945888Y-101870000D03*
X203642944Y-97772944D03*
D13*
X203642944Y-100172944D03*
D12*
X203642944Y-102572944D03*
X205340000Y-98475888D03*
X205340000Y-101870000D03*
X206042944Y-100172944D03*
%TD*%
D27*
%TO.P,C1,1*%
%TO.N,Net-(RF_OUT1-In)*%
X200917500Y-92420000D03*
%TO.P,C1,2*%
%TO.N,GND*%
X204042500Y-92420000D03*
%TD*%
D28*
%TO.P,RF_IN1,1,In*%
%TO.N,Net-(RF_IN1-In)*%
X169945000Y-101580000D03*
D29*
%TO.P,RF_IN1,2,Ext*%
%TO.N,GND*%
X167120000Y-101380000D03*
X172770000Y-101380000D03*
%TD*%
D30*
%TO.P,Q1,1,G*%
%TO.N,Net-(Q1-G)*%
X176700000Y-86880000D03*
D31*
%TO.P,Q1,2,D*%
%TO.N,/DRAIN*%
X176700000Y-81430000D03*
%TO.P,Q1,3,S*%
%TO.N,GND*%
X176700000Y-75980000D03*
%TD*%
D22*
%TO.P,C3,1*%
%TO.N,/DRAIN*%
X182350000Y-79352500D03*
%TO.P,C3,2*%
%TO.N,GND*%
X182350000Y-76227500D03*
%TD*%
D32*
%TO.P,D1,1,K*%
%TO.N,11.5V*%
X158768234Y-101650000D03*
D33*
%TO.P,D1,2,A*%
%TO.N,Net-(D1-A)*%
X156228234Y-101650000D03*
%TD*%
D34*
%TO.P,U2,1,VDD*%
%TO.N,11.5V*%
X169980000Y-93242500D03*
%TO.P,U2,2,GND*%
%TO.N,GND*%
X169980000Y-94192500D03*
%TO.P,U2,3,IN+*%
%TO.N,Net-(RF_IN1-In)*%
X169980000Y-95142500D03*
%TO.P,U2,4,IN-*%
%TO.N,GND*%
X172680000Y-95142500D03*
%TO.P,U2,5,OUT*%
%TO.N,Net-(U2-OUT)*%
X172680000Y-93242500D03*
%TD*%
D27*
%TO.P,C6,1*%
%TO.N,+VDC*%
X191507500Y-76460000D03*
%TO.P,C6,2*%
%TO.N,GND*%
X194632500Y-76460000D03*
%TD*%
D12*
%TO.P,H1,1,1*%
%TO.N,GND*%
X143812944Y-66222944D03*
X144515888Y-64525888D03*
X144515888Y-67920000D03*
X146212944Y-63822944D03*
D13*
X146212944Y-66222944D03*
D12*
X146212944Y-68622944D03*
X147910000Y-64525888D03*
X147910000Y-67920000D03*
X148612944Y-66222944D03*
%TD*%
D27*
%TO.P,C2,1*%
%TO.N,Net-(RF_OUT1-In)*%
X200910000Y-94930000D03*
%TO.P,C2,2*%
%TO.N,GND*%
X204035000Y-94930000D03*
%TD*%
D22*
%TO.P,C8,1*%
%TO.N,Net-(D1-A)*%
X147690000Y-95792500D03*
%TO.P,C8,2*%
%TO.N,GND*%
X147690000Y-92667500D03*
%TD*%
D14*
%TO.P,C10,1*%
%TO.N,Net-(RF_OUT1-In)*%
X198490000Y-94907500D03*
%TO.P,C10,2*%
%TO.N,GND*%
X198490000Y-98032500D03*
%TD*%
D12*
%TO.P,H2,1,1*%
%TO.N,GND*%
X201352944Y-66177944D03*
X202055888Y-64480888D03*
X202055888Y-67875000D03*
X203752944Y-63777944D03*
D13*
X203752944Y-66177944D03*
D12*
X203752944Y-68577944D03*
X205450000Y-64480888D03*
X205450000Y-67875000D03*
X206152944Y-66177944D03*
%TD*%
D35*
%TO.P,R2,1*%
%TO.N,Net-(Q1-G)*%
X176930000Y-90850000D03*
%TO.P,R2,2*%
%TO.N,Net-(U2-OUT)*%
X176930000Y-93950000D03*
%TD*%
%TO.P,R3,1*%
%TO.N,Net-(Q1-G)*%
X179370000Y-90880000D03*
%TO.P,R3,2*%
%TO.N,GND*%
X179370000Y-93980000D03*
%TD*%
D36*
%TO.P,L3,1*%
%TO.N,+VDC*%
X188205000Y-84520000D03*
%TO.P,L3,2*%
%TO.N,/DRAIN*%
X181255000Y-84520000D03*
%TD*%
D37*
%TO.N,GND*%
X160070000Y-64960000D03*
X188412114Y-102371750D03*
X193492114Y-97291750D03*
X203652114Y-76971750D03*
X201112114Y-79511750D03*
X162610000Y-64960000D03*
X190952114Y-102371750D03*
X152450000Y-64960000D03*
X145232114Y-92211750D03*
X203652114Y-74431750D03*
X194495000Y-64795000D03*
X154750000Y-98520000D03*
X201112114Y-74431750D03*
X175712114Y-102371750D03*
X194495000Y-67335000D03*
X178252114Y-99831750D03*
X180792114Y-102371750D03*
X157530000Y-64960000D03*
X152450000Y-67500000D03*
X197035000Y-67335000D03*
X201112114Y-76971750D03*
X154990000Y-67500000D03*
X198572114Y-71891750D03*
X157290000Y-95980000D03*
X144160000Y-81940000D03*
X180792114Y-97291750D03*
X144160000Y-71780000D03*
X165150000Y-67500000D03*
X144160000Y-89560000D03*
X199575000Y-64795000D03*
X165150000Y-64960000D03*
X201112114Y-71891750D03*
X190952114Y-97291750D03*
X183332114Y-102371750D03*
X193492114Y-102371750D03*
X196032114Y-102371750D03*
X189415000Y-67335000D03*
X198572114Y-99831750D03*
X162610000Y-67500000D03*
X185872114Y-97291750D03*
X154990000Y-64960000D03*
X157290000Y-98520000D03*
X199575000Y-69875000D03*
X190952114Y-94751750D03*
X194495000Y-69875000D03*
X160070000Y-67500000D03*
X144160000Y-79400000D03*
X197035000Y-69875000D03*
X144160000Y-74320000D03*
X203652114Y-79511750D03*
X191955000Y-67335000D03*
X180792114Y-99831750D03*
X183332114Y-66811750D03*
X157530000Y-67500000D03*
X154750000Y-95980000D03*
X193492114Y-94751750D03*
X145232114Y-94751750D03*
X144160000Y-76860000D03*
X159830000Y-98520000D03*
X203652114Y-71891750D03*
X197035000Y-64795000D03*
X178252114Y-102371750D03*
X144160000Y-87020000D03*
X175712114Y-99831750D03*
X159830000Y-95980000D03*
X191955000Y-64795000D03*
X199575000Y-67335000D03*
X144160000Y-84480000D03*
X188412114Y-97291750D03*
X183332114Y-97291750D03*
X198572114Y-102371750D03*
X185872114Y-102371750D03*
%TO.N,+VDC*%
X188310000Y-85200000D03*
X188280000Y-84390000D03*
X151240000Y-93920000D03*
X150170000Y-93930000D03*
%TD*%
D38*
%TO.N,GND*%
X171730000Y-94192500D02*
X172680000Y-95142500D01*
X169980000Y-94192500D02*
X171730000Y-94192500D01*
D39*
%TO.N,+VDC*%
X191255000Y-76207500D02*
X191507500Y-76460000D01*
X186600000Y-70352500D02*
X186600000Y-76230000D01*
X175762651Y-67050000D02*
X175762651Y-71262651D01*
X188650000Y-76207500D02*
X191255000Y-76207500D01*
X191507500Y-82520000D02*
X191337500Y-82690000D01*
X186600000Y-76230000D02*
X187470000Y-76230000D01*
X183270000Y-70892500D02*
X183850000Y-70312500D01*
X191507500Y-76460000D02*
X191507500Y-82520000D01*
X183270000Y-71790000D02*
X176290000Y-71790000D01*
X187470000Y-76230000D02*
X187500000Y-76200000D01*
X187470000Y-76230000D02*
X188627500Y-76230000D01*
X187930000Y-82690000D02*
X187930000Y-84520000D01*
X186560000Y-70312500D02*
X186600000Y-70352500D01*
X175762651Y-71262651D02*
X176290000Y-71790000D01*
X183850000Y-70312500D02*
X186560000Y-70312500D01*
X183270000Y-71790000D02*
X183270000Y-70892500D01*
X184930000Y-76230000D02*
X186600000Y-76230000D01*
X191337500Y-82690000D02*
X187930000Y-82690000D01*
D40*
%TO.N,Net-(Q1-G)*%
X176700000Y-90500000D02*
X177000000Y-90800000D01*
X176930000Y-90850000D02*
X179340000Y-90850000D01*
X176700000Y-86880000D02*
X176700000Y-90500000D01*
D39*
%TO.N,Net-(C7-Pad1)*%
X191770000Y-89990000D02*
X193440000Y-88320000D01*
X189752500Y-89990000D02*
X191770000Y-89990000D01*
%TO.N,/DRAIN*%
X176700000Y-81430000D02*
X181440000Y-81430000D01*
X182350000Y-79352500D02*
X181877500Y-79352500D01*
X181530000Y-81520000D02*
X181530000Y-84520000D01*
X181440000Y-81430000D02*
X181530000Y-81520000D01*
X186627500Y-89892500D02*
X181255000Y-84520000D01*
X181877500Y-79352500D02*
X181530000Y-79700000D01*
X181530000Y-79700000D02*
X181530000Y-84520000D01*
X186627500Y-89990000D02*
X186627500Y-89892500D01*
%TO.N,Net-(RF_OUT1-In)*%
X204677500Y-85460000D02*
X199170000Y-85460000D01*
D40*
X200910000Y-94930000D02*
X198512500Y-94930000D01*
D39*
X198520000Y-86110000D02*
X198520000Y-88320000D01*
X198520000Y-90022500D02*
X200917500Y-92420000D01*
X200917500Y-94922500D02*
X200910000Y-94930000D01*
X199170000Y-85460000D02*
X198520000Y-86110000D01*
X198520000Y-88320000D02*
X198520000Y-90022500D01*
X200917500Y-92420000D02*
X200917500Y-94922500D01*
D41*
%TO.N,Net-(D1-A)*%
X147690000Y-95792500D02*
X148142500Y-95792500D01*
D39*
X151830000Y-101650000D02*
X151295000Y-101115000D01*
X156228234Y-101650000D02*
X151830000Y-101650000D01*
D40*
X156178234Y-101830000D02*
X154375000Y-101830000D01*
D39*
X151295000Y-98455000D02*
X151295000Y-101115000D01*
D41*
X148142500Y-95792500D02*
X150805000Y-98455000D01*
D40*
%TO.N,11.5V*%
X167812500Y-95007500D02*
X166867500Y-95952500D01*
X161290000Y-101830000D02*
X158718234Y-101830000D01*
D42*
X169980000Y-93242500D02*
X167717500Y-93242500D01*
D40*
X161990000Y-96490000D02*
X161940000Y-96540000D01*
X162350000Y-96172500D02*
X166647500Y-96172500D01*
X161940000Y-101180000D02*
X161290000Y-101830000D01*
X161940000Y-96540000D02*
X161940000Y-101180000D01*
X167812500Y-93270000D02*
X167812500Y-95007500D01*
X166867500Y-95952500D02*
X167425000Y-95395000D01*
X166647500Y-96172500D02*
X166867500Y-95952500D01*
%TO.N,Net-(U2-OUT)*%
X173342500Y-93242500D02*
X174050000Y-93950000D01*
X172680000Y-93242500D02*
X173342500Y-93242500D01*
X174050000Y-93950000D02*
X176930000Y-93950000D01*
D42*
%TO.N,Net-(RF_IN1-In)*%
X169945000Y-101580000D02*
X169945000Y-95177500D01*
X169945000Y-95177500D02*
X169980000Y-95142500D01*
%TD*%
%TA.AperFunction,Conductor*%
%TO.N,Net-(RF_IN1-In)*%
G36*
X170320420Y-99148427D02*
G01*
X170322975Y-99152267D01*
X170578312Y-99775878D01*
X170578518Y-99784201D01*
X169956034Y-101549705D01*
X169950051Y-101556368D01*
X169941110Y-101556849D01*
X169934447Y-101550866D01*
X169933966Y-101549705D01*
X169311481Y-99784201D01*
X169311686Y-99775879D01*
X169567025Y-99152267D01*
X169573332Y-99145909D01*
X169577853Y-99145000D01*
X170312147Y-99145000D01*
X170320420Y-99148427D01*
G37*
%TD.AperFunction*%
%TD*%
%TA.AperFunction,Conductor*%
%TO.N,11.5V*%
G36*
X159875299Y-100744826D02*
G01*
X160862474Y-101326605D01*
X160867862Y-101333758D01*
X160868234Y-101336685D01*
X160868234Y-102322209D01*
X160864807Y-102330482D01*
X160861046Y-102333004D01*
X159875461Y-102744968D01*
X159866506Y-102744997D01*
X159862687Y-102742457D01*
X158776358Y-101659099D01*
X158772920Y-101650831D01*
X158776336Y-101642553D01*
X158777163Y-101641799D01*
X159861910Y-100745885D01*
X159870470Y-100743260D01*
X159875299Y-100744826D01*
G37*
%TD.AperFunction*%
%TD*%
%TA.AperFunction,Conductor*%
%TO.N,Net-(RF_OUT1-In)*%
G36*
X199267944Y-86323427D02*
G01*
X199271281Y-86330249D01*
X199518357Y-88306862D01*
X199515982Y-88315496D01*
X199508198Y-88319923D01*
X199506759Y-88320013D01*
X198520012Y-88320999D01*
X198519988Y-88320999D01*
X197533240Y-88320013D01*
X197524971Y-88316578D01*
X197521552Y-88308301D01*
X197521642Y-88306862D01*
X197768719Y-86330249D01*
X197773146Y-86322465D01*
X197780329Y-86320000D01*
X199259671Y-86320000D01*
X199267944Y-86323427D01*
G37*
%TD.AperFunction*%
%TD*%
%TA.AperFunction,Conductor*%
%TO.N,Net-(Q1-G)*%
G36*
X178747785Y-90233085D02*
G01*
X178749105Y-90234263D01*
X179362483Y-90871156D01*
X179365754Y-90879492D01*
X179362172Y-90887699D01*
X179361757Y-90888080D01*
X178653671Y-91507173D01*
X178645187Y-91510039D01*
X178643674Y-91509838D01*
X177854404Y-91351882D01*
X177846964Y-91346898D01*
X177845000Y-91340409D01*
X177845000Y-90360243D01*
X177848427Y-90351970D01*
X177855153Y-90348646D01*
X178739133Y-90230782D01*
X178747785Y-90233085D01*
G37*
%TD.AperFunction*%
%TD*%
%TA.AperFunction,Conductor*%
%TO.N,GND*%
G36*
X144363948Y-101778386D02*
G01*
X144325888Y-101870272D01*
X144325888Y-101969728D01*
X144363948Y-102061614D01*
X144434274Y-102131940D01*
X144526160Y-102170000D01*
X144625616Y-102170000D01*
X144717498Y-102131941D01*
X143837592Y-103011847D01*
X143837593Y-103011848D01*
X144095150Y-103220412D01*
X144366307Y-103396505D01*
X144411810Y-103449526D01*
X144421424Y-103518731D01*
X144392097Y-103582148D01*
X144333140Y-103619642D01*
X144298772Y-103624500D01*
X142848654Y-103624500D01*
X142781615Y-103604815D01*
X142735860Y-103552011D01*
X142724654Y-103500472D01*
X142725039Y-101926201D01*
X142744739Y-101859171D01*
X142797554Y-101813429D01*
X142866715Y-101803502D01*
X142930264Y-101832543D01*
X142959523Y-101869941D01*
X143064254Y-102075487D01*
X143275475Y-102400737D01*
X143484039Y-102658294D01*
X143484040Y-102658294D01*
X144363948Y-101778386D01*
G37*
%TD.AperFunction*%
%TA.AperFunction,Conductor*%
G36*
X168774262Y-95623882D02*
G01*
X168797536Y-95651998D01*
X168836764Y-95716888D01*
X168950612Y-95830736D01*
X169009650Y-95866426D01*
X169056837Y-95917951D01*
X169069500Y-95972542D01*
X169069500Y-99008905D01*
X169060253Y-99055891D01*
X168843887Y-99584317D01*
X168838349Y-99599518D01*
X168831649Y-99617908D01*
X168830316Y-99621566D01*
X168828470Y-99632484D01*
X168822390Y-99655136D01*
X168815910Y-99672511D01*
X168815908Y-99672520D01*
X168809501Y-99732116D01*
X168809500Y-99732135D01*
X168809500Y-99734323D01*
X168807766Y-99754985D01*
X168806339Y-99763423D01*
X168806338Y-99763435D01*
X168806133Y-99771750D01*
X168806700Y-99811165D01*
X168806700Y-99811166D01*
X168807121Y-99813280D01*
X168809500Y-99837455D01*
X168809500Y-103427870D01*
X168809501Y-103427872D01*
X168815883Y-103487245D01*
X168815884Y-103487246D01*
X168803478Y-103556005D01*
X168755867Y-103607142D01*
X168692594Y-103624500D01*
X168419000Y-103624500D01*
X168351961Y-103604815D01*
X168306206Y-103552011D01*
X168295000Y-103500500D01*
X168295000Y-101630000D01*
X165945000Y-101630000D01*
X165945000Y-103500500D01*
X165925315Y-103567539D01*
X165872511Y-103613294D01*
X165821000Y-103624500D01*
X148247116Y-103624500D01*
X148180077Y-103604815D01*
X148134322Y-103552011D01*
X148124378Y-103482853D01*
X148153403Y-103419297D01*
X148179581Y-103396505D01*
X148450727Y-103220420D01*
X148450729Y-103220419D01*
X148708293Y-103011846D01*
X147828387Y-102131940D01*
X147920272Y-102170000D01*
X148019728Y-102170000D01*
X148111614Y-102131940D01*
X148181940Y-102061614D01*
X148220000Y-101969728D01*
X148220000Y-101870272D01*
X148181940Y-101778387D01*
X149061846Y-102658293D01*
X149270419Y-102400729D01*
X149270420Y-102400727D01*
X149481633Y-102075487D01*
X149657699Y-101729938D01*
X149796681Y-101367879D01*
X149796682Y-101367877D01*
X149816821Y-101292716D01*
X149853185Y-101233055D01*
X149916032Y-101202525D01*
X149985407Y-101210819D01*
X150039286Y-101255304D01*
X150059069Y-101305409D01*
X150075291Y-101407827D01*
X150136117Y-101595030D01*
X150204066Y-101728386D01*
X150225476Y-101770405D01*
X150341172Y-101929646D01*
X150876172Y-102464646D01*
X151015354Y-102603828D01*
X151174595Y-102719524D01*
X151349975Y-102808884D01*
X151470007Y-102847885D01*
X151537173Y-102869709D01*
X151592718Y-102878506D01*
X151731578Y-102900500D01*
X151731583Y-102900500D01*
X154047855Y-102900500D01*
X154066374Y-102901890D01*
X155556253Y-103126987D01*
X155566036Y-103128871D01*
X155672134Y-103153781D01*
X155691226Y-103159933D01*
X155716541Y-103170419D01*
X155732123Y-103176873D01*
X155977086Y-103235683D01*
X156228234Y-103255449D01*
X156479382Y-103235683D01*
X156724345Y-103176873D01*
X156957093Y-103080466D01*
X157089253Y-102999477D01*
X157156695Y-102981234D01*
X157223298Y-103002350D01*
X157253306Y-103030894D01*
X157310689Y-103107547D01*
X157425898Y-103193793D01*
X157425905Y-103193797D01*
X157560751Y-103244091D01*
X157560750Y-103244091D01*
X157567678Y-103244835D01*
X157620361Y-103250500D01*
X159916106Y-103250499D01*
X159975717Y-103244091D01*
X160041717Y-103219473D01*
X160053970Y-103215615D01*
X160070410Y-103211364D01*
X160958643Y-102840091D01*
X161006464Y-102830500D01*
X161388543Y-102830500D01*
X161460991Y-102816088D01*
X161497216Y-102808883D01*
X161581836Y-102792051D01*
X161635165Y-102769961D01*
X161763914Y-102716632D01*
X161927782Y-102607139D01*
X162067139Y-102467782D01*
X162067140Y-102467779D01*
X162074206Y-102460714D01*
X162074209Y-102460710D01*
X162577778Y-101957141D01*
X162577782Y-101957139D01*
X162717139Y-101817782D01*
X162826632Y-101653914D01*
X162902051Y-101471835D01*
X162935156Y-101305409D01*
X162940500Y-101278543D01*
X162940500Y-101130000D01*
X165945000Y-101130000D01*
X166870000Y-101130000D01*
X166870000Y-98780000D01*
X167370000Y-98780000D01*
X167370000Y-101130000D01*
X168295000Y-101130000D01*
X168295000Y-99232172D01*
X168294999Y-99232155D01*
X168288598Y-99172627D01*
X168288596Y-99172620D01*
X168238354Y-99037913D01*
X168238350Y-99037906D01*
X168152190Y-98922812D01*
X168152187Y-98922809D01*
X168037093Y-98836649D01*
X168037086Y-98836645D01*
X167902379Y-98786403D01*
X167902372Y-98786401D01*
X167842844Y-98780000D01*
X167370000Y-98780000D01*
X166870000Y-98780000D01*
X166397155Y-98780000D01*
X166337627Y-98786401D01*
X166337620Y-98786403D01*
X166202913Y-98836645D01*
X166202906Y-98836649D01*
X166087812Y-98922809D01*
X166087809Y-98922812D01*
X166001649Y-99037906D01*
X166001645Y-99037913D01*
X165951403Y-99172620D01*
X165951401Y-99172627D01*
X165945000Y-99232155D01*
X165945000Y-101130000D01*
X162940500Y-101130000D01*
X162940500Y-97680474D01*
X162958227Y-97616584D01*
X163004361Y-97539846D01*
X163104705Y-97372938D01*
X163156115Y-97325626D01*
X163189229Y-97314753D01*
X163974446Y-97174921D01*
X163996186Y-97173000D01*
X166746042Y-97173000D01*
X166765370Y-97169155D01*
X166842688Y-97153775D01*
X166939336Y-97134551D01*
X166992665Y-97112461D01*
X167121414Y-97059132D01*
X167285282Y-96949639D01*
X167424639Y-96810282D01*
X167424641Y-96810278D01*
X167644639Y-96590281D01*
X168202139Y-96032781D01*
X168450278Y-95784641D01*
X168450282Y-95784639D01*
X168589639Y-95645282D01*
X168589641Y-95645277D01*
X168593503Y-95640574D01*
X168594926Y-95641742D01*
X168641904Y-95602464D01*
X168711227Y-95593741D01*
X168774262Y-95623882D01*
G37*
%TD.AperFunction*%
%TA.AperFunction,Conductor*%
G36*
X201847514Y-62794909D02*
G01*
X201893291Y-62847694D01*
X201903263Y-62916849D01*
X201874265Y-62980416D01*
X201848054Y-63003248D01*
X201575146Y-63180478D01*
X201317592Y-63389039D01*
X201317592Y-63389040D01*
X202197499Y-64268946D01*
X202105616Y-64230888D01*
X202006160Y-64230888D01*
X201914274Y-64268948D01*
X201843948Y-64339274D01*
X201805888Y-64431160D01*
X201805888Y-64530616D01*
X201843946Y-64622498D01*
X200964040Y-63742592D01*
X200964039Y-63742592D01*
X200755475Y-64000150D01*
X200544254Y-64325400D01*
X200368188Y-64670949D01*
X200229206Y-65033007D01*
X200128831Y-65407613D01*
X200128830Y-65407620D01*
X200068163Y-65790656D01*
X200047866Y-66177943D01*
X200047866Y-66177944D01*
X200068163Y-66565231D01*
X200128830Y-66948267D01*
X200128831Y-66948274D01*
X200229206Y-67322880D01*
X200368188Y-67684938D01*
X200544254Y-68030487D01*
X200755475Y-68355737D01*
X200964039Y-68613294D01*
X200964040Y-68613294D01*
X201843948Y-67733386D01*
X201805888Y-67825272D01*
X201805888Y-67924728D01*
X201843948Y-68016614D01*
X201914274Y-68086940D01*
X202006160Y-68125000D01*
X202105616Y-68125000D01*
X202197498Y-68086941D01*
X201317592Y-68966847D01*
X201317593Y-68966848D01*
X201575150Y-69175412D01*
X201900400Y-69386633D01*
X202245949Y-69562699D01*
X202608007Y-69701681D01*
X202982613Y-69802056D01*
X202982620Y-69802057D01*
X203365656Y-69862724D01*
X203752943Y-69883022D01*
X203752945Y-69883022D01*
X204140231Y-69862724D01*
X204523267Y-69802057D01*
X204523274Y-69802056D01*
X204897880Y-69701681D01*
X205259938Y-69562699D01*
X205605487Y-69386633D01*
X205930727Y-69175420D01*
X205930729Y-69175419D01*
X206188293Y-68966846D01*
X205308387Y-68086940D01*
X205400272Y-68125000D01*
X205499728Y-68125000D01*
X205591614Y-68086940D01*
X205661940Y-68016614D01*
X205700000Y-67924728D01*
X205700000Y-67825272D01*
X205661940Y-67733387D01*
X206541846Y-68613293D01*
X206750419Y-68355729D01*
X206750419Y-68355727D01*
X206930691Y-68078133D01*
X206983712Y-68032630D01*
X207052917Y-68023015D01*
X207116334Y-68052342D01*
X207153828Y-68111300D01*
X207158686Y-68145698D01*
X207155417Y-81525139D01*
X207135716Y-81592174D01*
X207082901Y-81637916D01*
X207013740Y-81647843D01*
X206950191Y-81618802D01*
X206941055Y-81608986D01*
X206940960Y-81609082D01*
X206934687Y-81602809D01*
X206819593Y-81516649D01*
X206819586Y-81516645D01*
X206684879Y-81466403D01*
X206684872Y-81466401D01*
X206625344Y-81460000D01*
X204727500Y-81460000D01*
X204727500Y-83810000D01*
X206625328Y-83810000D01*
X206625344Y-83809999D01*
X206684872Y-83803598D01*
X206684879Y-83803596D01*
X206819586Y-83753354D01*
X206819593Y-83753350D01*
X206934687Y-83667190D01*
X206940960Y-83660918D01*
X206942898Y-83662856D01*
X206987521Y-83629441D01*
X207057211Y-83624444D01*
X207118540Y-83657919D01*
X207152036Y-83719236D01*
X207154874Y-83745645D01*
X207154684Y-84524290D01*
X207134983Y-84591325D01*
X207082168Y-84637067D01*
X207013007Y-84646994D01*
X206949458Y-84617953D01*
X206926699Y-84589703D01*
X206926612Y-84589769D01*
X206924770Y-84587309D01*
X206921850Y-84583684D01*
X206921297Y-84582673D01*
X206921296Y-84582669D01*
X206877593Y-84524290D01*
X206835047Y-84467455D01*
X206835044Y-84467452D01*
X206719835Y-84381206D01*
X206719828Y-84381202D01*
X206584982Y-84330908D01*
X206584983Y-84330908D01*
X206525383Y-84324501D01*
X206525381Y-84324500D01*
X206525373Y-84324500D01*
X206525365Y-84324500D01*
X205233189Y-84324500D01*
X205176894Y-84310985D01*
X205157528Y-84301117D01*
X204970326Y-84240290D01*
X204775922Y-84209500D01*
X204775917Y-84209500D01*
X199071583Y-84209500D01*
X199071578Y-84209500D01*
X198877173Y-84240290D01*
X198689969Y-84301117D01*
X198514594Y-84390476D01*
X198423741Y-84456485D01*
X198355354Y-84506172D01*
X198355352Y-84506174D01*
X198355351Y-84506174D01*
X197566174Y-85295351D01*
X197566174Y-85295352D01*
X197566172Y-85295354D01*
X197516485Y-85363741D01*
X197450476Y-85454594D01*
X197361115Y-85629973D01*
X197361114Y-85629976D01*
X197327896Y-85732215D01*
X197300290Y-85817176D01*
X197300290Y-85817177D01*
X197269500Y-86011577D01*
X197269500Y-86243387D01*
X197267559Y-86263139D01*
X197267672Y-86263154D01*
X197267142Y-86267386D01*
X197267131Y-86267508D01*
X197267122Y-86267552D01*
X197048979Y-88012686D01*
X197046143Y-88027743D01*
X197034893Y-88072172D01*
X197034890Y-88072185D01*
X197022025Y-88227449D01*
X197021492Y-88232583D01*
X197020048Y-88244138D01*
X197017127Y-88275320D01*
X197017038Y-88276746D01*
X197017085Y-88278901D01*
X197016691Y-88291825D01*
X197014358Y-88319994D01*
X197014357Y-88320001D01*
X197014357Y-88320005D01*
X197034890Y-88567812D01*
X197034892Y-88567824D01*
X197095937Y-88808883D01*
X197106874Y-88833817D01*
X197112377Y-88850781D01*
X197112731Y-88850678D01*
X197264494Y-89368479D01*
X197269500Y-89403355D01*
X197269500Y-90120922D01*
X197300290Y-90315326D01*
X197361117Y-90502530D01*
X197441322Y-90659939D01*
X197450476Y-90677905D01*
X197566172Y-90837146D01*
X197566174Y-90837148D01*
X199630681Y-92901655D01*
X199664166Y-92962978D01*
X199667000Y-92989336D01*
X199667000Y-93684111D01*
X199647315Y-93751150D01*
X199594511Y-93796905D01*
X199525353Y-93806849D01*
X199518310Y-93805628D01*
X199341944Y-93769793D01*
X199341936Y-93769792D01*
X199341929Y-93769790D01*
X199340013Y-93769401D01*
X199340030Y-93769316D01*
X199323761Y-93765260D01*
X199315377Y-93762482D01*
X199292796Y-93755000D01*
X199190010Y-93744500D01*
X197789998Y-93744500D01*
X197789981Y-93744501D01*
X197687203Y-93755000D01*
X197687200Y-93755001D01*
X197520668Y-93810185D01*
X197520663Y-93810187D01*
X197371342Y-93902289D01*
X197247289Y-94026342D01*
X197155187Y-94175663D01*
X197155185Y-94175668D01*
X197146802Y-94200966D01*
X197100001Y-94342203D01*
X197100001Y-94342204D01*
X197100000Y-94342204D01*
X197089500Y-94444983D01*
X197089500Y-95370001D01*
X197089501Y-95370019D01*
X197100000Y-95472796D01*
X197100001Y-95472799D01*
X197155185Y-95639331D01*
X197155187Y-95639336D01*
X197158855Y-95645282D01*
X197247288Y-95788656D01*
X197371344Y-95912712D01*
X197520666Y-96004814D01*
X197687203Y-96059999D01*
X197789991Y-96070500D01*
X199190008Y-96070499D01*
X199199919Y-96069486D01*
X199211332Y-96068851D01*
X199222578Y-96068745D01*
X199250194Y-96064506D01*
X199256328Y-96063723D01*
X199292797Y-96059999D01*
X199293975Y-96059608D01*
X199294282Y-96059507D01*
X199314492Y-96054642D01*
X199718462Y-95992663D01*
X199766698Y-95994774D01*
X199844431Y-96013770D01*
X199902676Y-96046544D01*
X199904788Y-96048656D01*
X200028844Y-96172712D01*
X200178166Y-96264814D01*
X200344703Y-96319999D01*
X200447491Y-96330500D01*
X201372508Y-96330499D01*
X201372516Y-96330498D01*
X201372519Y-96330498D01*
X201428802Y-96324748D01*
X201475297Y-96319999D01*
X201641834Y-96264814D01*
X201791156Y-96172712D01*
X201915212Y-96048656D01*
X202007314Y-95899334D01*
X202062499Y-95732797D01*
X202073000Y-95630009D01*
X202072999Y-95432583D01*
X202079068Y-95394264D01*
X202079642Y-95392500D01*
X202137209Y-95215326D01*
X202154953Y-95103293D01*
X202161120Y-95064356D01*
X202168000Y-95020921D01*
X202168000Y-94680000D01*
X202872500Y-94680000D01*
X203785000Y-94680000D01*
X204285000Y-94680000D01*
X205197499Y-94680000D01*
X205197499Y-94230028D01*
X205197498Y-94230013D01*
X205187005Y-94127302D01*
X205131858Y-93960880D01*
X205131856Y-93960875D01*
X205039815Y-93811654D01*
X204994592Y-93766431D01*
X204961107Y-93705108D01*
X204966091Y-93635416D01*
X204994592Y-93591069D01*
X205047315Y-93538345D01*
X205139356Y-93389124D01*
X205139358Y-93389119D01*
X205194505Y-93222697D01*
X205194506Y-93222690D01*
X205204999Y-93119986D01*
X205205000Y-93119973D01*
X205205000Y-92670000D01*
X204292500Y-92670000D01*
X204292500Y-93804138D01*
X204285000Y-93829679D01*
X204285000Y-94680000D01*
X203785000Y-94680000D01*
X203785000Y-93545862D01*
X203792500Y-93520320D01*
X203792500Y-92670000D01*
X202880001Y-92670000D01*
X202880001Y-93119986D01*
X202890494Y-93222697D01*
X202945641Y-93389119D01*
X202945643Y-93389124D01*
X203037684Y-93538345D01*
X203082908Y-93583570D01*
X203116392Y-93644893D01*
X203111407Y-93714585D01*
X203082908Y-93758930D01*
X203030184Y-93811654D01*
X202938143Y-93960875D01*
X202938141Y-93960880D01*
X202882994Y-94127302D01*
X202882993Y-94127309D01*
X202872500Y-94230013D01*
X202872500Y-94680000D01*
X202168000Y-94680000D01*
X202168000Y-92321577D01*
X202143992Y-92170000D01*
X202880000Y-92170000D01*
X203792500Y-92170000D01*
X203792500Y-91020000D01*
X204292500Y-91020000D01*
X204292500Y-92170000D01*
X205204999Y-92170000D01*
X205204999Y-91720028D01*
X205204998Y-91720013D01*
X205194505Y-91617302D01*
X205139358Y-91450880D01*
X205139356Y-91450875D01*
X205047315Y-91301654D01*
X204923345Y-91177684D01*
X204774124Y-91085643D01*
X204774119Y-91085641D01*
X204607697Y-91030494D01*
X204607690Y-91030493D01*
X204504986Y-91020000D01*
X204292500Y-91020000D01*
X203792500Y-91020000D01*
X203580029Y-91020000D01*
X203580012Y-91020001D01*
X203477302Y-91030494D01*
X203310880Y-91085641D01*
X203310875Y-91085643D01*
X203161654Y-91177684D01*
X203037684Y-91301654D01*
X202945643Y-91450875D01*
X202945641Y-91450880D01*
X202890494Y-91617302D01*
X202890493Y-91617309D01*
X202880000Y-91720013D01*
X202880000Y-92170000D01*
X202143992Y-92170000D01*
X202137209Y-92127173D01*
X202118357Y-92069155D01*
X202099506Y-92011136D01*
X202095110Y-91997608D01*
X202086568Y-91971317D01*
X202080499Y-91932999D01*
X202080499Y-91719998D01*
X202080498Y-91719981D01*
X202069999Y-91617203D01*
X202069998Y-91617200D01*
X202038093Y-91520917D01*
X202014814Y-91450666D01*
X201922712Y-91301344D01*
X201798656Y-91177288D01*
X201649334Y-91085186D01*
X201482797Y-91030001D01*
X201482795Y-91030000D01*
X201380016Y-91019500D01*
X201380009Y-91019500D01*
X201336836Y-91019500D01*
X201269797Y-90999815D01*
X201249155Y-90983181D01*
X199851820Y-89585846D01*
X199818335Y-89524523D01*
X199817626Y-89475310D01*
X199939219Y-88827006D01*
X199943817Y-88809596D01*
X199944055Y-88808897D01*
X199944063Y-88808881D01*
X200005108Y-88567821D01*
X200007827Y-88535000D01*
X201877500Y-88535000D01*
X201877500Y-89007844D01*
X201883901Y-89067372D01*
X201883903Y-89067379D01*
X201934145Y-89202086D01*
X201934149Y-89202093D01*
X202020309Y-89317187D01*
X202020312Y-89317190D01*
X202135406Y-89403350D01*
X202135413Y-89403354D01*
X202270120Y-89453596D01*
X202270127Y-89453598D01*
X202329655Y-89459999D01*
X202329672Y-89460000D01*
X204227500Y-89460000D01*
X204227500Y-88535000D01*
X201877500Y-88535000D01*
X200007827Y-88535000D01*
X200020155Y-88386212D01*
X200020571Y-88382059D01*
X200020695Y-88380990D01*
X200020705Y-88380922D01*
X200020906Y-88378773D01*
X200020905Y-88378745D01*
X200020945Y-88377857D01*
X200021251Y-88372999D01*
X200025643Y-88320000D01*
X200020362Y-88256284D01*
X200020008Y-88245217D01*
X200019952Y-88244176D01*
X200019953Y-88244163D01*
X200018505Y-88232583D01*
X200017976Y-88227488D01*
X200013866Y-88177883D01*
X200005108Y-88072179D01*
X199995693Y-88035000D01*
X201877500Y-88035000D01*
X204227500Y-88035000D01*
X204227500Y-87110000D01*
X202329655Y-87110000D01*
X202270127Y-87116401D01*
X202270120Y-87116403D01*
X202135413Y-87166645D01*
X202135406Y-87166649D01*
X202020312Y-87252809D01*
X202020309Y-87252812D01*
X201934149Y-87367906D01*
X201934145Y-87367913D01*
X201883903Y-87502620D01*
X201883901Y-87502627D01*
X201877500Y-87562155D01*
X201877500Y-88035000D01*
X199995693Y-88035000D01*
X199993852Y-88027730D01*
X199991018Y-88012686D01*
X199845668Y-86849878D01*
X199856885Y-86780917D01*
X199903606Y-86728966D01*
X199968710Y-86710500D01*
X204775922Y-86710500D01*
X204970326Y-86679709D01*
X205157525Y-86618884D01*
X205176897Y-86609013D01*
X205233189Y-86595499D01*
X206525371Y-86595499D01*
X206525372Y-86595499D01*
X206584983Y-86589091D01*
X206719831Y-86538796D01*
X206835046Y-86452546D01*
X206921296Y-86337331D01*
X206921300Y-86337319D01*
X206921387Y-86337163D01*
X206921528Y-86337020D01*
X206926612Y-86330231D01*
X206927587Y-86330961D01*
X206970786Y-86287752D01*
X207039057Y-86272892D01*
X207104525Y-86297301D01*
X207146403Y-86353230D01*
X207154226Y-86396607D01*
X207154037Y-87173295D01*
X207134336Y-87240330D01*
X207081521Y-87286072D01*
X207012360Y-87295999D01*
X206948811Y-87266958D01*
X206941228Y-87258813D01*
X206940960Y-87259082D01*
X206934687Y-87252809D01*
X206819593Y-87166649D01*
X206819586Y-87166645D01*
X206684879Y-87116403D01*
X206684872Y-87116401D01*
X206625344Y-87110000D01*
X204727500Y-87110000D01*
X204727500Y-89460000D01*
X206625328Y-89460000D01*
X206625344Y-89459999D01*
X206684872Y-89453598D01*
X206684879Y-89453596D01*
X206819586Y-89403354D01*
X206819593Y-89403350D01*
X206934687Y-89317190D01*
X206940960Y-89310918D01*
X206943364Y-89313322D01*
X206986117Y-89281294D01*
X207055807Y-89276284D01*
X207117142Y-89309747D01*
X207150650Y-89371058D01*
X207153493Y-89397490D01*
X207151295Y-98392052D01*
X207131594Y-98459087D01*
X207078779Y-98504829D01*
X207009618Y-98514756D01*
X206946069Y-98485715D01*
X206916810Y-98448317D01*
X206851633Y-98320400D01*
X206640412Y-97995150D01*
X206431848Y-97737593D01*
X206431847Y-97737592D01*
X205551941Y-98617497D01*
X205590000Y-98525616D01*
X205590000Y-98426160D01*
X205551940Y-98334274D01*
X205481614Y-98263948D01*
X205389728Y-98225888D01*
X205290272Y-98225888D01*
X205198387Y-98263947D01*
X206078294Y-97384040D01*
X206078294Y-97384039D01*
X205820737Y-97175475D01*
X205495487Y-96964254D01*
X205149938Y-96788188D01*
X204787883Y-96649207D01*
X204496793Y-96571210D01*
X204437133Y-96534845D01*
X204406604Y-96471998D01*
X204414899Y-96402622D01*
X204459384Y-96348744D01*
X204516287Y-96328077D01*
X204600196Y-96319506D01*
X204766619Y-96264358D01*
X204766624Y-96264356D01*
X204915845Y-96172315D01*
X205039815Y-96048345D01*
X205131856Y-95899124D01*
X205131858Y-95899119D01*
X205187005Y-95732697D01*
X205187006Y-95732690D01*
X205197499Y-95629986D01*
X205197500Y-95629973D01*
X205197500Y-95180000D01*
X202872501Y-95180000D01*
X202872501Y-95629986D01*
X202882994Y-95732697D01*
X202938141Y-95899119D01*
X202938143Y-95899124D01*
X203030184Y-96048345D01*
X203154154Y-96172315D01*
X203297538Y-96260755D01*
X203344262Y-96312703D01*
X203355485Y-96381666D01*
X203327641Y-96445748D01*
X203269573Y-96484604D01*
X203251839Y-96488767D01*
X202872620Y-96548830D01*
X202872613Y-96548831D01*
X202498007Y-96649206D01*
X202135949Y-96788188D01*
X201790400Y-96964254D01*
X201465150Y-97175475D01*
X201207592Y-97384039D01*
X201207592Y-97384040D01*
X202087499Y-98263946D01*
X201995616Y-98225888D01*
X201896160Y-98225888D01*
X201804274Y-98263948D01*
X201733948Y-98334274D01*
X201695888Y-98426160D01*
X201695888Y-98525616D01*
X201733946Y-98617498D01*
X200854040Y-97737592D01*
X200854039Y-97737592D01*
X200645475Y-97995150D01*
X200434254Y-98320400D01*
X200258188Y-98665949D01*
X200119206Y-99028007D01*
X200018831Y-99402613D01*
X200018830Y-99402620D01*
X199958163Y-99785656D01*
X199937866Y-100172943D01*
X199937866Y-100172944D01*
X199958163Y-100560231D01*
X200018830Y-100943267D01*
X200018831Y-100943274D01*
X200119206Y-101317880D01*
X200258188Y-101679938D01*
X200434254Y-102025487D01*
X200645475Y-102350737D01*
X200854039Y-102608294D01*
X200854040Y-102608294D01*
X201733948Y-101728386D01*
X201695888Y-101820272D01*
X201695888Y-101919728D01*
X201733948Y-102011614D01*
X201804274Y-102081940D01*
X201896160Y-102120000D01*
X201995616Y-102120000D01*
X202087498Y-102081941D01*
X201207592Y-102961847D01*
X201207593Y-102961848D01*
X201465150Y-103170412D01*
X201790402Y-103381635D01*
X201790405Y-103381636D01*
X201806849Y-103390015D01*
X201857645Y-103437989D01*
X201874441Y-103505809D01*
X201851904Y-103571945D01*
X201797190Y-103615397D01*
X201750555Y-103624500D01*
X174069000Y-103624500D01*
X174001961Y-103604815D01*
X173956206Y-103552011D01*
X173945000Y-103500500D01*
X173945000Y-101630000D01*
X171595000Y-101630000D01*
X171595000Y-103500500D01*
X171575315Y-103567539D01*
X171522511Y-103613294D01*
X171471000Y-103624500D01*
X171197406Y-103624500D01*
X171130367Y-103604815D01*
X171084612Y-103552011D01*
X171074116Y-103487246D01*
X171080500Y-103427873D01*
X171080499Y-101130000D01*
X171595000Y-101130000D01*
X172520000Y-101130000D01*
X172520000Y-98780000D01*
X173020000Y-98780000D01*
X173020000Y-101130000D01*
X173945000Y-101130000D01*
X173945000Y-99232172D01*
X173944999Y-99232155D01*
X173938598Y-99172627D01*
X173938596Y-99172620D01*
X173888354Y-99037913D01*
X173888350Y-99037906D01*
X173802190Y-98922812D01*
X173802187Y-98922809D01*
X173687093Y-98836649D01*
X173687086Y-98836645D01*
X173552379Y-98786403D01*
X173552372Y-98786401D01*
X173492844Y-98780000D01*
X173020000Y-98780000D01*
X172520000Y-98780000D01*
X172047155Y-98780000D01*
X171987627Y-98786401D01*
X171987620Y-98786403D01*
X171852913Y-98836645D01*
X171852906Y-98836649D01*
X171737812Y-98922809D01*
X171737809Y-98922812D01*
X171651649Y-99037906D01*
X171651645Y-99037913D01*
X171601403Y-99172620D01*
X171601401Y-99172627D01*
X171595000Y-99232155D01*
X171595000Y-101130000D01*
X171080499Y-101130000D01*
X171080499Y-99807384D01*
X171081362Y-99792779D01*
X171083863Y-99771692D01*
X171083857Y-99771463D01*
X171083657Y-99763370D01*
X171081132Y-99723890D01*
X171080569Y-99721649D01*
X171077554Y-99704734D01*
X171074091Y-99672520D01*
X171074091Y-99672517D01*
X171058631Y-99631066D01*
X171054540Y-99617908D01*
X171049926Y-99599518D01*
X171046117Y-99584336D01*
X170829746Y-99055891D01*
X170820500Y-99008908D01*
X170820500Y-98282500D01*
X197090001Y-98282500D01*
X197090001Y-98494986D01*
X197100494Y-98597697D01*
X197155641Y-98764119D01*
X197155643Y-98764124D01*
X197247684Y-98913345D01*
X197371654Y-99037315D01*
X197520875Y-99129356D01*
X197520880Y-99129358D01*
X197687302Y-99184505D01*
X197687309Y-99184506D01*
X197790019Y-99194999D01*
X198239999Y-99194999D01*
X198240000Y-99194998D01*
X198240000Y-98282500D01*
X198740000Y-98282500D01*
X198740000Y-99194999D01*
X199189972Y-99194999D01*
X199189986Y-99194998D01*
X199292697Y-99184505D01*
X199459119Y-99129358D01*
X199459124Y-99129356D01*
X199608345Y-99037315D01*
X199732315Y-98913345D01*
X199824356Y-98764124D01*
X199824358Y-98764119D01*
X199879505Y-98597697D01*
X199879506Y-98597690D01*
X199889999Y-98494986D01*
X199890000Y-98494973D01*
X199890000Y-98282500D01*
X198740000Y-98282500D01*
X198240000Y-98282500D01*
X197090001Y-98282500D01*
X170820500Y-98282500D01*
X170820500Y-97782500D01*
X197090000Y-97782500D01*
X198240000Y-97782500D01*
X198240000Y-96870000D01*
X198740000Y-96870000D01*
X198740000Y-97782500D01*
X199889999Y-97782500D01*
X199889999Y-97570028D01*
X199889998Y-97570013D01*
X199879505Y-97467302D01*
X199824358Y-97300880D01*
X199824356Y-97300875D01*
X199732315Y-97151654D01*
X199608345Y-97027684D01*
X199459124Y-96935643D01*
X199459119Y-96935641D01*
X199292697Y-96880494D01*
X199292690Y-96880493D01*
X199189986Y-96870000D01*
X198740000Y-96870000D01*
X198240000Y-96870000D01*
X197790028Y-96870000D01*
X197790012Y-96870001D01*
X197687302Y-96880494D01*
X197520880Y-96935641D01*
X197520875Y-96935643D01*
X197371654Y-97027684D01*
X197247684Y-97151654D01*
X197155643Y-97300875D01*
X197155641Y-97300880D01*
X197100494Y-97467302D01*
X197100493Y-97467309D01*
X197090000Y-97570013D01*
X197090000Y-97782500D01*
X170820500Y-97782500D01*
X170820500Y-96014859D01*
X170840185Y-95947820D01*
X170880348Y-95908743D01*
X171009388Y-95830736D01*
X171123236Y-95716888D01*
X171206531Y-95579102D01*
X171211876Y-95561947D01*
X171250613Y-95503799D01*
X171314637Y-95475824D01*
X171383623Y-95486905D01*
X171435667Y-95533522D01*
X171448648Y-95561947D01*
X171453929Y-95578895D01*
X171537163Y-95716580D01*
X171650919Y-95830336D01*
X171788603Y-95913570D01*
X171942207Y-95961434D01*
X172008957Y-95967500D01*
X172430000Y-95967500D01*
X172430000Y-95392500D01*
X172930000Y-95392500D01*
X172930000Y-95967500D01*
X173351043Y-95967500D01*
X173417792Y-95961434D01*
X173571396Y-95913570D01*
X173709080Y-95830336D01*
X173822836Y-95716580D01*
X173906072Y-95578892D01*
X173953932Y-95425302D01*
X173953935Y-95425292D01*
X173956914Y-95392500D01*
X172930000Y-95392500D01*
X172430000Y-95392500D01*
X172430000Y-95016500D01*
X172449685Y-94949461D01*
X172502489Y-94903706D01*
X172554000Y-94892500D01*
X173686299Y-94892500D01*
X173733751Y-94901938D01*
X173758164Y-94912051D01*
X173830352Y-94926410D01*
X173847455Y-94929812D01*
X173951456Y-94950500D01*
X173951459Y-94950500D01*
X173951460Y-94950500D01*
X174148540Y-94950500D01*
X175322904Y-94950500D01*
X175343289Y-94952187D01*
X176124540Y-95082395D01*
X176143162Y-95087003D01*
X176151997Y-95089930D01*
X176152203Y-95089999D01*
X176194689Y-95094338D01*
X176202474Y-95095384D01*
X176215819Y-95097609D01*
X176261988Y-95103136D01*
X176264131Y-95103293D01*
X176364558Y-95100641D01*
X176364557Y-95100641D01*
X176368309Y-95100542D01*
X176371582Y-95100499D01*
X177605002Y-95100499D01*
X177605008Y-95100499D01*
X177707797Y-95089999D01*
X177874334Y-95034814D01*
X178023656Y-94942712D01*
X178047672Y-94918695D01*
X178108993Y-94885211D01*
X178178685Y-94890194D01*
X178223033Y-94918695D01*
X178276654Y-94972315D01*
X178425875Y-95064356D01*
X178425880Y-95064358D01*
X178592302Y-95119505D01*
X178592309Y-95119506D01*
X178695019Y-95129999D01*
X179119999Y-95129999D01*
X179120000Y-95129998D01*
X179120000Y-94230000D01*
X179620000Y-94230000D01*
X179620000Y-95129999D01*
X180044972Y-95129999D01*
X180044986Y-95129998D01*
X180147697Y-95119505D01*
X180314119Y-95064358D01*
X180314124Y-95064356D01*
X180463345Y-94972315D01*
X180587315Y-94848345D01*
X180679356Y-94699124D01*
X180679358Y-94699119D01*
X180734505Y-94532697D01*
X180734506Y-94532690D01*
X180744999Y-94429986D01*
X180745000Y-94429973D01*
X180745000Y-94230000D01*
X179620000Y-94230000D01*
X179120000Y-94230000D01*
X179120000Y-92830000D01*
X179620000Y-92830000D01*
X179620000Y-93730000D01*
X180744999Y-93730000D01*
X180744999Y-93530028D01*
X180744998Y-93530013D01*
X180734505Y-93427302D01*
X180679358Y-93260880D01*
X180679356Y-93260875D01*
X180587315Y-93111654D01*
X180463345Y-92987684D01*
X180314124Y-92895643D01*
X180314119Y-92895641D01*
X180147697Y-92840494D01*
X180147690Y-92840493D01*
X180044986Y-92830000D01*
X179620000Y-92830000D01*
X179120000Y-92830000D01*
X178695028Y-92830000D01*
X178695012Y-92830001D01*
X178592302Y-92840494D01*
X178425880Y-92895641D01*
X178425875Y-92895643D01*
X178276656Y-92987682D01*
X178253033Y-93011306D01*
X178191709Y-93044790D01*
X178122017Y-93039804D01*
X178077672Y-93011304D01*
X178023657Y-92957289D01*
X178023656Y-92957288D01*
X177874334Y-92865186D01*
X177707797Y-92810001D01*
X177707795Y-92810000D01*
X177605016Y-92799500D01*
X177605009Y-92799500D01*
X176368651Y-92799500D01*
X176359913Y-92799169D01*
X176346474Y-92799469D01*
X176343709Y-92799500D01*
X176255000Y-92799500D01*
X176254978Y-92799502D01*
X176234664Y-92801577D01*
X176224840Y-92802188D01*
X176215823Y-92802389D01*
X176202442Y-92804619D01*
X176194671Y-92805662D01*
X176152201Y-92810001D01*
X176143158Y-92812997D01*
X176124551Y-92817600D01*
X175343281Y-92947813D01*
X175322895Y-92949500D01*
X174515782Y-92949500D01*
X174448743Y-92929815D01*
X174428101Y-92913181D01*
X174123979Y-92609059D01*
X174123959Y-92609037D01*
X173980285Y-92465363D01*
X173980281Y-92465360D01*
X173816420Y-92355871D01*
X173816407Y-92355864D01*
X173683145Y-92300666D01*
X173683144Y-92300666D01*
X173634336Y-92280449D01*
X173634328Y-92280447D01*
X173537688Y-92261224D01*
X173441044Y-92242000D01*
X173441041Y-92242000D01*
X172581459Y-92242000D01*
X172581457Y-92242000D01*
X172388170Y-92280447D01*
X172388160Y-92280450D01*
X172206093Y-92355864D01*
X172206077Y-92355873D01*
X172145867Y-92396103D01*
X172079189Y-92416980D01*
X172076980Y-92417000D01*
X172008900Y-92417000D01*
X171942117Y-92423068D01*
X171942106Y-92423071D01*
X171788401Y-92470967D01*
X171650608Y-92554266D01*
X171536766Y-92668108D01*
X171500734Y-92727713D01*
X171457356Y-92799469D01*
X171453468Y-92805900D01*
X171448385Y-92822212D01*
X171409647Y-92880360D01*
X171345621Y-92908333D01*
X171276636Y-92897251D01*
X171224594Y-92850632D01*
X171211615Y-92822212D01*
X171208743Y-92812997D01*
X171206531Y-92805898D01*
X171123236Y-92668112D01*
X171123234Y-92668110D01*
X171123233Y-92668108D01*
X171009391Y-92554266D01*
X170871602Y-92470969D01*
X170859834Y-92467302D01*
X170717887Y-92423070D01*
X170717885Y-92423069D01*
X170717883Y-92423069D01*
X170671117Y-92418819D01*
X170651091Y-92417000D01*
X170651088Y-92417000D01*
X170299523Y-92417000D01*
X170252074Y-92407562D01*
X170235374Y-92400645D01*
X170235370Y-92400644D01*
X170235366Y-92400642D01*
X170066232Y-92367000D01*
X170066229Y-92367000D01*
X169273744Y-92367000D01*
X169226700Y-92357730D01*
X169222171Y-92355873D01*
X168886968Y-92218426D01*
X168832410Y-92174780D01*
X168828473Y-92168791D01*
X168817903Y-92151654D01*
X168817712Y-92151344D01*
X168693656Y-92027288D01*
X168569391Y-91950641D01*
X168544336Y-91935187D01*
X168544331Y-91935185D01*
X168507758Y-91923066D01*
X168377797Y-91880001D01*
X168377795Y-91880000D01*
X168275010Y-91869500D01*
X167349998Y-91869500D01*
X167349980Y-91869501D01*
X167247203Y-91880000D01*
X167247200Y-91880001D01*
X167080668Y-91935185D01*
X167080663Y-91935187D01*
X166931342Y-92027289D01*
X166807289Y-92151342D01*
X166715187Y-92300663D01*
X166715185Y-92300668D01*
X166708257Y-92321577D01*
X166660001Y-92467203D01*
X166660001Y-92467204D01*
X166660000Y-92467204D01*
X166649500Y-92569983D01*
X166649500Y-93855311D01*
X166648725Y-93864809D01*
X166648995Y-93864827D01*
X166648601Y-93870903D01*
X166649431Y-93895739D01*
X166649500Y-93899877D01*
X166649500Y-93970003D01*
X166652661Y-94000949D01*
X166653232Y-94009382D01*
X166653410Y-94014689D01*
X166653412Y-94014710D01*
X166654139Y-94018793D01*
X166655415Y-94027912D01*
X166660000Y-94072796D01*
X166665313Y-94088827D01*
X166669686Y-94106092D01*
X166753472Y-94576583D01*
X166745846Y-94646035D01*
X166719074Y-94686004D01*
X166269399Y-95135681D01*
X166208076Y-95169166D01*
X166181718Y-95172000D01*
X163996192Y-95172000D01*
X163974452Y-95170079D01*
X163186092Y-95029685D01*
X163168834Y-95025314D01*
X163152801Y-95020002D01*
X163152795Y-95020000D01*
X163107908Y-95015414D01*
X163098801Y-95014140D01*
X163094736Y-95013417D01*
X163094712Y-95013413D01*
X163094694Y-95013410D01*
X163048261Y-95007344D01*
X163047988Y-95007321D01*
X163046107Y-95007163D01*
X162941159Y-95008856D01*
X162931807Y-95009500D01*
X161649998Y-95009500D01*
X161649980Y-95009501D01*
X161561600Y-95018530D01*
X161492907Y-95005760D01*
X161442023Y-94957879D01*
X161426798Y-94901799D01*
X161424999Y-94900000D01*
X159340000Y-94900000D01*
X159340000Y-99574999D01*
X160724974Y-99574999D01*
X160724988Y-99574998D01*
X160802898Y-99567039D01*
X160871591Y-99579808D01*
X160922475Y-99627689D01*
X160939500Y-99690397D01*
X160939500Y-100568235D01*
X160919815Y-100635274D01*
X160867011Y-100681029D01*
X160797853Y-100690973D01*
X160752542Y-100675063D01*
X160401422Y-100468135D01*
X160353661Y-100417139D01*
X160348198Y-100404640D01*
X160312031Y-100307671D01*
X160312027Y-100307664D01*
X160225781Y-100192455D01*
X160225778Y-100192452D01*
X160110569Y-100106206D01*
X160110562Y-100106202D01*
X159975716Y-100055908D01*
X159975717Y-100055908D01*
X159916117Y-100049501D01*
X159916115Y-100049500D01*
X159916107Y-100049500D01*
X159916098Y-100049500D01*
X157620363Y-100049500D01*
X157620357Y-100049501D01*
X157560750Y-100055908D01*
X157425905Y-100106202D01*
X157425898Y-100106206D01*
X157310689Y-100192452D01*
X157253306Y-100269105D01*
X157197372Y-100310976D01*
X157127680Y-100315959D01*
X157089250Y-100300520D01*
X156957093Y-100219533D01*
X156724344Y-100123126D01*
X156479385Y-100064317D01*
X156228234Y-100044551D01*
X155977082Y-100064317D01*
X155732121Y-100123127D01*
X155732119Y-100123127D01*
X155657499Y-100154036D01*
X155628571Y-100162084D01*
X155427572Y-100192452D01*
X154066362Y-100398109D01*
X154047849Y-100399500D01*
X152669500Y-100399500D01*
X152602461Y-100379815D01*
X152556706Y-100327011D01*
X152545500Y-100275500D01*
X152545500Y-98356577D01*
X152514709Y-98162173D01*
X152460439Y-97995150D01*
X152453884Y-97974975D01*
X152453882Y-97974972D01*
X152453882Y-97974970D01*
X152441159Y-97950000D01*
X153405001Y-97950000D01*
X153405001Y-98874988D01*
X153415494Y-98977699D01*
X153470640Y-99144120D01*
X153470642Y-99144125D01*
X153562683Y-99293346D01*
X153686653Y-99417316D01*
X153835874Y-99509357D01*
X153835879Y-99509359D01*
X154002302Y-99564506D01*
X154002300Y-99564506D01*
X154061134Y-99570516D01*
X154072124Y-99575000D01*
X154098701Y-99575000D01*
X154111304Y-99575642D01*
X154118461Y-99576373D01*
X154126419Y-99575000D01*
X154156375Y-99575000D01*
X154156384Y-99574999D01*
X155180000Y-99574999D01*
X155180000Y-97950000D01*
X155680000Y-97950000D01*
X155680000Y-99574999D01*
X157165000Y-99574999D01*
X157165000Y-97950000D01*
X157665000Y-97950000D01*
X157665000Y-99574999D01*
X158840000Y-99574999D01*
X158840000Y-97950000D01*
X157665000Y-97950000D01*
X157165000Y-97950000D01*
X155680000Y-97950000D01*
X155180000Y-97950000D01*
X153405001Y-97950000D01*
X152441159Y-97950000D01*
X152364523Y-97799594D01*
X152352103Y-97782500D01*
X152260572Y-97656518D01*
X152255352Y-97648730D01*
X152247713Y-97636346D01*
X152247712Y-97636344D01*
X152123656Y-97512288D01*
X152123655Y-97512287D01*
X152123653Y-97512285D01*
X152117992Y-97507809D01*
X152118072Y-97507707D01*
X152112788Y-97503856D01*
X152109653Y-97501179D01*
X152109646Y-97501172D01*
X151950405Y-97385476D01*
X151925802Y-97372940D01*
X151778492Y-97297882D01*
X151747106Y-97275078D01*
X150897028Y-96425000D01*
X153405000Y-96425000D01*
X153405000Y-97449999D01*
X153405002Y-97450000D01*
X155180000Y-97450000D01*
X155180000Y-96425000D01*
X155680000Y-96425000D01*
X155680000Y-97450000D01*
X157165000Y-97450000D01*
X157165000Y-96425000D01*
X155680000Y-96425000D01*
X155180000Y-96425000D01*
X153405000Y-96425000D01*
X150897028Y-96425000D01*
X149655918Y-95183890D01*
X149622433Y-95122567D01*
X149627417Y-95052875D01*
X149669289Y-94996942D01*
X149734753Y-94972525D01*
X149782600Y-94978503D01*
X149802203Y-94984999D01*
X149904991Y-94995500D01*
X151705008Y-94995499D01*
X151807797Y-94984999D01*
X151974334Y-94929814D01*
X152022670Y-94900000D01*
X153405000Y-94900000D01*
X153405000Y-95925000D01*
X155180000Y-95925000D01*
X155180000Y-94900000D01*
X155680000Y-94900000D01*
X155680000Y-95925000D01*
X157165000Y-95925000D01*
X157165000Y-94900000D01*
X157665000Y-94900000D01*
X157665000Y-97450000D01*
X158840000Y-97450000D01*
X158840000Y-94900000D01*
X157665000Y-94900000D01*
X157165000Y-94900000D01*
X155680000Y-94900000D01*
X155180000Y-94900000D01*
X153405000Y-94900000D01*
X152022670Y-94900000D01*
X152123656Y-94837712D01*
X152247712Y-94713656D01*
X152339814Y-94564334D01*
X152394269Y-94400000D01*
X153405000Y-94400000D01*
X155180000Y-94400000D01*
X155180000Y-92775000D01*
X155680000Y-92775000D01*
X155680000Y-94400000D01*
X157165000Y-94400000D01*
X157165000Y-92775000D01*
X157665000Y-92775000D01*
X157665000Y-94400000D01*
X158840000Y-94400000D01*
X159340000Y-94400000D01*
X161424999Y-94400000D01*
X161424999Y-94324324D01*
X161444684Y-94257285D01*
X161497488Y-94211530D01*
X161561603Y-94200966D01*
X161650021Y-94209999D01*
X162099999Y-94209999D01*
X162100000Y-94209998D01*
X162100000Y-93297500D01*
X162600000Y-93297500D01*
X162600000Y-94209999D01*
X163049972Y-94209999D01*
X163049986Y-94209998D01*
X163152697Y-94199505D01*
X163319119Y-94144358D01*
X163319126Y-94144355D01*
X163385015Y-94103714D01*
X163452408Y-94085273D01*
X163519071Y-94106195D01*
X163563841Y-94159837D01*
X163567819Y-94170247D01*
X163590642Y-94239121D01*
X163590643Y-94239124D01*
X163682684Y-94388345D01*
X163806654Y-94512315D01*
X163955875Y-94604356D01*
X163955880Y-94604358D01*
X164122302Y-94659505D01*
X164122309Y-94659506D01*
X164225019Y-94669999D01*
X164437499Y-94669999D01*
X164437500Y-94669998D01*
X164437500Y-93520000D01*
X164937500Y-93520000D01*
X164937500Y-94669999D01*
X165149972Y-94669999D01*
X165149986Y-94669998D01*
X165252697Y-94659505D01*
X165419119Y-94604358D01*
X165419124Y-94604356D01*
X165568345Y-94512315D01*
X165692315Y-94388345D01*
X165784356Y-94239124D01*
X165784358Y-94239119D01*
X165839505Y-94072697D01*
X165839506Y-94072690D01*
X165849999Y-93969986D01*
X165850000Y-93969973D01*
X165850000Y-93520000D01*
X164937500Y-93520000D01*
X164437500Y-93520000D01*
X163606000Y-93520000D01*
X163538961Y-93500315D01*
X163493206Y-93447511D01*
X163482000Y-93396000D01*
X163482000Y-93297500D01*
X162600000Y-93297500D01*
X162100000Y-93297500D01*
X162100000Y-92797500D01*
X162600000Y-92797500D01*
X163669000Y-92797500D01*
X163736039Y-92817185D01*
X163781794Y-92869989D01*
X163793000Y-92921500D01*
X163793000Y-93020000D01*
X164437500Y-93020000D01*
X164437500Y-91870000D01*
X164937500Y-91870000D01*
X164937500Y-93020000D01*
X165849999Y-93020000D01*
X165849999Y-92570028D01*
X165849998Y-92570013D01*
X165839505Y-92467302D01*
X165784358Y-92300880D01*
X165784356Y-92300875D01*
X165692315Y-92151654D01*
X165568345Y-92027684D01*
X165419124Y-91935643D01*
X165419119Y-91935641D01*
X165252697Y-91880494D01*
X165252690Y-91880493D01*
X165149986Y-91870000D01*
X164937500Y-91870000D01*
X164437500Y-91870000D01*
X164225029Y-91870000D01*
X164225012Y-91870001D01*
X164122302Y-91880494D01*
X163955880Y-91935641D01*
X163955875Y-91935643D01*
X163806654Y-92027684D01*
X163717679Y-92116658D01*
X163656356Y-92150142D01*
X163586664Y-92145157D01*
X163542318Y-92116657D01*
X163468345Y-92042684D01*
X163319124Y-91950643D01*
X163319119Y-91950641D01*
X163152697Y-91895494D01*
X163152690Y-91895493D01*
X163049986Y-91885000D01*
X162600000Y-91885000D01*
X162600000Y-92797500D01*
X162100000Y-92797500D01*
X162100000Y-91885000D01*
X161650028Y-91885000D01*
X161650012Y-91885001D01*
X161547302Y-91895494D01*
X161380880Y-91950641D01*
X161380875Y-91950643D01*
X161231654Y-92042684D01*
X161107684Y-92166654D01*
X161015643Y-92315875D01*
X161015641Y-92315880D01*
X160960494Y-92482302D01*
X160960493Y-92482309D01*
X160950000Y-92585013D01*
X160950000Y-92660674D01*
X160930315Y-92727713D01*
X160877511Y-92773468D01*
X160813398Y-92784032D01*
X160724990Y-92775000D01*
X159340000Y-92775000D01*
X159340000Y-94400000D01*
X158840000Y-94400000D01*
X158840000Y-92775000D01*
X157665000Y-92775000D01*
X157165000Y-92775000D01*
X155680000Y-92775000D01*
X155180000Y-92775000D01*
X154104197Y-92775000D01*
X154101364Y-92775374D01*
X154002300Y-92785494D01*
X153835879Y-92840640D01*
X153835874Y-92840642D01*
X153686653Y-92932683D01*
X153562683Y-93056653D01*
X153470642Y-93205874D01*
X153470640Y-93205879D01*
X153415494Y-93372301D01*
X153405000Y-93475011D01*
X153405000Y-94400000D01*
X152394269Y-94400000D01*
X152394999Y-94397797D01*
X152405500Y-94295009D01*
X152405499Y-93494992D01*
X152403886Y-93479206D01*
X152394999Y-93392203D01*
X152394998Y-93392200D01*
X152363617Y-93297500D01*
X152339814Y-93225666D01*
X152247712Y-93076344D01*
X152123656Y-92952288D01*
X152030888Y-92895069D01*
X151974336Y-92860187D01*
X151974331Y-92860185D01*
X151915354Y-92840642D01*
X151807797Y-92805001D01*
X151807795Y-92805000D01*
X151705010Y-92794500D01*
X149904998Y-92794500D01*
X149904981Y-92794501D01*
X149802203Y-92805000D01*
X149802200Y-92805001D01*
X149635668Y-92860185D01*
X149635663Y-92860187D01*
X149486342Y-92952289D01*
X149362289Y-93076342D01*
X149319539Y-93145652D01*
X149267591Y-93192376D01*
X149198628Y-93203599D01*
X149134546Y-93175755D01*
X149095690Y-93117687D01*
X149090000Y-93080555D01*
X149090000Y-92917500D01*
X147940000Y-92917500D01*
X147940000Y-93829999D01*
X148389972Y-93829999D01*
X148389986Y-93829998D01*
X148492697Y-93819505D01*
X148659119Y-93764358D01*
X148659124Y-93764356D01*
X148808345Y-93672315D01*
X148932315Y-93548345D01*
X148974961Y-93479206D01*
X149026909Y-93432482D01*
X149095872Y-93421259D01*
X149159954Y-93449103D01*
X149198810Y-93507171D01*
X149204500Y-93544303D01*
X149204500Y-94295001D01*
X149204501Y-94295019D01*
X149215000Y-94397796D01*
X149215001Y-94397799D01*
X149233072Y-94452332D01*
X149235474Y-94522160D01*
X149199742Y-94582202D01*
X149137222Y-94613395D01*
X149067762Y-94605834D01*
X149042480Y-94591654D01*
X149037145Y-94587778D01*
X148928934Y-94509157D01*
X148862470Y-94475292D01*
X148718496Y-94401933D01*
X148493868Y-94328946D01*
X148260597Y-94292000D01*
X148260592Y-94292000D01*
X147571908Y-94292000D01*
X147571903Y-94292000D01*
X147338631Y-94328946D01*
X147114003Y-94401933D01*
X146903566Y-94509157D01*
X146712490Y-94647982D01*
X146585242Y-94775230D01*
X146574481Y-94784807D01*
X146571344Y-94787287D01*
X146447289Y-94911342D01*
X146355187Y-95060663D01*
X146355186Y-95060666D01*
X146314150Y-95184502D01*
X146306932Y-95201785D01*
X146299433Y-95216504D01*
X146299431Y-95216509D01*
X146226447Y-95441127D01*
X146226447Y-95441130D01*
X146189500Y-95674402D01*
X146189500Y-95910597D01*
X146226447Y-96143869D01*
X146226447Y-96143872D01*
X146296773Y-96360309D01*
X146298768Y-96430150D01*
X146262688Y-96489983D01*
X146199987Y-96520811D01*
X146185332Y-96522457D01*
X145885656Y-96538163D01*
X145502620Y-96598830D01*
X145502613Y-96598831D01*
X145128007Y-96699206D01*
X144765949Y-96838188D01*
X144420400Y-97014254D01*
X144095150Y-97225475D01*
X143837592Y-97434039D01*
X143837592Y-97434040D01*
X144717499Y-98313946D01*
X144625616Y-98275888D01*
X144526160Y-98275888D01*
X144434274Y-98313948D01*
X144363948Y-98384274D01*
X144325888Y-98476160D01*
X144325888Y-98575616D01*
X144363946Y-98667498D01*
X143484040Y-97787592D01*
X143484039Y-97787592D01*
X143275475Y-98045150D01*
X143064254Y-98370400D01*
X142960356Y-98574312D01*
X142912381Y-98625108D01*
X142844560Y-98641903D01*
X142778425Y-98619366D01*
X142734974Y-98564651D01*
X142725872Y-98517992D01*
X142727241Y-92917500D01*
X146290001Y-92917500D01*
X146290001Y-93129986D01*
X146300494Y-93232697D01*
X146355641Y-93399119D01*
X146355643Y-93399124D01*
X146447684Y-93548345D01*
X146571654Y-93672315D01*
X146720875Y-93764356D01*
X146720880Y-93764358D01*
X146887302Y-93819505D01*
X146887309Y-93819506D01*
X146990019Y-93829999D01*
X147439999Y-93829999D01*
X147440000Y-93829998D01*
X147440000Y-92917500D01*
X146290001Y-92917500D01*
X142727241Y-92917500D01*
X142727582Y-91520918D01*
X145949500Y-91520918D01*
X145979082Y-91550500D01*
X146384477Y-91550500D01*
X146451516Y-91570185D01*
X146497271Y-91622989D01*
X146507215Y-91692147D01*
X146478190Y-91755703D01*
X146472158Y-91762181D01*
X146447684Y-91786654D01*
X146355643Y-91935875D01*
X146355641Y-91935880D01*
X146300494Y-92102302D01*
X146300493Y-92102309D01*
X146290000Y-92205013D01*
X146290000Y-92417500D01*
X149089999Y-92417500D01*
X149089999Y-92205028D01*
X149089998Y-92205013D01*
X149079505Y-92102302D01*
X149024358Y-91935880D01*
X149024356Y-91935875D01*
X148932315Y-91786654D01*
X148907842Y-91762181D01*
X148874357Y-91700858D01*
X148879341Y-91631166D01*
X148921213Y-91575233D01*
X148986677Y-91550816D01*
X148995523Y-91550500D01*
X173570918Y-91550500D01*
X173600500Y-91520918D01*
X173600500Y-88177870D01*
X173949500Y-88177870D01*
X173949501Y-88177876D01*
X173955908Y-88237483D01*
X174006202Y-88372328D01*
X174006206Y-88372335D01*
X174092452Y-88487544D01*
X174092455Y-88487547D01*
X174207664Y-88573793D01*
X174207671Y-88573797D01*
X174342517Y-88624091D01*
X174342516Y-88624091D01*
X174349444Y-88624835D01*
X174402127Y-88630500D01*
X175308446Y-88630499D01*
X175375485Y-88650183D01*
X175419355Y-88699044D01*
X175686409Y-89233150D01*
X175699500Y-89288605D01*
X175699500Y-89497903D01*
X175697155Y-89521903D01*
X175694605Y-89534824D01*
X175669248Y-90022126D01*
X175650956Y-90080777D01*
X175620187Y-90130663D01*
X175620186Y-90130665D01*
X175620186Y-90130666D01*
X175565001Y-90297203D01*
X175565001Y-90297204D01*
X175565000Y-90297204D01*
X175554500Y-90399983D01*
X175554500Y-91300001D01*
X175554501Y-91300019D01*
X175565000Y-91402796D01*
X175565001Y-91402799D01*
X175620185Y-91569331D01*
X175620187Y-91569336D01*
X175638688Y-91599331D01*
X175712288Y-91718656D01*
X175836344Y-91842712D01*
X175985666Y-91934814D01*
X176152203Y-91989999D01*
X176254991Y-92000500D01*
X177491356Y-92000499D01*
X177500079Y-92000829D01*
X177500331Y-92000823D01*
X177500335Y-92000824D01*
X177513202Y-92000536D01*
X177513487Y-92000530D01*
X177516257Y-92000499D01*
X177605003Y-92000499D01*
X177605008Y-92000499D01*
X177605013Y-92000498D01*
X177605022Y-92000498D01*
X177615360Y-91999441D01*
X177625354Y-91998420D01*
X177635173Y-91997810D01*
X177644180Y-91997609D01*
X177657557Y-91995378D01*
X177665311Y-91994338D01*
X177707797Y-91989999D01*
X177714317Y-91987838D01*
X177716835Y-91987004D01*
X177735453Y-91982396D01*
X178091433Y-91923066D01*
X178136146Y-91923789D01*
X178544476Y-92005509D01*
X178544489Y-92005511D01*
X178546467Y-92005907D01*
X178546426Y-92006110D01*
X178561653Y-92009876D01*
X178565456Y-92011136D01*
X178592203Y-92019999D01*
X178694991Y-92030500D01*
X180045008Y-92030499D01*
X180147797Y-92019999D01*
X180314334Y-91964814D01*
X180463656Y-91872712D01*
X180587712Y-91748656D01*
X180679814Y-91599334D01*
X180734999Y-91432797D01*
X180745500Y-91330009D01*
X180745499Y-90429992D01*
X180742434Y-90399991D01*
X180734999Y-90327203D01*
X180734998Y-90327200D01*
X180720292Y-90282820D01*
X180679814Y-90160666D01*
X180587712Y-90011344D01*
X180463656Y-89887288D01*
X180314334Y-89795186D01*
X180147797Y-89740001D01*
X180147795Y-89740000D01*
X180045010Y-89729500D01*
X178694988Y-89729500D01*
X178691841Y-89729661D01*
X178691832Y-89729484D01*
X178684073Y-89729836D01*
X178677634Y-89729770D01*
X178672324Y-89729716D01*
X178672323Y-89729716D01*
X178672317Y-89729716D01*
X178606851Y-89738444D01*
X178603077Y-89738889D01*
X178592199Y-89740001D01*
X178592009Y-89740042D01*
X178582464Y-89741696D01*
X178210651Y-89791271D01*
X178173878Y-89790672D01*
X177893430Y-89743931D01*
X177830538Y-89713493D01*
X177799614Y-89669931D01*
X177710299Y-89458813D01*
X177700500Y-89410500D01*
X177700500Y-89288602D01*
X177713591Y-89233148D01*
X177729119Y-89202093D01*
X177980642Y-88699044D01*
X178028229Y-88647886D01*
X178091551Y-88630499D01*
X178997871Y-88630499D01*
X178997872Y-88630499D01*
X179057483Y-88624091D01*
X179192331Y-88573796D01*
X179307546Y-88487546D01*
X179393796Y-88372331D01*
X179444091Y-88237483D01*
X179450500Y-88177873D01*
X179450499Y-85582128D01*
X179444091Y-85522517D01*
X179418757Y-85454594D01*
X179393797Y-85387671D01*
X179393793Y-85387664D01*
X179307547Y-85272455D01*
X179307544Y-85272452D01*
X179192335Y-85186206D01*
X179192328Y-85186202D01*
X179057482Y-85135908D01*
X179057483Y-85135908D01*
X178997883Y-85129501D01*
X178997881Y-85129500D01*
X178997873Y-85129500D01*
X178997864Y-85129500D01*
X174402129Y-85129500D01*
X174402123Y-85129501D01*
X174342516Y-85135908D01*
X174207671Y-85186202D01*
X174207664Y-85186206D01*
X174092455Y-85272452D01*
X174092452Y-85272455D01*
X174006206Y-85387664D01*
X174006202Y-85387671D01*
X173955908Y-85522517D01*
X173949501Y-85582116D01*
X173949501Y-85582123D01*
X173949500Y-85582135D01*
X173949500Y-88177870D01*
X173600500Y-88177870D01*
X173600500Y-81544741D01*
X173949500Y-81544741D01*
X173972299Y-81717906D01*
X173979452Y-81772238D01*
X173979453Y-81772240D01*
X174038842Y-81993887D01*
X174126650Y-82205876D01*
X174126657Y-82205890D01*
X174241392Y-82404617D01*
X174381081Y-82586661D01*
X174381089Y-82586670D01*
X174543330Y-82748911D01*
X174543338Y-82748918D01*
X174725382Y-82888607D01*
X174725385Y-82888608D01*
X174725388Y-82888611D01*
X174924112Y-83003344D01*
X174924117Y-83003346D01*
X174924123Y-83003349D01*
X175015480Y-83041190D01*
X175136113Y-83091158D01*
X175357762Y-83150548D01*
X175585266Y-83180500D01*
X175585273Y-83180500D01*
X177814727Y-83180500D01*
X177814734Y-83180500D01*
X178042238Y-83150548D01*
X178263887Y-83091158D01*
X178430538Y-83022128D01*
X178475879Y-83003348D01*
X178475882Y-83003346D01*
X178475888Y-83003344D01*
X178616813Y-82921980D01*
X178658320Y-82907074D01*
X179929579Y-82694168D01*
X179998948Y-82702509D01*
X180052797Y-82747030D01*
X180074027Y-82813596D01*
X180065608Y-82861462D01*
X180046322Y-82910986D01*
X180003651Y-82966313D01*
X179990201Y-82974821D01*
X179987666Y-82976204D01*
X179872455Y-83062452D01*
X179872452Y-83062455D01*
X179786206Y-83177664D01*
X179786202Y-83177671D01*
X179735908Y-83312517D01*
X179729501Y-83372116D01*
X179729500Y-83372135D01*
X179729500Y-85667870D01*
X179729501Y-85667876D01*
X179735908Y-85727483D01*
X179786202Y-85862328D01*
X179786206Y-85862335D01*
X179872452Y-85977544D01*
X179872455Y-85977547D01*
X179987664Y-86063793D01*
X179987671Y-86063797D01*
X180032618Y-86080561D01*
X180122517Y-86114091D01*
X180182127Y-86120500D01*
X180720698Y-86120499D01*
X180787737Y-86140183D01*
X180796151Y-86146097D01*
X181556299Y-86728966D01*
X182127102Y-87166649D01*
X182141070Y-87177359D01*
X182144055Y-87179551D01*
X182158343Y-87191817D01*
X185428181Y-90461655D01*
X185461666Y-90522978D01*
X185464500Y-90549335D01*
X185464500Y-90690000D01*
X185464501Y-90690019D01*
X185475000Y-90792796D01*
X185475001Y-90792799D01*
X185489697Y-90837147D01*
X185530186Y-90959334D01*
X185622288Y-91108656D01*
X185746344Y-91232712D01*
X185895666Y-91324814D01*
X186062203Y-91379999D01*
X186164991Y-91390500D01*
X187090008Y-91390499D01*
X187090016Y-91390498D01*
X187090019Y-91390498D01*
X187146302Y-91384748D01*
X187192797Y-91379999D01*
X187359334Y-91324814D01*
X187508656Y-91232712D01*
X187632712Y-91108656D01*
X187724814Y-90959334D01*
X187779999Y-90792797D01*
X187790500Y-90690009D01*
X187790499Y-90476997D01*
X187796568Y-90438678D01*
X187847209Y-90282826D01*
X187866557Y-90160666D01*
X187878000Y-90088422D01*
X188502000Y-90088422D01*
X188532790Y-90282826D01*
X188583431Y-90438680D01*
X188589500Y-90476997D01*
X188589500Y-90690000D01*
X188589501Y-90690019D01*
X188600000Y-90792796D01*
X188600001Y-90792799D01*
X188614697Y-90837147D01*
X188655186Y-90959334D01*
X188747288Y-91108656D01*
X188871344Y-91232712D01*
X189020666Y-91324814D01*
X189187203Y-91379999D01*
X189289991Y-91390500D01*
X190215008Y-91390499D01*
X190215016Y-91390498D01*
X190215019Y-91390498D01*
X190271302Y-91384748D01*
X190317797Y-91379999D01*
X190484334Y-91324814D01*
X190591100Y-91258961D01*
X190656196Y-91240500D01*
X191868422Y-91240500D01*
X192062826Y-91209709D01*
X192250026Y-91148884D01*
X192425405Y-91059524D01*
X192584646Y-90943828D01*
X192855856Y-90672616D01*
X192871187Y-90660028D01*
X192871118Y-90659939D01*
X192874526Y-90657287D01*
X192874591Y-90657235D01*
X192874602Y-90657226D01*
X192874616Y-90657219D01*
X194240611Y-89594778D01*
X194257718Y-89583607D01*
X194263509Y-89580474D01*
X194459744Y-89427738D01*
X194493276Y-89391311D01*
X194494879Y-89389604D01*
X194531018Y-89351867D01*
X194531021Y-89351861D01*
X194534266Y-89347594D01*
X194541747Y-89338656D01*
X194628164Y-89244785D01*
X194764173Y-89036607D01*
X194864063Y-88808881D01*
X194925108Y-88567821D01*
X194940595Y-88380922D01*
X194945643Y-88320005D01*
X194945643Y-88319994D01*
X194925109Y-88072187D01*
X194925107Y-88072175D01*
X194864063Y-87831118D01*
X194764173Y-87603393D01*
X194628166Y-87395217D01*
X194552474Y-87312994D01*
X194459744Y-87212262D01*
X194263509Y-87059526D01*
X194263507Y-87059525D01*
X194263506Y-87059524D01*
X194044811Y-86941172D01*
X194044802Y-86941169D01*
X193809616Y-86860429D01*
X193564335Y-86819500D01*
X193315665Y-86819500D01*
X193070383Y-86860429D01*
X192835197Y-86941169D01*
X192835188Y-86941172D01*
X192616493Y-87059524D01*
X192420254Y-87212263D01*
X192344027Y-87295068D01*
X192338852Y-87300363D01*
X192325747Y-87312994D01*
X192319218Y-87321388D01*
X192312575Y-87329233D01*
X192251840Y-87395209D01*
X192202332Y-87470985D01*
X192196404Y-87479291D01*
X191253477Y-88691629D01*
X191196781Y-88732461D01*
X191155597Y-88739500D01*
X190656196Y-88739500D01*
X190591100Y-88721039D01*
X190484340Y-88655189D01*
X190484335Y-88655187D01*
X190484334Y-88655186D01*
X190317797Y-88600001D01*
X190317795Y-88600000D01*
X190215010Y-88589500D01*
X189289998Y-88589500D01*
X189289980Y-88589501D01*
X189187203Y-88600000D01*
X189187200Y-88600001D01*
X189020668Y-88655185D01*
X189020663Y-88655187D01*
X188871342Y-88747289D01*
X188747289Y-88871342D01*
X188655187Y-89020663D01*
X188655185Y-89020668D01*
X188639709Y-89067372D01*
X188600001Y-89187203D01*
X188600001Y-89187204D01*
X188600000Y-89187204D01*
X188589500Y-89289983D01*
X188589500Y-89503002D01*
X188583431Y-89541321D01*
X188532790Y-89697173D01*
X188502000Y-89891577D01*
X188502000Y-90088422D01*
X187878000Y-90088422D01*
X187878000Y-89794077D01*
X187858336Y-89669931D01*
X187847209Y-89599674D01*
X187837121Y-89568628D01*
X187818064Y-89509975D01*
X187796568Y-89443817D01*
X187790499Y-89405499D01*
X187790499Y-89289998D01*
X187790498Y-89289981D01*
X187779999Y-89187203D01*
X187779998Y-89187200D01*
X187740293Y-89067379D01*
X187724814Y-89020666D01*
X187632712Y-88871344D01*
X187508656Y-88747288D01*
X187359334Y-88655186D01*
X187265496Y-88624091D01*
X187192798Y-88600001D01*
X187192791Y-88600000D01*
X187137194Y-88594320D01*
X187072503Y-88567923D01*
X187062117Y-88558643D01*
X183925518Y-85422044D01*
X183912920Y-85406702D01*
X183912831Y-85406772D01*
X183910209Y-85403401D01*
X183910136Y-85403312D01*
X183910112Y-85403276D01*
X182811620Y-83990925D01*
X182786000Y-83925923D01*
X182785500Y-83914797D01*
X182785500Y-82431698D01*
X182784048Y-82404617D01*
X182782602Y-82377654D01*
X182782600Y-82377648D01*
X182781925Y-82373229D01*
X182780500Y-82354483D01*
X182780500Y-80639499D01*
X182800185Y-80572460D01*
X182852989Y-80526705D01*
X182904500Y-80515499D01*
X183050002Y-80515499D01*
X183050008Y-80515499D01*
X183152797Y-80504999D01*
X183319334Y-80449814D01*
X183468656Y-80357712D01*
X183551425Y-80274942D01*
X183612744Y-80241460D01*
X183682436Y-80246444D01*
X183726784Y-80274945D01*
X183811654Y-80359815D01*
X183960875Y-80451856D01*
X183960880Y-80451858D01*
X184127302Y-80507005D01*
X184127309Y-80507006D01*
X184230019Y-80517499D01*
X184679999Y-80517499D01*
X184680000Y-80517498D01*
X184680000Y-79605000D01*
X185180000Y-79605000D01*
X185180000Y-80517499D01*
X185629972Y-80517499D01*
X185629986Y-80517498D01*
X185732697Y-80507005D01*
X185899119Y-80451858D01*
X185899124Y-80451856D01*
X186048345Y-80359815D01*
X186172315Y-80235845D01*
X186264356Y-80086624D01*
X186264358Y-80086619D01*
X186319505Y-79920197D01*
X186319506Y-79920190D01*
X186329999Y-79817486D01*
X186330000Y-79817473D01*
X186330000Y-79605000D01*
X185180000Y-79605000D01*
X184680000Y-79605000D01*
X184680000Y-79582500D01*
X187250001Y-79582500D01*
X187250001Y-79794986D01*
X187260494Y-79897697D01*
X187315641Y-80064119D01*
X187315643Y-80064124D01*
X187407684Y-80213345D01*
X187531654Y-80337315D01*
X187680875Y-80429356D01*
X187680880Y-80429358D01*
X187847302Y-80484505D01*
X187847309Y-80484506D01*
X187950019Y-80494999D01*
X188399999Y-80494999D01*
X188400000Y-80494998D01*
X188400000Y-79582500D01*
X187250001Y-79582500D01*
X184680000Y-79582500D01*
X184680000Y-78192500D01*
X185180000Y-78192500D01*
X185180000Y-79105000D01*
X186329999Y-79105000D01*
X186329999Y-79082500D01*
X187250000Y-79082500D01*
X188400000Y-79082500D01*
X188400000Y-78170000D01*
X187950028Y-78170000D01*
X187950012Y-78170001D01*
X187847302Y-78180494D01*
X187680880Y-78235641D01*
X187680875Y-78235643D01*
X187531654Y-78327684D01*
X187407684Y-78451654D01*
X187315643Y-78600875D01*
X187315641Y-78600880D01*
X187260494Y-78767302D01*
X187260493Y-78767309D01*
X187250000Y-78870013D01*
X187250000Y-79082500D01*
X186329999Y-79082500D01*
X186329999Y-78892528D01*
X186329998Y-78892513D01*
X186319505Y-78789802D01*
X186264358Y-78623380D01*
X186264356Y-78623375D01*
X186172315Y-78474154D01*
X186048345Y-78350184D01*
X185899124Y-78258143D01*
X185899119Y-78258141D01*
X185732697Y-78202994D01*
X185732690Y-78202993D01*
X185629986Y-78192500D01*
X185180000Y-78192500D01*
X184680000Y-78192500D01*
X184230028Y-78192500D01*
X184230012Y-78192501D01*
X184127302Y-78202994D01*
X183960880Y-78258141D01*
X183960875Y-78258143D01*
X183811657Y-78350182D01*
X183729284Y-78432555D01*
X183667960Y-78466039D01*
X183598269Y-78461055D01*
X183553922Y-78432554D01*
X183468657Y-78347289D01*
X183468656Y-78347288D01*
X183319334Y-78255186D01*
X183152797Y-78200001D01*
X183152795Y-78200000D01*
X183050016Y-78189500D01*
X183050009Y-78189500D01*
X182836997Y-78189500D01*
X182798679Y-78183431D01*
X182757343Y-78170000D01*
X182642826Y-78132791D01*
X182642824Y-78132790D01*
X182642822Y-78132790D01*
X182448422Y-78102000D01*
X182448417Y-78102000D01*
X181975916Y-78102000D01*
X181779083Y-78102000D01*
X181779078Y-78102000D01*
X181584672Y-78132790D01*
X181397469Y-78193617D01*
X181222094Y-78282976D01*
X181160560Y-78327684D01*
X181062854Y-78398672D01*
X181062852Y-78398674D01*
X181062851Y-78398674D01*
X180576174Y-78885351D01*
X180576174Y-78885352D01*
X180576172Y-78885354D01*
X180570971Y-78892513D01*
X180460476Y-79044594D01*
X180371117Y-79219969D01*
X180360033Y-79254085D01*
X180310290Y-79407173D01*
X180279500Y-79601577D01*
X180279500Y-80055500D01*
X180259815Y-80122539D01*
X180207011Y-80168294D01*
X180155500Y-80179500D01*
X180021510Y-80179500D01*
X180001028Y-80177797D01*
X178658324Y-79952925D01*
X178616806Y-79938015D01*
X178475890Y-79856657D01*
X178475876Y-79856650D01*
X178263887Y-79768842D01*
X178042238Y-79709452D01*
X178004215Y-79704446D01*
X177814741Y-79679500D01*
X177814734Y-79679500D01*
X175585266Y-79679500D01*
X175585258Y-79679500D01*
X175368715Y-79708009D01*
X175357762Y-79709452D01*
X175264076Y-79734554D01*
X175136112Y-79768842D01*
X174924123Y-79856650D01*
X174924109Y-79856657D01*
X174725382Y-79971392D01*
X174543338Y-80111081D01*
X174381081Y-80273338D01*
X174241392Y-80455382D01*
X174126657Y-80654109D01*
X174126650Y-80654123D01*
X174038842Y-80866112D01*
X173979453Y-81087759D01*
X173979451Y-81087770D01*
X173949500Y-81315258D01*
X173949500Y-81544741D01*
X173600500Y-81544741D01*
X173600500Y-75729999D01*
X173967811Y-75729999D01*
X173967812Y-75730000D01*
X175991759Y-75730000D01*
X175978822Y-75761233D01*
X175950000Y-75906131D01*
X175950000Y-76053869D01*
X175978822Y-76198767D01*
X175991759Y-76230000D01*
X173967812Y-76230000D01*
X173979942Y-76322137D01*
X174039318Y-76543730D01*
X174127102Y-76755659D01*
X174127106Y-76755668D01*
X174241809Y-76954338D01*
X174381455Y-77136329D01*
X174381461Y-77136336D01*
X174543663Y-77298538D01*
X174543670Y-77298544D01*
X174725661Y-77438190D01*
X174924331Y-77552893D01*
X174924340Y-77552897D01*
X175136269Y-77640681D01*
X175357862Y-77700057D01*
X175585289Y-77729998D01*
X175585306Y-77730000D01*
X176450000Y-77730000D01*
X176450000Y-76688240D01*
X176481233Y-76701178D01*
X176626131Y-76730000D01*
X176773869Y-76730000D01*
X176918767Y-76701178D01*
X176950000Y-76688240D01*
X176950000Y-77730000D01*
X177814694Y-77730000D01*
X177814710Y-77729998D01*
X178042137Y-77700057D01*
X178263730Y-77640681D01*
X178475659Y-77552897D01*
X178475668Y-77552893D01*
X178674338Y-77438190D01*
X178856329Y-77298544D01*
X178856336Y-77298538D01*
X179018538Y-77136336D01*
X179018544Y-77136329D01*
X179158190Y-76954338D01*
X179272893Y-76755668D01*
X179272897Y-76755659D01*
X179360681Y-76543730D01*
X179378427Y-76477500D01*
X180950001Y-76477500D01*
X180950001Y-76689986D01*
X180960494Y-76792697D01*
X181015641Y-76959119D01*
X181015643Y-76959124D01*
X181107684Y-77108345D01*
X181231654Y-77232315D01*
X181380875Y-77324356D01*
X181380880Y-77324358D01*
X181547302Y-77379505D01*
X181547309Y-77379506D01*
X181650019Y-77389999D01*
X182099999Y-77389999D01*
X182100000Y-77389998D01*
X182100000Y-76477500D01*
X180950001Y-76477500D01*
X179378427Y-76477500D01*
X179420057Y-76322137D01*
X179432188Y-76230000D01*
X177408241Y-76230000D01*
X177421178Y-76198767D01*
X177450000Y-76053869D01*
X177450000Y-75977500D01*
X180950000Y-75977500D01*
X182100000Y-75977500D01*
X182100000Y-75065000D01*
X181650028Y-75065000D01*
X181650012Y-75065001D01*
X181547302Y-75075494D01*
X181380880Y-75130641D01*
X181380875Y-75130643D01*
X181231654Y-75222684D01*
X181107684Y-75346654D01*
X181015643Y-75495875D01*
X181015641Y-75495880D01*
X180960494Y-75662302D01*
X180960493Y-75662309D01*
X180950000Y-75765013D01*
X180950000Y-75977500D01*
X177450000Y-75977500D01*
X177450000Y-75906131D01*
X177421178Y-75761233D01*
X177408241Y-75730000D01*
X179432188Y-75730000D01*
X179432188Y-75729999D01*
X179420057Y-75637862D01*
X179360681Y-75416269D01*
X179272897Y-75204340D01*
X179272893Y-75204331D01*
X179158190Y-75005661D01*
X179018544Y-74823670D01*
X179018538Y-74823663D01*
X178856336Y-74661461D01*
X178856329Y-74661455D01*
X178674338Y-74521809D01*
X178475668Y-74407106D01*
X178475659Y-74407102D01*
X178263730Y-74319318D01*
X178042137Y-74259942D01*
X177814710Y-74230001D01*
X177814694Y-74230000D01*
X176950000Y-74230000D01*
X176950000Y-75271759D01*
X176918767Y-75258822D01*
X176773869Y-75230000D01*
X176626131Y-75230000D01*
X176481233Y-75258822D01*
X176450000Y-75271759D01*
X176450000Y-74230000D01*
X175585306Y-74230000D01*
X175585289Y-74230001D01*
X175357862Y-74259942D01*
X175136269Y-74319318D01*
X174924340Y-74407102D01*
X174924331Y-74407106D01*
X174725661Y-74521809D01*
X174543670Y-74661455D01*
X174543663Y-74661461D01*
X174381461Y-74823663D01*
X174381455Y-74823670D01*
X174241809Y-75005661D01*
X174127106Y-75204331D01*
X174127102Y-75204340D01*
X174039318Y-75416269D01*
X173979942Y-75637862D01*
X173967811Y-75729999D01*
X173600500Y-75729999D01*
X173600500Y-71459082D01*
X173570918Y-71429500D01*
X146020918Y-71429500D01*
X145979082Y-71429500D01*
X145979081Y-71429500D01*
X145949500Y-71459081D01*
X145949500Y-91520918D01*
X142727582Y-91520918D01*
X142733314Y-68060198D01*
X142753014Y-67993169D01*
X142805829Y-67947427D01*
X142874990Y-67937500D01*
X142938539Y-67966541D01*
X142967798Y-68003939D01*
X143004254Y-68075487D01*
X143215475Y-68400737D01*
X143424039Y-68658294D01*
X143424040Y-68658294D01*
X144303948Y-67778386D01*
X144265888Y-67870272D01*
X144265888Y-67969728D01*
X144303948Y-68061614D01*
X144374274Y-68131940D01*
X144466160Y-68170000D01*
X144565616Y-68170000D01*
X144657498Y-68131941D01*
X143777592Y-69011847D01*
X143777593Y-69011848D01*
X144035150Y-69220412D01*
X144360400Y-69431633D01*
X144705949Y-69607699D01*
X145068007Y-69746681D01*
X145442613Y-69847056D01*
X145442620Y-69847057D01*
X145825656Y-69907724D01*
X146212943Y-69928022D01*
X146212945Y-69928022D01*
X146600231Y-69907724D01*
X146983267Y-69847057D01*
X146983274Y-69847056D01*
X147357880Y-69746681D01*
X147719938Y-69607699D01*
X148065487Y-69431633D01*
X148390727Y-69220420D01*
X148390729Y-69220419D01*
X148648293Y-69011846D01*
X147768387Y-68131940D01*
X147860272Y-68170000D01*
X147959728Y-68170000D01*
X148051614Y-68131940D01*
X148121940Y-68061614D01*
X148160000Y-67969728D01*
X148160000Y-67870272D01*
X148121940Y-67778387D01*
X149001846Y-68658293D01*
X149210419Y-68400729D01*
X149210420Y-68400727D01*
X149421633Y-68075487D01*
X149597699Y-67729938D01*
X149736681Y-67367880D01*
X149821856Y-67050002D01*
X169457685Y-67050002D01*
X169477509Y-67276599D01*
X169477511Y-67276610D01*
X169536381Y-67496317D01*
X169536386Y-67496331D01*
X169632514Y-67702478D01*
X169683625Y-67775472D01*
X170362651Y-67096446D01*
X170362651Y-67102661D01*
X170389910Y-67204394D01*
X170442571Y-67295606D01*
X170517045Y-67370080D01*
X170608257Y-67422741D01*
X170709990Y-67450000D01*
X170716204Y-67450000D01*
X170037177Y-68129025D01*
X170110164Y-68180132D01*
X170110172Y-68180136D01*
X170316319Y-68276264D01*
X170316333Y-68276269D01*
X170536040Y-68335139D01*
X170536051Y-68335141D01*
X170762649Y-68354966D01*
X170762653Y-68354966D01*
X170989250Y-68335141D01*
X170989261Y-68335139D01*
X171208968Y-68276269D01*
X171208982Y-68276264D01*
X171415129Y-68180136D01*
X171488122Y-68129024D01*
X171256968Y-67897870D01*
X174462151Y-67897870D01*
X174462152Y-67897876D01*
X174468559Y-67957483D01*
X174504333Y-68053395D01*
X174512151Y-68096728D01*
X174512151Y-71361073D01*
X174542941Y-71555477D01*
X174603768Y-71742681D01*
X174666378Y-71865559D01*
X174693127Y-71918056D01*
X174808823Y-72077297D01*
X175475354Y-72743828D01*
X175634595Y-72859524D01*
X175717454Y-72901742D01*
X175809969Y-72948882D01*
X175809971Y-72948882D01*
X175809974Y-72948884D01*
X175910318Y-72981487D01*
X175997173Y-73009709D01*
X176191578Y-73040500D01*
X176191583Y-73040500D01*
X183368422Y-73040500D01*
X183562826Y-73009709D01*
X183750025Y-72948884D01*
X183925405Y-72859524D01*
X184084646Y-72743828D01*
X184223828Y-72604646D01*
X184339524Y-72445405D01*
X184428884Y-72270025D01*
X184489709Y-72082826D01*
X184500039Y-72017599D01*
X184529967Y-71954468D01*
X184589279Y-71917536D01*
X184622512Y-71913000D01*
X185075961Y-71913000D01*
X185075962Y-71913000D01*
X185206104Y-71892387D01*
X185275395Y-71901341D01*
X185328847Y-71946337D01*
X185349487Y-72013089D01*
X185349500Y-72014860D01*
X185349500Y-74855500D01*
X185329815Y-74922539D01*
X185277011Y-74968294D01*
X185225500Y-74979500D01*
X184831578Y-74979500D01*
X184637172Y-75010291D01*
X184481318Y-75060931D01*
X184443001Y-75067000D01*
X184229999Y-75067000D01*
X184229980Y-75067001D01*
X184127203Y-75077500D01*
X184127200Y-75077501D01*
X183960668Y-75132685D01*
X183960663Y-75132687D01*
X183811345Y-75224787D01*
X183728577Y-75307555D01*
X183667253Y-75341039D01*
X183597562Y-75336055D01*
X183553215Y-75307554D01*
X183468345Y-75222684D01*
X183319124Y-75130643D01*
X183319119Y-75130641D01*
X183152697Y-75075494D01*
X183152690Y-75075493D01*
X183049986Y-75065000D01*
X182600000Y-75065000D01*
X182600000Y-77389999D01*
X183049972Y-77389999D01*
X183049986Y-77389998D01*
X183152697Y-77379505D01*
X183319119Y-77324358D01*
X183319124Y-77324356D01*
X183468342Y-77232317D01*
X183550714Y-77149945D01*
X183612037Y-77116460D01*
X183681729Y-77121444D01*
X183726077Y-77149945D01*
X183811344Y-77235212D01*
X183960666Y-77327314D01*
X184127203Y-77382499D01*
X184229991Y-77393000D01*
X184443000Y-77392999D01*
X184481319Y-77399068D01*
X184522966Y-77412599D01*
X184637174Y-77449709D01*
X184710077Y-77461255D01*
X184831578Y-77480500D01*
X184831583Y-77480500D01*
X188725922Y-77480500D01*
X188858337Y-77459527D01*
X188877735Y-77458000D01*
X190133000Y-77458000D01*
X190200039Y-77477685D01*
X190245794Y-77530489D01*
X190257000Y-77582000D01*
X190257000Y-78655232D01*
X190237315Y-78722271D01*
X190184511Y-78768026D01*
X190115353Y-78777970D01*
X190051797Y-78748945D01*
X190015294Y-78694237D01*
X189984357Y-78600878D01*
X189984356Y-78600875D01*
X189892315Y-78451654D01*
X189768345Y-78327684D01*
X189619124Y-78235643D01*
X189619119Y-78235641D01*
X189452697Y-78180494D01*
X189452690Y-78180493D01*
X189349986Y-78170000D01*
X188900000Y-78170000D01*
X188900000Y-80494999D01*
X189349972Y-80494999D01*
X189349986Y-80494998D01*
X189452697Y-80484505D01*
X189619119Y-80429358D01*
X189619124Y-80429356D01*
X189768345Y-80337315D01*
X189892315Y-80213345D01*
X189984356Y-80064124D01*
X189984358Y-80064119D01*
X190015294Y-79970761D01*
X190055066Y-79913316D01*
X190119582Y-79886493D01*
X190188358Y-79898808D01*
X190239558Y-79946351D01*
X190257000Y-80009765D01*
X190257000Y-81315500D01*
X190237315Y-81382539D01*
X190184511Y-81428294D01*
X190133000Y-81439500D01*
X187831578Y-81439500D01*
X187637173Y-81470290D01*
X187449970Y-81531117D01*
X187274594Y-81620476D01*
X187183741Y-81686485D01*
X187115354Y-81736172D01*
X187115352Y-81736174D01*
X187115351Y-81736174D01*
X186976174Y-81875351D01*
X186976174Y-81875352D01*
X186976172Y-81875354D01*
X186926485Y-81943741D01*
X186860476Y-82034594D01*
X186771117Y-82209970D01*
X186710290Y-82397173D01*
X186679500Y-82591577D01*
X186679500Y-85667870D01*
X186679501Y-85667876D01*
X186685908Y-85727483D01*
X186736202Y-85862328D01*
X186736206Y-85862335D01*
X186822452Y-85977544D01*
X186822455Y-85977547D01*
X186937664Y-86063793D01*
X186937671Y-86063797D01*
X187072517Y-86114091D01*
X187072516Y-86114091D01*
X187079444Y-86114835D01*
X187132127Y-86120500D01*
X189277872Y-86120499D01*
X189337483Y-86114091D01*
X189472331Y-86063796D01*
X189587546Y-85977546D01*
X189673796Y-85862331D01*
X189724091Y-85727483D01*
X189730500Y-85667873D01*
X189730499Y-84064499D01*
X189750184Y-83997461D01*
X189802987Y-83951706D01*
X189854499Y-83940500D01*
X191435922Y-83940500D01*
X191630326Y-83909709D01*
X191817526Y-83848884D01*
X191992905Y-83759524D01*
X192152146Y-83643828D01*
X192461328Y-83334646D01*
X192577024Y-83175405D01*
X192589689Y-83150548D01*
X192666384Y-83000025D01*
X192703758Y-82885000D01*
X201877500Y-82885000D01*
X201877500Y-83357844D01*
X201883901Y-83417372D01*
X201883903Y-83417379D01*
X201934145Y-83552086D01*
X201934149Y-83552093D01*
X202020309Y-83667187D01*
X202020312Y-83667190D01*
X202135406Y-83753350D01*
X202135413Y-83753354D01*
X202270120Y-83803596D01*
X202270127Y-83803598D01*
X202329655Y-83809999D01*
X202329672Y-83810000D01*
X204227500Y-83810000D01*
X204227500Y-82885000D01*
X201877500Y-82885000D01*
X192703758Y-82885000D01*
X192727209Y-82812826D01*
X192738790Y-82739709D01*
X192746003Y-82694168D01*
X192758000Y-82618421D01*
X192758000Y-82385000D01*
X201877500Y-82385000D01*
X204227500Y-82385000D01*
X204227500Y-81460000D01*
X202329655Y-81460000D01*
X202270127Y-81466401D01*
X202270120Y-81466403D01*
X202135413Y-81516645D01*
X202135406Y-81516649D01*
X202020312Y-81602809D01*
X202020309Y-81602812D01*
X201934149Y-81717906D01*
X201934145Y-81717913D01*
X201883903Y-81852620D01*
X201883901Y-81852627D01*
X201877500Y-81912155D01*
X201877500Y-82385000D01*
X192758000Y-82385000D01*
X192758000Y-76710000D01*
X193470001Y-76710000D01*
X193470001Y-77159986D01*
X193480494Y-77262697D01*
X193535641Y-77429119D01*
X193535643Y-77429124D01*
X193627684Y-77578345D01*
X193751654Y-77702315D01*
X193900875Y-77794356D01*
X193900880Y-77794358D01*
X194067302Y-77849505D01*
X194067309Y-77849506D01*
X194170019Y-77859999D01*
X194382499Y-77859999D01*
X194382500Y-77859998D01*
X194382500Y-76710000D01*
X194882500Y-76710000D01*
X194882500Y-77859999D01*
X195094972Y-77859999D01*
X195094986Y-77859998D01*
X195197697Y-77849505D01*
X195364119Y-77794358D01*
X195364124Y-77794356D01*
X195513345Y-77702315D01*
X195637315Y-77578345D01*
X195729356Y-77429124D01*
X195729358Y-77429119D01*
X195784505Y-77262697D01*
X195784506Y-77262690D01*
X195794999Y-77159986D01*
X195795000Y-77159973D01*
X195795000Y-76710000D01*
X194882500Y-76710000D01*
X194382500Y-76710000D01*
X193470001Y-76710000D01*
X192758000Y-76710000D01*
X192758000Y-76361577D01*
X192733992Y-76210000D01*
X193470000Y-76210000D01*
X194382500Y-76210000D01*
X194382500Y-75060000D01*
X194882500Y-75060000D01*
X194882500Y-76210000D01*
X195794999Y-76210000D01*
X195794999Y-75760028D01*
X195794998Y-75760013D01*
X195784505Y-75657302D01*
X195729358Y-75490880D01*
X195729356Y-75490875D01*
X195637315Y-75341654D01*
X195513345Y-75217684D01*
X195364124Y-75125643D01*
X195364119Y-75125641D01*
X195197697Y-75070494D01*
X195197690Y-75070493D01*
X195094986Y-75060000D01*
X194882500Y-75060000D01*
X194382500Y-75060000D01*
X194170029Y-75060000D01*
X194170012Y-75060001D01*
X194067302Y-75070494D01*
X193900880Y-75125641D01*
X193900875Y-75125643D01*
X193751654Y-75217684D01*
X193627684Y-75341654D01*
X193535643Y-75490875D01*
X193535641Y-75490880D01*
X193480494Y-75657302D01*
X193480493Y-75657309D01*
X193470000Y-75760013D01*
X193470000Y-76210000D01*
X192733992Y-76210000D01*
X192727209Y-76167173D01*
X192708334Y-76109084D01*
X192708334Y-76109083D01*
X192676568Y-76011317D01*
X192670499Y-75972999D01*
X192670499Y-75759998D01*
X192670498Y-75759981D01*
X192659999Y-75657203D01*
X192659998Y-75657200D01*
X192649242Y-75624742D01*
X192604814Y-75490666D01*
X192512712Y-75341344D01*
X192388656Y-75217288D01*
X192251492Y-75132685D01*
X192239336Y-75125187D01*
X192239331Y-75125185D01*
X192237862Y-75124698D01*
X192072797Y-75070001D01*
X192072795Y-75070000D01*
X191970016Y-75059500D01*
X191970009Y-75059500D01*
X191785968Y-75059500D01*
X191738522Y-75050064D01*
X191735031Y-75048618D01*
X191735028Y-75048617D01*
X191735026Y-75048616D01*
X191683935Y-75032015D01*
X191547826Y-74987790D01*
X191353422Y-74957000D01*
X191353417Y-74957000D01*
X188551583Y-74957000D01*
X188551578Y-74957000D01*
X188419163Y-74977973D01*
X188399765Y-74979500D01*
X187974500Y-74979500D01*
X187907461Y-74959815D01*
X187861706Y-74907011D01*
X187850500Y-74855500D01*
X187850500Y-70254077D01*
X187819709Y-70059673D01*
X187780082Y-69937715D01*
X187758884Y-69872475D01*
X187758882Y-69872472D01*
X187758882Y-69872470D01*
X187672566Y-69703066D01*
X187669524Y-69697095D01*
X187553828Y-69537854D01*
X187414646Y-69398672D01*
X187374646Y-69358672D01*
X187215405Y-69242976D01*
X187040030Y-69153617D01*
X186852826Y-69092790D01*
X186658422Y-69062000D01*
X186658417Y-69062000D01*
X186318196Y-69062000D01*
X186284417Y-69057310D01*
X185682941Y-68887021D01*
X185660426Y-68878196D01*
X185564386Y-68829261D01*
X185324785Y-68751410D01*
X185075962Y-68712000D01*
X182624038Y-68712000D01*
X182499626Y-68731705D01*
X182375214Y-68751410D01*
X182135616Y-68829260D01*
X181911151Y-68943632D01*
X181707350Y-69091701D01*
X181707345Y-69091705D01*
X181529205Y-69269845D01*
X181529201Y-69269850D01*
X181381132Y-69473651D01*
X181266760Y-69698116D01*
X181188910Y-69937714D01*
X181149500Y-70186538D01*
X181149500Y-70415500D01*
X181129815Y-70482539D01*
X181077011Y-70528294D01*
X181025500Y-70539500D01*
X177137151Y-70539500D01*
X177070112Y-70519815D01*
X177024357Y-70467011D01*
X177013151Y-70415500D01*
X177013151Y-68430597D01*
X177649500Y-68430597D01*
X177686446Y-68663868D01*
X177759433Y-68888496D01*
X177799356Y-68966848D01*
X177866657Y-69098933D01*
X178005483Y-69290010D01*
X178172490Y-69457017D01*
X178363567Y-69595843D01*
X178386836Y-69607699D01*
X178574003Y-69703066D01*
X178574005Y-69703066D01*
X178574008Y-69703068D01*
X178694412Y-69742189D01*
X178798631Y-69776053D01*
X179031903Y-69813000D01*
X179031908Y-69813000D01*
X179268097Y-69813000D01*
X179501368Y-69776053D01*
X179591765Y-69746681D01*
X179725992Y-69703068D01*
X179936433Y-69595843D01*
X180127510Y-69457017D01*
X180294517Y-69290010D01*
X180433343Y-69098933D01*
X180540568Y-68888492D01*
X180613553Y-68663868D01*
X180635038Y-68528216D01*
X180650500Y-68430597D01*
X180650500Y-66194402D01*
X180613553Y-65961131D01*
X180568910Y-65823735D01*
X180540568Y-65736508D01*
X180540566Y-65736505D01*
X180540566Y-65736503D01*
X180433342Y-65526066D01*
X180294517Y-65334990D01*
X180127510Y-65167983D01*
X179936433Y-65029157D01*
X179725996Y-64921933D01*
X179501368Y-64848946D01*
X179268097Y-64812000D01*
X179268092Y-64812000D01*
X179031908Y-64812000D01*
X179031903Y-64812000D01*
X178798631Y-64848946D01*
X178574003Y-64921933D01*
X178363566Y-65029157D01*
X178296331Y-65078007D01*
X178172490Y-65167983D01*
X178172488Y-65167985D01*
X178172487Y-65167985D01*
X178005485Y-65334987D01*
X178005485Y-65334988D01*
X178005483Y-65334990D01*
X177969613Y-65384361D01*
X177866657Y-65526066D01*
X177759433Y-65736503D01*
X177686446Y-65961131D01*
X177649500Y-66194402D01*
X177649500Y-68430597D01*
X177013151Y-68430597D01*
X177013151Y-68096728D01*
X177020969Y-68053394D01*
X177056742Y-67957483D01*
X177063151Y-67897873D01*
X177063150Y-66202128D01*
X177056742Y-66142517D01*
X177022989Y-66052021D01*
X177006448Y-66007671D01*
X177006444Y-66007664D01*
X176920198Y-65892455D01*
X176920195Y-65892452D01*
X176804986Y-65806206D01*
X176804979Y-65806202D01*
X176670133Y-65755908D01*
X176670134Y-65755908D01*
X176610534Y-65749501D01*
X176610532Y-65749500D01*
X176610524Y-65749500D01*
X176610515Y-65749500D01*
X174914780Y-65749500D01*
X174914774Y-65749501D01*
X174855167Y-65755908D01*
X174720322Y-65806202D01*
X174720315Y-65806206D01*
X174605106Y-65892452D01*
X174605103Y-65892455D01*
X174518857Y-66007664D01*
X174518853Y-66007671D01*
X174468559Y-66142517D01*
X174462981Y-66194408D01*
X174462152Y-66202123D01*
X174462151Y-66202135D01*
X174462151Y-67897870D01*
X171256968Y-67897870D01*
X170809098Y-67450000D01*
X170815312Y-67450000D01*
X170917045Y-67422741D01*
X171008257Y-67370080D01*
X171082731Y-67295606D01*
X171135392Y-67204394D01*
X171162651Y-67102661D01*
X171162651Y-67096447D01*
X171841675Y-67775471D01*
X171892787Y-67702478D01*
X171988915Y-67496331D01*
X171988920Y-67496317D01*
X172047790Y-67276610D01*
X172047792Y-67276599D01*
X172067617Y-67050002D01*
X172067617Y-67049997D01*
X172047792Y-66823400D01*
X172047790Y-66823389D01*
X171988920Y-66603682D01*
X171988915Y-66603668D01*
X171892787Y-66397521D01*
X171892783Y-66397513D01*
X171841676Y-66324526D01*
X171162651Y-67003551D01*
X171162651Y-66997339D01*
X171135392Y-66895606D01*
X171082731Y-66804394D01*
X171008257Y-66729920D01*
X170917045Y-66677259D01*
X170815312Y-66650000D01*
X170809099Y-66650000D01*
X171488123Y-65970974D01*
X171415129Y-65919863D01*
X171208982Y-65823735D01*
X171208968Y-65823730D01*
X170989261Y-65764860D01*
X170989250Y-65764858D01*
X170762653Y-65745034D01*
X170762649Y-65745034D01*
X170536051Y-65764858D01*
X170536040Y-65764860D01*
X170316333Y-65823730D01*
X170316324Y-65823734D01*
X170110167Y-65919866D01*
X170110163Y-65919868D01*
X170037177Y-65970973D01*
X170037177Y-65970974D01*
X170716204Y-66650000D01*
X170709990Y-66650000D01*
X170608257Y-66677259D01*
X170517045Y-66729920D01*
X170442571Y-66804394D01*
X170389910Y-66895606D01*
X170362651Y-66997339D01*
X170362651Y-67003552D01*
X169683625Y-66324526D01*
X169683624Y-66324526D01*
X169632519Y-66397512D01*
X169632517Y-66397516D01*
X169536385Y-66603673D01*
X169536381Y-66603682D01*
X169477511Y-66823389D01*
X169477509Y-66823400D01*
X169457685Y-67049997D01*
X169457685Y-67050002D01*
X149821856Y-67050002D01*
X149837056Y-66993274D01*
X149837057Y-66993267D01*
X149897724Y-66610231D01*
X149918022Y-66222944D01*
X149918022Y-66222943D01*
X149897724Y-65835656D01*
X149837057Y-65452620D01*
X149837056Y-65452613D01*
X149736681Y-65078007D01*
X149597699Y-64715949D01*
X149421633Y-64370400D01*
X149210412Y-64045150D01*
X149001848Y-63787593D01*
X149001847Y-63787592D01*
X148121941Y-64667497D01*
X148160000Y-64575616D01*
X148160000Y-64476160D01*
X148121940Y-64384274D01*
X148051614Y-64313948D01*
X147959728Y-64275888D01*
X147860272Y-64275888D01*
X147768387Y-64313947D01*
X148648294Y-63434040D01*
X148648294Y-63434039D01*
X148390741Y-63225478D01*
X148083149Y-63025724D01*
X148037647Y-62972703D01*
X148028033Y-62903498D01*
X148057360Y-62840081D01*
X148116317Y-62802587D01*
X148150624Y-62797730D01*
X182030189Y-62783531D01*
X182097235Y-62803187D01*
X182143012Y-62855972D01*
X182152984Y-62925127D01*
X182123986Y-62988694D01*
X182086535Y-63018015D01*
X182063831Y-63029583D01*
X181872813Y-63168366D01*
X181705866Y-63335313D01*
X181567085Y-63526328D01*
X181459897Y-63736697D01*
X181386934Y-63961252D01*
X181370898Y-64062500D01*
X182416988Y-64062500D01*
X182384075Y-64119507D01*
X182350000Y-64246674D01*
X182350000Y-64378326D01*
X182384075Y-64505493D01*
X182416988Y-64562500D01*
X181370898Y-64562500D01*
X181386934Y-64663747D01*
X181459897Y-64888302D01*
X181567085Y-65098671D01*
X181705866Y-65289686D01*
X181872813Y-65456633D01*
X182063828Y-65595414D01*
X182274197Y-65702602D01*
X182498752Y-65775565D01*
X182498751Y-65775565D01*
X182731948Y-65812500D01*
X183600000Y-65812500D01*
X183600000Y-64812500D01*
X184100000Y-64812500D01*
X184100000Y-65812500D01*
X184968052Y-65812500D01*
X185201247Y-65775565D01*
X185425802Y-65702602D01*
X185636171Y-65595414D01*
X185827186Y-65456633D01*
X185994133Y-65289686D01*
X186132914Y-65098671D01*
X186240102Y-64888302D01*
X186313065Y-64663747D01*
X186329102Y-64562500D01*
X185283012Y-64562500D01*
X185315925Y-64505493D01*
X185350000Y-64378326D01*
X185350000Y-64246674D01*
X185315925Y-64119507D01*
X185283012Y-64062500D01*
X186329102Y-64062500D01*
X186313065Y-63961252D01*
X186240102Y-63736697D01*
X186132914Y-63526328D01*
X185994133Y-63335313D01*
X185827186Y-63168366D01*
X185636171Y-63029585D01*
X185610472Y-63016490D01*
X185559677Y-62968514D01*
X185542883Y-62900693D01*
X185565422Y-62834558D01*
X185620138Y-62791108D01*
X185666708Y-62782007D01*
X201780471Y-62775254D01*
X201847514Y-62794909D01*
G37*
%TD.AperFunction*%
%TA.AperFunction,Conductor*%
G36*
X206431846Y-102608293D02*
G01*
X206640419Y-102350729D01*
X206640420Y-102350727D01*
X206851635Y-102025485D01*
X206851636Y-102025482D01*
X206915939Y-101899280D01*
X206963913Y-101848484D01*
X207031734Y-101831688D01*
X207097869Y-101854225D01*
X207141321Y-101908940D01*
X207150424Y-101955604D01*
X207150047Y-103500530D01*
X207130346Y-103567565D01*
X207077531Y-103613307D01*
X207026047Y-103624500D01*
X205535333Y-103624500D01*
X205468294Y-103604815D01*
X205422539Y-103552011D01*
X205412595Y-103482853D01*
X205441620Y-103419297D01*
X205479039Y-103390015D01*
X205495482Y-103381636D01*
X205495485Y-103381635D01*
X205820727Y-103170420D01*
X205820729Y-103170419D01*
X206078293Y-102961846D01*
X205198387Y-102081940D01*
X205290272Y-102120000D01*
X205389728Y-102120000D01*
X205481614Y-102081940D01*
X205551940Y-102011614D01*
X205590000Y-101919728D01*
X205590000Y-101820272D01*
X205551940Y-101728387D01*
X206431846Y-102608293D01*
G37*
%TD.AperFunction*%
%TA.AperFunction,Conductor*%
G36*
X148111612Y-101708059D02*
G01*
X148019728Y-101670000D01*
X147920272Y-101670000D01*
X147828386Y-101708060D01*
X147758060Y-101778386D01*
X147720000Y-101870272D01*
X147720000Y-101969728D01*
X147758059Y-102061612D01*
X147213642Y-101517195D01*
X147315274Y-101443356D01*
X147493356Y-101265274D01*
X147567195Y-101163642D01*
X148111612Y-101708059D01*
G37*
%TD.AperFunction*%
%TA.AperFunction,Conductor*%
G36*
X145052532Y-101265274D02*
G01*
X145230614Y-101443356D01*
X145332244Y-101517195D01*
X144787829Y-102061610D01*
X144825888Y-101969728D01*
X144825888Y-101870272D01*
X144787828Y-101778386D01*
X144717502Y-101708060D01*
X144625616Y-101670000D01*
X144526160Y-101670000D01*
X144434274Y-101708060D01*
X144978692Y-101163642D01*
X145052532Y-101265274D01*
G37*
%TD.AperFunction*%
%TA.AperFunction,Conductor*%
G36*
X205481612Y-101658059D02*
G01*
X205389728Y-101620000D01*
X205290272Y-101620000D01*
X205198386Y-101658060D01*
X205128060Y-101728386D01*
X205090000Y-101820272D01*
X205090000Y-101919728D01*
X205128059Y-102011612D01*
X204583642Y-101467195D01*
X204685274Y-101393356D01*
X204863356Y-101215274D01*
X204937195Y-101113642D01*
X205481612Y-101658059D01*
G37*
%TD.AperFunction*%
%TA.AperFunction,Conductor*%
G36*
X202422532Y-101215274D02*
G01*
X202600614Y-101393356D01*
X202702244Y-101467195D01*
X202157829Y-102011610D01*
X202195888Y-101919728D01*
X202195888Y-101820272D01*
X202157828Y-101728386D01*
X202087502Y-101658060D01*
X201995616Y-101620000D01*
X201896160Y-101620000D01*
X201804274Y-101658060D01*
X202348692Y-101113642D01*
X202422532Y-101215274D01*
G37*
%TD.AperFunction*%
%TA.AperFunction,Conductor*%
G36*
X145332245Y-98928692D02*
G01*
X145230614Y-99002532D01*
X145052532Y-99180614D01*
X144978692Y-99282244D01*
X144434277Y-98737829D01*
X144526160Y-98775888D01*
X144625616Y-98775888D01*
X144717502Y-98737828D01*
X144787828Y-98667502D01*
X144825888Y-98575616D01*
X144825888Y-98476160D01*
X144787829Y-98384276D01*
X145332245Y-98928692D01*
G37*
%TD.AperFunction*%
%TA.AperFunction,Conductor*%
G36*
X202702245Y-98878692D02*
G01*
X202600614Y-98952532D01*
X202422532Y-99130614D01*
X202348692Y-99232244D01*
X201804277Y-98687829D01*
X201896160Y-98725888D01*
X201995616Y-98725888D01*
X202087502Y-98687828D01*
X202157828Y-98617502D01*
X202195888Y-98525616D01*
X202195888Y-98426160D01*
X202157829Y-98334276D01*
X202702245Y-98878692D01*
G37*
%TD.AperFunction*%
%TA.AperFunction,Conductor*%
G36*
X205090000Y-98426160D02*
G01*
X205090000Y-98525616D01*
X205128060Y-98617502D01*
X205198386Y-98687828D01*
X205290272Y-98725888D01*
X205389728Y-98725888D01*
X205481609Y-98687829D01*
X204937195Y-99232244D01*
X204863356Y-99130614D01*
X204685274Y-98952532D01*
X204583642Y-98878692D01*
X205128059Y-98334275D01*
X205090000Y-98426160D01*
G37*
%TD.AperFunction*%
%TA.AperFunction,Conductor*%
G36*
X171383358Y-93587746D02*
G01*
X171435403Y-93634363D01*
X171448383Y-93662784D01*
X171453467Y-93679098D01*
X171453468Y-93679100D01*
X171453469Y-93679102D01*
X171532713Y-93810187D01*
X171536766Y-93816891D01*
X171650608Y-93930733D01*
X171650610Y-93930734D01*
X171650612Y-93930736D01*
X171788398Y-94014031D01*
X171942113Y-94061930D01*
X172008909Y-94068000D01*
X172076979Y-94067999D01*
X172144018Y-94087683D01*
X172145879Y-94088903D01*
X172148125Y-94090404D01*
X172192926Y-94144019D01*
X172201628Y-94213345D01*
X172171468Y-94276370D01*
X172112022Y-94313084D01*
X172079226Y-94317500D01*
X172008957Y-94317500D01*
X171942207Y-94323565D01*
X171788603Y-94371429D01*
X171650919Y-94454663D01*
X171537163Y-94568419D01*
X171453928Y-94706105D01*
X171448647Y-94723054D01*
X171409908Y-94781201D01*
X171345883Y-94809174D01*
X171276898Y-94798092D01*
X171224855Y-94751472D01*
X171211877Y-94723054D01*
X171208948Y-94713656D01*
X171206531Y-94705898D01*
X171206530Y-94705896D01*
X171205799Y-94703550D01*
X171204647Y-94633690D01*
X171205799Y-94629767D01*
X171253933Y-94475299D01*
X171253935Y-94475292D01*
X171256914Y-94442500D01*
X171024496Y-94442500D01*
X170960346Y-94424617D01*
X170871602Y-94370969D01*
X170717887Y-94323070D01*
X170717885Y-94323069D01*
X170717883Y-94323069D01*
X170671117Y-94318819D01*
X170651091Y-94317000D01*
X170651088Y-94317000D01*
X170299522Y-94317000D01*
X170252068Y-94307560D01*
X170250857Y-94307058D01*
X170196457Y-94263217D01*
X170174394Y-94196922D01*
X170191675Y-94129223D01*
X170242814Y-94081614D01*
X170250892Y-94077926D01*
X170252123Y-94077416D01*
X170299526Y-94067999D01*
X170651097Y-94067999D01*
X170717882Y-94061931D01*
X170717885Y-94061930D01*
X170717887Y-94061930D01*
X170871602Y-94014031D01*
X170960346Y-93960382D01*
X171024496Y-93942500D01*
X171256915Y-93942500D01*
X171256914Y-93942499D01*
X171253935Y-93909707D01*
X171253933Y-93909700D01*
X171205799Y-93755232D01*
X171204647Y-93685371D01*
X171205797Y-93681454D01*
X171206528Y-93679105D01*
X171206531Y-93679102D01*
X171211615Y-93662786D01*
X171250348Y-93604642D01*
X171314373Y-93576667D01*
X171383358Y-93587746D01*
G37*
%TD.AperFunction*%
%TA.AperFunction,Conductor*%
G36*
X148051612Y-67708059D02*
G01*
X147959728Y-67670000D01*
X147860272Y-67670000D01*
X147768386Y-67708060D01*
X147698060Y-67778386D01*
X147660000Y-67870272D01*
X147660000Y-67969728D01*
X147698059Y-68061612D01*
X147153642Y-67517195D01*
X147255274Y-67443356D01*
X147433356Y-67265274D01*
X147507195Y-67163642D01*
X148051612Y-67708059D01*
G37*
%TD.AperFunction*%
%TA.AperFunction,Conductor*%
G36*
X144992532Y-67265274D02*
G01*
X145170614Y-67443356D01*
X145272244Y-67517195D01*
X144727829Y-68061610D01*
X144765888Y-67969728D01*
X144765888Y-67870272D01*
X144727828Y-67778386D01*
X144657502Y-67708060D01*
X144565616Y-67670000D01*
X144466160Y-67670000D01*
X144374274Y-67708060D01*
X144918692Y-67163642D01*
X144992532Y-67265274D01*
G37*
%TD.AperFunction*%
%TA.AperFunction,Conductor*%
G36*
X205591612Y-67663059D02*
G01*
X205499728Y-67625000D01*
X205400272Y-67625000D01*
X205308386Y-67663060D01*
X205238060Y-67733386D01*
X205200000Y-67825272D01*
X205200000Y-67924728D01*
X205238059Y-68016612D01*
X204693642Y-67472195D01*
X204795274Y-67398356D01*
X204973356Y-67220274D01*
X205047195Y-67118642D01*
X205591612Y-67663059D01*
G37*
%TD.AperFunction*%
%TA.AperFunction,Conductor*%
G36*
X202532532Y-67220274D02*
G01*
X202710614Y-67398356D01*
X202812244Y-67472195D01*
X202267829Y-68016610D01*
X202305888Y-67924728D01*
X202305888Y-67825272D01*
X202267828Y-67733386D01*
X202197502Y-67663060D01*
X202105616Y-67625000D01*
X202006160Y-67625000D01*
X201914274Y-67663060D01*
X202458692Y-67118642D01*
X202532532Y-67220274D01*
G37*
%TD.AperFunction*%
%TA.AperFunction,Conductor*%
G36*
X145272245Y-64928692D02*
G01*
X145170614Y-65002532D01*
X144992532Y-65180614D01*
X144918692Y-65282244D01*
X144374277Y-64737829D01*
X144466160Y-64775888D01*
X144565616Y-64775888D01*
X144657502Y-64737828D01*
X144727828Y-64667502D01*
X144765888Y-64575616D01*
X144765888Y-64476160D01*
X144727829Y-64384276D01*
X145272245Y-64928692D01*
G37*
%TD.AperFunction*%
%TA.AperFunction,Conductor*%
G36*
X147660000Y-64476160D02*
G01*
X147660000Y-64575616D01*
X147698060Y-64667502D01*
X147768386Y-64737828D01*
X147860272Y-64775888D01*
X147959728Y-64775888D01*
X148051609Y-64737829D01*
X147507195Y-65282244D01*
X147433356Y-65180614D01*
X147255274Y-65002532D01*
X147153642Y-64928692D01*
X147698059Y-64384275D01*
X147660000Y-64476160D01*
G37*
%TD.AperFunction*%
%TA.AperFunction,Conductor*%
G36*
X202812245Y-64883692D02*
G01*
X202710614Y-64957532D01*
X202532532Y-65135614D01*
X202458692Y-65237244D01*
X201914277Y-64692829D01*
X202006160Y-64730888D01*
X202105616Y-64730888D01*
X202197502Y-64692828D01*
X202267828Y-64622502D01*
X202305888Y-64530616D01*
X202305888Y-64431160D01*
X202267829Y-64339276D01*
X202812245Y-64883692D01*
G37*
%TD.AperFunction*%
%TA.AperFunction,Conductor*%
G36*
X205200000Y-64431160D02*
G01*
X205200000Y-64530616D01*
X205238060Y-64622502D01*
X205308386Y-64692828D01*
X205400272Y-64730888D01*
X205499728Y-64730888D01*
X205591609Y-64692829D01*
X205047195Y-65237244D01*
X204973356Y-65135614D01*
X204795274Y-64957532D01*
X204693642Y-64883692D01*
X205238059Y-64339275D01*
X205200000Y-64431160D01*
G37*
%TD.AperFunction*%
%TA.AperFunction,Conductor*%
G36*
X144339695Y-62819011D02*
G01*
X144385472Y-62871796D01*
X144395444Y-62940951D01*
X144366446Y-63004518D01*
X144340235Y-63027350D01*
X144035146Y-63225478D01*
X143777592Y-63434039D01*
X143777592Y-63434040D01*
X144657499Y-64313946D01*
X144565616Y-64275888D01*
X144466160Y-64275888D01*
X144374274Y-64313948D01*
X144303948Y-64384274D01*
X144265888Y-64476160D01*
X144265888Y-64575616D01*
X144303946Y-64667498D01*
X143424040Y-63787592D01*
X143424039Y-63787592D01*
X143215475Y-64045150D01*
X143004254Y-64370400D01*
X142968697Y-64440185D01*
X142920722Y-64490981D01*
X142852901Y-64507776D01*
X142786766Y-64485238D01*
X142743315Y-64430523D01*
X142734212Y-64383864D01*
X142734569Y-62923915D01*
X142754270Y-62856883D01*
X142807085Y-62811141D01*
X142858516Y-62799948D01*
X144272648Y-62799355D01*
X144339695Y-62819011D01*
G37*
%TD.AperFunction*%
%TA.AperFunction,Conductor*%
G36*
X207102965Y-62792707D02*
G01*
X207148742Y-62845492D01*
X207159969Y-62897081D01*
X207159648Y-64211729D01*
X207139947Y-64278764D01*
X207087132Y-64324506D01*
X207017971Y-64334433D01*
X206954422Y-64305392D01*
X206931653Y-64279234D01*
X206750412Y-64000150D01*
X206541848Y-63742593D01*
X206541847Y-63742592D01*
X205661941Y-64622497D01*
X205700000Y-64530616D01*
X205700000Y-64431160D01*
X205661940Y-64339274D01*
X205591614Y-64268948D01*
X205499728Y-64230888D01*
X205400272Y-64230888D01*
X205308387Y-64268947D01*
X206188294Y-63389040D01*
X206188294Y-63389039D01*
X205930741Y-63180478D01*
X205655289Y-63001596D01*
X205609787Y-62948575D01*
X205600173Y-62879370D01*
X205629500Y-62815953D01*
X205688457Y-62778459D01*
X205722763Y-62773602D01*
X207035920Y-62773052D01*
X207102965Y-62792707D01*
G37*
%TD.AperFunction*%
%TD*%
%TA.AperFunction,Conductor*%
%TO.N,+VDC*%
G36*
X185413707Y-69336167D02*
G01*
X187111143Y-69816738D01*
X187118170Y-69822289D01*
X187119214Y-69831183D01*
X187116229Y-69836269D01*
X186070458Y-70882040D01*
X186068744Y-70883455D01*
X185566975Y-71223157D01*
X185558203Y-71224958D01*
X185554899Y-71223787D01*
X184917241Y-70882829D01*
X183867090Y-70321309D01*
X183861411Y-70314387D01*
X183862290Y-70305475D01*
X183866394Y-70301078D01*
X185404336Y-69337516D01*
X185413164Y-69336029D01*
X185413707Y-69336167D01*
G37*
%TD.AperFunction*%
%TD*%
%TA.AperFunction,Conductor*%
%TO.N,/DRAIN*%
G36*
X182276573Y-82423427D02*
G01*
X182280000Y-82431700D01*
X182280000Y-84384817D01*
X182276573Y-84393090D01*
X182269726Y-84396430D01*
X181261552Y-84520195D01*
X181252923Y-84517802D01*
X181250923Y-84515807D01*
X180394703Y-83425250D01*
X180392290Y-83416627D01*
X180393001Y-83413783D01*
X180777097Y-82427453D01*
X180783293Y-82420989D01*
X180788000Y-82420000D01*
X182268300Y-82420000D01*
X182276573Y-82423427D01*
G37*
%TD.AperFunction*%
%TD*%
%TA.AperFunction,Conductor*%
%TO.N,11.5V*%
G36*
X168477080Y-92596703D02*
G01*
X168483577Y-92599367D01*
X169130240Y-92864523D01*
X169136593Y-92870831D01*
X169137500Y-92875347D01*
X169137500Y-93609968D01*
X169134073Y-93618241D01*
X169130645Y-93620618D01*
X168482295Y-93915563D01*
X168473345Y-93915869D01*
X168469270Y-93913278D01*
X167819845Y-93278161D01*
X167816326Y-93269926D01*
X167819640Y-93261636D01*
X168464258Y-92599366D01*
X168472483Y-92595829D01*
X168477080Y-92596703D01*
G37*
%TD.AperFunction*%
%TD*%
%TA.AperFunction,Conductor*%
%TO.N,Net-(RF_OUT1-In)*%
G36*
X199241290Y-94265171D02*
G01*
X200043130Y-94428096D01*
X200050555Y-94433102D01*
X200052500Y-94439562D01*
X200052500Y-95419957D01*
X200049073Y-95428230D01*
X200042574Y-95431522D01*
X199145919Y-95569091D01*
X199137222Y-95566958D01*
X199135800Y-95565726D01*
X199000691Y-95428230D01*
X198497753Y-94916408D01*
X198494399Y-94908107D01*
X198497899Y-94899864D01*
X198498450Y-94899356D01*
X199231326Y-94267774D01*
X199239828Y-94264970D01*
X199241290Y-94265171D01*
G37*
%TD.AperFunction*%
%TD*%
%TA.AperFunction,Conductor*%
%TO.N,Net-(RF_OUT1-In)*%
G36*
X200252433Y-94270429D02*
G01*
X200254639Y-94272164D01*
X200421286Y-94439185D01*
X200902754Y-94921736D01*
X200906172Y-94930013D01*
X200902754Y-94938264D01*
X200254642Y-95587833D01*
X200246373Y-95591269D01*
X200243583Y-95590935D01*
X199593923Y-95432180D01*
X199586699Y-95426887D01*
X199585000Y-95420814D01*
X199585000Y-94439185D01*
X199588427Y-94430912D01*
X199593921Y-94427819D01*
X200243584Y-94269064D01*
X200252433Y-94270429D01*
G37*
%TD.AperFunction*%
%TD*%
%TA.AperFunction,Conductor*%
%TO.N,Net-(RF_OUT1-In)*%
G36*
X199505911Y-88319990D02*
G01*
X199514182Y-88323423D01*
X199517603Y-88331698D01*
X199517402Y-88333847D01*
X199261361Y-89698977D01*
X199258135Y-89705093D01*
X198213986Y-90749242D01*
X198205713Y-90752669D01*
X198197440Y-90749242D01*
X198194486Y-90744262D01*
X197599071Y-88712751D01*
X197600033Y-88703850D01*
X197605810Y-88698658D01*
X198517137Y-88320188D01*
X198521624Y-88319294D01*
X199505911Y-88319990D01*
G37*
%TD.AperFunction*%
%TD*%
%TA.AperFunction,Conductor*%
%TO.N,Net-(D1-A)*%
G36*
X155782825Y-100653483D02*
G01*
X155786565Y-100658131D01*
X156227106Y-101645232D01*
X156227349Y-101654183D01*
X156227106Y-101654768D01*
X155786565Y-102641868D01*
X155780064Y-102648027D01*
X155774133Y-102648669D01*
X154138186Y-102401503D01*
X154130518Y-102396878D01*
X154128234Y-102389934D01*
X154128234Y-100910065D01*
X154131661Y-100901792D01*
X154138184Y-100898496D01*
X155774133Y-100651330D01*
X155782825Y-100653483D01*
G37*
%TD.AperFunction*%
%TD*%
%TA.AperFunction,Conductor*%
%TO.N,Net-(Q1-G)*%
G36*
X177200519Y-89553427D02*
G01*
X177203021Y-89557141D01*
X177472204Y-90193414D01*
X177472272Y-90202369D01*
X177470400Y-90205483D01*
X176937276Y-90842308D01*
X176929338Y-90846452D01*
X176921082Y-90844002D01*
X176168374Y-90253334D01*
X176163981Y-90245531D01*
X176163913Y-90243528D01*
X176199423Y-89561092D01*
X176203275Y-89553008D01*
X176211107Y-89550000D01*
X177192246Y-89550000D01*
X177200519Y-89553427D01*
G37*
%TD.AperFunction*%
%TD*%
%TA.AperFunction,Conductor*%
%TO.N,11.5V*%
G36*
X162356439Y-96180250D02*
G01*
X162747370Y-96711454D01*
X162833670Y-96828719D01*
X162835814Y-96837414D01*
X162834274Y-96841682D01*
X162443410Y-97491828D01*
X162436211Y-97497153D01*
X162433383Y-97497500D01*
X161452462Y-97497500D01*
X161444189Y-97494073D01*
X161440762Y-97485800D01*
X161440785Y-97485063D01*
X161481802Y-96835000D01*
X161489220Y-96717437D01*
X161493161Y-96709397D01*
X161494669Y-96708271D01*
X162340797Y-96177274D01*
X162349626Y-96175780D01*
X162356439Y-96180250D01*
G37*
%TD.AperFunction*%
%TD*%
%TA.AperFunction,Conductor*%
%TO.N,11.5V*%
G36*
X167820698Y-93277056D02*
G01*
X168159794Y-93610266D01*
X168470599Y-93915676D01*
X168474099Y-93923919D01*
X168473918Y-93926072D01*
X168314218Y-94822851D01*
X168309394Y-94830395D01*
X168302699Y-94832500D01*
X167322301Y-94832500D01*
X167314028Y-94829073D01*
X167310782Y-94822851D01*
X167151081Y-93926072D01*
X167153005Y-93917326D01*
X167154400Y-93915676D01*
X167804301Y-93277056D01*
X167812602Y-93273702D01*
X167820698Y-93277056D01*
G37*
%TD.AperFunction*%
%TD*%
%TA.AperFunction,Conductor*%
%TO.N,Net-(D1-A)*%
G36*
X155720573Y-100704974D02*
G01*
X156226598Y-101645103D01*
X156227502Y-101654012D01*
X156227102Y-101655134D01*
X155811091Y-102657092D01*
X155804753Y-102663419D01*
X155797611Y-102663996D01*
X154384026Y-102332119D01*
X154376755Y-102326892D01*
X154375000Y-102320729D01*
X154375000Y-101337404D01*
X154378427Y-101329131D01*
X154381690Y-101326831D01*
X155705264Y-100699944D01*
X155714207Y-100699501D01*
X155720573Y-100704974D01*
G37*
%TD.AperFunction*%
%TD*%
%TA.AperFunction,Conductor*%
%TO.N,Net-(C7-Pad1)*%
G36*
X192741182Y-87621291D02*
G01*
X192742264Y-87622245D01*
X193440707Y-88319293D01*
X193440723Y-88319309D01*
X194137754Y-89017735D01*
X194141173Y-89026012D01*
X194137738Y-89034281D01*
X194136656Y-89035235D01*
X192564269Y-90258201D01*
X192555635Y-90260576D01*
X192548813Y-90257239D01*
X191502760Y-89211186D01*
X191499333Y-89202913D01*
X191501798Y-89195730D01*
X192724766Y-87623341D01*
X192732548Y-87618916D01*
X192741182Y-87621291D01*
G37*
%TD.AperFunction*%
%TD*%
%TA.AperFunction,Conductor*%
%TO.N,/DRAIN*%
G36*
X182280873Y-84134119D02*
G01*
X182285302Y-84137603D01*
X183511094Y-85713623D01*
X183513469Y-85722257D01*
X183510132Y-85729079D01*
X182464028Y-86775183D01*
X182455755Y-86778610D01*
X182448637Y-86776195D01*
X180947098Y-85624839D01*
X180942618Y-85617085D01*
X180942964Y-85612354D01*
X181252683Y-84524944D01*
X181258244Y-84517928D01*
X181259779Y-84517214D01*
X182271923Y-84133845D01*
X182280873Y-84134119D01*
G37*
%TD.AperFunction*%
%TD*%
%TA.AperFunction,Conductor*%
%TO.N,/DRAIN*%
G36*
X182276573Y-82423427D02*
G01*
X182280000Y-82431700D01*
X182280000Y-84384817D01*
X182276573Y-84393090D01*
X182269726Y-84396430D01*
X181261552Y-84520195D01*
X181252923Y-84517802D01*
X181250923Y-84515807D01*
X180394703Y-83425250D01*
X180392290Y-83416627D01*
X180393001Y-83413783D01*
X180777097Y-82427453D01*
X180783293Y-82420989D01*
X180788000Y-82420000D01*
X182268300Y-82420000D01*
X182276573Y-82423427D01*
G37*
%TD.AperFunction*%
%TD*%
%TA.AperFunction,Conductor*%
%TO.N,/DRAIN*%
G36*
X179929539Y-80678364D02*
G01*
X179937132Y-80683110D01*
X179939306Y-80689903D01*
X179939306Y-82170096D01*
X179935879Y-82178369D01*
X179929539Y-82181635D01*
X178450681Y-82429310D01*
X178442937Y-82427926D01*
X176716745Y-81440154D01*
X176711267Y-81433072D01*
X176712402Y-81424189D01*
X176716746Y-81419845D01*
X178442940Y-80432072D01*
X178450678Y-80430689D01*
X179929539Y-80678364D01*
G37*
%TD.AperFunction*%
%TD*%
%TA.AperFunction,Conductor*%
%TO.N,Net-(U2-OUT)*%
G36*
X176307646Y-93303032D02*
G01*
X176309273Y-93304437D01*
X176923183Y-93941884D01*
X176926454Y-93950220D01*
X176923183Y-93958116D01*
X176309273Y-94595562D01*
X176301066Y-94599144D01*
X176298923Y-94598987D01*
X175414777Y-94451629D01*
X175407179Y-94446888D01*
X175405000Y-94440088D01*
X175405000Y-93459911D01*
X175408427Y-93451638D01*
X175414775Y-93448370D01*
X176298925Y-93301012D01*
X176307646Y-93303032D01*
G37*
%TD.AperFunction*%
%TD*%
%TA.AperFunction,Conductor*%
%TO.N,11.5V*%
G36*
X163006068Y-95511080D02*
G01*
X163902852Y-95670781D01*
X163910395Y-95675605D01*
X163912500Y-95682300D01*
X163912500Y-96662699D01*
X163909073Y-96670972D01*
X163902851Y-96674218D01*
X163006072Y-96833918D01*
X162997326Y-96831994D01*
X162995676Y-96830599D01*
X162690266Y-96519794D01*
X162357056Y-96180698D01*
X162353702Y-96172398D01*
X162357056Y-96164301D01*
X162995676Y-95514399D01*
X163003919Y-95510900D01*
X163006068Y-95511080D01*
G37*
%TD.AperFunction*%
%TD*%
%TA.AperFunction,Conductor*%
%TO.N,Net-(Q1-G)*%
G36*
X177561068Y-90201011D02*
G01*
X178445224Y-90348370D01*
X178452821Y-90353111D01*
X178455000Y-90359911D01*
X178455000Y-91340088D01*
X178451573Y-91348361D01*
X178445223Y-91351629D01*
X177561076Y-91498987D01*
X177552353Y-91496967D01*
X177550726Y-91495562D01*
X176936816Y-90858116D01*
X176933545Y-90849780D01*
X176936816Y-90841884D01*
X177412108Y-90348370D01*
X177550727Y-90204436D01*
X177558933Y-90200855D01*
X177561068Y-90201011D01*
G37*
%TD.AperFunction*%
%TD*%
%TA.AperFunction,Conductor*%
%TO.N,Net-(Q1-G)*%
G36*
X176707305Y-86888598D02*
G01*
X176709135Y-86890428D01*
X177192980Y-87495718D01*
X177695327Y-88124155D01*
X177697816Y-88132757D01*
X177696653Y-88136692D01*
X177203234Y-89123532D01*
X177196469Y-89129400D01*
X177192769Y-89130000D01*
X176207231Y-89130000D01*
X176198958Y-89126573D01*
X176196766Y-89123532D01*
X175703346Y-88136692D01*
X175702711Y-88127760D01*
X175704672Y-88124155D01*
X176690862Y-86890431D01*
X176698703Y-86886109D01*
X176707305Y-86888598D01*
G37*
%TD.AperFunction*%
%TD*%
M02*
