%TF.GenerationSoftware,KiCad,Pcbnew,8.0.0-unknown-202403021604~8dce6c0b67~ubuntu22.04.1*%
%TF.CreationDate,2024-03-03T10:33:34+05:30*%
%TF.ProjectId,HF-PA-v10,48462d50-412d-4763-9130-2e6b69636164,rev?*%
%TF.SameCoordinates,Original*%
%TF.FileFunction,Copper,L2,Bot*%
%TF.FilePolarity,Positive*%
%FSLAX46Y46*%
G04 Gerber Fmt 4.6, Leading zero omitted, Abs format (unit mm)*
G04 Created by KiCad (PCBNEW 8.0.0-unknown-202403021604~8dce6c0b67~ubuntu22.04.1) date 2024-03-03 10:33:34*
%MOMM*%
%LPD*%
G01*
G04 APERTURE LIST*
%TA.AperFunction,ComponentPad*%
%ADD10C,2.000000*%
%TD*%
%TA.AperFunction,ComponentPad*%
%ADD11C,0.800000*%
%TD*%
%TA.AperFunction,ComponentPad*%
%ADD12C,6.400000*%
%TD*%
%TA.AperFunction,SMDPad,CuDef*%
%ADD13R,4.200000X1.350000*%
%TD*%
%TA.AperFunction,ComponentPad*%
%ADD14O,4.400000X2.200000*%
%TD*%
%TA.AperFunction,ComponentPad*%
%ADD15O,4.000000X2.000000*%
%TD*%
%TA.AperFunction,ComponentPad*%
%ADD16O,2.000000X4.000000*%
%TD*%
%TA.AperFunction,ComponentPad*%
%ADD17R,1.600000X1.600000*%
%TD*%
%TA.AperFunction,ComponentPad*%
%ADD18C,1.600000*%
%TD*%
%TA.AperFunction,SMDPad,CuDef*%
%ADD19R,1.350000X4.200000*%
%TD*%
%TA.AperFunction,ComponentPad*%
%ADD20R,4.500000X2.500000*%
%TD*%
%TA.AperFunction,ComponentPad*%
%ADD21O,4.500000X2.500000*%
%TD*%
%TA.AperFunction,ComponentPad*%
%ADD22R,2.200000X2.200000*%
%TD*%
%TA.AperFunction,ComponentPad*%
%ADD23O,2.200000X2.200000*%
%TD*%
%TA.AperFunction,ViaPad*%
%ADD24C,0.800000*%
%TD*%
%TA.AperFunction,Conductor*%
%ADD25C,1.500000*%
%TD*%
%TA.AperFunction,Conductor*%
%ADD26C,1.000000*%
%TD*%
%TA.AperFunction,Conductor*%
%ADD27C,2.000000*%
%TD*%
G04 APERTURE END LIST*
D10*
%TO.P,L4,1*%
%TO.N,Net-(C7-Pad1)*%
X193440000Y-88320000D03*
%TO.P,L4,2*%
%TO.N,Net-(RF_OUT1-In)*%
X198520000Y-88320000D03*
%TD*%
D11*
%TO.P,H3,1,1*%
%TO.N,GND*%
X143872944Y-100222944D03*
X144575888Y-98525888D03*
X144575888Y-101920000D03*
X146272944Y-97822944D03*
D12*
X146272944Y-100222944D03*
D11*
X146272944Y-102622944D03*
X147970000Y-98525888D03*
X147970000Y-101920000D03*
X148672944Y-100222944D03*
%TD*%
D13*
%TO.P,RF_OUT1,2,Ext*%
%TO.N,GND*%
X204477500Y-88285000D03*
X204477500Y-82635000D03*
%TD*%
D14*
%TO.P,Power1,1*%
%TO.N,+VDC*%
X183850000Y-70312500D03*
D15*
%TO.P,Power1,2*%
%TO.N,GND*%
X183850000Y-64312500D03*
D16*
%TO.P,Power1,3*%
%TO.N,unconnected-(Power1-Pad3)*%
X179150000Y-67312500D03*
%TD*%
D17*
%TO.P,C15,1*%
%TO.N,+VDC*%
X175762651Y-67050000D03*
D18*
%TO.P,C15,2*%
%TO.N,GND*%
X170762651Y-67050000D03*
%TD*%
D11*
%TO.P,H4,1,1*%
%TO.N,GND*%
X201242944Y-100172944D03*
X201945888Y-98475888D03*
X201945888Y-101870000D03*
X203642944Y-97772944D03*
D12*
X203642944Y-100172944D03*
D11*
X203642944Y-102572944D03*
X205340000Y-98475888D03*
X205340000Y-101870000D03*
X206042944Y-100172944D03*
%TD*%
D19*
%TO.P,RF_IN1,2,Ext*%
%TO.N,GND*%
X167120000Y-101380000D03*
X172770000Y-101380000D03*
%TD*%
D20*
%TO.P,Q1,1,G*%
%TO.N,Net-(Q1-G)*%
X176700000Y-86880000D03*
D21*
%TO.P,Q1,2,D*%
%TO.N,/DRAIN*%
X176700000Y-81430000D03*
%TO.P,Q1,3,S*%
%TO.N,GND*%
X176700000Y-75980000D03*
%TD*%
D22*
%TO.P,D1,1,K*%
%TO.N,11.5V*%
X158768234Y-101650000D03*
D23*
%TO.P,D1,2,A*%
%TO.N,Net-(D1-A)*%
X156228234Y-101650000D03*
%TD*%
D11*
%TO.P,H1,1,1*%
%TO.N,GND*%
X143812944Y-66222944D03*
X144515888Y-64525888D03*
X144515888Y-67920000D03*
X146212944Y-63822944D03*
D12*
X146212944Y-66222944D03*
D11*
X146212944Y-68622944D03*
X147910000Y-64525888D03*
X147910000Y-67920000D03*
X148612944Y-66222944D03*
%TD*%
%TO.P,H2,1,1*%
%TO.N,GND*%
X201352944Y-66177944D03*
X202055888Y-64480888D03*
X202055888Y-67875000D03*
X203752944Y-63777944D03*
D12*
X203752944Y-66177944D03*
D11*
X203752944Y-68577944D03*
X205450000Y-64480888D03*
X205450000Y-67875000D03*
X206152944Y-66177944D03*
%TD*%
D24*
%TO.N,GND*%
X160070000Y-64960000D03*
X188412114Y-102371750D03*
X193492114Y-97291750D03*
X203652114Y-76971750D03*
X201112114Y-79511750D03*
X162610000Y-64960000D03*
X190952114Y-102371750D03*
X152450000Y-64960000D03*
X145232114Y-92211750D03*
X203652114Y-74431750D03*
X194495000Y-64795000D03*
X154750000Y-98520000D03*
X201112114Y-74431750D03*
X175712114Y-102371750D03*
X194495000Y-67335000D03*
X178252114Y-99831750D03*
X180792114Y-102371750D03*
X157530000Y-64960000D03*
X152450000Y-67500000D03*
X197035000Y-67335000D03*
X201112114Y-76971750D03*
X154990000Y-67500000D03*
X198572114Y-71891750D03*
X157290000Y-95980000D03*
X144160000Y-81940000D03*
X180792114Y-97291750D03*
X144160000Y-71780000D03*
X165150000Y-67500000D03*
X144160000Y-89560000D03*
X199575000Y-64795000D03*
X165150000Y-64960000D03*
X201112114Y-71891750D03*
X190952114Y-97291750D03*
X183332114Y-102371750D03*
X193492114Y-102371750D03*
X196032114Y-102371750D03*
X189415000Y-67335000D03*
X198572114Y-99831750D03*
X162610000Y-67500000D03*
X185872114Y-97291750D03*
X154990000Y-64960000D03*
X157290000Y-98520000D03*
X199575000Y-69875000D03*
X190952114Y-94751750D03*
X194495000Y-69875000D03*
X160070000Y-67500000D03*
X144160000Y-79400000D03*
X197035000Y-69875000D03*
X144160000Y-74320000D03*
X203652114Y-79511750D03*
X191955000Y-67335000D03*
X180792114Y-99831750D03*
X183332114Y-66811750D03*
X157530000Y-67500000D03*
X154750000Y-95980000D03*
X193492114Y-94751750D03*
X145232114Y-94751750D03*
X144160000Y-76860000D03*
X159830000Y-98520000D03*
X203652114Y-71891750D03*
X197035000Y-64795000D03*
X178252114Y-102371750D03*
X144160000Y-87020000D03*
X175712114Y-99831750D03*
X159830000Y-95980000D03*
X191955000Y-64795000D03*
X199575000Y-67335000D03*
X144160000Y-84480000D03*
X188412114Y-97291750D03*
X183332114Y-97291750D03*
X198572114Y-102371750D03*
X185872114Y-102371750D03*
%TO.N,+VDC*%
X188310000Y-85200000D03*
X188280000Y-84390000D03*
X151240000Y-93920000D03*
X150170000Y-93930000D03*
%TD*%
D25*
%TO.N,+VDC*%
X188310000Y-93261750D02*
X188310000Y-83480000D01*
D26*
X188310000Y-85200000D02*
X188310000Y-93261750D01*
X188310000Y-84540000D02*
X188280000Y-84390000D01*
D27*
X153190000Y-93930000D02*
X150660000Y-93930000D01*
D26*
X188280000Y-84390000D02*
X188310000Y-85200000D01*
D25*
X153190000Y-93930000D02*
X187641750Y-93930000D01*
X187641750Y-93930000D02*
X188310000Y-93261750D01*
%TD*%
%TA.AperFunction,Conductor*%
%TO.N,GND*%
G36*
X144363948Y-101778386D02*
G01*
X144325888Y-101870272D01*
X144325888Y-101969728D01*
X144363948Y-102061614D01*
X144434274Y-102131940D01*
X144526160Y-102170000D01*
X144625616Y-102170000D01*
X144717498Y-102131941D01*
X143837592Y-103011847D01*
X143837593Y-103011848D01*
X144095150Y-103220412D01*
X144366307Y-103396505D01*
X144411810Y-103449526D01*
X144421424Y-103518731D01*
X144392097Y-103582148D01*
X144333140Y-103619642D01*
X144298772Y-103624500D01*
X142991202Y-103624500D01*
X142924163Y-103604815D01*
X142878408Y-103552011D01*
X142867203Y-103501033D01*
X142865098Y-103011846D01*
X142861530Y-102182466D01*
X142880926Y-102115344D01*
X142933533Y-102069362D01*
X143002648Y-102059121D01*
X143066328Y-102087873D01*
X143089524Y-102114399D01*
X143275475Y-102400737D01*
X143484039Y-102658294D01*
X143484040Y-102658294D01*
X144363948Y-101778386D01*
G37*
%TD.AperFunction*%
%TA.AperFunction,Conductor*%
G36*
X181988339Y-62807168D02*
G01*
X182055375Y-62826859D01*
X182101124Y-62879667D01*
X182111061Y-62948827D01*
X182082030Y-63012380D01*
X182061211Y-63031486D01*
X181872814Y-63168365D01*
X181705866Y-63335313D01*
X181567085Y-63526328D01*
X181459897Y-63736697D01*
X181386934Y-63961252D01*
X181370898Y-64062500D01*
X182416988Y-64062500D01*
X182384075Y-64119507D01*
X182350000Y-64246674D01*
X182350000Y-64378326D01*
X182384075Y-64505493D01*
X182416988Y-64562500D01*
X181370898Y-64562500D01*
X181386934Y-64663747D01*
X181459897Y-64888302D01*
X181567085Y-65098671D01*
X181705866Y-65289686D01*
X181872813Y-65456633D01*
X182063828Y-65595414D01*
X182274197Y-65702602D01*
X182498752Y-65775565D01*
X182498751Y-65775565D01*
X182731948Y-65812500D01*
X183600000Y-65812500D01*
X183600000Y-64812500D01*
X184100000Y-64812500D01*
X184100000Y-65812500D01*
X184968052Y-65812500D01*
X185201247Y-65775565D01*
X185425802Y-65702602D01*
X185636171Y-65595414D01*
X185827186Y-65456633D01*
X185994133Y-65289686D01*
X186132914Y-65098671D01*
X186240102Y-64888302D01*
X186313065Y-64663747D01*
X186329102Y-64562500D01*
X185283012Y-64562500D01*
X185315925Y-64505493D01*
X185350000Y-64378326D01*
X185350000Y-64246674D01*
X185315925Y-64119507D01*
X185283012Y-64062500D01*
X186329102Y-64062500D01*
X186313065Y-63961252D01*
X186240102Y-63736697D01*
X186132914Y-63526328D01*
X185994133Y-63335313D01*
X185827186Y-63168366D01*
X185639283Y-63031846D01*
X185596618Y-62976516D01*
X185590639Y-62906903D01*
X185623245Y-62845108D01*
X185684084Y-62810750D01*
X185712177Y-62807528D01*
X201728451Y-62809075D01*
X201795488Y-62828766D01*
X201841237Y-62881574D01*
X201851174Y-62950734D01*
X201822143Y-63014287D01*
X201795974Y-63037070D01*
X201575146Y-63180478D01*
X201317592Y-63389039D01*
X201317592Y-63389040D01*
X202197499Y-64268946D01*
X202105616Y-64230888D01*
X202006160Y-64230888D01*
X201914274Y-64268948D01*
X201843948Y-64339274D01*
X201805888Y-64431160D01*
X201805888Y-64530616D01*
X201843946Y-64622498D01*
X200964040Y-63742592D01*
X200964039Y-63742592D01*
X200755475Y-64000150D01*
X200544254Y-64325400D01*
X200368188Y-64670949D01*
X200229206Y-65033007D01*
X200128831Y-65407613D01*
X200128830Y-65407620D01*
X200068163Y-65790656D01*
X200047866Y-66177943D01*
X200047866Y-66177944D01*
X200068163Y-66565231D01*
X200128830Y-66948267D01*
X200128831Y-66948274D01*
X200229206Y-67322880D01*
X200368188Y-67684938D01*
X200544254Y-68030487D01*
X200755475Y-68355737D01*
X200964039Y-68613294D01*
X200964040Y-68613294D01*
X201843948Y-67733386D01*
X201805888Y-67825272D01*
X201805888Y-67924728D01*
X201843948Y-68016614D01*
X201914274Y-68086940D01*
X202006160Y-68125000D01*
X202105616Y-68125000D01*
X202197498Y-68086941D01*
X201317592Y-68966847D01*
X201317593Y-68966848D01*
X201575150Y-69175412D01*
X201900400Y-69386633D01*
X202245949Y-69562699D01*
X202608007Y-69701681D01*
X202982613Y-69802056D01*
X202982620Y-69802057D01*
X203365656Y-69862724D01*
X203752943Y-69883022D01*
X203752945Y-69883022D01*
X204140231Y-69862724D01*
X204523267Y-69802057D01*
X204523274Y-69802056D01*
X204897880Y-69701681D01*
X205259938Y-69562699D01*
X205605487Y-69386633D01*
X205930727Y-69175420D01*
X205930729Y-69175419D01*
X206188293Y-68966846D01*
X205308387Y-68086940D01*
X205400272Y-68125000D01*
X205499728Y-68125000D01*
X205591614Y-68086940D01*
X205661940Y-68016614D01*
X205700000Y-67924728D01*
X205700000Y-67825272D01*
X205661940Y-67733387D01*
X206541846Y-68613293D01*
X206683491Y-68438377D01*
X206740978Y-68398666D01*
X206810809Y-68396338D01*
X206870813Y-68432133D01*
X206901939Y-68494687D01*
X206903856Y-68515880D01*
X206959228Y-81389603D01*
X206939832Y-81456726D01*
X206887225Y-81502708D01*
X206818110Y-81512949D01*
X206791896Y-81506318D01*
X206684879Y-81466403D01*
X206684872Y-81466401D01*
X206625344Y-81460000D01*
X204727500Y-81460000D01*
X204727500Y-83810000D01*
X206625328Y-83810000D01*
X206625344Y-83809999D01*
X206684872Y-83803598D01*
X206684879Y-83803596D01*
X206802588Y-83759694D01*
X206872279Y-83754710D01*
X206933602Y-83788195D01*
X206967087Y-83849518D01*
X206969920Y-83875343D01*
X206983569Y-87048681D01*
X206964173Y-87115804D01*
X206911566Y-87161786D01*
X206842451Y-87172027D01*
X206816237Y-87165396D01*
X206684879Y-87116403D01*
X206684872Y-87116401D01*
X206625344Y-87110000D01*
X204727500Y-87110000D01*
X204727500Y-89460000D01*
X206625328Y-89460000D01*
X206625344Y-89459999D01*
X206684872Y-89453598D01*
X206684879Y-89453596D01*
X206826850Y-89400645D01*
X206896541Y-89395661D01*
X206957864Y-89429146D01*
X206991349Y-89490469D01*
X206994182Y-89516294D01*
X207031438Y-98178128D01*
X207012042Y-98245251D01*
X206959435Y-98291233D01*
X206890320Y-98301474D01*
X206826640Y-98272722D01*
X206803444Y-98246196D01*
X206640412Y-97995150D01*
X206431848Y-97737593D01*
X206431847Y-97737592D01*
X205551941Y-98617497D01*
X205590000Y-98525616D01*
X205590000Y-98426160D01*
X205551940Y-98334274D01*
X205481614Y-98263948D01*
X205389728Y-98225888D01*
X205290272Y-98225888D01*
X205198387Y-98263947D01*
X206078294Y-97384040D01*
X206078294Y-97384039D01*
X205820737Y-97175475D01*
X205495487Y-96964254D01*
X205149938Y-96788188D01*
X204787880Y-96649206D01*
X204413274Y-96548831D01*
X204413267Y-96548830D01*
X204030231Y-96488163D01*
X203642945Y-96467866D01*
X203642943Y-96467866D01*
X203255656Y-96488163D01*
X202872620Y-96548830D01*
X202872613Y-96548831D01*
X202498007Y-96649206D01*
X202135949Y-96788188D01*
X201790400Y-96964254D01*
X201465150Y-97175475D01*
X201207592Y-97384039D01*
X201207592Y-97384040D01*
X202087499Y-98263946D01*
X201995616Y-98225888D01*
X201896160Y-98225888D01*
X201804274Y-98263948D01*
X201733948Y-98334274D01*
X201695888Y-98426160D01*
X201695888Y-98525616D01*
X201733946Y-98617498D01*
X200854040Y-97737592D01*
X200854039Y-97737592D01*
X200645475Y-97995150D01*
X200434254Y-98320400D01*
X200258188Y-98665949D01*
X200119206Y-99028007D01*
X200018831Y-99402613D01*
X200018830Y-99402620D01*
X199958163Y-99785656D01*
X199937866Y-100172943D01*
X199937866Y-100172944D01*
X199958163Y-100560231D01*
X200018830Y-100943267D01*
X200018831Y-100943274D01*
X200119206Y-101317880D01*
X200258188Y-101679938D01*
X200434254Y-102025487D01*
X200645475Y-102350737D01*
X200854039Y-102608294D01*
X200854040Y-102608294D01*
X201733948Y-101728386D01*
X201695888Y-101820272D01*
X201695888Y-101919728D01*
X201733948Y-102011614D01*
X201804274Y-102081940D01*
X201896160Y-102120000D01*
X201995616Y-102120000D01*
X202087498Y-102081941D01*
X201207592Y-102961847D01*
X201207593Y-102961848D01*
X201465150Y-103170412D01*
X201790402Y-103381635D01*
X201790405Y-103381636D01*
X201806849Y-103390015D01*
X201857645Y-103437989D01*
X201874441Y-103505809D01*
X201851904Y-103571945D01*
X201797190Y-103615397D01*
X201750555Y-103624500D01*
X174069000Y-103624500D01*
X174001961Y-103604815D01*
X173956206Y-103552011D01*
X173945000Y-103500500D01*
X173945000Y-101630000D01*
X171595000Y-101630000D01*
X171595000Y-103500500D01*
X171575315Y-103567539D01*
X171522511Y-103613294D01*
X171471000Y-103624500D01*
X168419000Y-103624500D01*
X168351961Y-103604815D01*
X168306206Y-103552011D01*
X168295000Y-103500500D01*
X168295000Y-101630000D01*
X165945000Y-101630000D01*
X165945000Y-103500500D01*
X165925315Y-103567539D01*
X165872511Y-103613294D01*
X165821000Y-103624500D01*
X148247116Y-103624500D01*
X148180077Y-103604815D01*
X148134322Y-103552011D01*
X148124378Y-103482853D01*
X148153403Y-103419297D01*
X148179581Y-103396505D01*
X148450727Y-103220420D01*
X148450729Y-103220419D01*
X148708293Y-103011846D01*
X147828387Y-102131940D01*
X147920272Y-102170000D01*
X148019728Y-102170000D01*
X148111614Y-102131940D01*
X148181940Y-102061614D01*
X148220000Y-101969728D01*
X148220000Y-101870272D01*
X148181940Y-101778387D01*
X149061846Y-102658293D01*
X149270419Y-102400729D01*
X149270420Y-102400727D01*
X149481633Y-102075487D01*
X149657699Y-101729938D01*
X149688385Y-101650000D01*
X154622785Y-101650000D01*
X154642551Y-101901151D01*
X154701360Y-102146110D01*
X154797767Y-102378859D01*
X154929394Y-102593653D01*
X154929395Y-102593656D01*
X154941897Y-102608294D01*
X155093010Y-102785224D01*
X155195717Y-102872944D01*
X155284577Y-102948838D01*
X155284580Y-102948839D01*
X155499374Y-103080466D01*
X155716525Y-103170412D01*
X155732123Y-103176873D01*
X155977086Y-103235683D01*
X156228234Y-103255449D01*
X156479382Y-103235683D01*
X156724345Y-103176873D01*
X156957093Y-103080466D01*
X157089253Y-102999477D01*
X157156695Y-102981234D01*
X157223298Y-103002350D01*
X157253306Y-103030894D01*
X157310689Y-103107547D01*
X157425898Y-103193793D01*
X157425905Y-103193797D01*
X157560751Y-103244091D01*
X157560750Y-103244091D01*
X157567678Y-103244835D01*
X157620361Y-103250500D01*
X159916106Y-103250499D01*
X159975717Y-103244091D01*
X160110565Y-103193796D01*
X160225780Y-103107546D01*
X160312030Y-102992331D01*
X160362325Y-102857483D01*
X160368734Y-102797873D01*
X160368733Y-101130000D01*
X165945000Y-101130000D01*
X166870000Y-101130000D01*
X166870000Y-98780000D01*
X167370000Y-98780000D01*
X167370000Y-101130000D01*
X168295000Y-101130000D01*
X171595000Y-101130000D01*
X172520000Y-101130000D01*
X172520000Y-98780000D01*
X173020000Y-98780000D01*
X173020000Y-101130000D01*
X173945000Y-101130000D01*
X173945000Y-99232172D01*
X173944999Y-99232155D01*
X173938598Y-99172627D01*
X173938596Y-99172620D01*
X173888354Y-99037913D01*
X173888350Y-99037906D01*
X173802190Y-98922812D01*
X173802187Y-98922809D01*
X173687093Y-98836649D01*
X173687086Y-98836645D01*
X173552379Y-98786403D01*
X173552372Y-98786401D01*
X173492844Y-98780000D01*
X173020000Y-98780000D01*
X172520000Y-98780000D01*
X172047155Y-98780000D01*
X171987627Y-98786401D01*
X171987620Y-98786403D01*
X171852913Y-98836645D01*
X171852906Y-98836649D01*
X171737812Y-98922809D01*
X171737809Y-98922812D01*
X171651649Y-99037906D01*
X171651645Y-99037913D01*
X171601403Y-99172620D01*
X171601401Y-99172627D01*
X171595000Y-99232155D01*
X171595000Y-101130000D01*
X168295000Y-101130000D01*
X168295000Y-99232172D01*
X168294999Y-99232155D01*
X168288598Y-99172627D01*
X168288596Y-99172620D01*
X168238354Y-99037913D01*
X168238350Y-99037906D01*
X168152190Y-98922812D01*
X168152187Y-98922809D01*
X168037093Y-98836649D01*
X168037086Y-98836645D01*
X167902379Y-98786403D01*
X167902372Y-98786401D01*
X167842844Y-98780000D01*
X167370000Y-98780000D01*
X166870000Y-98780000D01*
X166397155Y-98780000D01*
X166337627Y-98786401D01*
X166337620Y-98786403D01*
X166202913Y-98836645D01*
X166202906Y-98836649D01*
X166087812Y-98922809D01*
X166087809Y-98922812D01*
X166001649Y-99037906D01*
X166001645Y-99037913D01*
X165951403Y-99172620D01*
X165951401Y-99172627D01*
X165945000Y-99232155D01*
X165945000Y-101130000D01*
X160368733Y-101130000D01*
X160368733Y-100502128D01*
X160362325Y-100442517D01*
X160340829Y-100384884D01*
X160312031Y-100307671D01*
X160312027Y-100307664D01*
X160225781Y-100192455D01*
X160225778Y-100192452D01*
X160110569Y-100106206D01*
X160110562Y-100106202D01*
X159975716Y-100055908D01*
X159975717Y-100055908D01*
X159916117Y-100049501D01*
X159916115Y-100049500D01*
X159916107Y-100049500D01*
X159916098Y-100049500D01*
X157620363Y-100049500D01*
X157620357Y-100049501D01*
X157560750Y-100055908D01*
X157425905Y-100106202D01*
X157425898Y-100106206D01*
X157310689Y-100192452D01*
X157253306Y-100269105D01*
X157197372Y-100310976D01*
X157127680Y-100315959D01*
X157089250Y-100300520D01*
X156957093Y-100219533D01*
X156724344Y-100123126D01*
X156479385Y-100064317D01*
X156228234Y-100044551D01*
X155977082Y-100064317D01*
X155732123Y-100123126D01*
X155499374Y-100219533D01*
X155284580Y-100351160D01*
X155284577Y-100351161D01*
X155093010Y-100514776D01*
X154929395Y-100706343D01*
X154929394Y-100706346D01*
X154797767Y-100921140D01*
X154701360Y-101153889D01*
X154642551Y-101398848D01*
X154622785Y-101650000D01*
X149688385Y-101650000D01*
X149796681Y-101367880D01*
X149897056Y-100993274D01*
X149897057Y-100993267D01*
X149957724Y-100610231D01*
X149978022Y-100222944D01*
X149978022Y-100222943D01*
X149957724Y-99835656D01*
X149897057Y-99452620D01*
X149897056Y-99452613D01*
X149796681Y-99078007D01*
X149657699Y-98715949D01*
X149481633Y-98370400D01*
X149270412Y-98045150D01*
X149061848Y-97787593D01*
X149061847Y-97787592D01*
X148181941Y-98667497D01*
X148220000Y-98575616D01*
X148220000Y-98476160D01*
X148181940Y-98384274D01*
X148111614Y-98313948D01*
X148019728Y-98275888D01*
X147920272Y-98275888D01*
X147828387Y-98313947D01*
X148708294Y-97434040D01*
X148708294Y-97434039D01*
X148450737Y-97225475D01*
X148125487Y-97014254D01*
X147779938Y-96838188D01*
X147417880Y-96699206D01*
X147043274Y-96598831D01*
X147043267Y-96598830D01*
X146660231Y-96538163D01*
X146272945Y-96517866D01*
X146272943Y-96517866D01*
X145885656Y-96538163D01*
X145502620Y-96598830D01*
X145502613Y-96598831D01*
X145128007Y-96699206D01*
X144765949Y-96838188D01*
X144420400Y-97014254D01*
X144095150Y-97225475D01*
X143837592Y-97434039D01*
X143837592Y-97434040D01*
X144717499Y-98313946D01*
X144625616Y-98275888D01*
X144526160Y-98275888D01*
X144434274Y-98313948D01*
X144363948Y-98384274D01*
X144325888Y-98476160D01*
X144325888Y-98575616D01*
X144363946Y-98667498D01*
X143484040Y-97787592D01*
X143484039Y-97787592D01*
X143275478Y-98045146D01*
X143072778Y-98357274D01*
X143019756Y-98402777D01*
X142950551Y-98412390D01*
X142887135Y-98383063D01*
X142849641Y-98324106D01*
X142844785Y-98290280D01*
X142826534Y-94048097D01*
X149159500Y-94048097D01*
X149196446Y-94281368D01*
X149269433Y-94505996D01*
X149376657Y-94716433D01*
X149515483Y-94907510D01*
X149682490Y-95074517D01*
X149873567Y-95213343D01*
X149972991Y-95264002D01*
X150084003Y-95320566D01*
X150084005Y-95320566D01*
X150084008Y-95320568D01*
X150204412Y-95359689D01*
X150308631Y-95393553D01*
X150541903Y-95430500D01*
X150541908Y-95430500D01*
X153308097Y-95430500D01*
X153541368Y-95393553D01*
X153765992Y-95320568D01*
X153976433Y-95213343D01*
X153982799Y-95208717D01*
X153989043Y-95204182D01*
X154054849Y-95180702D01*
X154061928Y-95180500D01*
X187740172Y-95180500D01*
X187934576Y-95149709D01*
X188121776Y-95088884D01*
X188297155Y-94999524D01*
X188456396Y-94883828D01*
X189263828Y-94076396D01*
X189379524Y-93917155D01*
X189468884Y-93741776D01*
X189529709Y-93554577D01*
X189560500Y-93360172D01*
X189560500Y-88320005D01*
X191934357Y-88320005D01*
X191954890Y-88567812D01*
X191954892Y-88567824D01*
X192015936Y-88808881D01*
X192115826Y-89036606D01*
X192251833Y-89244782D01*
X192251836Y-89244785D01*
X192420256Y-89427738D01*
X192616491Y-89580474D01*
X192835190Y-89698828D01*
X193070386Y-89779571D01*
X193315665Y-89820500D01*
X193564335Y-89820500D01*
X193809614Y-89779571D01*
X194044810Y-89698828D01*
X194263509Y-89580474D01*
X194459744Y-89427738D01*
X194628164Y-89244785D01*
X194764173Y-89036607D01*
X194864063Y-88808881D01*
X194925108Y-88567821D01*
X194931760Y-88487544D01*
X194945643Y-88320005D01*
X197014357Y-88320005D01*
X197034890Y-88567812D01*
X197034892Y-88567824D01*
X197095936Y-88808881D01*
X197195826Y-89036606D01*
X197331833Y-89244782D01*
X197331836Y-89244785D01*
X197500256Y-89427738D01*
X197696491Y-89580474D01*
X197915190Y-89698828D01*
X198150386Y-89779571D01*
X198395665Y-89820500D01*
X198644335Y-89820500D01*
X198889614Y-89779571D01*
X199124810Y-89698828D01*
X199343509Y-89580474D01*
X199539744Y-89427738D01*
X199708164Y-89244785D01*
X199844173Y-89036607D01*
X199944063Y-88808881D01*
X200005108Y-88567821D01*
X200007828Y-88535000D01*
X201877500Y-88535000D01*
X201877500Y-89007844D01*
X201883901Y-89067372D01*
X201883903Y-89067379D01*
X201934145Y-89202086D01*
X201934149Y-89202093D01*
X202020309Y-89317187D01*
X202020312Y-89317190D01*
X202135406Y-89403350D01*
X202135413Y-89403354D01*
X202270120Y-89453596D01*
X202270127Y-89453598D01*
X202329655Y-89459999D01*
X202329672Y-89460000D01*
X204227500Y-89460000D01*
X204227500Y-88535000D01*
X201877500Y-88535000D01*
X200007828Y-88535000D01*
X200011760Y-88487544D01*
X200025643Y-88320005D01*
X200025643Y-88319994D01*
X200005109Y-88072187D01*
X200005107Y-88072175D01*
X199995693Y-88035000D01*
X201877500Y-88035000D01*
X204227500Y-88035000D01*
X204227500Y-87110000D01*
X202329655Y-87110000D01*
X202270127Y-87116401D01*
X202270120Y-87116403D01*
X202135413Y-87166645D01*
X202135406Y-87166649D01*
X202020312Y-87252809D01*
X202020309Y-87252812D01*
X201934149Y-87367906D01*
X201934145Y-87367913D01*
X201883903Y-87502620D01*
X201883901Y-87502627D01*
X201877500Y-87562155D01*
X201877500Y-88035000D01*
X199995693Y-88035000D01*
X199944063Y-87831118D01*
X199844173Y-87603393D01*
X199708166Y-87395217D01*
X199683024Y-87367906D01*
X199539744Y-87212262D01*
X199343509Y-87059526D01*
X199343507Y-87059525D01*
X199343506Y-87059524D01*
X199124811Y-86941172D01*
X199124802Y-86941169D01*
X198889616Y-86860429D01*
X198644335Y-86819500D01*
X198395665Y-86819500D01*
X198150383Y-86860429D01*
X197915197Y-86941169D01*
X197915188Y-86941172D01*
X197696493Y-87059524D01*
X197500257Y-87212261D01*
X197331833Y-87395217D01*
X197195826Y-87603393D01*
X197095936Y-87831118D01*
X197034892Y-88072175D01*
X197034890Y-88072187D01*
X197014357Y-88319994D01*
X197014357Y-88320005D01*
X194945643Y-88320005D01*
X194945643Y-88319994D01*
X194925109Y-88072187D01*
X194925107Y-88072175D01*
X194864063Y-87831118D01*
X194764173Y-87603393D01*
X194628166Y-87395217D01*
X194603024Y-87367906D01*
X194459744Y-87212262D01*
X194263509Y-87059526D01*
X194263507Y-87059525D01*
X194263506Y-87059524D01*
X194044811Y-86941172D01*
X194044802Y-86941169D01*
X193809616Y-86860429D01*
X193564335Y-86819500D01*
X193315665Y-86819500D01*
X193070383Y-86860429D01*
X192835197Y-86941169D01*
X192835188Y-86941172D01*
X192616493Y-87059524D01*
X192420257Y-87212261D01*
X192251833Y-87395217D01*
X192115826Y-87603393D01*
X192015936Y-87831118D01*
X191954892Y-88072175D01*
X191954890Y-88072187D01*
X191934357Y-88319994D01*
X191934357Y-88320005D01*
X189560500Y-88320005D01*
X189560500Y-83381577D01*
X189529709Y-83187173D01*
X189469980Y-83003349D01*
X189468884Y-82999975D01*
X189468882Y-82999972D01*
X189468882Y-82999970D01*
X189421743Y-82907455D01*
X189410302Y-82885000D01*
X201877500Y-82885000D01*
X201877500Y-83357844D01*
X201883901Y-83417372D01*
X201883903Y-83417379D01*
X201934145Y-83552086D01*
X201934149Y-83552093D01*
X202020309Y-83667187D01*
X202020312Y-83667190D01*
X202135406Y-83753350D01*
X202135413Y-83753354D01*
X202270120Y-83803596D01*
X202270127Y-83803598D01*
X202329655Y-83809999D01*
X202329672Y-83810000D01*
X204227500Y-83810000D01*
X204227500Y-82885000D01*
X201877500Y-82885000D01*
X189410302Y-82885000D01*
X189379524Y-82824595D01*
X189263828Y-82665354D01*
X189124646Y-82526172D01*
X188965405Y-82410476D01*
X188953896Y-82404612D01*
X188915406Y-82385000D01*
X201877500Y-82385000D01*
X204227500Y-82385000D01*
X204227500Y-81460000D01*
X202329655Y-81460000D01*
X202270127Y-81466401D01*
X202270120Y-81466403D01*
X202135413Y-81516645D01*
X202135406Y-81516649D01*
X202020312Y-81602809D01*
X202020309Y-81602812D01*
X201934149Y-81717906D01*
X201934145Y-81717913D01*
X201883903Y-81852620D01*
X201883901Y-81852627D01*
X201877500Y-81912155D01*
X201877500Y-82385000D01*
X188915406Y-82385000D01*
X188790029Y-82321117D01*
X188602826Y-82260290D01*
X188408422Y-82229500D01*
X188408417Y-82229500D01*
X188211583Y-82229500D01*
X188211578Y-82229500D01*
X188017173Y-82260290D01*
X187829970Y-82321117D01*
X187654594Y-82410476D01*
X187563741Y-82476485D01*
X187495354Y-82526172D01*
X187495352Y-82526174D01*
X187495351Y-82526174D01*
X187356174Y-82665351D01*
X187356174Y-82665352D01*
X187356172Y-82665354D01*
X187306485Y-82733741D01*
X187240476Y-82824594D01*
X187151117Y-82999970D01*
X187090290Y-83187173D01*
X187059500Y-83381577D01*
X187059500Y-92555500D01*
X187039815Y-92622539D01*
X186987011Y-92668294D01*
X186935500Y-92679500D01*
X154061928Y-92679500D01*
X153994889Y-92659815D01*
X153989043Y-92655818D01*
X153976436Y-92646659D01*
X153976435Y-92646658D01*
X153976433Y-92646657D01*
X153910715Y-92613172D01*
X153765996Y-92539433D01*
X153541368Y-92466446D01*
X153308097Y-92429500D01*
X153308092Y-92429500D01*
X150541908Y-92429500D01*
X150541903Y-92429500D01*
X150308631Y-92466446D01*
X150084003Y-92539433D01*
X149873566Y-92646657D01*
X149764550Y-92725862D01*
X149682490Y-92785483D01*
X149682488Y-92785485D01*
X149682487Y-92785485D01*
X149515485Y-92952487D01*
X149515485Y-92952488D01*
X149515483Y-92952490D01*
X149455862Y-93034550D01*
X149376657Y-93143566D01*
X149269433Y-93354003D01*
X149196446Y-93578631D01*
X149159500Y-93811902D01*
X149159500Y-94048097D01*
X142826534Y-94048097D01*
X142815662Y-91520918D01*
X145949500Y-91520918D01*
X145979082Y-91550500D01*
X173570918Y-91550500D01*
X173600500Y-91520918D01*
X173600500Y-88177870D01*
X173949500Y-88177870D01*
X173949501Y-88177876D01*
X173955908Y-88237483D01*
X174006202Y-88372328D01*
X174006206Y-88372335D01*
X174092452Y-88487544D01*
X174092455Y-88487547D01*
X174207664Y-88573793D01*
X174207671Y-88573797D01*
X174342517Y-88624091D01*
X174342516Y-88624091D01*
X174349444Y-88624835D01*
X174402127Y-88630500D01*
X178997872Y-88630499D01*
X179057483Y-88624091D01*
X179192331Y-88573796D01*
X179307546Y-88487546D01*
X179393796Y-88372331D01*
X179444091Y-88237483D01*
X179450500Y-88177873D01*
X179450499Y-85582128D01*
X179444091Y-85522517D01*
X179393796Y-85387669D01*
X179393795Y-85387668D01*
X179393793Y-85387664D01*
X179307547Y-85272455D01*
X179307544Y-85272452D01*
X179192335Y-85186206D01*
X179192328Y-85186202D01*
X179057482Y-85135908D01*
X179057483Y-85135908D01*
X178997883Y-85129501D01*
X178997881Y-85129500D01*
X178997873Y-85129500D01*
X178997864Y-85129500D01*
X174402129Y-85129500D01*
X174402123Y-85129501D01*
X174342516Y-85135908D01*
X174207671Y-85186202D01*
X174207664Y-85186206D01*
X174092455Y-85272452D01*
X174092452Y-85272455D01*
X174006206Y-85387664D01*
X174006202Y-85387671D01*
X173955908Y-85522517D01*
X173949501Y-85582116D01*
X173949501Y-85582123D01*
X173949500Y-85582135D01*
X173949500Y-88177870D01*
X173600500Y-88177870D01*
X173600500Y-81544741D01*
X173949500Y-81544741D01*
X173957146Y-81602812D01*
X173979452Y-81772238D01*
X173979453Y-81772240D01*
X174038842Y-81993887D01*
X174126650Y-82205876D01*
X174126657Y-82205890D01*
X174241392Y-82404617D01*
X174381081Y-82586661D01*
X174381089Y-82586670D01*
X174543330Y-82748911D01*
X174543338Y-82748918D01*
X174725382Y-82888607D01*
X174725385Y-82888608D01*
X174725388Y-82888611D01*
X174924112Y-83003344D01*
X174924117Y-83003346D01*
X174924123Y-83003349D01*
X175015480Y-83041190D01*
X175136113Y-83091158D01*
X175357762Y-83150548D01*
X175585266Y-83180500D01*
X175585273Y-83180500D01*
X177814727Y-83180500D01*
X177814734Y-83180500D01*
X178042238Y-83150548D01*
X178263887Y-83091158D01*
X178475888Y-83003344D01*
X178674612Y-82888611D01*
X178856661Y-82748919D01*
X178856665Y-82748914D01*
X178856670Y-82748911D01*
X179018911Y-82586670D01*
X179018914Y-82586665D01*
X179018919Y-82586661D01*
X179158611Y-82404612D01*
X179273344Y-82205888D01*
X179361158Y-81993887D01*
X179420548Y-81772238D01*
X179450500Y-81544734D01*
X179450500Y-81315266D01*
X179420548Y-81087762D01*
X179361158Y-80866113D01*
X179273344Y-80654112D01*
X179158611Y-80455388D01*
X179158608Y-80455385D01*
X179158607Y-80455382D01*
X179057764Y-80323962D01*
X179018919Y-80273339D01*
X179018918Y-80273338D01*
X179018911Y-80273330D01*
X178856670Y-80111089D01*
X178856661Y-80111081D01*
X178674617Y-79971392D01*
X178475890Y-79856657D01*
X178475876Y-79856650D01*
X178263887Y-79768842D01*
X178042238Y-79709452D01*
X178004215Y-79704446D01*
X177814741Y-79679500D01*
X177814734Y-79679500D01*
X175585266Y-79679500D01*
X175585258Y-79679500D01*
X175368715Y-79708009D01*
X175357762Y-79709452D01*
X175264076Y-79734554D01*
X175136112Y-79768842D01*
X174924123Y-79856650D01*
X174924109Y-79856657D01*
X174725382Y-79971392D01*
X174543338Y-80111081D01*
X174381081Y-80273338D01*
X174241392Y-80455382D01*
X174126657Y-80654109D01*
X174126650Y-80654123D01*
X174038842Y-80866112D01*
X173979453Y-81087759D01*
X173979451Y-81087770D01*
X173949500Y-81315258D01*
X173949500Y-81544741D01*
X173600500Y-81544741D01*
X173600500Y-75729999D01*
X173967811Y-75729999D01*
X173967812Y-75730000D01*
X175991759Y-75730000D01*
X175978822Y-75761233D01*
X175950000Y-75906131D01*
X175950000Y-76053869D01*
X175978822Y-76198767D01*
X175991759Y-76230000D01*
X173967812Y-76230000D01*
X173979942Y-76322137D01*
X174039318Y-76543730D01*
X174127102Y-76755659D01*
X174127106Y-76755668D01*
X174241809Y-76954338D01*
X174381455Y-77136329D01*
X174381461Y-77136336D01*
X174543663Y-77298538D01*
X174543670Y-77298544D01*
X174725661Y-77438190D01*
X174924331Y-77552893D01*
X174924340Y-77552897D01*
X175136269Y-77640681D01*
X175357862Y-77700057D01*
X175585289Y-77729998D01*
X175585306Y-77730000D01*
X176450000Y-77730000D01*
X176450000Y-76688240D01*
X176481233Y-76701178D01*
X176626131Y-76730000D01*
X176773869Y-76730000D01*
X176918767Y-76701178D01*
X176950000Y-76688240D01*
X176950000Y-77730000D01*
X177814694Y-77730000D01*
X177814710Y-77729998D01*
X178042137Y-77700057D01*
X178263730Y-77640681D01*
X178475659Y-77552897D01*
X178475668Y-77552893D01*
X178674338Y-77438190D01*
X178856329Y-77298544D01*
X178856336Y-77298538D01*
X179018538Y-77136336D01*
X179018544Y-77136329D01*
X179158190Y-76954338D01*
X179272893Y-76755668D01*
X179272897Y-76755659D01*
X179360681Y-76543730D01*
X179420057Y-76322137D01*
X179432188Y-76230000D01*
X177408241Y-76230000D01*
X177421178Y-76198767D01*
X177450000Y-76053869D01*
X177450000Y-75906131D01*
X177421178Y-75761233D01*
X177408241Y-75730000D01*
X179432188Y-75730000D01*
X179432188Y-75729999D01*
X179420057Y-75637862D01*
X179360681Y-75416269D01*
X179272897Y-75204340D01*
X179272893Y-75204331D01*
X179158190Y-75005661D01*
X179018544Y-74823670D01*
X179018538Y-74823663D01*
X178856336Y-74661461D01*
X178856329Y-74661455D01*
X178674338Y-74521809D01*
X178475668Y-74407106D01*
X178475659Y-74407102D01*
X178263730Y-74319318D01*
X178042137Y-74259942D01*
X177814710Y-74230001D01*
X177814694Y-74230000D01*
X176950000Y-74230000D01*
X176950000Y-75271759D01*
X176918767Y-75258822D01*
X176773869Y-75230000D01*
X176626131Y-75230000D01*
X176481233Y-75258822D01*
X176450000Y-75271759D01*
X176450000Y-74230000D01*
X175585306Y-74230000D01*
X175585289Y-74230001D01*
X175357862Y-74259942D01*
X175136269Y-74319318D01*
X174924340Y-74407102D01*
X174924331Y-74407106D01*
X174725661Y-74521809D01*
X174543670Y-74661455D01*
X174543663Y-74661461D01*
X174381461Y-74823663D01*
X174381455Y-74823670D01*
X174241809Y-75005661D01*
X174127106Y-75204331D01*
X174127102Y-75204340D01*
X174039318Y-75416269D01*
X173979942Y-75637862D01*
X173967811Y-75729999D01*
X173600500Y-75729999D01*
X173600500Y-71459082D01*
X173570918Y-71429500D01*
X146020918Y-71429500D01*
X145979082Y-71429500D01*
X145979081Y-71429500D01*
X145949500Y-71459081D01*
X145949500Y-71459082D01*
X145949500Y-91520918D01*
X142815662Y-91520918D01*
X142724962Y-70438461D01*
X181149500Y-70438461D01*
X181188910Y-70687285D01*
X181266760Y-70926883D01*
X181381132Y-71151348D01*
X181529201Y-71355149D01*
X181529205Y-71355154D01*
X181707345Y-71533294D01*
X181707350Y-71533298D01*
X181885117Y-71662452D01*
X181911155Y-71681370D01*
X182054184Y-71754247D01*
X182135616Y-71795739D01*
X182135618Y-71795739D01*
X182135621Y-71795741D01*
X182375215Y-71873590D01*
X182624038Y-71913000D01*
X182624039Y-71913000D01*
X185075961Y-71913000D01*
X185075962Y-71913000D01*
X185324785Y-71873590D01*
X185564379Y-71795741D01*
X185788845Y-71681370D01*
X185992656Y-71533293D01*
X186170793Y-71355156D01*
X186318870Y-71151345D01*
X186433241Y-70926879D01*
X186511090Y-70687285D01*
X186550500Y-70438462D01*
X186550500Y-70186538D01*
X186511090Y-69937715D01*
X186433241Y-69698121D01*
X186433239Y-69698118D01*
X186433239Y-69698116D01*
X186364240Y-69562699D01*
X186318870Y-69473655D01*
X186185446Y-69290012D01*
X186170798Y-69269850D01*
X186170794Y-69269845D01*
X185992654Y-69091705D01*
X185992649Y-69091701D01*
X185788848Y-68943632D01*
X185788847Y-68943631D01*
X185788845Y-68943630D01*
X185718747Y-68907913D01*
X185564383Y-68829260D01*
X185324785Y-68751410D01*
X185075962Y-68712000D01*
X182624038Y-68712000D01*
X182499626Y-68731705D01*
X182375214Y-68751410D01*
X182135616Y-68829260D01*
X181911151Y-68943632D01*
X181707350Y-69091701D01*
X181707345Y-69091705D01*
X181529205Y-69269845D01*
X181529201Y-69269850D01*
X181381132Y-69473651D01*
X181266760Y-69698116D01*
X181188910Y-69937714D01*
X181149500Y-70186538D01*
X181149500Y-70438461D01*
X142724962Y-70438461D01*
X142714574Y-68023980D01*
X142733969Y-67956861D01*
X142786576Y-67910879D01*
X142855691Y-67900638D01*
X142919371Y-67929390D01*
X142949057Y-67967157D01*
X143004251Y-68075482D01*
X143004252Y-68075485D01*
X143215475Y-68400737D01*
X143424039Y-68658294D01*
X143424040Y-68658294D01*
X144303948Y-67778386D01*
X144265888Y-67870272D01*
X144265888Y-67969728D01*
X144303948Y-68061614D01*
X144374274Y-68131940D01*
X144466160Y-68170000D01*
X144565616Y-68170000D01*
X144657498Y-68131941D01*
X143777592Y-69011847D01*
X143777593Y-69011848D01*
X144035150Y-69220412D01*
X144360400Y-69431633D01*
X144705949Y-69607699D01*
X145068007Y-69746681D01*
X145442613Y-69847056D01*
X145442620Y-69847057D01*
X145825656Y-69907724D01*
X146212943Y-69928022D01*
X146212945Y-69928022D01*
X146600231Y-69907724D01*
X146983267Y-69847057D01*
X146983274Y-69847056D01*
X147357880Y-69746681D01*
X147719938Y-69607699D01*
X148065487Y-69431633D01*
X148390727Y-69220420D01*
X148390729Y-69220419D01*
X148648293Y-69011846D01*
X147768387Y-68131940D01*
X147860272Y-68170000D01*
X147959728Y-68170000D01*
X148051614Y-68131940D01*
X148121940Y-68061614D01*
X148160000Y-67969728D01*
X148160000Y-67870272D01*
X148121940Y-67778387D01*
X149001846Y-68658293D01*
X149186232Y-68430597D01*
X177649500Y-68430597D01*
X177686446Y-68663868D01*
X177759433Y-68888496D01*
X177799356Y-68966848D01*
X177866657Y-69098933D01*
X178005483Y-69290010D01*
X178172490Y-69457017D01*
X178363567Y-69595843D01*
X178386836Y-69607699D01*
X178574003Y-69703066D01*
X178574005Y-69703066D01*
X178574008Y-69703068D01*
X178694412Y-69742189D01*
X178798631Y-69776053D01*
X179031903Y-69813000D01*
X179031908Y-69813000D01*
X179268097Y-69813000D01*
X179501368Y-69776053D01*
X179591765Y-69746681D01*
X179725992Y-69703068D01*
X179936433Y-69595843D01*
X180127510Y-69457017D01*
X180294517Y-69290010D01*
X180433343Y-69098933D01*
X180540568Y-68888492D01*
X180613553Y-68663868D01*
X180636992Y-68515880D01*
X180650500Y-68430597D01*
X180650500Y-66194402D01*
X180613553Y-65961131D01*
X180568910Y-65823735D01*
X180540568Y-65736508D01*
X180540566Y-65736505D01*
X180540566Y-65736503D01*
X180433342Y-65526066D01*
X180294517Y-65334990D01*
X180127510Y-65167983D01*
X179936433Y-65029157D01*
X179725996Y-64921933D01*
X179501368Y-64848946D01*
X179268097Y-64812000D01*
X179268092Y-64812000D01*
X179031908Y-64812000D01*
X179031903Y-64812000D01*
X178798631Y-64848946D01*
X178574003Y-64921933D01*
X178363566Y-65029157D01*
X178296331Y-65078007D01*
X178172490Y-65167983D01*
X178172488Y-65167985D01*
X178172487Y-65167985D01*
X178005485Y-65334987D01*
X178005485Y-65334988D01*
X178005483Y-65334990D01*
X177969613Y-65384361D01*
X177866657Y-65526066D01*
X177759433Y-65736503D01*
X177686446Y-65961131D01*
X177649500Y-66194402D01*
X177649500Y-68430597D01*
X149186232Y-68430597D01*
X149210419Y-68400729D01*
X149210420Y-68400727D01*
X149421633Y-68075487D01*
X149597699Y-67729938D01*
X149736681Y-67367880D01*
X149821856Y-67050002D01*
X169457685Y-67050002D01*
X169477509Y-67276599D01*
X169477511Y-67276610D01*
X169536381Y-67496317D01*
X169536386Y-67496331D01*
X169632514Y-67702478D01*
X169683625Y-67775472D01*
X170362651Y-67096446D01*
X170362651Y-67102661D01*
X170389910Y-67204394D01*
X170442571Y-67295606D01*
X170517045Y-67370080D01*
X170608257Y-67422741D01*
X170709990Y-67450000D01*
X170716204Y-67450000D01*
X170037177Y-68129025D01*
X170110164Y-68180132D01*
X170110172Y-68180136D01*
X170316319Y-68276264D01*
X170316333Y-68276269D01*
X170536040Y-68335139D01*
X170536051Y-68335141D01*
X170762649Y-68354966D01*
X170762653Y-68354966D01*
X170989250Y-68335141D01*
X170989261Y-68335139D01*
X171208968Y-68276269D01*
X171208982Y-68276264D01*
X171415129Y-68180136D01*
X171488122Y-68129024D01*
X171256968Y-67897870D01*
X174462151Y-67897870D01*
X174462152Y-67897876D01*
X174468559Y-67957483D01*
X174518853Y-68092328D01*
X174518857Y-68092335D01*
X174605103Y-68207544D01*
X174605106Y-68207547D01*
X174720315Y-68293793D01*
X174720322Y-68293797D01*
X174855168Y-68344091D01*
X174855167Y-68344091D01*
X174862095Y-68344835D01*
X174914778Y-68350500D01*
X176610523Y-68350499D01*
X176670134Y-68344091D01*
X176804982Y-68293796D01*
X176920197Y-68207546D01*
X177006447Y-68092331D01*
X177056742Y-67957483D01*
X177063151Y-67897873D01*
X177063150Y-66202128D01*
X177056742Y-66142517D01*
X177022989Y-66052021D01*
X177006448Y-66007671D01*
X177006444Y-66007664D01*
X176920198Y-65892455D01*
X176920195Y-65892452D01*
X176804986Y-65806206D01*
X176804979Y-65806202D01*
X176670133Y-65755908D01*
X176670134Y-65755908D01*
X176610534Y-65749501D01*
X176610532Y-65749500D01*
X176610524Y-65749500D01*
X176610515Y-65749500D01*
X174914780Y-65749500D01*
X174914774Y-65749501D01*
X174855167Y-65755908D01*
X174720322Y-65806202D01*
X174720315Y-65806206D01*
X174605106Y-65892452D01*
X174605103Y-65892455D01*
X174518857Y-66007664D01*
X174518853Y-66007671D01*
X174468559Y-66142517D01*
X174462981Y-66194408D01*
X174462152Y-66202123D01*
X174462151Y-66202135D01*
X174462151Y-67897870D01*
X171256968Y-67897870D01*
X170809098Y-67450000D01*
X170815312Y-67450000D01*
X170917045Y-67422741D01*
X171008257Y-67370080D01*
X171082731Y-67295606D01*
X171135392Y-67204394D01*
X171162651Y-67102661D01*
X171162651Y-67096447D01*
X171841675Y-67775471D01*
X171892787Y-67702478D01*
X171988915Y-67496331D01*
X171988920Y-67496317D01*
X172047790Y-67276610D01*
X172047792Y-67276599D01*
X172067617Y-67050002D01*
X172067617Y-67049997D01*
X172047792Y-66823400D01*
X172047790Y-66823389D01*
X171988920Y-66603682D01*
X171988915Y-66603668D01*
X171892787Y-66397521D01*
X171892783Y-66397513D01*
X171841676Y-66324526D01*
X171162651Y-67003551D01*
X171162651Y-66997339D01*
X171135392Y-66895606D01*
X171082731Y-66804394D01*
X171008257Y-66729920D01*
X170917045Y-66677259D01*
X170815312Y-66650000D01*
X170809099Y-66650000D01*
X171488123Y-65970974D01*
X171415129Y-65919863D01*
X171208982Y-65823735D01*
X171208968Y-65823730D01*
X170989261Y-65764860D01*
X170989250Y-65764858D01*
X170762653Y-65745034D01*
X170762649Y-65745034D01*
X170536051Y-65764858D01*
X170536040Y-65764860D01*
X170316333Y-65823730D01*
X170316324Y-65823734D01*
X170110167Y-65919866D01*
X170110163Y-65919868D01*
X170037177Y-65970973D01*
X170037177Y-65970974D01*
X170716204Y-66650000D01*
X170709990Y-66650000D01*
X170608257Y-66677259D01*
X170517045Y-66729920D01*
X170442571Y-66804394D01*
X170389910Y-66895606D01*
X170362651Y-66997339D01*
X170362651Y-67003552D01*
X169683625Y-66324526D01*
X169683624Y-66324526D01*
X169632519Y-66397512D01*
X169632517Y-66397516D01*
X169536385Y-66603673D01*
X169536381Y-66603682D01*
X169477511Y-66823389D01*
X169477509Y-66823400D01*
X169457685Y-67049997D01*
X169457685Y-67050002D01*
X149821856Y-67050002D01*
X149837056Y-66993274D01*
X149837057Y-66993267D01*
X149897724Y-66610231D01*
X149918022Y-66222944D01*
X149918022Y-66222943D01*
X149897724Y-65835656D01*
X149837057Y-65452620D01*
X149837056Y-65452613D01*
X149736681Y-65078007D01*
X149597699Y-64715949D01*
X149421633Y-64370400D01*
X149210412Y-64045150D01*
X149001848Y-63787593D01*
X149001847Y-63787592D01*
X148121941Y-64667497D01*
X148160000Y-64575616D01*
X148160000Y-64476160D01*
X148121940Y-64384274D01*
X148051614Y-64313948D01*
X147959728Y-64275888D01*
X147860272Y-64275888D01*
X147768387Y-64313947D01*
X148648294Y-63434040D01*
X148648294Y-63434039D01*
X148390737Y-63225475D01*
X148092653Y-63031896D01*
X148047150Y-62978875D01*
X148037536Y-62909670D01*
X148066863Y-62846253D01*
X148125820Y-62808759D01*
X148160198Y-62803901D01*
X181988339Y-62807168D01*
G37*
%TD.AperFunction*%
%TA.AperFunction,Conductor*%
G36*
X206431846Y-102608293D02*
G01*
X206640419Y-102350729D01*
X206640419Y-102350727D01*
X206820487Y-102073448D01*
X206873508Y-102027945D01*
X206942713Y-102018331D01*
X207006130Y-102047658D01*
X207043624Y-102106615D01*
X207048481Y-102140450D01*
X207054329Y-103499967D01*
X207034933Y-103567090D01*
X206982326Y-103613072D01*
X206930330Y-103624500D01*
X205535333Y-103624500D01*
X205468294Y-103604815D01*
X205422539Y-103552011D01*
X205412595Y-103482853D01*
X205441620Y-103419297D01*
X205479039Y-103390015D01*
X205495482Y-103381636D01*
X205495485Y-103381635D01*
X205820727Y-103170420D01*
X205820729Y-103170419D01*
X206078293Y-102961846D01*
X205198387Y-102081940D01*
X205290272Y-102120000D01*
X205389728Y-102120000D01*
X205481614Y-102081940D01*
X205551940Y-102011614D01*
X205590000Y-101919728D01*
X205590000Y-101820272D01*
X205551940Y-101728387D01*
X206431846Y-102608293D01*
G37*
%TD.AperFunction*%
%TA.AperFunction,Conductor*%
G36*
X148111612Y-101708059D02*
G01*
X148019728Y-101670000D01*
X147920272Y-101670000D01*
X147828386Y-101708060D01*
X147758060Y-101778386D01*
X147720000Y-101870272D01*
X147720000Y-101969728D01*
X147758059Y-102061612D01*
X147213642Y-101517195D01*
X147315274Y-101443356D01*
X147493356Y-101265274D01*
X147567195Y-101163642D01*
X148111612Y-101708059D01*
G37*
%TD.AperFunction*%
%TA.AperFunction,Conductor*%
G36*
X145052532Y-101265274D02*
G01*
X145230614Y-101443356D01*
X145332244Y-101517195D01*
X144787829Y-102061610D01*
X144825888Y-101969728D01*
X144825888Y-101870272D01*
X144787828Y-101778386D01*
X144717502Y-101708060D01*
X144625616Y-101670000D01*
X144526160Y-101670000D01*
X144434274Y-101708060D01*
X144978692Y-101163642D01*
X145052532Y-101265274D01*
G37*
%TD.AperFunction*%
%TA.AperFunction,Conductor*%
G36*
X205481612Y-101658059D02*
G01*
X205389728Y-101620000D01*
X205290272Y-101620000D01*
X205198386Y-101658060D01*
X205128060Y-101728386D01*
X205090000Y-101820272D01*
X205090000Y-101919728D01*
X205128059Y-102011612D01*
X204583642Y-101467195D01*
X204685274Y-101393356D01*
X204863356Y-101215274D01*
X204937195Y-101113642D01*
X205481612Y-101658059D01*
G37*
%TD.AperFunction*%
%TA.AperFunction,Conductor*%
G36*
X202422532Y-101215274D02*
G01*
X202600614Y-101393356D01*
X202702244Y-101467195D01*
X202157829Y-102011610D01*
X202195888Y-101919728D01*
X202195888Y-101820272D01*
X202157828Y-101728386D01*
X202087502Y-101658060D01*
X201995616Y-101620000D01*
X201896160Y-101620000D01*
X201804274Y-101658060D01*
X202348692Y-101113642D01*
X202422532Y-101215274D01*
G37*
%TD.AperFunction*%
%TA.AperFunction,Conductor*%
G36*
X145332245Y-98928692D02*
G01*
X145230614Y-99002532D01*
X145052532Y-99180614D01*
X144978692Y-99282244D01*
X144434277Y-98737829D01*
X144526160Y-98775888D01*
X144625616Y-98775888D01*
X144717502Y-98737828D01*
X144787828Y-98667502D01*
X144825888Y-98575616D01*
X144825888Y-98476160D01*
X144787829Y-98384276D01*
X145332245Y-98928692D01*
G37*
%TD.AperFunction*%
%TA.AperFunction,Conductor*%
G36*
X147720000Y-98476160D02*
G01*
X147720000Y-98575616D01*
X147758060Y-98667502D01*
X147828386Y-98737828D01*
X147920272Y-98775888D01*
X148019728Y-98775888D01*
X148111609Y-98737829D01*
X147567195Y-99282244D01*
X147493356Y-99180614D01*
X147315274Y-99002532D01*
X147213642Y-98928692D01*
X147758059Y-98384275D01*
X147720000Y-98476160D01*
G37*
%TD.AperFunction*%
%TA.AperFunction,Conductor*%
G36*
X202702245Y-98878692D02*
G01*
X202600614Y-98952532D01*
X202422532Y-99130614D01*
X202348692Y-99232244D01*
X201804277Y-98687829D01*
X201896160Y-98725888D01*
X201995616Y-98725888D01*
X202087502Y-98687828D01*
X202157828Y-98617502D01*
X202195888Y-98525616D01*
X202195888Y-98426160D01*
X202157829Y-98334276D01*
X202702245Y-98878692D01*
G37*
%TD.AperFunction*%
%TA.AperFunction,Conductor*%
G36*
X205090000Y-98426160D02*
G01*
X205090000Y-98525616D01*
X205128060Y-98617502D01*
X205198386Y-98687828D01*
X205290272Y-98725888D01*
X205389728Y-98725888D01*
X205481609Y-98687829D01*
X204937195Y-99232244D01*
X204863356Y-99130614D01*
X204685274Y-98952532D01*
X204583642Y-98878692D01*
X205128059Y-98334275D01*
X205090000Y-98426160D01*
G37*
%TD.AperFunction*%
%TA.AperFunction,Conductor*%
G36*
X148051612Y-67708059D02*
G01*
X147959728Y-67670000D01*
X147860272Y-67670000D01*
X147768386Y-67708060D01*
X147698060Y-67778386D01*
X147660000Y-67870272D01*
X147660000Y-67969728D01*
X147698059Y-68061612D01*
X147153642Y-67517195D01*
X147255274Y-67443356D01*
X147433356Y-67265274D01*
X147507195Y-67163642D01*
X148051612Y-67708059D01*
G37*
%TD.AperFunction*%
%TA.AperFunction,Conductor*%
G36*
X144992532Y-67265274D02*
G01*
X145170614Y-67443356D01*
X145272244Y-67517195D01*
X144727829Y-68061610D01*
X144765888Y-67969728D01*
X144765888Y-67870272D01*
X144727828Y-67778386D01*
X144657502Y-67708060D01*
X144565616Y-67670000D01*
X144466160Y-67670000D01*
X144374274Y-67708060D01*
X144918692Y-67163642D01*
X144992532Y-67265274D01*
G37*
%TD.AperFunction*%
%TA.AperFunction,Conductor*%
G36*
X205591612Y-67663059D02*
G01*
X205499728Y-67625000D01*
X205400272Y-67625000D01*
X205308386Y-67663060D01*
X205238060Y-67733386D01*
X205200000Y-67825272D01*
X205200000Y-67924728D01*
X205238059Y-68016612D01*
X204693642Y-67472195D01*
X204795274Y-67398356D01*
X204973356Y-67220274D01*
X205047195Y-67118642D01*
X205591612Y-67663059D01*
G37*
%TD.AperFunction*%
%TA.AperFunction,Conductor*%
G36*
X202532532Y-67220274D02*
G01*
X202710614Y-67398356D01*
X202812244Y-67472195D01*
X202267829Y-68016610D01*
X202305888Y-67924728D01*
X202305888Y-67825272D01*
X202267828Y-67733386D01*
X202197502Y-67663060D01*
X202105616Y-67625000D01*
X202006160Y-67625000D01*
X201914274Y-67663060D01*
X202458692Y-67118642D01*
X202532532Y-67220274D01*
G37*
%TD.AperFunction*%
%TA.AperFunction,Conductor*%
G36*
X145272245Y-64928692D02*
G01*
X145170614Y-65002532D01*
X144992532Y-65180614D01*
X144918692Y-65282244D01*
X144374277Y-64737829D01*
X144466160Y-64775888D01*
X144565616Y-64775888D01*
X144657502Y-64737828D01*
X144727828Y-64667502D01*
X144765888Y-64575616D01*
X144765888Y-64476160D01*
X144727829Y-64384276D01*
X145272245Y-64928692D01*
G37*
%TD.AperFunction*%
%TA.AperFunction,Conductor*%
G36*
X147660000Y-64476160D02*
G01*
X147660000Y-64575616D01*
X147698060Y-64667502D01*
X147768386Y-64737828D01*
X147860272Y-64775888D01*
X147959728Y-64775888D01*
X148051609Y-64737829D01*
X147507195Y-65282244D01*
X147433356Y-65180614D01*
X147255274Y-65002532D01*
X147153642Y-64928692D01*
X147698059Y-64384275D01*
X147660000Y-64476160D01*
G37*
%TD.AperFunction*%
%TA.AperFunction,Conductor*%
G36*
X202812245Y-64883692D02*
G01*
X202710614Y-64957532D01*
X202532532Y-65135614D01*
X202458692Y-65237244D01*
X201914277Y-64692829D01*
X202006160Y-64730888D01*
X202105616Y-64730888D01*
X202197502Y-64692828D01*
X202267828Y-64622502D01*
X202305888Y-64530616D01*
X202305888Y-64431160D01*
X202267829Y-64339276D01*
X202812245Y-64883692D01*
G37*
%TD.AperFunction*%
%TA.AperFunction,Conductor*%
G36*
X205200000Y-64431160D02*
G01*
X205200000Y-64530616D01*
X205238060Y-64622502D01*
X205308386Y-64692828D01*
X205400272Y-64730888D01*
X205499728Y-64730888D01*
X205591609Y-64692829D01*
X205047195Y-65237244D01*
X204973356Y-65135614D01*
X204795274Y-64957532D01*
X204693642Y-64883692D01*
X205238059Y-64339275D01*
X205200000Y-64431160D01*
G37*
%TD.AperFunction*%
%TA.AperFunction,Conductor*%
G36*
X144266294Y-62803525D02*
G01*
X144333329Y-62823215D01*
X144379078Y-62876023D01*
X144389015Y-62945183D01*
X144359984Y-63008736D01*
X144333815Y-63031519D01*
X144035146Y-63225478D01*
X143777592Y-63434039D01*
X143777592Y-63434040D01*
X144657499Y-64313946D01*
X144565616Y-64275888D01*
X144466160Y-64275888D01*
X144374274Y-64313948D01*
X144303948Y-64384274D01*
X144265888Y-64476160D01*
X144265888Y-64575616D01*
X144303946Y-64667498D01*
X143424040Y-63787592D01*
X143424039Y-63787592D01*
X143215475Y-64045150D01*
X143004254Y-64370400D01*
X142934985Y-64506349D01*
X142887010Y-64557145D01*
X142819189Y-64573940D01*
X142753055Y-64551403D01*
X142709603Y-64496688D01*
X142700500Y-64450054D01*
X142700500Y-62927385D01*
X142720185Y-62860346D01*
X142772989Y-62814591D01*
X142824508Y-62803385D01*
X144266294Y-62803525D01*
G37*
%TD.AperFunction*%
%TA.AperFunction,Conductor*%
G36*
X206755857Y-62809561D02*
G01*
X206822895Y-62829252D01*
X206868644Y-62882060D01*
X206879844Y-62933028D01*
X206883633Y-63813967D01*
X206864237Y-63881090D01*
X206811630Y-63927072D01*
X206742515Y-63937313D01*
X206678835Y-63908561D01*
X206663268Y-63892535D01*
X206541848Y-63742593D01*
X206541847Y-63742592D01*
X205661941Y-64622497D01*
X205700000Y-64530616D01*
X205700000Y-64431160D01*
X205661940Y-64339274D01*
X205591614Y-64268948D01*
X205499728Y-64230888D01*
X205400272Y-64230888D01*
X205308387Y-64268947D01*
X206188294Y-63389040D01*
X206188294Y-63389039D01*
X205930737Y-63180475D01*
X205710516Y-63037461D01*
X205665013Y-62984440D01*
X205655399Y-62915235D01*
X205684726Y-62851818D01*
X205743683Y-62814324D01*
X205778058Y-62809466D01*
X206755857Y-62809561D01*
G37*
%TD.AperFunction*%
%TD*%
M02*
