M48
; DRILL file {KiCad 8.0.0-unknown-202403021604~8dce6c0b67~ubuntu22.04.1} date 2024-03-03T10:33:34+0530
; FORMAT={-:-/ absolute / inch / decimal}
; #@! TF.CreationDate,2024-03-03T10:33:34+05:30
; #@! TF.GenerationSoftware,Kicad,Pcbnew,8.0.0-unknown-202403021604~8dce6c0b67~ubuntu22.04.1
; #@! TF.FileFunction,Plated,1,2,PTH
FMAT,2
INCH
; #@! TA.AperFunction,Plated,PTH,ViaDrill
T1C0.0157
; #@! TA.AperFunction,Plated,PTH,ComponentDrill
T2C0.0197
; #@! TA.AperFunction,Plated,PTH,ComponentDrill
T3C0.0315
; #@! TA.AperFunction,Plated,PTH,ComponentDrill
T4C0.0394
; #@! TA.AperFunction,Plated,PTH,ComponentDrill
T5C0.0433
; #@! TA.AperFunction,Plated,PTH,ComponentDrill
T6C0.0591
; #@! TA.AperFunction,Plated,PTH,ComponentDrill
T7C0.1260
%
G90
G05
T1
X5.6756Y-2.826
X5.6756Y-2.926
X5.6756Y-3.026
X5.6756Y-3.126
X5.6756Y-3.226
X5.6756Y-3.326
X5.6756Y-3.426
X5.6756Y-3.526
X5.7178Y-3.6304
X5.7178Y-3.7304
X5.9122Y-3.698
X5.9543Y-3.6976
X6.002Y-2.5575
X6.002Y-2.6575
X6.0925Y-3.7787
X6.0925Y-3.8787
X6.102Y-2.5575
X6.102Y-2.6575
X6.1925Y-3.7787
X6.1925Y-3.8787
X6.202Y-2.5575
X6.202Y-2.6575
X6.2925Y-3.7787
X6.2925Y-3.8787
X6.302Y-2.5575
X6.302Y-2.6575
X6.402Y-2.5575
X6.402Y-2.6575
X6.502Y-2.5575
X6.502Y-2.6575
X6.9178Y-3.9304
X6.9178Y-4.0304
X7.0178Y-3.9304
X7.0178Y-4.0304
X7.1178Y-3.8304
X7.1178Y-3.9304
X7.1178Y-4.0304
X7.2178Y-2.6304
X7.2178Y-3.8304
X7.2178Y-4.0304
X7.3178Y-3.8304
X7.3178Y-4.0304
X7.4126Y-3.3224
X7.4138Y-3.3543
X7.4178Y-3.8304
X7.4178Y-4.0304
X7.4573Y-2.651
X7.5178Y-3.7304
X7.5178Y-3.8304
X7.5178Y-4.0304
X7.5573Y-2.551
X7.5573Y-2.651
X7.6178Y-3.7304
X7.6178Y-3.8304
X7.6178Y-4.0304
X7.6573Y-2.551
X7.6573Y-2.651
X7.6573Y-2.751
X7.7178Y-4.0304
X7.7573Y-2.551
X7.7573Y-2.651
X7.7573Y-2.751
X7.8178Y-2.8304
X7.8178Y-3.9304
X7.8178Y-4.0304
X7.8573Y-2.551
X7.8573Y-2.651
X7.8573Y-2.751
X7.9178Y-2.8304
X7.9178Y-2.9304
X7.9178Y-3.0304
X7.9178Y-3.1304
X8.0178Y-2.8304
X8.0178Y-2.9304
X8.0178Y-3.0304
X8.0178Y-3.1304
T2
X5.6619Y-2.6072
X5.6643Y-3.9458
X5.6896Y-2.5404
X5.6896Y-2.674
X5.692Y-3.879
X5.692Y-4.0126
X5.7564Y-2.5127
X5.7564Y-2.7017
X5.7588Y-3.8513
X5.7588Y-4.0403
X5.8232Y-2.5404
X5.8232Y-2.674
X5.8256Y-3.879
X5.8256Y-4.0126
X5.8509Y-2.6072
X5.8533Y-3.9458
X7.923Y-3.9438
X7.9273Y-2.6054
X7.9506Y-3.877
X7.9506Y-4.0106
X7.955Y-2.5386
X7.955Y-2.6722
X8.0174Y-3.8493
X8.0174Y-4.0383
X8.0218Y-2.5109
X8.0218Y-2.6999
X8.0843Y-3.877
X8.0843Y-4.0106
X8.0886Y-2.5386
X8.0886Y-2.6722
X8.1119Y-3.9438
X8.1163Y-2.6054
T3
X6.7229Y-2.6398
X6.9198Y-2.6398
T4
X7.6157Y-3.4772
X7.8157Y-3.4772
T5
X6.1507Y-4.002
X6.2507Y-4.002
T6
X6.9567Y-2.9913
X6.9567Y-3.2059
X6.9567Y-3.4205
T7
X5.7564Y-2.6072
X5.7588Y-3.9458
X8.0174Y-3.9438
X8.0218Y-2.6054
T4
G00X7.0531Y-2.6107
M15
G01X7.0531Y-2.6895
M16
G05
G00X7.2776Y-2.532
M15
G01X7.1988Y-2.532
M16
G05
G00X7.2874Y-2.7682
M15
G01X7.189Y-2.7682
M16
G05
M30
