%TF.GenerationSoftware,KiCad,Pcbnew,8.0.0-unknown-202403021604~8dce6c0b67~ubuntu22.04.1*%
%TF.CreationDate,2024-03-03T10:33:34+05:30*%
%TF.ProjectId,HF-PA-v10,48462d50-412d-4763-9130-2e6b69636164,rev?*%
%TF.SameCoordinates,Original*%
%TF.FileFunction,Legend,Top*%
%TF.FilePolarity,Positive*%
%FSLAX46Y46*%
G04 Gerber Fmt 4.6, Leading zero omitted, Abs format (unit mm)*
G04 Created by KiCad (PCBNEW 8.0.0-unknown-202403021604~8dce6c0b67~ubuntu22.04.1) date 2024-03-03 10:33:34*
%MOMM*%
%LPD*%
G01*
G04 APERTURE LIST*
G04 Aperture macros list*
%AMRoundRect*
0 Rectangle with rounded corners*
0 $1 Rounding radius*
0 $2 $3 $4 $5 $6 $7 $8 $9 X,Y pos of 4 corners*
0 Add a 4 corners polygon primitive as box body*
4,1,4,$2,$3,$4,$5,$6,$7,$8,$9,$2,$3,0*
0 Add four circle primitives for the rounded corners*
1,1,$1+$1,$2,$3*
1,1,$1+$1,$4,$5*
1,1,$1+$1,$6,$7*
1,1,$1+$1,$8,$9*
0 Add four rect primitives between the rounded corners*
20,1,$1+$1,$2,$3,$4,$5,0*
20,1,$1+$1,$4,$5,$6,$7,0*
20,1,$1+$1,$6,$7,$8,$9,0*
20,1,$1+$1,$8,$9,$2,$3,0*%
G04 Aperture macros list end*
%ADD10C,0.300000*%
%ADD11C,0.150000*%
%ADD12C,0.120000*%
%ADD13C,0.127000*%
%ADD14C,0.200000*%
%ADD15RoundRect,0.250000X0.412500X0.650000X-0.412500X0.650000X-0.412500X-0.650000X0.412500X-0.650000X0*%
%ADD16C,2.000000*%
%ADD17C,0.800000*%
%ADD18C,6.400000*%
%ADD19RoundRect,0.250000X-0.650000X0.412500X-0.650000X-0.412500X0.650000X-0.412500X0.650000X0.412500X0*%
%ADD20R,3.600000X1.270000*%
%ADD21R,4.200000X1.350000*%
%ADD22O,4.400000X2.200000*%
%ADD23O,4.000000X2.000000*%
%ADD24O,2.000000X4.000000*%
%ADD25R,1.600000X1.600000*%
%ADD26C,1.600000*%
%ADD27RoundRect,0.250000X0.650000X-0.412500X0.650000X0.412500X-0.650000X0.412500X-0.650000X-0.412500X0*%
%ADD28RoundRect,0.250000X-0.850000X-0.350000X0.850000X-0.350000X0.850000X0.350000X-0.850000X0.350000X0*%
%ADD29RoundRect,0.249997X-3.260003X-2.650003X3.260003X-2.650003X3.260003X2.650003X-3.260003X2.650003X0*%
%ADD30RoundRect,0.250000X-0.412500X-0.650000X0.412500X-0.650000X0.412500X0.650000X-0.412500X0.650000X0*%
%ADD31R,1.270000X3.600000*%
%ADD32R,1.350000X4.200000*%
%ADD33O,3.600000X3.600000*%
%ADD34R,4.500000X2.500000*%
%ADD35O,4.500000X2.500000*%
%ADD36R,2.200000X2.200000*%
%ADD37O,2.200000X2.200000*%
%ADD38RoundRect,0.162500X-0.617500X-0.162500X0.617500X-0.162500X0.617500X0.162500X-0.617500X0.162500X0*%
%ADD39RoundRect,0.250000X-0.625000X0.400000X-0.625000X-0.400000X0.625000X-0.400000X0.625000X0.400000X0*%
%ADD40R,2.050000X2.200000*%
G04 APERTURE END LIST*
D10*
X187854510Y-70079400D02*
X188997368Y-70079400D01*
X188425939Y-70650828D02*
X188425939Y-69507971D01*
D11*
X158552493Y-71160771D02*
X158504874Y-71113152D01*
X158504874Y-71113152D02*
X158409636Y-70970295D01*
X158409636Y-70970295D02*
X158362017Y-70875057D01*
X158362017Y-70875057D02*
X158314398Y-70732200D01*
X158314398Y-70732200D02*
X158266779Y-70494104D01*
X158266779Y-70494104D02*
X158266779Y-70303628D01*
X158266779Y-70303628D02*
X158314398Y-70065533D01*
X158314398Y-70065533D02*
X158362017Y-69922676D01*
X158362017Y-69922676D02*
X158409636Y-69827438D01*
X158409636Y-69827438D02*
X158504874Y-69684580D01*
X158504874Y-69684580D02*
X158552493Y-69636961D01*
X159123922Y-69779819D02*
X159314398Y-69779819D01*
X159314398Y-69779819D02*
X159409636Y-69827438D01*
X159409636Y-69827438D02*
X159504874Y-69922676D01*
X159504874Y-69922676D02*
X159552493Y-70113152D01*
X159552493Y-70113152D02*
X159552493Y-70446485D01*
X159552493Y-70446485D02*
X159504874Y-70636961D01*
X159504874Y-70636961D02*
X159409636Y-70732200D01*
X159409636Y-70732200D02*
X159314398Y-70779819D01*
X159314398Y-70779819D02*
X159123922Y-70779819D01*
X159123922Y-70779819D02*
X159028684Y-70732200D01*
X159028684Y-70732200D02*
X158933446Y-70636961D01*
X158933446Y-70636961D02*
X158885827Y-70446485D01*
X158885827Y-70446485D02*
X158885827Y-70113152D01*
X158885827Y-70113152D02*
X158933446Y-69922676D01*
X158933446Y-69922676D02*
X159028684Y-69827438D01*
X159028684Y-69827438D02*
X159123922Y-69779819D01*
X159981065Y-70779819D02*
X159981065Y-70113152D01*
X159981065Y-70303628D02*
X160028684Y-70208390D01*
X160028684Y-70208390D02*
X160076303Y-70160771D01*
X160076303Y-70160771D02*
X160171541Y-70113152D01*
X160171541Y-70113152D02*
X160266779Y-70113152D01*
X161362018Y-70779819D02*
X161362018Y-69779819D01*
X162409636Y-70779819D02*
X162076303Y-70303628D01*
X161838208Y-70779819D02*
X161838208Y-69779819D01*
X161838208Y-69779819D02*
X162219160Y-69779819D01*
X162219160Y-69779819D02*
X162314398Y-69827438D01*
X162314398Y-69827438D02*
X162362017Y-69875057D01*
X162362017Y-69875057D02*
X162409636Y-69970295D01*
X162409636Y-69970295D02*
X162409636Y-70113152D01*
X162409636Y-70113152D02*
X162362017Y-70208390D01*
X162362017Y-70208390D02*
X162314398Y-70256009D01*
X162314398Y-70256009D02*
X162219160Y-70303628D01*
X162219160Y-70303628D02*
X161838208Y-70303628D01*
X163171541Y-70256009D02*
X162838208Y-70256009D01*
X162838208Y-70779819D02*
X162838208Y-69779819D01*
X162838208Y-69779819D02*
X163314398Y-69779819D01*
X164171541Y-69779819D02*
X163695351Y-69779819D01*
X163695351Y-69779819D02*
X163647732Y-70256009D01*
X163647732Y-70256009D02*
X163695351Y-70208390D01*
X163695351Y-70208390D02*
X163790589Y-70160771D01*
X163790589Y-70160771D02*
X164028684Y-70160771D01*
X164028684Y-70160771D02*
X164123922Y-70208390D01*
X164123922Y-70208390D02*
X164171541Y-70256009D01*
X164171541Y-70256009D02*
X164219160Y-70351247D01*
X164219160Y-70351247D02*
X164219160Y-70589342D01*
X164219160Y-70589342D02*
X164171541Y-70684580D01*
X164171541Y-70684580D02*
X164123922Y-70732200D01*
X164123922Y-70732200D02*
X164028684Y-70779819D01*
X164028684Y-70779819D02*
X163790589Y-70779819D01*
X163790589Y-70779819D02*
X163695351Y-70732200D01*
X163695351Y-70732200D02*
X163647732Y-70684580D01*
X165171541Y-70779819D02*
X164600113Y-70779819D01*
X164885827Y-70779819D02*
X164885827Y-69779819D01*
X164885827Y-69779819D02*
X164790589Y-69922676D01*
X164790589Y-69922676D02*
X164695351Y-70017914D01*
X164695351Y-70017914D02*
X164600113Y-70065533D01*
X165790589Y-69779819D02*
X165885827Y-69779819D01*
X165885827Y-69779819D02*
X165981065Y-69827438D01*
X165981065Y-69827438D02*
X166028684Y-69875057D01*
X166028684Y-69875057D02*
X166076303Y-69970295D01*
X166076303Y-69970295D02*
X166123922Y-70160771D01*
X166123922Y-70160771D02*
X166123922Y-70398866D01*
X166123922Y-70398866D02*
X166076303Y-70589342D01*
X166076303Y-70589342D02*
X166028684Y-70684580D01*
X166028684Y-70684580D02*
X165981065Y-70732200D01*
X165981065Y-70732200D02*
X165885827Y-70779819D01*
X165885827Y-70779819D02*
X165790589Y-70779819D01*
X165790589Y-70779819D02*
X165695351Y-70732200D01*
X165695351Y-70732200D02*
X165647732Y-70684580D01*
X165647732Y-70684580D02*
X165600113Y-70589342D01*
X165600113Y-70589342D02*
X165552494Y-70398866D01*
X165552494Y-70398866D02*
X165552494Y-70160771D01*
X165552494Y-70160771D02*
X165600113Y-69970295D01*
X165600113Y-69970295D02*
X165647732Y-69875057D01*
X165647732Y-69875057D02*
X165695351Y-69827438D01*
X165695351Y-69827438D02*
X165790589Y-69779819D01*
X166457256Y-71160771D02*
X166504875Y-71113152D01*
X166504875Y-71113152D02*
X166600113Y-70970295D01*
X166600113Y-70970295D02*
X166647732Y-70875057D01*
X166647732Y-70875057D02*
X166695351Y-70732200D01*
X166695351Y-70732200D02*
X166742970Y-70494104D01*
X166742970Y-70494104D02*
X166742970Y-70303628D01*
X166742970Y-70303628D02*
X166695351Y-70065533D01*
X166695351Y-70065533D02*
X166647732Y-69922676D01*
X166647732Y-69922676D02*
X166600113Y-69827438D01*
X166600113Y-69827438D02*
X166504875Y-69684580D01*
X166504875Y-69684580D02*
X166457256Y-69636961D01*
X184476779Y-101459819D02*
X184476779Y-100459819D01*
X184476779Y-100459819D02*
X184714874Y-100459819D01*
X184714874Y-100459819D02*
X184857731Y-100507438D01*
X184857731Y-100507438D02*
X184952969Y-100602676D01*
X184952969Y-100602676D02*
X185000588Y-100697914D01*
X185000588Y-100697914D02*
X185048207Y-100888390D01*
X185048207Y-100888390D02*
X185048207Y-101031247D01*
X185048207Y-101031247D02*
X185000588Y-101221723D01*
X185000588Y-101221723D02*
X184952969Y-101316961D01*
X184952969Y-101316961D02*
X184857731Y-101412200D01*
X184857731Y-101412200D02*
X184714874Y-101459819D01*
X184714874Y-101459819D02*
X184476779Y-101459819D01*
X185476779Y-101459819D02*
X185476779Y-100459819D01*
X185905350Y-101459819D02*
X185905350Y-100936009D01*
X185905350Y-100936009D02*
X185857731Y-100840771D01*
X185857731Y-100840771D02*
X185762493Y-100793152D01*
X185762493Y-100793152D02*
X185619636Y-100793152D01*
X185619636Y-100793152D02*
X185524398Y-100840771D01*
X185524398Y-100840771D02*
X185476779Y-100888390D01*
X186381541Y-101459819D02*
X186381541Y-100793152D01*
X186381541Y-100459819D02*
X186333922Y-100507438D01*
X186333922Y-100507438D02*
X186381541Y-100555057D01*
X186381541Y-100555057D02*
X186429160Y-100507438D01*
X186429160Y-100507438D02*
X186381541Y-100459819D01*
X186381541Y-100459819D02*
X186381541Y-100555057D01*
X186857731Y-101459819D02*
X186857731Y-100793152D01*
X186857731Y-100983628D02*
X186905350Y-100888390D01*
X186905350Y-100888390D02*
X186952969Y-100840771D01*
X186952969Y-100840771D02*
X187048207Y-100793152D01*
X187048207Y-100793152D02*
X187143445Y-100793152D01*
X187905350Y-100793152D02*
X187905350Y-101459819D01*
X187476779Y-100793152D02*
X187476779Y-101316961D01*
X187476779Y-101316961D02*
X187524398Y-101412200D01*
X187524398Y-101412200D02*
X187619636Y-101459819D01*
X187619636Y-101459819D02*
X187762493Y-101459819D01*
X187762493Y-101459819D02*
X187857731Y-101412200D01*
X187857731Y-101412200D02*
X187905350Y-101364580D01*
X189143446Y-101078866D02*
X189905351Y-101078866D01*
X189524398Y-101459819D02*
X189524398Y-100697914D01*
X191714874Y-101459819D02*
X191381541Y-100983628D01*
X191143446Y-101459819D02*
X191143446Y-100459819D01*
X191143446Y-100459819D02*
X191524398Y-100459819D01*
X191524398Y-100459819D02*
X191619636Y-100507438D01*
X191619636Y-100507438D02*
X191667255Y-100555057D01*
X191667255Y-100555057D02*
X191714874Y-100650295D01*
X191714874Y-100650295D02*
X191714874Y-100793152D01*
X191714874Y-100793152D02*
X191667255Y-100888390D01*
X191667255Y-100888390D02*
X191619636Y-100936009D01*
X191619636Y-100936009D02*
X191524398Y-100983628D01*
X191524398Y-100983628D02*
X191143446Y-100983628D01*
X192572017Y-101459819D02*
X192572017Y-100936009D01*
X192572017Y-100936009D02*
X192524398Y-100840771D01*
X192524398Y-100840771D02*
X192429160Y-100793152D01*
X192429160Y-100793152D02*
X192238684Y-100793152D01*
X192238684Y-100793152D02*
X192143446Y-100840771D01*
X192572017Y-101412200D02*
X192476779Y-101459819D01*
X192476779Y-101459819D02*
X192238684Y-101459819D01*
X192238684Y-101459819D02*
X192143446Y-101412200D01*
X192143446Y-101412200D02*
X192095827Y-101316961D01*
X192095827Y-101316961D02*
X192095827Y-101221723D01*
X192095827Y-101221723D02*
X192143446Y-101126485D01*
X192143446Y-101126485D02*
X192238684Y-101078866D01*
X192238684Y-101078866D02*
X192476779Y-101078866D01*
X192476779Y-101078866D02*
X192572017Y-101031247D01*
X192905351Y-100793152D02*
X193286303Y-100793152D01*
X193048208Y-101459819D02*
X193048208Y-100602676D01*
X193048208Y-100602676D02*
X193095827Y-100507438D01*
X193095827Y-100507438D02*
X193191065Y-100459819D01*
X193191065Y-100459819D02*
X193286303Y-100459819D01*
X194048208Y-101459819D02*
X194048208Y-100936009D01*
X194048208Y-100936009D02*
X194000589Y-100840771D01*
X194000589Y-100840771D02*
X193905351Y-100793152D01*
X193905351Y-100793152D02*
X193714875Y-100793152D01*
X193714875Y-100793152D02*
X193619637Y-100840771D01*
X194048208Y-101412200D02*
X193952970Y-101459819D01*
X193952970Y-101459819D02*
X193714875Y-101459819D01*
X193714875Y-101459819D02*
X193619637Y-101412200D01*
X193619637Y-101412200D02*
X193572018Y-101316961D01*
X193572018Y-101316961D02*
X193572018Y-101221723D01*
X193572018Y-101221723D02*
X193619637Y-101126485D01*
X193619637Y-101126485D02*
X193714875Y-101078866D01*
X193714875Y-101078866D02*
X193952970Y-101078866D01*
X193952970Y-101078866D02*
X194048208Y-101031247D01*
X194667256Y-101459819D02*
X194572018Y-101412200D01*
X194572018Y-101412200D02*
X194524399Y-101316961D01*
X194524399Y-101316961D02*
X194524399Y-100459819D01*
X194381542Y-100983628D02*
X194667256Y-100793152D01*
X181589160Y-99862200D02*
X181732017Y-99909819D01*
X181732017Y-99909819D02*
X181970112Y-99909819D01*
X181970112Y-99909819D02*
X182065350Y-99862200D01*
X182065350Y-99862200D02*
X182112969Y-99814580D01*
X182112969Y-99814580D02*
X182160588Y-99719342D01*
X182160588Y-99719342D02*
X182160588Y-99624104D01*
X182160588Y-99624104D02*
X182112969Y-99528866D01*
X182112969Y-99528866D02*
X182065350Y-99481247D01*
X182065350Y-99481247D02*
X181970112Y-99433628D01*
X181970112Y-99433628D02*
X181779636Y-99386009D01*
X181779636Y-99386009D02*
X181684398Y-99338390D01*
X181684398Y-99338390D02*
X181636779Y-99290771D01*
X181636779Y-99290771D02*
X181589160Y-99195533D01*
X181589160Y-99195533D02*
X181589160Y-99100295D01*
X181589160Y-99100295D02*
X181636779Y-99005057D01*
X181636779Y-99005057D02*
X181684398Y-98957438D01*
X181684398Y-98957438D02*
X181779636Y-98909819D01*
X181779636Y-98909819D02*
X182017731Y-98909819D01*
X182017731Y-98909819D02*
X182160588Y-98957438D01*
X182493922Y-99243152D02*
X182684398Y-99909819D01*
X182684398Y-99909819D02*
X182874874Y-99433628D01*
X182874874Y-99433628D02*
X183065350Y-99909819D01*
X183065350Y-99909819D02*
X183255826Y-99243152D01*
X183636779Y-99909819D02*
X183636779Y-99243152D01*
X183636779Y-98909819D02*
X183589160Y-98957438D01*
X183589160Y-98957438D02*
X183636779Y-99005057D01*
X183636779Y-99005057D02*
X183684398Y-98957438D01*
X183684398Y-98957438D02*
X183636779Y-98909819D01*
X183636779Y-98909819D02*
X183636779Y-99005057D01*
X183970112Y-99243152D02*
X184351064Y-99243152D01*
X184112969Y-98909819D02*
X184112969Y-99766961D01*
X184112969Y-99766961D02*
X184160588Y-99862200D01*
X184160588Y-99862200D02*
X184255826Y-99909819D01*
X184255826Y-99909819D02*
X184351064Y-99909819D01*
X185112969Y-99862200D02*
X185017731Y-99909819D01*
X185017731Y-99909819D02*
X184827255Y-99909819D01*
X184827255Y-99909819D02*
X184732017Y-99862200D01*
X184732017Y-99862200D02*
X184684398Y-99814580D01*
X184684398Y-99814580D02*
X184636779Y-99719342D01*
X184636779Y-99719342D02*
X184636779Y-99433628D01*
X184636779Y-99433628D02*
X184684398Y-99338390D01*
X184684398Y-99338390D02*
X184732017Y-99290771D01*
X184732017Y-99290771D02*
X184827255Y-99243152D01*
X184827255Y-99243152D02*
X185017731Y-99243152D01*
X185017731Y-99243152D02*
X185112969Y-99290771D01*
X185541541Y-99909819D02*
X185541541Y-98909819D01*
X185970112Y-99909819D02*
X185970112Y-99386009D01*
X185970112Y-99386009D02*
X185922493Y-99290771D01*
X185922493Y-99290771D02*
X185827255Y-99243152D01*
X185827255Y-99243152D02*
X185684398Y-99243152D01*
X185684398Y-99243152D02*
X185589160Y-99290771D01*
X185589160Y-99290771D02*
X185541541Y-99338390D01*
X186446303Y-99909819D02*
X186446303Y-99243152D01*
X186446303Y-99338390D02*
X186493922Y-99290771D01*
X186493922Y-99290771D02*
X186589160Y-99243152D01*
X186589160Y-99243152D02*
X186732017Y-99243152D01*
X186732017Y-99243152D02*
X186827255Y-99290771D01*
X186827255Y-99290771D02*
X186874874Y-99386009D01*
X186874874Y-99386009D02*
X186874874Y-99909819D01*
X186874874Y-99386009D02*
X186922493Y-99290771D01*
X186922493Y-99290771D02*
X187017731Y-99243152D01*
X187017731Y-99243152D02*
X187160588Y-99243152D01*
X187160588Y-99243152D02*
X187255827Y-99290771D01*
X187255827Y-99290771D02*
X187303446Y-99386009D01*
X187303446Y-99386009D02*
X187303446Y-99909819D01*
X187922493Y-99909819D02*
X187827255Y-99862200D01*
X187827255Y-99862200D02*
X187779636Y-99814580D01*
X187779636Y-99814580D02*
X187732017Y-99719342D01*
X187732017Y-99719342D02*
X187732017Y-99433628D01*
X187732017Y-99433628D02*
X187779636Y-99338390D01*
X187779636Y-99338390D02*
X187827255Y-99290771D01*
X187827255Y-99290771D02*
X187922493Y-99243152D01*
X187922493Y-99243152D02*
X188065350Y-99243152D01*
X188065350Y-99243152D02*
X188160588Y-99290771D01*
X188160588Y-99290771D02*
X188208207Y-99338390D01*
X188208207Y-99338390D02*
X188255826Y-99433628D01*
X188255826Y-99433628D02*
X188255826Y-99719342D01*
X188255826Y-99719342D02*
X188208207Y-99814580D01*
X188208207Y-99814580D02*
X188160588Y-99862200D01*
X188160588Y-99862200D02*
X188065350Y-99909819D01*
X188065350Y-99909819D02*
X187922493Y-99909819D01*
X189112969Y-99909819D02*
X189112969Y-98909819D01*
X189112969Y-99862200D02*
X189017731Y-99909819D01*
X189017731Y-99909819D02*
X188827255Y-99909819D01*
X188827255Y-99909819D02*
X188732017Y-99862200D01*
X188732017Y-99862200D02*
X188684398Y-99814580D01*
X188684398Y-99814580D02*
X188636779Y-99719342D01*
X188636779Y-99719342D02*
X188636779Y-99433628D01*
X188636779Y-99433628D02*
X188684398Y-99338390D01*
X188684398Y-99338390D02*
X188732017Y-99290771D01*
X188732017Y-99290771D02*
X188827255Y-99243152D01*
X188827255Y-99243152D02*
X189017731Y-99243152D01*
X189017731Y-99243152D02*
X189112969Y-99290771D01*
X189970112Y-99862200D02*
X189874874Y-99909819D01*
X189874874Y-99909819D02*
X189684398Y-99909819D01*
X189684398Y-99909819D02*
X189589160Y-99862200D01*
X189589160Y-99862200D02*
X189541541Y-99766961D01*
X189541541Y-99766961D02*
X189541541Y-99386009D01*
X189541541Y-99386009D02*
X189589160Y-99290771D01*
X189589160Y-99290771D02*
X189684398Y-99243152D01*
X189684398Y-99243152D02*
X189874874Y-99243152D01*
X189874874Y-99243152D02*
X189970112Y-99290771D01*
X189970112Y-99290771D02*
X190017731Y-99386009D01*
X190017731Y-99386009D02*
X190017731Y-99481247D01*
X190017731Y-99481247D02*
X189541541Y-99576485D01*
X191779636Y-99814580D02*
X191732017Y-99862200D01*
X191732017Y-99862200D02*
X191589160Y-99909819D01*
X191589160Y-99909819D02*
X191493922Y-99909819D01*
X191493922Y-99909819D02*
X191351065Y-99862200D01*
X191351065Y-99862200D02*
X191255827Y-99766961D01*
X191255827Y-99766961D02*
X191208208Y-99671723D01*
X191208208Y-99671723D02*
X191160589Y-99481247D01*
X191160589Y-99481247D02*
X191160589Y-99338390D01*
X191160589Y-99338390D02*
X191208208Y-99147914D01*
X191208208Y-99147914D02*
X191255827Y-99052676D01*
X191255827Y-99052676D02*
X191351065Y-98957438D01*
X191351065Y-98957438D02*
X191493922Y-98909819D01*
X191493922Y-98909819D02*
X191589160Y-98909819D01*
X191589160Y-98909819D02*
X191732017Y-98957438D01*
X191732017Y-98957438D02*
X191779636Y-99005057D01*
X192351065Y-99909819D02*
X192255827Y-99862200D01*
X192255827Y-99862200D02*
X192208208Y-99814580D01*
X192208208Y-99814580D02*
X192160589Y-99719342D01*
X192160589Y-99719342D02*
X192160589Y-99433628D01*
X192160589Y-99433628D02*
X192208208Y-99338390D01*
X192208208Y-99338390D02*
X192255827Y-99290771D01*
X192255827Y-99290771D02*
X192351065Y-99243152D01*
X192351065Y-99243152D02*
X192493922Y-99243152D01*
X192493922Y-99243152D02*
X192589160Y-99290771D01*
X192589160Y-99290771D02*
X192636779Y-99338390D01*
X192636779Y-99338390D02*
X192684398Y-99433628D01*
X192684398Y-99433628D02*
X192684398Y-99719342D01*
X192684398Y-99719342D02*
X192636779Y-99814580D01*
X192636779Y-99814580D02*
X192589160Y-99862200D01*
X192589160Y-99862200D02*
X192493922Y-99909819D01*
X192493922Y-99909819D02*
X192351065Y-99909819D01*
X193255827Y-99909819D02*
X193160589Y-99862200D01*
X193160589Y-99862200D02*
X193112970Y-99814580D01*
X193112970Y-99814580D02*
X193065351Y-99719342D01*
X193065351Y-99719342D02*
X193065351Y-99433628D01*
X193065351Y-99433628D02*
X193112970Y-99338390D01*
X193112970Y-99338390D02*
X193160589Y-99290771D01*
X193160589Y-99290771D02*
X193255827Y-99243152D01*
X193255827Y-99243152D02*
X193398684Y-99243152D01*
X193398684Y-99243152D02*
X193493922Y-99290771D01*
X193493922Y-99290771D02*
X193541541Y-99338390D01*
X193541541Y-99338390D02*
X193589160Y-99433628D01*
X193589160Y-99433628D02*
X193589160Y-99719342D01*
X193589160Y-99719342D02*
X193541541Y-99814580D01*
X193541541Y-99814580D02*
X193493922Y-99862200D01*
X193493922Y-99862200D02*
X193398684Y-99909819D01*
X193398684Y-99909819D02*
X193255827Y-99909819D01*
X194160589Y-99909819D02*
X194065351Y-99862200D01*
X194065351Y-99862200D02*
X194017732Y-99766961D01*
X194017732Y-99766961D02*
X194017732Y-98909819D01*
X194493923Y-99624104D02*
X194970113Y-99624104D01*
X194398685Y-99909819D02*
X194732018Y-98909819D01*
X194732018Y-98909819D02*
X195065351Y-99909819D01*
X195398685Y-99909819D02*
X195398685Y-98909819D01*
X195398685Y-98909819D02*
X195732018Y-99624104D01*
X195732018Y-99624104D02*
X196065351Y-98909819D01*
X196065351Y-98909819D02*
X196065351Y-99909819D01*
X196541542Y-99909819D02*
X196541542Y-98909819D01*
X196541542Y-98909819D02*
X196922494Y-98909819D01*
X196922494Y-98909819D02*
X197017732Y-98957438D01*
X197017732Y-98957438D02*
X197065351Y-99005057D01*
X197065351Y-99005057D02*
X197112970Y-99100295D01*
X197112970Y-99100295D02*
X197112970Y-99243152D01*
X197112970Y-99243152D02*
X197065351Y-99338390D01*
X197065351Y-99338390D02*
X197017732Y-99386009D01*
X197017732Y-99386009D02*
X196922494Y-99433628D01*
X196922494Y-99433628D02*
X196541542Y-99433628D01*
X187364761Y-92062295D02*
X186907618Y-92062295D01*
X187136190Y-92062295D02*
X187136190Y-91262295D01*
X187136190Y-91262295D02*
X187059999Y-91376580D01*
X187059999Y-91376580D02*
X186983809Y-91452771D01*
X186983809Y-91452771D02*
X186907618Y-91490866D01*
X187860000Y-91262295D02*
X187936190Y-91262295D01*
X187936190Y-91262295D02*
X188012381Y-91300390D01*
X188012381Y-91300390D02*
X188050476Y-91338485D01*
X188050476Y-91338485D02*
X188088571Y-91414676D01*
X188088571Y-91414676D02*
X188126666Y-91567057D01*
X188126666Y-91567057D02*
X188126666Y-91757533D01*
X188126666Y-91757533D02*
X188088571Y-91909914D01*
X188088571Y-91909914D02*
X188050476Y-91986104D01*
X188050476Y-91986104D02*
X188012381Y-92024200D01*
X188012381Y-92024200D02*
X187936190Y-92062295D01*
X187936190Y-92062295D02*
X187860000Y-92062295D01*
X187860000Y-92062295D02*
X187783809Y-92024200D01*
X187783809Y-92024200D02*
X187745714Y-91986104D01*
X187745714Y-91986104D02*
X187707619Y-91909914D01*
X187707619Y-91909914D02*
X187669523Y-91757533D01*
X187669523Y-91757533D02*
X187669523Y-91567057D01*
X187669523Y-91567057D02*
X187707619Y-91414676D01*
X187707619Y-91414676D02*
X187745714Y-91338485D01*
X187745714Y-91338485D02*
X187783809Y-91300390D01*
X187783809Y-91300390D02*
X187860000Y-91262295D01*
X188621905Y-91262295D02*
X188698095Y-91262295D01*
X188698095Y-91262295D02*
X188774286Y-91300390D01*
X188774286Y-91300390D02*
X188812381Y-91338485D01*
X188812381Y-91338485D02*
X188850476Y-91414676D01*
X188850476Y-91414676D02*
X188888571Y-91567057D01*
X188888571Y-91567057D02*
X188888571Y-91757533D01*
X188888571Y-91757533D02*
X188850476Y-91909914D01*
X188850476Y-91909914D02*
X188812381Y-91986104D01*
X188812381Y-91986104D02*
X188774286Y-92024200D01*
X188774286Y-92024200D02*
X188698095Y-92062295D01*
X188698095Y-92062295D02*
X188621905Y-92062295D01*
X188621905Y-92062295D02*
X188545714Y-92024200D01*
X188545714Y-92024200D02*
X188507619Y-91986104D01*
X188507619Y-91986104D02*
X188469524Y-91909914D01*
X188469524Y-91909914D02*
X188431428Y-91757533D01*
X188431428Y-91757533D02*
X188431428Y-91567057D01*
X188431428Y-91567057D02*
X188469524Y-91414676D01*
X188469524Y-91414676D02*
X188507619Y-91338485D01*
X188507619Y-91338485D02*
X188545714Y-91300390D01*
X188545714Y-91300390D02*
X188621905Y-91262295D01*
X189231429Y-91528961D02*
X189231429Y-92062295D01*
X189231429Y-91605152D02*
X189269524Y-91567057D01*
X189269524Y-91567057D02*
X189345714Y-91528961D01*
X189345714Y-91528961D02*
X189460000Y-91528961D01*
X189460000Y-91528961D02*
X189536191Y-91567057D01*
X189536191Y-91567057D02*
X189574286Y-91643247D01*
X189574286Y-91643247D02*
X189574286Y-92062295D01*
X195193333Y-94774819D02*
X194717143Y-94774819D01*
X194717143Y-94774819D02*
X194717143Y-93774819D01*
X195955238Y-94108152D02*
X195955238Y-94774819D01*
X195717143Y-93727200D02*
X195479048Y-94441485D01*
X195479048Y-94441485D02*
X196098095Y-94441485D01*
X185274819Y-74576666D02*
X185274819Y-75148094D01*
X185274819Y-74862380D02*
X184274819Y-74862380D01*
X184274819Y-74862380D02*
X184417676Y-74957618D01*
X184417676Y-74957618D02*
X184512914Y-75052856D01*
X184512914Y-75052856D02*
X184560533Y-75148094D01*
X184608152Y-74148094D02*
X185274819Y-74148094D01*
X184703390Y-74148094D02*
X184655771Y-74100475D01*
X184655771Y-74100475D02*
X184608152Y-74005237D01*
X184608152Y-74005237D02*
X184608152Y-73862380D01*
X184608152Y-73862380D02*
X184655771Y-73767142D01*
X184655771Y-73767142D02*
X184751009Y-73719523D01*
X184751009Y-73719523D02*
X185274819Y-73719523D01*
X201554819Y-87884762D02*
X201078628Y-88218095D01*
X201554819Y-88456190D02*
X200554819Y-88456190D01*
X200554819Y-88456190D02*
X200554819Y-88075238D01*
X200554819Y-88075238D02*
X200602438Y-87980000D01*
X200602438Y-87980000D02*
X200650057Y-87932381D01*
X200650057Y-87932381D02*
X200745295Y-87884762D01*
X200745295Y-87884762D02*
X200888152Y-87884762D01*
X200888152Y-87884762D02*
X200983390Y-87932381D01*
X200983390Y-87932381D02*
X201031009Y-87980000D01*
X201031009Y-87980000D02*
X201078628Y-88075238D01*
X201078628Y-88075238D02*
X201078628Y-88456190D01*
X201031009Y-87122857D02*
X201031009Y-87456190D01*
X201554819Y-87456190D02*
X200554819Y-87456190D01*
X200554819Y-87456190D02*
X200554819Y-86980000D01*
X201650057Y-86837143D02*
X201650057Y-86075238D01*
X200554819Y-85646666D02*
X200554819Y-85456190D01*
X200554819Y-85456190D02*
X200602438Y-85360952D01*
X200602438Y-85360952D02*
X200697676Y-85265714D01*
X200697676Y-85265714D02*
X200888152Y-85218095D01*
X200888152Y-85218095D02*
X201221485Y-85218095D01*
X201221485Y-85218095D02*
X201411961Y-85265714D01*
X201411961Y-85265714D02*
X201507200Y-85360952D01*
X201507200Y-85360952D02*
X201554819Y-85456190D01*
X201554819Y-85456190D02*
X201554819Y-85646666D01*
X201554819Y-85646666D02*
X201507200Y-85741904D01*
X201507200Y-85741904D02*
X201411961Y-85837142D01*
X201411961Y-85837142D02*
X201221485Y-85884761D01*
X201221485Y-85884761D02*
X200888152Y-85884761D01*
X200888152Y-85884761D02*
X200697676Y-85837142D01*
X200697676Y-85837142D02*
X200602438Y-85741904D01*
X200602438Y-85741904D02*
X200554819Y-85646666D01*
X200554819Y-84789523D02*
X201364342Y-84789523D01*
X201364342Y-84789523D02*
X201459580Y-84741904D01*
X201459580Y-84741904D02*
X201507200Y-84694285D01*
X201507200Y-84694285D02*
X201554819Y-84599047D01*
X201554819Y-84599047D02*
X201554819Y-84408571D01*
X201554819Y-84408571D02*
X201507200Y-84313333D01*
X201507200Y-84313333D02*
X201459580Y-84265714D01*
X201459580Y-84265714D02*
X201364342Y-84218095D01*
X201364342Y-84218095D02*
X200554819Y-84218095D01*
X200554819Y-83884761D02*
X200554819Y-83313333D01*
X201554819Y-83599047D02*
X200554819Y-83599047D01*
X201554819Y-82456190D02*
X201554819Y-83027618D01*
X201554819Y-82741904D02*
X200554819Y-82741904D01*
X200554819Y-82741904D02*
X200697676Y-82837142D01*
X200697676Y-82837142D02*
X200792914Y-82932380D01*
X200792914Y-82932380D02*
X200840533Y-83027618D01*
X190914819Y-79066666D02*
X190914819Y-79638094D01*
X190914819Y-79352380D02*
X189914819Y-79352380D01*
X189914819Y-79352380D02*
X190057676Y-79447618D01*
X190057676Y-79447618D02*
X190152914Y-79542856D01*
X190152914Y-79542856D02*
X190200533Y-79638094D01*
X190248152Y-78638094D02*
X190914819Y-78638094D01*
X190343390Y-78638094D02*
X190295771Y-78590475D01*
X190295771Y-78590475D02*
X190248152Y-78495237D01*
X190248152Y-78495237D02*
X190248152Y-78352380D01*
X190248152Y-78352380D02*
X190295771Y-78257142D01*
X190295771Y-78257142D02*
X190391009Y-78209523D01*
X190391009Y-78209523D02*
X190914819Y-78209523D01*
X161747142Y-98234819D02*
X161175714Y-98234819D01*
X161461428Y-98234819D02*
X161461428Y-97234819D01*
X161461428Y-97234819D02*
X161366190Y-97377676D01*
X161366190Y-97377676D02*
X161270952Y-97472914D01*
X161270952Y-97472914D02*
X161175714Y-97520533D01*
X162366190Y-97234819D02*
X162461428Y-97234819D01*
X162461428Y-97234819D02*
X162556666Y-97282438D01*
X162556666Y-97282438D02*
X162604285Y-97330057D01*
X162604285Y-97330057D02*
X162651904Y-97425295D01*
X162651904Y-97425295D02*
X162699523Y-97615771D01*
X162699523Y-97615771D02*
X162699523Y-97853866D01*
X162699523Y-97853866D02*
X162651904Y-98044342D01*
X162651904Y-98044342D02*
X162604285Y-98139580D01*
X162604285Y-98139580D02*
X162556666Y-98187200D01*
X162556666Y-98187200D02*
X162461428Y-98234819D01*
X162461428Y-98234819D02*
X162366190Y-98234819D01*
X162366190Y-98234819D02*
X162270952Y-98187200D01*
X162270952Y-98187200D02*
X162223333Y-98139580D01*
X162223333Y-98139580D02*
X162175714Y-98044342D01*
X162175714Y-98044342D02*
X162128095Y-97853866D01*
X162128095Y-97853866D02*
X162128095Y-97615771D01*
X162128095Y-97615771D02*
X162175714Y-97425295D01*
X162175714Y-97425295D02*
X162223333Y-97330057D01*
X162223333Y-97330057D02*
X162270952Y-97282438D01*
X162270952Y-97282438D02*
X162366190Y-97234819D01*
X163556666Y-97568152D02*
X163556666Y-98234819D01*
X163128095Y-97568152D02*
X163128095Y-98091961D01*
X163128095Y-98091961D02*
X163175714Y-98187200D01*
X163175714Y-98187200D02*
X163270952Y-98234819D01*
X163270952Y-98234819D02*
X163413809Y-98234819D01*
X163413809Y-98234819D02*
X163509047Y-98187200D01*
X163509047Y-98187200D02*
X163556666Y-98139580D01*
X166039166Y-95322295D02*
X165582023Y-95322295D01*
X165810595Y-95322295D02*
X165810595Y-94522295D01*
X165810595Y-94522295D02*
X165734404Y-94636580D01*
X165734404Y-94636580D02*
X165658214Y-94712771D01*
X165658214Y-94712771D02*
X165582023Y-94750866D01*
X166382024Y-94788961D02*
X166382024Y-95322295D01*
X166382024Y-94865152D02*
X166420119Y-94827057D01*
X166420119Y-94827057D02*
X166496309Y-94788961D01*
X166496309Y-94788961D02*
X166610595Y-94788961D01*
X166610595Y-94788961D02*
X166686786Y-94827057D01*
X166686786Y-94827057D02*
X166724881Y-94903247D01*
X166724881Y-94903247D02*
X166724881Y-95322295D01*
X202313333Y-90929580D02*
X202265714Y-90977200D01*
X202265714Y-90977200D02*
X202122857Y-91024819D01*
X202122857Y-91024819D02*
X202027619Y-91024819D01*
X202027619Y-91024819D02*
X201884762Y-90977200D01*
X201884762Y-90977200D02*
X201789524Y-90881961D01*
X201789524Y-90881961D02*
X201741905Y-90786723D01*
X201741905Y-90786723D02*
X201694286Y-90596247D01*
X201694286Y-90596247D02*
X201694286Y-90453390D01*
X201694286Y-90453390D02*
X201741905Y-90262914D01*
X201741905Y-90262914D02*
X201789524Y-90167676D01*
X201789524Y-90167676D02*
X201884762Y-90072438D01*
X201884762Y-90072438D02*
X202027619Y-90024819D01*
X202027619Y-90024819D02*
X202122857Y-90024819D01*
X202122857Y-90024819D02*
X202265714Y-90072438D01*
X202265714Y-90072438D02*
X202313333Y-90120057D01*
X203265714Y-91024819D02*
X202694286Y-91024819D01*
X202980000Y-91024819D02*
X202980000Y-90024819D01*
X202980000Y-90024819D02*
X202884762Y-90167676D01*
X202884762Y-90167676D02*
X202789524Y-90262914D01*
X202789524Y-90262914D02*
X202694286Y-90310533D01*
X150339048Y-70874819D02*
X150339048Y-69874819D01*
X151386666Y-70874819D02*
X151053333Y-70398628D01*
X150815238Y-70874819D02*
X150815238Y-69874819D01*
X150815238Y-69874819D02*
X151196190Y-69874819D01*
X151196190Y-69874819D02*
X151291428Y-69922438D01*
X151291428Y-69922438D02*
X151339047Y-69970057D01*
X151339047Y-69970057D02*
X151386666Y-70065295D01*
X151386666Y-70065295D02*
X151386666Y-70208152D01*
X151386666Y-70208152D02*
X151339047Y-70303390D01*
X151339047Y-70303390D02*
X151291428Y-70351009D01*
X151291428Y-70351009D02*
X151196190Y-70398628D01*
X151196190Y-70398628D02*
X150815238Y-70398628D01*
X152148571Y-70351009D02*
X151815238Y-70351009D01*
X151815238Y-70874819D02*
X151815238Y-69874819D01*
X151815238Y-69874819D02*
X152291428Y-69874819D01*
X152672381Y-70874819D02*
X152672381Y-69874819D01*
X152672381Y-69874819D02*
X153053333Y-69874819D01*
X153053333Y-69874819D02*
X153148571Y-69922438D01*
X153148571Y-69922438D02*
X153196190Y-69970057D01*
X153196190Y-69970057D02*
X153243809Y-70065295D01*
X153243809Y-70065295D02*
X153243809Y-70208152D01*
X153243809Y-70208152D02*
X153196190Y-70303390D01*
X153196190Y-70303390D02*
X153148571Y-70351009D01*
X153148571Y-70351009D02*
X153053333Y-70398628D01*
X153053333Y-70398628D02*
X152672381Y-70398628D01*
X154196190Y-70874819D02*
X153624762Y-70874819D01*
X153910476Y-70874819D02*
X153910476Y-69874819D01*
X153910476Y-69874819D02*
X153815238Y-70017676D01*
X153815238Y-70017676D02*
X153720000Y-70112914D01*
X153720000Y-70112914D02*
X153624762Y-70160533D01*
X155053333Y-70208152D02*
X155053333Y-70874819D01*
X154815238Y-69827200D02*
X154577143Y-70541485D01*
X154577143Y-70541485D02*
X155196190Y-70541485D01*
X155767619Y-69874819D02*
X155862857Y-69874819D01*
X155862857Y-69874819D02*
X155958095Y-69922438D01*
X155958095Y-69922438D02*
X156005714Y-69970057D01*
X156005714Y-69970057D02*
X156053333Y-70065295D01*
X156053333Y-70065295D02*
X156100952Y-70255771D01*
X156100952Y-70255771D02*
X156100952Y-70493866D01*
X156100952Y-70493866D02*
X156053333Y-70684342D01*
X156053333Y-70684342D02*
X156005714Y-70779580D01*
X156005714Y-70779580D02*
X155958095Y-70827200D01*
X155958095Y-70827200D02*
X155862857Y-70874819D01*
X155862857Y-70874819D02*
X155767619Y-70874819D01*
X155767619Y-70874819D02*
X155672381Y-70827200D01*
X155672381Y-70827200D02*
X155624762Y-70779580D01*
X155624762Y-70779580D02*
X155577143Y-70684342D01*
X155577143Y-70684342D02*
X155529524Y-70493866D01*
X155529524Y-70493866D02*
X155529524Y-70255771D01*
X155529524Y-70255771D02*
X155577143Y-70065295D01*
X155577143Y-70065295D02*
X155624762Y-69970057D01*
X155624762Y-69970057D02*
X155672381Y-69922438D01*
X155672381Y-69922438D02*
X155767619Y-69874819D01*
X156529524Y-70874819D02*
X156529524Y-69874819D01*
X156529524Y-69874819D02*
X157100952Y-70874819D01*
X157100952Y-70874819D02*
X157100952Y-69874819D01*
X182632295Y-74765238D02*
X182632295Y-75222381D01*
X182632295Y-74993809D02*
X181832295Y-74993809D01*
X181832295Y-74993809D02*
X181946580Y-75070000D01*
X181946580Y-75070000D02*
X182022771Y-75146190D01*
X182022771Y-75146190D02*
X182060866Y-75222381D01*
X181832295Y-74269999D02*
X181832295Y-74193809D01*
X181832295Y-74193809D02*
X181870390Y-74117618D01*
X181870390Y-74117618D02*
X181908485Y-74079523D01*
X181908485Y-74079523D02*
X181984676Y-74041428D01*
X181984676Y-74041428D02*
X182137057Y-74003333D01*
X182137057Y-74003333D02*
X182327533Y-74003333D01*
X182327533Y-74003333D02*
X182479914Y-74041428D01*
X182479914Y-74041428D02*
X182556104Y-74079523D01*
X182556104Y-74079523D02*
X182594200Y-74117618D01*
X182594200Y-74117618D02*
X182632295Y-74193809D01*
X182632295Y-74193809D02*
X182632295Y-74269999D01*
X182632295Y-74269999D02*
X182594200Y-74346190D01*
X182594200Y-74346190D02*
X182556104Y-74384285D01*
X182556104Y-74384285D02*
X182479914Y-74422380D01*
X182479914Y-74422380D02*
X182327533Y-74460476D01*
X182327533Y-74460476D02*
X182137057Y-74460476D01*
X182137057Y-74460476D02*
X181984676Y-74422380D01*
X181984676Y-74422380D02*
X181908485Y-74384285D01*
X181908485Y-74384285D02*
X181870390Y-74346190D01*
X181870390Y-74346190D02*
X181832295Y-74269999D01*
X181832295Y-73508094D02*
X181832295Y-73431904D01*
X181832295Y-73431904D02*
X181870390Y-73355713D01*
X181870390Y-73355713D02*
X181908485Y-73317618D01*
X181908485Y-73317618D02*
X181984676Y-73279523D01*
X181984676Y-73279523D02*
X182137057Y-73241428D01*
X182137057Y-73241428D02*
X182327533Y-73241428D01*
X182327533Y-73241428D02*
X182479914Y-73279523D01*
X182479914Y-73279523D02*
X182556104Y-73317618D01*
X182556104Y-73317618D02*
X182594200Y-73355713D01*
X182594200Y-73355713D02*
X182632295Y-73431904D01*
X182632295Y-73431904D02*
X182632295Y-73508094D01*
X182632295Y-73508094D02*
X182594200Y-73584285D01*
X182594200Y-73584285D02*
X182556104Y-73622380D01*
X182556104Y-73622380D02*
X182479914Y-73660475D01*
X182479914Y-73660475D02*
X182327533Y-73698571D01*
X182327533Y-73698571D02*
X182137057Y-73698571D01*
X182137057Y-73698571D02*
X181984676Y-73660475D01*
X181984676Y-73660475D02*
X181908485Y-73622380D01*
X181908485Y-73622380D02*
X181870390Y-73584285D01*
X181870390Y-73584285D02*
X181832295Y-73508094D01*
X182098961Y-72898570D02*
X182898961Y-72898570D01*
X182137057Y-72898570D02*
X182098961Y-72822380D01*
X182098961Y-72822380D02*
X182098961Y-72669999D01*
X182098961Y-72669999D02*
X182137057Y-72593808D01*
X182137057Y-72593808D02*
X182175152Y-72555713D01*
X182175152Y-72555713D02*
X182251342Y-72517618D01*
X182251342Y-72517618D02*
X182479914Y-72517618D01*
X182479914Y-72517618D02*
X182556104Y-72555713D01*
X182556104Y-72555713D02*
X182594200Y-72593808D01*
X182594200Y-72593808D02*
X182632295Y-72669999D01*
X182632295Y-72669999D02*
X182632295Y-72822380D01*
X182632295Y-72822380D02*
X182594200Y-72898570D01*
X160268095Y-102144819D02*
X160268095Y-101144819D01*
X160839523Y-102144819D02*
X160410952Y-101573390D01*
X160839523Y-101144819D02*
X160268095Y-101716247D01*
X170438095Y-96134819D02*
X170438095Y-96944342D01*
X170438095Y-96944342D02*
X170485714Y-97039580D01*
X170485714Y-97039580D02*
X170533333Y-97087200D01*
X170533333Y-97087200D02*
X170628571Y-97134819D01*
X170628571Y-97134819D02*
X170819047Y-97134819D01*
X170819047Y-97134819D02*
X170914285Y-97087200D01*
X170914285Y-97087200D02*
X170961904Y-97039580D01*
X170961904Y-97039580D02*
X171009523Y-96944342D01*
X171009523Y-96944342D02*
X171009523Y-96134819D01*
X171438095Y-96230057D02*
X171485714Y-96182438D01*
X171485714Y-96182438D02*
X171580952Y-96134819D01*
X171580952Y-96134819D02*
X171819047Y-96134819D01*
X171819047Y-96134819D02*
X171914285Y-96182438D01*
X171914285Y-96182438D02*
X171961904Y-96230057D01*
X171961904Y-96230057D02*
X172009523Y-96325295D01*
X172009523Y-96325295D02*
X172009523Y-96420533D01*
X172009523Y-96420533D02*
X171961904Y-96563390D01*
X171961904Y-96563390D02*
X171390476Y-97134819D01*
X171390476Y-97134819D02*
X172009523Y-97134819D01*
X196612295Y-77044286D02*
X196612295Y-77501429D01*
X196612295Y-77272857D02*
X195812295Y-77272857D01*
X195812295Y-77272857D02*
X195926580Y-77349048D01*
X195926580Y-77349048D02*
X196002771Y-77425238D01*
X196002771Y-77425238D02*
X196040866Y-77501429D01*
X195812295Y-76549047D02*
X195812295Y-76472857D01*
X195812295Y-76472857D02*
X195850390Y-76396666D01*
X195850390Y-76396666D02*
X195888485Y-76358571D01*
X195888485Y-76358571D02*
X195964676Y-76320476D01*
X195964676Y-76320476D02*
X196117057Y-76282381D01*
X196117057Y-76282381D02*
X196307533Y-76282381D01*
X196307533Y-76282381D02*
X196459914Y-76320476D01*
X196459914Y-76320476D02*
X196536104Y-76358571D01*
X196536104Y-76358571D02*
X196574200Y-76396666D01*
X196574200Y-76396666D02*
X196612295Y-76472857D01*
X196612295Y-76472857D02*
X196612295Y-76549047D01*
X196612295Y-76549047D02*
X196574200Y-76625238D01*
X196574200Y-76625238D02*
X196536104Y-76663333D01*
X196536104Y-76663333D02*
X196459914Y-76701428D01*
X196459914Y-76701428D02*
X196307533Y-76739524D01*
X196307533Y-76739524D02*
X196117057Y-76739524D01*
X196117057Y-76739524D02*
X195964676Y-76701428D01*
X195964676Y-76701428D02*
X195888485Y-76663333D01*
X195888485Y-76663333D02*
X195850390Y-76625238D01*
X195850390Y-76625238D02*
X195812295Y-76549047D01*
X196078961Y-75939523D02*
X196612295Y-75939523D01*
X196155152Y-75939523D02*
X196117057Y-75901428D01*
X196117057Y-75901428D02*
X196078961Y-75825238D01*
X196078961Y-75825238D02*
X196078961Y-75710952D01*
X196078961Y-75710952D02*
X196117057Y-75634761D01*
X196117057Y-75634761D02*
X196193247Y-75596666D01*
X196193247Y-75596666D02*
X196612295Y-75596666D01*
X206019580Y-95026666D02*
X206067200Y-95074285D01*
X206067200Y-95074285D02*
X206114819Y-95217142D01*
X206114819Y-95217142D02*
X206114819Y-95312380D01*
X206114819Y-95312380D02*
X206067200Y-95455237D01*
X206067200Y-95455237D02*
X205971961Y-95550475D01*
X205971961Y-95550475D02*
X205876723Y-95598094D01*
X205876723Y-95598094D02*
X205686247Y-95645713D01*
X205686247Y-95645713D02*
X205543390Y-95645713D01*
X205543390Y-95645713D02*
X205352914Y-95598094D01*
X205352914Y-95598094D02*
X205257676Y-95550475D01*
X205257676Y-95550475D02*
X205162438Y-95455237D01*
X205162438Y-95455237D02*
X205114819Y-95312380D01*
X205114819Y-95312380D02*
X205114819Y-95217142D01*
X205114819Y-95217142D02*
X205162438Y-95074285D01*
X205162438Y-95074285D02*
X205210057Y-95026666D01*
X205210057Y-94645713D02*
X205162438Y-94598094D01*
X205162438Y-94598094D02*
X205114819Y-94502856D01*
X205114819Y-94502856D02*
X205114819Y-94264761D01*
X205114819Y-94264761D02*
X205162438Y-94169523D01*
X205162438Y-94169523D02*
X205210057Y-94121904D01*
X205210057Y-94121904D02*
X205305295Y-94074285D01*
X205305295Y-94074285D02*
X205400533Y-94074285D01*
X205400533Y-94074285D02*
X205543390Y-94121904D01*
X205543390Y-94121904D02*
X206114819Y-94693332D01*
X206114819Y-94693332D02*
X206114819Y-94074285D01*
X146442295Y-94465238D02*
X146442295Y-94922381D01*
X146442295Y-94693809D02*
X145642295Y-94693809D01*
X145642295Y-94693809D02*
X145756580Y-94770000D01*
X145756580Y-94770000D02*
X145832771Y-94846190D01*
X145832771Y-94846190D02*
X145870866Y-94922381D01*
X145642295Y-93969999D02*
X145642295Y-93893809D01*
X145642295Y-93893809D02*
X145680390Y-93817618D01*
X145680390Y-93817618D02*
X145718485Y-93779523D01*
X145718485Y-93779523D02*
X145794676Y-93741428D01*
X145794676Y-93741428D02*
X145947057Y-93703333D01*
X145947057Y-93703333D02*
X146137533Y-93703333D01*
X146137533Y-93703333D02*
X146289914Y-93741428D01*
X146289914Y-93741428D02*
X146366104Y-93779523D01*
X146366104Y-93779523D02*
X146404200Y-93817618D01*
X146404200Y-93817618D02*
X146442295Y-93893809D01*
X146442295Y-93893809D02*
X146442295Y-93969999D01*
X146442295Y-93969999D02*
X146404200Y-94046190D01*
X146404200Y-94046190D02*
X146366104Y-94084285D01*
X146366104Y-94084285D02*
X146289914Y-94122380D01*
X146289914Y-94122380D02*
X146137533Y-94160476D01*
X146137533Y-94160476D02*
X145947057Y-94160476D01*
X145947057Y-94160476D02*
X145794676Y-94122380D01*
X145794676Y-94122380D02*
X145718485Y-94084285D01*
X145718485Y-94084285D02*
X145680390Y-94046190D01*
X145680390Y-94046190D02*
X145642295Y-93969999D01*
X145642295Y-93208094D02*
X145642295Y-93131904D01*
X145642295Y-93131904D02*
X145680390Y-93055713D01*
X145680390Y-93055713D02*
X145718485Y-93017618D01*
X145718485Y-93017618D02*
X145794676Y-92979523D01*
X145794676Y-92979523D02*
X145947057Y-92941428D01*
X145947057Y-92941428D02*
X146137533Y-92941428D01*
X146137533Y-92941428D02*
X146289914Y-92979523D01*
X146289914Y-92979523D02*
X146366104Y-93017618D01*
X146366104Y-93017618D02*
X146404200Y-93055713D01*
X146404200Y-93055713D02*
X146442295Y-93131904D01*
X146442295Y-93131904D02*
X146442295Y-93208094D01*
X146442295Y-93208094D02*
X146404200Y-93284285D01*
X146404200Y-93284285D02*
X146366104Y-93322380D01*
X146366104Y-93322380D02*
X146289914Y-93360475D01*
X146289914Y-93360475D02*
X146137533Y-93398571D01*
X146137533Y-93398571D02*
X145947057Y-93398571D01*
X145947057Y-93398571D02*
X145794676Y-93360475D01*
X145794676Y-93360475D02*
X145718485Y-93322380D01*
X145718485Y-93322380D02*
X145680390Y-93284285D01*
X145680390Y-93284285D02*
X145642295Y-93208094D01*
X145908961Y-92598570D02*
X146442295Y-92598570D01*
X145985152Y-92598570D02*
X145947057Y-92560475D01*
X145947057Y-92560475D02*
X145908961Y-92484285D01*
X145908961Y-92484285D02*
X145908961Y-92369999D01*
X145908961Y-92369999D02*
X145947057Y-92293808D01*
X145947057Y-92293808D02*
X146023247Y-92255713D01*
X146023247Y-92255713D02*
X146442295Y-92255713D01*
X197109580Y-97512857D02*
X197157200Y-97560476D01*
X197157200Y-97560476D02*
X197204819Y-97703333D01*
X197204819Y-97703333D02*
X197204819Y-97798571D01*
X197204819Y-97798571D02*
X197157200Y-97941428D01*
X197157200Y-97941428D02*
X197061961Y-98036666D01*
X197061961Y-98036666D02*
X196966723Y-98084285D01*
X196966723Y-98084285D02*
X196776247Y-98131904D01*
X196776247Y-98131904D02*
X196633390Y-98131904D01*
X196633390Y-98131904D02*
X196442914Y-98084285D01*
X196442914Y-98084285D02*
X196347676Y-98036666D01*
X196347676Y-98036666D02*
X196252438Y-97941428D01*
X196252438Y-97941428D02*
X196204819Y-97798571D01*
X196204819Y-97798571D02*
X196204819Y-97703333D01*
X196204819Y-97703333D02*
X196252438Y-97560476D01*
X196252438Y-97560476D02*
X196300057Y-97512857D01*
X197204819Y-96560476D02*
X197204819Y-97131904D01*
X197204819Y-96846190D02*
X196204819Y-96846190D01*
X196204819Y-96846190D02*
X196347676Y-96941428D01*
X196347676Y-96941428D02*
X196442914Y-97036666D01*
X196442914Y-97036666D02*
X196490533Y-97131904D01*
X196204819Y-95941428D02*
X196204819Y-95846190D01*
X196204819Y-95846190D02*
X196252438Y-95750952D01*
X196252438Y-95750952D02*
X196300057Y-95703333D01*
X196300057Y-95703333D02*
X196395295Y-95655714D01*
X196395295Y-95655714D02*
X196585771Y-95608095D01*
X196585771Y-95608095D02*
X196823866Y-95608095D01*
X196823866Y-95608095D02*
X197014342Y-95655714D01*
X197014342Y-95655714D02*
X197109580Y-95703333D01*
X197109580Y-95703333D02*
X197157200Y-95750952D01*
X197157200Y-95750952D02*
X197204819Y-95846190D01*
X197204819Y-95846190D02*
X197204819Y-95941428D01*
X197204819Y-95941428D02*
X197157200Y-96036666D01*
X197157200Y-96036666D02*
X197109580Y-96084285D01*
X197109580Y-96084285D02*
X197014342Y-96131904D01*
X197014342Y-96131904D02*
X196823866Y-96179523D01*
X196823866Y-96179523D02*
X196585771Y-96179523D01*
X196585771Y-96179523D02*
X196395295Y-96131904D01*
X196395295Y-96131904D02*
X196300057Y-96084285D01*
X196300057Y-96084285D02*
X196252438Y-96036666D01*
X196252438Y-96036666D02*
X196204819Y-95941428D01*
X176738333Y-96054819D02*
X176405000Y-95578628D01*
X176166905Y-96054819D02*
X176166905Y-95054819D01*
X176166905Y-95054819D02*
X176547857Y-95054819D01*
X176547857Y-95054819D02*
X176643095Y-95102438D01*
X176643095Y-95102438D02*
X176690714Y-95150057D01*
X176690714Y-95150057D02*
X176738333Y-95245295D01*
X176738333Y-95245295D02*
X176738333Y-95388152D01*
X176738333Y-95388152D02*
X176690714Y-95483390D01*
X176690714Y-95483390D02*
X176643095Y-95531009D01*
X176643095Y-95531009D02*
X176547857Y-95578628D01*
X176547857Y-95578628D02*
X176166905Y-95578628D01*
X177119286Y-95150057D02*
X177166905Y-95102438D01*
X177166905Y-95102438D02*
X177262143Y-95054819D01*
X177262143Y-95054819D02*
X177500238Y-95054819D01*
X177500238Y-95054819D02*
X177595476Y-95102438D01*
X177595476Y-95102438D02*
X177643095Y-95150057D01*
X177643095Y-95150057D02*
X177690714Y-95245295D01*
X177690714Y-95245295D02*
X177690714Y-95340533D01*
X177690714Y-95340533D02*
X177643095Y-95483390D01*
X177643095Y-95483390D02*
X177071667Y-96054819D01*
X177071667Y-96054819D02*
X177690714Y-96054819D01*
X181704819Y-93501428D02*
X181704819Y-94072856D01*
X181704819Y-93787142D02*
X180704819Y-93787142D01*
X180704819Y-93787142D02*
X180847676Y-93882380D01*
X180847676Y-93882380D02*
X180942914Y-93977618D01*
X180942914Y-93977618D02*
X180990533Y-94072856D01*
X180704819Y-92882380D02*
X180704819Y-92787142D01*
X180704819Y-92787142D02*
X180752438Y-92691904D01*
X180752438Y-92691904D02*
X180800057Y-92644285D01*
X180800057Y-92644285D02*
X180895295Y-92596666D01*
X180895295Y-92596666D02*
X181085771Y-92549047D01*
X181085771Y-92549047D02*
X181323866Y-92549047D01*
X181323866Y-92549047D02*
X181514342Y-92596666D01*
X181514342Y-92596666D02*
X181609580Y-92644285D01*
X181609580Y-92644285D02*
X181657200Y-92691904D01*
X181657200Y-92691904D02*
X181704819Y-92787142D01*
X181704819Y-92787142D02*
X181704819Y-92882380D01*
X181704819Y-92882380D02*
X181657200Y-92977618D01*
X181657200Y-92977618D02*
X181609580Y-93025237D01*
X181609580Y-93025237D02*
X181514342Y-93072856D01*
X181514342Y-93072856D02*
X181323866Y-93120475D01*
X181323866Y-93120475D02*
X181085771Y-93120475D01*
X181085771Y-93120475D02*
X180895295Y-93072856D01*
X180895295Y-93072856D02*
X180800057Y-93025237D01*
X180800057Y-93025237D02*
X180752438Y-92977618D01*
X180752438Y-92977618D02*
X180704819Y-92882380D01*
X180704819Y-91929999D02*
X180704819Y-91834761D01*
X180704819Y-91834761D02*
X180752438Y-91739523D01*
X180752438Y-91739523D02*
X180800057Y-91691904D01*
X180800057Y-91691904D02*
X180895295Y-91644285D01*
X180895295Y-91644285D02*
X181085771Y-91596666D01*
X181085771Y-91596666D02*
X181323866Y-91596666D01*
X181323866Y-91596666D02*
X181514342Y-91644285D01*
X181514342Y-91644285D02*
X181609580Y-91691904D01*
X181609580Y-91691904D02*
X181657200Y-91739523D01*
X181657200Y-91739523D02*
X181704819Y-91834761D01*
X181704819Y-91834761D02*
X181704819Y-91929999D01*
X181704819Y-91929999D02*
X181657200Y-92025237D01*
X181657200Y-92025237D02*
X181609580Y-92072856D01*
X181609580Y-92072856D02*
X181514342Y-92120475D01*
X181514342Y-92120475D02*
X181323866Y-92168094D01*
X181323866Y-92168094D02*
X181085771Y-92168094D01*
X181085771Y-92168094D02*
X180895295Y-92120475D01*
X180895295Y-92120475D02*
X180800057Y-92072856D01*
X180800057Y-92072856D02*
X180752438Y-92025237D01*
X180752438Y-92025237D02*
X180704819Y-91929999D01*
X181704819Y-91168094D02*
X180704819Y-91168094D01*
X181323866Y-91072856D02*
X181704819Y-90787142D01*
X181038152Y-90787142D02*
X181419104Y-91168094D01*
X184333333Y-89414819D02*
X183857143Y-89414819D01*
X183857143Y-89414819D02*
X183857143Y-88414819D01*
X184571429Y-88414819D02*
X185190476Y-88414819D01*
X185190476Y-88414819D02*
X184857143Y-88795771D01*
X184857143Y-88795771D02*
X185000000Y-88795771D01*
X185000000Y-88795771D02*
X185095238Y-88843390D01*
X185095238Y-88843390D02*
X185142857Y-88891009D01*
X185142857Y-88891009D02*
X185190476Y-88986247D01*
X185190476Y-88986247D02*
X185190476Y-89224342D01*
X185190476Y-89224342D02*
X185142857Y-89319580D01*
X185142857Y-89319580D02*
X185095238Y-89367200D01*
X185095238Y-89367200D02*
X185000000Y-89414819D01*
X185000000Y-89414819D02*
X184714286Y-89414819D01*
X184714286Y-89414819D02*
X184619048Y-89367200D01*
X184619048Y-89367200D02*
X184571429Y-89319580D01*
D12*
%TO.C,C7*%
X188901252Y-89080000D02*
X187478748Y-89080000D01*
X188901252Y-90900000D02*
X187478748Y-90900000D01*
%TO.C,L4*%
X193360000Y-83200000D02*
X198600000Y-83200000D01*
X193360000Y-87065000D02*
X193360000Y-83200000D01*
X193360000Y-93440000D02*
X193360000Y-89575000D01*
X193360000Y-93440000D02*
X198600000Y-93440000D01*
X198600000Y-87065000D02*
X198600000Y-83200000D01*
X198600000Y-93440000D02*
X198600000Y-89575000D01*
%TO.C,C17*%
X184020000Y-77081248D02*
X184020000Y-78503752D01*
X185840000Y-77081248D02*
X185840000Y-78503752D01*
%TO.C,RF_OUT1*%
X201717500Y-85210000D02*
X201717500Y-85710000D01*
X201717500Y-85710000D02*
X202217500Y-85460000D01*
X202217500Y-85460000D02*
X201717500Y-85210000D01*
X202767500Y-84620000D02*
X202767500Y-83510000D01*
X202767500Y-87410000D02*
X202767500Y-86300000D01*
X206477500Y-84620000D02*
X206477500Y-83510000D01*
X206477500Y-87410000D02*
X206477500Y-86300000D01*
%TO.C,C14*%
X187740000Y-77058748D02*
X187740000Y-78481252D01*
X189560000Y-77058748D02*
X189560000Y-78481252D01*
D13*
%TO.C,Power1*%
X179350000Y-71012500D02*
X179350000Y-69632500D01*
X179350000Y-71012500D02*
X181330000Y-71012500D01*
D12*
X188350000Y-62972500D02*
X179400000Y-62952500D01*
D13*
X188350000Y-71012500D02*
X186370000Y-71012500D01*
D14*
X183950000Y-72412500D02*
G75*
G02*
X183750000Y-72412500I-100000J0D01*
G01*
X183750000Y-72412500D02*
G75*
G02*
X183950000Y-72412500I100000J0D01*
G01*
D12*
%TO.C,C15*%
X169181651Y-67583000D02*
X169181651Y-66517000D01*
X169221651Y-67818000D02*
X169221651Y-66282000D01*
X169261651Y-67998000D02*
X169261651Y-66102000D01*
X169301651Y-68148000D02*
X169301651Y-65952000D01*
X169341651Y-68279000D02*
X169341651Y-65821000D01*
X169381651Y-68396000D02*
X169381651Y-65704000D01*
X169421651Y-68503000D02*
X169421651Y-65597000D01*
X169461651Y-68602000D02*
X169461651Y-65498000D01*
X169501651Y-68695000D02*
X169501651Y-65405000D01*
X169541651Y-68781000D02*
X169541651Y-65319000D01*
X169581651Y-68863000D02*
X169581651Y-65237000D01*
X169621651Y-68940000D02*
X169621651Y-65160000D01*
X169661651Y-69014000D02*
X169661651Y-65086000D01*
X169701651Y-69084000D02*
X169701651Y-65016000D01*
X169741651Y-66010000D02*
X169741651Y-64948000D01*
X169741651Y-69152000D02*
X169741651Y-68090000D01*
X169781651Y-66010000D02*
X169781651Y-64884000D01*
X169781651Y-69216000D02*
X169781651Y-68090000D01*
X169821651Y-66010000D02*
X169821651Y-64822000D01*
X169821651Y-69278000D02*
X169821651Y-68090000D01*
X169861651Y-66010000D02*
X169861651Y-64763000D01*
X169861651Y-69337000D02*
X169861651Y-68090000D01*
X169901651Y-66010000D02*
X169901651Y-64705000D01*
X169901651Y-69395000D02*
X169901651Y-68090000D01*
X169941651Y-66010000D02*
X169941651Y-64650000D01*
X169941651Y-69450000D02*
X169941651Y-68090000D01*
X169981651Y-66010000D02*
X169981651Y-64596000D01*
X169981651Y-69504000D02*
X169981651Y-68090000D01*
X170021651Y-66010000D02*
X170021651Y-64545000D01*
X170021651Y-69555000D02*
X170021651Y-68090000D01*
X170061651Y-66010000D02*
X170061651Y-64494000D01*
X170061651Y-69606000D02*
X170061651Y-68090000D01*
X170101651Y-66010000D02*
X170101651Y-64446000D01*
X170101651Y-69654000D02*
X170101651Y-68090000D01*
X170141651Y-66010000D02*
X170141651Y-64399000D01*
X170141651Y-69701000D02*
X170141651Y-68090000D01*
X170181651Y-66010000D02*
X170181651Y-64353000D01*
X170181651Y-69747000D02*
X170181651Y-68090000D01*
X170221651Y-66010000D02*
X170221651Y-64309000D01*
X170221651Y-69791000D02*
X170221651Y-68090000D01*
X170261651Y-66010000D02*
X170261651Y-64266000D01*
X170261651Y-69834000D02*
X170261651Y-68090000D01*
X170301651Y-66010000D02*
X170301651Y-64224000D01*
X170301651Y-69876000D02*
X170301651Y-68090000D01*
X170341651Y-66010000D02*
X170341651Y-64183000D01*
X170341651Y-69917000D02*
X170341651Y-68090000D01*
X170381651Y-66010000D02*
X170381651Y-64143000D01*
X170381651Y-69957000D02*
X170381651Y-68090000D01*
X170421651Y-66010000D02*
X170421651Y-64105000D01*
X170421651Y-69995000D02*
X170421651Y-68090000D01*
X170461651Y-66010000D02*
X170461651Y-64067000D01*
X170461651Y-70033000D02*
X170461651Y-68090000D01*
X170501651Y-66010000D02*
X170501651Y-64031000D01*
X170501651Y-70069000D02*
X170501651Y-68090000D01*
X170541651Y-66010000D02*
X170541651Y-63995000D01*
X170541651Y-70105000D02*
X170541651Y-68090000D01*
X170581651Y-66010000D02*
X170581651Y-63960000D01*
X170581651Y-70140000D02*
X170581651Y-68090000D01*
X170621651Y-66010000D02*
X170621651Y-63926000D01*
X170621651Y-70174000D02*
X170621651Y-68090000D01*
X170661651Y-66010000D02*
X170661651Y-63894000D01*
X170661651Y-70206000D02*
X170661651Y-68090000D01*
X170701651Y-66010000D02*
X170701651Y-63861000D01*
X170701651Y-70239000D02*
X170701651Y-68090000D01*
X170741651Y-66010000D02*
X170741651Y-63830000D01*
X170741651Y-70270000D02*
X170741651Y-68090000D01*
X170781651Y-66010000D02*
X170781651Y-63800000D01*
X170781651Y-70300000D02*
X170781651Y-68090000D01*
X170821651Y-66010000D02*
X170821651Y-63770000D01*
X170821651Y-70330000D02*
X170821651Y-68090000D01*
X170861651Y-66010000D02*
X170861651Y-63741000D01*
X170861651Y-70359000D02*
X170861651Y-68090000D01*
X170901651Y-66010000D02*
X170901651Y-63712000D01*
X170901651Y-70388000D02*
X170901651Y-68090000D01*
X170941651Y-66010000D02*
X170941651Y-63685000D01*
X170941651Y-70415000D02*
X170941651Y-68090000D01*
X170981651Y-66010000D02*
X170981651Y-63658000D01*
X170981651Y-70442000D02*
X170981651Y-68090000D01*
X171021651Y-66010000D02*
X171021651Y-63632000D01*
X171021651Y-70468000D02*
X171021651Y-68090000D01*
X171061651Y-66010000D02*
X171061651Y-63606000D01*
X171061651Y-70494000D02*
X171061651Y-68090000D01*
X171101651Y-66010000D02*
X171101651Y-63581000D01*
X171101651Y-70519000D02*
X171101651Y-68090000D01*
X171141651Y-66010000D02*
X171141651Y-63557000D01*
X171141651Y-70543000D02*
X171141651Y-68090000D01*
X171181651Y-66010000D02*
X171181651Y-63533000D01*
X171181651Y-70567000D02*
X171181651Y-68090000D01*
X171221651Y-66010000D02*
X171221651Y-63510000D01*
X171221651Y-70590000D02*
X171221651Y-68090000D01*
X171261651Y-66010000D02*
X171261651Y-63488000D01*
X171261651Y-70612000D02*
X171261651Y-68090000D01*
X171301651Y-66010000D02*
X171301651Y-63466000D01*
X171301651Y-70634000D02*
X171301651Y-68090000D01*
X171341651Y-66010000D02*
X171341651Y-63444000D01*
X171341651Y-70656000D02*
X171341651Y-68090000D01*
X171381651Y-66010000D02*
X171381651Y-63423000D01*
X171381651Y-70677000D02*
X171381651Y-68090000D01*
X171421651Y-66010000D02*
X171421651Y-63403000D01*
X171421651Y-70697000D02*
X171421651Y-68090000D01*
X171461651Y-66010000D02*
X171461651Y-63384000D01*
X171461651Y-70716000D02*
X171461651Y-68090000D01*
X171501651Y-66010000D02*
X171501651Y-63364000D01*
X171501651Y-70736000D02*
X171501651Y-68090000D01*
X171541651Y-66010000D02*
X171541651Y-63346000D01*
X171541651Y-70754000D02*
X171541651Y-68090000D01*
X171581651Y-66010000D02*
X171581651Y-63328000D01*
X171581651Y-70772000D02*
X171581651Y-68090000D01*
X171621651Y-66010000D02*
X171621651Y-63310000D01*
X171621651Y-70790000D02*
X171621651Y-68090000D01*
X171661651Y-66010000D02*
X171661651Y-63293000D01*
X171661651Y-70807000D02*
X171661651Y-68090000D01*
X171701651Y-66010000D02*
X171701651Y-63276000D01*
X171701651Y-70824000D02*
X171701651Y-68090000D01*
X171741651Y-66010000D02*
X171741651Y-63260000D01*
X171741651Y-70840000D02*
X171741651Y-68090000D01*
X171781651Y-66010000D02*
X171781651Y-63245000D01*
X171781651Y-70855000D02*
X171781651Y-68090000D01*
X171821651Y-70871000D02*
X171821651Y-63229000D01*
X171861651Y-70885000D02*
X171861651Y-63215000D01*
X171901651Y-70900000D02*
X171901651Y-63200000D01*
X171941651Y-70913000D02*
X171941651Y-63187000D01*
X171981651Y-70927000D02*
X171981651Y-63173000D01*
X172021651Y-70939000D02*
X172021651Y-63161000D01*
X172061651Y-70952000D02*
X172061651Y-63148000D01*
X172101651Y-70964000D02*
X172101651Y-63136000D01*
X172141651Y-70975000D02*
X172141651Y-63125000D01*
X172181651Y-70986000D02*
X172181651Y-63114000D01*
X172221651Y-70997000D02*
X172221651Y-63103000D01*
X172261651Y-71007000D02*
X172261651Y-63093000D01*
X172301651Y-71017000D02*
X172301651Y-63083000D01*
X172341651Y-71026000D02*
X172341651Y-63074000D01*
X172381651Y-71035000D02*
X172381651Y-63065000D01*
X172421651Y-71044000D02*
X172421651Y-63056000D01*
X172461651Y-71052000D02*
X172461651Y-63048000D01*
X172501651Y-71060000D02*
X172501651Y-63040000D01*
X172541651Y-71067000D02*
X172541651Y-63033000D01*
X172582651Y-71074000D02*
X172582651Y-63026000D01*
X172622651Y-71080000D02*
X172622651Y-63020000D01*
X172662651Y-71087000D02*
X172662651Y-63013000D01*
X172702651Y-71092000D02*
X172702651Y-63008000D01*
X172742651Y-71098000D02*
X172742651Y-63002000D01*
X172782651Y-71102000D02*
X172782651Y-62998000D01*
X172822651Y-71107000D02*
X172822651Y-62993000D01*
X172862651Y-71111000D02*
X172862651Y-62989000D01*
X172902651Y-71115000D02*
X172902651Y-62985000D01*
X172942651Y-71118000D02*
X172942651Y-62982000D01*
X172982651Y-71121000D02*
X172982651Y-62979000D01*
X173022651Y-71124000D02*
X173022651Y-62976000D01*
X173062651Y-71126000D02*
X173062651Y-62974000D01*
X173102651Y-71127000D02*
X173102651Y-62973000D01*
X173142651Y-71129000D02*
X173142651Y-62971000D01*
X173182651Y-71130000D02*
X173182651Y-62970000D01*
X173222651Y-71130000D02*
X173222651Y-62970000D01*
X173262651Y-71130000D02*
X173262651Y-62970000D01*
X177272349Y-69765000D02*
X177272349Y-68965000D01*
X177672349Y-69365000D02*
X176872349Y-69365000D01*
X177382651Y-67050000D02*
G75*
G02*
X169142651Y-67050000I-4120000J0D01*
G01*
X169142651Y-67050000D02*
G75*
G02*
X177382651Y-67050000I4120000J0D01*
G01*
%TO.C,C9*%
X161440000Y-95321252D02*
X161440000Y-93898748D01*
X163260000Y-95321252D02*
X163260000Y-93898748D01*
%TO.C,C4*%
X166961252Y-92360000D02*
X165538748Y-92360000D01*
X166961252Y-94180000D02*
X165538748Y-94180000D01*
%TO.C,U1*%
X152535000Y-92725000D02*
X152535000Y-92995000D01*
X152535000Y-92995000D02*
X149705000Y-92995000D01*
X152535000Y-99355000D02*
X151435000Y-99355000D01*
X152535000Y-99625000D02*
X152535000Y-99355000D01*
X158955000Y-92725000D02*
X152535000Y-92725000D01*
%TO.C,C1*%
X201768748Y-91510000D02*
X203191252Y-91510000D01*
X201768748Y-93330000D02*
X203191252Y-93330000D01*
%TO.C,RF_IN1*%
X167995000Y-99670000D02*
X169105000Y-99670000D01*
X167995000Y-103380000D02*
X169105000Y-103380000D01*
X169695000Y-98620000D02*
X169945000Y-99120000D01*
X169945000Y-99120000D02*
X170195000Y-98620000D01*
X170195000Y-98620000D02*
X169695000Y-98620000D01*
X170785000Y-99670000D02*
X171895000Y-99670000D01*
X170785000Y-103380000D02*
X171895000Y-103380000D01*
%TO.C,C3*%
X181440000Y-78501252D02*
X181440000Y-77078748D01*
X183260000Y-78501252D02*
X183260000Y-77078748D01*
%TO.C,D1*%
X157539386Y-102749999D02*
G75*
G02*
X157479784Y-100482635I-1311152J1099999D01*
G01*
%TO.C,U2*%
X170430000Y-95802500D02*
X172230000Y-95802500D01*
X171430000Y-92582500D02*
X170630000Y-92582500D01*
X171430000Y-92582500D02*
X172230000Y-92582500D01*
X170130000Y-92632500D02*
X169890000Y-92302500D01*
X170370000Y-92302500D01*
X170130000Y-92632500D01*
G36*
X170130000Y-92632500D02*
G01*
X169890000Y-92302500D01*
X170370000Y-92302500D01*
X170130000Y-92632500D01*
G37*
%TO.C,C6*%
X192358748Y-75550000D02*
X193781252Y-75550000D01*
X192358748Y-77370000D02*
X193781252Y-77370000D01*
%TO.C,C2*%
X201761248Y-94020000D02*
X203183752Y-94020000D01*
X201761248Y-95840000D02*
X203183752Y-95840000D01*
%TO.C,C8*%
X146780000Y-94941252D02*
X146780000Y-93518748D01*
X148600000Y-94941252D02*
X148600000Y-93518748D01*
%TO.C,C10*%
X197580000Y-95758748D02*
X197580000Y-97181252D01*
X199400000Y-95758748D02*
X199400000Y-97181252D01*
%TO.C,R2*%
X176020000Y-91672936D02*
X176020000Y-93127064D01*
X177840000Y-91672936D02*
X177840000Y-93127064D01*
%TO.C,R3*%
X178460000Y-91702936D02*
X178460000Y-93157064D01*
X180280000Y-91702936D02*
X180280000Y-93157064D01*
%TO.C,L3*%
X181030000Y-80820000D02*
X188430000Y-80820000D01*
X181030000Y-83120000D02*
X181030000Y-80820000D01*
X181030000Y-88220000D02*
X181030000Y-85920000D01*
X188430000Y-80820000D02*
X188430000Y-83120000D01*
X188430000Y-85920000D02*
X188430000Y-88220000D01*
X188430000Y-88220000D02*
X181030000Y-88220000D01*
%TD*%
%LPC*%
D15*
%TO.C,C7*%
X189752500Y-89990000D03*
X186627500Y-89990000D03*
%TD*%
D16*
%TO.C,L4*%
X193440000Y-88320000D03*
X198520000Y-88320000D03*
%TD*%
D17*
%TO.C,H3*%
X143872944Y-100222944D03*
X144575888Y-98525888D03*
X144575888Y-101920000D03*
X146272944Y-97822944D03*
D18*
X146272944Y-100222944D03*
D17*
X146272944Y-102622944D03*
X147970000Y-98525888D03*
X147970000Y-101920000D03*
X148672944Y-100222944D03*
%TD*%
D19*
%TO.C,C17*%
X184930000Y-76230000D03*
X184930000Y-79355000D03*
%TD*%
D20*
%TO.C,RF_OUT1*%
X204677500Y-85460000D03*
D21*
X204477500Y-88285000D03*
X204477500Y-82635000D03*
%TD*%
D19*
%TO.C,C14*%
X188650000Y-76207500D03*
X188650000Y-79332500D03*
%TD*%
D22*
%TO.C,Power1*%
X183850000Y-70312500D03*
D23*
X183850000Y-64312500D03*
D24*
X179150000Y-67312500D03*
%TD*%
D25*
%TO.C,C15*%
X175762651Y-67050000D03*
D26*
X170762651Y-67050000D03*
%TD*%
D27*
%TO.C,C9*%
X162350000Y-96172500D03*
X162350000Y-93047500D03*
%TD*%
D15*
%TO.C,C4*%
X167812500Y-93270000D03*
X164687500Y-93270000D03*
%TD*%
D28*
%TO.C,U1*%
X150805000Y-93895000D03*
D29*
X157415000Y-96175000D03*
D28*
X150805000Y-98455000D03*
%TD*%
D17*
%TO.C,H4*%
X201242944Y-100172944D03*
X201945888Y-98475888D03*
X201945888Y-101870000D03*
X203642944Y-97772944D03*
D18*
X203642944Y-100172944D03*
D17*
X203642944Y-102572944D03*
X205340000Y-98475888D03*
X205340000Y-101870000D03*
X206042944Y-100172944D03*
%TD*%
D30*
%TO.C,C1*%
X200917500Y-92420000D03*
X204042500Y-92420000D03*
%TD*%
D31*
%TO.C,RF_IN1*%
X169945000Y-101580000D03*
D32*
X167120000Y-101380000D03*
X172770000Y-101380000D03*
%TD*%
D33*
%TO.C,Q1*%
X156840000Y-81430000D03*
D34*
X176700000Y-86880000D03*
D35*
X176700000Y-81430000D03*
X176700000Y-75980000D03*
%TD*%
D27*
%TO.C,C3*%
X182350000Y-79352500D03*
X182350000Y-76227500D03*
%TD*%
D36*
%TO.C,D1*%
X158768234Y-101650000D03*
D37*
X156228234Y-101650000D03*
%TD*%
D38*
%TO.C,U2*%
X169980000Y-93242500D03*
X169980000Y-94192500D03*
X169980000Y-95142500D03*
X172680000Y-95142500D03*
X172680000Y-93242500D03*
%TD*%
D30*
%TO.C,C6*%
X191507500Y-76460000D03*
X194632500Y-76460000D03*
%TD*%
D17*
%TO.C,H1*%
X143812944Y-66222944D03*
X144515888Y-64525888D03*
X144515888Y-67920000D03*
X146212944Y-63822944D03*
D18*
X146212944Y-66222944D03*
D17*
X146212944Y-68622944D03*
X147910000Y-64525888D03*
X147910000Y-67920000D03*
X148612944Y-66222944D03*
%TD*%
D30*
%TO.C,C2*%
X200910000Y-94930000D03*
X204035000Y-94930000D03*
%TD*%
D27*
%TO.C,C8*%
X147690000Y-95792500D03*
X147690000Y-92667500D03*
%TD*%
D19*
%TO.C,C10*%
X198490000Y-94907500D03*
X198490000Y-98032500D03*
%TD*%
D17*
%TO.C,H2*%
X201352944Y-66177944D03*
X202055888Y-64480888D03*
X202055888Y-67875000D03*
X203752944Y-63777944D03*
D18*
X203752944Y-66177944D03*
D17*
X203752944Y-68577944D03*
X205450000Y-64480888D03*
X205450000Y-67875000D03*
X206152944Y-66177944D03*
%TD*%
D39*
%TO.C,R2*%
X176930000Y-90850000D03*
X176930000Y-93950000D03*
%TD*%
%TO.C,R3*%
X179370000Y-90880000D03*
X179370000Y-93980000D03*
%TD*%
D40*
%TO.C,L3*%
X188205000Y-84520000D03*
X181255000Y-84520000D03*
%TD*%
%LPD*%
M02*
