%TF.GenerationSoftware,KiCad,Pcbnew,8.0.0-unknown-202403021604~8dce6c0b67~ubuntu22.04.1*%
%TF.CreationDate,2024-03-03T10:33:34+05:30*%
%TF.ProjectId,HF-PA-v10,48462d50-412d-4763-9130-2e6b69636164,rev?*%
%TF.SameCoordinates,Original*%
%TF.FileFunction,Legend,Bot*%
%TF.FilePolarity,Positive*%
%FSLAX46Y46*%
G04 Gerber Fmt 4.6, Leading zero omitted, Abs format (unit mm)*
G04 Created by KiCad (PCBNEW 8.0.0-unknown-202403021604~8dce6c0b67~ubuntu22.04.1) date 2024-03-03 10:33:34*
%MOMM*%
%LPD*%
G01*
G04 APERTURE LIST*
%ADD10C,2.000000*%
%ADD11C,0.800000*%
%ADD12C,6.400000*%
%ADD13R,4.200000X1.350000*%
%ADD14O,4.400000X2.200000*%
%ADD15O,4.000000X2.000000*%
%ADD16O,2.000000X4.000000*%
%ADD17R,1.600000X1.600000*%
%ADD18C,1.600000*%
%ADD19R,1.350000X4.200000*%
%ADD20O,3.600000X3.600000*%
%ADD21R,4.500000X2.500000*%
%ADD22O,4.500000X2.500000*%
%ADD23R,2.200000X2.200000*%
%ADD24O,2.200000X2.200000*%
G04 APERTURE END LIST*
%LPC*%
D10*
%TO.C,L4*%
X193440000Y-88320000D03*
X198520000Y-88320000D03*
%TD*%
D11*
%TO.C,H3*%
X143872944Y-100222944D03*
X144575888Y-98525888D03*
X144575888Y-101920000D03*
X146272944Y-97822944D03*
D12*
X146272944Y-100222944D03*
D11*
X146272944Y-102622944D03*
X147970000Y-98525888D03*
X147970000Y-101920000D03*
X148672944Y-100222944D03*
%TD*%
D13*
%TO.C,RF_OUT1*%
X204477500Y-88285000D03*
X204477500Y-82635000D03*
%TD*%
D14*
%TO.C,Power1*%
X183850000Y-70312500D03*
D15*
X183850000Y-64312500D03*
D16*
X179150000Y-67312500D03*
%TD*%
D17*
%TO.C,C15*%
X175762651Y-67050000D03*
D18*
X170762651Y-67050000D03*
%TD*%
D11*
%TO.C,H4*%
X201242944Y-100172944D03*
X201945888Y-98475888D03*
X201945888Y-101870000D03*
X203642944Y-97772944D03*
D12*
X203642944Y-100172944D03*
D11*
X203642944Y-102572944D03*
X205340000Y-98475888D03*
X205340000Y-101870000D03*
X206042944Y-100172944D03*
%TD*%
D19*
%TO.C,RF_IN1*%
X167120000Y-101380000D03*
X172770000Y-101380000D03*
%TD*%
D20*
%TO.C,Q1*%
X156840000Y-81430000D03*
D21*
X176700000Y-86880000D03*
D22*
X176700000Y-81430000D03*
X176700000Y-75980000D03*
%TD*%
D23*
%TO.C,D1*%
X158768234Y-101650000D03*
D24*
X156228234Y-101650000D03*
%TD*%
D11*
%TO.C,H1*%
X143812944Y-66222944D03*
X144515888Y-64525888D03*
X144515888Y-67920000D03*
X146212944Y-63822944D03*
D12*
X146212944Y-66222944D03*
D11*
X146212944Y-68622944D03*
X147910000Y-64525888D03*
X147910000Y-67920000D03*
X148612944Y-66222944D03*
%TD*%
%TO.C,H2*%
X201352944Y-66177944D03*
X202055888Y-64480888D03*
X202055888Y-67875000D03*
X203752944Y-63777944D03*
D12*
X203752944Y-66177944D03*
D11*
X203752944Y-68577944D03*
X205450000Y-64480888D03*
X205450000Y-67875000D03*
X206152944Y-66177944D03*
%TD*%
%LPD*%
M02*
