%TF.GenerationSoftware,KiCad,Pcbnew,8.0.0-unknown-202403021604~8dce6c0b67~ubuntu22.04.1*%
%TF.CreationDate,2024-03-03T10:33:34+05:30*%
%TF.ProjectId,HF-PA-v10,48462d50-412d-4763-9130-2e6b69636164,rev?*%
%TF.SameCoordinates,Original*%
%TF.FileFunction,Soldermask,Top*%
%TF.FilePolarity,Negative*%
%FSLAX46Y46*%
G04 Gerber Fmt 4.6, Leading zero omitted, Abs format (unit mm)*
G04 Created by KiCad (PCBNEW 8.0.0-unknown-202403021604~8dce6c0b67~ubuntu22.04.1) date 2024-03-03 10:33:34*
%MOMM*%
%LPD*%
G01*
G04 APERTURE LIST*
G04 Aperture macros list*
%AMRoundRect*
0 Rectangle with rounded corners*
0 $1 Rounding radius*
0 $2 $3 $4 $5 $6 $7 $8 $9 X,Y pos of 4 corners*
0 Add a 4 corners polygon primitive as box body*
4,1,4,$2,$3,$4,$5,$6,$7,$8,$9,$2,$3,0*
0 Add four circle primitives for the rounded corners*
1,1,$1+$1,$2,$3*
1,1,$1+$1,$4,$5*
1,1,$1+$1,$6,$7*
1,1,$1+$1,$8,$9*
0 Add four rect primitives between the rounded corners*
20,1,$1+$1,$2,$3,$4,$5,0*
20,1,$1+$1,$4,$5,$6,$7,0*
20,1,$1+$1,$6,$7,$8,$9,0*
20,1,$1+$1,$8,$9,$2,$3,0*%
G04 Aperture macros list end*
%ADD10RoundRect,0.250000X0.412500X0.650000X-0.412500X0.650000X-0.412500X-0.650000X0.412500X-0.650000X0*%
%ADD11C,2.000000*%
%ADD12C,0.800000*%
%ADD13C,6.400000*%
%ADD14RoundRect,0.250000X-0.650000X0.412500X-0.650000X-0.412500X0.650000X-0.412500X0.650000X0.412500X0*%
%ADD15R,3.600000X1.270000*%
%ADD16R,4.200000X1.350000*%
%ADD17O,4.400000X2.200000*%
%ADD18O,4.000000X2.000000*%
%ADD19O,2.000000X4.000000*%
%ADD20R,1.600000X1.600000*%
%ADD21C,1.600000*%
%ADD22RoundRect,0.250000X0.650000X-0.412500X0.650000X0.412500X-0.650000X0.412500X-0.650000X-0.412500X0*%
%ADD23RoundRect,0.250000X-0.850000X-0.350000X0.850000X-0.350000X0.850000X0.350000X-0.850000X0.350000X0*%
%ADD24RoundRect,0.249997X-3.260003X-2.650003X3.260003X-2.650003X3.260003X2.650003X-3.260003X2.650003X0*%
%ADD25RoundRect,0.250000X-0.412500X-0.650000X0.412500X-0.650000X0.412500X0.650000X-0.412500X0.650000X0*%
%ADD26R,1.270000X3.600000*%
%ADD27R,1.350000X4.200000*%
%ADD28O,3.600000X3.600000*%
%ADD29R,4.500000X2.500000*%
%ADD30O,4.500000X2.500000*%
%ADD31R,2.200000X2.200000*%
%ADD32O,2.200000X2.200000*%
%ADD33RoundRect,0.162500X-0.617500X-0.162500X0.617500X-0.162500X0.617500X0.162500X-0.617500X0.162500X0*%
%ADD34RoundRect,0.250000X-0.625000X0.400000X-0.625000X-0.400000X0.625000X-0.400000X0.625000X0.400000X0*%
%ADD35R,2.050000X2.200000*%
G04 APERTURE END LIST*
D10*
%TO.C,C7*%
X189752500Y-89990000D03*
X186627500Y-89990000D03*
%TD*%
D11*
%TO.C,L4*%
X193440000Y-88320000D03*
X198520000Y-88320000D03*
%TD*%
D12*
%TO.C,H3*%
X143872944Y-100222944D03*
X144575888Y-98525888D03*
X144575888Y-101920000D03*
X146272944Y-97822944D03*
D13*
X146272944Y-100222944D03*
D12*
X146272944Y-102622944D03*
X147970000Y-98525888D03*
X147970000Y-101920000D03*
X148672944Y-100222944D03*
%TD*%
D14*
%TO.C,C17*%
X184930000Y-76230000D03*
X184930000Y-79355000D03*
%TD*%
D15*
%TO.C,RF_OUT1*%
X204677500Y-85460000D03*
D16*
X204477500Y-88285000D03*
X204477500Y-82635000D03*
%TD*%
D14*
%TO.C,C14*%
X188650000Y-76207500D03*
X188650000Y-79332500D03*
%TD*%
D17*
%TO.C,Power1*%
X183850000Y-70312500D03*
D18*
X183850000Y-64312500D03*
D19*
X179150000Y-67312500D03*
%TD*%
D20*
%TO.C,C15*%
X175762651Y-67050000D03*
D21*
X170762651Y-67050000D03*
%TD*%
D22*
%TO.C,C9*%
X162350000Y-96172500D03*
X162350000Y-93047500D03*
%TD*%
D10*
%TO.C,C4*%
X167812500Y-93270000D03*
X164687500Y-93270000D03*
%TD*%
D23*
%TO.C,U1*%
X150805000Y-93895000D03*
D24*
X157415000Y-96175000D03*
D23*
X150805000Y-98455000D03*
%TD*%
D12*
%TO.C,H4*%
X201242944Y-100172944D03*
X201945888Y-98475888D03*
X201945888Y-101870000D03*
X203642944Y-97772944D03*
D13*
X203642944Y-100172944D03*
D12*
X203642944Y-102572944D03*
X205340000Y-98475888D03*
X205340000Y-101870000D03*
X206042944Y-100172944D03*
%TD*%
D25*
%TO.C,C1*%
X200917500Y-92420000D03*
X204042500Y-92420000D03*
%TD*%
D26*
%TO.C,RF_IN1*%
X169945000Y-101580000D03*
D27*
X167120000Y-101380000D03*
X172770000Y-101380000D03*
%TD*%
D28*
%TO.C,Q1*%
X156840000Y-81430000D03*
D29*
X176700000Y-86880000D03*
D30*
X176700000Y-81430000D03*
X176700000Y-75980000D03*
%TD*%
D22*
%TO.C,C3*%
X182350000Y-79352500D03*
X182350000Y-76227500D03*
%TD*%
D31*
%TO.C,D1*%
X158768234Y-101650000D03*
D32*
X156228234Y-101650000D03*
%TD*%
D33*
%TO.C,U2*%
X169980000Y-93242500D03*
X169980000Y-94192500D03*
X169980000Y-95142500D03*
X172680000Y-95142500D03*
X172680000Y-93242500D03*
%TD*%
D25*
%TO.C,C6*%
X191507500Y-76460000D03*
X194632500Y-76460000D03*
%TD*%
D12*
%TO.C,H1*%
X143812944Y-66222944D03*
X144515888Y-64525888D03*
X144515888Y-67920000D03*
X146212944Y-63822944D03*
D13*
X146212944Y-66222944D03*
D12*
X146212944Y-68622944D03*
X147910000Y-64525888D03*
X147910000Y-67920000D03*
X148612944Y-66222944D03*
%TD*%
D25*
%TO.C,C2*%
X200910000Y-94930000D03*
X204035000Y-94930000D03*
%TD*%
D22*
%TO.C,C8*%
X147690000Y-95792500D03*
X147690000Y-92667500D03*
%TD*%
D14*
%TO.C,C10*%
X198490000Y-94907500D03*
X198490000Y-98032500D03*
%TD*%
D12*
%TO.C,H2*%
X201352944Y-66177944D03*
X202055888Y-64480888D03*
X202055888Y-67875000D03*
X203752944Y-63777944D03*
D13*
X203752944Y-66177944D03*
D12*
X203752944Y-68577944D03*
X205450000Y-64480888D03*
X205450000Y-67875000D03*
X206152944Y-66177944D03*
%TD*%
D34*
%TO.C,R2*%
X176930000Y-90850000D03*
X176930000Y-93950000D03*
%TD*%
%TO.C,R3*%
X179370000Y-90880000D03*
X179370000Y-93980000D03*
%TD*%
D35*
%TO.C,L3*%
X188205000Y-84520000D03*
X181255000Y-84520000D03*
%TD*%
M02*
