M48
; DRILL file {KiCad 8.99.0-unknown-e538b98286~178~ubuntu22.04.1} date 2024-04-14T11:06:52+0530
; FORMAT={-:-/ absolute / inch / decimal}
; #@! TF.CreationDate,2024-04-14T11:06:52+05:30
; #@! TF.GenerationSoftware,Kicad,Pcbnew,8.99.0-unknown-e538b98286~178~ubuntu22.04.1
; #@! TF.FileFunction,Plated,1,2,PTH
FMAT,2
INCH
; #@! TA.AperFunction,Plated,PTH,ViaDrill
T1C0.0157
; #@! TA.AperFunction,Plated,PTH,ComponentDrill
T2C0.0197
; #@! TA.AperFunction,Plated,PTH,ComponentDrill
T3C0.0315
; #@! TA.AperFunction,Plated,PTH,ComponentDrill
T4C0.0394
; #@! TA.AperFunction,Plated,PTH,ComponentDrill
T5C0.0433
; #@! TA.AperFunction,Plated,PTH,ComponentDrill
T6C0.0591
; #@! TA.AperFunction,Plated,PTH,ComponentDrill
T7C0.1260
%
G90
G05
T1
X5.578Y-2.826
X5.578Y-2.926
X5.578Y-3.026
X5.578Y-3.126
X5.578Y-3.226
X5.578Y-3.326
X5.578Y-3.426
X5.578Y-3.526
X5.578Y-3.6874
X5.578Y-3.7874
X5.578Y-3.8874
X5.578Y-3.9874
X5.6756Y-2.826
X5.6756Y-2.926
X5.6756Y-3.026
X5.6756Y-3.126
X5.6756Y-3.226
X5.6756Y-3.326
X5.6756Y-3.426
X5.6756Y-3.526
X5.6768Y-3.6898
X5.6768Y-3.7898
X5.6768Y-3.8898
X5.6768Y-3.9898
X6.002Y-2.5575
X6.002Y-2.6575
X6.102Y-2.5575
X6.102Y-2.6575
X6.202Y-2.5575
X6.202Y-2.6575
X6.302Y-2.5575
X6.302Y-2.6575
X6.402Y-2.5575
X6.402Y-2.6575
X6.502Y-2.5575
X6.502Y-2.6575
X6.5811Y-4.202
X6.5811Y-4.2575
X6.6551Y-4.2035
X6.6551Y-4.2559
X6.7992Y-3.915
X6.7992Y-3.9717
X7.0178Y-3.9304
X7.1178Y-3.8304
X7.1178Y-3.9304
X7.2178Y-2.6304
X7.2178Y-3.8304
X7.3178Y-3.8304
X7.4126Y-3.3224
X7.4138Y-3.3543
X7.4573Y-2.651
X7.5178Y-3.7304
X7.5178Y-3.8304
X7.5178Y-4.0304
X7.5573Y-2.551
X7.5573Y-2.651
X7.6178Y-3.7304
X7.6178Y-3.8304
X7.6178Y-4.0304
X7.6573Y-2.551
X7.6573Y-2.651
X7.6573Y-2.751
X7.7178Y-4.0304
X7.7573Y-2.551
X7.7573Y-2.651
X7.7573Y-2.751
X7.8178Y-2.8304
X7.8178Y-3.9304
X7.8178Y-4.0304
X7.8573Y-2.551
X7.8573Y-2.651
X7.8573Y-2.751
X7.9178Y-2.8304
X7.9178Y-2.9304
X7.9178Y-3.0304
X7.9178Y-3.1304
X8.0178Y-2.8304
X8.0178Y-2.9304
X8.0178Y-3.0304
X8.0178Y-3.1304
T2
X5.4882Y-4.1622
X5.4894Y-2.6063
X5.5159Y-4.0954
X5.5159Y-4.229
X5.517Y-2.5395
X5.517Y-2.6731
X5.5827Y-4.0677
X5.5827Y-4.2567
X5.5839Y-2.5118
X5.5839Y-2.7008
X5.6495Y-4.0954
X5.6495Y-4.229
X5.6507Y-2.5395
X5.6507Y-2.6731
X5.6772Y-4.1622
X5.6783Y-2.6063
X7.9252Y-4.165
X7.9273Y-2.6054
X7.9529Y-4.0981
X7.9529Y-4.2318
X7.955Y-2.5386
X7.955Y-2.6722
X8.0197Y-4.0705
X8.0197Y-4.2594
X8.0218Y-2.5109
X8.0218Y-2.6999
X8.0865Y-4.0981
X8.0865Y-4.2318
X8.0886Y-2.5386
X8.0886Y-2.6722
X8.1142Y-4.165
X8.1163Y-2.6054
T3
X6.7229Y-2.6398
X6.9198Y-2.6398
T4
X7.6157Y-3.4772
X7.8157Y-3.4772
T5
X6.5972Y-3.6783
X6.5976Y-3.8524
X6.5976Y-3.9524
X6.5976Y-4.0524
X6.6972Y-3.6783
T6
X6.9567Y-2.9913
X6.9567Y-3.2059
X6.9567Y-3.4205
T7
X5.5827Y-4.1622
X5.5839Y-2.6063
X8.0197Y-4.165
X8.0218Y-2.6054
T4
G00X7.0531Y-2.6107
M15
G01X7.0531Y-2.6895
M16
G05
G00X7.2776Y-2.532
M15
G01X7.1988Y-2.532
M16
G05
G00X7.2874Y-2.7682
M15
G01X7.189Y-2.7682
M16
G05
M30
