%TF.GenerationSoftware,KiCad,Pcbnew,8.99.0-unknown-e538b98286~178~ubuntu22.04.1*%
%TF.CreationDate,2024-04-14T11:06:52+05:30*%
%TF.ProjectId,HF-PA-v10,48462d50-412d-4763-9130-2e6b69636164,rev?*%
%TF.SameCoordinates,Original*%
%TF.FileFunction,Soldermask,Top*%
%TF.FilePolarity,Negative*%
%FSLAX46Y46*%
G04 Gerber Fmt 4.6, Leading zero omitted, Abs format (unit mm)*
G04 Created by KiCad (PCBNEW 8.99.0-unknown-e538b98286~178~ubuntu22.04.1) date 2024-04-14 11:06:52*
%MOMM*%
%LPD*%
G01*
G04 APERTURE LIST*
G04 Aperture macros list*
%AMRoundRect*
0 Rectangle with rounded corners*
0 $1 Rounding radius*
0 $2 $3 $4 $5 $6 $7 $8 $9 X,Y pos of 4 corners*
0 Add a 4 corners polygon primitive as box body*
4,1,4,$2,$3,$4,$5,$6,$7,$8,$9,$2,$3,0*
0 Add four circle primitives for the rounded corners*
1,1,$1+$1,$2,$3*
1,1,$1+$1,$4,$5*
1,1,$1+$1,$6,$7*
1,1,$1+$1,$8,$9*
0 Add four rect primitives between the rounded corners*
20,1,$1+$1,$2,$3,$4,$5,0*
20,1,$1+$1,$4,$5,$6,$7,0*
20,1,$1+$1,$6,$7,$8,$9,0*
20,1,$1+$1,$8,$9,$2,$3,0*%
G04 Aperture macros list end*
%ADD10RoundRect,0.250000X-0.412500X-0.650000X0.412500X-0.650000X0.412500X0.650000X-0.412500X0.650000X0*%
%ADD11RoundRect,0.250000X0.412500X0.650000X-0.412500X0.650000X-0.412500X-0.650000X0.412500X-0.650000X0*%
%ADD12C,2.000000*%
%ADD13C,0.800000*%
%ADD14C,6.400000*%
%ADD15RoundRect,0.250000X-0.650000X0.412500X-0.650000X-0.412500X0.650000X-0.412500X0.650000X0.412500X0*%
%ADD16R,3.600000X1.270000*%
%ADD17R,4.200000X1.350000*%
%ADD18O,4.400000X2.200000*%
%ADD19O,4.000000X2.000000*%
%ADD20O,2.000000X4.000000*%
%ADD21R,1.600000X1.600000*%
%ADD22C,1.600000*%
%ADD23RoundRect,0.250000X0.650000X-0.412500X0.650000X0.412500X-0.650000X0.412500X-0.650000X-0.412500X0*%
%ADD24O,3.500000X3.500000*%
%ADD25R,2.000000X1.905000*%
%ADD26O,2.000000X1.905000*%
%ADD27R,1.270000X3.600000*%
%ADD28R,1.350000X4.200000*%
%ADD29O,3.600000X3.600000*%
%ADD30R,4.500000X2.500000*%
%ADD31O,4.500000X2.500000*%
%ADD32R,2.200000X2.200000*%
%ADD33O,2.200000X2.200000*%
%ADD34RoundRect,0.162500X-0.617500X-0.162500X0.617500X-0.162500X0.617500X0.162500X-0.617500X0.162500X0*%
%ADD35RoundRect,0.250000X-0.625000X0.400000X-0.625000X-0.400000X0.625000X-0.400000X0.625000X0.400000X0*%
%ADD36R,2.050000X2.200000*%
G04 APERTURE END LIST*
D10*
%TO.C,C9*%
X173222500Y-96330000D03*
X170097500Y-96330000D03*
%TD*%
D11*
%TO.C,C7*%
X189752500Y-89990000D03*
X186627500Y-89990000D03*
%TD*%
D12*
%TO.C,L4*%
X193440000Y-88320000D03*
X198520000Y-88320000D03*
%TD*%
D13*
%TO.C,H3*%
X139400000Y-105720000D03*
X140102944Y-104022944D03*
X140102944Y-107417056D03*
X141800000Y-103320000D03*
D14*
X141800000Y-105720000D03*
D13*
X141800000Y-108120000D03*
X143497056Y-104022944D03*
X143497056Y-107417056D03*
X144200000Y-105720000D03*
%TD*%
D15*
%TO.C,C17*%
X184930000Y-76230000D03*
X184930000Y-79355000D03*
%TD*%
D16*
%TO.C,RF_OUT1*%
X204677500Y-85460000D03*
D17*
X204477500Y-88285000D03*
X204477500Y-82635000D03*
%TD*%
D15*
%TO.C,C14*%
X188650000Y-76207500D03*
X188650000Y-79332500D03*
%TD*%
D18*
%TO.C,Power1*%
X183850000Y-70312500D03*
D19*
X183850000Y-64312500D03*
D20*
X179150000Y-67312500D03*
%TD*%
D21*
%TO.C,C15*%
X175762651Y-67050000D03*
D22*
X170762651Y-67050000D03*
%TD*%
D23*
%TO.C,C4*%
X175110000Y-93962500D03*
X175110000Y-90837500D03*
%TD*%
D13*
%TO.C,H4*%
X201300000Y-105790000D03*
X202002944Y-104092944D03*
X202002944Y-107487056D03*
X203700000Y-103390000D03*
D14*
X203700000Y-105790000D03*
D13*
X203700000Y-108190000D03*
X205397056Y-104092944D03*
X205397056Y-107487056D03*
X206100000Y-105790000D03*
%TD*%
D24*
%TO.C,U3*%
X150920000Y-100390000D03*
D25*
X167580000Y-102930000D03*
D26*
X167580000Y-100390000D03*
X167580000Y-97850000D03*
%TD*%
D10*
%TO.C,C1*%
X200917500Y-92420000D03*
X204042500Y-92420000D03*
%TD*%
D27*
%TO.C,RF_IN1*%
X175570000Y-107140000D03*
D28*
X172745000Y-106940000D03*
X178395000Y-106940000D03*
%TD*%
D29*
%TO.C,Q1*%
X156840000Y-81430000D03*
D30*
X176700000Y-86880000D03*
D31*
X176700000Y-81430000D03*
X176700000Y-75980000D03*
%TD*%
D23*
%TO.C,C3*%
X182350000Y-79352500D03*
X182350000Y-76227500D03*
%TD*%
D32*
%TO.C,D1*%
X170110000Y-93430000D03*
D33*
X167570000Y-93430000D03*
%TD*%
D34*
%TO.C,U2*%
X175440000Y-96522500D03*
X175440000Y-97472500D03*
X175440000Y-98422500D03*
X178140000Y-98422500D03*
X178140000Y-96522500D03*
%TD*%
D10*
%TO.C,C6*%
X191507500Y-76460000D03*
X194632500Y-76460000D03*
%TD*%
D13*
%TO.C,H1*%
X139430000Y-66200000D03*
X140132944Y-64502944D03*
X140132944Y-67897056D03*
X141830000Y-63800000D03*
D14*
X141830000Y-66200000D03*
D13*
X141830000Y-68600000D03*
X143527056Y-64502944D03*
X143527056Y-67897056D03*
X144230000Y-66200000D03*
%TD*%
D10*
%TO.C,C2*%
X200910000Y-94930000D03*
X204035000Y-94930000D03*
%TD*%
D15*
%TO.C,C8*%
X170340000Y-98597500D03*
X170340000Y-101722500D03*
%TD*%
%TO.C,C10*%
X198490000Y-94907500D03*
X198490000Y-98032500D03*
%TD*%
D13*
%TO.C,H2*%
X201352944Y-66177944D03*
X202055888Y-64480888D03*
X202055888Y-67875000D03*
X203752944Y-63777944D03*
D14*
X203752944Y-66177944D03*
D13*
X203752944Y-68577944D03*
X205450000Y-64480888D03*
X205450000Y-67875000D03*
X206152944Y-66177944D03*
%TD*%
D35*
%TO.C,R2*%
X177860000Y-90840000D03*
X177860000Y-93940000D03*
%TD*%
%TO.C,R3*%
X180300000Y-90870000D03*
X180300000Y-93970000D03*
%TD*%
D36*
%TO.C,L3*%
X188205000Y-84520000D03*
X181255000Y-84520000D03*
%TD*%
M02*
