%TF.GenerationSoftware,KiCad,Pcbnew,8.99.0-unknown-e538b98286~178~ubuntu22.04.1*%
%TF.CreationDate,2024-04-14T11:06:52+05:30*%
%TF.ProjectId,HF-PA-v10,48462d50-412d-4763-9130-2e6b69636164,rev?*%
%TF.SameCoordinates,Original*%
%TF.FileFunction,Legend,Top*%
%TF.FilePolarity,Positive*%
%FSLAX46Y46*%
G04 Gerber Fmt 4.6, Leading zero omitted, Abs format (unit mm)*
G04 Created by KiCad (PCBNEW 8.99.0-unknown-e538b98286~178~ubuntu22.04.1) date 2024-04-14 11:06:52*
%MOMM*%
%LPD*%
G01*
G04 APERTURE LIST*
G04 Aperture macros list*
%AMRoundRect*
0 Rectangle with rounded corners*
0 $1 Rounding radius*
0 $2 $3 $4 $5 $6 $7 $8 $9 X,Y pos of 4 corners*
0 Add a 4 corners polygon primitive as box body*
4,1,4,$2,$3,$4,$5,$6,$7,$8,$9,$2,$3,0*
0 Add four circle primitives for the rounded corners*
1,1,$1+$1,$2,$3*
1,1,$1+$1,$4,$5*
1,1,$1+$1,$6,$7*
1,1,$1+$1,$8,$9*
0 Add four rect primitives between the rounded corners*
20,1,$1+$1,$2,$3,$4,$5,0*
20,1,$1+$1,$4,$5,$6,$7,0*
20,1,$1+$1,$6,$7,$8,$9,0*
20,1,$1+$1,$8,$9,$2,$3,0*%
G04 Aperture macros list end*
%ADD10C,0.300000*%
%ADD11C,0.150000*%
%ADD12C,0.120000*%
%ADD13C,0.127000*%
%ADD14C,0.200000*%
%ADD15RoundRect,0.250000X-0.412500X-0.650000X0.412500X-0.650000X0.412500X0.650000X-0.412500X0.650000X0*%
%ADD16RoundRect,0.250000X0.412500X0.650000X-0.412500X0.650000X-0.412500X-0.650000X0.412500X-0.650000X0*%
%ADD17C,2.000000*%
%ADD18C,0.800000*%
%ADD19C,6.400000*%
%ADD20RoundRect,0.250000X-0.650000X0.412500X-0.650000X-0.412500X0.650000X-0.412500X0.650000X0.412500X0*%
%ADD21R,3.600000X1.270000*%
%ADD22R,4.200000X1.350000*%
%ADD23O,4.400000X2.200000*%
%ADD24O,4.000000X2.000000*%
%ADD25O,2.000000X4.000000*%
%ADD26R,1.600000X1.600000*%
%ADD27C,1.600000*%
%ADD28RoundRect,0.250000X0.650000X-0.412500X0.650000X0.412500X-0.650000X0.412500X-0.650000X-0.412500X0*%
%ADD29O,3.500000X3.500000*%
%ADD30R,2.000000X1.905000*%
%ADD31O,2.000000X1.905000*%
%ADD32R,1.270000X3.600000*%
%ADD33R,1.350000X4.200000*%
%ADD34O,3.600000X3.600000*%
%ADD35R,4.500000X2.500000*%
%ADD36O,4.500000X2.500000*%
%ADD37R,2.200000X2.200000*%
%ADD38O,2.200000X2.200000*%
%ADD39RoundRect,0.162500X-0.617500X-0.162500X0.617500X-0.162500X0.617500X0.162500X-0.617500X0.162500X0*%
%ADD40RoundRect,0.250000X-0.625000X0.400000X-0.625000X-0.400000X0.625000X-0.400000X0.625000X0.400000X0*%
%ADD41R,2.050000X2.200000*%
G04 APERTURE END LIST*
D10*
X187854510Y-70079400D02*
X188997368Y-70079400D01*
X188425939Y-70650828D02*
X188425939Y-69507971D01*
D11*
X158552493Y-71160771D02*
X158504874Y-71113152D01*
X158504874Y-71113152D02*
X158409636Y-70970295D01*
X158409636Y-70970295D02*
X158362017Y-70875057D01*
X158362017Y-70875057D02*
X158314398Y-70732200D01*
X158314398Y-70732200D02*
X158266779Y-70494104D01*
X158266779Y-70494104D02*
X158266779Y-70303628D01*
X158266779Y-70303628D02*
X158314398Y-70065533D01*
X158314398Y-70065533D02*
X158362017Y-69922676D01*
X158362017Y-69922676D02*
X158409636Y-69827438D01*
X158409636Y-69827438D02*
X158504874Y-69684580D01*
X158504874Y-69684580D02*
X158552493Y-69636961D01*
X159123922Y-69779819D02*
X159314398Y-69779819D01*
X159314398Y-69779819D02*
X159409636Y-69827438D01*
X159409636Y-69827438D02*
X159504874Y-69922676D01*
X159504874Y-69922676D02*
X159552493Y-70113152D01*
X159552493Y-70113152D02*
X159552493Y-70446485D01*
X159552493Y-70446485D02*
X159504874Y-70636961D01*
X159504874Y-70636961D02*
X159409636Y-70732200D01*
X159409636Y-70732200D02*
X159314398Y-70779819D01*
X159314398Y-70779819D02*
X159123922Y-70779819D01*
X159123922Y-70779819D02*
X159028684Y-70732200D01*
X159028684Y-70732200D02*
X158933446Y-70636961D01*
X158933446Y-70636961D02*
X158885827Y-70446485D01*
X158885827Y-70446485D02*
X158885827Y-70113152D01*
X158885827Y-70113152D02*
X158933446Y-69922676D01*
X158933446Y-69922676D02*
X159028684Y-69827438D01*
X159028684Y-69827438D02*
X159123922Y-69779819D01*
X159981065Y-70779819D02*
X159981065Y-70113152D01*
X159981065Y-70303628D02*
X160028684Y-70208390D01*
X160028684Y-70208390D02*
X160076303Y-70160771D01*
X160076303Y-70160771D02*
X160171541Y-70113152D01*
X160171541Y-70113152D02*
X160266779Y-70113152D01*
X161362018Y-70779819D02*
X161362018Y-69779819D01*
X162409636Y-70779819D02*
X162076303Y-70303628D01*
X161838208Y-70779819D02*
X161838208Y-69779819D01*
X161838208Y-69779819D02*
X162219160Y-69779819D01*
X162219160Y-69779819D02*
X162314398Y-69827438D01*
X162314398Y-69827438D02*
X162362017Y-69875057D01*
X162362017Y-69875057D02*
X162409636Y-69970295D01*
X162409636Y-69970295D02*
X162409636Y-70113152D01*
X162409636Y-70113152D02*
X162362017Y-70208390D01*
X162362017Y-70208390D02*
X162314398Y-70256009D01*
X162314398Y-70256009D02*
X162219160Y-70303628D01*
X162219160Y-70303628D02*
X161838208Y-70303628D01*
X163171541Y-70256009D02*
X162838208Y-70256009D01*
X162838208Y-70779819D02*
X162838208Y-69779819D01*
X162838208Y-69779819D02*
X163314398Y-69779819D01*
X164171541Y-69779819D02*
X163695351Y-69779819D01*
X163695351Y-69779819D02*
X163647732Y-70256009D01*
X163647732Y-70256009D02*
X163695351Y-70208390D01*
X163695351Y-70208390D02*
X163790589Y-70160771D01*
X163790589Y-70160771D02*
X164028684Y-70160771D01*
X164028684Y-70160771D02*
X164123922Y-70208390D01*
X164123922Y-70208390D02*
X164171541Y-70256009D01*
X164171541Y-70256009D02*
X164219160Y-70351247D01*
X164219160Y-70351247D02*
X164219160Y-70589342D01*
X164219160Y-70589342D02*
X164171541Y-70684580D01*
X164171541Y-70684580D02*
X164123922Y-70732200D01*
X164123922Y-70732200D02*
X164028684Y-70779819D01*
X164028684Y-70779819D02*
X163790589Y-70779819D01*
X163790589Y-70779819D02*
X163695351Y-70732200D01*
X163695351Y-70732200D02*
X163647732Y-70684580D01*
X165171541Y-70779819D02*
X164600113Y-70779819D01*
X164885827Y-70779819D02*
X164885827Y-69779819D01*
X164885827Y-69779819D02*
X164790589Y-69922676D01*
X164790589Y-69922676D02*
X164695351Y-70017914D01*
X164695351Y-70017914D02*
X164600113Y-70065533D01*
X165790589Y-69779819D02*
X165885827Y-69779819D01*
X165885827Y-69779819D02*
X165981065Y-69827438D01*
X165981065Y-69827438D02*
X166028684Y-69875057D01*
X166028684Y-69875057D02*
X166076303Y-69970295D01*
X166076303Y-69970295D02*
X166123922Y-70160771D01*
X166123922Y-70160771D02*
X166123922Y-70398866D01*
X166123922Y-70398866D02*
X166076303Y-70589342D01*
X166076303Y-70589342D02*
X166028684Y-70684580D01*
X166028684Y-70684580D02*
X165981065Y-70732200D01*
X165981065Y-70732200D02*
X165885827Y-70779819D01*
X165885827Y-70779819D02*
X165790589Y-70779819D01*
X165790589Y-70779819D02*
X165695351Y-70732200D01*
X165695351Y-70732200D02*
X165647732Y-70684580D01*
X165647732Y-70684580D02*
X165600113Y-70589342D01*
X165600113Y-70589342D02*
X165552494Y-70398866D01*
X165552494Y-70398866D02*
X165552494Y-70160771D01*
X165552494Y-70160771D02*
X165600113Y-69970295D01*
X165600113Y-69970295D02*
X165647732Y-69875057D01*
X165647732Y-69875057D02*
X165695351Y-69827438D01*
X165695351Y-69827438D02*
X165790589Y-69779819D01*
X166457256Y-71160771D02*
X166504875Y-71113152D01*
X166504875Y-71113152D02*
X166600113Y-70970295D01*
X166600113Y-70970295D02*
X166647732Y-70875057D01*
X166647732Y-70875057D02*
X166695351Y-70732200D01*
X166695351Y-70732200D02*
X166742970Y-70494104D01*
X166742970Y-70494104D02*
X166742970Y-70303628D01*
X166742970Y-70303628D02*
X166695351Y-70065533D01*
X166695351Y-70065533D02*
X166647732Y-69922676D01*
X166647732Y-69922676D02*
X166600113Y-69827438D01*
X166600113Y-69827438D02*
X166504875Y-69684580D01*
X166504875Y-69684580D02*
X166457256Y-69636961D01*
X185876779Y-107679819D02*
X185876779Y-106679819D01*
X185876779Y-106679819D02*
X186114874Y-106679819D01*
X186114874Y-106679819D02*
X186257731Y-106727438D01*
X186257731Y-106727438D02*
X186352969Y-106822676D01*
X186352969Y-106822676D02*
X186400588Y-106917914D01*
X186400588Y-106917914D02*
X186448207Y-107108390D01*
X186448207Y-107108390D02*
X186448207Y-107251247D01*
X186448207Y-107251247D02*
X186400588Y-107441723D01*
X186400588Y-107441723D02*
X186352969Y-107536961D01*
X186352969Y-107536961D02*
X186257731Y-107632200D01*
X186257731Y-107632200D02*
X186114874Y-107679819D01*
X186114874Y-107679819D02*
X185876779Y-107679819D01*
X186876779Y-107679819D02*
X186876779Y-106679819D01*
X187305350Y-107679819D02*
X187305350Y-107156009D01*
X187305350Y-107156009D02*
X187257731Y-107060771D01*
X187257731Y-107060771D02*
X187162493Y-107013152D01*
X187162493Y-107013152D02*
X187019636Y-107013152D01*
X187019636Y-107013152D02*
X186924398Y-107060771D01*
X186924398Y-107060771D02*
X186876779Y-107108390D01*
X187781541Y-107679819D02*
X187781541Y-107013152D01*
X187781541Y-106679819D02*
X187733922Y-106727438D01*
X187733922Y-106727438D02*
X187781541Y-106775057D01*
X187781541Y-106775057D02*
X187829160Y-106727438D01*
X187829160Y-106727438D02*
X187781541Y-106679819D01*
X187781541Y-106679819D02*
X187781541Y-106775057D01*
X188257731Y-107679819D02*
X188257731Y-107013152D01*
X188257731Y-107203628D02*
X188305350Y-107108390D01*
X188305350Y-107108390D02*
X188352969Y-107060771D01*
X188352969Y-107060771D02*
X188448207Y-107013152D01*
X188448207Y-107013152D02*
X188543445Y-107013152D01*
X189305350Y-107013152D02*
X189305350Y-107679819D01*
X188876779Y-107013152D02*
X188876779Y-107536961D01*
X188876779Y-107536961D02*
X188924398Y-107632200D01*
X188924398Y-107632200D02*
X189019636Y-107679819D01*
X189019636Y-107679819D02*
X189162493Y-107679819D01*
X189162493Y-107679819D02*
X189257731Y-107632200D01*
X189257731Y-107632200D02*
X189305350Y-107584580D01*
X190543446Y-107298866D02*
X191305351Y-107298866D01*
X190924398Y-107679819D02*
X190924398Y-106917914D01*
X193114874Y-107679819D02*
X192781541Y-107203628D01*
X192543446Y-107679819D02*
X192543446Y-106679819D01*
X192543446Y-106679819D02*
X192924398Y-106679819D01*
X192924398Y-106679819D02*
X193019636Y-106727438D01*
X193019636Y-106727438D02*
X193067255Y-106775057D01*
X193067255Y-106775057D02*
X193114874Y-106870295D01*
X193114874Y-106870295D02*
X193114874Y-107013152D01*
X193114874Y-107013152D02*
X193067255Y-107108390D01*
X193067255Y-107108390D02*
X193019636Y-107156009D01*
X193019636Y-107156009D02*
X192924398Y-107203628D01*
X192924398Y-107203628D02*
X192543446Y-107203628D01*
X193972017Y-107679819D02*
X193972017Y-107156009D01*
X193972017Y-107156009D02*
X193924398Y-107060771D01*
X193924398Y-107060771D02*
X193829160Y-107013152D01*
X193829160Y-107013152D02*
X193638684Y-107013152D01*
X193638684Y-107013152D02*
X193543446Y-107060771D01*
X193972017Y-107632200D02*
X193876779Y-107679819D01*
X193876779Y-107679819D02*
X193638684Y-107679819D01*
X193638684Y-107679819D02*
X193543446Y-107632200D01*
X193543446Y-107632200D02*
X193495827Y-107536961D01*
X193495827Y-107536961D02*
X193495827Y-107441723D01*
X193495827Y-107441723D02*
X193543446Y-107346485D01*
X193543446Y-107346485D02*
X193638684Y-107298866D01*
X193638684Y-107298866D02*
X193876779Y-107298866D01*
X193876779Y-107298866D02*
X193972017Y-107251247D01*
X194305351Y-107013152D02*
X194686303Y-107013152D01*
X194448208Y-107679819D02*
X194448208Y-106822676D01*
X194448208Y-106822676D02*
X194495827Y-106727438D01*
X194495827Y-106727438D02*
X194591065Y-106679819D01*
X194591065Y-106679819D02*
X194686303Y-106679819D01*
X195448208Y-107679819D02*
X195448208Y-107156009D01*
X195448208Y-107156009D02*
X195400589Y-107060771D01*
X195400589Y-107060771D02*
X195305351Y-107013152D01*
X195305351Y-107013152D02*
X195114875Y-107013152D01*
X195114875Y-107013152D02*
X195019637Y-107060771D01*
X195448208Y-107632200D02*
X195352970Y-107679819D01*
X195352970Y-107679819D02*
X195114875Y-107679819D01*
X195114875Y-107679819D02*
X195019637Y-107632200D01*
X195019637Y-107632200D02*
X194972018Y-107536961D01*
X194972018Y-107536961D02*
X194972018Y-107441723D01*
X194972018Y-107441723D02*
X195019637Y-107346485D01*
X195019637Y-107346485D02*
X195114875Y-107298866D01*
X195114875Y-107298866D02*
X195352970Y-107298866D01*
X195352970Y-107298866D02*
X195448208Y-107251247D01*
X196067256Y-107679819D02*
X195972018Y-107632200D01*
X195972018Y-107632200D02*
X195924399Y-107536961D01*
X195924399Y-107536961D02*
X195924399Y-106679819D01*
X195781542Y-107203628D02*
X196067256Y-107013152D01*
X181329160Y-105592256D02*
X181472017Y-105639875D01*
X181472017Y-105639875D02*
X181710112Y-105639875D01*
X181710112Y-105639875D02*
X181805350Y-105592256D01*
X181805350Y-105592256D02*
X181852969Y-105544636D01*
X181852969Y-105544636D02*
X181900588Y-105449398D01*
X181900588Y-105449398D02*
X181900588Y-105354160D01*
X181900588Y-105354160D02*
X181852969Y-105258922D01*
X181852969Y-105258922D02*
X181805350Y-105211303D01*
X181805350Y-105211303D02*
X181710112Y-105163684D01*
X181710112Y-105163684D02*
X181519636Y-105116065D01*
X181519636Y-105116065D02*
X181424398Y-105068446D01*
X181424398Y-105068446D02*
X181376779Y-105020827D01*
X181376779Y-105020827D02*
X181329160Y-104925589D01*
X181329160Y-104925589D02*
X181329160Y-104830351D01*
X181329160Y-104830351D02*
X181376779Y-104735113D01*
X181376779Y-104735113D02*
X181424398Y-104687494D01*
X181424398Y-104687494D02*
X181519636Y-104639875D01*
X181519636Y-104639875D02*
X181757731Y-104639875D01*
X181757731Y-104639875D02*
X181900588Y-104687494D01*
X182233922Y-104973208D02*
X182424398Y-105639875D01*
X182424398Y-105639875D02*
X182614874Y-105163684D01*
X182614874Y-105163684D02*
X182805350Y-105639875D01*
X182805350Y-105639875D02*
X182995826Y-104973208D01*
X183376779Y-105639875D02*
X183376779Y-104973208D01*
X183376779Y-104639875D02*
X183329160Y-104687494D01*
X183329160Y-104687494D02*
X183376779Y-104735113D01*
X183376779Y-104735113D02*
X183424398Y-104687494D01*
X183424398Y-104687494D02*
X183376779Y-104639875D01*
X183376779Y-104639875D02*
X183376779Y-104735113D01*
X183710112Y-104973208D02*
X184091064Y-104973208D01*
X183852969Y-104639875D02*
X183852969Y-105497017D01*
X183852969Y-105497017D02*
X183900588Y-105592256D01*
X183900588Y-105592256D02*
X183995826Y-105639875D01*
X183995826Y-105639875D02*
X184091064Y-105639875D01*
X184852969Y-105592256D02*
X184757731Y-105639875D01*
X184757731Y-105639875D02*
X184567255Y-105639875D01*
X184567255Y-105639875D02*
X184472017Y-105592256D01*
X184472017Y-105592256D02*
X184424398Y-105544636D01*
X184424398Y-105544636D02*
X184376779Y-105449398D01*
X184376779Y-105449398D02*
X184376779Y-105163684D01*
X184376779Y-105163684D02*
X184424398Y-105068446D01*
X184424398Y-105068446D02*
X184472017Y-105020827D01*
X184472017Y-105020827D02*
X184567255Y-104973208D01*
X184567255Y-104973208D02*
X184757731Y-104973208D01*
X184757731Y-104973208D02*
X184852969Y-105020827D01*
X185281541Y-105639875D02*
X185281541Y-104639875D01*
X185710112Y-105639875D02*
X185710112Y-105116065D01*
X185710112Y-105116065D02*
X185662493Y-105020827D01*
X185662493Y-105020827D02*
X185567255Y-104973208D01*
X185567255Y-104973208D02*
X185424398Y-104973208D01*
X185424398Y-104973208D02*
X185329160Y-105020827D01*
X185329160Y-105020827D02*
X185281541Y-105068446D01*
X186186303Y-105639875D02*
X186186303Y-104973208D01*
X186186303Y-105068446D02*
X186233922Y-105020827D01*
X186233922Y-105020827D02*
X186329160Y-104973208D01*
X186329160Y-104973208D02*
X186472017Y-104973208D01*
X186472017Y-104973208D02*
X186567255Y-105020827D01*
X186567255Y-105020827D02*
X186614874Y-105116065D01*
X186614874Y-105116065D02*
X186614874Y-105639875D01*
X186614874Y-105116065D02*
X186662493Y-105020827D01*
X186662493Y-105020827D02*
X186757731Y-104973208D01*
X186757731Y-104973208D02*
X186900588Y-104973208D01*
X186900588Y-104973208D02*
X186995827Y-105020827D01*
X186995827Y-105020827D02*
X187043446Y-105116065D01*
X187043446Y-105116065D02*
X187043446Y-105639875D01*
X187662493Y-105639875D02*
X187567255Y-105592256D01*
X187567255Y-105592256D02*
X187519636Y-105544636D01*
X187519636Y-105544636D02*
X187472017Y-105449398D01*
X187472017Y-105449398D02*
X187472017Y-105163684D01*
X187472017Y-105163684D02*
X187519636Y-105068446D01*
X187519636Y-105068446D02*
X187567255Y-105020827D01*
X187567255Y-105020827D02*
X187662493Y-104973208D01*
X187662493Y-104973208D02*
X187805350Y-104973208D01*
X187805350Y-104973208D02*
X187900588Y-105020827D01*
X187900588Y-105020827D02*
X187948207Y-105068446D01*
X187948207Y-105068446D02*
X187995826Y-105163684D01*
X187995826Y-105163684D02*
X187995826Y-105449398D01*
X187995826Y-105449398D02*
X187948207Y-105544636D01*
X187948207Y-105544636D02*
X187900588Y-105592256D01*
X187900588Y-105592256D02*
X187805350Y-105639875D01*
X187805350Y-105639875D02*
X187662493Y-105639875D01*
X188852969Y-105639875D02*
X188852969Y-104639875D01*
X188852969Y-105592256D02*
X188757731Y-105639875D01*
X188757731Y-105639875D02*
X188567255Y-105639875D01*
X188567255Y-105639875D02*
X188472017Y-105592256D01*
X188472017Y-105592256D02*
X188424398Y-105544636D01*
X188424398Y-105544636D02*
X188376779Y-105449398D01*
X188376779Y-105449398D02*
X188376779Y-105163684D01*
X188376779Y-105163684D02*
X188424398Y-105068446D01*
X188424398Y-105068446D02*
X188472017Y-105020827D01*
X188472017Y-105020827D02*
X188567255Y-104973208D01*
X188567255Y-104973208D02*
X188757731Y-104973208D01*
X188757731Y-104973208D02*
X188852969Y-105020827D01*
X189710112Y-105592256D02*
X189614874Y-105639875D01*
X189614874Y-105639875D02*
X189424398Y-105639875D01*
X189424398Y-105639875D02*
X189329160Y-105592256D01*
X189329160Y-105592256D02*
X189281541Y-105497017D01*
X189281541Y-105497017D02*
X189281541Y-105116065D01*
X189281541Y-105116065D02*
X189329160Y-105020827D01*
X189329160Y-105020827D02*
X189424398Y-104973208D01*
X189424398Y-104973208D02*
X189614874Y-104973208D01*
X189614874Y-104973208D02*
X189710112Y-105020827D01*
X189710112Y-105020827D02*
X189757731Y-105116065D01*
X189757731Y-105116065D02*
X189757731Y-105211303D01*
X189757731Y-105211303D02*
X189281541Y-105306541D01*
X191519636Y-105544636D02*
X191472017Y-105592256D01*
X191472017Y-105592256D02*
X191329160Y-105639875D01*
X191329160Y-105639875D02*
X191233922Y-105639875D01*
X191233922Y-105639875D02*
X191091065Y-105592256D01*
X191091065Y-105592256D02*
X190995827Y-105497017D01*
X190995827Y-105497017D02*
X190948208Y-105401779D01*
X190948208Y-105401779D02*
X190900589Y-105211303D01*
X190900589Y-105211303D02*
X190900589Y-105068446D01*
X190900589Y-105068446D02*
X190948208Y-104877970D01*
X190948208Y-104877970D02*
X190995827Y-104782732D01*
X190995827Y-104782732D02*
X191091065Y-104687494D01*
X191091065Y-104687494D02*
X191233922Y-104639875D01*
X191233922Y-104639875D02*
X191329160Y-104639875D01*
X191329160Y-104639875D02*
X191472017Y-104687494D01*
X191472017Y-104687494D02*
X191519636Y-104735113D01*
X192091065Y-105639875D02*
X191995827Y-105592256D01*
X191995827Y-105592256D02*
X191948208Y-105544636D01*
X191948208Y-105544636D02*
X191900589Y-105449398D01*
X191900589Y-105449398D02*
X191900589Y-105163684D01*
X191900589Y-105163684D02*
X191948208Y-105068446D01*
X191948208Y-105068446D02*
X191995827Y-105020827D01*
X191995827Y-105020827D02*
X192091065Y-104973208D01*
X192091065Y-104973208D02*
X192233922Y-104973208D01*
X192233922Y-104973208D02*
X192329160Y-105020827D01*
X192329160Y-105020827D02*
X192376779Y-105068446D01*
X192376779Y-105068446D02*
X192424398Y-105163684D01*
X192424398Y-105163684D02*
X192424398Y-105449398D01*
X192424398Y-105449398D02*
X192376779Y-105544636D01*
X192376779Y-105544636D02*
X192329160Y-105592256D01*
X192329160Y-105592256D02*
X192233922Y-105639875D01*
X192233922Y-105639875D02*
X192091065Y-105639875D01*
X192995827Y-105639875D02*
X192900589Y-105592256D01*
X192900589Y-105592256D02*
X192852970Y-105544636D01*
X192852970Y-105544636D02*
X192805351Y-105449398D01*
X192805351Y-105449398D02*
X192805351Y-105163684D01*
X192805351Y-105163684D02*
X192852970Y-105068446D01*
X192852970Y-105068446D02*
X192900589Y-105020827D01*
X192900589Y-105020827D02*
X192995827Y-104973208D01*
X192995827Y-104973208D02*
X193138684Y-104973208D01*
X193138684Y-104973208D02*
X193233922Y-105020827D01*
X193233922Y-105020827D02*
X193281541Y-105068446D01*
X193281541Y-105068446D02*
X193329160Y-105163684D01*
X193329160Y-105163684D02*
X193329160Y-105449398D01*
X193329160Y-105449398D02*
X193281541Y-105544636D01*
X193281541Y-105544636D02*
X193233922Y-105592256D01*
X193233922Y-105592256D02*
X193138684Y-105639875D01*
X193138684Y-105639875D02*
X192995827Y-105639875D01*
X193900589Y-105639875D02*
X193805351Y-105592256D01*
X193805351Y-105592256D02*
X193757732Y-105497017D01*
X193757732Y-105497017D02*
X193757732Y-104639875D01*
X194233923Y-105354160D02*
X194710113Y-105354160D01*
X194138685Y-105639875D02*
X194472018Y-104639875D01*
X194472018Y-104639875D02*
X194805351Y-105639875D01*
X195138685Y-105639875D02*
X195138685Y-104639875D01*
X195138685Y-104639875D02*
X195472018Y-105354160D01*
X195472018Y-105354160D02*
X195805351Y-104639875D01*
X195805351Y-104639875D02*
X195805351Y-105639875D01*
X196281542Y-105639875D02*
X196281542Y-104639875D01*
X196281542Y-104639875D02*
X196662494Y-104639875D01*
X196662494Y-104639875D02*
X196757732Y-104687494D01*
X196757732Y-104687494D02*
X196805351Y-104735113D01*
X196805351Y-104735113D02*
X196852970Y-104830351D01*
X196852970Y-104830351D02*
X196852970Y-104973208D01*
X196852970Y-104973208D02*
X196805351Y-105068446D01*
X196805351Y-105068446D02*
X196757732Y-105116065D01*
X196757732Y-105116065D02*
X196662494Y-105163684D01*
X196662494Y-105163684D02*
X196281542Y-105163684D01*
X197948209Y-104973208D02*
X198186304Y-105639875D01*
X198186304Y-105639875D02*
X198424399Y-104973208D01*
X198757733Y-104735113D02*
X198805352Y-104687494D01*
X198805352Y-104687494D02*
X198900590Y-104639875D01*
X198900590Y-104639875D02*
X199138685Y-104639875D01*
X199138685Y-104639875D02*
X199233923Y-104687494D01*
X199233923Y-104687494D02*
X199281542Y-104735113D01*
X199281542Y-104735113D02*
X199329161Y-104830351D01*
X199329161Y-104830351D02*
X199329161Y-104925589D01*
X199329161Y-104925589D02*
X199281542Y-105068446D01*
X199281542Y-105068446D02*
X198710114Y-105639875D01*
X198710114Y-105639875D02*
X199329161Y-105639875D01*
X172375713Y-98392295D02*
X171918570Y-98392295D01*
X172147142Y-98392295D02*
X172147142Y-97592295D01*
X172147142Y-97592295D02*
X172070951Y-97706580D01*
X172070951Y-97706580D02*
X171994761Y-97782771D01*
X171994761Y-97782771D02*
X171918570Y-97820866D01*
X172870952Y-97592295D02*
X172947142Y-97592295D01*
X172947142Y-97592295D02*
X173023333Y-97630390D01*
X173023333Y-97630390D02*
X173061428Y-97668485D01*
X173061428Y-97668485D02*
X173099523Y-97744676D01*
X173099523Y-97744676D02*
X173137618Y-97897057D01*
X173137618Y-97897057D02*
X173137618Y-98087533D01*
X173137618Y-98087533D02*
X173099523Y-98239914D01*
X173099523Y-98239914D02*
X173061428Y-98316104D01*
X173061428Y-98316104D02*
X173023333Y-98354200D01*
X173023333Y-98354200D02*
X172947142Y-98392295D01*
X172947142Y-98392295D02*
X172870952Y-98392295D01*
X172870952Y-98392295D02*
X172794761Y-98354200D01*
X172794761Y-98354200D02*
X172756666Y-98316104D01*
X172756666Y-98316104D02*
X172718571Y-98239914D01*
X172718571Y-98239914D02*
X172680475Y-98087533D01*
X172680475Y-98087533D02*
X172680475Y-97897057D01*
X172680475Y-97897057D02*
X172718571Y-97744676D01*
X172718571Y-97744676D02*
X172756666Y-97668485D01*
X172756666Y-97668485D02*
X172794761Y-97630390D01*
X172794761Y-97630390D02*
X172870952Y-97592295D01*
X173823333Y-97858961D02*
X173823333Y-98392295D01*
X173480476Y-97858961D02*
X173480476Y-98278009D01*
X173480476Y-98278009D02*
X173518571Y-98354200D01*
X173518571Y-98354200D02*
X173594761Y-98392295D01*
X173594761Y-98392295D02*
X173709047Y-98392295D01*
X173709047Y-98392295D02*
X173785238Y-98354200D01*
X173785238Y-98354200D02*
X173823333Y-98316104D01*
X187364761Y-92062295D02*
X186907618Y-92062295D01*
X187136190Y-92062295D02*
X187136190Y-91262295D01*
X187136190Y-91262295D02*
X187059999Y-91376580D01*
X187059999Y-91376580D02*
X186983809Y-91452771D01*
X186983809Y-91452771D02*
X186907618Y-91490866D01*
X187860000Y-91262295D02*
X187936190Y-91262295D01*
X187936190Y-91262295D02*
X188012381Y-91300390D01*
X188012381Y-91300390D02*
X188050476Y-91338485D01*
X188050476Y-91338485D02*
X188088571Y-91414676D01*
X188088571Y-91414676D02*
X188126666Y-91567057D01*
X188126666Y-91567057D02*
X188126666Y-91757533D01*
X188126666Y-91757533D02*
X188088571Y-91909914D01*
X188088571Y-91909914D02*
X188050476Y-91986104D01*
X188050476Y-91986104D02*
X188012381Y-92024200D01*
X188012381Y-92024200D02*
X187936190Y-92062295D01*
X187936190Y-92062295D02*
X187860000Y-92062295D01*
X187860000Y-92062295D02*
X187783809Y-92024200D01*
X187783809Y-92024200D02*
X187745714Y-91986104D01*
X187745714Y-91986104D02*
X187707619Y-91909914D01*
X187707619Y-91909914D02*
X187669523Y-91757533D01*
X187669523Y-91757533D02*
X187669523Y-91567057D01*
X187669523Y-91567057D02*
X187707619Y-91414676D01*
X187707619Y-91414676D02*
X187745714Y-91338485D01*
X187745714Y-91338485D02*
X187783809Y-91300390D01*
X187783809Y-91300390D02*
X187860000Y-91262295D01*
X188621905Y-91262295D02*
X188698095Y-91262295D01*
X188698095Y-91262295D02*
X188774286Y-91300390D01*
X188774286Y-91300390D02*
X188812381Y-91338485D01*
X188812381Y-91338485D02*
X188850476Y-91414676D01*
X188850476Y-91414676D02*
X188888571Y-91567057D01*
X188888571Y-91567057D02*
X188888571Y-91757533D01*
X188888571Y-91757533D02*
X188850476Y-91909914D01*
X188850476Y-91909914D02*
X188812381Y-91986104D01*
X188812381Y-91986104D02*
X188774286Y-92024200D01*
X188774286Y-92024200D02*
X188698095Y-92062295D01*
X188698095Y-92062295D02*
X188621905Y-92062295D01*
X188621905Y-92062295D02*
X188545714Y-92024200D01*
X188545714Y-92024200D02*
X188507619Y-91986104D01*
X188507619Y-91986104D02*
X188469524Y-91909914D01*
X188469524Y-91909914D02*
X188431428Y-91757533D01*
X188431428Y-91757533D02*
X188431428Y-91567057D01*
X188431428Y-91567057D02*
X188469524Y-91414676D01*
X188469524Y-91414676D02*
X188507619Y-91338485D01*
X188507619Y-91338485D02*
X188545714Y-91300390D01*
X188545714Y-91300390D02*
X188621905Y-91262295D01*
X189231429Y-91528961D02*
X189231429Y-92062295D01*
X189231429Y-91605152D02*
X189269524Y-91567057D01*
X189269524Y-91567057D02*
X189345714Y-91528961D01*
X189345714Y-91528961D02*
X189460000Y-91528961D01*
X189460000Y-91528961D02*
X189536191Y-91567057D01*
X189536191Y-91567057D02*
X189574286Y-91643247D01*
X189574286Y-91643247D02*
X189574286Y-92062295D01*
X195193333Y-94774819D02*
X194717143Y-94774819D01*
X194717143Y-94774819D02*
X194717143Y-93774819D01*
X195955238Y-94108152D02*
X195955238Y-94774819D01*
X195717143Y-93727200D02*
X195479048Y-94441485D01*
X195479048Y-94441485D02*
X196098095Y-94441485D01*
X185274819Y-74576666D02*
X185274819Y-75148094D01*
X185274819Y-74862380D02*
X184274819Y-74862380D01*
X184274819Y-74862380D02*
X184417676Y-74957618D01*
X184417676Y-74957618D02*
X184512914Y-75052856D01*
X184512914Y-75052856D02*
X184560533Y-75148094D01*
X184608152Y-74148094D02*
X185274819Y-74148094D01*
X184703390Y-74148094D02*
X184655771Y-74100475D01*
X184655771Y-74100475D02*
X184608152Y-74005237D01*
X184608152Y-74005237D02*
X184608152Y-73862380D01*
X184608152Y-73862380D02*
X184655771Y-73767142D01*
X184655771Y-73767142D02*
X184751009Y-73719523D01*
X184751009Y-73719523D02*
X185274819Y-73719523D01*
X201554819Y-87884762D02*
X201078628Y-88218095D01*
X201554819Y-88456190D02*
X200554819Y-88456190D01*
X200554819Y-88456190D02*
X200554819Y-88075238D01*
X200554819Y-88075238D02*
X200602438Y-87980000D01*
X200602438Y-87980000D02*
X200650057Y-87932381D01*
X200650057Y-87932381D02*
X200745295Y-87884762D01*
X200745295Y-87884762D02*
X200888152Y-87884762D01*
X200888152Y-87884762D02*
X200983390Y-87932381D01*
X200983390Y-87932381D02*
X201031009Y-87980000D01*
X201031009Y-87980000D02*
X201078628Y-88075238D01*
X201078628Y-88075238D02*
X201078628Y-88456190D01*
X201031009Y-87122857D02*
X201031009Y-87456190D01*
X201554819Y-87456190D02*
X200554819Y-87456190D01*
X200554819Y-87456190D02*
X200554819Y-86980000D01*
X201650057Y-86837143D02*
X201650057Y-86075238D01*
X200554819Y-85646666D02*
X200554819Y-85456190D01*
X200554819Y-85456190D02*
X200602438Y-85360952D01*
X200602438Y-85360952D02*
X200697676Y-85265714D01*
X200697676Y-85265714D02*
X200888152Y-85218095D01*
X200888152Y-85218095D02*
X201221485Y-85218095D01*
X201221485Y-85218095D02*
X201411961Y-85265714D01*
X201411961Y-85265714D02*
X201507200Y-85360952D01*
X201507200Y-85360952D02*
X201554819Y-85456190D01*
X201554819Y-85456190D02*
X201554819Y-85646666D01*
X201554819Y-85646666D02*
X201507200Y-85741904D01*
X201507200Y-85741904D02*
X201411961Y-85837142D01*
X201411961Y-85837142D02*
X201221485Y-85884761D01*
X201221485Y-85884761D02*
X200888152Y-85884761D01*
X200888152Y-85884761D02*
X200697676Y-85837142D01*
X200697676Y-85837142D02*
X200602438Y-85741904D01*
X200602438Y-85741904D02*
X200554819Y-85646666D01*
X200554819Y-84789523D02*
X201364342Y-84789523D01*
X201364342Y-84789523D02*
X201459580Y-84741904D01*
X201459580Y-84741904D02*
X201507200Y-84694285D01*
X201507200Y-84694285D02*
X201554819Y-84599047D01*
X201554819Y-84599047D02*
X201554819Y-84408571D01*
X201554819Y-84408571D02*
X201507200Y-84313333D01*
X201507200Y-84313333D02*
X201459580Y-84265714D01*
X201459580Y-84265714D02*
X201364342Y-84218095D01*
X201364342Y-84218095D02*
X200554819Y-84218095D01*
X200554819Y-83884761D02*
X200554819Y-83313333D01*
X201554819Y-83599047D02*
X200554819Y-83599047D01*
X201554819Y-82456190D02*
X201554819Y-83027618D01*
X201554819Y-82741904D02*
X200554819Y-82741904D01*
X200554819Y-82741904D02*
X200697676Y-82837142D01*
X200697676Y-82837142D02*
X200792914Y-82932380D01*
X200792914Y-82932380D02*
X200840533Y-83027618D01*
X190914819Y-79066666D02*
X190914819Y-79638094D01*
X190914819Y-79352380D02*
X189914819Y-79352380D01*
X189914819Y-79352380D02*
X190057676Y-79447618D01*
X190057676Y-79447618D02*
X190152914Y-79542856D01*
X190152914Y-79542856D02*
X190200533Y-79638094D01*
X190248152Y-78638094D02*
X190914819Y-78638094D01*
X190343390Y-78638094D02*
X190295771Y-78590475D01*
X190295771Y-78590475D02*
X190248152Y-78495237D01*
X190248152Y-78495237D02*
X190248152Y-78352380D01*
X190248152Y-78352380D02*
X190295771Y-78257142D01*
X190295771Y-78257142D02*
X190391009Y-78209523D01*
X190391009Y-78209523D02*
X190914819Y-78209523D01*
X173782295Y-92455833D02*
X173782295Y-92912976D01*
X173782295Y-92684404D02*
X172982295Y-92684404D01*
X172982295Y-92684404D02*
X173096580Y-92760595D01*
X173096580Y-92760595D02*
X173172771Y-92836785D01*
X173172771Y-92836785D02*
X173210866Y-92912976D01*
X173248961Y-92112975D02*
X173782295Y-92112975D01*
X173325152Y-92112975D02*
X173287057Y-92074880D01*
X173287057Y-92074880D02*
X173248961Y-91998690D01*
X173248961Y-91998690D02*
X173248961Y-91884404D01*
X173248961Y-91884404D02*
X173287057Y-91808213D01*
X173287057Y-91808213D02*
X173363247Y-91770118D01*
X173363247Y-91770118D02*
X173782295Y-91770118D01*
X202313333Y-90929580D02*
X202265714Y-90977200D01*
X202265714Y-90977200D02*
X202122857Y-91024819D01*
X202122857Y-91024819D02*
X202027619Y-91024819D01*
X202027619Y-91024819D02*
X201884762Y-90977200D01*
X201884762Y-90977200D02*
X201789524Y-90881961D01*
X201789524Y-90881961D02*
X201741905Y-90786723D01*
X201741905Y-90786723D02*
X201694286Y-90596247D01*
X201694286Y-90596247D02*
X201694286Y-90453390D01*
X201694286Y-90453390D02*
X201741905Y-90262914D01*
X201741905Y-90262914D02*
X201789524Y-90167676D01*
X201789524Y-90167676D02*
X201884762Y-90072438D01*
X201884762Y-90072438D02*
X202027619Y-90024819D01*
X202027619Y-90024819D02*
X202122857Y-90024819D01*
X202122857Y-90024819D02*
X202265714Y-90072438D01*
X202265714Y-90072438D02*
X202313333Y-90120057D01*
X203265714Y-91024819D02*
X202694286Y-91024819D01*
X202980000Y-91024819D02*
X202980000Y-90024819D01*
X202980000Y-90024819D02*
X202884762Y-90167676D01*
X202884762Y-90167676D02*
X202789524Y-90262914D01*
X202789524Y-90262914D02*
X202694286Y-90310533D01*
X150339048Y-70874819D02*
X150339048Y-69874819D01*
X151386666Y-70874819D02*
X151053333Y-70398628D01*
X150815238Y-70874819D02*
X150815238Y-69874819D01*
X150815238Y-69874819D02*
X151196190Y-69874819D01*
X151196190Y-69874819D02*
X151291428Y-69922438D01*
X151291428Y-69922438D02*
X151339047Y-69970057D01*
X151339047Y-69970057D02*
X151386666Y-70065295D01*
X151386666Y-70065295D02*
X151386666Y-70208152D01*
X151386666Y-70208152D02*
X151339047Y-70303390D01*
X151339047Y-70303390D02*
X151291428Y-70351009D01*
X151291428Y-70351009D02*
X151196190Y-70398628D01*
X151196190Y-70398628D02*
X150815238Y-70398628D01*
X152148571Y-70351009D02*
X151815238Y-70351009D01*
X151815238Y-70874819D02*
X151815238Y-69874819D01*
X151815238Y-69874819D02*
X152291428Y-69874819D01*
X152672381Y-70874819D02*
X152672381Y-69874819D01*
X152672381Y-69874819D02*
X153053333Y-69874819D01*
X153053333Y-69874819D02*
X153148571Y-69922438D01*
X153148571Y-69922438D02*
X153196190Y-69970057D01*
X153196190Y-69970057D02*
X153243809Y-70065295D01*
X153243809Y-70065295D02*
X153243809Y-70208152D01*
X153243809Y-70208152D02*
X153196190Y-70303390D01*
X153196190Y-70303390D02*
X153148571Y-70351009D01*
X153148571Y-70351009D02*
X153053333Y-70398628D01*
X153053333Y-70398628D02*
X152672381Y-70398628D01*
X154196190Y-70874819D02*
X153624762Y-70874819D01*
X153910476Y-70874819D02*
X153910476Y-69874819D01*
X153910476Y-69874819D02*
X153815238Y-70017676D01*
X153815238Y-70017676D02*
X153720000Y-70112914D01*
X153720000Y-70112914D02*
X153624762Y-70160533D01*
X155053333Y-70208152D02*
X155053333Y-70874819D01*
X154815238Y-69827200D02*
X154577143Y-70541485D01*
X154577143Y-70541485D02*
X155196190Y-70541485D01*
X155767619Y-69874819D02*
X155862857Y-69874819D01*
X155862857Y-69874819D02*
X155958095Y-69922438D01*
X155958095Y-69922438D02*
X156005714Y-69970057D01*
X156005714Y-69970057D02*
X156053333Y-70065295D01*
X156053333Y-70065295D02*
X156100952Y-70255771D01*
X156100952Y-70255771D02*
X156100952Y-70493866D01*
X156100952Y-70493866D02*
X156053333Y-70684342D01*
X156053333Y-70684342D02*
X156005714Y-70779580D01*
X156005714Y-70779580D02*
X155958095Y-70827200D01*
X155958095Y-70827200D02*
X155862857Y-70874819D01*
X155862857Y-70874819D02*
X155767619Y-70874819D01*
X155767619Y-70874819D02*
X155672381Y-70827200D01*
X155672381Y-70827200D02*
X155624762Y-70779580D01*
X155624762Y-70779580D02*
X155577143Y-70684342D01*
X155577143Y-70684342D02*
X155529524Y-70493866D01*
X155529524Y-70493866D02*
X155529524Y-70255771D01*
X155529524Y-70255771D02*
X155577143Y-70065295D01*
X155577143Y-70065295D02*
X155624762Y-69970057D01*
X155624762Y-69970057D02*
X155672381Y-69922438D01*
X155672381Y-69922438D02*
X155767619Y-69874819D01*
X156529524Y-70874819D02*
X156529524Y-69874819D01*
X156529524Y-69874819D02*
X157100952Y-70874819D01*
X157100952Y-70874819D02*
X157100952Y-69874819D01*
X182632295Y-74765238D02*
X182632295Y-75222381D01*
X182632295Y-74993809D02*
X181832295Y-74993809D01*
X181832295Y-74993809D02*
X181946580Y-75070000D01*
X181946580Y-75070000D02*
X182022771Y-75146190D01*
X182022771Y-75146190D02*
X182060866Y-75222381D01*
X181832295Y-74269999D02*
X181832295Y-74193809D01*
X181832295Y-74193809D02*
X181870390Y-74117618D01*
X181870390Y-74117618D02*
X181908485Y-74079523D01*
X181908485Y-74079523D02*
X181984676Y-74041428D01*
X181984676Y-74041428D02*
X182137057Y-74003333D01*
X182137057Y-74003333D02*
X182327533Y-74003333D01*
X182327533Y-74003333D02*
X182479914Y-74041428D01*
X182479914Y-74041428D02*
X182556104Y-74079523D01*
X182556104Y-74079523D02*
X182594200Y-74117618D01*
X182594200Y-74117618D02*
X182632295Y-74193809D01*
X182632295Y-74193809D02*
X182632295Y-74269999D01*
X182632295Y-74269999D02*
X182594200Y-74346190D01*
X182594200Y-74346190D02*
X182556104Y-74384285D01*
X182556104Y-74384285D02*
X182479914Y-74422380D01*
X182479914Y-74422380D02*
X182327533Y-74460476D01*
X182327533Y-74460476D02*
X182137057Y-74460476D01*
X182137057Y-74460476D02*
X181984676Y-74422380D01*
X181984676Y-74422380D02*
X181908485Y-74384285D01*
X181908485Y-74384285D02*
X181870390Y-74346190D01*
X181870390Y-74346190D02*
X181832295Y-74269999D01*
X181832295Y-73508094D02*
X181832295Y-73431904D01*
X181832295Y-73431904D02*
X181870390Y-73355713D01*
X181870390Y-73355713D02*
X181908485Y-73317618D01*
X181908485Y-73317618D02*
X181984676Y-73279523D01*
X181984676Y-73279523D02*
X182137057Y-73241428D01*
X182137057Y-73241428D02*
X182327533Y-73241428D01*
X182327533Y-73241428D02*
X182479914Y-73279523D01*
X182479914Y-73279523D02*
X182556104Y-73317618D01*
X182556104Y-73317618D02*
X182594200Y-73355713D01*
X182594200Y-73355713D02*
X182632295Y-73431904D01*
X182632295Y-73431904D02*
X182632295Y-73508094D01*
X182632295Y-73508094D02*
X182594200Y-73584285D01*
X182594200Y-73584285D02*
X182556104Y-73622380D01*
X182556104Y-73622380D02*
X182479914Y-73660475D01*
X182479914Y-73660475D02*
X182327533Y-73698571D01*
X182327533Y-73698571D02*
X182137057Y-73698571D01*
X182137057Y-73698571D02*
X181984676Y-73660475D01*
X181984676Y-73660475D02*
X181908485Y-73622380D01*
X181908485Y-73622380D02*
X181870390Y-73584285D01*
X181870390Y-73584285D02*
X181832295Y-73508094D01*
X182098961Y-72898570D02*
X182898961Y-72898570D01*
X182137057Y-72898570D02*
X182098961Y-72822380D01*
X182098961Y-72822380D02*
X182098961Y-72669999D01*
X182098961Y-72669999D02*
X182137057Y-72593808D01*
X182137057Y-72593808D02*
X182175152Y-72555713D01*
X182175152Y-72555713D02*
X182251342Y-72517618D01*
X182251342Y-72517618D02*
X182479914Y-72517618D01*
X182479914Y-72517618D02*
X182556104Y-72555713D01*
X182556104Y-72555713D02*
X182594200Y-72593808D01*
X182594200Y-72593808D02*
X182632295Y-72669999D01*
X182632295Y-72669999D02*
X182632295Y-72822380D01*
X182632295Y-72822380D02*
X182594200Y-72898570D01*
X171609861Y-93924819D02*
X171609861Y-92924819D01*
X172181289Y-93924819D02*
X171752718Y-93353390D01*
X172181289Y-92924819D02*
X171609861Y-93496247D01*
X175898095Y-99414819D02*
X175898095Y-100224342D01*
X175898095Y-100224342D02*
X175945714Y-100319580D01*
X175945714Y-100319580D02*
X175993333Y-100367200D01*
X175993333Y-100367200D02*
X176088571Y-100414819D01*
X176088571Y-100414819D02*
X176279047Y-100414819D01*
X176279047Y-100414819D02*
X176374285Y-100367200D01*
X176374285Y-100367200D02*
X176421904Y-100319580D01*
X176421904Y-100319580D02*
X176469523Y-100224342D01*
X176469523Y-100224342D02*
X176469523Y-99414819D01*
X176898095Y-99510057D02*
X176945714Y-99462438D01*
X176945714Y-99462438D02*
X177040952Y-99414819D01*
X177040952Y-99414819D02*
X177279047Y-99414819D01*
X177279047Y-99414819D02*
X177374285Y-99462438D01*
X177374285Y-99462438D02*
X177421904Y-99510057D01*
X177421904Y-99510057D02*
X177469523Y-99605295D01*
X177469523Y-99605295D02*
X177469523Y-99700533D01*
X177469523Y-99700533D02*
X177421904Y-99843390D01*
X177421904Y-99843390D02*
X176850476Y-100414819D01*
X176850476Y-100414819D02*
X177469523Y-100414819D01*
X196612295Y-77044286D02*
X196612295Y-77501429D01*
X196612295Y-77272857D02*
X195812295Y-77272857D01*
X195812295Y-77272857D02*
X195926580Y-77349048D01*
X195926580Y-77349048D02*
X196002771Y-77425238D01*
X196002771Y-77425238D02*
X196040866Y-77501429D01*
X195812295Y-76549047D02*
X195812295Y-76472857D01*
X195812295Y-76472857D02*
X195850390Y-76396666D01*
X195850390Y-76396666D02*
X195888485Y-76358571D01*
X195888485Y-76358571D02*
X195964676Y-76320476D01*
X195964676Y-76320476D02*
X196117057Y-76282381D01*
X196117057Y-76282381D02*
X196307533Y-76282381D01*
X196307533Y-76282381D02*
X196459914Y-76320476D01*
X196459914Y-76320476D02*
X196536104Y-76358571D01*
X196536104Y-76358571D02*
X196574200Y-76396666D01*
X196574200Y-76396666D02*
X196612295Y-76472857D01*
X196612295Y-76472857D02*
X196612295Y-76549047D01*
X196612295Y-76549047D02*
X196574200Y-76625238D01*
X196574200Y-76625238D02*
X196536104Y-76663333D01*
X196536104Y-76663333D02*
X196459914Y-76701428D01*
X196459914Y-76701428D02*
X196307533Y-76739524D01*
X196307533Y-76739524D02*
X196117057Y-76739524D01*
X196117057Y-76739524D02*
X195964676Y-76701428D01*
X195964676Y-76701428D02*
X195888485Y-76663333D01*
X195888485Y-76663333D02*
X195850390Y-76625238D01*
X195850390Y-76625238D02*
X195812295Y-76549047D01*
X196078961Y-75939523D02*
X196612295Y-75939523D01*
X196155152Y-75939523D02*
X196117057Y-75901428D01*
X196117057Y-75901428D02*
X196078961Y-75825238D01*
X196078961Y-75825238D02*
X196078961Y-75710952D01*
X196078961Y-75710952D02*
X196117057Y-75634761D01*
X196117057Y-75634761D02*
X196193247Y-75596666D01*
X196193247Y-75596666D02*
X196612295Y-75596666D01*
X206019580Y-95026666D02*
X206067200Y-95074285D01*
X206067200Y-95074285D02*
X206114819Y-95217142D01*
X206114819Y-95217142D02*
X206114819Y-95312380D01*
X206114819Y-95312380D02*
X206067200Y-95455237D01*
X206067200Y-95455237D02*
X205971961Y-95550475D01*
X205971961Y-95550475D02*
X205876723Y-95598094D01*
X205876723Y-95598094D02*
X205686247Y-95645713D01*
X205686247Y-95645713D02*
X205543390Y-95645713D01*
X205543390Y-95645713D02*
X205352914Y-95598094D01*
X205352914Y-95598094D02*
X205257676Y-95550475D01*
X205257676Y-95550475D02*
X205162438Y-95455237D01*
X205162438Y-95455237D02*
X205114819Y-95312380D01*
X205114819Y-95312380D02*
X205114819Y-95217142D01*
X205114819Y-95217142D02*
X205162438Y-95074285D01*
X205162438Y-95074285D02*
X205210057Y-95026666D01*
X205210057Y-94645713D02*
X205162438Y-94598094D01*
X205162438Y-94598094D02*
X205114819Y-94502856D01*
X205114819Y-94502856D02*
X205114819Y-94264761D01*
X205114819Y-94264761D02*
X205162438Y-94169523D01*
X205162438Y-94169523D02*
X205210057Y-94121904D01*
X205210057Y-94121904D02*
X205305295Y-94074285D01*
X205305295Y-94074285D02*
X205400533Y-94074285D01*
X205400533Y-94074285D02*
X205543390Y-94121904D01*
X205543390Y-94121904D02*
X206114819Y-94693332D01*
X206114819Y-94693332D02*
X206114819Y-94074285D01*
X169664761Y-103609795D02*
X169207618Y-103609795D01*
X169436190Y-103609795D02*
X169436190Y-102809795D01*
X169436190Y-102809795D02*
X169359999Y-102924080D01*
X169359999Y-102924080D02*
X169283809Y-103000271D01*
X169283809Y-103000271D02*
X169207618Y-103038366D01*
X170160000Y-102809795D02*
X170236190Y-102809795D01*
X170236190Y-102809795D02*
X170312381Y-102847890D01*
X170312381Y-102847890D02*
X170350476Y-102885985D01*
X170350476Y-102885985D02*
X170388571Y-102962176D01*
X170388571Y-102962176D02*
X170426666Y-103114557D01*
X170426666Y-103114557D02*
X170426666Y-103305033D01*
X170426666Y-103305033D02*
X170388571Y-103457414D01*
X170388571Y-103457414D02*
X170350476Y-103533604D01*
X170350476Y-103533604D02*
X170312381Y-103571700D01*
X170312381Y-103571700D02*
X170236190Y-103609795D01*
X170236190Y-103609795D02*
X170160000Y-103609795D01*
X170160000Y-103609795D02*
X170083809Y-103571700D01*
X170083809Y-103571700D02*
X170045714Y-103533604D01*
X170045714Y-103533604D02*
X170007619Y-103457414D01*
X170007619Y-103457414D02*
X169969523Y-103305033D01*
X169969523Y-103305033D02*
X169969523Y-103114557D01*
X169969523Y-103114557D02*
X170007619Y-102962176D01*
X170007619Y-102962176D02*
X170045714Y-102885985D01*
X170045714Y-102885985D02*
X170083809Y-102847890D01*
X170083809Y-102847890D02*
X170160000Y-102809795D01*
X170921905Y-102809795D02*
X170998095Y-102809795D01*
X170998095Y-102809795D02*
X171074286Y-102847890D01*
X171074286Y-102847890D02*
X171112381Y-102885985D01*
X171112381Y-102885985D02*
X171150476Y-102962176D01*
X171150476Y-102962176D02*
X171188571Y-103114557D01*
X171188571Y-103114557D02*
X171188571Y-103305033D01*
X171188571Y-103305033D02*
X171150476Y-103457414D01*
X171150476Y-103457414D02*
X171112381Y-103533604D01*
X171112381Y-103533604D02*
X171074286Y-103571700D01*
X171074286Y-103571700D02*
X170998095Y-103609795D01*
X170998095Y-103609795D02*
X170921905Y-103609795D01*
X170921905Y-103609795D02*
X170845714Y-103571700D01*
X170845714Y-103571700D02*
X170807619Y-103533604D01*
X170807619Y-103533604D02*
X170769524Y-103457414D01*
X170769524Y-103457414D02*
X170731428Y-103305033D01*
X170731428Y-103305033D02*
X170731428Y-103114557D01*
X170731428Y-103114557D02*
X170769524Y-102962176D01*
X170769524Y-102962176D02*
X170807619Y-102885985D01*
X170807619Y-102885985D02*
X170845714Y-102847890D01*
X170845714Y-102847890D02*
X170921905Y-102809795D01*
X171531429Y-103076461D02*
X171531429Y-103609795D01*
X171531429Y-103152652D02*
X171569524Y-103114557D01*
X171569524Y-103114557D02*
X171645714Y-103076461D01*
X171645714Y-103076461D02*
X171760000Y-103076461D01*
X171760000Y-103076461D02*
X171836191Y-103114557D01*
X171836191Y-103114557D02*
X171874286Y-103190747D01*
X171874286Y-103190747D02*
X171874286Y-103609795D01*
X197109580Y-97512857D02*
X197157200Y-97560476D01*
X197157200Y-97560476D02*
X197204819Y-97703333D01*
X197204819Y-97703333D02*
X197204819Y-97798571D01*
X197204819Y-97798571D02*
X197157200Y-97941428D01*
X197157200Y-97941428D02*
X197061961Y-98036666D01*
X197061961Y-98036666D02*
X196966723Y-98084285D01*
X196966723Y-98084285D02*
X196776247Y-98131904D01*
X196776247Y-98131904D02*
X196633390Y-98131904D01*
X196633390Y-98131904D02*
X196442914Y-98084285D01*
X196442914Y-98084285D02*
X196347676Y-98036666D01*
X196347676Y-98036666D02*
X196252438Y-97941428D01*
X196252438Y-97941428D02*
X196204819Y-97798571D01*
X196204819Y-97798571D02*
X196204819Y-97703333D01*
X196204819Y-97703333D02*
X196252438Y-97560476D01*
X196252438Y-97560476D02*
X196300057Y-97512857D01*
X197204819Y-96560476D02*
X197204819Y-97131904D01*
X197204819Y-96846190D02*
X196204819Y-96846190D01*
X196204819Y-96846190D02*
X196347676Y-96941428D01*
X196347676Y-96941428D02*
X196442914Y-97036666D01*
X196442914Y-97036666D02*
X196490533Y-97131904D01*
X196204819Y-95941428D02*
X196204819Y-95846190D01*
X196204819Y-95846190D02*
X196252438Y-95750952D01*
X196252438Y-95750952D02*
X196300057Y-95703333D01*
X196300057Y-95703333D02*
X196395295Y-95655714D01*
X196395295Y-95655714D02*
X196585771Y-95608095D01*
X196585771Y-95608095D02*
X196823866Y-95608095D01*
X196823866Y-95608095D02*
X197014342Y-95655714D01*
X197014342Y-95655714D02*
X197109580Y-95703333D01*
X197109580Y-95703333D02*
X197157200Y-95750952D01*
X197157200Y-95750952D02*
X197204819Y-95846190D01*
X197204819Y-95846190D02*
X197204819Y-95941428D01*
X197204819Y-95941428D02*
X197157200Y-96036666D01*
X197157200Y-96036666D02*
X197109580Y-96084285D01*
X197109580Y-96084285D02*
X197014342Y-96131904D01*
X197014342Y-96131904D02*
X196823866Y-96179523D01*
X196823866Y-96179523D02*
X196585771Y-96179523D01*
X196585771Y-96179523D02*
X196395295Y-96131904D01*
X196395295Y-96131904D02*
X196300057Y-96084285D01*
X196300057Y-96084285D02*
X196252438Y-96036666D01*
X196252438Y-96036666D02*
X196204819Y-95941428D01*
X182634819Y-93491428D02*
X182634819Y-94062856D01*
X182634819Y-93777142D02*
X181634819Y-93777142D01*
X181634819Y-93777142D02*
X181777676Y-93872380D01*
X181777676Y-93872380D02*
X181872914Y-93967618D01*
X181872914Y-93967618D02*
X181920533Y-94062856D01*
X181634819Y-92872380D02*
X181634819Y-92777142D01*
X181634819Y-92777142D02*
X181682438Y-92681904D01*
X181682438Y-92681904D02*
X181730057Y-92634285D01*
X181730057Y-92634285D02*
X181825295Y-92586666D01*
X181825295Y-92586666D02*
X182015771Y-92539047D01*
X182015771Y-92539047D02*
X182253866Y-92539047D01*
X182253866Y-92539047D02*
X182444342Y-92586666D01*
X182444342Y-92586666D02*
X182539580Y-92634285D01*
X182539580Y-92634285D02*
X182587200Y-92681904D01*
X182587200Y-92681904D02*
X182634819Y-92777142D01*
X182634819Y-92777142D02*
X182634819Y-92872380D01*
X182634819Y-92872380D02*
X182587200Y-92967618D01*
X182587200Y-92967618D02*
X182539580Y-93015237D01*
X182539580Y-93015237D02*
X182444342Y-93062856D01*
X182444342Y-93062856D02*
X182253866Y-93110475D01*
X182253866Y-93110475D02*
X182015771Y-93110475D01*
X182015771Y-93110475D02*
X181825295Y-93062856D01*
X181825295Y-93062856D02*
X181730057Y-93015237D01*
X181730057Y-93015237D02*
X181682438Y-92967618D01*
X181682438Y-92967618D02*
X181634819Y-92872380D01*
X181634819Y-91919999D02*
X181634819Y-91824761D01*
X181634819Y-91824761D02*
X181682438Y-91729523D01*
X181682438Y-91729523D02*
X181730057Y-91681904D01*
X181730057Y-91681904D02*
X181825295Y-91634285D01*
X181825295Y-91634285D02*
X182015771Y-91586666D01*
X182015771Y-91586666D02*
X182253866Y-91586666D01*
X182253866Y-91586666D02*
X182444342Y-91634285D01*
X182444342Y-91634285D02*
X182539580Y-91681904D01*
X182539580Y-91681904D02*
X182587200Y-91729523D01*
X182587200Y-91729523D02*
X182634819Y-91824761D01*
X182634819Y-91824761D02*
X182634819Y-91919999D01*
X182634819Y-91919999D02*
X182587200Y-92015237D01*
X182587200Y-92015237D02*
X182539580Y-92062856D01*
X182539580Y-92062856D02*
X182444342Y-92110475D01*
X182444342Y-92110475D02*
X182253866Y-92158094D01*
X182253866Y-92158094D02*
X182015771Y-92158094D01*
X182015771Y-92158094D02*
X181825295Y-92110475D01*
X181825295Y-92110475D02*
X181730057Y-92062856D01*
X181730057Y-92062856D02*
X181682438Y-92015237D01*
X181682438Y-92015237D02*
X181634819Y-91919999D01*
X182634819Y-91158094D02*
X181634819Y-91158094D01*
X182253866Y-91062856D02*
X182634819Y-90777142D01*
X181968152Y-90777142D02*
X182349104Y-91158094D01*
X184333333Y-89414819D02*
X183857143Y-89414819D01*
X183857143Y-89414819D02*
X183857143Y-88414819D01*
X184571429Y-88414819D02*
X185190476Y-88414819D01*
X185190476Y-88414819D02*
X184857143Y-88795771D01*
X184857143Y-88795771D02*
X185000000Y-88795771D01*
X185000000Y-88795771D02*
X185095238Y-88843390D01*
X185095238Y-88843390D02*
X185142857Y-88891009D01*
X185142857Y-88891009D02*
X185190476Y-88986247D01*
X185190476Y-88986247D02*
X185190476Y-89224342D01*
X185190476Y-89224342D02*
X185142857Y-89319580D01*
X185142857Y-89319580D02*
X185095238Y-89367200D01*
X185095238Y-89367200D02*
X185000000Y-89414819D01*
X185000000Y-89414819D02*
X184714286Y-89414819D01*
X184714286Y-89414819D02*
X184619048Y-89367200D01*
X184619048Y-89367200D02*
X184571429Y-89319580D01*
D12*
%TO.C,C9*%
X170948748Y-97240000D02*
X172371252Y-97240000D01*
X170948748Y-95420000D02*
X172371252Y-95420000D01*
%TO.C,C7*%
X188901252Y-89080000D02*
X187478748Y-89080000D01*
X188901252Y-90900000D02*
X187478748Y-90900000D01*
%TO.C,L4*%
X193360000Y-83200000D02*
X198600000Y-83200000D01*
X193360000Y-87065000D02*
X193360000Y-83200000D01*
X193360000Y-93440000D02*
X193360000Y-89575000D01*
X193360000Y-93440000D02*
X198600000Y-93440000D01*
X198600000Y-87065000D02*
X198600000Y-83200000D01*
X198600000Y-93440000D02*
X198600000Y-89575000D01*
%TO.C,C17*%
X184020000Y-77081248D02*
X184020000Y-78503752D01*
X185840000Y-77081248D02*
X185840000Y-78503752D01*
%TO.C,RF_OUT1*%
X201717500Y-85210000D02*
X201717500Y-85710000D01*
X201717500Y-85710000D02*
X202217500Y-85460000D01*
X202217500Y-85460000D02*
X201717500Y-85210000D01*
X202767500Y-84620000D02*
X202767500Y-83510000D01*
X202767500Y-87410000D02*
X202767500Y-86300000D01*
X206477500Y-84620000D02*
X206477500Y-83510000D01*
X206477500Y-87410000D02*
X206477500Y-86300000D01*
%TO.C,C14*%
X187740000Y-77058748D02*
X187740000Y-78481252D01*
X189560000Y-77058748D02*
X189560000Y-78481252D01*
D13*
%TO.C,Power1*%
X179350000Y-71012500D02*
X179350000Y-69632500D01*
X179350000Y-71012500D02*
X181330000Y-71012500D01*
D12*
X188350000Y-62972500D02*
X179400000Y-62952500D01*
D13*
X188350000Y-71012500D02*
X186370000Y-71012500D01*
D14*
X183950000Y-72412500D02*
G75*
G02*
X183750000Y-72412500I-100000J0D01*
G01*
X183750000Y-72412500D02*
G75*
G02*
X183950000Y-72412500I100000J0D01*
G01*
D12*
%TO.C,C15*%
X169181651Y-67583000D02*
X169181651Y-66517000D01*
X169221651Y-67818000D02*
X169221651Y-66282000D01*
X169261651Y-67998000D02*
X169261651Y-66102000D01*
X169301651Y-68148000D02*
X169301651Y-65952000D01*
X169341651Y-68279000D02*
X169341651Y-65821000D01*
X169381651Y-68396000D02*
X169381651Y-65704000D01*
X169421651Y-68503000D02*
X169421651Y-65597000D01*
X169461651Y-68602000D02*
X169461651Y-65498000D01*
X169501651Y-68695000D02*
X169501651Y-65405000D01*
X169541651Y-68781000D02*
X169541651Y-65319000D01*
X169581651Y-68863000D02*
X169581651Y-65237000D01*
X169621651Y-68940000D02*
X169621651Y-65160000D01*
X169661651Y-69014000D02*
X169661651Y-65086000D01*
X169701651Y-69084000D02*
X169701651Y-65016000D01*
X169741651Y-66010000D02*
X169741651Y-64948000D01*
X169741651Y-69152000D02*
X169741651Y-68090000D01*
X169781651Y-66010000D02*
X169781651Y-64884000D01*
X169781651Y-69216000D02*
X169781651Y-68090000D01*
X169821651Y-66010000D02*
X169821651Y-64822000D01*
X169821651Y-69278000D02*
X169821651Y-68090000D01*
X169861651Y-66010000D02*
X169861651Y-64763000D01*
X169861651Y-69337000D02*
X169861651Y-68090000D01*
X169901651Y-66010000D02*
X169901651Y-64705000D01*
X169901651Y-69395000D02*
X169901651Y-68090000D01*
X169941651Y-66010000D02*
X169941651Y-64650000D01*
X169941651Y-69450000D02*
X169941651Y-68090000D01*
X169981651Y-66010000D02*
X169981651Y-64596000D01*
X169981651Y-69504000D02*
X169981651Y-68090000D01*
X170021651Y-66010000D02*
X170021651Y-64545000D01*
X170021651Y-69555000D02*
X170021651Y-68090000D01*
X170061651Y-66010000D02*
X170061651Y-64494000D01*
X170061651Y-69606000D02*
X170061651Y-68090000D01*
X170101651Y-66010000D02*
X170101651Y-64446000D01*
X170101651Y-69654000D02*
X170101651Y-68090000D01*
X170141651Y-66010000D02*
X170141651Y-64399000D01*
X170141651Y-69701000D02*
X170141651Y-68090000D01*
X170181651Y-66010000D02*
X170181651Y-64353000D01*
X170181651Y-69747000D02*
X170181651Y-68090000D01*
X170221651Y-66010000D02*
X170221651Y-64309000D01*
X170221651Y-69791000D02*
X170221651Y-68090000D01*
X170261651Y-66010000D02*
X170261651Y-64266000D01*
X170261651Y-69834000D02*
X170261651Y-68090000D01*
X170301651Y-66010000D02*
X170301651Y-64224000D01*
X170301651Y-69876000D02*
X170301651Y-68090000D01*
X170341651Y-66010000D02*
X170341651Y-64183000D01*
X170341651Y-69917000D02*
X170341651Y-68090000D01*
X170381651Y-66010000D02*
X170381651Y-64143000D01*
X170381651Y-69957000D02*
X170381651Y-68090000D01*
X170421651Y-66010000D02*
X170421651Y-64105000D01*
X170421651Y-69995000D02*
X170421651Y-68090000D01*
X170461651Y-66010000D02*
X170461651Y-64067000D01*
X170461651Y-70033000D02*
X170461651Y-68090000D01*
X170501651Y-66010000D02*
X170501651Y-64031000D01*
X170501651Y-70069000D02*
X170501651Y-68090000D01*
X170541651Y-66010000D02*
X170541651Y-63995000D01*
X170541651Y-70105000D02*
X170541651Y-68090000D01*
X170581651Y-66010000D02*
X170581651Y-63960000D01*
X170581651Y-70140000D02*
X170581651Y-68090000D01*
X170621651Y-66010000D02*
X170621651Y-63926000D01*
X170621651Y-70174000D02*
X170621651Y-68090000D01*
X170661651Y-66010000D02*
X170661651Y-63894000D01*
X170661651Y-70206000D02*
X170661651Y-68090000D01*
X170701651Y-66010000D02*
X170701651Y-63861000D01*
X170701651Y-70239000D02*
X170701651Y-68090000D01*
X170741651Y-66010000D02*
X170741651Y-63830000D01*
X170741651Y-70270000D02*
X170741651Y-68090000D01*
X170781651Y-66010000D02*
X170781651Y-63800000D01*
X170781651Y-70300000D02*
X170781651Y-68090000D01*
X170821651Y-66010000D02*
X170821651Y-63770000D01*
X170821651Y-70330000D02*
X170821651Y-68090000D01*
X170861651Y-66010000D02*
X170861651Y-63741000D01*
X170861651Y-70359000D02*
X170861651Y-68090000D01*
X170901651Y-66010000D02*
X170901651Y-63712000D01*
X170901651Y-70388000D02*
X170901651Y-68090000D01*
X170941651Y-66010000D02*
X170941651Y-63685000D01*
X170941651Y-70415000D02*
X170941651Y-68090000D01*
X170981651Y-66010000D02*
X170981651Y-63658000D01*
X170981651Y-70442000D02*
X170981651Y-68090000D01*
X171021651Y-66010000D02*
X171021651Y-63632000D01*
X171021651Y-70468000D02*
X171021651Y-68090000D01*
X171061651Y-66010000D02*
X171061651Y-63606000D01*
X171061651Y-70494000D02*
X171061651Y-68090000D01*
X171101651Y-66010000D02*
X171101651Y-63581000D01*
X171101651Y-70519000D02*
X171101651Y-68090000D01*
X171141651Y-66010000D02*
X171141651Y-63557000D01*
X171141651Y-70543000D02*
X171141651Y-68090000D01*
X171181651Y-66010000D02*
X171181651Y-63533000D01*
X171181651Y-70567000D02*
X171181651Y-68090000D01*
X171221651Y-66010000D02*
X171221651Y-63510000D01*
X171221651Y-70590000D02*
X171221651Y-68090000D01*
X171261651Y-66010000D02*
X171261651Y-63488000D01*
X171261651Y-70612000D02*
X171261651Y-68090000D01*
X171301651Y-66010000D02*
X171301651Y-63466000D01*
X171301651Y-70634000D02*
X171301651Y-68090000D01*
X171341651Y-66010000D02*
X171341651Y-63444000D01*
X171341651Y-70656000D02*
X171341651Y-68090000D01*
X171381651Y-66010000D02*
X171381651Y-63423000D01*
X171381651Y-70677000D02*
X171381651Y-68090000D01*
X171421651Y-66010000D02*
X171421651Y-63403000D01*
X171421651Y-70697000D02*
X171421651Y-68090000D01*
X171461651Y-66010000D02*
X171461651Y-63384000D01*
X171461651Y-70716000D02*
X171461651Y-68090000D01*
X171501651Y-66010000D02*
X171501651Y-63364000D01*
X171501651Y-70736000D02*
X171501651Y-68090000D01*
X171541651Y-66010000D02*
X171541651Y-63346000D01*
X171541651Y-70754000D02*
X171541651Y-68090000D01*
X171581651Y-66010000D02*
X171581651Y-63328000D01*
X171581651Y-70772000D02*
X171581651Y-68090000D01*
X171621651Y-66010000D02*
X171621651Y-63310000D01*
X171621651Y-70790000D02*
X171621651Y-68090000D01*
X171661651Y-66010000D02*
X171661651Y-63293000D01*
X171661651Y-70807000D02*
X171661651Y-68090000D01*
X171701651Y-66010000D02*
X171701651Y-63276000D01*
X171701651Y-70824000D02*
X171701651Y-68090000D01*
X171741651Y-66010000D02*
X171741651Y-63260000D01*
X171741651Y-70840000D02*
X171741651Y-68090000D01*
X171781651Y-66010000D02*
X171781651Y-63245000D01*
X171781651Y-70855000D02*
X171781651Y-68090000D01*
X171821651Y-70871000D02*
X171821651Y-63229000D01*
X171861651Y-70885000D02*
X171861651Y-63215000D01*
X171901651Y-70900000D02*
X171901651Y-63200000D01*
X171941651Y-70913000D02*
X171941651Y-63187000D01*
X171981651Y-70927000D02*
X171981651Y-63173000D01*
X172021651Y-70939000D02*
X172021651Y-63161000D01*
X172061651Y-70952000D02*
X172061651Y-63148000D01*
X172101651Y-70964000D02*
X172101651Y-63136000D01*
X172141651Y-70975000D02*
X172141651Y-63125000D01*
X172181651Y-70986000D02*
X172181651Y-63114000D01*
X172221651Y-70997000D02*
X172221651Y-63103000D01*
X172261651Y-71007000D02*
X172261651Y-63093000D01*
X172301651Y-71017000D02*
X172301651Y-63083000D01*
X172341651Y-71026000D02*
X172341651Y-63074000D01*
X172381651Y-71035000D02*
X172381651Y-63065000D01*
X172421651Y-71044000D02*
X172421651Y-63056000D01*
X172461651Y-71052000D02*
X172461651Y-63048000D01*
X172501651Y-71060000D02*
X172501651Y-63040000D01*
X172541651Y-71067000D02*
X172541651Y-63033000D01*
X172582651Y-71074000D02*
X172582651Y-63026000D01*
X172622651Y-71080000D02*
X172622651Y-63020000D01*
X172662651Y-71087000D02*
X172662651Y-63013000D01*
X172702651Y-71092000D02*
X172702651Y-63008000D01*
X172742651Y-71098000D02*
X172742651Y-63002000D01*
X172782651Y-71102000D02*
X172782651Y-62998000D01*
X172822651Y-71107000D02*
X172822651Y-62993000D01*
X172862651Y-71111000D02*
X172862651Y-62989000D01*
X172902651Y-71115000D02*
X172902651Y-62985000D01*
X172942651Y-71118000D02*
X172942651Y-62982000D01*
X172982651Y-71121000D02*
X172982651Y-62979000D01*
X173022651Y-71124000D02*
X173022651Y-62976000D01*
X173062651Y-71126000D02*
X173062651Y-62974000D01*
X173102651Y-71127000D02*
X173102651Y-62973000D01*
X173142651Y-71129000D02*
X173142651Y-62971000D01*
X173182651Y-71130000D02*
X173182651Y-62970000D01*
X173222651Y-71130000D02*
X173222651Y-62970000D01*
X173262651Y-71130000D02*
X173262651Y-62970000D01*
X177272349Y-69765000D02*
X177272349Y-68965000D01*
X177672349Y-69365000D02*
X176872349Y-69365000D01*
X177382651Y-67050000D02*
G75*
G02*
X169142651Y-67050000I-4120000J0D01*
G01*
X169142651Y-67050000D02*
G75*
G02*
X177382651Y-67050000I4120000J0D01*
G01*
%TO.C,C4*%
X174200000Y-93111252D02*
X174200000Y-91688748D01*
X176020000Y-93111252D02*
X176020000Y-91688748D01*
%TO.C,C1*%
X201768748Y-91510000D02*
X203191252Y-91510000D01*
X201768748Y-93330000D02*
X203191252Y-93330000D01*
%TO.C,RF_IN1*%
X173620000Y-105230000D02*
X174730000Y-105230000D01*
X173620000Y-108940000D02*
X174730000Y-108940000D01*
X175320000Y-104180000D02*
X175570000Y-104680000D01*
X175570000Y-104680000D02*
X175820000Y-104180000D01*
X175820000Y-104180000D02*
X175320000Y-104180000D01*
X176410000Y-105230000D02*
X177520000Y-105230000D01*
X176410000Y-108940000D02*
X177520000Y-108940000D01*
%TO.C,C3*%
X181440000Y-78501252D02*
X181440000Y-77078748D01*
X183260000Y-78501252D02*
X183260000Y-77078748D01*
%TO.C,D1*%
X168881153Y-94530000D02*
G75*
G02*
X168821551Y-92262634I-1311153J1100000D01*
G01*
%TO.C,U2*%
X175890000Y-99082500D02*
X177690000Y-99082500D01*
X176890000Y-95862500D02*
X176090000Y-95862500D01*
X176890000Y-95862500D02*
X177690000Y-95862500D01*
X175590000Y-95912500D02*
X175350000Y-95582500D01*
X175830000Y-95582500D01*
X175590000Y-95912500D01*
G36*
X175590000Y-95912500D02*
G01*
X175350000Y-95582500D01*
X175830000Y-95582500D01*
X175590000Y-95912500D01*
G37*
%TO.C,C6*%
X192358748Y-75550000D02*
X193781252Y-75550000D01*
X192358748Y-77370000D02*
X193781252Y-77370000D01*
%TO.C,C2*%
X201761248Y-94020000D02*
X203183752Y-94020000D01*
X201761248Y-95840000D02*
X203183752Y-95840000D01*
%TO.C,C8*%
X169430000Y-99448748D02*
X169430000Y-100871252D01*
X171250000Y-99448748D02*
X171250000Y-100871252D01*
%TO.C,C10*%
X197580000Y-95758748D02*
X197580000Y-97181252D01*
X199400000Y-95758748D02*
X199400000Y-97181252D01*
%TO.C,R2*%
X176950000Y-91662936D02*
X176950000Y-93117064D01*
X178770000Y-91662936D02*
X178770000Y-93117064D01*
%TO.C,R3*%
X179390000Y-91692936D02*
X179390000Y-93147064D01*
X181210000Y-91692936D02*
X181210000Y-93147064D01*
%TO.C,L3*%
X181030000Y-80820000D02*
X188430000Y-80820000D01*
X181030000Y-83120000D02*
X181030000Y-80820000D01*
X181030000Y-88220000D02*
X181030000Y-85920000D01*
X188430000Y-80820000D02*
X188430000Y-83120000D01*
X188430000Y-85920000D02*
X188430000Y-88220000D01*
X188430000Y-88220000D02*
X181030000Y-88220000D01*
%TD*%
%LPC*%
D15*
%TO.C,C9*%
X173222500Y-96330000D03*
X170097500Y-96330000D03*
%TD*%
D16*
%TO.C,C7*%
X189752500Y-89990000D03*
X186627500Y-89990000D03*
%TD*%
D17*
%TO.C,L4*%
X193440000Y-88320000D03*
X198520000Y-88320000D03*
%TD*%
D18*
%TO.C,H3*%
X139400000Y-105720000D03*
X140102944Y-104022944D03*
X140102944Y-107417056D03*
X141800000Y-103320000D03*
D19*
X141800000Y-105720000D03*
D18*
X141800000Y-108120000D03*
X143497056Y-104022944D03*
X143497056Y-107417056D03*
X144200000Y-105720000D03*
%TD*%
D20*
%TO.C,C17*%
X184930000Y-76230000D03*
X184930000Y-79355000D03*
%TD*%
D21*
%TO.C,RF_OUT1*%
X204677500Y-85460000D03*
D22*
X204477500Y-88285000D03*
X204477500Y-82635000D03*
%TD*%
D20*
%TO.C,C14*%
X188650000Y-76207500D03*
X188650000Y-79332500D03*
%TD*%
D23*
%TO.C,Power1*%
X183850000Y-70312500D03*
D24*
X183850000Y-64312500D03*
D25*
X179150000Y-67312500D03*
%TD*%
D26*
%TO.C,C15*%
X175762651Y-67050000D03*
D27*
X170762651Y-67050000D03*
%TD*%
D28*
%TO.C,C4*%
X175110000Y-93962500D03*
X175110000Y-90837500D03*
%TD*%
D18*
%TO.C,H4*%
X201300000Y-105790000D03*
X202002944Y-104092944D03*
X202002944Y-107487056D03*
X203700000Y-103390000D03*
D19*
X203700000Y-105790000D03*
D18*
X203700000Y-108190000D03*
X205397056Y-104092944D03*
X205397056Y-107487056D03*
X206100000Y-105790000D03*
%TD*%
D29*
%TO.C,U3*%
X150920000Y-100390000D03*
D30*
X167580000Y-102930000D03*
D31*
X167580000Y-100390000D03*
X167580000Y-97850000D03*
%TD*%
D15*
%TO.C,C1*%
X200917500Y-92420000D03*
X204042500Y-92420000D03*
%TD*%
D32*
%TO.C,RF_IN1*%
X175570000Y-107140000D03*
D33*
X172745000Y-106940000D03*
X178395000Y-106940000D03*
%TD*%
D34*
%TO.C,Q1*%
X156840000Y-81430000D03*
D35*
X176700000Y-86880000D03*
D36*
X176700000Y-81430000D03*
X176700000Y-75980000D03*
%TD*%
D28*
%TO.C,C3*%
X182350000Y-79352500D03*
X182350000Y-76227500D03*
%TD*%
D37*
%TO.C,D1*%
X170110000Y-93430000D03*
D38*
X167570000Y-93430000D03*
%TD*%
D39*
%TO.C,U2*%
X175440000Y-96522500D03*
X175440000Y-97472500D03*
X175440000Y-98422500D03*
X178140000Y-98422500D03*
X178140000Y-96522500D03*
%TD*%
D15*
%TO.C,C6*%
X191507500Y-76460000D03*
X194632500Y-76460000D03*
%TD*%
D18*
%TO.C,H1*%
X139430000Y-66200000D03*
X140132944Y-64502944D03*
X140132944Y-67897056D03*
X141830000Y-63800000D03*
D19*
X141830000Y-66200000D03*
D18*
X141830000Y-68600000D03*
X143527056Y-64502944D03*
X143527056Y-67897056D03*
X144230000Y-66200000D03*
%TD*%
D15*
%TO.C,C2*%
X200910000Y-94930000D03*
X204035000Y-94930000D03*
%TD*%
D20*
%TO.C,C8*%
X170340000Y-98597500D03*
X170340000Y-101722500D03*
%TD*%
%TO.C,C10*%
X198490000Y-94907500D03*
X198490000Y-98032500D03*
%TD*%
D18*
%TO.C,H2*%
X201352944Y-66177944D03*
X202055888Y-64480888D03*
X202055888Y-67875000D03*
X203752944Y-63777944D03*
D19*
X203752944Y-66177944D03*
D18*
X203752944Y-68577944D03*
X205450000Y-64480888D03*
X205450000Y-67875000D03*
X206152944Y-66177944D03*
%TD*%
D40*
%TO.C,R2*%
X177860000Y-90840000D03*
X177860000Y-93940000D03*
%TD*%
%TO.C,R3*%
X180300000Y-90870000D03*
X180300000Y-93970000D03*
%TD*%
D41*
%TO.C,L3*%
X188205000Y-84520000D03*
X181255000Y-84520000D03*
%TD*%
%LPD*%
M02*
