%TF.GenerationSoftware,KiCad,Pcbnew,8.99.0-unknown-2b81d3a93c~180~ubuntu22.04.1*%
%TF.CreationDate,2024-08-01T07:46:56+05:30*%
%TF.ProjectId,HF-PA-v10,48462d50-412d-4763-9130-2e6b69636164,rev?*%
%TF.SameCoordinates,Original*%
%TF.FileFunction,Copper,L2,Bot*%
%TF.FilePolarity,Positive*%
%FSLAX46Y46*%
G04 Gerber Fmt 4.6, Leading zero omitted, Abs format (unit mm)*
G04 Created by KiCad (PCBNEW 8.99.0-unknown-2b81d3a93c~180~ubuntu22.04.1) date 2024-08-01 07:46:56*
%MOMM*%
%LPD*%
G01*
G04 APERTURE LIST*
G04 Aperture macros list*
%AMRoundRect*
0 Rectangle with rounded corners*
0 $1 Rounding radius*
0 $2 $3 $4 $5 $6 $7 $8 $9 X,Y pos of 4 corners*
0 Add a 4 corners polygon primitive as box body*
4,1,4,$2,$3,$4,$5,$6,$7,$8,$9,$2,$3,0*
0 Add four circle primitives for the rounded corners*
1,1,$1+$1,$2,$3*
1,1,$1+$1,$4,$5*
1,1,$1+$1,$6,$7*
1,1,$1+$1,$8,$9*
0 Add four rect primitives between the rounded corners*
20,1,$1+$1,$2,$3,$4,$5,0*
20,1,$1+$1,$4,$5,$6,$7,0*
20,1,$1+$1,$6,$7,$8,$9,0*
20,1,$1+$1,$8,$9,$2,$3,0*%
G04 Aperture macros list end*
%TA.AperFunction,ComponentPad*%
%ADD10C,0.800000*%
%TD*%
%TA.AperFunction,ComponentPad*%
%ADD11C,6.400000*%
%TD*%
%TA.AperFunction,SMDPad,CuDef*%
%ADD12RoundRect,0.250000X1.600000X-0.425000X1.600000X0.425000X-1.600000X0.425000X-1.600000X-0.425000X0*%
%TD*%
%TA.AperFunction,ComponentPad*%
%ADD13O,4.400000X2.200000*%
%TD*%
%TA.AperFunction,ComponentPad*%
%ADD14O,4.000000X2.000000*%
%TD*%
%TA.AperFunction,ComponentPad*%
%ADD15O,2.000000X4.000000*%
%TD*%
%TA.AperFunction,SMDPad,CuDef*%
%ADD16RoundRect,0.250000X-0.425000X-1.600000X0.425000X-1.600000X0.425000X1.600000X-0.425000X1.600000X0*%
%TD*%
%TA.AperFunction,ComponentPad*%
%ADD17R,4.500000X2.500000*%
%TD*%
%TA.AperFunction,ComponentPad*%
%ADD18O,4.500000X2.500000*%
%TD*%
%TA.AperFunction,ComponentPad*%
%ADD19R,1.600000X1.600000*%
%TD*%
%TA.AperFunction,ComponentPad*%
%ADD20C,1.600000*%
%TD*%
%TA.AperFunction,ViaPad*%
%ADD21C,0.800000*%
%TD*%
%TA.AperFunction,Conductor*%
%ADD22C,1.500000*%
%TD*%
G04 APERTURE END LIST*
D10*
%TO.P,H3,1,1*%
%TO.N,GND*%
X139400000Y-105720000D03*
X140102944Y-104022944D03*
X140102944Y-107417056D03*
X141800000Y-103320000D03*
D11*
X141800000Y-105720000D03*
D10*
X141800000Y-108120000D03*
X143497056Y-104022944D03*
X143497056Y-107417056D03*
X144200000Y-105720000D03*
%TD*%
D12*
%TO.P,RF_OUT1,2,Ext*%
%TO.N,GND*%
X204557500Y-81895000D03*
X204557500Y-87545000D03*
%TD*%
D13*
%TO.P,Power1,1*%
%TO.N,+VDC*%
X183850000Y-70312500D03*
D14*
%TO.P,Power1,2*%
%TO.N,GND*%
X183850000Y-64312500D03*
D15*
%TO.P,Power1,3*%
%TO.N,unconnected-(Power1-Pad3)*%
X179150000Y-67312500D03*
%TD*%
D10*
%TO.P,H4,1,1*%
%TO.N,GND*%
X201300000Y-105790000D03*
X202002944Y-104092944D03*
X202002944Y-107487056D03*
X203700000Y-103390000D03*
D11*
X203700000Y-105790000D03*
D10*
X203700000Y-108190000D03*
X205397056Y-104092944D03*
X205397056Y-107487056D03*
X206100000Y-105790000D03*
%TD*%
D16*
%TO.P,RF_IN1,2,Ext*%
%TO.N,GND*%
X178395000Y-106690000D03*
X172745000Y-106690000D03*
%TD*%
D17*
%TO.P,Q1,1,G*%
%TO.N,Net-(Q1-G)*%
X176600000Y-86720000D03*
D18*
%TO.P,Q1,2,D*%
%TO.N,/DRAIN*%
X176600000Y-81270000D03*
%TO.P,Q1,3,S*%
%TO.N,GND*%
X176600000Y-75820000D03*
%TD*%
D19*
%TO.P,C6,1*%
%TO.N,+VDC*%
X196187349Y-75180000D03*
D20*
%TO.P,C6,2*%
%TO.N,GND*%
X201187349Y-75180000D03*
%TD*%
D10*
%TO.P,H1,1,1*%
%TO.N,GND*%
X139430000Y-66200000D03*
X140132944Y-64502944D03*
X140132944Y-67897056D03*
X141830000Y-63800000D03*
D11*
X141830000Y-66200000D03*
D10*
X141830000Y-68600000D03*
X143527056Y-64502944D03*
X143527056Y-67897056D03*
X144230000Y-66200000D03*
%TD*%
%TO.P,H2,1,1*%
%TO.N,GND*%
X201352944Y-66177944D03*
X202055888Y-64480888D03*
X202055888Y-67875000D03*
X203752944Y-63777944D03*
D11*
X203752944Y-66177944D03*
D10*
X203752944Y-68577944D03*
X205450000Y-64480888D03*
X205450000Y-67875000D03*
X206152944Y-66177944D03*
%TD*%
D21*
%TO.N,GND*%
X143980000Y-76400000D03*
X197820000Y-64080000D03*
X141680000Y-98740000D03*
X143980000Y-71320000D03*
X141470000Y-89050000D03*
X157950000Y-65770000D03*
X141470000Y-76340000D03*
X201370000Y-97830000D03*
X192740000Y-64080000D03*
X150700000Y-99000000D03*
X190140000Y-66590000D03*
X150760000Y-96490000D03*
X167830000Y-65770000D03*
X175450000Y-65770000D03*
X153280000Y-70470000D03*
X198830000Y-97830000D03*
X150850000Y-65770000D03*
X165990000Y-70470000D03*
X192060000Y-100340000D03*
X190200000Y-64080000D03*
X206170000Y-78980000D03*
X195220000Y-66590000D03*
X193690000Y-100340000D03*
X192370000Y-105840000D03*
X153390000Y-65770000D03*
X187040000Y-97830000D03*
X201310000Y-100340000D03*
X172910000Y-65770000D03*
X147260000Y-91290000D03*
X196230000Y-94700000D03*
X203660000Y-76380000D03*
X147210000Y-92570000D03*
X193750000Y-97830000D03*
X189770000Y-108350000D03*
X141470000Y-78880000D03*
X198830000Y-92190000D03*
X196290000Y-97830000D03*
X152340000Y-91290000D03*
X203660000Y-71300000D03*
X155870000Y-68280000D03*
X144190000Y-96260000D03*
X157890000Y-68280000D03*
X172870000Y-70450000D03*
X197450000Y-105840000D03*
X160430000Y-68280000D03*
X205970000Y-92210000D03*
X203460000Y-94690000D03*
X196230000Y-100340000D03*
X206170000Y-76440000D03*
X148310000Y-65770000D03*
X163030000Y-65770000D03*
X152370000Y-101070000D03*
X163450000Y-70470000D03*
X143980000Y-86570000D03*
X165510000Y-68280000D03*
X167160000Y-108140000D03*
X169040000Y-108100000D03*
X195280000Y-64080000D03*
X196290000Y-92190000D03*
X150790000Y-68280000D03*
X203660000Y-73840000D03*
X141470000Y-86510000D03*
X144190000Y-98800000D03*
X154880000Y-91290000D03*
X193690000Y-94700000D03*
X192310000Y-108350000D03*
X175390000Y-68280000D03*
X201370000Y-92190000D03*
X141470000Y-73800000D03*
X197760000Y-66590000D03*
X150680000Y-103580000D03*
X154830000Y-92570000D03*
X148200000Y-70470000D03*
X170310000Y-68280000D03*
X141470000Y-83970000D03*
X143980000Y-78940000D03*
X143980000Y-81490000D03*
X192680000Y-66590000D03*
X152330000Y-99000000D03*
X205970000Y-94750000D03*
X170330000Y-70450000D03*
X170370000Y-65770000D03*
X197390000Y-108350000D03*
X141680000Y-101280000D03*
X152310000Y-103580000D03*
X184440000Y-100340000D03*
X149800000Y-91290000D03*
X178700000Y-100050000D03*
X175410000Y-70450000D03*
X184500000Y-97830000D03*
X152290000Y-92570000D03*
X194850000Y-108350000D03*
X189580000Y-97830000D03*
X162970000Y-68280000D03*
X150740000Y-70470000D03*
X155820000Y-70470000D03*
X167790000Y-70450000D03*
X167770000Y-68280000D03*
X143980000Y-73860000D03*
X144190000Y-101340000D03*
X173054721Y-100470673D03*
X160910000Y-70470000D03*
X206170000Y-71360000D03*
X173060000Y-99190000D03*
X160490000Y-65770000D03*
X201310000Y-94700000D03*
X157030000Y-91280000D03*
X143980000Y-84030000D03*
X149750000Y-92570000D03*
X189520000Y-100340000D03*
X141470000Y-81430000D03*
X203660000Y-78920000D03*
X150740000Y-101070000D03*
X155930000Y-65770000D03*
X169040000Y-106770000D03*
X198770000Y-100340000D03*
X206170000Y-73900000D03*
X141680000Y-93660000D03*
X148250000Y-68280000D03*
X141680000Y-96200000D03*
X198770000Y-94700000D03*
X144190000Y-93720000D03*
X193750000Y-92190000D03*
X141470000Y-71260000D03*
X165570000Y-65770000D03*
X143980000Y-89110000D03*
X153330000Y-68280000D03*
X152390000Y-96490000D03*
X203460000Y-92150000D03*
X172850000Y-68280000D03*
X192120000Y-97830000D03*
X189830000Y-105840000D03*
X194910000Y-105840000D03*
X186980000Y-100340000D03*
X156980000Y-92560000D03*
%TO.N,+VDC*%
X166410000Y-103450000D03*
X165430000Y-103460000D03*
X181570000Y-84800000D03*
X184460000Y-84870000D03*
X182570000Y-91450000D03*
X182640000Y-94920000D03*
X182590000Y-84860000D03*
X183420000Y-84210000D03*
X163590000Y-103470000D03*
X180560000Y-84830000D03*
X164500000Y-103460000D03*
%TD*%
D22*
%TO.N,+VDC*%
X182620000Y-102700000D02*
X182620000Y-85070000D01*
X183850000Y-83840000D02*
X183850000Y-70312500D01*
X166200000Y-103570000D02*
X181750000Y-103570000D01*
X182620000Y-85070000D02*
X183850000Y-83840000D01*
X181750000Y-103570000D02*
X182620000Y-102700000D01*
X182590000Y-84860000D02*
X180590000Y-84860000D01*
X166200000Y-103570000D02*
X163720000Y-103570000D01*
X182590000Y-84860000D02*
X184520000Y-84860000D01*
%TD*%
%TA.AperFunction,Conductor*%
%TO.N,GND*%
G36*
X140579588Y-106762330D02*
G01*
X140757670Y-106940412D01*
X140859301Y-107014251D01*
X140314884Y-107558667D01*
X140352944Y-107466784D01*
X140352944Y-107367328D01*
X140314884Y-107275442D01*
X140244558Y-107205116D01*
X140152672Y-107167056D01*
X140053216Y-107167056D01*
X139961330Y-107205116D01*
X139891004Y-107275442D01*
X139852944Y-107367328D01*
X139852944Y-107466784D01*
X139891004Y-107558670D01*
X139961330Y-107628996D01*
X140053216Y-107667056D01*
X140152672Y-107667056D01*
X140244555Y-107628996D01*
X139364650Y-108508902D01*
X139622214Y-108717475D01*
X139622216Y-108717476D01*
X139947456Y-108928689D01*
X140146319Y-109030015D01*
X140197115Y-109077989D01*
X140213910Y-109145810D01*
X140191373Y-109211945D01*
X140136658Y-109255397D01*
X140090024Y-109264500D01*
X138454500Y-109264500D01*
X138387461Y-109244815D01*
X138341706Y-109192011D01*
X138330500Y-109140500D01*
X138330500Y-107577172D01*
X138350185Y-107510133D01*
X138402989Y-107464378D01*
X138472147Y-107454434D01*
X138535703Y-107483459D01*
X138564985Y-107520877D01*
X138591310Y-107572543D01*
X138802523Y-107897783D01*
X138802525Y-107897785D01*
X139011096Y-108155348D01*
X140505747Y-106660697D01*
X140579588Y-106762330D01*
G37*
%TD.AperFunction*%
%TA.AperFunction,Conductor*%
G36*
X201786070Y-62834724D02*
G01*
X201831882Y-62887478D01*
X201841900Y-62956626D01*
X201812943Y-63020213D01*
X201786679Y-63043106D01*
X201575146Y-63180478D01*
X201317593Y-63389039D01*
X201317593Y-63389040D01*
X202197500Y-64268947D01*
X202105616Y-64230888D01*
X202006160Y-64230888D01*
X201914274Y-64268948D01*
X201843948Y-64339274D01*
X201805888Y-64431160D01*
X201805888Y-64530616D01*
X201843947Y-64622500D01*
X200964040Y-63742593D01*
X200964039Y-63742593D01*
X200755475Y-64000150D01*
X200544254Y-64325400D01*
X200368188Y-64670949D01*
X200229206Y-65033007D01*
X200128831Y-65407613D01*
X200128830Y-65407620D01*
X200068163Y-65790656D01*
X200047866Y-66177943D01*
X200047866Y-66177944D01*
X200068163Y-66565231D01*
X200128830Y-66948267D01*
X200128831Y-66948274D01*
X200229206Y-67322880D01*
X200368188Y-67684938D01*
X200544254Y-68030487D01*
X200755467Y-68355727D01*
X200755469Y-68355729D01*
X200964040Y-68613292D01*
X202458691Y-67118641D01*
X202532532Y-67220274D01*
X202710614Y-67398356D01*
X202812245Y-67472195D01*
X202267828Y-68016611D01*
X202305888Y-67924728D01*
X202305888Y-67825272D01*
X202267828Y-67733386D01*
X202197502Y-67663060D01*
X202105616Y-67625000D01*
X202006160Y-67625000D01*
X201914274Y-67663060D01*
X201843948Y-67733386D01*
X201805888Y-67825272D01*
X201805888Y-67924728D01*
X201843948Y-68016614D01*
X201914274Y-68086940D01*
X202006160Y-68125000D01*
X202105616Y-68125000D01*
X202197499Y-68086940D01*
X201317594Y-68966846D01*
X201575158Y-69175419D01*
X201575160Y-69175420D01*
X201900400Y-69386633D01*
X202245949Y-69562699D01*
X202608007Y-69701681D01*
X202982613Y-69802056D01*
X202982620Y-69802057D01*
X203365656Y-69862724D01*
X203752943Y-69883022D01*
X203752945Y-69883022D01*
X204140231Y-69862724D01*
X204523267Y-69802057D01*
X204523274Y-69802056D01*
X204897880Y-69701681D01*
X205259938Y-69562699D01*
X205605487Y-69386633D01*
X205930715Y-69175428D01*
X205930728Y-69175418D01*
X206188292Y-68966846D01*
X205308386Y-68086940D01*
X205400272Y-68125000D01*
X205499728Y-68125000D01*
X205591614Y-68086940D01*
X205661940Y-68016614D01*
X205700000Y-67924728D01*
X205700000Y-67825272D01*
X205661940Y-67733386D01*
X206541847Y-68613293D01*
X206679287Y-68443568D01*
X206736774Y-68403856D01*
X206806604Y-68401528D01*
X206866608Y-68437323D01*
X206897735Y-68499876D01*
X206899652Y-68521161D01*
X206943720Y-80895756D01*
X206924275Y-80962866D01*
X206871634Y-81008808D01*
X206802511Y-81018998D01*
X206738853Y-80990200D01*
X206732040Y-80983879D01*
X206625845Y-80877684D01*
X206476624Y-80785643D01*
X206476619Y-80785641D01*
X206310197Y-80730494D01*
X206310190Y-80730493D01*
X206207486Y-80720000D01*
X204807500Y-80720000D01*
X204807500Y-83069999D01*
X206207472Y-83069999D01*
X206207486Y-83069998D01*
X206310197Y-83059505D01*
X206476619Y-83004358D01*
X206476624Y-83004356D01*
X206625842Y-82912317D01*
X206739127Y-82799032D01*
X206800450Y-82765547D01*
X206870142Y-82770531D01*
X206926076Y-82812402D01*
X206950493Y-82877866D01*
X206950808Y-82886271D01*
X206963912Y-86565948D01*
X206944467Y-86633058D01*
X206891826Y-86679000D01*
X206822703Y-86689190D01*
X206759045Y-86660392D01*
X206752232Y-86654071D01*
X206625845Y-86527684D01*
X206476624Y-86435643D01*
X206476619Y-86435641D01*
X206310197Y-86380494D01*
X206310190Y-86380493D01*
X206207486Y-86370000D01*
X204807500Y-86370000D01*
X204807500Y-88719999D01*
X206207472Y-88719999D01*
X206207486Y-88719998D01*
X206310197Y-88709505D01*
X206476619Y-88654358D01*
X206476624Y-88654356D01*
X206625845Y-88562315D01*
X206754924Y-88433237D01*
X206755873Y-88434186D01*
X206806594Y-88398261D01*
X206876393Y-88395113D01*
X206936813Y-88430201D01*
X206968672Y-88492384D01*
X206970853Y-88515101D01*
X207024919Y-103697378D01*
X207005474Y-103764488D01*
X206952833Y-103810430D01*
X206883710Y-103820620D01*
X206820052Y-103791822D01*
X206796925Y-103765355D01*
X206697475Y-103612216D01*
X206697475Y-103612214D01*
X206488902Y-103354650D01*
X205608997Y-104234555D01*
X205647056Y-104142672D01*
X205647056Y-104043216D01*
X205608996Y-103951330D01*
X205538670Y-103881004D01*
X205446784Y-103842944D01*
X205347328Y-103842944D01*
X205255442Y-103881004D01*
X205185116Y-103951330D01*
X205147056Y-104043216D01*
X205147056Y-104142672D01*
X205185116Y-104234558D01*
X205255442Y-104304884D01*
X205347328Y-104342944D01*
X205446784Y-104342944D01*
X205538667Y-104304885D01*
X204994251Y-104849301D01*
X204920412Y-104747670D01*
X204742330Y-104569588D01*
X204640698Y-104495748D01*
X206135349Y-103001096D01*
X205877785Y-102792525D01*
X205877783Y-102792523D01*
X205552543Y-102581310D01*
X205206994Y-102405244D01*
X204844936Y-102266262D01*
X204470330Y-102165887D01*
X204470323Y-102165886D01*
X204087287Y-102105219D01*
X203700001Y-102084922D01*
X203699999Y-102084922D01*
X203312712Y-102105219D01*
X202929676Y-102165886D01*
X202929669Y-102165887D01*
X202555063Y-102266262D01*
X202193005Y-102405244D01*
X201847456Y-102581310D01*
X201522206Y-102792531D01*
X201264649Y-103001095D01*
X201264649Y-103001096D01*
X202144556Y-103881003D01*
X202052672Y-103842944D01*
X201953216Y-103842944D01*
X201861330Y-103881004D01*
X201791004Y-103951330D01*
X201752944Y-104043216D01*
X201752944Y-104142672D01*
X201791003Y-104234556D01*
X200911096Y-103354649D01*
X200911095Y-103354649D01*
X200702531Y-103612206D01*
X200491310Y-103937456D01*
X200315244Y-104283005D01*
X200176262Y-104645063D01*
X200075887Y-105019669D01*
X200075886Y-105019676D01*
X200015219Y-105402712D01*
X199994922Y-105789999D01*
X199994922Y-105790000D01*
X200015219Y-106177287D01*
X200075886Y-106560323D01*
X200075887Y-106560330D01*
X200176262Y-106934936D01*
X200315244Y-107296994D01*
X200491310Y-107642543D01*
X200702523Y-107967783D01*
X200702525Y-107967785D01*
X200911096Y-108225348D01*
X202405747Y-106730697D01*
X202479588Y-106832330D01*
X202657670Y-107010412D01*
X202759301Y-107084251D01*
X202214884Y-107628667D01*
X202252944Y-107536784D01*
X202252944Y-107437328D01*
X202214884Y-107345442D01*
X202144558Y-107275116D01*
X202052672Y-107237056D01*
X201953216Y-107237056D01*
X201861330Y-107275116D01*
X201791004Y-107345442D01*
X201752944Y-107437328D01*
X201752944Y-107536784D01*
X201791004Y-107628670D01*
X201861330Y-107698996D01*
X201953216Y-107737056D01*
X202052672Y-107737056D01*
X202144555Y-107698996D01*
X201264650Y-108578902D01*
X201522214Y-108787475D01*
X201522216Y-108787476D01*
X201847456Y-108998689D01*
X201908936Y-109030015D01*
X201959732Y-109077989D01*
X201976527Y-109145810D01*
X201953990Y-109211945D01*
X201899275Y-109255397D01*
X201852641Y-109264500D01*
X179031956Y-109264500D01*
X178964917Y-109244815D01*
X178919162Y-109192011D01*
X178909218Y-109122853D01*
X178938243Y-109059297D01*
X178992952Y-109022794D01*
X179139119Y-108974358D01*
X179139124Y-108974356D01*
X179288345Y-108882315D01*
X179412315Y-108758345D01*
X179504356Y-108609124D01*
X179504358Y-108609119D01*
X179559505Y-108442697D01*
X179559506Y-108442690D01*
X179569999Y-108339986D01*
X179570000Y-108339973D01*
X179570000Y-106940000D01*
X177220001Y-106940000D01*
X177220001Y-108339986D01*
X177230494Y-108442697D01*
X177285641Y-108609119D01*
X177285643Y-108609124D01*
X177377684Y-108758345D01*
X177501654Y-108882315D01*
X177650875Y-108974356D01*
X177650880Y-108974358D01*
X177797050Y-109022794D01*
X177854495Y-109062566D01*
X177881318Y-109127082D01*
X177869003Y-109195858D01*
X177821460Y-109247058D01*
X177758046Y-109264500D01*
X173381956Y-109264500D01*
X173314917Y-109244815D01*
X173269162Y-109192011D01*
X173259218Y-109122853D01*
X173288243Y-109059297D01*
X173342952Y-109022794D01*
X173489119Y-108974358D01*
X173489124Y-108974356D01*
X173638345Y-108882315D01*
X173762315Y-108758345D01*
X173854356Y-108609124D01*
X173854358Y-108609119D01*
X173909505Y-108442697D01*
X173909506Y-108442690D01*
X173919999Y-108339986D01*
X173920000Y-108339973D01*
X173920000Y-106940000D01*
X171570001Y-106940000D01*
X171570001Y-108339986D01*
X171580494Y-108442697D01*
X171635641Y-108609119D01*
X171635643Y-108609124D01*
X171727684Y-108758345D01*
X171851654Y-108882315D01*
X172000875Y-108974356D01*
X172000880Y-108974358D01*
X172147050Y-109022794D01*
X172204495Y-109062566D01*
X172231318Y-109127082D01*
X172219003Y-109195858D01*
X172171460Y-109247058D01*
X172108046Y-109264500D01*
X143509976Y-109264500D01*
X143442937Y-109244815D01*
X143397182Y-109192011D01*
X143387238Y-109122853D01*
X143416263Y-109059297D01*
X143453681Y-109030015D01*
X143652543Y-108928689D01*
X143977771Y-108717484D01*
X143977784Y-108717474D01*
X144235348Y-108508902D01*
X143355442Y-107628996D01*
X143447328Y-107667056D01*
X143546784Y-107667056D01*
X143638670Y-107628996D01*
X143708996Y-107558670D01*
X143747056Y-107466784D01*
X143747056Y-107367328D01*
X143708996Y-107275442D01*
X144588902Y-108155348D01*
X144797474Y-107897784D01*
X144797484Y-107897771D01*
X145008689Y-107572543D01*
X145184755Y-107226994D01*
X145323737Y-106864936D01*
X145424112Y-106490330D01*
X145424113Y-106490323D01*
X145484780Y-106107287D01*
X145505078Y-105720000D01*
X145505078Y-105719999D01*
X145484780Y-105332712D01*
X145424113Y-104949676D01*
X145424112Y-104949669D01*
X145323737Y-104575063D01*
X145184755Y-104213005D01*
X145008689Y-103867456D01*
X144797476Y-103542216D01*
X144797475Y-103542214D01*
X144740274Y-103471577D01*
X162469500Y-103471577D01*
X162469500Y-103668422D01*
X162500290Y-103862826D01*
X162561117Y-104050029D01*
X162616843Y-104159397D01*
X162650476Y-104225405D01*
X162766172Y-104384646D01*
X162905354Y-104523828D01*
X163064595Y-104639524D01*
X163139461Y-104677670D01*
X163239970Y-104728882D01*
X163239972Y-104728882D01*
X163239975Y-104728884D01*
X163340317Y-104761487D01*
X163427173Y-104789709D01*
X163621578Y-104820500D01*
X171455113Y-104820500D01*
X171522152Y-104840185D01*
X171567907Y-104892989D01*
X171578471Y-104957103D01*
X171570000Y-105040013D01*
X171570000Y-106440000D01*
X173919999Y-106440000D01*
X173919999Y-105040028D01*
X173919998Y-105040013D01*
X173911528Y-104957102D01*
X173924297Y-104888409D01*
X173972178Y-104837525D01*
X174034886Y-104820500D01*
X177105113Y-104820500D01*
X177172152Y-104840185D01*
X177217907Y-104892989D01*
X177228471Y-104957103D01*
X177220000Y-105040013D01*
X177220000Y-106440000D01*
X179569999Y-106440000D01*
X179569999Y-105040028D01*
X179569998Y-105040013D01*
X179561528Y-104957102D01*
X179574297Y-104888409D01*
X179622178Y-104837525D01*
X179684886Y-104820500D01*
X181848422Y-104820500D01*
X182042826Y-104789709D01*
X182230026Y-104728884D01*
X182405405Y-104639524D01*
X182564646Y-104523828D01*
X183573828Y-103514646D01*
X183689524Y-103355405D01*
X183778884Y-103180026D01*
X183839709Y-102992826D01*
X183848427Y-102937784D01*
X183852100Y-102914594D01*
X183870500Y-102798422D01*
X183870500Y-88019986D01*
X202207501Y-88019986D01*
X202217994Y-88122697D01*
X202273141Y-88289119D01*
X202273143Y-88289124D01*
X202365184Y-88438345D01*
X202489154Y-88562315D01*
X202638375Y-88654356D01*
X202638380Y-88654358D01*
X202804802Y-88709505D01*
X202804809Y-88709506D01*
X202907519Y-88719999D01*
X204307499Y-88719999D01*
X204307500Y-88719998D01*
X204307500Y-87795000D01*
X202207501Y-87795000D01*
X202207501Y-88019986D01*
X183870500Y-88019986D01*
X183870500Y-87070013D01*
X202207500Y-87070013D01*
X202207500Y-87295000D01*
X204307500Y-87295000D01*
X204307500Y-86370000D01*
X202907528Y-86370000D01*
X202907512Y-86370001D01*
X202804802Y-86380494D01*
X202638380Y-86435641D01*
X202638375Y-86435643D01*
X202489154Y-86527684D01*
X202365184Y-86651654D01*
X202273143Y-86800875D01*
X202273141Y-86800880D01*
X202217994Y-86967302D01*
X202217993Y-86967309D01*
X202207500Y-87070013D01*
X183870500Y-87070013D01*
X183870500Y-86234500D01*
X183890185Y-86167461D01*
X183942989Y-86121706D01*
X183994500Y-86110500D01*
X184618422Y-86110500D01*
X184812826Y-86079709D01*
X185000025Y-86018884D01*
X185175405Y-85929524D01*
X185334646Y-85813828D01*
X185473828Y-85674646D01*
X185589524Y-85515405D01*
X185678884Y-85340025D01*
X185739709Y-85152826D01*
X185746104Y-85112452D01*
X185770500Y-84958422D01*
X185770500Y-84761577D01*
X185739709Y-84567173D01*
X185678882Y-84379970D01*
X185589523Y-84204594D01*
X185473828Y-84045354D01*
X185334646Y-83906172D01*
X185175405Y-83790476D01*
X185175406Y-83790476D01*
X185175404Y-83790475D01*
X185168201Y-83786805D01*
X185117407Y-83738828D01*
X185100500Y-83676322D01*
X185100500Y-82369986D01*
X202207501Y-82369986D01*
X202217994Y-82472697D01*
X202273141Y-82639119D01*
X202273143Y-82639124D01*
X202365184Y-82788345D01*
X202489154Y-82912315D01*
X202638375Y-83004356D01*
X202638380Y-83004358D01*
X202804802Y-83059505D01*
X202804809Y-83059506D01*
X202907519Y-83069999D01*
X204307499Y-83069999D01*
X204307500Y-83069998D01*
X204307500Y-82145000D01*
X202207501Y-82145000D01*
X202207501Y-82369986D01*
X185100500Y-82369986D01*
X185100500Y-81420013D01*
X202207500Y-81420013D01*
X202207500Y-81645000D01*
X204307500Y-81645000D01*
X204307500Y-80720000D01*
X202907528Y-80720000D01*
X202907512Y-80720001D01*
X202804802Y-80730494D01*
X202638380Y-80785641D01*
X202638375Y-80785643D01*
X202489154Y-80877684D01*
X202365184Y-81001654D01*
X202273143Y-81150875D01*
X202273141Y-81150880D01*
X202217994Y-81317302D01*
X202217993Y-81317309D01*
X202207500Y-81420013D01*
X185100500Y-81420013D01*
X185100500Y-74332135D01*
X194886849Y-74332135D01*
X194886849Y-76027870D01*
X194886850Y-76027876D01*
X194893257Y-76087483D01*
X194943551Y-76222328D01*
X194943555Y-76222335D01*
X195029801Y-76337544D01*
X195029804Y-76337547D01*
X195145013Y-76423793D01*
X195145020Y-76423797D01*
X195279866Y-76474091D01*
X195279865Y-76474091D01*
X195286793Y-76474835D01*
X195339476Y-76480500D01*
X197035221Y-76480499D01*
X197094832Y-76474091D01*
X197229680Y-76423796D01*
X197344895Y-76337546D01*
X197431145Y-76222331D01*
X197481440Y-76087483D01*
X197487849Y-76027873D01*
X197487848Y-75179997D01*
X199882383Y-75179997D01*
X199882383Y-75180002D01*
X199902207Y-75406599D01*
X199902209Y-75406610D01*
X199961079Y-75626317D01*
X199961084Y-75626331D01*
X200057212Y-75832478D01*
X200108323Y-75905472D01*
X200787349Y-75226446D01*
X200787349Y-75232661D01*
X200814608Y-75334394D01*
X200867269Y-75425606D01*
X200941743Y-75500080D01*
X201032955Y-75552741D01*
X201134688Y-75580000D01*
X201140902Y-75580000D01*
X200461875Y-76259025D01*
X200534862Y-76310132D01*
X200534870Y-76310136D01*
X200741017Y-76406264D01*
X200741031Y-76406269D01*
X200960738Y-76465139D01*
X200960749Y-76465141D01*
X201187347Y-76484966D01*
X201187351Y-76484966D01*
X201413948Y-76465141D01*
X201413959Y-76465139D01*
X201633666Y-76406269D01*
X201633680Y-76406264D01*
X201839827Y-76310136D01*
X201912820Y-76259024D01*
X201233796Y-75580000D01*
X201240010Y-75580000D01*
X201341743Y-75552741D01*
X201432955Y-75500080D01*
X201507429Y-75425606D01*
X201560090Y-75334394D01*
X201587349Y-75232661D01*
X201587349Y-75226447D01*
X202266373Y-75905471D01*
X202317485Y-75832478D01*
X202413613Y-75626331D01*
X202413618Y-75626317D01*
X202472488Y-75406610D01*
X202472490Y-75406599D01*
X202492315Y-75180002D01*
X202492315Y-75179997D01*
X202472490Y-74953400D01*
X202472488Y-74953389D01*
X202413618Y-74733682D01*
X202413613Y-74733668D01*
X202317485Y-74527521D01*
X202317481Y-74527513D01*
X202266374Y-74454526D01*
X201587349Y-75133551D01*
X201587349Y-75127339D01*
X201560090Y-75025606D01*
X201507429Y-74934394D01*
X201432955Y-74859920D01*
X201341743Y-74807259D01*
X201240010Y-74780000D01*
X201233794Y-74780000D01*
X201912821Y-74100974D01*
X201839827Y-74049863D01*
X201633680Y-73953735D01*
X201633666Y-73953730D01*
X201413959Y-73894860D01*
X201413948Y-73894858D01*
X201187351Y-73875034D01*
X201187347Y-73875034D01*
X200960749Y-73894858D01*
X200960738Y-73894860D01*
X200741031Y-73953730D01*
X200741022Y-73953734D01*
X200534865Y-74049866D01*
X200534861Y-74049868D01*
X200461875Y-74100973D01*
X200461875Y-74100974D01*
X201140902Y-74780000D01*
X201134688Y-74780000D01*
X201032955Y-74807259D01*
X200941743Y-74859920D01*
X200867269Y-74934394D01*
X200814608Y-75025606D01*
X200787349Y-75127339D01*
X200787349Y-75133552D01*
X200108323Y-74454526D01*
X200108322Y-74454526D01*
X200057217Y-74527512D01*
X200057215Y-74527516D01*
X199961083Y-74733673D01*
X199961079Y-74733682D01*
X199902209Y-74953389D01*
X199902207Y-74953400D01*
X199882383Y-75179997D01*
X197487848Y-75179997D01*
X197487848Y-74332128D01*
X197481440Y-74272517D01*
X197471962Y-74247106D01*
X197431146Y-74137671D01*
X197431142Y-74137664D01*
X197344896Y-74022455D01*
X197344893Y-74022452D01*
X197229684Y-73936206D01*
X197229677Y-73936202D01*
X197094831Y-73885908D01*
X197094832Y-73885908D01*
X197035232Y-73879501D01*
X197035230Y-73879500D01*
X197035222Y-73879500D01*
X197035213Y-73879500D01*
X195339478Y-73879500D01*
X195339472Y-73879501D01*
X195279865Y-73885908D01*
X195145020Y-73936202D01*
X195145013Y-73936206D01*
X195029804Y-74022452D01*
X195029801Y-74022455D01*
X194943555Y-74137664D01*
X194943551Y-74137671D01*
X194893257Y-74272517D01*
X194886850Y-74332116D01*
X194886850Y-74332123D01*
X194886849Y-74332135D01*
X185100500Y-74332135D01*
X185100500Y-72509995D01*
X185104202Y-72479921D01*
X185233141Y-71964160D01*
X185268497Y-71903896D01*
X185320403Y-71875873D01*
X185320151Y-71875096D01*
X185324402Y-71873714D01*
X185324511Y-71873656D01*
X185324785Y-71873590D01*
X185324794Y-71873587D01*
X185564379Y-71795741D01*
X185788845Y-71681370D01*
X185992656Y-71533293D01*
X186170793Y-71355156D01*
X186318870Y-71151345D01*
X186433241Y-70926879D01*
X186511090Y-70687285D01*
X186550500Y-70438462D01*
X186550500Y-70186538D01*
X186511090Y-69937715D01*
X186433241Y-69698121D01*
X186433239Y-69698118D01*
X186433239Y-69698116D01*
X186364240Y-69562699D01*
X186318870Y-69473655D01*
X186185446Y-69290012D01*
X186170798Y-69269850D01*
X186170794Y-69269845D01*
X185992654Y-69091705D01*
X185992649Y-69091701D01*
X185788848Y-68943632D01*
X185788847Y-68943631D01*
X185788845Y-68943630D01*
X185718747Y-68907913D01*
X185564383Y-68829260D01*
X185324785Y-68751410D01*
X185262936Y-68741614D01*
X185075962Y-68712000D01*
X182624038Y-68712000D01*
X182499626Y-68731705D01*
X182375214Y-68751410D01*
X182135616Y-68829260D01*
X181911151Y-68943632D01*
X181707350Y-69091701D01*
X181707345Y-69091705D01*
X181529205Y-69269845D01*
X181529201Y-69269850D01*
X181381132Y-69473651D01*
X181266760Y-69698116D01*
X181188910Y-69937714D01*
X181149500Y-70186538D01*
X181149500Y-70438461D01*
X181188910Y-70687285D01*
X181266760Y-70926883D01*
X181381132Y-71151348D01*
X181529201Y-71355149D01*
X181529205Y-71355154D01*
X181707345Y-71533294D01*
X181707350Y-71533298D01*
X181885117Y-71662452D01*
X181911155Y-71681370D01*
X182054184Y-71754247D01*
X182135616Y-71795739D01*
X182135618Y-71795739D01*
X182135621Y-71795741D01*
X182230338Y-71826516D01*
X182375204Y-71873587D01*
X182375210Y-71873588D01*
X182375215Y-71873590D01*
X182375219Y-71873590D01*
X182375480Y-71873653D01*
X182375574Y-71873706D01*
X182379849Y-71875096D01*
X182379557Y-71875993D01*
X182436079Y-71908431D01*
X182466856Y-71964158D01*
X182595798Y-72479923D01*
X182599500Y-72509998D01*
X182599500Y-83270664D01*
X182579815Y-83337703D01*
X182563181Y-83358345D01*
X182348345Y-83573181D01*
X182287022Y-83606666D01*
X182260664Y-83609500D01*
X180491578Y-83609500D01*
X180297173Y-83640290D01*
X180109970Y-83701117D01*
X179934594Y-83790476D01*
X179843741Y-83856485D01*
X179775354Y-83906172D01*
X179775352Y-83906174D01*
X179775351Y-83906174D01*
X179636174Y-84045351D01*
X179636174Y-84045352D01*
X179636172Y-84045354D01*
X179586485Y-84113741D01*
X179520476Y-84204594D01*
X179431117Y-84379970D01*
X179370290Y-84567173D01*
X179339500Y-84761577D01*
X179339500Y-84963289D01*
X179337213Y-84963289D01*
X179324611Y-85022473D01*
X179275424Y-85072095D01*
X179207217Y-85087248D01*
X179141645Y-85063119D01*
X179141207Y-85062792D01*
X179092335Y-85026206D01*
X179092328Y-85026202D01*
X178957482Y-84975908D01*
X178957483Y-84975908D01*
X178897883Y-84969501D01*
X178897881Y-84969500D01*
X178897873Y-84969500D01*
X178897864Y-84969500D01*
X174302129Y-84969500D01*
X174302123Y-84969501D01*
X174242516Y-84975908D01*
X174107671Y-85026202D01*
X174107664Y-85026206D01*
X173992455Y-85112452D01*
X173992452Y-85112455D01*
X173906206Y-85227664D01*
X173906202Y-85227671D01*
X173855908Y-85362517D01*
X173849501Y-85422116D01*
X173849500Y-85422135D01*
X173849500Y-88017870D01*
X173849501Y-88017876D01*
X173855908Y-88077483D01*
X173906202Y-88212328D01*
X173906206Y-88212335D01*
X173992452Y-88327544D01*
X173992455Y-88327547D01*
X174107664Y-88413793D01*
X174107671Y-88413797D01*
X174242517Y-88464091D01*
X174242516Y-88464091D01*
X174249444Y-88464835D01*
X174302127Y-88470500D01*
X178897872Y-88470499D01*
X178957483Y-88464091D01*
X179092331Y-88413796D01*
X179207546Y-88327546D01*
X179293796Y-88212331D01*
X179344091Y-88077483D01*
X179350500Y-88017873D01*
X179350499Y-85663083D01*
X179370184Y-85596045D01*
X179422987Y-85550290D01*
X179492146Y-85540346D01*
X179555702Y-85569371D01*
X179574815Y-85590195D01*
X179636172Y-85674646D01*
X179775354Y-85813828D01*
X179934595Y-85929524D01*
X180017455Y-85971743D01*
X180109970Y-86018882D01*
X180109972Y-86018882D01*
X180109975Y-86018884D01*
X180210317Y-86051487D01*
X180297173Y-86079709D01*
X180491578Y-86110500D01*
X180491583Y-86110500D01*
X181245500Y-86110500D01*
X181312539Y-86130185D01*
X181358294Y-86182989D01*
X181369500Y-86234500D01*
X181369500Y-102130664D01*
X181349815Y-102197703D01*
X181333181Y-102218345D01*
X181268345Y-102283181D01*
X181207022Y-102316666D01*
X181180664Y-102319500D01*
X163621578Y-102319500D01*
X163427173Y-102350290D01*
X163239970Y-102411117D01*
X163064594Y-102500476D01*
X163049683Y-102511310D01*
X162905354Y-102616172D01*
X162905352Y-102616174D01*
X162905351Y-102616174D01*
X162766174Y-102755351D01*
X162766174Y-102755352D01*
X162766172Y-102755354D01*
X162739167Y-102792523D01*
X162650476Y-102914594D01*
X162561117Y-103089970D01*
X162500290Y-103277173D01*
X162469500Y-103471577D01*
X144740274Y-103471577D01*
X144588902Y-103284650D01*
X143708997Y-104164555D01*
X143747056Y-104072672D01*
X143747056Y-103973216D01*
X143708996Y-103881330D01*
X143638670Y-103811004D01*
X143546784Y-103772944D01*
X143447328Y-103772944D01*
X143355442Y-103811004D01*
X143285116Y-103881330D01*
X143247056Y-103973216D01*
X143247056Y-104072672D01*
X143285116Y-104164558D01*
X143355442Y-104234884D01*
X143447328Y-104272944D01*
X143546784Y-104272944D01*
X143638667Y-104234885D01*
X143094251Y-104779301D01*
X143020412Y-104677670D01*
X142842330Y-104499588D01*
X142740698Y-104425748D01*
X144235349Y-102931096D01*
X143977785Y-102722525D01*
X143977783Y-102722523D01*
X143652543Y-102511310D01*
X143306994Y-102335244D01*
X142944936Y-102196262D01*
X142570330Y-102095887D01*
X142570323Y-102095886D01*
X142187287Y-102035219D01*
X141800001Y-102014922D01*
X141799999Y-102014922D01*
X141412712Y-102035219D01*
X141029676Y-102095886D01*
X141029669Y-102095887D01*
X140655063Y-102196262D01*
X140293005Y-102335244D01*
X139947456Y-102511310D01*
X139622206Y-102722531D01*
X139364649Y-102931095D01*
X139364649Y-102931096D01*
X140244556Y-103811003D01*
X140152672Y-103772944D01*
X140053216Y-103772944D01*
X139961330Y-103811004D01*
X139891004Y-103881330D01*
X139852944Y-103973216D01*
X139852944Y-104072672D01*
X139891003Y-104164556D01*
X139011096Y-103284649D01*
X139011095Y-103284649D01*
X138802531Y-103542206D01*
X138591310Y-103867456D01*
X138564985Y-103919122D01*
X138517010Y-103969918D01*
X138449189Y-103986713D01*
X138383054Y-103964175D01*
X138339603Y-103909460D01*
X138330500Y-103862827D01*
X138330500Y-71909081D01*
X145949500Y-71909081D01*
X145949500Y-71909082D01*
X145949500Y-90740918D01*
X145979082Y-90770500D01*
X173570918Y-90770500D01*
X173600500Y-90740918D01*
X173600500Y-81155258D01*
X173849500Y-81155258D01*
X173849500Y-81384741D01*
X173874012Y-81570920D01*
X173879452Y-81612238D01*
X173938842Y-81833887D01*
X174026650Y-82045876D01*
X174026657Y-82045890D01*
X174141392Y-82244617D01*
X174281081Y-82426661D01*
X174281089Y-82426670D01*
X174443330Y-82588911D01*
X174443338Y-82588918D01*
X174625382Y-82728607D01*
X174625385Y-82728608D01*
X174625388Y-82728611D01*
X174824112Y-82843344D01*
X174824117Y-82843346D01*
X174824123Y-82843349D01*
X174907455Y-82877866D01*
X175036113Y-82931158D01*
X175257762Y-82990548D01*
X175485266Y-83020500D01*
X175485273Y-83020500D01*
X177714727Y-83020500D01*
X177714734Y-83020500D01*
X177942238Y-82990548D01*
X178163887Y-82931158D01*
X178375888Y-82843344D01*
X178574612Y-82728611D01*
X178756661Y-82588919D01*
X178756665Y-82588914D01*
X178756670Y-82588911D01*
X178918911Y-82426670D01*
X178918914Y-82426665D01*
X178918919Y-82426661D01*
X179058611Y-82244612D01*
X179173344Y-82045888D01*
X179261158Y-81833887D01*
X179320548Y-81612238D01*
X179350500Y-81384734D01*
X179350500Y-81155266D01*
X179320548Y-80927762D01*
X179261158Y-80706113D01*
X179173344Y-80494112D01*
X179058611Y-80295388D01*
X179058608Y-80295385D01*
X179058607Y-80295382D01*
X178957764Y-80163962D01*
X178918919Y-80113339D01*
X178918918Y-80113338D01*
X178918911Y-80113330D01*
X178756670Y-79951089D01*
X178756661Y-79951081D01*
X178574617Y-79811392D01*
X178375890Y-79696657D01*
X178375876Y-79696650D01*
X178163887Y-79608842D01*
X177942238Y-79549452D01*
X177904215Y-79544446D01*
X177714741Y-79519500D01*
X177714734Y-79519500D01*
X175485266Y-79519500D01*
X175485258Y-79519500D01*
X175268715Y-79548009D01*
X175257762Y-79549452D01*
X175164076Y-79574554D01*
X175036112Y-79608842D01*
X174824123Y-79696650D01*
X174824109Y-79696657D01*
X174625382Y-79811392D01*
X174443338Y-79951081D01*
X174281081Y-80113338D01*
X174141392Y-80295382D01*
X174026657Y-80494109D01*
X174026650Y-80494123D01*
X173938842Y-80706112D01*
X173879453Y-80927759D01*
X173879451Y-80927770D01*
X173849500Y-81155258D01*
X173600500Y-81155258D01*
X173600500Y-75569999D01*
X173867811Y-75569999D01*
X173867812Y-75570000D01*
X175891759Y-75570000D01*
X175878822Y-75601233D01*
X175850000Y-75746131D01*
X175850000Y-75893869D01*
X175878822Y-76038767D01*
X175891759Y-76070000D01*
X173867812Y-76070000D01*
X173879942Y-76162137D01*
X173939318Y-76383730D01*
X174027102Y-76595659D01*
X174027106Y-76595668D01*
X174141809Y-76794338D01*
X174281455Y-76976329D01*
X174281461Y-76976336D01*
X174443663Y-77138538D01*
X174443670Y-77138544D01*
X174625661Y-77278190D01*
X174824331Y-77392893D01*
X174824340Y-77392897D01*
X175036269Y-77480681D01*
X175257862Y-77540057D01*
X175485289Y-77569998D01*
X175485306Y-77570000D01*
X176350000Y-77570000D01*
X176350000Y-76528240D01*
X176381233Y-76541178D01*
X176526131Y-76570000D01*
X176673869Y-76570000D01*
X176818767Y-76541178D01*
X176850000Y-76528240D01*
X176850000Y-77570000D01*
X177714694Y-77570000D01*
X177714710Y-77569998D01*
X177942137Y-77540057D01*
X178163730Y-77480681D01*
X178375659Y-77392897D01*
X178375668Y-77392893D01*
X178574338Y-77278190D01*
X178756329Y-77138544D01*
X178756336Y-77138538D01*
X178918538Y-76976336D01*
X178918544Y-76976329D01*
X179058190Y-76794338D01*
X179172893Y-76595668D01*
X179172897Y-76595659D01*
X179260681Y-76383730D01*
X179320057Y-76162137D01*
X179332188Y-76070000D01*
X177308241Y-76070000D01*
X177321178Y-76038767D01*
X177350000Y-75893869D01*
X177350000Y-75746131D01*
X177321178Y-75601233D01*
X177308241Y-75570000D01*
X179332188Y-75570000D01*
X179332188Y-75569999D01*
X179320057Y-75477862D01*
X179260681Y-75256269D01*
X179172897Y-75044340D01*
X179172893Y-75044331D01*
X179058190Y-74845661D01*
X178918544Y-74663670D01*
X178918538Y-74663663D01*
X178756336Y-74501461D01*
X178756329Y-74501455D01*
X178574338Y-74361809D01*
X178375668Y-74247106D01*
X178375659Y-74247102D01*
X178163730Y-74159318D01*
X177942137Y-74099942D01*
X177714710Y-74070001D01*
X177714694Y-74070000D01*
X176850000Y-74070000D01*
X176850000Y-75111759D01*
X176818767Y-75098822D01*
X176673869Y-75070000D01*
X176526131Y-75070000D01*
X176381233Y-75098822D01*
X176350000Y-75111759D01*
X176350000Y-74070000D01*
X175485306Y-74070000D01*
X175485289Y-74070001D01*
X175257862Y-74099942D01*
X175036269Y-74159318D01*
X174824340Y-74247102D01*
X174824331Y-74247106D01*
X174625661Y-74361809D01*
X174443670Y-74501455D01*
X174443663Y-74501461D01*
X174281461Y-74663663D01*
X174281455Y-74663670D01*
X174141809Y-74845661D01*
X174027106Y-75044331D01*
X174027102Y-75044340D01*
X173939318Y-75256269D01*
X173879942Y-75477862D01*
X173867811Y-75569999D01*
X173600500Y-75569999D01*
X173600500Y-71909082D01*
X173570918Y-71879500D01*
X146020918Y-71879500D01*
X145979082Y-71879500D01*
X145979081Y-71879500D01*
X145949500Y-71909081D01*
X138330500Y-71909081D01*
X138330500Y-67998293D01*
X138350185Y-67931254D01*
X138402989Y-67885499D01*
X138472147Y-67875555D01*
X138535703Y-67904580D01*
X138564985Y-67941999D01*
X138621307Y-68052538D01*
X138621308Y-68052541D01*
X138832523Y-68377783D01*
X138832525Y-68377785D01*
X139041096Y-68635348D01*
X140535747Y-67140697D01*
X140609588Y-67242330D01*
X140787670Y-67420412D01*
X140889301Y-67494251D01*
X140344884Y-68038667D01*
X140382944Y-67946784D01*
X140382944Y-67847328D01*
X140344884Y-67755442D01*
X140274558Y-67685116D01*
X140182672Y-67647056D01*
X140083216Y-67647056D01*
X139991330Y-67685116D01*
X139921004Y-67755442D01*
X139882944Y-67847328D01*
X139882944Y-67946784D01*
X139921004Y-68038670D01*
X139991330Y-68108996D01*
X140083216Y-68147056D01*
X140182672Y-68147056D01*
X140274555Y-68108996D01*
X139394650Y-68988902D01*
X139652214Y-69197475D01*
X139652216Y-69197476D01*
X139977456Y-69408689D01*
X140323005Y-69584755D01*
X140685063Y-69723737D01*
X141059669Y-69824112D01*
X141059676Y-69824113D01*
X141442712Y-69884780D01*
X141829999Y-69905078D01*
X141830001Y-69905078D01*
X142217287Y-69884780D01*
X142600323Y-69824113D01*
X142600330Y-69824112D01*
X142974936Y-69723737D01*
X143336994Y-69584755D01*
X143682543Y-69408689D01*
X144007771Y-69197484D01*
X144007784Y-69197474D01*
X144265348Y-68988902D01*
X143385442Y-68108996D01*
X143477328Y-68147056D01*
X143576784Y-68147056D01*
X143668670Y-68108996D01*
X143738996Y-68038670D01*
X143777056Y-67946784D01*
X143777056Y-67847328D01*
X143738996Y-67755442D01*
X144618902Y-68635348D01*
X144827474Y-68377784D01*
X144827484Y-68377771D01*
X145038689Y-68052543D01*
X145214755Y-67706994D01*
X145353737Y-67344936D01*
X145454112Y-66970330D01*
X145454113Y-66970323D01*
X145514780Y-66587287D01*
X145535078Y-66200000D01*
X145535078Y-66199999D01*
X145534785Y-66194402D01*
X177649500Y-66194402D01*
X177649500Y-68430597D01*
X177686446Y-68663868D01*
X177759433Y-68888496D01*
X177799355Y-68966846D01*
X177866657Y-69098933D01*
X178005483Y-69290010D01*
X178172490Y-69457017D01*
X178363567Y-69595843D01*
X178462991Y-69646502D01*
X178574003Y-69703066D01*
X178574005Y-69703066D01*
X178574008Y-69703068D01*
X178694412Y-69742189D01*
X178798631Y-69776053D01*
X179031903Y-69813000D01*
X179031908Y-69813000D01*
X179268097Y-69813000D01*
X179501368Y-69776053D01*
X179725992Y-69703068D01*
X179936433Y-69595843D01*
X180127510Y-69457017D01*
X180294517Y-69290010D01*
X180433343Y-69098933D01*
X180540568Y-68888492D01*
X180613553Y-68663868D01*
X180621563Y-68613293D01*
X180650500Y-68430597D01*
X180650500Y-66194402D01*
X180613553Y-65961131D01*
X180540566Y-65736503D01*
X180433342Y-65526066D01*
X180294517Y-65334990D01*
X180127510Y-65167983D01*
X179936433Y-65029157D01*
X179725996Y-64921933D01*
X179501368Y-64848946D01*
X179268097Y-64812000D01*
X179268092Y-64812000D01*
X179031908Y-64812000D01*
X179031903Y-64812000D01*
X178798631Y-64848946D01*
X178574003Y-64921933D01*
X178363566Y-65029157D01*
X178267889Y-65098671D01*
X178172490Y-65167983D01*
X178172488Y-65167985D01*
X178172487Y-65167985D01*
X178005485Y-65334987D01*
X178005485Y-65334988D01*
X178005483Y-65334990D01*
X177986283Y-65361417D01*
X177866657Y-65526066D01*
X177759433Y-65736503D01*
X177686446Y-65961131D01*
X177649500Y-66194402D01*
X145534785Y-66194402D01*
X145514780Y-65812712D01*
X145454113Y-65429676D01*
X145454112Y-65429669D01*
X145353737Y-65055063D01*
X145214755Y-64693005D01*
X145038689Y-64347456D01*
X144827476Y-64022216D01*
X144827475Y-64022214D01*
X144618902Y-63764650D01*
X143738997Y-64644555D01*
X143777056Y-64552672D01*
X143777056Y-64453216D01*
X143738996Y-64361330D01*
X143668670Y-64291004D01*
X143576784Y-64252944D01*
X143477328Y-64252944D01*
X143385442Y-64291004D01*
X143315116Y-64361330D01*
X143277056Y-64453216D01*
X143277056Y-64552672D01*
X143315116Y-64644558D01*
X143385442Y-64714884D01*
X143477328Y-64752944D01*
X143576784Y-64752944D01*
X143668667Y-64714885D01*
X143124251Y-65259301D01*
X143050412Y-65157670D01*
X142872330Y-64979588D01*
X142770698Y-64905748D01*
X144265349Y-63411096D01*
X144007785Y-63202525D01*
X144007783Y-63202523D01*
X143857838Y-63105148D01*
X143812335Y-63052127D01*
X143802721Y-62982922D01*
X143832048Y-62919505D01*
X143891005Y-62882011D01*
X143925233Y-62877153D01*
X181948052Y-62836336D01*
X182015107Y-62855948D01*
X182060919Y-62908702D01*
X182070937Y-62977850D01*
X182041980Y-63041437D01*
X182021066Y-63060653D01*
X181872814Y-63168365D01*
X181705866Y-63335313D01*
X181567085Y-63526328D01*
X181459897Y-63736697D01*
X181386934Y-63961252D01*
X181370898Y-64062500D01*
X182416988Y-64062500D01*
X182384075Y-64119507D01*
X182350000Y-64246674D01*
X182350000Y-64378326D01*
X182384075Y-64505493D01*
X182416988Y-64562500D01*
X181370898Y-64562500D01*
X181386934Y-64663747D01*
X181459897Y-64888302D01*
X181567085Y-65098671D01*
X181705866Y-65289686D01*
X181872813Y-65456633D01*
X182063828Y-65595414D01*
X182274197Y-65702602D01*
X182498752Y-65775565D01*
X182498751Y-65775565D01*
X182731948Y-65812500D01*
X183600000Y-65812500D01*
X183600000Y-64812500D01*
X184100000Y-64812500D01*
X184100000Y-65812500D01*
X184968052Y-65812500D01*
X185201247Y-65775565D01*
X185425802Y-65702602D01*
X185636171Y-65595414D01*
X185827186Y-65456633D01*
X185994133Y-65289686D01*
X186132914Y-65098671D01*
X186240102Y-64888302D01*
X186313065Y-64663747D01*
X186329102Y-64562500D01*
X185283012Y-64562500D01*
X185315925Y-64505493D01*
X185350000Y-64378326D01*
X185350000Y-64246674D01*
X185315925Y-64119507D01*
X185283012Y-64062500D01*
X186329102Y-64062500D01*
X186313065Y-63961252D01*
X186240102Y-63736697D01*
X186132914Y-63526328D01*
X185994133Y-63335313D01*
X185827186Y-63168366D01*
X185673321Y-63056576D01*
X185630656Y-63001246D01*
X185624677Y-62931632D01*
X185657283Y-62869837D01*
X185718122Y-62835480D01*
X185746061Y-62832259D01*
X201719015Y-62815112D01*
X201786070Y-62834724D01*
G37*
%TD.AperFunction*%
%TA.AperFunction,Conductor*%
G36*
X206488902Y-108225348D02*
G01*
X206697474Y-107967784D01*
X206697483Y-107967771D01*
X206811744Y-107791825D01*
X206864765Y-107746322D01*
X206933970Y-107736707D01*
X206997387Y-107766034D01*
X207034881Y-107824991D01*
X207039738Y-107858918D01*
X207044302Y-109140058D01*
X207024857Y-109207167D01*
X206972216Y-109253110D01*
X206920303Y-109264500D01*
X205547359Y-109264500D01*
X205480320Y-109244815D01*
X205434565Y-109192011D01*
X205424621Y-109122853D01*
X205453646Y-109059297D01*
X205491064Y-109030015D01*
X205552543Y-108998689D01*
X205877771Y-108787484D01*
X205877784Y-108787474D01*
X206135348Y-108578902D01*
X205255442Y-107698996D01*
X205347328Y-107737056D01*
X205446784Y-107737056D01*
X205538670Y-107698996D01*
X205608996Y-107628670D01*
X205647056Y-107536784D01*
X205647056Y-107437328D01*
X205608996Y-107345442D01*
X206488902Y-108225348D01*
G37*
%TD.AperFunction*%
%TA.AperFunction,Conductor*%
G36*
X205538670Y-107275116D02*
G01*
X205446784Y-107237056D01*
X205347328Y-107237056D01*
X205255442Y-107275116D01*
X205185116Y-107345442D01*
X205147056Y-107437328D01*
X205147056Y-107536784D01*
X205185116Y-107628670D01*
X204640698Y-107084252D01*
X204742330Y-107010412D01*
X204920412Y-106832330D01*
X204994252Y-106730698D01*
X205538670Y-107275116D01*
G37*
%TD.AperFunction*%
%TA.AperFunction,Conductor*%
G36*
X143638670Y-107205116D02*
G01*
X143546784Y-107167056D01*
X143447328Y-107167056D01*
X143355442Y-107205116D01*
X143285116Y-107275442D01*
X143247056Y-107367328D01*
X143247056Y-107466784D01*
X143285116Y-107558670D01*
X142740698Y-107014252D01*
X142842330Y-106940412D01*
X143020412Y-106762330D01*
X143094252Y-106660698D01*
X143638670Y-107205116D01*
G37*
%TD.AperFunction*%
%TA.AperFunction,Conductor*%
G36*
X202759301Y-104495748D02*
G01*
X202657670Y-104569588D01*
X202479588Y-104747670D01*
X202405748Y-104849301D01*
X201861331Y-104304884D01*
X201953216Y-104342944D01*
X202052672Y-104342944D01*
X202144558Y-104304884D01*
X202214884Y-104234558D01*
X202252944Y-104142672D01*
X202252944Y-104043216D01*
X202214884Y-103951331D01*
X202759301Y-104495748D01*
G37*
%TD.AperFunction*%
%TA.AperFunction,Conductor*%
G36*
X140859301Y-104425748D02*
G01*
X140757670Y-104499588D01*
X140579588Y-104677670D01*
X140505748Y-104779301D01*
X139961331Y-104234884D01*
X140053216Y-104272944D01*
X140152672Y-104272944D01*
X140244558Y-104234884D01*
X140314884Y-104164558D01*
X140352944Y-104072672D01*
X140352944Y-103973216D01*
X140314884Y-103881331D01*
X140859301Y-104425748D01*
G37*
%TD.AperFunction*%
%TA.AperFunction,Conductor*%
G36*
X143668670Y-67685116D02*
G01*
X143576784Y-67647056D01*
X143477328Y-67647056D01*
X143385442Y-67685116D01*
X143315116Y-67755442D01*
X143277056Y-67847328D01*
X143277056Y-67946784D01*
X143315116Y-68038670D01*
X142770698Y-67494252D01*
X142872330Y-67420412D01*
X143050412Y-67242330D01*
X143124252Y-67140698D01*
X143668670Y-67685116D01*
G37*
%TD.AperFunction*%
%TA.AperFunction,Conductor*%
G36*
X205591614Y-67663060D02*
G01*
X205499728Y-67625000D01*
X205400272Y-67625000D01*
X205308386Y-67663060D01*
X205238060Y-67733386D01*
X205200000Y-67825272D01*
X205200000Y-67924728D01*
X205238060Y-68016614D01*
X204693642Y-67472196D01*
X204795274Y-67398356D01*
X204973356Y-67220274D01*
X205047196Y-67118642D01*
X205591614Y-67663060D01*
G37*
%TD.AperFunction*%
%TA.AperFunction,Conductor*%
G36*
X140889301Y-64905748D02*
G01*
X140787670Y-64979588D01*
X140609588Y-65157670D01*
X140535748Y-65259301D01*
X139991331Y-64714884D01*
X140083216Y-64752944D01*
X140182672Y-64752944D01*
X140274558Y-64714884D01*
X140344884Y-64644558D01*
X140382944Y-64552672D01*
X140382944Y-64453216D01*
X140344884Y-64361331D01*
X140889301Y-64905748D01*
G37*
%TD.AperFunction*%
%TA.AperFunction,Conductor*%
G36*
X202812245Y-64883692D02*
G01*
X202710614Y-64957532D01*
X202532532Y-65135614D01*
X202458692Y-65237245D01*
X201914275Y-64692828D01*
X202006160Y-64730888D01*
X202105616Y-64730888D01*
X202197502Y-64692828D01*
X202267828Y-64622502D01*
X202305888Y-64530616D01*
X202305888Y-64431160D01*
X202267828Y-64339275D01*
X202812245Y-64883692D01*
G37*
%TD.AperFunction*%
%TA.AperFunction,Conductor*%
G36*
X206822682Y-62829318D02*
G01*
X206868494Y-62882072D01*
X206879754Y-62933263D01*
X206882887Y-63813137D01*
X206863441Y-63880247D01*
X206810801Y-63926189D01*
X206741678Y-63936379D01*
X206678019Y-63907580D01*
X206662522Y-63891615D01*
X206541846Y-63742594D01*
X205661941Y-64622499D01*
X205700000Y-64530616D01*
X205700000Y-64431160D01*
X205661940Y-64339274D01*
X205591614Y-64268948D01*
X205499728Y-64230888D01*
X205400272Y-64230888D01*
X205308386Y-64268948D01*
X205238060Y-64339274D01*
X205200000Y-64431160D01*
X205200000Y-64530616D01*
X205238060Y-64622502D01*
X205308386Y-64692828D01*
X205400272Y-64730888D01*
X205499728Y-64730888D01*
X205591611Y-64692829D01*
X205047195Y-65237245D01*
X204973356Y-65135614D01*
X204795274Y-64957532D01*
X204693642Y-64883692D01*
X206188293Y-63389040D01*
X205930729Y-63180469D01*
X205930727Y-63180467D01*
X205712498Y-63038748D01*
X205666995Y-62985727D01*
X205657381Y-62916522D01*
X205686708Y-62853105D01*
X205745665Y-62815611D01*
X205779898Y-62810753D01*
X206755624Y-62809705D01*
X206822682Y-62829318D01*
G37*
%TD.AperFunction*%
%TA.AperFunction,Conductor*%
G36*
X139794615Y-62901272D02*
G01*
X139840427Y-62954026D01*
X139850445Y-63023174D01*
X139821488Y-63086761D01*
X139795224Y-63109654D01*
X139652202Y-63202534D01*
X139394649Y-63411095D01*
X139394649Y-63411096D01*
X140274556Y-64291003D01*
X140182672Y-64252944D01*
X140083216Y-64252944D01*
X139991330Y-64291004D01*
X139921004Y-64361330D01*
X139882944Y-64453216D01*
X139882944Y-64552672D01*
X139921003Y-64644556D01*
X139041096Y-63764649D01*
X139041095Y-63764649D01*
X138832531Y-64022206D01*
X138621310Y-64347456D01*
X138564985Y-64458001D01*
X138517010Y-64508797D01*
X138449189Y-64525592D01*
X138383055Y-64503055D01*
X138339603Y-64448340D01*
X138330500Y-64401706D01*
X138330500Y-63007026D01*
X138350185Y-62939987D01*
X138402989Y-62894232D01*
X138454363Y-62883026D01*
X139727558Y-62881660D01*
X139794615Y-62901272D01*
G37*
%TD.AperFunction*%
%TD*%
%TA.AperFunction,Conductor*%
%TO.N,+VDC*%
G36*
X183857866Y-70320240D02*
G01*
X183858653Y-70321027D01*
X184835522Y-71396560D01*
X184845792Y-71407867D01*
X184848818Y-71416295D01*
X184848482Y-71418571D01*
X184602216Y-72403638D01*
X184596885Y-72410833D01*
X184590865Y-72412500D01*
X183109135Y-72412500D01*
X183100862Y-72409073D01*
X183097784Y-72403638D01*
X182851517Y-71418569D01*
X182852835Y-71409713D01*
X182854202Y-71407873D01*
X183841340Y-70321034D01*
X183849438Y-70317214D01*
X183857866Y-70320240D01*
G37*
%TD.AperFunction*%
%TD*%
M02*
