%TF.GenerationSoftware,KiCad,Pcbnew,8.99.0-unknown-2b81d3a93c~180~ubuntu22.04.1*%
%TF.CreationDate,2024-08-01T07:46:56+05:30*%
%TF.ProjectId,HF-PA-v10,48462d50-412d-4763-9130-2e6b69636164,rev?*%
%TF.SameCoordinates,Original*%
%TF.FileFunction,Copper,L1,Top*%
%TF.FilePolarity,Positive*%
%FSLAX46Y46*%
G04 Gerber Fmt 4.6, Leading zero omitted, Abs format (unit mm)*
G04 Created by KiCad (PCBNEW 8.99.0-unknown-2b81d3a93c~180~ubuntu22.04.1) date 2024-08-01 07:46:56*
%MOMM*%
%LPD*%
G01*
G04 APERTURE LIST*
G04 Aperture macros list*
%AMRoundRect*
0 Rectangle with rounded corners*
0 $1 Rounding radius*
0 $2 $3 $4 $5 $6 $7 $8 $9 X,Y pos of 4 corners*
0 Add a 4 corners polygon primitive as box body*
4,1,4,$2,$3,$4,$5,$6,$7,$8,$9,$2,$3,0*
0 Add four circle primitives for the rounded corners*
1,1,$1+$1,$2,$3*
1,1,$1+$1,$4,$5*
1,1,$1+$1,$6,$7*
1,1,$1+$1,$8,$9*
0 Add four rect primitives between the rounded corners*
20,1,$1+$1,$2,$3,$4,$5,0*
20,1,$1+$1,$4,$5,$6,$7,0*
20,1,$1+$1,$6,$7,$8,$9,0*
20,1,$1+$1,$8,$9,$2,$3,0*%
G04 Aperture macros list end*
%TA.AperFunction,ComponentPad*%
%ADD10C,0.800000*%
%TD*%
%TA.AperFunction,ComponentPad*%
%ADD11C,6.400000*%
%TD*%
%TA.AperFunction,SMDPad,CuDef*%
%ADD12RoundRect,0.250000X1.350000X-0.385000X1.350000X0.385000X-1.350000X0.385000X-1.350000X-0.385000X0*%
%TD*%
%TA.AperFunction,SMDPad,CuDef*%
%ADD13RoundRect,0.250000X1.600000X-0.425000X1.600000X0.425000X-1.600000X0.425000X-1.600000X-0.425000X0*%
%TD*%
%TA.AperFunction,SMDPad,CuDef*%
%ADD14RoundRect,0.250000X-0.412500X-0.650000X0.412500X-0.650000X0.412500X0.650000X-0.412500X0.650000X0*%
%TD*%
%TA.AperFunction,ComponentPad*%
%ADD15O,4.400000X2.200000*%
%TD*%
%TA.AperFunction,ComponentPad*%
%ADD16O,4.000000X2.000000*%
%TD*%
%TA.AperFunction,ComponentPad*%
%ADD17O,2.000000X4.000000*%
%TD*%
%TA.AperFunction,SMDPad,CuDef*%
%ADD18RoundRect,0.250000X0.650000X-0.412500X0.650000X0.412500X-0.650000X0.412500X-0.650000X-0.412500X0*%
%TD*%
%TA.AperFunction,SMDPad,CuDef*%
%ADD19RoundRect,0.250000X-0.385000X-1.350000X0.385000X-1.350000X0.385000X1.350000X-0.385000X1.350000X0*%
%TD*%
%TA.AperFunction,SMDPad,CuDef*%
%ADD20RoundRect,0.250000X-0.425000X-1.600000X0.425000X-1.600000X0.425000X1.600000X-0.425000X1.600000X0*%
%TD*%
%TA.AperFunction,ComponentPad*%
%ADD21R,4.500000X2.500000*%
%TD*%
%TA.AperFunction,ComponentPad*%
%ADD22O,4.500000X2.500000*%
%TD*%
%TA.AperFunction,SMDPad,CuDef*%
%ADD23RoundRect,0.250000X0.412500X0.650000X-0.412500X0.650000X-0.412500X-0.650000X0.412500X-0.650000X0*%
%TD*%
%TA.AperFunction,SMDPad,CuDef*%
%ADD24RoundRect,0.250000X1.000000X0.650000X-1.000000X0.650000X-1.000000X-0.650000X1.000000X-0.650000X0*%
%TD*%
%TA.AperFunction,SMDPad,CuDef*%
%ADD25RoundRect,0.162500X-0.837500X-0.162500X0.837500X-0.162500X0.837500X0.162500X-0.837500X0.162500X0*%
%TD*%
%TA.AperFunction,ComponentPad*%
%ADD26R,1.600000X1.600000*%
%TD*%
%TA.AperFunction,ComponentPad*%
%ADD27C,1.600000*%
%TD*%
%TA.AperFunction,SMDPad,CuDef*%
%ADD28R,5.500000X2.150000*%
%TD*%
%TA.AperFunction,SMDPad,CuDef*%
%ADD29RoundRect,0.250000X-0.650000X0.412500X-0.650000X-0.412500X0.650000X-0.412500X0.650000X0.412500X0*%
%TD*%
%TA.AperFunction,SMDPad,CuDef*%
%ADD30RoundRect,0.250000X2.050000X0.300000X-2.050000X0.300000X-2.050000X-0.300000X2.050000X-0.300000X0*%
%TD*%
%TA.AperFunction,SMDPad,CuDef*%
%ADD31RoundRect,0.250000X2.025000X2.375000X-2.025000X2.375000X-2.025000X-2.375000X2.025000X-2.375000X0*%
%TD*%
%TA.AperFunction,SMDPad,CuDef*%
%ADD32RoundRect,0.289364X5.290636X5.150636X-5.290636X5.150636X-5.290636X-5.150636X5.290636X-5.150636X0*%
%TD*%
%TA.AperFunction,SMDPad,CuDef*%
%ADD33RoundRect,0.292857X2.862143X2.372143X-2.862143X2.372143X-2.862143X-2.372143X2.862143X-2.372143X0*%
%TD*%
%TA.AperFunction,SMDPad,CuDef*%
%ADD34RoundRect,0.288461X2.876539X2.336539X-2.876539X2.336539X-2.876539X-2.336539X2.876539X-2.336539X0*%
%TD*%
%TA.AperFunction,SMDPad,CuDef*%
%ADD35RoundRect,0.250000X-0.625000X0.400000X-0.625000X-0.400000X0.625000X-0.400000X0.625000X0.400000X0*%
%TD*%
%TA.AperFunction,ViaPad*%
%ADD36C,0.800000*%
%TD*%
%TA.AperFunction,Conductor*%
%ADD37C,0.750000*%
%TD*%
%TA.AperFunction,Conductor*%
%ADD38C,1.000000*%
%TD*%
%TA.AperFunction,Conductor*%
%ADD39C,2.200000*%
%TD*%
%TA.AperFunction,Conductor*%
%ADD40C,1.500000*%
%TD*%
G04 APERTURE END LIST*
D10*
%TO.P,H3,1,1*%
%TO.N,GND*%
X139400000Y-105720000D03*
X140102944Y-104022944D03*
X140102944Y-107417056D03*
X141800000Y-103320000D03*
D11*
X141800000Y-105720000D03*
D10*
X141800000Y-108120000D03*
X143497056Y-104022944D03*
X143497056Y-107417056D03*
X144200000Y-105720000D03*
%TD*%
D12*
%TO.P,RF_OUT1,1,In*%
%TO.N,Net-(RF_OUT1-In)*%
X204807500Y-84720000D03*
D13*
%TO.P,RF_OUT1,2,Ext*%
%TO.N,GND*%
X204557500Y-81895000D03*
X204557500Y-87545000D03*
%TD*%
D14*
%TO.P,C12,1*%
%TO.N,+VDC*%
X184757500Y-94920000D03*
%TO.P,C12,2*%
%TO.N,GND*%
X187882500Y-94920000D03*
%TD*%
D15*
%TO.P,Power1,1*%
%TO.N,+VDC*%
X183850000Y-70312500D03*
D16*
%TO.P,Power1,2*%
%TO.N,GND*%
X183850000Y-64312500D03*
D17*
%TO.P,Power1,3*%
%TO.N,unconnected-(Power1-Pad3)*%
X179150000Y-67312500D03*
%TD*%
D14*
%TO.P,C9,1*%
%TO.N,9V*%
X169887500Y-96320000D03*
%TO.P,C9,2*%
%TO.N,GND*%
X173012500Y-96320000D03*
%TD*%
D18*
%TO.P,C4,1*%
%TO.N,9V*%
X175110000Y-93962500D03*
%TO.P,C4,2*%
%TO.N,GND*%
X175110000Y-90837500D03*
%TD*%
D10*
%TO.P,H4,1,1*%
%TO.N,GND*%
X201300000Y-105790000D03*
X202002944Y-104092944D03*
X202002944Y-107487056D03*
X203700000Y-103390000D03*
D11*
X203700000Y-105790000D03*
D10*
X203700000Y-108190000D03*
X205397056Y-104092944D03*
X205397056Y-107487056D03*
X206100000Y-105790000D03*
%TD*%
D19*
%TO.P,RF_IN1,1,In*%
%TO.N,Net-(RF_IN1-In)*%
X175570000Y-106940000D03*
D20*
%TO.P,RF_IN1,2,Ext*%
%TO.N,GND*%
X178395000Y-106690000D03*
X172745000Y-106690000D03*
%TD*%
D21*
%TO.P,Q1,1,G*%
%TO.N,Net-(Q1-G)*%
X176600000Y-86720000D03*
D22*
%TO.P,Q1,2,D*%
%TO.N,/DRAIN*%
X176600000Y-81270000D03*
%TO.P,Q1,3,S*%
%TO.N,GND*%
X176600000Y-75820000D03*
%TD*%
D23*
%TO.P,C3,1*%
%TO.N,Net-(RF_OUT1-In)*%
X199330000Y-84750000D03*
%TO.P,C3,2*%
%TO.N,Net-(C3-Pad2)*%
X196205000Y-84750000D03*
%TD*%
D24*
%TO.P,D1,1,K*%
%TO.N,9V*%
X169290000Y-93060000D03*
%TO.P,D1,2,A*%
%TO.N,Net-(D1-A)*%
X165290000Y-93060000D03*
%TD*%
D25*
%TO.P,U2,1,VDD*%
%TO.N,9V*%
X175270000Y-96512500D03*
%TO.P,U2,2,GND*%
%TO.N,GND*%
X175270000Y-97462500D03*
%TO.P,U2,3,IN+*%
%TO.N,Net-(RF_IN1-In)*%
X175270000Y-98412500D03*
%TO.P,U2,4,IN-*%
%TO.N,GND*%
X178690000Y-98412500D03*
%TO.P,U2,5,OUT*%
%TO.N,Net-(Q1-G)*%
X178690000Y-96512500D03*
%TD*%
D26*
%TO.P,C6,1*%
%TO.N,+VDC*%
X196187349Y-75180000D03*
D27*
%TO.P,C6,2*%
%TO.N,GND*%
X201187349Y-75180000D03*
%TD*%
D28*
%TO.P,T1,1*%
%TO.N,/DRAIN*%
X182610000Y-81255000D03*
%TO.P,T1,2*%
%TO.N,+VDC*%
X182610000Y-84685000D03*
%TO.P,T1,3*%
%TO.N,Net-(C3-Pad2)*%
X192110000Y-84685000D03*
%TO.P,T1,4*%
%TO.N,/DRAIN*%
X192110000Y-81255000D03*
%TD*%
D10*
%TO.P,H1,1,1*%
%TO.N,GND*%
X139430000Y-66200000D03*
X140132944Y-64502944D03*
X140132944Y-67897056D03*
X141830000Y-63800000D03*
D11*
X141830000Y-66200000D03*
D10*
X141830000Y-68600000D03*
X143527056Y-64502944D03*
X143527056Y-67897056D03*
X144230000Y-66200000D03*
%TD*%
D18*
%TO.P,C5,1*%
%TO.N,+VDC*%
X193040000Y-72862500D03*
%TO.P,C5,2*%
%TO.N,GND*%
X193040000Y-69737500D03*
%TD*%
D29*
%TO.P,C8,1*%
%TO.N,Net-(D1-A)*%
X170340000Y-98597500D03*
%TO.P,C8,2*%
%TO.N,GND*%
X170340000Y-101722500D03*
%TD*%
D30*
%TO.P,U1,1,IN*%
%TO.N,+VDC*%
X165225000Y-103505000D03*
D31*
%TO.P,U1,2,GND*%
%TO.N,GND*%
X158500000Y-103740000D03*
X158500000Y-98190000D03*
D32*
X155195000Y-100925000D03*
D33*
X152770000Y-98150000D03*
D34*
X152760000Y-103740000D03*
D30*
%TO.P,U1,3,OUT*%
%TO.N,Net-(D1-A)*%
X165225000Y-98425000D03*
%TD*%
D18*
%TO.P,C10,1*%
%TO.N,+VDC*%
X190550000Y-72862500D03*
%TO.P,C10,2*%
%TO.N,GND*%
X190550000Y-69737500D03*
%TD*%
D10*
%TO.P,H2,1,1*%
%TO.N,GND*%
X201352944Y-66177944D03*
X202055888Y-64480888D03*
X202055888Y-67875000D03*
X203752944Y-63777944D03*
D11*
X203752944Y-66177944D03*
D10*
X203752944Y-68577944D03*
X205450000Y-64480888D03*
X205450000Y-67875000D03*
X206152944Y-66177944D03*
%TD*%
D35*
%TO.P,R3,1*%
%TO.N,Net-(Q1-G)*%
X180300000Y-90870000D03*
%TO.P,R3,2*%
%TO.N,GND*%
X180300000Y-93970000D03*
%TD*%
D14*
%TO.P,C2,1*%
%TO.N,+VDC*%
X184770000Y-91410000D03*
%TO.P,C2,2*%
%TO.N,GND*%
X187895000Y-91410000D03*
%TD*%
D36*
%TO.N,GND*%
X143980000Y-76400000D03*
X197820000Y-64080000D03*
X141680000Y-98740000D03*
X143980000Y-71320000D03*
X141470000Y-89050000D03*
X157950000Y-65770000D03*
X141470000Y-76340000D03*
X201370000Y-97830000D03*
X192740000Y-64080000D03*
X150700000Y-99000000D03*
X190140000Y-66590000D03*
X150760000Y-96490000D03*
X167830000Y-65770000D03*
X175450000Y-65770000D03*
X153280000Y-70470000D03*
X198830000Y-97830000D03*
X150850000Y-65770000D03*
X165990000Y-70470000D03*
X192060000Y-100340000D03*
X190200000Y-64080000D03*
X206170000Y-78980000D03*
X195220000Y-66590000D03*
X193690000Y-100340000D03*
X192370000Y-105840000D03*
X153390000Y-65770000D03*
X187040000Y-97830000D03*
X201310000Y-100340000D03*
X172910000Y-65770000D03*
X147260000Y-91290000D03*
X196230000Y-94700000D03*
X203660000Y-76380000D03*
X147210000Y-92570000D03*
X193750000Y-97830000D03*
X189770000Y-108350000D03*
X141470000Y-78880000D03*
X198830000Y-92190000D03*
X196290000Y-97830000D03*
X152340000Y-91290000D03*
X203660000Y-71300000D03*
X155870000Y-68280000D03*
X144190000Y-96260000D03*
X157890000Y-68280000D03*
X172870000Y-70450000D03*
X197450000Y-105840000D03*
X160430000Y-68280000D03*
X205970000Y-92210000D03*
X203460000Y-94690000D03*
X196230000Y-100340000D03*
X206170000Y-76440000D03*
X148310000Y-65770000D03*
X163030000Y-65770000D03*
X152370000Y-101070000D03*
X163450000Y-70470000D03*
X143980000Y-86570000D03*
X165510000Y-68280000D03*
X167160000Y-108140000D03*
X169040000Y-108100000D03*
X195280000Y-64080000D03*
X196290000Y-92190000D03*
X150790000Y-68280000D03*
X203660000Y-73840000D03*
X141470000Y-86510000D03*
X144190000Y-98800000D03*
X154880000Y-91290000D03*
X193690000Y-94700000D03*
X192310000Y-108350000D03*
X175390000Y-68280000D03*
X201370000Y-92190000D03*
X141470000Y-73800000D03*
X197760000Y-66590000D03*
X150680000Y-103580000D03*
X154830000Y-92570000D03*
X148200000Y-70470000D03*
X170310000Y-68280000D03*
X141470000Y-83970000D03*
X143980000Y-78940000D03*
X143980000Y-81490000D03*
X192680000Y-66590000D03*
X152330000Y-99000000D03*
X205970000Y-94750000D03*
X170330000Y-70450000D03*
X170370000Y-65770000D03*
X197390000Y-108350000D03*
X141680000Y-101280000D03*
X152310000Y-103580000D03*
X184440000Y-100340000D03*
X149800000Y-91290000D03*
X178700000Y-100050000D03*
X175410000Y-70450000D03*
X184500000Y-97830000D03*
X152290000Y-92570000D03*
X194850000Y-108350000D03*
X189580000Y-97830000D03*
X162970000Y-68280000D03*
X150740000Y-70470000D03*
X155820000Y-70470000D03*
X167790000Y-70450000D03*
X167770000Y-68280000D03*
X143980000Y-73860000D03*
X144190000Y-101340000D03*
X173054721Y-100470673D03*
X160910000Y-70470000D03*
X206170000Y-71360000D03*
X173060000Y-99190000D03*
X160490000Y-65770000D03*
X201310000Y-94700000D03*
X157030000Y-91280000D03*
X143980000Y-84030000D03*
X149750000Y-92570000D03*
X189520000Y-100340000D03*
X141470000Y-81430000D03*
X203660000Y-78920000D03*
X150740000Y-101070000D03*
X155930000Y-65770000D03*
X169040000Y-106770000D03*
X198770000Y-100340000D03*
X206170000Y-73900000D03*
X141680000Y-93660000D03*
X148250000Y-68280000D03*
X141680000Y-96200000D03*
X198770000Y-94700000D03*
X144190000Y-93720000D03*
X193750000Y-92190000D03*
X141470000Y-71260000D03*
X165570000Y-65770000D03*
X143980000Y-89110000D03*
X153330000Y-68280000D03*
X152390000Y-96490000D03*
X203460000Y-92150000D03*
X172850000Y-68280000D03*
X192120000Y-97830000D03*
X189830000Y-105840000D03*
X194910000Y-105840000D03*
X186980000Y-100340000D03*
X156980000Y-92560000D03*
%TO.N,+VDC*%
X166410000Y-103450000D03*
X165430000Y-103460000D03*
X181570000Y-84800000D03*
X184460000Y-84870000D03*
X182570000Y-91450000D03*
X182640000Y-94920000D03*
X182590000Y-84860000D03*
X183420000Y-84210000D03*
X163590000Y-103470000D03*
X180560000Y-84830000D03*
X164500000Y-103460000D03*
%TD*%
D37*
%TO.N,GND*%
X174182500Y-97472500D02*
X173070000Y-96360000D01*
X175440000Y-97472500D02*
X174182500Y-97472500D01*
X175440000Y-97472500D02*
X174562514Y-97472500D01*
D38*
%TO.N,Net-(Q1-G)*%
X177860000Y-95682500D02*
X177860000Y-87980000D01*
X177860000Y-90840000D02*
X180270000Y-90840000D01*
X177860000Y-87980000D02*
X176600000Y-86720000D01*
X178690000Y-96512500D02*
X177860000Y-95682500D01*
D39*
%TO.N,/DRAIN*%
X176600000Y-81270000D02*
X182455000Y-81270000D01*
X182455000Y-81270000D02*
X182460000Y-81275000D01*
X182460000Y-81275000D02*
X191960000Y-81275000D01*
%TO.N,Net-(RF_OUT1-In)*%
X199330000Y-84750000D02*
X204977500Y-84750000D01*
D40*
%TO.N,Net-(D1-A)*%
X165225000Y-98425000D02*
X170167500Y-98425000D01*
X165290000Y-93060000D02*
X165290000Y-98360000D01*
X165290000Y-98360000D02*
X165225000Y-98425000D01*
X170167500Y-98425000D02*
X170340000Y-98597500D01*
%TO.N,9V*%
X174207500Y-93060000D02*
X175110000Y-93962500D01*
D38*
X174577500Y-93430000D02*
X175110000Y-93962500D01*
D40*
X169290000Y-93060000D02*
X174207500Y-93060000D01*
D37*
X175440000Y-94610000D02*
X175440000Y-96522500D01*
D40*
X169887500Y-93657500D02*
X169290000Y-93060000D01*
D37*
X170097500Y-96330000D02*
X170097500Y-93442500D01*
D40*
X169887500Y-96320000D02*
X169887500Y-93657500D01*
D37*
%TO.N,Net-(RF_IN1-In)*%
X175570000Y-98552500D02*
X175440000Y-98422500D01*
X175570000Y-107140000D02*
X175570000Y-98552500D01*
D39*
%TO.N,Net-(C3-Pad2)*%
X192110000Y-84685000D02*
X196140000Y-84685000D01*
D40*
%TO.N,+VDC*%
X186110000Y-75170000D02*
X184650000Y-75170000D01*
X193070000Y-75170000D02*
X191160000Y-75170000D01*
X186120000Y-75180000D02*
X196187349Y-75180000D01*
X191160000Y-75170000D02*
X190570000Y-75170000D01*
X183850000Y-74370000D02*
X183850000Y-70312500D01*
X183270000Y-70892500D02*
X183850000Y-70312500D01*
X186110000Y-75170000D02*
X186120000Y-75180000D01*
X190550000Y-72862500D02*
X190550000Y-75150000D01*
X195330000Y-75170000D02*
X193070000Y-75170000D01*
X182640000Y-94920000D02*
X184757500Y-94920000D01*
X192270000Y-75170000D02*
X192280000Y-75180000D01*
X193040000Y-72862500D02*
X193040000Y-75140000D01*
X186560000Y-70312500D02*
X186600000Y-70352500D01*
X193040000Y-75140000D02*
X193070000Y-75170000D01*
X191160000Y-75170000D02*
X192270000Y-75170000D01*
X182570000Y-91450000D02*
X184730000Y-91450000D01*
X190570000Y-75170000D02*
X186110000Y-75170000D01*
X183850000Y-70312500D02*
X186560000Y-70312500D01*
X190550000Y-75150000D02*
X190570000Y-75170000D01*
X184650000Y-75170000D02*
X183850000Y-74370000D01*
%TD*%
%TA.AperFunction,Conductor*%
%TO.N,GND*%
G36*
X140579588Y-106762330D02*
G01*
X140757670Y-106940412D01*
X140859301Y-107014251D01*
X140314884Y-107558667D01*
X140352944Y-107466784D01*
X140352944Y-107367328D01*
X140314884Y-107275442D01*
X140244558Y-107205116D01*
X140152672Y-107167056D01*
X140053216Y-107167056D01*
X139961330Y-107205116D01*
X139891004Y-107275442D01*
X139852944Y-107367328D01*
X139852944Y-107466784D01*
X139891004Y-107558670D01*
X139961330Y-107628996D01*
X140053216Y-107667056D01*
X140152672Y-107667056D01*
X140244555Y-107628996D01*
X139364650Y-108508902D01*
X139622214Y-108717475D01*
X139622216Y-108717476D01*
X139947456Y-108928689D01*
X140146319Y-109030015D01*
X140197115Y-109077989D01*
X140213910Y-109145810D01*
X140191373Y-109211945D01*
X140136658Y-109255397D01*
X140090024Y-109264500D01*
X138457869Y-109264500D01*
X138390830Y-109244815D01*
X138345075Y-109192011D01*
X138333870Y-109140927D01*
X138330501Y-108161633D01*
X138330500Y-108161206D01*
X138330500Y-107577172D01*
X138350185Y-107510133D01*
X138402989Y-107464378D01*
X138472147Y-107454434D01*
X138535703Y-107483459D01*
X138564985Y-107520877D01*
X138591310Y-107572543D01*
X138802523Y-107897783D01*
X138802525Y-107897785D01*
X139011096Y-108155348D01*
X140505747Y-106660697D01*
X140579588Y-106762330D01*
G37*
%TD.AperFunction*%
%TA.AperFunction,Conductor*%
G36*
X201842875Y-62797848D02*
G01*
X201888681Y-62850607D01*
X201898692Y-62919756D01*
X201869729Y-62983340D01*
X201843473Y-63006223D01*
X201575146Y-63180478D01*
X201317593Y-63389039D01*
X201317593Y-63389040D01*
X202197500Y-64268947D01*
X202105616Y-64230888D01*
X202006160Y-64230888D01*
X201914274Y-64268948D01*
X201843948Y-64339274D01*
X201805888Y-64431160D01*
X201805888Y-64530616D01*
X201843947Y-64622500D01*
X200964040Y-63742593D01*
X200964039Y-63742593D01*
X200755475Y-64000150D01*
X200544254Y-64325400D01*
X200368188Y-64670949D01*
X200229206Y-65033007D01*
X200128831Y-65407613D01*
X200128830Y-65407620D01*
X200068163Y-65790656D01*
X200047866Y-66177943D01*
X200047866Y-66177944D01*
X200068163Y-66565231D01*
X200128830Y-66948267D01*
X200128831Y-66948274D01*
X200229206Y-67322880D01*
X200368188Y-67684938D01*
X200544254Y-68030487D01*
X200755467Y-68355727D01*
X200755469Y-68355729D01*
X200964040Y-68613292D01*
X202458691Y-67118641D01*
X202532532Y-67220274D01*
X202710614Y-67398356D01*
X202812245Y-67472195D01*
X202267828Y-68016611D01*
X202305888Y-67924728D01*
X202305888Y-67825272D01*
X202267828Y-67733386D01*
X202197502Y-67663060D01*
X202105616Y-67625000D01*
X202006160Y-67625000D01*
X201914274Y-67663060D01*
X201843948Y-67733386D01*
X201805888Y-67825272D01*
X201805888Y-67924728D01*
X201843948Y-68016614D01*
X201914274Y-68086940D01*
X202006160Y-68125000D01*
X202105616Y-68125000D01*
X202197499Y-68086940D01*
X201317594Y-68966846D01*
X201575158Y-69175419D01*
X201575160Y-69175420D01*
X201900400Y-69386633D01*
X202245949Y-69562699D01*
X202608007Y-69701681D01*
X202982613Y-69802056D01*
X202982620Y-69802057D01*
X203365656Y-69862724D01*
X203752943Y-69883022D01*
X203752945Y-69883022D01*
X204140231Y-69862724D01*
X204523267Y-69802057D01*
X204523274Y-69802056D01*
X204897880Y-69701681D01*
X205259938Y-69562699D01*
X205605487Y-69386633D01*
X205930715Y-69175428D01*
X205930728Y-69175418D01*
X206188292Y-68966846D01*
X205308386Y-68086940D01*
X205400272Y-68125000D01*
X205499728Y-68125000D01*
X205591614Y-68086940D01*
X205661940Y-68016614D01*
X205700000Y-67924728D01*
X205700000Y-67825272D01*
X205661940Y-67733386D01*
X206541846Y-68613292D01*
X206750418Y-68355728D01*
X206750427Y-68355715D01*
X206950381Y-68047814D01*
X207003402Y-68002311D01*
X207072607Y-67992697D01*
X207136024Y-68022024D01*
X207173518Y-68080981D01*
X207178375Y-68114922D01*
X207191310Y-71875096D01*
X207198093Y-73847011D01*
X207199499Y-74255557D01*
X207199500Y-74255984D01*
X207199500Y-103991706D01*
X207179815Y-104058745D01*
X207127011Y-104104500D01*
X207057853Y-104114444D01*
X206994297Y-104085419D01*
X206965015Y-104048001D01*
X206908689Y-103937456D01*
X206697476Y-103612216D01*
X206697475Y-103612214D01*
X206488902Y-103354650D01*
X205608997Y-104234555D01*
X205647056Y-104142672D01*
X205647056Y-104043216D01*
X205608996Y-103951330D01*
X205538670Y-103881004D01*
X205446784Y-103842944D01*
X205347328Y-103842944D01*
X205255442Y-103881004D01*
X205185116Y-103951330D01*
X205147056Y-104043216D01*
X205147056Y-104142672D01*
X205185116Y-104234558D01*
X205255442Y-104304884D01*
X205347328Y-104342944D01*
X205446784Y-104342944D01*
X205538667Y-104304885D01*
X204994251Y-104849301D01*
X204920412Y-104747670D01*
X204742330Y-104569588D01*
X204640698Y-104495748D01*
X206135349Y-103001096D01*
X205877785Y-102792525D01*
X205877783Y-102792523D01*
X205552543Y-102581310D01*
X205206994Y-102405244D01*
X204844936Y-102266262D01*
X204470330Y-102165887D01*
X204470323Y-102165886D01*
X204087287Y-102105219D01*
X203700001Y-102084922D01*
X203699999Y-102084922D01*
X203312712Y-102105219D01*
X202929676Y-102165886D01*
X202929669Y-102165887D01*
X202555063Y-102266262D01*
X202193005Y-102405244D01*
X201847456Y-102581310D01*
X201522206Y-102792531D01*
X201264649Y-103001095D01*
X201264649Y-103001096D01*
X202144556Y-103881003D01*
X202052672Y-103842944D01*
X201953216Y-103842944D01*
X201861330Y-103881004D01*
X201791004Y-103951330D01*
X201752944Y-104043216D01*
X201752944Y-104142672D01*
X201791003Y-104234556D01*
X200911096Y-103354649D01*
X200911095Y-103354649D01*
X200702531Y-103612206D01*
X200491310Y-103937456D01*
X200315244Y-104283005D01*
X200176262Y-104645063D01*
X200075887Y-105019669D01*
X200075886Y-105019676D01*
X200015219Y-105402712D01*
X199994922Y-105789999D01*
X199994922Y-105790000D01*
X200015219Y-106177287D01*
X200075886Y-106560323D01*
X200075887Y-106560330D01*
X200176262Y-106934936D01*
X200315244Y-107296994D01*
X200491310Y-107642543D01*
X200702523Y-107967783D01*
X200702525Y-107967785D01*
X200911096Y-108225348D01*
X202405747Y-106730697D01*
X202479588Y-106832330D01*
X202657670Y-107010412D01*
X202759301Y-107084251D01*
X202214884Y-107628667D01*
X202252944Y-107536784D01*
X202252944Y-107437328D01*
X202214884Y-107345442D01*
X202144558Y-107275116D01*
X202052672Y-107237056D01*
X201953216Y-107237056D01*
X201861330Y-107275116D01*
X201791004Y-107345442D01*
X201752944Y-107437328D01*
X201752944Y-107536784D01*
X201791004Y-107628670D01*
X201861330Y-107698996D01*
X201953216Y-107737056D01*
X202052672Y-107737056D01*
X202144555Y-107698996D01*
X201264650Y-108578902D01*
X201522214Y-108787475D01*
X201522216Y-108787476D01*
X201847456Y-108998689D01*
X201908936Y-109030015D01*
X201959732Y-109077989D01*
X201976527Y-109145810D01*
X201953990Y-109211945D01*
X201899275Y-109255397D01*
X201852641Y-109264500D01*
X179031956Y-109264500D01*
X178964917Y-109244815D01*
X178919162Y-109192011D01*
X178909218Y-109122853D01*
X178938243Y-109059297D01*
X178992952Y-109022794D01*
X179139119Y-108974358D01*
X179139124Y-108974356D01*
X179288345Y-108882315D01*
X179412315Y-108758345D01*
X179504356Y-108609124D01*
X179504358Y-108609119D01*
X179559505Y-108442697D01*
X179559506Y-108442690D01*
X179569999Y-108339986D01*
X179570000Y-108339973D01*
X179570000Y-106940000D01*
X177220001Y-106940000D01*
X177220001Y-108339986D01*
X177230494Y-108442697D01*
X177285641Y-108609119D01*
X177285643Y-108609124D01*
X177377684Y-108758345D01*
X177501654Y-108882315D01*
X177650875Y-108974356D01*
X177650880Y-108974358D01*
X177797050Y-109022794D01*
X177854495Y-109062566D01*
X177881318Y-109127082D01*
X177869003Y-109195858D01*
X177821460Y-109247058D01*
X177758046Y-109264500D01*
X176168545Y-109264500D01*
X176101506Y-109244815D01*
X176055751Y-109192011D01*
X176045807Y-109122853D01*
X176074832Y-109059297D01*
X176129541Y-109022794D01*
X176159698Y-109012800D01*
X176274334Y-108974814D01*
X176423656Y-108882712D01*
X176547712Y-108758656D01*
X176639814Y-108609334D01*
X176694999Y-108442797D01*
X176705500Y-108340009D01*
X176705499Y-105539992D01*
X176694999Y-105437203D01*
X176675415Y-105378105D01*
X176670581Y-105358063D01*
X176668611Y-105345332D01*
X176668197Y-105342654D01*
X176575806Y-105040013D01*
X177220000Y-105040013D01*
X177220000Y-106440000D01*
X178145000Y-106440000D01*
X178645000Y-106440000D01*
X179569999Y-106440000D01*
X179569999Y-105040028D01*
X179569998Y-105040013D01*
X179559505Y-104937302D01*
X179504358Y-104770880D01*
X179504356Y-104770875D01*
X179412315Y-104621654D01*
X179288345Y-104497684D01*
X179139124Y-104405643D01*
X179139119Y-104405641D01*
X178972697Y-104350494D01*
X178972690Y-104350493D01*
X178869986Y-104340000D01*
X178645000Y-104340000D01*
X178645000Y-106440000D01*
X178145000Y-106440000D01*
X178145000Y-104340000D01*
X177920029Y-104340000D01*
X177920012Y-104340001D01*
X177817302Y-104350494D01*
X177650880Y-104405641D01*
X177650875Y-104405643D01*
X177501654Y-104497684D01*
X177377684Y-104621654D01*
X177285643Y-104770875D01*
X177285641Y-104770880D01*
X177230494Y-104937302D01*
X177230493Y-104937309D01*
X177220000Y-105040013D01*
X176575806Y-105040013D01*
X176450903Y-104630877D01*
X176445500Y-104594672D01*
X176445500Y-99215338D01*
X176465185Y-99148299D01*
X176505351Y-99109221D01*
X176519388Y-99100736D01*
X176633236Y-98986888D01*
X176716531Y-98849102D01*
X176764430Y-98695387D01*
X176767419Y-98662500D01*
X177193085Y-98662500D01*
X177196064Y-98695292D01*
X177196067Y-98695302D01*
X177243927Y-98848892D01*
X177327163Y-98986580D01*
X177440919Y-99100336D01*
X177578603Y-99183570D01*
X177732207Y-99231434D01*
X177798957Y-99237500D01*
X178440000Y-99237500D01*
X178940000Y-99237500D01*
X179581043Y-99237500D01*
X179647792Y-99231434D01*
X179801396Y-99183570D01*
X179939080Y-99100336D01*
X180052836Y-98986580D01*
X180136072Y-98848892D01*
X180183932Y-98695302D01*
X180183935Y-98695292D01*
X180186914Y-98662500D01*
X178940000Y-98662500D01*
X178940000Y-99237500D01*
X178440000Y-99237500D01*
X178440000Y-98662500D01*
X177193085Y-98662500D01*
X176767419Y-98662500D01*
X176770500Y-98628591D01*
X176770499Y-98196410D01*
X176770499Y-98196409D01*
X176770499Y-98196401D01*
X176764431Y-98129617D01*
X176764429Y-98129609D01*
X176715799Y-97973549D01*
X176714647Y-97903688D01*
X176715799Y-97899767D01*
X176763933Y-97745299D01*
X176763935Y-97745292D01*
X176766914Y-97712500D01*
X176534496Y-97712500D01*
X176470346Y-97694617D01*
X176381602Y-97640969D01*
X176227887Y-97593070D01*
X176227885Y-97593069D01*
X176227883Y-97593069D01*
X176181117Y-97588819D01*
X176161091Y-97587000D01*
X176161088Y-97587000D01*
X175781251Y-97587000D01*
X175714212Y-97567315D01*
X175668457Y-97514511D01*
X175658513Y-97445353D01*
X175687538Y-97381797D01*
X175733788Y-97348443D01*
X175736205Y-97347441D01*
X175783667Y-97337999D01*
X176161097Y-97337999D01*
X176227882Y-97331931D01*
X176227885Y-97331930D01*
X176227887Y-97331930D01*
X176381602Y-97284031D01*
X176470346Y-97230382D01*
X176534496Y-97212500D01*
X176766915Y-97212500D01*
X176766914Y-97212499D01*
X176763935Y-97179707D01*
X176763933Y-97179700D01*
X176715799Y-97025232D01*
X176714647Y-96955371D01*
X176715799Y-96951451D01*
X176716532Y-96949098D01*
X176764430Y-96795387D01*
X176770500Y-96728591D01*
X176770499Y-96296410D01*
X176770499Y-96296409D01*
X176770499Y-96296402D01*
X176767936Y-96268197D01*
X176781473Y-96199652D01*
X176829920Y-96149306D01*
X176897894Y-96133145D01*
X176963816Y-96156299D01*
X176994529Y-96188085D01*
X177082859Y-96320280D01*
X177082860Y-96320281D01*
X177082861Y-96320282D01*
X177153182Y-96390603D01*
X177186666Y-96451924D01*
X177189500Y-96478283D01*
X177189500Y-96728598D01*
X177195568Y-96795382D01*
X177195571Y-96795393D01*
X177243467Y-96949098D01*
X177243468Y-96949100D01*
X177243469Y-96949102D01*
X177297150Y-97037901D01*
X177326766Y-97086891D01*
X177440608Y-97200733D01*
X177440610Y-97200734D01*
X177440612Y-97200736D01*
X177578398Y-97284031D01*
X177732113Y-97331930D01*
X177798909Y-97338000D01*
X178086980Y-97337999D01*
X178154019Y-97357683D01*
X178155845Y-97358880D01*
X178158106Y-97360390D01*
X178202917Y-97413996D01*
X178211633Y-97483320D01*
X178181486Y-97546351D01*
X178122047Y-97583078D01*
X178089227Y-97587500D01*
X177798957Y-97587500D01*
X177732207Y-97593565D01*
X177578603Y-97641429D01*
X177440919Y-97724663D01*
X177327163Y-97838419D01*
X177243927Y-97976107D01*
X177196067Y-98129697D01*
X177196064Y-98129707D01*
X177193085Y-98162499D01*
X177193085Y-98162500D01*
X180186915Y-98162500D01*
X180186914Y-98162499D01*
X180183935Y-98129707D01*
X180183932Y-98129697D01*
X180136072Y-97976107D01*
X180052836Y-97838419D01*
X179939080Y-97724663D01*
X179801396Y-97641429D01*
X179647792Y-97593565D01*
X179581043Y-97587500D01*
X179290773Y-97587500D01*
X179223734Y-97567815D01*
X179177979Y-97515011D01*
X179168035Y-97445853D01*
X179197060Y-97382297D01*
X179221874Y-97360404D01*
X179224120Y-97358903D01*
X179290795Y-97338019D01*
X179293019Y-97337999D01*
X179581097Y-97337999D01*
X179647882Y-97331931D01*
X179647885Y-97331930D01*
X179647887Y-97331930D01*
X179801602Y-97284031D01*
X179939388Y-97200736D01*
X180053236Y-97086888D01*
X180136531Y-96949102D01*
X180184430Y-96795387D01*
X180190500Y-96728591D01*
X180190499Y-96296410D01*
X180190499Y-96296409D01*
X180190499Y-96296401D01*
X180184431Y-96229617D01*
X180184428Y-96229606D01*
X180136532Y-96075901D01*
X180136531Y-96075900D01*
X180136531Y-96075898D01*
X180053236Y-95938112D01*
X180053234Y-95938110D01*
X180053233Y-95938108D01*
X179939391Y-95824266D01*
X179801602Y-95740969D01*
X179781314Y-95734647D01*
X179647887Y-95693070D01*
X179647885Y-95693069D01*
X179647883Y-95693069D01*
X179601117Y-95688819D01*
X179581091Y-95687000D01*
X179581088Y-95687000D01*
X179330782Y-95687000D01*
X179263743Y-95667315D01*
X179243101Y-95650681D01*
X178896819Y-95304398D01*
X178863334Y-95243075D01*
X178860500Y-95216717D01*
X178860500Y-94914095D01*
X178880185Y-94847056D01*
X178932989Y-94801301D01*
X179002147Y-94791357D01*
X179065703Y-94820382D01*
X179081767Y-94837185D01*
X179082685Y-94838346D01*
X179206654Y-94962315D01*
X179355875Y-95054356D01*
X179355880Y-95054358D01*
X179522302Y-95109505D01*
X179522309Y-95109506D01*
X179625019Y-95119999D01*
X180049999Y-95119999D01*
X180050000Y-95119998D01*
X180050000Y-94220000D01*
X180550000Y-94220000D01*
X180550000Y-95119999D01*
X180974972Y-95119999D01*
X180974986Y-95119998D01*
X181077695Y-95109506D01*
X181249026Y-95052731D01*
X181318854Y-95050329D01*
X181378897Y-95086060D01*
X181410090Y-95148580D01*
X181410504Y-95151038D01*
X181420291Y-95212827D01*
X181481117Y-95400029D01*
X181564155Y-95563000D01*
X181570476Y-95575405D01*
X181686172Y-95734646D01*
X181825354Y-95873828D01*
X181984595Y-95989524D01*
X182014225Y-96004621D01*
X182159970Y-96078882D01*
X182159972Y-96078882D01*
X182159975Y-96078884D01*
X182260317Y-96111487D01*
X182347173Y-96139709D01*
X182541578Y-96170500D01*
X182541583Y-96170500D01*
X183853804Y-96170500D01*
X183918900Y-96188961D01*
X184025659Y-96254810D01*
X184025660Y-96254810D01*
X184025666Y-96254814D01*
X184192203Y-96309999D01*
X184294991Y-96320500D01*
X185220008Y-96320499D01*
X185220016Y-96320498D01*
X185220019Y-96320498D01*
X185276302Y-96314748D01*
X185322797Y-96309999D01*
X185489334Y-96254814D01*
X185638656Y-96162712D01*
X185762712Y-96038656D01*
X185854814Y-95889334D01*
X185909999Y-95722797D01*
X185920500Y-95620009D01*
X185920500Y-95619986D01*
X186720001Y-95619986D01*
X186730494Y-95722697D01*
X186785641Y-95889119D01*
X186785643Y-95889124D01*
X186877684Y-96038345D01*
X187001654Y-96162315D01*
X187150875Y-96254356D01*
X187150880Y-96254358D01*
X187317302Y-96309505D01*
X187317309Y-96309506D01*
X187420019Y-96319999D01*
X187632499Y-96319999D01*
X188132500Y-96319999D01*
X188344972Y-96319999D01*
X188344986Y-96319998D01*
X188447697Y-96309505D01*
X188614119Y-96254358D01*
X188614124Y-96254356D01*
X188763345Y-96162315D01*
X188887315Y-96038345D01*
X188979356Y-95889124D01*
X188979358Y-95889119D01*
X189034505Y-95722697D01*
X189034506Y-95722690D01*
X189044999Y-95619986D01*
X189045000Y-95619973D01*
X189045000Y-95170000D01*
X188132500Y-95170000D01*
X188132500Y-96319999D01*
X187632499Y-96319999D01*
X187632500Y-96319998D01*
X187632500Y-95170000D01*
X186720001Y-95170000D01*
X186720001Y-95619986D01*
X185920500Y-95619986D01*
X185920499Y-95406997D01*
X185926568Y-95368678D01*
X185932889Y-95349224D01*
X185977209Y-95212826D01*
X185999121Y-95074479D01*
X186008000Y-95018422D01*
X186008000Y-94821577D01*
X185977209Y-94627177D01*
X185977209Y-94627176D01*
X185977209Y-94627174D01*
X185926568Y-94471318D01*
X185920499Y-94433000D01*
X185920499Y-94220013D01*
X186720000Y-94220013D01*
X186720000Y-94670000D01*
X187632500Y-94670000D01*
X188132500Y-94670000D01*
X189044999Y-94670000D01*
X189044999Y-94220028D01*
X189044998Y-94220013D01*
X189034505Y-94117302D01*
X188979358Y-93950880D01*
X188979356Y-93950875D01*
X188887315Y-93801654D01*
X188763345Y-93677684D01*
X188614124Y-93585643D01*
X188614119Y-93585641D01*
X188447697Y-93530494D01*
X188447690Y-93530493D01*
X188344986Y-93520000D01*
X188132500Y-93520000D01*
X188132500Y-94670000D01*
X187632500Y-94670000D01*
X187632500Y-93520000D01*
X187420029Y-93520000D01*
X187420012Y-93520001D01*
X187317302Y-93530494D01*
X187150880Y-93585641D01*
X187150875Y-93585643D01*
X187001654Y-93677684D01*
X186877684Y-93801654D01*
X186785643Y-93950875D01*
X186785641Y-93950880D01*
X186730494Y-94117302D01*
X186730493Y-94117309D01*
X186720000Y-94220013D01*
X185920499Y-94220013D01*
X185920499Y-94219998D01*
X185920498Y-94219981D01*
X185909999Y-94117203D01*
X185909998Y-94117200D01*
X185906072Y-94105351D01*
X185854814Y-93950666D01*
X185762712Y-93801344D01*
X185638656Y-93677288D01*
X185489334Y-93585186D01*
X185322797Y-93530001D01*
X185322795Y-93530000D01*
X185220010Y-93519500D01*
X184294998Y-93519500D01*
X184294980Y-93519501D01*
X184192203Y-93530000D01*
X184192200Y-93530001D01*
X184025668Y-93585185D01*
X184025659Y-93585189D01*
X183918900Y-93651039D01*
X183853804Y-93669500D01*
X182541578Y-93669500D01*
X182347173Y-93700290D01*
X182159970Y-93761117D01*
X181984594Y-93850476D01*
X181893741Y-93916485D01*
X181825354Y-93966172D01*
X181825352Y-93966174D01*
X181825351Y-93966174D01*
X181686174Y-94105351D01*
X181686167Y-94105360D01*
X181640012Y-94168886D01*
X181584682Y-94211552D01*
X181539695Y-94220000D01*
X180550000Y-94220000D01*
X180050000Y-94220000D01*
X180050000Y-93720000D01*
X180550000Y-93720000D01*
X181674999Y-93720000D01*
X181674999Y-93520028D01*
X181674998Y-93520013D01*
X181664505Y-93417302D01*
X181609358Y-93250880D01*
X181609356Y-93250875D01*
X181517315Y-93101654D01*
X181393345Y-92977684D01*
X181244124Y-92885643D01*
X181244119Y-92885641D01*
X181077697Y-92830494D01*
X181077690Y-92830493D01*
X180974986Y-92820000D01*
X180550000Y-92820000D01*
X180550000Y-93720000D01*
X180050000Y-93720000D01*
X180050000Y-92820000D01*
X179625028Y-92820000D01*
X179625012Y-92820001D01*
X179522302Y-92830494D01*
X179355880Y-92885641D01*
X179355875Y-92885643D01*
X179206654Y-92977684D01*
X179082684Y-93101654D01*
X179081762Y-93102821D01*
X179080926Y-93103412D01*
X179077576Y-93106763D01*
X179077003Y-93106190D01*
X179024737Y-93143194D01*
X178954938Y-93146329D01*
X178894524Y-93111229D01*
X178862677Y-93049040D01*
X178860500Y-93025904D01*
X178860500Y-92023908D01*
X178880185Y-91956869D01*
X178932989Y-91911114D01*
X179002147Y-91901170D01*
X179008795Y-91902312D01*
X179474476Y-91995509D01*
X179474489Y-91995511D01*
X179476467Y-91995907D01*
X179476426Y-91996110D01*
X179491653Y-91999876D01*
X179521628Y-92009808D01*
X179522203Y-92009999D01*
X179624991Y-92020500D01*
X180975008Y-92020499D01*
X181077797Y-92009999D01*
X181244334Y-91954814D01*
X181266338Y-91941241D01*
X181333729Y-91922800D01*
X181400393Y-91943721D01*
X181441921Y-91990484D01*
X181457215Y-92020500D01*
X181500476Y-92105405D01*
X181616172Y-92264646D01*
X181755354Y-92403828D01*
X181914595Y-92519524D01*
X181932518Y-92528656D01*
X182089970Y-92608882D01*
X182089972Y-92608882D01*
X182089975Y-92608884D01*
X182190317Y-92641487D01*
X182277173Y-92669709D01*
X182471578Y-92700500D01*
X182471583Y-92700500D01*
X183931155Y-92700500D01*
X183996251Y-92718961D01*
X184038159Y-92744810D01*
X184038160Y-92744810D01*
X184038166Y-92744814D01*
X184204703Y-92799999D01*
X184307491Y-92810500D01*
X185232508Y-92810499D01*
X185232516Y-92810498D01*
X185232519Y-92810498D01*
X185288802Y-92804748D01*
X185335297Y-92799999D01*
X185501834Y-92744814D01*
X185651156Y-92652712D01*
X185775212Y-92528656D01*
X185867314Y-92379334D01*
X185922499Y-92212797D01*
X185933000Y-92110009D01*
X185933000Y-92109986D01*
X186732501Y-92109986D01*
X186742994Y-92212697D01*
X186798141Y-92379119D01*
X186798143Y-92379124D01*
X186890184Y-92528345D01*
X187014154Y-92652315D01*
X187163375Y-92744356D01*
X187163380Y-92744358D01*
X187329802Y-92799505D01*
X187329809Y-92799506D01*
X187432519Y-92809999D01*
X187644999Y-92809999D01*
X188145000Y-92809999D01*
X188357472Y-92809999D01*
X188357486Y-92809998D01*
X188460197Y-92799505D01*
X188626619Y-92744358D01*
X188626624Y-92744356D01*
X188775845Y-92652315D01*
X188899815Y-92528345D01*
X188991856Y-92379124D01*
X188991858Y-92379119D01*
X189047005Y-92212697D01*
X189047006Y-92212690D01*
X189057499Y-92109986D01*
X189057500Y-92109973D01*
X189057500Y-91660000D01*
X188145000Y-91660000D01*
X188145000Y-92809999D01*
X187644999Y-92809999D01*
X187645000Y-92809998D01*
X187645000Y-91660000D01*
X186732501Y-91660000D01*
X186732501Y-92109986D01*
X185933000Y-92109986D01*
X185932999Y-91813889D01*
X185939068Y-91775572D01*
X185949709Y-91742826D01*
X185969099Y-91620403D01*
X185980500Y-91548422D01*
X185980500Y-91351577D01*
X185959972Y-91221977D01*
X185949709Y-91157174D01*
X185946059Y-91145941D01*
X185939068Y-91124423D01*
X185932999Y-91086106D01*
X185932999Y-90710013D01*
X186732500Y-90710013D01*
X186732500Y-91160000D01*
X187645000Y-91160000D01*
X188145000Y-91160000D01*
X189057499Y-91160000D01*
X189057499Y-90710028D01*
X189057498Y-90710013D01*
X189047005Y-90607302D01*
X188991858Y-90440880D01*
X188991856Y-90440875D01*
X188899815Y-90291654D01*
X188775845Y-90167684D01*
X188626624Y-90075643D01*
X188626619Y-90075641D01*
X188460197Y-90020494D01*
X188460190Y-90020493D01*
X188357486Y-90010000D01*
X188145000Y-90010000D01*
X188145000Y-91160000D01*
X187645000Y-91160000D01*
X187645000Y-90010000D01*
X187432529Y-90010000D01*
X187432512Y-90010001D01*
X187329802Y-90020494D01*
X187163380Y-90075641D01*
X187163375Y-90075643D01*
X187014154Y-90167684D01*
X186890184Y-90291654D01*
X186798143Y-90440875D01*
X186798141Y-90440880D01*
X186742994Y-90607302D01*
X186742993Y-90607309D01*
X186732500Y-90710013D01*
X185932999Y-90710013D01*
X185932999Y-90709998D01*
X185932998Y-90709981D01*
X185922499Y-90607203D01*
X185922498Y-90607200D01*
X185912168Y-90576026D01*
X185867314Y-90440666D01*
X185775212Y-90291344D01*
X185651156Y-90167288D01*
X185501834Y-90075186D01*
X185335297Y-90020001D01*
X185335295Y-90020000D01*
X185232510Y-90009500D01*
X184307498Y-90009500D01*
X184307480Y-90009501D01*
X184204703Y-90020000D01*
X184204700Y-90020001D01*
X184038168Y-90075185D01*
X184038163Y-90075187D01*
X183888841Y-90167290D01*
X183883181Y-90171766D01*
X183881386Y-90169495D01*
X183831628Y-90196666D01*
X183805270Y-90199500D01*
X182471578Y-90199500D01*
X182277173Y-90230290D01*
X182089970Y-90291117D01*
X181914595Y-90380475D01*
X181862603Y-90418250D01*
X181796796Y-90441729D01*
X181728742Y-90425903D01*
X181680048Y-90375797D01*
X181666360Y-90330529D01*
X181664999Y-90317204D01*
X181664998Y-90317200D01*
X181656355Y-90291117D01*
X181609814Y-90150666D01*
X181517712Y-90001344D01*
X181393656Y-89877288D01*
X181244334Y-89785186D01*
X181077797Y-89730001D01*
X181077795Y-89730000D01*
X180975010Y-89719500D01*
X179624988Y-89719500D01*
X179621841Y-89719661D01*
X179621832Y-89719484D01*
X179614073Y-89719836D01*
X179607634Y-89719770D01*
X179602324Y-89719716D01*
X179602323Y-89719716D01*
X179602317Y-89719716D01*
X179536851Y-89728444D01*
X179533077Y-89728889D01*
X179522199Y-89730001D01*
X179522009Y-89730042D01*
X179512464Y-89731696D01*
X179000888Y-89799906D01*
X178931835Y-89789255D01*
X178879503Y-89742961D01*
X178860500Y-89676994D01*
X178860500Y-89031008D01*
X178863793Y-89002622D01*
X178864479Y-88999707D01*
X178903388Y-88559619D01*
X178928899Y-88494576D01*
X178983573Y-88454360D01*
X179092326Y-88413798D01*
X179092326Y-88413797D01*
X179092331Y-88413796D01*
X179207546Y-88327546D01*
X179293796Y-88212331D01*
X179344091Y-88077483D01*
X179350273Y-88019986D01*
X202207501Y-88019986D01*
X202217994Y-88122697D01*
X202273141Y-88289119D01*
X202273143Y-88289124D01*
X202365184Y-88438345D01*
X202489154Y-88562315D01*
X202638375Y-88654356D01*
X202638380Y-88654358D01*
X202804802Y-88709505D01*
X202804809Y-88709506D01*
X202907519Y-88719999D01*
X204307499Y-88719999D01*
X204807500Y-88719999D01*
X206207472Y-88719999D01*
X206207486Y-88719998D01*
X206310197Y-88709505D01*
X206476619Y-88654358D01*
X206476624Y-88654356D01*
X206625845Y-88562315D01*
X206749815Y-88438345D01*
X206841856Y-88289124D01*
X206841858Y-88289119D01*
X206897005Y-88122697D01*
X206897006Y-88122690D01*
X206907499Y-88019986D01*
X206907500Y-88019973D01*
X206907500Y-87795000D01*
X204807500Y-87795000D01*
X204807500Y-88719999D01*
X204307499Y-88719999D01*
X204307500Y-88719998D01*
X204307500Y-87795000D01*
X202207501Y-87795000D01*
X202207501Y-88019986D01*
X179350273Y-88019986D01*
X179350500Y-88017873D01*
X179350499Y-86251512D01*
X179370184Y-86184475D01*
X179422987Y-86138720D01*
X179492146Y-86128776D01*
X179548808Y-86152246D01*
X179591860Y-86184475D01*
X179617668Y-86203795D01*
X179617671Y-86203797D01*
X179752517Y-86254091D01*
X179752516Y-86254091D01*
X179759444Y-86254835D01*
X179812127Y-86260500D01*
X185407872Y-86260499D01*
X185467483Y-86254091D01*
X185602331Y-86203796D01*
X185717546Y-86117546D01*
X185803796Y-86002331D01*
X185854091Y-85867483D01*
X185860500Y-85807873D01*
X185860499Y-83562128D01*
X185854091Y-83502517D01*
X185839802Y-83464207D01*
X185803797Y-83367671D01*
X185803793Y-83367664D01*
X185717547Y-83252455D01*
X185717544Y-83252452D01*
X185602335Y-83166206D01*
X185602328Y-83166202D01*
X185466875Y-83115682D01*
X185410941Y-83073811D01*
X185386524Y-83008347D01*
X185401375Y-82940074D01*
X185450780Y-82890668D01*
X185510208Y-82875500D01*
X189209792Y-82875500D01*
X189276831Y-82895185D01*
X189322586Y-82947989D01*
X189332530Y-83017147D01*
X189303505Y-83080703D01*
X189253125Y-83115682D01*
X189117671Y-83166202D01*
X189117664Y-83166206D01*
X189002455Y-83252452D01*
X189002452Y-83252455D01*
X188916206Y-83367664D01*
X188916202Y-83367671D01*
X188865908Y-83502517D01*
X188859501Y-83562116D01*
X188859501Y-83562123D01*
X188859500Y-83562135D01*
X188859500Y-85807870D01*
X188859501Y-85807876D01*
X188865908Y-85867483D01*
X188916202Y-86002328D01*
X188916206Y-86002335D01*
X189002452Y-86117544D01*
X189002455Y-86117547D01*
X189117664Y-86203793D01*
X189117671Y-86203797D01*
X189252517Y-86254091D01*
X189252516Y-86254091D01*
X189259444Y-86254835D01*
X189312127Y-86260500D01*
X191816434Y-86260499D01*
X191835832Y-86262026D01*
X191903842Y-86272797D01*
X191984038Y-86285500D01*
X191984039Y-86285500D01*
X196265961Y-86285500D01*
X196265962Y-86285500D01*
X196514785Y-86246090D01*
X196754379Y-86168241D01*
X196874925Y-86106818D01*
X196892211Y-86099599D01*
X196936834Y-86084814D01*
X197086156Y-85992712D01*
X197140725Y-85938141D01*
X197155507Y-85925517D01*
X197182656Y-85905793D01*
X197360793Y-85727656D01*
X197508870Y-85523845D01*
X197610921Y-85323557D01*
X197658895Y-85272762D01*
X197726716Y-85255967D01*
X197792851Y-85278504D01*
X197836303Y-85333219D01*
X197839332Y-85341522D01*
X197846759Y-85364379D01*
X197953391Y-85573657D01*
X197961132Y-85588848D01*
X198109201Y-85792649D01*
X198109205Y-85792654D01*
X198287345Y-85970794D01*
X198287350Y-85970798D01*
X198444281Y-86084814D01*
X198491155Y-86118870D01*
X198619912Y-86184475D01*
X198715616Y-86233239D01*
X198715618Y-86233239D01*
X198715621Y-86233241D01*
X198955215Y-86311090D01*
X199204038Y-86350500D01*
X199204039Y-86350500D01*
X202366977Y-86350500D01*
X202434016Y-86370185D01*
X202479771Y-86422989D01*
X202489715Y-86492147D01*
X202460690Y-86555703D01*
X202454658Y-86562181D01*
X202365184Y-86651654D01*
X202273143Y-86800875D01*
X202273141Y-86800880D01*
X202217994Y-86967302D01*
X202217993Y-86967309D01*
X202207500Y-87070013D01*
X202207500Y-87295000D01*
X206907499Y-87295000D01*
X206907499Y-87070028D01*
X206907498Y-87070013D01*
X206897005Y-86967302D01*
X206841858Y-86800880D01*
X206841856Y-86800875D01*
X206749815Y-86651654D01*
X206625845Y-86527684D01*
X206476624Y-86435643D01*
X206476619Y-86435641D01*
X206310197Y-86380494D01*
X206310190Y-86380493D01*
X206207486Y-86370000D01*
X205839971Y-86370000D01*
X205772932Y-86350315D01*
X205727177Y-86297511D01*
X205717233Y-86228353D01*
X205746258Y-86164797D01*
X205783677Y-86135515D01*
X205796903Y-86128776D01*
X205816345Y-86118870D01*
X206020156Y-85970793D01*
X206099130Y-85891817D01*
X206160453Y-85858333D01*
X206186812Y-85855499D01*
X206207502Y-85855499D01*
X206207508Y-85855499D01*
X206310297Y-85844999D01*
X206476834Y-85789814D01*
X206626156Y-85697712D01*
X206750212Y-85573656D01*
X206842314Y-85424334D01*
X206897499Y-85257797D01*
X206908000Y-85155009D01*
X206907999Y-84284992D01*
X206897499Y-84182203D01*
X206842314Y-84015666D01*
X206750212Y-83866344D01*
X206626156Y-83742288D01*
X206476834Y-83650186D01*
X206310297Y-83595001D01*
X206310295Y-83595000D01*
X206207516Y-83584500D01*
X206207509Y-83584500D01*
X206126811Y-83584500D01*
X206059772Y-83564815D01*
X206039130Y-83548181D01*
X206020154Y-83529205D01*
X206020149Y-83529201D01*
X205816348Y-83381132D01*
X205816347Y-83381131D01*
X205816345Y-83381130D01*
X205665917Y-83304483D01*
X205615122Y-83256510D01*
X205598327Y-83188689D01*
X205620864Y-83122554D01*
X205675579Y-83079102D01*
X205722213Y-83069999D01*
X206207471Y-83069999D01*
X206207487Y-83069998D01*
X206310197Y-83059505D01*
X206476619Y-83004358D01*
X206476624Y-83004356D01*
X206625845Y-82912315D01*
X206749815Y-82788345D01*
X206841856Y-82639124D01*
X206841858Y-82639119D01*
X206897005Y-82472697D01*
X206897006Y-82472690D01*
X206907499Y-82369986D01*
X206907500Y-82369973D01*
X206907500Y-82145000D01*
X202207501Y-82145000D01*
X202207501Y-82369986D01*
X202217994Y-82472697D01*
X202273141Y-82639119D01*
X202273143Y-82639124D01*
X202365184Y-82788345D01*
X202489156Y-82912317D01*
X202501549Y-82919961D01*
X202548274Y-82971908D01*
X202559497Y-83040871D01*
X202531654Y-83104953D01*
X202473585Y-83143810D01*
X202436453Y-83149500D01*
X199204038Y-83149500D01*
X199098587Y-83166202D01*
X198955214Y-83188910D01*
X198715616Y-83266760D01*
X198491151Y-83381132D01*
X198287350Y-83529201D01*
X198287345Y-83529205D01*
X198109205Y-83707345D01*
X198109201Y-83707350D01*
X197961132Y-83911151D01*
X197859079Y-84111441D01*
X197811104Y-84162237D01*
X197743283Y-84179032D01*
X197677148Y-84156495D01*
X197633697Y-84101779D01*
X197630663Y-84093465D01*
X197623239Y-84070616D01*
X197541987Y-83911151D01*
X197508870Y-83846155D01*
X197433407Y-83742289D01*
X197360798Y-83642350D01*
X197360794Y-83642345D01*
X197182654Y-83464205D01*
X197182649Y-83464201D01*
X196978848Y-83316132D01*
X196978847Y-83316131D01*
X196978845Y-83316130D01*
X196881570Y-83266566D01*
X196754383Y-83201760D01*
X196514785Y-83123910D01*
X196423811Y-83109501D01*
X196265962Y-83084500D01*
X192341955Y-83084500D01*
X192274916Y-83064815D01*
X192229161Y-83012011D01*
X192219217Y-82942853D01*
X192248242Y-82879297D01*
X192307020Y-82841523D01*
X192322557Y-82838027D01*
X192327190Y-82837292D01*
X192334785Y-82836090D01*
X192334798Y-82836085D01*
X192339528Y-82834951D01*
X192339674Y-82835562D01*
X192371633Y-82830499D01*
X194907871Y-82830499D01*
X194907872Y-82830499D01*
X194967483Y-82824091D01*
X195102331Y-82773796D01*
X195217546Y-82687546D01*
X195303796Y-82572331D01*
X195354091Y-82437483D01*
X195360500Y-82377873D01*
X195360500Y-81420013D01*
X202207500Y-81420013D01*
X202207500Y-81645000D01*
X204307500Y-81645000D01*
X204807500Y-81645000D01*
X206907499Y-81645000D01*
X206907499Y-81420028D01*
X206907498Y-81420013D01*
X206897005Y-81317302D01*
X206841858Y-81150880D01*
X206841856Y-81150875D01*
X206749815Y-81001654D01*
X206625845Y-80877684D01*
X206476624Y-80785643D01*
X206476619Y-80785641D01*
X206310197Y-80730494D01*
X206310190Y-80730493D01*
X206207486Y-80720000D01*
X204807500Y-80720000D01*
X204807500Y-81645000D01*
X204307500Y-81645000D01*
X204307500Y-80720000D01*
X202907528Y-80720000D01*
X202907512Y-80720001D01*
X202804802Y-80730494D01*
X202638380Y-80785641D01*
X202638375Y-80785643D01*
X202489154Y-80877684D01*
X202365184Y-81001654D01*
X202273143Y-81150875D01*
X202273141Y-81150880D01*
X202217994Y-81317302D01*
X202217993Y-81317309D01*
X202207500Y-81420013D01*
X195360500Y-81420013D01*
X195360499Y-80132128D01*
X195354091Y-80072517D01*
X195308798Y-79951081D01*
X195303797Y-79937671D01*
X195303793Y-79937664D01*
X195217547Y-79822455D01*
X195217544Y-79822452D01*
X195102335Y-79736206D01*
X195102328Y-79736202D01*
X194967482Y-79685908D01*
X194967483Y-79685908D01*
X194907883Y-79679501D01*
X194907881Y-79679500D01*
X194907873Y-79679500D01*
X194907865Y-79679500D01*
X192127294Y-79679500D01*
X192107898Y-79677974D01*
X192085962Y-79674500D01*
X182622289Y-79674500D01*
X182602891Y-79672973D01*
X182592420Y-79671314D01*
X182580964Y-79669500D01*
X182580962Y-79669500D01*
X178334993Y-79669500D01*
X178287540Y-79660061D01*
X178163896Y-79608845D01*
X178163889Y-79608843D01*
X178163887Y-79608842D01*
X177942238Y-79549452D01*
X177904215Y-79544446D01*
X177714741Y-79519500D01*
X177714734Y-79519500D01*
X175485266Y-79519500D01*
X175485258Y-79519500D01*
X175268715Y-79548009D01*
X175257762Y-79549452D01*
X175164076Y-79574554D01*
X175036112Y-79608842D01*
X174824123Y-79696650D01*
X174824109Y-79696657D01*
X174625382Y-79811392D01*
X174443338Y-79951081D01*
X174281081Y-80113338D01*
X174141392Y-80295382D01*
X174026657Y-80494109D01*
X174026650Y-80494123D01*
X173938842Y-80706112D01*
X173879453Y-80927759D01*
X173879451Y-80927770D01*
X173849500Y-81155258D01*
X173849500Y-81384741D01*
X173874012Y-81570920D01*
X173879452Y-81612238D01*
X173938842Y-81833887D01*
X174026650Y-82045876D01*
X174026657Y-82045890D01*
X174141392Y-82244617D01*
X174281081Y-82426661D01*
X174281089Y-82426670D01*
X174443330Y-82588911D01*
X174443338Y-82588918D01*
X174625382Y-82728607D01*
X174625385Y-82728608D01*
X174625388Y-82728611D01*
X174824112Y-82843344D01*
X174824117Y-82843346D01*
X174824123Y-82843349D01*
X174889672Y-82870500D01*
X175036113Y-82931158D01*
X175257762Y-82990548D01*
X175485266Y-83020500D01*
X175485273Y-83020500D01*
X177714727Y-83020500D01*
X177714734Y-83020500D01*
X177942238Y-82990548D01*
X178163887Y-82931158D01*
X178287540Y-82879938D01*
X178334993Y-82870500D01*
X179727099Y-82870500D01*
X179794138Y-82890185D01*
X179839893Y-82942989D01*
X179849837Y-83012147D01*
X179820812Y-83075703D01*
X179762034Y-83113477D01*
X179755616Y-83115176D01*
X179752520Y-83115907D01*
X179617671Y-83166202D01*
X179617664Y-83166206D01*
X179502455Y-83252452D01*
X179502452Y-83252455D01*
X179416206Y-83367664D01*
X179416202Y-83367671D01*
X179365908Y-83502517D01*
X179359501Y-83562116D01*
X179359501Y-83562123D01*
X179359500Y-83562135D01*
X179359500Y-84978485D01*
X179339815Y-85045524D01*
X179287011Y-85091279D01*
X179217853Y-85101223D01*
X179161189Y-85077751D01*
X179092331Y-85026204D01*
X179092328Y-85026202D01*
X178957482Y-84975908D01*
X178957483Y-84975908D01*
X178897883Y-84969501D01*
X178897881Y-84969500D01*
X178897873Y-84969500D01*
X178897864Y-84969500D01*
X174302129Y-84969500D01*
X174302123Y-84969501D01*
X174242516Y-84975908D01*
X174107671Y-85026202D01*
X174107664Y-85026206D01*
X173992455Y-85112452D01*
X173992452Y-85112455D01*
X173906206Y-85227664D01*
X173906202Y-85227671D01*
X173855908Y-85362517D01*
X173849501Y-85422116D01*
X173849500Y-85422135D01*
X173849500Y-88017870D01*
X173849501Y-88017876D01*
X173855908Y-88077483D01*
X173906202Y-88212328D01*
X173906206Y-88212335D01*
X173992452Y-88327544D01*
X173992455Y-88327547D01*
X174107664Y-88413793D01*
X174107671Y-88413797D01*
X174242517Y-88464091D01*
X174242516Y-88464091D01*
X174249444Y-88464835D01*
X174302127Y-88470500D01*
X175922518Y-88470499D01*
X175989557Y-88490184D01*
X176001512Y-88498917D01*
X176814494Y-89170814D01*
X176853630Y-89228695D01*
X176859500Y-89266396D01*
X176859500Y-95781045D01*
X176879154Y-95879852D01*
X176872927Y-95949443D01*
X176830064Y-96004621D01*
X176764174Y-96027865D01*
X176696177Y-96011797D01*
X176651421Y-95968194D01*
X176633236Y-95938112D01*
X176633234Y-95938110D01*
X176633233Y-95938108D01*
X176519392Y-95824267D01*
X176519388Y-95824264D01*
X176375349Y-95737188D01*
X176328162Y-95685660D01*
X176315500Y-95631072D01*
X176315500Y-95369723D01*
X176317206Y-95349224D01*
X176331832Y-95261966D01*
X176416309Y-94757977D01*
X176433066Y-94713379D01*
X176444814Y-94694334D01*
X176499999Y-94527797D01*
X176510500Y-94425009D01*
X176510499Y-93499992D01*
X176499999Y-93397203D01*
X176444814Y-93230666D01*
X176352712Y-93081344D01*
X176228656Y-92957288D01*
X176079334Y-92865186D01*
X175912797Y-92810001D01*
X175912795Y-92810000D01*
X175810016Y-92799500D01*
X175810009Y-92799500D01*
X175766836Y-92799500D01*
X175699797Y-92779815D01*
X175679155Y-92763181D01*
X175022147Y-92106173D01*
X175000806Y-92090668D01*
X174911114Y-92025502D01*
X174891449Y-91999999D01*
X175360000Y-91999999D01*
X175809972Y-91999999D01*
X175809986Y-91999998D01*
X175912697Y-91989505D01*
X176079119Y-91934358D01*
X176079124Y-91934356D01*
X176228345Y-91842315D01*
X176352315Y-91718345D01*
X176444356Y-91569124D01*
X176444358Y-91569119D01*
X176499505Y-91402697D01*
X176499506Y-91402690D01*
X176509999Y-91299986D01*
X176510000Y-91299973D01*
X176510000Y-91087500D01*
X175360000Y-91087500D01*
X175360000Y-91999999D01*
X174891449Y-91999999D01*
X174868449Y-91970171D01*
X174860000Y-91925184D01*
X174860000Y-91087500D01*
X173710001Y-91087500D01*
X173710001Y-91299986D01*
X173720494Y-91402697D01*
X173775641Y-91569119D01*
X173775643Y-91569124D01*
X173807273Y-91620403D01*
X173825713Y-91687795D01*
X173804791Y-91754459D01*
X173751149Y-91799229D01*
X173701734Y-91809500D01*
X171517924Y-91809500D01*
X171499628Y-91807654D01*
X171499585Y-91807989D01*
X170449545Y-91671027D01*
X170444701Y-91670195D01*
X170439304Y-91669644D01*
X170435877Y-91669245D01*
X170423785Y-91667668D01*
X170360725Y-91659442D01*
X170352506Y-91658529D01*
X170341496Y-91657307D01*
X170340624Y-91657227D01*
X170340610Y-91657226D01*
X170268946Y-91655885D01*
X170267129Y-91655851D01*
X170267128Y-91655851D01*
X170263766Y-91656521D01*
X170260840Y-91657105D01*
X170236587Y-91659500D01*
X168239998Y-91659500D01*
X168239981Y-91659501D01*
X168137203Y-91670000D01*
X168137200Y-91670001D01*
X167970668Y-91725185D01*
X167970663Y-91725187D01*
X167821342Y-91817289D01*
X167697289Y-91941342D01*
X167605187Y-92090663D01*
X167605186Y-92090666D01*
X167550001Y-92257203D01*
X167550001Y-92257204D01*
X167550000Y-92257204D01*
X167539500Y-92359983D01*
X167539500Y-93760001D01*
X167539501Y-93760018D01*
X167550000Y-93862796D01*
X167550001Y-93862799D01*
X167579187Y-93950875D01*
X167605186Y-94029334D01*
X167697288Y-94178656D01*
X167821344Y-94302712D01*
X167970666Y-94394814D01*
X168137203Y-94449999D01*
X168239991Y-94460500D01*
X168266371Y-94460499D01*
X168333409Y-94480181D01*
X168374931Y-94524573D01*
X168619553Y-94967712D01*
X168621558Y-94971343D01*
X168637000Y-95031269D01*
X168637000Y-96418422D01*
X168667790Y-96612826D01*
X168718431Y-96768680D01*
X168724500Y-96806997D01*
X168724500Y-97020000D01*
X168724502Y-97020024D01*
X168726328Y-97037901D01*
X168713557Y-97106593D01*
X168665675Y-97157477D01*
X168602970Y-97174500D01*
X166664500Y-97174500D01*
X166597461Y-97154815D01*
X166551706Y-97102011D01*
X166540500Y-97050500D01*
X166540500Y-94942099D01*
X166542187Y-94921714D01*
X166623109Y-94436177D01*
X166653546Y-94373289D01*
X166680326Y-94351026D01*
X166758651Y-94302715D01*
X166758654Y-94302713D01*
X166758653Y-94302713D01*
X166758656Y-94302712D01*
X166882712Y-94178656D01*
X166974814Y-94029334D01*
X167029999Y-93862797D01*
X167040500Y-93760009D01*
X167040499Y-92359992D01*
X167029999Y-92257203D01*
X166974814Y-92090666D01*
X166882712Y-91941344D01*
X166758656Y-91817288D01*
X166637933Y-91742826D01*
X166609336Y-91725187D01*
X166609331Y-91725185D01*
X166588689Y-91718345D01*
X166442797Y-91670001D01*
X166442795Y-91670000D01*
X166340010Y-91659500D01*
X164239998Y-91659500D01*
X164239981Y-91659501D01*
X164137203Y-91670000D01*
X164137200Y-91670001D01*
X163970668Y-91725185D01*
X163970663Y-91725187D01*
X163821342Y-91817289D01*
X163697289Y-91941342D01*
X163605187Y-92090663D01*
X163605186Y-92090666D01*
X163550001Y-92257203D01*
X163550001Y-92257204D01*
X163550000Y-92257204D01*
X163539500Y-92359983D01*
X163539500Y-93760001D01*
X163539501Y-93760018D01*
X163550000Y-93862796D01*
X163550001Y-93862799D01*
X163579187Y-93950875D01*
X163605186Y-94029334D01*
X163697288Y-94178656D01*
X163821344Y-94302712D01*
X163899672Y-94351025D01*
X163946397Y-94402972D01*
X163956889Y-94436177D01*
X164037813Y-94921716D01*
X164039500Y-94942102D01*
X164039500Y-97250500D01*
X164019815Y-97317539D01*
X163967011Y-97363294D01*
X163915500Y-97374500D01*
X163124998Y-97374500D01*
X163124980Y-97374501D01*
X163022203Y-97385000D01*
X163022200Y-97385001D01*
X162855668Y-97440185D01*
X162855663Y-97440187D01*
X162706342Y-97532289D01*
X162582289Y-97656342D01*
X162490187Y-97805663D01*
X162490186Y-97805666D01*
X162435001Y-97972203D01*
X162435001Y-97972204D01*
X162435000Y-97972204D01*
X162424500Y-98074983D01*
X162424500Y-98775001D01*
X162424501Y-98775019D01*
X162435000Y-98877796D01*
X162435001Y-98877799D01*
X162471048Y-98986580D01*
X162490186Y-99044334D01*
X162582288Y-99193656D01*
X162706344Y-99317712D01*
X162855666Y-99409814D01*
X163022203Y-99464999D01*
X163124991Y-99475500D01*
X164503577Y-99475499D01*
X164564994Y-99492820D01*
X164565254Y-99492312D01*
X164567810Y-99493614D01*
X164568365Y-99493771D01*
X164569586Y-99494519D01*
X164569593Y-99494522D01*
X164569595Y-99494524D01*
X164645120Y-99533006D01*
X164744969Y-99583882D01*
X164744971Y-99583882D01*
X164744974Y-99583884D01*
X164802921Y-99602712D01*
X164932173Y-99644709D01*
X165126578Y-99675500D01*
X165126583Y-99675500D01*
X165323417Y-99675500D01*
X169304187Y-99675500D01*
X169363814Y-99692410D01*
X169364118Y-99691760D01*
X169368150Y-99693640D01*
X169369284Y-99693961D01*
X169370666Y-99694814D01*
X169537203Y-99749999D01*
X169639991Y-99760500D01*
X169852999Y-99760499D01*
X169891318Y-99766568D01*
X169935874Y-99781045D01*
X170047174Y-99817209D01*
X170120077Y-99828755D01*
X170241579Y-99848000D01*
X170241584Y-99848000D01*
X170438422Y-99848000D01*
X170546422Y-99830893D01*
X170632826Y-99817209D01*
X170788682Y-99766568D01*
X170827000Y-99760499D01*
X171040002Y-99760499D01*
X171040008Y-99760499D01*
X171142797Y-99749999D01*
X171309334Y-99694814D01*
X171458656Y-99602712D01*
X171582712Y-99478656D01*
X171674814Y-99329334D01*
X171729999Y-99162797D01*
X171740500Y-99060009D01*
X171740499Y-98134992D01*
X171729999Y-98032203D01*
X171674814Y-97865666D01*
X171582712Y-97716344D01*
X171458656Y-97592288D01*
X171361380Y-97532288D01*
X171309336Y-97500187D01*
X171309331Y-97500185D01*
X171307862Y-97499698D01*
X171142797Y-97445001D01*
X171142795Y-97445000D01*
X171093792Y-97439994D01*
X171029101Y-97413597D01*
X170988950Y-97356416D01*
X170986088Y-97286605D01*
X170988676Y-97277679D01*
X171039999Y-97122797D01*
X171050500Y-97020009D01*
X171050500Y-97019986D01*
X171850001Y-97019986D01*
X171860494Y-97122697D01*
X171915641Y-97289119D01*
X171915643Y-97289124D01*
X172007684Y-97438345D01*
X172131654Y-97562315D01*
X172280875Y-97654356D01*
X172280880Y-97654358D01*
X172447302Y-97709505D01*
X172447309Y-97709506D01*
X172550019Y-97719999D01*
X172762499Y-97719999D01*
X172762500Y-97719998D01*
X172762500Y-96570000D01*
X171850001Y-96570000D01*
X171850001Y-97019986D01*
X171050500Y-97019986D01*
X171050499Y-96806997D01*
X171056568Y-96768678D01*
X171069591Y-96728598D01*
X171107209Y-96612826D01*
X171124004Y-96506784D01*
X171138000Y-96418422D01*
X171138000Y-95620013D01*
X171850000Y-95620013D01*
X171850000Y-96070000D01*
X172762500Y-96070000D01*
X172762500Y-94920000D01*
X172550029Y-94920000D01*
X172550012Y-94920001D01*
X172447302Y-94930494D01*
X172280880Y-94985641D01*
X172280875Y-94985643D01*
X172131654Y-95077684D01*
X172007684Y-95201654D01*
X171915643Y-95350875D01*
X171915641Y-95350880D01*
X171860494Y-95517302D01*
X171860493Y-95517309D01*
X171850000Y-95620013D01*
X171138000Y-95620013D01*
X171138000Y-94468048D01*
X171157685Y-94401009D01*
X171210489Y-94355254D01*
X171245954Y-94345091D01*
X171495194Y-94312582D01*
X171499631Y-94311907D01*
X171518261Y-94310500D01*
X173585825Y-94310500D01*
X173652864Y-94330185D01*
X173698619Y-94382989D01*
X173709183Y-94421898D01*
X173720001Y-94527797D01*
X173720001Y-94527799D01*
X173775185Y-94694331D01*
X173775189Y-94694340D01*
X173830153Y-94783451D01*
X173848593Y-94850843D01*
X173827670Y-94917507D01*
X173774028Y-94962276D01*
X173704697Y-94970937D01*
X173685611Y-94966253D01*
X173577700Y-94930495D01*
X173577690Y-94930493D01*
X173474986Y-94920000D01*
X173262500Y-94920000D01*
X173262500Y-97719999D01*
X173474972Y-97719999D01*
X173474986Y-97719998D01*
X173577695Y-97709506D01*
X173627557Y-97692983D01*
X173697385Y-97690581D01*
X173757427Y-97726312D01*
X173784948Y-97773799D01*
X173824201Y-97899768D01*
X173825351Y-97969628D01*
X173824201Y-97973547D01*
X173805925Y-98032200D01*
X173775570Y-98129613D01*
X173772582Y-98162500D01*
X173769500Y-98196411D01*
X173769500Y-98628598D01*
X173775568Y-98695382D01*
X173775571Y-98695393D01*
X173823467Y-98849098D01*
X173823468Y-98849100D01*
X173823469Y-98849102D01*
X173840816Y-98877797D01*
X173906766Y-98986891D01*
X174020608Y-99100733D01*
X174020610Y-99100734D01*
X174020612Y-99100736D01*
X174158398Y-99184031D01*
X174312113Y-99231930D01*
X174378909Y-99238000D01*
X174570500Y-99237999D01*
X174637539Y-99257683D01*
X174683294Y-99310487D01*
X174694500Y-99361999D01*
X174694500Y-104594671D01*
X174689097Y-104630877D01*
X174471795Y-105342678D01*
X174463389Y-105373720D01*
X174462434Y-105379056D01*
X174461912Y-105378962D01*
X174457894Y-105398289D01*
X174445001Y-105437199D01*
X174445001Y-105437201D01*
X174434500Y-105539983D01*
X174434500Y-108340001D01*
X174434501Y-108340018D01*
X174445000Y-108442796D01*
X174445001Y-108442799D01*
X174466906Y-108508902D01*
X174500186Y-108609334D01*
X174592288Y-108758656D01*
X174716344Y-108882712D01*
X174865666Y-108974814D01*
X175010462Y-109022794D01*
X175067906Y-109062567D01*
X175094729Y-109127082D01*
X175082414Y-109195858D01*
X175034871Y-109247058D01*
X174971457Y-109264500D01*
X173381956Y-109264500D01*
X173314917Y-109244815D01*
X173269162Y-109192011D01*
X173259218Y-109122853D01*
X173288243Y-109059297D01*
X173342952Y-109022794D01*
X173489119Y-108974358D01*
X173489124Y-108974356D01*
X173638345Y-108882315D01*
X173762315Y-108758345D01*
X173854356Y-108609124D01*
X173854358Y-108609119D01*
X173909505Y-108442697D01*
X173909506Y-108442690D01*
X173919999Y-108339986D01*
X173920000Y-108339973D01*
X173920000Y-106940000D01*
X171570001Y-106940000D01*
X171570001Y-108339986D01*
X171580494Y-108442697D01*
X171635641Y-108609119D01*
X171635643Y-108609124D01*
X171727684Y-108758345D01*
X171851654Y-108882315D01*
X172000875Y-108974356D01*
X172000880Y-108974358D01*
X172147050Y-109022794D01*
X172204495Y-109062566D01*
X172231318Y-109127082D01*
X172219003Y-109195858D01*
X172171460Y-109247058D01*
X172108046Y-109264500D01*
X143509976Y-109264500D01*
X143442937Y-109244815D01*
X143397182Y-109192011D01*
X143387238Y-109122853D01*
X143416263Y-109059297D01*
X143453681Y-109030015D01*
X143652543Y-108928689D01*
X143977771Y-108717484D01*
X143977784Y-108717474D01*
X144235348Y-108508902D01*
X143355442Y-107628996D01*
X143447328Y-107667056D01*
X143546784Y-107667056D01*
X143638670Y-107628996D01*
X143708996Y-107558670D01*
X143747056Y-107466784D01*
X143747056Y-107367328D01*
X143708996Y-107275442D01*
X144588902Y-108155348D01*
X144797474Y-107897784D01*
X144797484Y-107897771D01*
X145008689Y-107572543D01*
X145184755Y-107226994D01*
X145323737Y-106864936D01*
X145424112Y-106490330D01*
X145424113Y-106490323D01*
X145482636Y-106120826D01*
X149095001Y-106120826D01*
X149109902Y-106253094D01*
X149168586Y-106420803D01*
X149263117Y-106571247D01*
X149388752Y-106696882D01*
X149539196Y-106791413D01*
X149706904Y-106850096D01*
X149706909Y-106850097D01*
X149839166Y-106864998D01*
X149839170Y-106864999D01*
X152509999Y-106864999D01*
X153010000Y-106864999D01*
X154945000Y-106864999D01*
X155445000Y-106864999D01*
X158249999Y-106864999D01*
X158750000Y-106864999D01*
X160574972Y-106864999D01*
X160574986Y-106864998D01*
X160677697Y-106854505D01*
X160844119Y-106799358D01*
X160844124Y-106799356D01*
X160993345Y-106707315D01*
X161117315Y-106583345D01*
X161209356Y-106434124D01*
X161209358Y-106434119D01*
X161264505Y-106267697D01*
X161264506Y-106267690D01*
X161274999Y-106164986D01*
X161275000Y-106164973D01*
X161275000Y-105040013D01*
X171570000Y-105040013D01*
X171570000Y-106440000D01*
X172495000Y-106440000D01*
X172995000Y-106440000D01*
X173919999Y-106440000D01*
X173919999Y-105040028D01*
X173919998Y-105040013D01*
X173909505Y-104937302D01*
X173854358Y-104770880D01*
X173854356Y-104770875D01*
X173762315Y-104621654D01*
X173638345Y-104497684D01*
X173489124Y-104405643D01*
X173489119Y-104405641D01*
X173322697Y-104350494D01*
X173322690Y-104350493D01*
X173219986Y-104340000D01*
X172995000Y-104340000D01*
X172995000Y-106440000D01*
X172495000Y-106440000D01*
X172495000Y-104340000D01*
X172270029Y-104340000D01*
X172270012Y-104340001D01*
X172167302Y-104350494D01*
X172000880Y-104405641D01*
X172000875Y-104405643D01*
X171851654Y-104497684D01*
X171727684Y-104621654D01*
X171635643Y-104770875D01*
X171635641Y-104770880D01*
X171580494Y-104937302D01*
X171580493Y-104937309D01*
X171570000Y-105040013D01*
X161275000Y-105040013D01*
X161275000Y-103990000D01*
X158750000Y-103990000D01*
X158750000Y-106864999D01*
X158249999Y-106864999D01*
X158250000Y-106864998D01*
X158250000Y-103990000D01*
X155445000Y-103990000D01*
X155445000Y-106864999D01*
X154945000Y-106864999D01*
X154945000Y-103990000D01*
X153010000Y-103990000D01*
X153010000Y-106864999D01*
X152509999Y-106864999D01*
X152510000Y-106864998D01*
X152510000Y-103990000D01*
X149095001Y-103990000D01*
X149095001Y-106120826D01*
X145482636Y-106120826D01*
X145484780Y-106107287D01*
X145505078Y-105720000D01*
X145505078Y-105719999D01*
X145484780Y-105332712D01*
X145424113Y-104949676D01*
X145424112Y-104949669D01*
X145323737Y-104575063D01*
X145184755Y-104213005D01*
X145008689Y-103867456D01*
X144797476Y-103542216D01*
X144797475Y-103542214D01*
X144588902Y-103284650D01*
X143708997Y-104164555D01*
X143747056Y-104072672D01*
X143747056Y-103973216D01*
X143708996Y-103881330D01*
X143638670Y-103811004D01*
X143546784Y-103772944D01*
X143447328Y-103772944D01*
X143355442Y-103811004D01*
X143285116Y-103881330D01*
X143247056Y-103973216D01*
X143247056Y-104072672D01*
X143285116Y-104164558D01*
X143355442Y-104234884D01*
X143447328Y-104272944D01*
X143546784Y-104272944D01*
X143638667Y-104234885D01*
X143094251Y-104779301D01*
X143020412Y-104677670D01*
X142842330Y-104499588D01*
X142740698Y-104425748D01*
X144235349Y-102931096D01*
X143977785Y-102722525D01*
X143977783Y-102722523D01*
X143652543Y-102511310D01*
X143306994Y-102335244D01*
X142944936Y-102196262D01*
X142570330Y-102095887D01*
X142570323Y-102095886D01*
X142187287Y-102035219D01*
X141800001Y-102014922D01*
X141799999Y-102014922D01*
X141412712Y-102035219D01*
X141029676Y-102095886D01*
X141029669Y-102095887D01*
X140655063Y-102196262D01*
X140293005Y-102335244D01*
X139947456Y-102511310D01*
X139622206Y-102722531D01*
X139364649Y-102931095D01*
X139364649Y-102931096D01*
X140244556Y-103811003D01*
X140152672Y-103772944D01*
X140053216Y-103772944D01*
X139961330Y-103811004D01*
X139891004Y-103881330D01*
X139852944Y-103973216D01*
X139852944Y-104072672D01*
X139891003Y-104164556D01*
X139011096Y-103284649D01*
X139011095Y-103284649D01*
X138802531Y-103542206D01*
X138591310Y-103867456D01*
X138564985Y-103919122D01*
X138517010Y-103969918D01*
X138449189Y-103986713D01*
X138383054Y-103964175D01*
X138339603Y-103909460D01*
X138330500Y-103862827D01*
X138330500Y-101359174D01*
X149095000Y-101359174D01*
X149095000Y-103490000D01*
X152510000Y-103490000D01*
X152510000Y-101417693D01*
X153010000Y-101417693D01*
X153010000Y-103490000D01*
X154945000Y-103490000D01*
X155445000Y-103490000D01*
X158250000Y-103490000D01*
X158750000Y-103490000D01*
X161274999Y-103490000D01*
X161274999Y-103154983D01*
X162424500Y-103154983D01*
X162424500Y-103855001D01*
X162424501Y-103855019D01*
X162435000Y-103957796D01*
X162435001Y-103957799D01*
X162468452Y-104058745D01*
X162490186Y-104124334D01*
X162582288Y-104273656D01*
X162706344Y-104397712D01*
X162855666Y-104489814D01*
X163022203Y-104544999D01*
X163124991Y-104555500D01*
X167325008Y-104555499D01*
X167427797Y-104544999D01*
X167594334Y-104489814D01*
X167743656Y-104397712D01*
X167867712Y-104273656D01*
X167959814Y-104124334D01*
X168014999Y-103957797D01*
X168025500Y-103855009D01*
X168025499Y-103154992D01*
X168014999Y-103052203D01*
X167959814Y-102885666D01*
X167867712Y-102736344D01*
X167743656Y-102612288D01*
X167594334Y-102520186D01*
X167427797Y-102465001D01*
X167427795Y-102465000D01*
X167325010Y-102454500D01*
X163124998Y-102454500D01*
X163124981Y-102454501D01*
X163022203Y-102465000D01*
X163022200Y-102465001D01*
X162855668Y-102520185D01*
X162855663Y-102520187D01*
X162706342Y-102612289D01*
X162582289Y-102736342D01*
X162490187Y-102885663D01*
X162490186Y-102885666D01*
X162435001Y-103052203D01*
X162435001Y-103052204D01*
X162435000Y-103052204D01*
X162424500Y-103154983D01*
X161274999Y-103154983D01*
X161274999Y-102184986D01*
X168940001Y-102184986D01*
X168950494Y-102287697D01*
X169005641Y-102454119D01*
X169005643Y-102454124D01*
X169097684Y-102603345D01*
X169221654Y-102727315D01*
X169370875Y-102819356D01*
X169370880Y-102819358D01*
X169537302Y-102874505D01*
X169537309Y-102874506D01*
X169640019Y-102884999D01*
X170089999Y-102884999D01*
X170590000Y-102884999D01*
X171039972Y-102884999D01*
X171039986Y-102884998D01*
X171142697Y-102874505D01*
X171309119Y-102819358D01*
X171309124Y-102819356D01*
X171458345Y-102727315D01*
X171582315Y-102603345D01*
X171674356Y-102454124D01*
X171674358Y-102454119D01*
X171729505Y-102287697D01*
X171729506Y-102287690D01*
X171739999Y-102184986D01*
X171740000Y-102184973D01*
X171740000Y-101972500D01*
X170590000Y-101972500D01*
X170590000Y-102884999D01*
X170089999Y-102884999D01*
X170090000Y-102884998D01*
X170090000Y-101972500D01*
X168940001Y-101972500D01*
X168940001Y-102184986D01*
X161274999Y-102184986D01*
X161274999Y-101260013D01*
X168940000Y-101260013D01*
X168940000Y-101472500D01*
X170090000Y-101472500D01*
X170590000Y-101472500D01*
X171739999Y-101472500D01*
X171739999Y-101260028D01*
X171739998Y-101260013D01*
X171729505Y-101157302D01*
X171674358Y-100990880D01*
X171674356Y-100990875D01*
X171582315Y-100841654D01*
X171458345Y-100717684D01*
X171309124Y-100625643D01*
X171309119Y-100625641D01*
X171142697Y-100570494D01*
X171142690Y-100570493D01*
X171039986Y-100560000D01*
X170590000Y-100560000D01*
X170590000Y-101472500D01*
X170090000Y-101472500D01*
X170090000Y-100560000D01*
X169640028Y-100560000D01*
X169640012Y-100560001D01*
X169537302Y-100570494D01*
X169370880Y-100625641D01*
X169370875Y-100625643D01*
X169221654Y-100717684D01*
X169097684Y-100841654D01*
X169005643Y-100990875D01*
X169005641Y-100990880D01*
X168950494Y-101157302D01*
X168950493Y-101157309D01*
X168940000Y-101260013D01*
X161274999Y-101260013D01*
X161274999Y-101175000D01*
X158750000Y-101175000D01*
X158750000Y-103490000D01*
X158250000Y-103490000D01*
X158250000Y-101175000D01*
X155445000Y-101175000D01*
X155445000Y-103490000D01*
X154945000Y-103490000D01*
X154945000Y-101175000D01*
X153020000Y-101175000D01*
X153020000Y-101383638D01*
X153010000Y-101417693D01*
X152510000Y-101417693D01*
X152510000Y-101175000D01*
X149115000Y-101175000D01*
X149115000Y-101191270D01*
X149110151Y-101219816D01*
X149111453Y-101220114D01*
X149109902Y-101226905D01*
X149095000Y-101359174D01*
X138330500Y-101359174D01*
X138330500Y-100675000D01*
X149115000Y-100675000D01*
X152510000Y-100675000D01*
X153020000Y-100675000D01*
X154945000Y-100675000D01*
X155445000Y-100675000D01*
X158250000Y-100675000D01*
X158750000Y-100675000D01*
X161274999Y-100675000D01*
X161274999Y-100621113D01*
X161275000Y-100621092D01*
X161275000Y-98440000D01*
X158750000Y-98440000D01*
X158750000Y-100675000D01*
X158250000Y-100675000D01*
X158250000Y-98440000D01*
X155686362Y-98440000D01*
X155619323Y-98420315D01*
X155598681Y-98403681D01*
X155595000Y-98400000D01*
X155445000Y-98400000D01*
X155445000Y-100675000D01*
X154945000Y-100675000D01*
X154945000Y-98400000D01*
X153020000Y-98400000D01*
X153020000Y-100675000D01*
X152510000Y-100675000D01*
X152510000Y-100546362D01*
X152520000Y-100512306D01*
X152520000Y-98400000D01*
X149115000Y-98400000D01*
X149115000Y-100675000D01*
X138330500Y-100675000D01*
X138330500Y-95730024D01*
X149115000Y-95730024D01*
X149115000Y-97900000D01*
X152520000Y-97900000D01*
X153020000Y-97900000D01*
X154945000Y-97900000D01*
X155445000Y-97900000D01*
X156463638Y-97900000D01*
X156530677Y-97919685D01*
X156551319Y-97936319D01*
X156555000Y-97940000D01*
X158250000Y-97940000D01*
X158750000Y-97940000D01*
X161274999Y-97940000D01*
X161274999Y-95730031D01*
X161274998Y-95730023D01*
X161260080Y-95597607D01*
X161260077Y-95597594D01*
X161201330Y-95429707D01*
X161106690Y-95279088D01*
X160980911Y-95153309D01*
X160830294Y-95058670D01*
X160662395Y-94999920D01*
X160662389Y-94999919D01*
X160529975Y-94985000D01*
X158750000Y-94985000D01*
X158750000Y-97940000D01*
X158250000Y-97940000D01*
X158250000Y-94985000D01*
X155445000Y-94985000D01*
X155445000Y-97900000D01*
X154945000Y-97900000D01*
X154945000Y-94985000D01*
X153020000Y-94985000D01*
X153020000Y-97900000D01*
X152520000Y-97900000D01*
X152520000Y-94985000D01*
X149860040Y-94985000D01*
X149727598Y-94999921D01*
X149727594Y-94999922D01*
X149559707Y-95058669D01*
X149409088Y-95153309D01*
X149283309Y-95279088D01*
X149188670Y-95429705D01*
X149129920Y-95597604D01*
X149129919Y-95597610D01*
X149115000Y-95730024D01*
X138330500Y-95730024D01*
X138330500Y-71909081D01*
X145949500Y-71909081D01*
X145949500Y-71909082D01*
X145949500Y-90740918D01*
X145979082Y-90770500D01*
X173570918Y-90770500D01*
X173600500Y-90740918D01*
X173600500Y-90711500D01*
X173620185Y-90644461D01*
X173672989Y-90598706D01*
X173724500Y-90587500D01*
X174860000Y-90587500D01*
X175360000Y-90587500D01*
X176509999Y-90587500D01*
X176509999Y-90375028D01*
X176509998Y-90375013D01*
X176499505Y-90272302D01*
X176444358Y-90105880D01*
X176444356Y-90105875D01*
X176352315Y-89956654D01*
X176228345Y-89832684D01*
X176079124Y-89740643D01*
X176079119Y-89740641D01*
X175912697Y-89685494D01*
X175912690Y-89685493D01*
X175809986Y-89675000D01*
X175360000Y-89675000D01*
X175360000Y-90587500D01*
X174860000Y-90587500D01*
X174860000Y-89675000D01*
X174410028Y-89675000D01*
X174410012Y-89675001D01*
X174307302Y-89685494D01*
X174140880Y-89740641D01*
X174140875Y-89740643D01*
X173991654Y-89832684D01*
X173867683Y-89956655D01*
X173867680Y-89956659D01*
X173830038Y-90017687D01*
X173778090Y-90064412D01*
X173709128Y-90075633D01*
X173645046Y-90047790D01*
X173606190Y-89989721D01*
X173600500Y-89952590D01*
X173600500Y-75569999D01*
X173867811Y-75569999D01*
X173867812Y-75570000D01*
X175891759Y-75570000D01*
X175878822Y-75601233D01*
X175850000Y-75746131D01*
X175850000Y-75893869D01*
X175878822Y-76038767D01*
X175891759Y-76070000D01*
X173867812Y-76070000D01*
X173879942Y-76162137D01*
X173939318Y-76383730D01*
X174027102Y-76595659D01*
X174027106Y-76595668D01*
X174141809Y-76794338D01*
X174281455Y-76976329D01*
X174281461Y-76976336D01*
X174443663Y-77138538D01*
X174443670Y-77138544D01*
X174625661Y-77278190D01*
X174824331Y-77392893D01*
X174824340Y-77392897D01*
X175036269Y-77480681D01*
X175257862Y-77540057D01*
X175485289Y-77569998D01*
X175485306Y-77570000D01*
X176350000Y-77570000D01*
X176350000Y-76528240D01*
X176381233Y-76541178D01*
X176526131Y-76570000D01*
X176673869Y-76570000D01*
X176818767Y-76541178D01*
X176850000Y-76528240D01*
X176850000Y-77570000D01*
X177714694Y-77570000D01*
X177714710Y-77569998D01*
X177942137Y-77540057D01*
X178163730Y-77480681D01*
X178375659Y-77392897D01*
X178375668Y-77392893D01*
X178574338Y-77278190D01*
X178756329Y-77138544D01*
X178756336Y-77138538D01*
X178918538Y-76976336D01*
X178918544Y-76976329D01*
X179058190Y-76794338D01*
X179172893Y-76595668D01*
X179172897Y-76595659D01*
X179260681Y-76383730D01*
X179320057Y-76162137D01*
X179332188Y-76070000D01*
X177308241Y-76070000D01*
X177321178Y-76038767D01*
X177350000Y-75893869D01*
X177350000Y-75746131D01*
X177321178Y-75601233D01*
X177308241Y-75570000D01*
X179332188Y-75570000D01*
X179332188Y-75569999D01*
X179320057Y-75477862D01*
X179260681Y-75256269D01*
X179172897Y-75044340D01*
X179172893Y-75044331D01*
X179058190Y-74845661D01*
X178918544Y-74663670D01*
X178918538Y-74663663D01*
X178756336Y-74501461D01*
X178756329Y-74501455D01*
X178574338Y-74361809D01*
X178375668Y-74247106D01*
X178375659Y-74247102D01*
X178163730Y-74159318D01*
X177942137Y-74099942D01*
X177714710Y-74070001D01*
X177714694Y-74070000D01*
X176850000Y-74070000D01*
X176850000Y-75111759D01*
X176818767Y-75098822D01*
X176673869Y-75070000D01*
X176526131Y-75070000D01*
X176381233Y-75098822D01*
X176350000Y-75111759D01*
X176350000Y-74070000D01*
X175485306Y-74070000D01*
X175485289Y-74070001D01*
X175257862Y-74099942D01*
X175036269Y-74159318D01*
X174824340Y-74247102D01*
X174824331Y-74247106D01*
X174625661Y-74361809D01*
X174443670Y-74501455D01*
X174443663Y-74501461D01*
X174281461Y-74663663D01*
X174281455Y-74663670D01*
X174141809Y-74845661D01*
X174027106Y-75044331D01*
X174027102Y-75044340D01*
X173939318Y-75256269D01*
X173879942Y-75477862D01*
X173867811Y-75569999D01*
X173600500Y-75569999D01*
X173600500Y-71909082D01*
X173570918Y-71879500D01*
X146020918Y-71879500D01*
X145979082Y-71879500D01*
X145979081Y-71879500D01*
X145949500Y-71909081D01*
X138330500Y-71909081D01*
X138330500Y-70186538D01*
X181149500Y-70186538D01*
X181149500Y-70438462D01*
X181177991Y-70618345D01*
X181188910Y-70687285D01*
X181266760Y-70926883D01*
X181381132Y-71151348D01*
X181529201Y-71355149D01*
X181529205Y-71355154D01*
X181707345Y-71533294D01*
X181707350Y-71533298D01*
X181856624Y-71641751D01*
X181911155Y-71681370D01*
X182054184Y-71754247D01*
X182135616Y-71795739D01*
X182135618Y-71795739D01*
X182135621Y-71795741D01*
X182230338Y-71826516D01*
X182375204Y-71873587D01*
X182375210Y-71873588D01*
X182375215Y-71873590D01*
X182375219Y-71873590D01*
X182375480Y-71873653D01*
X182375574Y-71873706D01*
X182379849Y-71875096D01*
X182379557Y-71875993D01*
X182436079Y-71908431D01*
X182466856Y-71964158D01*
X182595798Y-72479923D01*
X182599500Y-72509998D01*
X182599500Y-74468422D01*
X182630290Y-74662826D01*
X182691117Y-74850030D01*
X182780476Y-75025405D01*
X182896172Y-75184646D01*
X183835354Y-76123828D01*
X183994595Y-76239524D01*
X184032866Y-76259024D01*
X184169969Y-76328882D01*
X184169971Y-76328882D01*
X184169974Y-76328884D01*
X184270318Y-76361487D01*
X184357173Y-76389709D01*
X184551578Y-76420500D01*
X184551583Y-76420500D01*
X184551584Y-76420500D01*
X184748417Y-76420500D01*
X185948687Y-76420500D01*
X185968086Y-76422027D01*
X186021579Y-76430500D01*
X186021583Y-76430500D01*
X186218416Y-76430500D01*
X192181583Y-76430500D01*
X192378416Y-76430500D01*
X195140620Y-76430500D01*
X195183953Y-76438318D01*
X195279866Y-76474091D01*
X195279865Y-76474091D01*
X195286793Y-76474835D01*
X195339476Y-76480500D01*
X197035221Y-76480499D01*
X197094832Y-76474091D01*
X197229680Y-76423796D01*
X197344895Y-76337546D01*
X197431145Y-76222331D01*
X197481440Y-76087483D01*
X197487849Y-76027873D01*
X197487848Y-75179997D01*
X199882383Y-75179997D01*
X199882383Y-75180002D01*
X199902207Y-75406599D01*
X199902209Y-75406610D01*
X199961079Y-75626317D01*
X199961084Y-75626331D01*
X200057212Y-75832478D01*
X200108323Y-75905472D01*
X200787349Y-75226446D01*
X200787349Y-75232661D01*
X200814608Y-75334394D01*
X200867269Y-75425606D01*
X200941743Y-75500080D01*
X201032955Y-75552741D01*
X201134688Y-75580000D01*
X201140902Y-75580000D01*
X200461875Y-76259025D01*
X200534862Y-76310132D01*
X200534870Y-76310136D01*
X200741017Y-76406264D01*
X200741031Y-76406269D01*
X200960738Y-76465139D01*
X200960749Y-76465141D01*
X201187347Y-76484966D01*
X201187351Y-76484966D01*
X201413948Y-76465141D01*
X201413959Y-76465139D01*
X201633666Y-76406269D01*
X201633680Y-76406264D01*
X201839827Y-76310136D01*
X201912820Y-76259024D01*
X201233796Y-75580000D01*
X201240010Y-75580000D01*
X201341743Y-75552741D01*
X201432955Y-75500080D01*
X201507429Y-75425606D01*
X201560090Y-75334394D01*
X201587349Y-75232661D01*
X201587349Y-75226447D01*
X202266373Y-75905471D01*
X202317485Y-75832478D01*
X202413613Y-75626331D01*
X202413618Y-75626317D01*
X202472488Y-75406610D01*
X202472490Y-75406599D01*
X202492315Y-75180002D01*
X202492315Y-75179997D01*
X202472490Y-74953400D01*
X202472488Y-74953389D01*
X202413618Y-74733682D01*
X202413613Y-74733668D01*
X202317485Y-74527521D01*
X202317481Y-74527513D01*
X202266374Y-74454526D01*
X201587349Y-75133551D01*
X201587349Y-75127339D01*
X201560090Y-75025606D01*
X201507429Y-74934394D01*
X201432955Y-74859920D01*
X201341743Y-74807259D01*
X201240010Y-74780000D01*
X201233794Y-74780000D01*
X201912821Y-74100974D01*
X201839827Y-74049863D01*
X201633680Y-73953735D01*
X201633666Y-73953730D01*
X201413959Y-73894860D01*
X201413948Y-73894858D01*
X201187351Y-73875034D01*
X201187347Y-73875034D01*
X200960749Y-73894858D01*
X200960738Y-73894860D01*
X200741031Y-73953730D01*
X200741022Y-73953734D01*
X200534865Y-74049866D01*
X200534861Y-74049868D01*
X200461875Y-74100973D01*
X200461875Y-74100974D01*
X201140902Y-74780000D01*
X201134688Y-74780000D01*
X201032955Y-74807259D01*
X200941743Y-74859920D01*
X200867269Y-74934394D01*
X200814608Y-75025606D01*
X200787349Y-75127339D01*
X200787349Y-75133552D01*
X200108323Y-74454526D01*
X200108322Y-74454526D01*
X200057217Y-74527512D01*
X200057215Y-74527516D01*
X199961083Y-74733673D01*
X199961079Y-74733682D01*
X199902209Y-74953389D01*
X199902207Y-74953400D01*
X199882383Y-75179997D01*
X197487848Y-75179997D01*
X197487848Y-74332128D01*
X197481440Y-74272517D01*
X197475114Y-74255557D01*
X197431146Y-74137671D01*
X197431142Y-74137664D01*
X197344896Y-74022455D01*
X197344893Y-74022452D01*
X197229684Y-73936206D01*
X197229677Y-73936202D01*
X197094831Y-73885908D01*
X197094832Y-73885908D01*
X197035232Y-73879501D01*
X197035230Y-73879500D01*
X197035222Y-73879500D01*
X197035213Y-73879500D01*
X195339478Y-73879500D01*
X195339472Y-73879501D01*
X195279865Y-73885908D01*
X195210765Y-73911682D01*
X195167432Y-73919500D01*
X194414500Y-73919500D01*
X194347461Y-73899815D01*
X194301706Y-73847011D01*
X194290500Y-73795500D01*
X194290500Y-73766195D01*
X194308960Y-73701099D01*
X194374814Y-73594334D01*
X194429999Y-73427797D01*
X194440500Y-73325009D01*
X194440499Y-72399992D01*
X194429999Y-72297203D01*
X194374814Y-72130666D01*
X194282712Y-71981344D01*
X194158656Y-71857288D01*
X194009334Y-71765186D01*
X193842797Y-71710001D01*
X193842795Y-71710000D01*
X193740016Y-71699500D01*
X193740009Y-71699500D01*
X193526997Y-71699500D01*
X193488679Y-71693431D01*
X193361180Y-71652004D01*
X193332826Y-71642791D01*
X193332824Y-71642790D01*
X193332822Y-71642790D01*
X193138422Y-71612000D01*
X193138417Y-71612000D01*
X192941583Y-71612000D01*
X192941578Y-71612000D01*
X192747172Y-71642791D01*
X192591318Y-71693431D01*
X192553001Y-71699500D01*
X192339999Y-71699500D01*
X192339980Y-71699501D01*
X192237203Y-71710000D01*
X192237200Y-71710001D01*
X192070668Y-71765185D01*
X192070663Y-71765187D01*
X191921342Y-71857289D01*
X191882681Y-71895951D01*
X191821358Y-71929436D01*
X191751666Y-71924452D01*
X191707319Y-71895951D01*
X191668657Y-71857289D01*
X191668656Y-71857288D01*
X191519334Y-71765186D01*
X191352797Y-71710001D01*
X191352795Y-71710000D01*
X191250016Y-71699500D01*
X191250009Y-71699500D01*
X191036997Y-71699500D01*
X190998679Y-71693431D01*
X190871180Y-71652004D01*
X190842826Y-71642791D01*
X190842824Y-71642790D01*
X190842822Y-71642790D01*
X190648422Y-71612000D01*
X190648417Y-71612000D01*
X190451583Y-71612000D01*
X190451578Y-71612000D01*
X190257172Y-71642791D01*
X190101318Y-71693431D01*
X190063001Y-71699500D01*
X189849999Y-71699500D01*
X189849980Y-71699501D01*
X189747203Y-71710000D01*
X189747200Y-71710001D01*
X189580668Y-71765185D01*
X189580663Y-71765187D01*
X189431342Y-71857289D01*
X189307289Y-71981342D01*
X189215187Y-72130663D01*
X189215186Y-72130666D01*
X189160001Y-72297203D01*
X189160001Y-72297204D01*
X189160000Y-72297204D01*
X189149500Y-72399983D01*
X189149500Y-73325001D01*
X189149501Y-73325019D01*
X189160000Y-73427796D01*
X189160001Y-73427799D01*
X189215185Y-73594331D01*
X189215186Y-73594334D01*
X189281039Y-73701099D01*
X189299500Y-73766195D01*
X189299500Y-73795500D01*
X189279815Y-73862539D01*
X189227011Y-73908294D01*
X189175500Y-73919500D01*
X185224500Y-73919500D01*
X185157461Y-73899815D01*
X185111706Y-73847011D01*
X185100500Y-73795500D01*
X185100500Y-72509995D01*
X185104202Y-72479921D01*
X185124184Y-72399992D01*
X185233141Y-71964158D01*
X185268497Y-71903896D01*
X185320403Y-71875873D01*
X185320151Y-71875096D01*
X185324402Y-71873714D01*
X185324511Y-71873656D01*
X185324785Y-71873590D01*
X185374957Y-71857288D01*
X185564379Y-71795741D01*
X185788845Y-71681370D01*
X185820419Y-71658429D01*
X185839104Y-71647222D01*
X185850366Y-71641750D01*
X185935198Y-71584317D01*
X186001747Y-71563035D01*
X186004714Y-71563000D01*
X186259192Y-71563000D01*
X186297507Y-71569068D01*
X186307174Y-71572209D01*
X186362719Y-71581006D01*
X186501579Y-71603000D01*
X186501584Y-71603000D01*
X186698422Y-71603000D01*
X186892827Y-71572209D01*
X186902494Y-71569068D01*
X187080026Y-71511384D01*
X187255406Y-71422024D01*
X187414646Y-71306329D01*
X187553829Y-71167146D01*
X187669524Y-71007906D01*
X187758884Y-70832526D01*
X187819709Y-70645327D01*
X187850500Y-70450922D01*
X187850500Y-70254078D01*
X187841933Y-70199986D01*
X189150001Y-70199986D01*
X189160494Y-70302697D01*
X189215641Y-70469119D01*
X189215643Y-70469124D01*
X189307684Y-70618345D01*
X189431654Y-70742315D01*
X189580875Y-70834356D01*
X189580880Y-70834358D01*
X189747302Y-70889505D01*
X189747309Y-70889506D01*
X189850019Y-70899999D01*
X190299999Y-70899999D01*
X190800000Y-70899999D01*
X191249972Y-70899999D01*
X191249986Y-70899998D01*
X191352697Y-70889505D01*
X191519119Y-70834358D01*
X191519124Y-70834356D01*
X191668345Y-70742315D01*
X191707319Y-70703342D01*
X191768642Y-70669857D01*
X191838334Y-70674841D01*
X191882681Y-70703342D01*
X191921654Y-70742315D01*
X192070875Y-70834356D01*
X192070880Y-70834358D01*
X192237302Y-70889505D01*
X192237309Y-70889506D01*
X192340019Y-70899999D01*
X192789999Y-70899999D01*
X193290000Y-70899999D01*
X193739972Y-70899999D01*
X193739986Y-70899998D01*
X193842697Y-70889505D01*
X194009119Y-70834358D01*
X194009124Y-70834356D01*
X194158345Y-70742315D01*
X194282315Y-70618345D01*
X194374356Y-70469124D01*
X194374358Y-70469119D01*
X194429505Y-70302697D01*
X194429506Y-70302690D01*
X194439999Y-70199986D01*
X194440000Y-70199973D01*
X194440000Y-69987500D01*
X193290000Y-69987500D01*
X193290000Y-70899999D01*
X192789999Y-70899999D01*
X192790000Y-70899998D01*
X192790000Y-69987500D01*
X190800000Y-69987500D01*
X190800000Y-70899999D01*
X190299999Y-70899999D01*
X190300000Y-70899998D01*
X190300000Y-69987500D01*
X189150001Y-69987500D01*
X189150001Y-70199986D01*
X187841933Y-70199986D01*
X187819709Y-70059673D01*
X187780082Y-69937715D01*
X187758884Y-69872475D01*
X187758882Y-69872472D01*
X187758882Y-69872470D01*
X187709755Y-69776053D01*
X187669524Y-69697095D01*
X187553829Y-69537855D01*
X187374646Y-69358672D01*
X187259500Y-69275013D01*
X189150000Y-69275013D01*
X189150000Y-69487500D01*
X190300000Y-69487500D01*
X190800000Y-69487500D01*
X192790000Y-69487500D01*
X193290000Y-69487500D01*
X194439999Y-69487500D01*
X194439999Y-69275028D01*
X194439998Y-69275013D01*
X194429505Y-69172302D01*
X194374358Y-69005880D01*
X194374356Y-69005875D01*
X194282315Y-68856654D01*
X194158345Y-68732684D01*
X194009124Y-68640643D01*
X194009119Y-68640641D01*
X193842697Y-68585494D01*
X193842690Y-68585493D01*
X193739986Y-68575000D01*
X193290000Y-68575000D01*
X193290000Y-69487500D01*
X192790000Y-69487500D01*
X192790000Y-68575000D01*
X192340028Y-68575000D01*
X192340012Y-68575001D01*
X192237302Y-68585494D01*
X192070880Y-68640641D01*
X192070875Y-68640643D01*
X191921654Y-68732684D01*
X191882681Y-68771658D01*
X191821358Y-68805143D01*
X191751666Y-68800159D01*
X191707319Y-68771658D01*
X191668345Y-68732684D01*
X191519124Y-68640643D01*
X191519119Y-68640641D01*
X191352697Y-68585494D01*
X191352690Y-68585493D01*
X191249986Y-68575000D01*
X190800000Y-68575000D01*
X190800000Y-69487500D01*
X190300000Y-69487500D01*
X190300000Y-68575000D01*
X189850028Y-68575000D01*
X189850012Y-68575001D01*
X189747302Y-68585494D01*
X189580880Y-68640641D01*
X189580875Y-68640643D01*
X189431654Y-68732684D01*
X189307684Y-68856654D01*
X189215643Y-69005875D01*
X189215641Y-69005880D01*
X189160494Y-69172302D01*
X189160493Y-69172309D01*
X189150000Y-69275013D01*
X187259500Y-69275013D01*
X187215405Y-69242976D01*
X187040030Y-69153617D01*
X186852826Y-69092790D01*
X186658422Y-69062000D01*
X186658417Y-69062000D01*
X186318196Y-69062000D01*
X186284417Y-69057310D01*
X185682941Y-68887021D01*
X185660426Y-68878196D01*
X185564386Y-68829261D01*
X185324785Y-68751410D01*
X185262936Y-68741614D01*
X185075962Y-68712000D01*
X182624038Y-68712000D01*
X182499626Y-68731705D01*
X182375214Y-68751410D01*
X182135616Y-68829260D01*
X181911151Y-68943632D01*
X181707350Y-69091701D01*
X181707345Y-69091705D01*
X181529205Y-69269845D01*
X181529201Y-69269850D01*
X181381132Y-69473651D01*
X181266760Y-69698116D01*
X181199514Y-69905078D01*
X181188910Y-69937715D01*
X181149500Y-70186538D01*
X138330500Y-70186538D01*
X138330500Y-67998293D01*
X138350185Y-67931254D01*
X138402989Y-67885499D01*
X138472147Y-67875555D01*
X138535703Y-67904580D01*
X138564985Y-67941999D01*
X138621307Y-68052538D01*
X138621308Y-68052541D01*
X138832523Y-68377783D01*
X138832525Y-68377785D01*
X139041096Y-68635348D01*
X140535747Y-67140697D01*
X140609588Y-67242330D01*
X140787670Y-67420412D01*
X140889301Y-67494251D01*
X140344884Y-68038667D01*
X140382944Y-67946784D01*
X140382944Y-67847328D01*
X140344884Y-67755442D01*
X140274558Y-67685116D01*
X140182672Y-67647056D01*
X140083216Y-67647056D01*
X139991330Y-67685116D01*
X139921004Y-67755442D01*
X139882944Y-67847328D01*
X139882944Y-67946784D01*
X139921004Y-68038670D01*
X139991330Y-68108996D01*
X140083216Y-68147056D01*
X140182672Y-68147056D01*
X140274555Y-68108996D01*
X139394650Y-68988902D01*
X139652214Y-69197475D01*
X139652216Y-69197476D01*
X139977456Y-69408689D01*
X140323005Y-69584755D01*
X140685063Y-69723737D01*
X141059669Y-69824112D01*
X141059676Y-69824113D01*
X141442712Y-69884780D01*
X141829999Y-69905078D01*
X141830001Y-69905078D01*
X142217287Y-69884780D01*
X142600323Y-69824113D01*
X142600330Y-69824112D01*
X142974936Y-69723737D01*
X143336994Y-69584755D01*
X143682543Y-69408689D01*
X144007771Y-69197484D01*
X144007784Y-69197474D01*
X144265348Y-68988902D01*
X143385442Y-68108996D01*
X143477328Y-68147056D01*
X143576784Y-68147056D01*
X143668670Y-68108996D01*
X143738996Y-68038670D01*
X143777056Y-67946784D01*
X143777056Y-67847328D01*
X143738996Y-67755442D01*
X144618902Y-68635348D01*
X144827474Y-68377784D01*
X144827484Y-68377771D01*
X145038689Y-68052543D01*
X145214755Y-67706994D01*
X145353737Y-67344936D01*
X145454112Y-66970330D01*
X145454113Y-66970323D01*
X145514780Y-66587287D01*
X145535078Y-66200000D01*
X145535078Y-66199999D01*
X145534785Y-66194402D01*
X177649500Y-66194402D01*
X177649500Y-68430597D01*
X177686446Y-68663868D01*
X177759433Y-68888496D01*
X177819244Y-69005880D01*
X177866657Y-69098933D01*
X178005483Y-69290010D01*
X178172490Y-69457017D01*
X178363567Y-69595843D01*
X178462991Y-69646502D01*
X178574003Y-69703066D01*
X178574005Y-69703066D01*
X178574008Y-69703068D01*
X178694412Y-69742189D01*
X178798631Y-69776053D01*
X179031903Y-69813000D01*
X179031908Y-69813000D01*
X179268097Y-69813000D01*
X179501368Y-69776053D01*
X179725992Y-69703068D01*
X179936433Y-69595843D01*
X180127510Y-69457017D01*
X180294517Y-69290010D01*
X180433343Y-69098933D01*
X180540568Y-68888492D01*
X180613553Y-68663868D01*
X180615793Y-68649728D01*
X180650500Y-68430597D01*
X180650500Y-66194402D01*
X180613553Y-65961131D01*
X180540566Y-65736503D01*
X180433342Y-65526066D01*
X180294517Y-65334990D01*
X180127510Y-65167983D01*
X179936433Y-65029157D01*
X179725996Y-64921933D01*
X179501368Y-64848946D01*
X179268097Y-64812000D01*
X179268092Y-64812000D01*
X179031908Y-64812000D01*
X179031903Y-64812000D01*
X178798631Y-64848946D01*
X178574003Y-64921933D01*
X178363566Y-65029157D01*
X178267889Y-65098671D01*
X178172490Y-65167983D01*
X178172488Y-65167985D01*
X178172487Y-65167985D01*
X178005485Y-65334987D01*
X178005485Y-65334988D01*
X178005483Y-65334990D01*
X177986283Y-65361417D01*
X177866657Y-65526066D01*
X177759433Y-65736503D01*
X177686446Y-65961131D01*
X177649500Y-66194402D01*
X145534785Y-66194402D01*
X145514780Y-65812712D01*
X145454113Y-65429676D01*
X145454112Y-65429669D01*
X145353737Y-65055063D01*
X145214755Y-64693005D01*
X145038689Y-64347456D01*
X144827476Y-64022216D01*
X144827475Y-64022214D01*
X144618902Y-63764650D01*
X143738997Y-64644555D01*
X143777056Y-64552672D01*
X143777056Y-64453216D01*
X143738996Y-64361330D01*
X143668670Y-64291004D01*
X143576784Y-64252944D01*
X143477328Y-64252944D01*
X143385442Y-64291004D01*
X143315116Y-64361330D01*
X143277056Y-64453216D01*
X143277056Y-64552672D01*
X143315116Y-64644558D01*
X143385442Y-64714884D01*
X143477328Y-64752944D01*
X143576784Y-64752944D01*
X143668667Y-64714885D01*
X143124251Y-65259301D01*
X143050412Y-65157670D01*
X142872330Y-64979588D01*
X142770698Y-64905748D01*
X144265349Y-63411096D01*
X144007785Y-63202525D01*
X144007783Y-63202523D01*
X143792124Y-63062473D01*
X143746621Y-63009452D01*
X143737007Y-62940247D01*
X143766334Y-62876830D01*
X143825291Y-62839336D01*
X143859538Y-62834478D01*
X182002878Y-62797432D01*
X182069934Y-62817052D01*
X182115740Y-62869811D01*
X182125751Y-62938960D01*
X182096788Y-63002544D01*
X182067791Y-63027156D01*
X182063836Y-63029579D01*
X181872813Y-63168366D01*
X181705866Y-63335313D01*
X181567085Y-63526328D01*
X181459897Y-63736697D01*
X181386934Y-63961252D01*
X181370898Y-64062500D01*
X182416988Y-64062500D01*
X182384075Y-64119507D01*
X182350000Y-64246674D01*
X182350000Y-64378326D01*
X182384075Y-64505493D01*
X182416988Y-64562500D01*
X181370898Y-64562500D01*
X181386934Y-64663747D01*
X181459897Y-64888302D01*
X181567085Y-65098671D01*
X181705866Y-65289686D01*
X181872813Y-65456633D01*
X182063828Y-65595414D01*
X182274197Y-65702602D01*
X182498752Y-65775565D01*
X182498751Y-65775565D01*
X182731948Y-65812500D01*
X183600000Y-65812500D01*
X183600000Y-64812500D01*
X184100000Y-64812500D01*
X184100000Y-65812500D01*
X184968052Y-65812500D01*
X185201247Y-65775565D01*
X185425802Y-65702602D01*
X185636171Y-65595414D01*
X185827186Y-65456633D01*
X185994133Y-65289686D01*
X186132914Y-65098671D01*
X186240102Y-64888302D01*
X186313065Y-64663747D01*
X186329102Y-64562500D01*
X185283012Y-64562500D01*
X185315925Y-64505493D01*
X185350000Y-64378326D01*
X185350000Y-64246674D01*
X185315925Y-64119507D01*
X185283012Y-64062500D01*
X186329102Y-64062500D01*
X186313065Y-63961252D01*
X186240102Y-63736697D01*
X186132914Y-63526328D01*
X185994133Y-63335313D01*
X185827186Y-63168366D01*
X185636170Y-63029584D01*
X185633716Y-63028334D01*
X185632950Y-63027610D01*
X185632019Y-63027040D01*
X185632138Y-63026844D01*
X185582922Y-62980358D01*
X185566129Y-62912536D01*
X185588669Y-62846402D01*
X185643385Y-62802952D01*
X185689889Y-62793852D01*
X201775821Y-62778229D01*
X201842875Y-62797848D01*
G37*
%TD.AperFunction*%
%TA.AperFunction,Conductor*%
G36*
X206488902Y-108225348D02*
G01*
X206697474Y-107967784D01*
X206697484Y-107967771D01*
X206908691Y-107642541D01*
X206908692Y-107642538D01*
X206965015Y-107531999D01*
X207012989Y-107481202D01*
X207080810Y-107464407D01*
X207146945Y-107486944D01*
X207190397Y-107541659D01*
X207199500Y-107588293D01*
X207199500Y-109140500D01*
X207179815Y-109207539D01*
X207127011Y-109253294D01*
X207075500Y-109264500D01*
X205547359Y-109264500D01*
X205480320Y-109244815D01*
X205434565Y-109192011D01*
X205424621Y-109122853D01*
X205453646Y-109059297D01*
X205491064Y-109030015D01*
X205552543Y-108998689D01*
X205877771Y-108787484D01*
X205877784Y-108787474D01*
X206135348Y-108578902D01*
X205255442Y-107698996D01*
X205347328Y-107737056D01*
X205446784Y-107737056D01*
X205538670Y-107698996D01*
X205608996Y-107628670D01*
X205647056Y-107536784D01*
X205647056Y-107437328D01*
X205608996Y-107345442D01*
X206488902Y-108225348D01*
G37*
%TD.AperFunction*%
%TA.AperFunction,Conductor*%
G36*
X205538670Y-107275116D02*
G01*
X205446784Y-107237056D01*
X205347328Y-107237056D01*
X205255442Y-107275116D01*
X205185116Y-107345442D01*
X205147056Y-107437328D01*
X205147056Y-107536784D01*
X205185116Y-107628670D01*
X204640698Y-107084252D01*
X204742330Y-107010412D01*
X204920412Y-106832330D01*
X204994252Y-106730698D01*
X205538670Y-107275116D01*
G37*
%TD.AperFunction*%
%TA.AperFunction,Conductor*%
G36*
X143638670Y-107205116D02*
G01*
X143546784Y-107167056D01*
X143447328Y-107167056D01*
X143355442Y-107205116D01*
X143285116Y-107275442D01*
X143247056Y-107367328D01*
X143247056Y-107466784D01*
X143285116Y-107558670D01*
X142740698Y-107014252D01*
X142842330Y-106940412D01*
X143020412Y-106762330D01*
X143094252Y-106660698D01*
X143638670Y-107205116D01*
G37*
%TD.AperFunction*%
%TA.AperFunction,Conductor*%
G36*
X202759301Y-104495748D02*
G01*
X202657670Y-104569588D01*
X202479588Y-104747670D01*
X202405748Y-104849301D01*
X201861331Y-104304884D01*
X201953216Y-104342944D01*
X202052672Y-104342944D01*
X202144558Y-104304884D01*
X202214884Y-104234558D01*
X202252944Y-104142672D01*
X202252944Y-104043216D01*
X202214884Y-103951331D01*
X202759301Y-104495748D01*
G37*
%TD.AperFunction*%
%TA.AperFunction,Conductor*%
G36*
X140859301Y-104425748D02*
G01*
X140757670Y-104499588D01*
X140579588Y-104677670D01*
X140505748Y-104779301D01*
X139961331Y-104234884D01*
X140053216Y-104272944D01*
X140152672Y-104272944D01*
X140244558Y-104234884D01*
X140314884Y-104164558D01*
X140352944Y-104072672D01*
X140352944Y-103973216D01*
X140314884Y-103881331D01*
X140859301Y-104425748D01*
G37*
%TD.AperFunction*%
%TA.AperFunction,Conductor*%
G36*
X143668670Y-67685116D02*
G01*
X143576784Y-67647056D01*
X143477328Y-67647056D01*
X143385442Y-67685116D01*
X143315116Y-67755442D01*
X143277056Y-67847328D01*
X143277056Y-67946784D01*
X143315116Y-68038670D01*
X142770698Y-67494252D01*
X142872330Y-67420412D01*
X143050412Y-67242330D01*
X143124252Y-67140698D01*
X143668670Y-67685116D01*
G37*
%TD.AperFunction*%
%TA.AperFunction,Conductor*%
G36*
X205591614Y-67663060D02*
G01*
X205499728Y-67625000D01*
X205400272Y-67625000D01*
X205308386Y-67663060D01*
X205238060Y-67733386D01*
X205200000Y-67825272D01*
X205200000Y-67924728D01*
X205238060Y-68016614D01*
X204693642Y-67472196D01*
X204795274Y-67398356D01*
X204973356Y-67220274D01*
X205047196Y-67118642D01*
X205591614Y-67663060D01*
G37*
%TD.AperFunction*%
%TA.AperFunction,Conductor*%
G36*
X140889301Y-64905748D02*
G01*
X140787670Y-64979588D01*
X140609588Y-65157670D01*
X140535748Y-65259301D01*
X139991331Y-64714884D01*
X140083216Y-64752944D01*
X140182672Y-64752944D01*
X140274558Y-64714884D01*
X140344884Y-64644558D01*
X140382944Y-64552672D01*
X140382944Y-64453216D01*
X140344884Y-64361331D01*
X140889301Y-64905748D01*
G37*
%TD.AperFunction*%
%TA.AperFunction,Conductor*%
G36*
X202812245Y-64883692D02*
G01*
X202710614Y-64957532D01*
X202532532Y-65135614D01*
X202458692Y-65237245D01*
X201914275Y-64692828D01*
X202006160Y-64730888D01*
X202105616Y-64730888D01*
X202197502Y-64692828D01*
X202267828Y-64622502D01*
X202305888Y-64530616D01*
X202305888Y-64431160D01*
X202267828Y-64339275D01*
X202812245Y-64883692D01*
G37*
%TD.AperFunction*%
%TA.AperFunction,Conductor*%
G36*
X207103364Y-62792740D02*
G01*
X207149170Y-62845499D01*
X207160425Y-62896693D01*
X207164975Y-64219477D01*
X207145521Y-64286584D01*
X207092875Y-64332521D01*
X207023751Y-64342702D01*
X206960096Y-64313896D01*
X206936981Y-64287439D01*
X206750420Y-64000160D01*
X206750419Y-64000158D01*
X206541846Y-63742594D01*
X205661941Y-64622499D01*
X205700000Y-64530616D01*
X205700000Y-64431160D01*
X205661940Y-64339274D01*
X205591614Y-64268948D01*
X205499728Y-64230888D01*
X205400272Y-64230888D01*
X205308386Y-64268948D01*
X205238060Y-64339274D01*
X205200000Y-64431160D01*
X205200000Y-64530616D01*
X205238060Y-64622502D01*
X205308386Y-64692828D01*
X205400272Y-64730888D01*
X205499728Y-64730888D01*
X205591611Y-64692829D01*
X205047195Y-65237245D01*
X204973356Y-65135614D01*
X204795274Y-64957532D01*
X204693642Y-64883692D01*
X206188293Y-63389040D01*
X205930729Y-63180469D01*
X205930727Y-63180467D01*
X205656510Y-63002389D01*
X205611007Y-62949368D01*
X205601393Y-62880163D01*
X205630720Y-62816746D01*
X205689677Y-62779252D01*
X205723919Y-62774394D01*
X207036306Y-62773120D01*
X207103364Y-62792740D01*
G37*
%TD.AperFunction*%
%TA.AperFunction,Conductor*%
G36*
X139861199Y-62858046D02*
G01*
X139907005Y-62910805D01*
X139917016Y-62979954D01*
X139888053Y-63043538D01*
X139861797Y-63066421D01*
X139652202Y-63202534D01*
X139394649Y-63411095D01*
X139394649Y-63411096D01*
X140274556Y-64291003D01*
X140182672Y-64252944D01*
X140083216Y-64252944D01*
X139991330Y-64291004D01*
X139921004Y-64361330D01*
X139882944Y-64453216D01*
X139882944Y-64552672D01*
X139921003Y-64644556D01*
X139041096Y-63764649D01*
X139041095Y-63764649D01*
X138832531Y-64022206D01*
X138621310Y-64347456D01*
X138564985Y-64458001D01*
X138517010Y-64508797D01*
X138449189Y-64525592D01*
X138383055Y-64503055D01*
X138339603Y-64448340D01*
X138330500Y-64401706D01*
X138330500Y-62963726D01*
X138350185Y-62896687D01*
X138402989Y-62850932D01*
X138454372Y-62839727D01*
X139794142Y-62838426D01*
X139861199Y-62858046D01*
G37*
%TD.AperFunction*%
%TD*%
%TA.AperFunction,Conductor*%
%TO.N,+VDC*%
G36*
X183857866Y-70320240D02*
G01*
X183858653Y-70321027D01*
X184835522Y-71396560D01*
X184845792Y-71407867D01*
X184848818Y-71416295D01*
X184848482Y-71418571D01*
X184602216Y-72403638D01*
X184596885Y-72410833D01*
X184590865Y-72412500D01*
X183109135Y-72412500D01*
X183100862Y-72409073D01*
X183097784Y-72403638D01*
X182851517Y-71418569D01*
X182852835Y-71409713D01*
X182854202Y-71407873D01*
X183841340Y-70321034D01*
X183849438Y-70317214D01*
X183857866Y-70320240D01*
G37*
%TD.AperFunction*%
%TD*%
%TA.AperFunction,Conductor*%
%TO.N,9V*%
G36*
X170295314Y-92160693D02*
G01*
X171429813Y-92308671D01*
X171437574Y-92313139D01*
X171440000Y-92320273D01*
X171440000Y-93799726D01*
X171436573Y-93807999D01*
X171429813Y-93811328D01*
X170295334Y-93959304D01*
X170286687Y-93956976D01*
X170285998Y-93956402D01*
X169298675Y-93068699D01*
X169294815Y-93060621D01*
X169297799Y-93052177D01*
X169298676Y-93051300D01*
X170286000Y-92163596D01*
X170294442Y-92160613D01*
X170295314Y-92160693D01*
G37*
%TD.AperFunction*%
%TD*%
%TA.AperFunction,Conductor*%
%TO.N,+VDC*%
G36*
X185413707Y-69336167D02*
G01*
X187111143Y-69816738D01*
X187118170Y-69822289D01*
X187119214Y-69831183D01*
X187116229Y-69836269D01*
X186070458Y-70882040D01*
X186068744Y-70883455D01*
X185566975Y-71223157D01*
X185558203Y-71224958D01*
X185554899Y-71223787D01*
X184917241Y-70882829D01*
X183867090Y-70321309D01*
X183861411Y-70314387D01*
X183862290Y-70305475D01*
X183866394Y-70301078D01*
X185404336Y-69337516D01*
X185413164Y-69336029D01*
X185413707Y-69336167D01*
G37*
%TD.AperFunction*%
%TD*%
%TA.AperFunction,Conductor*%
%TO.N,Net-(Q1-G)*%
G36*
X179677785Y-90223085D02*
G01*
X179679105Y-90224263D01*
X180292483Y-90861156D01*
X180295754Y-90869492D01*
X180292172Y-90877699D01*
X180291757Y-90878080D01*
X179583671Y-91497173D01*
X179575187Y-91500039D01*
X179573674Y-91499838D01*
X178784404Y-91341882D01*
X178776964Y-91336898D01*
X178775000Y-91330409D01*
X178775000Y-90350243D01*
X178778427Y-90341970D01*
X178785153Y-90338646D01*
X179669133Y-90220782D01*
X179677785Y-90223085D01*
G37*
%TD.AperFunction*%
%TD*%
%TA.AperFunction,Conductor*%
%TO.N,Net-(RF_IN1-In)*%
G36*
X175944612Y-104708427D02*
G01*
X175947529Y-104713284D01*
X176184725Y-105490251D01*
X176184300Y-105498250D01*
X175580765Y-106915717D01*
X175574371Y-106921987D01*
X175565417Y-106921899D01*
X175559235Y-106915718D01*
X175559235Y-106915717D01*
X174955698Y-105498248D01*
X174955274Y-105490253D01*
X175192471Y-104713283D01*
X175198164Y-104706372D01*
X175203661Y-104705000D01*
X175936339Y-104705000D01*
X175944612Y-104708427D01*
G37*
%TD.AperFunction*%
%TD*%
%TA.AperFunction,Conductor*%
%TO.N,9V*%
G36*
X169299447Y-93063920D02*
G01*
X170533280Y-93706500D01*
X170539035Y-93713361D01*
X170539556Y-93717563D01*
X170473146Y-94848986D01*
X170469240Y-94857044D01*
X170461466Y-94860000D01*
X169726941Y-94860000D01*
X169719178Y-94857054D01*
X169710080Y-94848986D01*
X168715168Y-93966666D01*
X168711252Y-93958612D01*
X168713105Y-93951561D01*
X169284218Y-93067944D01*
X169291586Y-93062858D01*
X169299447Y-93063920D01*
G37*
%TD.AperFunction*%
%TD*%
%TA.AperFunction,Conductor*%
%TO.N,Net-(D1-A)*%
G36*
X165298269Y-93067278D02*
G01*
X165298278Y-93067287D01*
X166185747Y-93955743D01*
X166189169Y-93964019D01*
X166189010Y-93965935D01*
X166041630Y-94850223D01*
X166036890Y-94857821D01*
X166030089Y-94860000D01*
X164549911Y-94860000D01*
X164541638Y-94856573D01*
X164538370Y-94850223D01*
X164390989Y-93965935D01*
X164393009Y-93957212D01*
X164394252Y-93955743D01*
X165281722Y-93067287D01*
X165289994Y-93063856D01*
X165298269Y-93067278D01*
G37*
%TD.AperFunction*%
%TD*%
%TA.AperFunction,Conductor*%
%TO.N,9V*%
G36*
X170470025Y-94760927D02*
G01*
X170473410Y-94768210D01*
X170549534Y-95664520D01*
X170546820Y-95673053D01*
X170546076Y-95673855D01*
X169897702Y-96310974D01*
X169889400Y-96314329D01*
X169881157Y-96310829D01*
X169879699Y-96309016D01*
X169337200Y-95475583D01*
X169335560Y-95466781D01*
X169336737Y-95463595D01*
X169719173Y-94763590D01*
X169726147Y-94757973D01*
X169729441Y-94757500D01*
X170461752Y-94757500D01*
X170470025Y-94760927D01*
G37*
%TD.AperFunction*%
%TD*%
%TA.AperFunction,Conductor*%
%TO.N,9V*%
G36*
X175119115Y-93967957D02*
G01*
X175932851Y-94544445D01*
X175937620Y-94552024D01*
X175937626Y-94555926D01*
X175816637Y-95277734D01*
X175811890Y-95285327D01*
X175805098Y-95287500D01*
X175071025Y-95287500D01*
X175062752Y-95284073D01*
X175061500Y-95282594D01*
X175058033Y-95277734D01*
X174597486Y-94632106D01*
X174595471Y-94623381D01*
X174597784Y-94618119D01*
X175103129Y-93970307D01*
X175110917Y-93965893D01*
X175119115Y-93967957D01*
G37*
%TD.AperFunction*%
%TD*%
%TA.AperFunction,Conductor*%
%TO.N,Net-(Q1-G)*%
G36*
X176612513Y-86727470D02*
G01*
X178442344Y-87966139D01*
X178447274Y-87973615D01*
X178447440Y-87976858D01*
X178360943Y-88955188D01*
X178356800Y-88963128D01*
X178349288Y-88965858D01*
X177364210Y-88965858D01*
X177356756Y-88963177D01*
X177347089Y-88955188D01*
X176161348Y-87975219D01*
X176157154Y-87967307D01*
X176157779Y-87962279D01*
X176594935Y-86733238D01*
X176600935Y-86726594D01*
X176609878Y-86726138D01*
X176612513Y-86727470D01*
G37*
%TD.AperFunction*%
%TD*%
%TA.AperFunction,Conductor*%
%TO.N,9V*%
G36*
X169299343Y-93065048D02*
G01*
X170493066Y-93837775D01*
X170498149Y-93845148D01*
X170498299Y-93846006D01*
X170635675Y-94846709D01*
X170633405Y-94855371D01*
X170625675Y-94859891D01*
X170624084Y-94860000D01*
X169144405Y-94860000D01*
X169136132Y-94856573D01*
X169134162Y-94853954D01*
X168644260Y-93966485D01*
X168643262Y-93957586D01*
X168645011Y-93953990D01*
X168722832Y-93846006D01*
X169283493Y-93068028D01*
X169291110Y-93063321D01*
X169299343Y-93065048D01*
G37*
%TD.AperFunction*%
%TD*%
M02*
