%TF.GenerationSoftware,KiCad,Pcbnew,8.99.0-unknown-2b81d3a93c~180~ubuntu22.04.1*%
%TF.CreationDate,2024-08-01T07:46:56+05:30*%
%TF.ProjectId,HF-PA-v10,48462d50-412d-4763-9130-2e6b69636164,rev?*%
%TF.SameCoordinates,Original*%
%TF.FileFunction,Soldermask,Top*%
%TF.FilePolarity,Negative*%
%FSLAX46Y46*%
G04 Gerber Fmt 4.6, Leading zero omitted, Abs format (unit mm)*
G04 Created by KiCad (PCBNEW 8.99.0-unknown-2b81d3a93c~180~ubuntu22.04.1) date 2024-08-01 07:46:56*
%MOMM*%
%LPD*%
G01*
G04 APERTURE LIST*
G04 Aperture macros list*
%AMRoundRect*
0 Rectangle with rounded corners*
0 $1 Rounding radius*
0 $2 $3 $4 $5 $6 $7 $8 $9 X,Y pos of 4 corners*
0 Add a 4 corners polygon primitive as box body*
4,1,4,$2,$3,$4,$5,$6,$7,$8,$9,$2,$3,0*
0 Add four circle primitives for the rounded corners*
1,1,$1+$1,$2,$3*
1,1,$1+$1,$4,$5*
1,1,$1+$1,$6,$7*
1,1,$1+$1,$8,$9*
0 Add four rect primitives between the rounded corners*
20,1,$1+$1,$2,$3,$4,$5,0*
20,1,$1+$1,$4,$5,$6,$7,0*
20,1,$1+$1,$6,$7,$8,$9,0*
20,1,$1+$1,$8,$9,$2,$3,0*%
G04 Aperture macros list end*
%ADD10C,0.800000*%
%ADD11C,6.400000*%
%ADD12RoundRect,0.250000X1.350000X-0.385000X1.350000X0.385000X-1.350000X0.385000X-1.350000X-0.385000X0*%
%ADD13RoundRect,0.250000X1.600000X-0.425000X1.600000X0.425000X-1.600000X0.425000X-1.600000X-0.425000X0*%
%ADD14RoundRect,0.250000X-0.412500X-0.650000X0.412500X-0.650000X0.412500X0.650000X-0.412500X0.650000X0*%
%ADD15O,4.400000X2.200000*%
%ADD16O,4.000000X2.000000*%
%ADD17O,2.000000X4.000000*%
%ADD18RoundRect,0.250000X0.650000X-0.412500X0.650000X0.412500X-0.650000X0.412500X-0.650000X-0.412500X0*%
%ADD19RoundRect,0.250000X-0.385000X-1.350000X0.385000X-1.350000X0.385000X1.350000X-0.385000X1.350000X0*%
%ADD20RoundRect,0.250000X-0.425000X-1.600000X0.425000X-1.600000X0.425000X1.600000X-0.425000X1.600000X0*%
%ADD21O,3.600000X3.600000*%
%ADD22R,4.500000X2.500000*%
%ADD23O,4.500000X2.500000*%
%ADD24RoundRect,0.250000X0.412500X0.650000X-0.412500X0.650000X-0.412500X-0.650000X0.412500X-0.650000X0*%
%ADD25RoundRect,0.250000X1.000000X0.650000X-1.000000X0.650000X-1.000000X-0.650000X1.000000X-0.650000X0*%
%ADD26RoundRect,0.162500X-0.837500X-0.162500X0.837500X-0.162500X0.837500X0.162500X-0.837500X0.162500X0*%
%ADD27R,1.600000X1.600000*%
%ADD28C,1.600000*%
%ADD29R,5.500000X2.150000*%
%ADD30RoundRect,0.250000X-0.650000X0.412500X-0.650000X-0.412500X0.650000X-0.412500X0.650000X0.412500X0*%
%ADD31RoundRect,0.250000X2.050000X0.300000X-2.050000X0.300000X-2.050000X-0.300000X2.050000X-0.300000X0*%
%ADD32RoundRect,0.289364X5.290636X5.150636X-5.290636X5.150636X-5.290636X-5.150636X5.290636X-5.150636X0*%
%ADD33RoundRect,0.250000X-0.625000X0.400000X-0.625000X-0.400000X0.625000X-0.400000X0.625000X0.400000X0*%
G04 APERTURE END LIST*
D10*
%TO.C,H3*%
X139400000Y-105720000D03*
X140102944Y-104022944D03*
X140102944Y-107417056D03*
X141800000Y-103320000D03*
D11*
X141800000Y-105720000D03*
D10*
X141800000Y-108120000D03*
X143497056Y-104022944D03*
X143497056Y-107417056D03*
X144200000Y-105720000D03*
%TD*%
D12*
%TO.C,RF_OUT1*%
X204807500Y-84720000D03*
D13*
X204557500Y-81895000D03*
X204557500Y-87545000D03*
%TD*%
D14*
%TO.C,C12*%
X184757500Y-94920000D03*
X187882500Y-94920000D03*
%TD*%
D15*
%TO.C,Power1*%
X183850000Y-70312500D03*
D16*
X183850000Y-64312500D03*
D17*
X179150000Y-67312500D03*
%TD*%
D14*
%TO.C,C9*%
X169887500Y-96320000D03*
X173012500Y-96320000D03*
%TD*%
D18*
%TO.C,C4*%
X175110000Y-93962500D03*
X175110000Y-90837500D03*
%TD*%
D10*
%TO.C,H4*%
X201300000Y-105790000D03*
X202002944Y-104092944D03*
X202002944Y-107487056D03*
X203700000Y-103390000D03*
D11*
X203700000Y-105790000D03*
D10*
X203700000Y-108190000D03*
X205397056Y-104092944D03*
X205397056Y-107487056D03*
X206100000Y-105790000D03*
%TD*%
D19*
%TO.C,RF_IN1*%
X175570000Y-106940000D03*
D20*
X178395000Y-106690000D03*
X172745000Y-106690000D03*
%TD*%
D21*
%TO.C,Q1*%
X156740000Y-81270000D03*
D22*
X176600000Y-86720000D03*
D23*
X176600000Y-81270000D03*
X176600000Y-75820000D03*
%TD*%
D24*
%TO.C,C3*%
X199330000Y-84750000D03*
X196205000Y-84750000D03*
%TD*%
D25*
%TO.C,D1*%
X169290000Y-93060000D03*
X165290000Y-93060000D03*
%TD*%
D26*
%TO.C,U2*%
X175270000Y-96512500D03*
X175270000Y-97462500D03*
X175270000Y-98412500D03*
X178690000Y-98412500D03*
X178690000Y-96512500D03*
%TD*%
D27*
%TO.C,C6*%
X196187349Y-75180000D03*
D28*
X201187349Y-75180000D03*
%TD*%
D29*
%TO.C,T1*%
X182610000Y-81255000D03*
X182610000Y-84685000D03*
X192110000Y-84685000D03*
X192110000Y-81255000D03*
%TD*%
D10*
%TO.C,H1*%
X139430000Y-66200000D03*
X140132944Y-64502944D03*
X140132944Y-67897056D03*
X141830000Y-63800000D03*
D11*
X141830000Y-66200000D03*
D10*
X141830000Y-68600000D03*
X143527056Y-64502944D03*
X143527056Y-67897056D03*
X144230000Y-66200000D03*
%TD*%
D18*
%TO.C,C5*%
X193040000Y-72862500D03*
X193040000Y-69737500D03*
%TD*%
D30*
%TO.C,C8*%
X170340000Y-98597500D03*
X170340000Y-101722500D03*
%TD*%
D31*
%TO.C,U1*%
X165225000Y-103505000D03*
D32*
X155195000Y-100925000D03*
D31*
X165225000Y-98425000D03*
%TD*%
D18*
%TO.C,C10*%
X190550000Y-72862500D03*
X190550000Y-69737500D03*
%TD*%
D10*
%TO.C,H2*%
X201352944Y-66177944D03*
X202055888Y-64480888D03*
X202055888Y-67875000D03*
X203752944Y-63777944D03*
D11*
X203752944Y-66177944D03*
D10*
X203752944Y-68577944D03*
X205450000Y-64480888D03*
X205450000Y-67875000D03*
X206152944Y-66177944D03*
%TD*%
D33*
%TO.C,R3*%
X180300000Y-90870000D03*
X180300000Y-93970000D03*
%TD*%
D14*
%TO.C,C2*%
X184770000Y-91410000D03*
X187895000Y-91410000D03*
%TD*%
M02*
