%TF.GenerationSoftware,KiCad,Pcbnew,9.0.6-9.0.6~ubuntu25.04.1*%
%TF.CreationDate,2025-11-26T18:02:33+05:30*%
%TF.ProjectId,HF-PA-v10,48462d50-412d-4763-9130-2e6b69636164,rev?*%
%TF.SameCoordinates,Original*%
%TF.FileFunction,Soldermask,Top*%
%TF.FilePolarity,Negative*%
%FSLAX46Y46*%
G04 Gerber Fmt 4.6, Leading zero omitted, Abs format (unit mm)*
G04 Created by KiCad (PCBNEW 9.0.6-9.0.6~ubuntu25.04.1) date 2025-11-26 18:02:33*
%MOMM*%
%LPD*%
G01*
G04 APERTURE LIST*
G04 Aperture macros list*
%AMRoundRect*
0 Rectangle with rounded corners*
0 $1 Rounding radius*
0 $2 $3 $4 $5 $6 $7 $8 $9 X,Y pos of 4 corners*
0 Add a 4 corners polygon primitive as box body*
4,1,4,$2,$3,$4,$5,$6,$7,$8,$9,$2,$3,0*
0 Add four circle primitives for the rounded corners*
1,1,$1+$1,$2,$3*
1,1,$1+$1,$4,$5*
1,1,$1+$1,$6,$7*
1,1,$1+$1,$8,$9*
0 Add four rect primitives between the rounded corners*
20,1,$1+$1,$2,$3,$4,$5,0*
20,1,$1+$1,$4,$5,$6,$7,0*
20,1,$1+$1,$6,$7,$8,$9,0*
20,1,$1+$1,$8,$9,$2,$3,0*%
G04 Aperture macros list end*
%ADD10C,0.100000*%
%ADD11RoundRect,0.250000X-0.475000X0.250000X-0.475000X-0.250000X0.475000X-0.250000X0.475000X0.250000X0*%
%ADD12C,0.800000*%
%ADD13C,6.400000*%
%ADD14RoundRect,0.250000X1.350000X-0.385000X1.350000X0.385000X-1.350000X0.385000X-1.350000X-0.385000X0*%
%ADD15RoundRect,0.250000X1.600000X-0.425000X1.600000X0.425000X-1.600000X0.425000X-1.600000X-0.425000X0*%
%ADD16O,4.400000X2.200000*%
%ADD17O,4.000000X2.000000*%
%ADD18O,2.000000X4.000000*%
%ADD19RoundRect,0.250000X-1.350000X0.385000X-1.350000X-0.385000X1.350000X-0.385000X1.350000X0.385000X0*%
%ADD20RoundRect,0.250000X-1.600000X0.425000X-1.600000X-0.425000X1.600000X-0.425000X1.600000X0.425000X0*%
%ADD21R,1.600000X3.000000*%
%ADD22R,5.800000X10.680000*%
%ADD23RoundRect,0.250000X-0.250000X-0.475000X0.250000X-0.475000X0.250000X0.475000X-0.250000X0.475000X0*%
%ADD24RoundRect,0.250000X0.250000X0.475000X-0.250000X0.475000X-0.250000X-0.475000X0.250000X-0.475000X0*%
%ADD25O,0.610000X0.360000*%
%ADD26R,1.000000X1.600000*%
%ADD27RoundRect,0.250000X-1.950000X-1.000000X1.950000X-1.000000X1.950000X1.000000X-1.950000X1.000000X0*%
%ADD28R,5.500000X2.150000*%
%ADD29RoundRect,0.237500X-0.250000X-0.237500X0.250000X-0.237500X0.250000X0.237500X-0.250000X0.237500X0*%
%ADD30RoundRect,0.250000X-0.350000X0.850000X-0.350000X-0.850000X0.350000X-0.850000X0.350000X0.850000X0*%
%ADD31RoundRect,0.249997X-2.650003X3.260003X-2.650003X-3.260003X2.650003X-3.260003X2.650003X3.260003X0*%
%ADD32RoundRect,0.250000X-1.000000X-0.650000X1.000000X-0.650000X1.000000X0.650000X-1.000000X0.650000X0*%
G04 APERTURE END LIST*
D10*
X22835000Y-13420000D02*
X45740000Y-13420000D01*
X45740000Y-15460000D01*
X22835000Y-15460000D01*
X22835000Y-13420000D01*
G36*
X22835000Y-13420000D02*
G01*
X45740000Y-13420000D01*
X45740000Y-15460000D01*
X22835000Y-15460000D01*
X22835000Y-13420000D01*
G37*
X7890000Y-210000D02*
X45750000Y-210000D01*
X45750000Y-13390000D01*
X7890000Y-13390000D01*
X7890000Y-210000D01*
G36*
X7890000Y-210000D02*
G01*
X45750000Y-210000D01*
X45750000Y-13390000D01*
X7890000Y-13390000D01*
X7890000Y-210000D01*
G37*
D11*
%TO.C,C2*%
X20700000Y-37135986D03*
X20700000Y-39035986D03*
%TD*%
D12*
%TO.C,H3*%
X1200000Y-40400000D03*
X1902944Y-38702944D03*
X1902944Y-42097056D03*
X3600000Y-38000000D03*
D13*
X3600000Y-40400000D03*
D12*
X3600000Y-42800000D03*
X5297056Y-38702944D03*
X5297056Y-42097056D03*
X6000000Y-40400000D03*
%TD*%
D14*
%TO.C,RF_OUT1*%
X53587500Y-24880000D03*
D15*
X53337500Y-22055000D03*
X53337500Y-27705000D03*
%TD*%
D11*
%TO.C,C12*%
X23140000Y-37142500D03*
X23140000Y-39042500D03*
%TD*%
D16*
%TO.C,Power1*%
X29170000Y-36520000D03*
D17*
X29170000Y-42520000D03*
D18*
X33870000Y-39520000D03*
%TD*%
D12*
%TO.C,H4*%
X50000000Y-40400000D03*
X50702944Y-38702944D03*
X50702944Y-42097056D03*
X52400000Y-38000000D03*
D13*
X52400000Y-40400000D03*
D12*
X52400000Y-42800000D03*
X54097056Y-38702944D03*
X54097056Y-42097056D03*
X54800000Y-40400000D03*
%TD*%
D19*
%TO.C,RF_IN1*%
X2480000Y-16280000D03*
D20*
X2730000Y-19105000D03*
X2730000Y-13455000D03*
%TD*%
D21*
%TO.C,Q1*%
X16140000Y-15610000D03*
D22*
X18430000Y-6530000D03*
D21*
X20720000Y-15610000D03*
%TD*%
D23*
%TO.C,C7*%
X10970000Y-19210000D03*
X12870000Y-19210000D03*
%TD*%
D24*
%TO.C,C3*%
X45790000Y-24860000D03*
X43890000Y-24860000D03*
%TD*%
D25*
%TO.C,U2*%
X9320000Y-16240000D03*
X9320000Y-16890000D03*
X9320000Y-17540000D03*
X11380000Y-17540000D03*
X11380000Y-16890000D03*
X11380000Y-16240000D03*
D26*
X10350000Y-16890000D03*
%TD*%
D27*
%TO.C,C6*%
X38280000Y-35560000D03*
X45680000Y-35560000D03*
%TD*%
D28*
%TO.C,T1*%
X29590000Y-21405000D03*
X29590000Y-24835000D03*
X39090000Y-24835000D03*
X39090000Y-21405000D03*
%TD*%
D12*
%TO.C,H1*%
X1200000Y-3600000D03*
X1902944Y-1902944D03*
X1902944Y-5297056D03*
X3600000Y-1200000D03*
D13*
X3600000Y-3600000D03*
D12*
X3600000Y-6000000D03*
X5297056Y-1902944D03*
X5297056Y-5297056D03*
X6000000Y-3600000D03*
%TD*%
D29*
%TO.C,R1*%
X12505000Y-16350000D03*
X14330000Y-16350000D03*
%TD*%
D11*
%TO.C,C5*%
X36420000Y-38400000D03*
X36420000Y-40300000D03*
%TD*%
D24*
%TO.C,C8*%
X8880000Y-25060000D03*
X6980000Y-25060000D03*
%TD*%
D30*
%TO.C,U1*%
X15220000Y-25180000D03*
D31*
X12940000Y-31790000D03*
D30*
X10660000Y-25180000D03*
%TD*%
D32*
%TO.C,D4*%
X39080000Y-41910000D03*
X43080000Y-41910000D03*
%TD*%
D23*
%TO.C,C10*%
X32040000Y-31140000D03*
X33940000Y-31140000D03*
%TD*%
D12*
%TO.C,H2*%
X50000000Y-3600000D03*
X50702944Y-1902944D03*
X50702944Y-5297056D03*
X52400000Y-1200000D03*
D13*
X52400000Y-3600000D03*
D12*
X52400000Y-6000000D03*
X54097056Y-1902944D03*
X54097056Y-5297056D03*
X54800000Y-3600000D03*
%TD*%
D24*
%TO.C,C11*%
X9320000Y-19220000D03*
X7420000Y-19220000D03*
%TD*%
M02*
