%TF.GenerationSoftware,KiCad,Pcbnew,9.0.6-9.0.6~ubuntu25.04.1*%
%TF.CreationDate,2025-11-26T18:02:33+05:30*%
%TF.ProjectId,HF-PA-v10,48462d50-412d-4763-9130-2e6b69636164,rev?*%
%TF.SameCoordinates,Original*%
%TF.FileFunction,Copper,L2,Bot*%
%TF.FilePolarity,Positive*%
%FSLAX46Y46*%
G04 Gerber Fmt 4.6, Leading zero omitted, Abs format (unit mm)*
G04 Created by KiCad (PCBNEW 9.0.6-9.0.6~ubuntu25.04.1) date 2025-11-26 18:02:33*
%MOMM*%
%LPD*%
G01*
G04 APERTURE LIST*
G04 Aperture macros list*
%AMRoundRect*
0 Rectangle with rounded corners*
0 $1 Rounding radius*
0 $2 $3 $4 $5 $6 $7 $8 $9 X,Y pos of 4 corners*
0 Add a 4 corners polygon primitive as box body*
4,1,4,$2,$3,$4,$5,$6,$7,$8,$9,$2,$3,0*
0 Add four circle primitives for the rounded corners*
1,1,$1+$1,$2,$3*
1,1,$1+$1,$4,$5*
1,1,$1+$1,$6,$7*
1,1,$1+$1,$8,$9*
0 Add four rect primitives between the rounded corners*
20,1,$1+$1,$2,$3,$4,$5,0*
20,1,$1+$1,$4,$5,$6,$7,0*
20,1,$1+$1,$6,$7,$8,$9,0*
20,1,$1+$1,$8,$9,$2,$3,0*%
G04 Aperture macros list end*
%TA.AperFunction,ComponentPad*%
%ADD10C,0.800000*%
%TD*%
%TA.AperFunction,ComponentPad*%
%ADD11C,6.400000*%
%TD*%
%TA.AperFunction,SMDPad,CuDef*%
%ADD12RoundRect,0.250000X1.600000X-0.425000X1.600000X0.425000X-1.600000X0.425000X-1.600000X-0.425000X0*%
%TD*%
%TA.AperFunction,ComponentPad*%
%ADD13O,4.400000X2.200000*%
%TD*%
%TA.AperFunction,ComponentPad*%
%ADD14O,4.000000X2.000000*%
%TD*%
%TA.AperFunction,ComponentPad*%
%ADD15O,2.000000X4.000000*%
%TD*%
%TA.AperFunction,SMDPad,CuDef*%
%ADD16RoundRect,0.250000X-1.600000X0.425000X-1.600000X-0.425000X1.600000X-0.425000X1.600000X0.425000X0*%
%TD*%
%TA.AperFunction,ViaPad*%
%ADD17C,0.800000*%
%TD*%
G04 APERTURE END LIST*
D10*
%TO.P,H3,1,1*%
%TO.N,GND*%
X1200000Y-40400000D03*
X1902944Y-38702944D03*
X1902944Y-42097056D03*
X3600000Y-38000000D03*
D11*
X3600000Y-40400000D03*
D10*
X3600000Y-42800000D03*
X5297056Y-38702944D03*
X5297056Y-42097056D03*
X6000000Y-40400000D03*
%TD*%
D12*
%TO.P,RF_OUT1,2,Ext*%
%TO.N,GND*%
X53337500Y-22055000D03*
X53337500Y-27705000D03*
%TD*%
D13*
%TO.P,Power1,1*%
%TO.N,+VDC*%
X29170000Y-36520000D03*
D14*
%TO.P,Power1,2*%
%TO.N,GND*%
X29170000Y-42520000D03*
D15*
%TO.P,Power1,3*%
%TO.N,unconnected-(Power1-Pad3)*%
X33870000Y-39520000D03*
%TD*%
D10*
%TO.P,H4,1,1*%
%TO.N,GND*%
X50000000Y-40400000D03*
X50702944Y-38702944D03*
X50702944Y-42097056D03*
X52400000Y-38000000D03*
D11*
X52400000Y-40400000D03*
D10*
X52400000Y-42800000D03*
X54097056Y-38702944D03*
X54097056Y-42097056D03*
X54800000Y-40400000D03*
%TD*%
D16*
%TO.P,RF_IN1,2,Ext*%
%TO.N,GND*%
X2730000Y-19105000D03*
X2730000Y-13455000D03*
%TD*%
D10*
%TO.P,H1,1,1*%
%TO.N,GND*%
X1200000Y-3600000D03*
X1902944Y-1902944D03*
X1902944Y-5297056D03*
X3600000Y-1200000D03*
D11*
X3600000Y-3600000D03*
D10*
X3600000Y-6000000D03*
X5297056Y-1902944D03*
X5297056Y-5297056D03*
X6000000Y-3600000D03*
%TD*%
%TO.P,H2,1,1*%
%TO.N,GND*%
X50000000Y-3600000D03*
X50702944Y-1902944D03*
X50702944Y-5297056D03*
X52400000Y-1200000D03*
D11*
X52400000Y-3600000D03*
D10*
X52400000Y-6000000D03*
X54097056Y-1902944D03*
X54097056Y-5297056D03*
X54800000Y-3600000D03*
%TD*%
D17*
%TO.N,GND*%
X41335000Y-10950000D03*
X14335000Y-13950000D03*
X18500000Y-5000000D03*
X3335000Y-20950000D03*
X11500000Y-30500000D03*
X14335000Y-12950000D03*
X7335000Y-14950000D03*
X27335000Y-4950000D03*
X15335000Y-40950000D03*
X6335000Y-20950000D03*
X52335000Y-32950000D03*
X4335000Y-29950000D03*
X10335000Y-7950000D03*
X49335000Y-31950000D03*
X45335000Y-8950000D03*
X48335000Y-42950000D03*
X37335000Y-14950000D03*
X12335000Y-10950000D03*
X24335000Y-15950000D03*
X45335000Y-1950000D03*
X54335000Y-19950000D03*
X18335000Y-32950000D03*
X4335000Y-25950000D03*
X5335000Y-24950000D03*
X45335000Y-41950000D03*
X25335000Y-15950000D03*
X47335000Y-13950000D03*
X11500000Y-31500000D03*
X8335000Y-6950000D03*
X43335000Y-9950000D03*
X14335000Y-39950000D03*
X45335000Y-7950000D03*
X9335000Y-8950000D03*
X23335000Y-29950000D03*
X21335000Y-24950000D03*
X13335000Y-7950000D03*
X31335000Y-32950000D03*
X17500000Y-5000000D03*
X20335000Y-12950000D03*
X13335000Y-24950000D03*
X19335000Y-34950000D03*
X6335000Y-14950000D03*
X25335000Y-1950000D03*
X43335000Y-5950000D03*
X8335000Y-27950000D03*
X7335000Y-12950000D03*
X37335000Y-4950000D03*
X44335000Y-28950000D03*
X14335000Y-17950000D03*
X25335000Y-19950000D03*
X23335000Y-8950000D03*
X36335000Y-7950000D03*
X13335000Y-35950000D03*
X47335000Y-20950000D03*
X8335000Y-20950000D03*
X52335000Y-11950000D03*
X50335000Y-31950000D03*
X52335000Y-33950000D03*
X48335000Y-11950000D03*
X11335000Y-2950000D03*
X23335000Y-25950000D03*
X5335000Y-31950000D03*
X1335000Y-6950000D03*
X32335000Y-8950000D03*
X2335000Y-24950000D03*
X25335000Y-27950000D03*
X13335000Y-42950000D03*
X12335000Y-39950000D03*
X25335000Y-11950000D03*
X19335000Y-42950000D03*
X15335000Y-35950000D03*
X37335000Y-12950000D03*
X1335000Y-36950000D03*
X24335000Y-5950000D03*
X47335000Y-3950000D03*
X18335000Y-30950000D03*
X27335000Y-3950000D03*
X46335000Y-13950000D03*
X26335000Y-42950000D03*
X26335000Y-28950000D03*
X7335000Y-4950000D03*
X35335000Y-10950000D03*
X4335000Y-28950000D03*
X22335000Y-42950000D03*
X49335000Y-36950000D03*
X26335000Y-11950000D03*
X1335000Y-26950000D03*
X16335000Y-19950000D03*
X41335000Y-2950000D03*
X44335000Y-29950000D03*
X43335000Y-8950000D03*
X33335000Y-12950000D03*
X2335000Y-9950000D03*
X14335000Y-2950000D03*
X16335000Y-22950000D03*
X2335000Y-28950000D03*
X11335000Y-9950000D03*
X49335000Y-28950000D03*
X51335000Y-12950000D03*
X23335000Y-3950000D03*
X42335000Y-7950000D03*
X19500000Y-6000000D03*
X50335000Y-16950000D03*
X9335000Y-35950000D03*
X22335000Y-20950000D03*
X16335000Y-12950000D03*
X22335000Y-32950000D03*
X18335000Y-24950000D03*
X14500000Y-30500000D03*
X14335000Y-42950000D03*
X33335000Y-1950000D03*
X44335000Y-9950000D03*
X53335000Y-7950000D03*
X19335000Y-22950000D03*
X13335000Y-36950000D03*
X54335000Y-18950000D03*
X31335000Y-3950000D03*
X18335000Y-15950000D03*
X22335000Y-22950000D03*
X54335000Y-11950000D03*
X19335000Y-31950000D03*
X17335000Y-12950000D03*
X24335000Y-27950000D03*
X16500000Y-2000000D03*
X43335000Y-19950000D03*
X8335000Y-35950000D03*
X44335000Y-21950000D03*
X43335000Y-13950000D03*
X8335000Y-28950000D03*
X54335000Y-10950000D03*
X45335000Y-40950000D03*
X47335000Y-30950000D03*
X46335000Y-3950000D03*
X7335000Y-37950000D03*
X11335000Y-39950000D03*
X51335000Y-10950000D03*
X10335000Y-6950000D03*
X51335000Y-14950000D03*
X7335000Y-26950000D03*
X22335000Y-6950000D03*
X1335000Y-30950000D03*
X11335000Y-4950000D03*
X7335000Y-7950000D03*
X32335000Y-6950000D03*
X42335000Y-10950000D03*
X36335000Y-32950000D03*
X8335000Y-3950000D03*
X29335000Y-8950000D03*
X4335000Y-27950000D03*
X28335000Y-14950000D03*
X11335000Y-3950000D03*
X23335000Y-23950000D03*
X21335000Y-12950000D03*
X44335000Y-22950000D03*
X9335000Y-6950000D03*
X52335000Y-17950000D03*
X1335000Y-29950000D03*
X23335000Y-9950000D03*
X10335000Y-36950000D03*
X42335000Y-4950000D03*
X43335000Y-29950000D03*
X1335000Y-35950000D03*
X35335000Y-32950000D03*
X18335000Y-14950000D03*
X25335000Y-32950000D03*
X10335000Y-42950000D03*
X45335000Y-12950000D03*
X12335000Y-42950000D03*
X49335000Y-12950000D03*
X23335000Y-15950000D03*
X34335000Y-8950000D03*
X23335000Y-2950000D03*
X40335000Y-5950000D03*
X10335000Y-8950000D03*
X37335000Y-6950000D03*
X52335000Y-9950000D03*
X38335000Y-7950000D03*
X50335000Y-10950000D03*
X41335000Y-12950000D03*
X1335000Y-21950000D03*
X4335000Y-33950000D03*
X12335000Y-9950000D03*
X22335000Y-23950000D03*
X45335000Y-20950000D03*
X33335000Y-4950000D03*
X1335000Y-34950000D03*
X47335000Y-26950000D03*
X44335000Y-3950000D03*
X46335000Y-40950000D03*
X13335000Y-4950000D03*
X18500000Y-6000000D03*
X18335000Y-22950000D03*
X52335000Y-12950000D03*
X19335000Y-33950000D03*
X31335000Y-7950000D03*
X32335000Y-4950000D03*
X20335000Y-18950000D03*
X54335000Y-7950000D03*
X43335000Y-12950000D03*
X36335000Y-41950000D03*
X34335000Y-4950000D03*
X18335000Y-19950000D03*
X47335000Y-31950000D03*
X14500000Y-31500000D03*
X39335000Y-8950000D03*
X2335000Y-31950000D03*
X18335000Y-42950000D03*
X13500000Y-32500000D03*
X29335000Y-11950000D03*
X47335000Y-27950000D03*
X16500000Y-7000000D03*
X51335000Y-11950000D03*
X24335000Y-19950000D03*
X9335000Y-42950000D03*
X42335000Y-14950000D03*
X45335000Y-11950000D03*
X44335000Y-26950000D03*
X35335000Y-31950000D03*
X49335000Y-33950000D03*
X2335000Y-26950000D03*
X19335000Y-30950000D03*
X48335000Y-27950000D03*
X51335000Y-16950000D03*
X50335000Y-29950000D03*
X39335000Y-4950000D03*
X4335000Y-24950000D03*
X15335000Y-19950000D03*
X2335000Y-27950000D03*
X30335000Y-12950000D03*
X26335000Y-10950000D03*
X33335000Y-11950000D03*
X5335000Y-33950000D03*
X1335000Y-28950000D03*
X25335000Y-28950000D03*
X27335000Y-30950000D03*
X10335000Y-11950000D03*
X46335000Y-17950000D03*
X47335000Y-5950000D03*
X26335000Y-6950000D03*
X14335000Y-9950000D03*
X8335000Y-4950000D03*
X31335000Y-4950000D03*
X13500000Y-30500000D03*
X20500000Y-5000000D03*
X9335000Y-12950000D03*
X10335000Y-9950000D03*
X21335000Y-21950000D03*
X17500000Y-3000000D03*
X2335000Y-30950000D03*
X29335000Y-6950000D03*
X24335000Y-1950000D03*
X6335000Y-32950000D03*
X17335000Y-39950000D03*
X19335000Y-21950000D03*
X22335000Y-26950000D03*
X5335000Y-32950000D03*
X52335000Y-8950000D03*
X7335000Y-8950000D03*
X1335000Y-23950000D03*
X34335000Y-10950000D03*
X47335000Y-10950000D03*
X19500000Y-2000000D03*
X19335000Y-19950000D03*
X24335000Y-33950000D03*
X18335000Y-12950000D03*
X47335000Y-17950000D03*
X12335000Y-7950000D03*
X30335000Y-1950000D03*
X9335000Y-14950000D03*
X6335000Y-31950000D03*
X11500000Y-34500000D03*
X49335000Y-20950000D03*
X39335000Y-12950000D03*
X50335000Y-34950000D03*
X50335000Y-20950000D03*
X24335000Y-7950000D03*
X39335000Y-14950000D03*
X23335000Y-10950000D03*
X36335000Y-13950000D03*
X11335000Y-40950000D03*
X45335000Y-4950000D03*
X9335000Y-34950000D03*
X42335000Y-11950000D03*
X43335000Y-4950000D03*
X34335000Y-12950000D03*
X20500000Y-3000000D03*
X11500000Y-33500000D03*
X15335000Y-42950000D03*
X8335000Y-14950000D03*
X24335000Y-11950000D03*
X5335000Y-29950000D03*
X46335000Y-8950000D03*
X11335000Y-12950000D03*
X16500000Y-3000000D03*
X5335000Y-35950000D03*
X41335000Y-9950000D03*
X26335000Y-5950000D03*
X7335000Y-20950000D03*
X47335000Y-7950000D03*
X52335000Y-29950000D03*
X12335000Y-20950000D03*
X18335000Y-39950000D03*
X18500000Y-8000000D03*
X25335000Y-21950000D03*
X17335000Y-32950000D03*
X44335000Y-1950000D03*
X46335000Y-9950000D03*
X18335000Y-23950000D03*
X19335000Y-29950000D03*
X12500000Y-34500000D03*
X4335000Y-22950000D03*
X24335000Y-20950000D03*
X11335000Y-6950000D03*
X8335000Y-8950000D03*
X10335000Y-3950000D03*
X17335000Y-27950000D03*
X6335000Y-33950000D03*
X43335000Y-27950000D03*
X49335000Y-13950000D03*
X46335000Y-22950000D03*
X52335000Y-16950000D03*
X12500000Y-32500000D03*
X11335000Y-13950000D03*
X40335000Y-14950000D03*
X38335000Y-9950000D03*
X42335000Y-12950000D03*
X45335000Y-42950000D03*
X22335000Y-1950000D03*
X5335000Y-21950000D03*
X20500000Y-9000000D03*
X20335000Y-23950000D03*
X41335000Y-6950000D03*
X9335000Y-26950000D03*
X48335000Y-10950000D03*
X8335000Y-22950000D03*
X24335000Y-2950000D03*
X36335000Y-5950000D03*
X44335000Y-11950000D03*
X14500000Y-32500000D03*
X8335000Y-7950000D03*
X37335000Y-7950000D03*
X11335000Y-10950000D03*
X28335000Y-6950000D03*
X17335000Y-36950000D03*
X33335000Y-32950000D03*
X29335000Y-3950000D03*
X11335000Y-1950000D03*
X18500000Y-4000000D03*
X13335000Y-40950000D03*
X47335000Y-22950000D03*
X43335000Y-6950000D03*
X36335000Y-12950000D03*
X47335000Y-37950000D03*
X34335000Y-2950000D03*
X47335000Y-4950000D03*
X24335000Y-32950000D03*
X41335000Y-7950000D03*
X15335000Y-18950000D03*
X21335000Y-23950000D03*
X26335000Y-2950000D03*
X3335000Y-34950000D03*
X28335000Y-13950000D03*
X49335000Y-14950000D03*
X44335000Y-4950000D03*
X18500000Y-9000000D03*
X30335000Y-11950000D03*
X3335000Y-23950000D03*
X4335000Y-8950000D03*
X50335000Y-33950000D03*
X18500000Y-2000000D03*
X6335000Y-13950000D03*
X12335000Y-3950000D03*
X20500000Y-8000000D03*
X4335000Y-34950000D03*
X10335000Y-2950000D03*
X22335000Y-30950000D03*
X16335000Y-21950000D03*
X23335000Y-7950000D03*
X40335000Y-9950000D03*
X43335000Y-16950000D03*
X19335000Y-40950000D03*
X5335000Y-9950000D03*
X9335000Y-20950000D03*
X11500000Y-32500000D03*
X48335000Y-21950000D03*
X40335000Y-2950000D03*
X8335000Y-36950000D03*
X19500000Y-7000000D03*
X17500000Y-8000000D03*
X15335000Y-20950000D03*
X46335000Y-10950000D03*
X22335000Y-3950000D03*
X1335000Y-32950000D03*
X7335000Y-29950000D03*
X40335000Y-12950000D03*
X23335000Y-4950000D03*
X23335000Y-34950000D03*
X6335000Y-22950000D03*
X42335000Y-2950000D03*
X21335000Y-22950000D03*
X45335000Y-13950000D03*
X41335000Y-5950000D03*
X23335000Y-30950000D03*
X7335000Y-42950000D03*
X42335000Y-3950000D03*
X17335000Y-20950000D03*
X36335000Y-4950000D03*
X17335000Y-19950000D03*
X15335000Y-12950000D03*
X44335000Y-8950000D03*
X17335000Y-40950000D03*
X35335000Y-6950000D03*
X25335000Y-20950000D03*
X49335000Y-15950000D03*
X50335000Y-30950000D03*
X17335000Y-31950000D03*
X31335000Y-33950000D03*
X40335000Y-3950000D03*
X35335000Y-11950000D03*
X46335000Y-7950000D03*
X52335000Y-18950000D03*
X5335000Y-28950000D03*
X36335000Y-8950000D03*
X16500000Y-6000000D03*
X4335000Y-21950000D03*
X5335000Y-27950000D03*
X17335000Y-28950000D03*
X46335000Y-28950000D03*
X31335000Y-9950000D03*
X13335000Y-6950000D03*
X41335000Y-13950000D03*
X33335000Y-3950000D03*
X8335000Y-29950000D03*
X47335000Y-28950000D03*
X20335000Y-42950000D03*
X34335000Y-7950000D03*
X47335000Y-2950000D03*
X23335000Y-19950000D03*
X41335000Y-14950000D03*
X22335000Y-19950000D03*
X3335000Y-30950000D03*
X54335000Y-32950000D03*
X48335000Y-29950000D03*
X10335000Y-40950000D03*
X44335000Y-13950000D03*
X26335000Y-33950000D03*
X27335000Y-8950000D03*
X13335000Y-3950000D03*
X51335000Y-7950000D03*
X30335000Y-7950000D03*
X18335000Y-35950000D03*
X1335000Y-27950000D03*
X18335000Y-37950000D03*
X47335000Y-8950000D03*
X7335000Y-13950000D03*
X26335000Y-13950000D03*
X22335000Y-25950000D03*
X3335000Y-9950000D03*
X21335000Y-42950000D03*
X44335000Y-14950000D03*
X8335000Y-31950000D03*
X1335000Y-24950000D03*
X54335000Y-33950000D03*
X17335000Y-22950000D03*
X39335000Y-11950000D03*
X49335000Y-42950000D03*
X51335000Y-9950000D03*
X44335000Y-27950000D03*
X24335000Y-3950000D03*
X14500000Y-33500000D03*
X17500000Y-9000000D03*
X26335000Y-12950000D03*
X4335000Y-35950000D03*
X24335000Y-29950000D03*
X4335000Y-26950000D03*
X47335000Y-40950000D03*
X26335000Y-30950000D03*
X2335000Y-22950000D03*
X32335000Y-5950000D03*
X52335000Y-15950000D03*
X30335000Y-9950000D03*
X30335000Y-6950000D03*
X36335000Y-11950000D03*
X27335000Y-33950000D03*
X2335000Y-21950000D03*
X11335000Y-7950000D03*
X4335000Y-9950000D03*
X27335000Y-13950000D03*
X38335000Y-14950000D03*
X23335000Y-28950000D03*
X17335000Y-18950000D03*
X16335000Y-39950000D03*
X10335000Y-12950000D03*
X48335000Y-14950000D03*
X25335000Y-10950000D03*
X45335000Y-5950000D03*
X48335000Y-20950000D03*
X5335000Y-10950000D03*
X24335000Y-22950000D03*
X17335000Y-24950000D03*
X37335000Y-1950000D03*
X36335000Y-1950000D03*
X34335000Y-3950000D03*
X12335000Y-21950000D03*
X25335000Y-12950000D03*
X43335000Y-18950000D03*
X29335000Y-7950000D03*
X47335000Y-6950000D03*
X28335000Y-12950000D03*
X40335000Y-13950000D03*
X6335000Y-8950000D03*
X21335000Y-40950000D03*
X6335000Y-29950000D03*
X50335000Y-7950000D03*
X41335000Y-11950000D03*
X33335000Y-6950000D03*
X14335000Y-20950000D03*
X9335000Y-7950000D03*
X37335000Y-11950000D03*
X24335000Y-10950000D03*
X47335000Y-12950000D03*
X18335000Y-18950000D03*
X31335000Y-11950000D03*
X49335000Y-34950000D03*
X40335000Y-8950000D03*
X37335000Y-10950000D03*
X4335000Y-20950000D03*
X35335000Y-5950000D03*
X25335000Y-2950000D03*
X7335000Y-10950000D03*
X40335000Y-7950000D03*
X3335000Y-26950000D03*
X7335000Y-1950000D03*
X10335000Y-10950000D03*
X1335000Y-31950000D03*
X36335000Y-9950000D03*
X44335000Y-2950000D03*
X7335000Y-9950000D03*
X51335000Y-13950000D03*
X49335000Y-30950000D03*
X16500000Y-5000000D03*
X48335000Y-17950000D03*
X43335000Y-3950000D03*
X27335000Y-2950000D03*
X18335000Y-29950000D03*
X8335000Y-10950000D03*
X42335000Y-1950000D03*
X24335000Y-23950000D03*
X23335000Y-14950000D03*
X54335000Y-6950000D03*
X24335000Y-6950000D03*
X47335000Y-14950000D03*
X30335000Y-2950000D03*
X30335000Y-5950000D03*
X9335000Y-3950000D03*
X17335000Y-33950000D03*
X3335000Y-25950000D03*
X48335000Y-40950000D03*
X9335000Y-1950000D03*
X23335000Y-32950000D03*
X7335000Y-32950000D03*
X5335000Y-30950000D03*
X14335000Y-7950000D03*
X18335000Y-28950000D03*
X14335000Y-22950000D03*
X12335000Y-36950000D03*
X3335000Y-7950000D03*
X42335000Y-5950000D03*
X4335000Y-11950000D03*
X48335000Y-28950000D03*
X43335000Y-26950000D03*
X34335000Y-1950000D03*
X6335000Y-28950000D03*
X16335000Y-40950000D03*
X14335000Y-18950000D03*
X29335000Y-5950000D03*
X30335000Y-3950000D03*
X28335000Y-1950000D03*
X18335000Y-21950000D03*
X35335000Y-8950000D03*
X26335000Y-4950000D03*
X25335000Y-23950000D03*
X25335000Y-4950000D03*
X7335000Y-2950000D03*
X50335000Y-8950000D03*
X7335000Y-28950000D03*
X48335000Y-31950000D03*
X39335000Y-5950000D03*
X43335000Y-28950000D03*
X30335000Y-10950000D03*
X2335000Y-8950000D03*
X34335000Y-13950000D03*
X14500000Y-34500000D03*
X35335000Y-2950000D03*
X45335000Y-9950000D03*
X45335000Y-28950000D03*
X23335000Y-40950000D03*
X44335000Y-7950000D03*
X50335000Y-14950000D03*
X25335000Y-14950000D03*
X27335000Y-31950000D03*
X47335000Y-39950000D03*
X1335000Y-9950000D03*
X48335000Y-38950000D03*
X44335000Y-10950000D03*
X8335000Y-30950000D03*
X31335000Y-5950000D03*
X6335000Y-27950000D03*
X45335000Y-29950000D03*
X54335000Y-34950000D03*
X3335000Y-33950000D03*
X8335000Y-39950000D03*
X51335000Y-8950000D03*
X19335000Y-37950000D03*
X6335000Y-26950000D03*
X4335000Y-10950000D03*
X36335000Y-3950000D03*
X3335000Y-35950000D03*
X50335000Y-17950000D03*
X24335000Y-30950000D03*
X9335000Y-22950000D03*
X15335000Y-36950000D03*
X19335000Y-38950000D03*
X2335000Y-29950000D03*
X23335000Y-33950000D03*
X46335000Y-11950000D03*
X31335000Y-14950000D03*
X16335000Y-17950000D03*
X7335000Y-11950000D03*
X16335000Y-20950000D03*
X38335000Y-11950000D03*
X13500000Y-31500000D03*
X13335000Y-39950000D03*
X37335000Y-5950000D03*
X31335000Y-10950000D03*
X25335000Y-3950000D03*
X20335000Y-22950000D03*
X13500000Y-33500000D03*
X19335000Y-28950000D03*
X49335000Y-10950000D03*
X20500000Y-4000000D03*
X3335000Y-31950000D03*
X54335000Y-35950000D03*
X41335000Y-1950000D03*
X16335000Y-42950000D03*
X48335000Y-12950000D03*
X22335000Y-9950000D03*
X3335000Y-24950000D03*
X44335000Y-6950000D03*
X17335000Y-17950000D03*
X22335000Y-33950000D03*
X48335000Y-13950000D03*
X48335000Y-7950000D03*
X22335000Y-40950000D03*
X43335000Y-11950000D03*
X41335000Y-3950000D03*
X28335000Y-5950000D03*
X2335000Y-23950000D03*
X39335000Y-13950000D03*
X18335000Y-38950000D03*
X22335000Y-12950000D03*
X41335000Y-4950000D03*
X28335000Y-11950000D03*
X3335000Y-28950000D03*
X7335000Y-5950000D03*
X27335000Y-7950000D03*
X26335000Y-29950000D03*
X16335000Y-18950000D03*
X18335000Y-16950000D03*
X38335000Y-2950000D03*
X12500000Y-33500000D03*
X38335000Y-10950000D03*
X45335000Y-10950000D03*
X27335000Y-14950000D03*
X46335000Y-14950000D03*
X24335000Y-26950000D03*
X5335000Y-25950000D03*
X13335000Y-9950000D03*
X5335000Y-8950000D03*
X3335000Y-8950000D03*
X6335000Y-11950000D03*
X34335000Y-14950000D03*
X18335000Y-33950000D03*
X24335000Y-21950000D03*
X42335000Y-9950000D03*
X3335000Y-11950000D03*
X17335000Y-35950000D03*
X28335000Y-7950000D03*
X13500000Y-34500000D03*
X4335000Y-32950000D03*
X17500000Y-7000000D03*
X29335000Y-12950000D03*
X20335000Y-20950000D03*
X30335000Y-13950000D03*
X46335000Y-2950000D03*
X54335000Y-12950000D03*
X54335000Y-14950000D03*
X47335000Y-9950000D03*
X26335000Y-9950000D03*
X15335000Y-39950000D03*
X33335000Y-8950000D03*
X21335000Y-20950000D03*
X13335000Y-12950000D03*
X8335000Y-34950000D03*
X32335000Y-2950000D03*
X36335000Y-10950000D03*
X46335000Y-12950000D03*
X48335000Y-26950000D03*
X49335000Y-9950000D03*
X24335000Y-8950000D03*
X11335000Y-5950000D03*
X49335000Y-16950000D03*
X39335000Y-2950000D03*
X43335000Y-14950000D03*
X31335000Y-6950000D03*
X17335000Y-30950000D03*
X14335000Y-4950000D03*
X24335000Y-4950000D03*
X49335000Y-6950000D03*
X25335000Y-30950000D03*
X52335000Y-34950000D03*
X6335000Y-6950000D03*
X9335000Y-36950000D03*
X49335000Y-32950000D03*
X9335000Y-10950000D03*
X40335000Y-1950000D03*
X6335000Y-7950000D03*
X14335000Y-35950000D03*
X1335000Y-10950000D03*
X25335000Y-9950000D03*
X5335000Y-20950000D03*
X46335000Y-41950000D03*
X12335000Y-11950000D03*
X46335000Y-6950000D03*
X2335000Y-10950000D03*
X19335000Y-36950000D03*
X3335000Y-22950000D03*
X37335000Y-2950000D03*
X8335000Y-33950000D03*
X23335000Y-27950000D03*
X16500000Y-8000000D03*
X39335000Y-3950000D03*
X54335000Y-16950000D03*
X8335000Y-42950000D03*
X25335000Y-8950000D03*
X48335000Y-6950000D03*
X19335000Y-39950000D03*
X5335000Y-34950000D03*
X11335000Y-14950000D03*
X20500000Y-7000000D03*
X33335000Y-7950000D03*
X31335000Y-12950000D03*
X48335000Y-32950000D03*
X18335000Y-36950000D03*
X21335000Y-19950000D03*
X18335000Y-13950000D03*
X47335000Y-32950000D03*
X27335000Y-11950000D03*
X7335000Y-30950000D03*
X24335000Y-9950000D03*
X8335000Y-21950000D03*
X35335000Y-3950000D03*
X10335000Y-13950000D03*
X14335000Y-10950000D03*
X17500000Y-6000000D03*
X50335000Y-12950000D03*
X27335000Y-12950000D03*
X18335000Y-27950000D03*
X32335000Y-33950000D03*
X28335000Y-4950000D03*
X13335000Y-8950000D03*
X50335000Y-28950000D03*
X24335000Y-14950000D03*
X8335000Y-38950000D03*
X28335000Y-3950000D03*
X12335000Y-6950000D03*
X38335000Y-4950000D03*
X7335000Y-3950000D03*
X46335000Y-26950000D03*
X13335000Y-13950000D03*
X2335000Y-7950000D03*
X38335000Y-13950000D03*
X3335000Y-21950000D03*
X45335000Y-21950000D03*
X7335000Y-35950000D03*
X32335000Y-10950000D03*
X23335000Y-24950000D03*
X13335000Y-25950000D03*
X6335000Y-9950000D03*
X48335000Y-9950000D03*
X23335000Y-11950000D03*
X46335000Y-27950000D03*
X27335000Y-10950000D03*
X14335000Y-3950000D03*
X19500000Y-5000000D03*
X7335000Y-22950000D03*
X2335000Y-33950000D03*
X26335000Y-31950000D03*
X12335000Y-8950000D03*
X23335000Y-21950000D03*
X12335000Y-2950000D03*
X26335000Y-3950000D03*
X23335000Y-13950000D03*
X22335000Y-31950000D03*
X40335000Y-4950000D03*
X3335000Y-29950000D03*
X22335000Y-29950000D03*
X36335000Y-6950000D03*
X31335000Y-1950000D03*
X22335000Y-28950000D03*
X6335000Y-21950000D03*
X30335000Y-4950000D03*
X48335000Y-37950000D03*
X23335000Y-26950000D03*
X25335000Y-25950000D03*
X19500000Y-3000000D03*
X32335000Y-13950000D03*
X8335000Y-11950000D03*
X31335000Y-8950000D03*
X46335000Y-29950000D03*
X46335000Y-5950000D03*
X54335000Y-30950000D03*
X32335000Y-9950000D03*
X15335000Y-22950000D03*
X43335000Y-22950000D03*
X50335000Y-9950000D03*
X12500000Y-30500000D03*
X50335000Y-32950000D03*
X29335000Y-2950000D03*
X2335000Y-11950000D03*
X25335000Y-33950000D03*
X42335000Y-8950000D03*
X22335000Y-4950000D03*
X41335000Y-8950000D03*
X49335000Y-17950000D03*
X18335000Y-31950000D03*
X22335000Y-34950000D03*
X4335000Y-31950000D03*
X39335000Y-7950000D03*
X26335000Y-27950000D03*
X1335000Y-25950000D03*
X24335000Y-31950000D03*
X45335000Y-6950000D03*
X19335000Y-17950000D03*
X18335000Y-20950000D03*
X14335000Y-11950000D03*
X38335000Y-12950000D03*
X9335000Y-40950000D03*
X19500000Y-9000000D03*
X33335000Y-9950000D03*
X52335000Y-30950000D03*
X32335000Y-11950000D03*
X22335000Y-27950000D03*
X12335000Y-1950000D03*
X25335000Y-31950000D03*
X1335000Y-33950000D03*
X24335000Y-13950000D03*
X26335000Y-32950000D03*
X35335000Y-14950000D03*
X20335000Y-24950000D03*
X6335000Y-35950000D03*
X26335000Y-14950000D03*
X49335000Y-29950000D03*
X52335000Y-7950000D03*
X13500000Y-29500000D03*
X26335000Y-26950000D03*
X37335000Y-13950000D03*
X33335000Y-10950000D03*
X14335000Y-6950000D03*
X18335000Y-40950000D03*
X9335000Y-13950000D03*
X45335000Y-3950000D03*
X8335000Y-37950000D03*
X2335000Y-20950000D03*
X54335000Y-31950000D03*
X4335000Y-23950000D03*
X12335000Y-13950000D03*
X3335000Y-27950000D03*
X14335000Y-1950000D03*
X7335000Y-31950000D03*
X7335000Y-21950000D03*
X10335000Y-5950000D03*
X51335000Y-17950000D03*
X28335000Y-9950000D03*
X29335000Y-1950000D03*
X43335000Y-17950000D03*
X46335000Y-20950000D03*
X29335000Y-10950000D03*
X40335000Y-11950000D03*
X1335000Y-7950000D03*
X14335000Y-36950000D03*
X39335000Y-10950000D03*
X5335000Y-23950000D03*
X33335000Y-5950000D03*
X7335000Y-36950000D03*
X30335000Y-8950000D03*
X8335000Y-13950000D03*
X8335000Y-9950000D03*
X23335000Y-20950000D03*
X46335000Y-1950000D03*
X17500000Y-2000000D03*
X52335000Y-13950000D03*
X4335000Y-30950000D03*
X11500000Y-29500000D03*
X19335000Y-20950000D03*
X2335000Y-34950000D03*
X33335000Y-13950000D03*
X54335000Y-17950000D03*
X22335000Y-2950000D03*
X45335000Y-14950000D03*
X10335000Y-14950000D03*
X16335000Y-36950000D03*
X48335000Y-41950000D03*
X9335000Y-5950000D03*
X1335000Y-20950000D03*
X17335000Y-29950000D03*
X54335000Y-29950000D03*
X17335000Y-21950000D03*
X18500000Y-7000000D03*
X28335000Y-8950000D03*
X47335000Y-11950000D03*
X43335000Y-15950000D03*
X5335000Y-11950000D03*
X8335000Y-32950000D03*
X48335000Y-8950000D03*
X22335000Y-5950000D03*
X9335000Y-39950000D03*
X52335000Y-10950000D03*
X17335000Y-34950000D03*
X22335000Y-11950000D03*
X13335000Y-20950000D03*
X35335000Y-4950000D03*
X9335000Y-21950000D03*
X3335000Y-10950000D03*
X11335000Y-8950000D03*
X43335000Y-2950000D03*
X42335000Y-6950000D03*
X18335000Y-34950000D03*
X43335000Y-10950000D03*
X28335000Y-10950000D03*
X5335000Y-22950000D03*
X26335000Y-7950000D03*
X11335000Y-42950000D03*
X38335000Y-5950000D03*
X13335000Y-5950000D03*
X22335000Y-21950000D03*
X22335000Y-24950000D03*
X8335000Y-26950000D03*
X20335000Y-19950000D03*
X14335000Y-19950000D03*
X25335000Y-13950000D03*
X16335000Y-35950000D03*
X48335000Y-30950000D03*
X34335000Y-5950000D03*
X1335000Y-11950000D03*
X12335000Y-22950000D03*
X22335000Y-7950000D03*
X19335000Y-18950000D03*
X24335000Y-28950000D03*
X1335000Y-8950000D03*
X47335000Y-1950000D03*
X9335000Y-11950000D03*
X54335000Y-9950000D03*
X16500000Y-4000000D03*
X5335000Y-7950000D03*
X20500000Y-2000000D03*
X54335000Y-13950000D03*
X25335000Y-5950000D03*
X17500000Y-4000000D03*
X50335000Y-35950000D03*
X8335000Y-40950000D03*
X12335000Y-14950000D03*
X35335000Y-13950000D03*
X37335000Y-9950000D03*
X49335000Y-7950000D03*
X35335000Y-1950000D03*
X44335000Y-20950000D03*
X43335000Y-1950000D03*
X45335000Y-2950000D03*
X50335000Y-15950000D03*
X7335000Y-6950000D03*
X10335000Y-39950000D03*
X12335000Y-40950000D03*
X30335000Y-14950000D03*
X38335000Y-3950000D03*
X8335000Y-12950000D03*
X16500000Y-9000000D03*
X13335000Y-21950000D03*
X13335000Y-11950000D03*
X32335000Y-1950000D03*
X47335000Y-15950000D03*
X8335000Y-2950000D03*
X25335000Y-29950000D03*
X49335000Y-35950000D03*
X29335000Y-9950000D03*
X26335000Y-8950000D03*
X23335000Y-5950000D03*
X23335000Y-6950000D03*
X34335000Y-9950000D03*
X19335000Y-12950000D03*
X46335000Y-42950000D03*
X27335000Y-1950000D03*
X49335000Y-11950000D03*
X25335000Y-7950000D03*
X6335000Y-34950000D03*
X44335000Y-5950000D03*
X4335000Y-7950000D03*
X39335000Y-6950000D03*
X13335000Y-23950000D03*
X47335000Y-42950000D03*
X35335000Y-9950000D03*
X13335000Y-1950000D03*
X12500000Y-29500000D03*
X13335000Y-14950000D03*
X19335000Y-23950000D03*
X45335000Y-27950000D03*
X19335000Y-35950000D03*
X8335000Y-1950000D03*
X23335000Y-31950000D03*
X44335000Y-12950000D03*
X51335000Y-15950000D03*
X2335000Y-32950000D03*
X52335000Y-14950000D03*
X6335000Y-30950000D03*
X31335000Y-2950000D03*
X24335000Y-24950000D03*
X27335000Y-32950000D03*
X47335000Y-41950000D03*
X14335000Y-40950000D03*
X47335000Y-29950000D03*
X42335000Y-13950000D03*
X40335000Y-6950000D03*
X32335000Y-32950000D03*
X36335000Y-31950000D03*
X52335000Y-19950000D03*
X33335000Y-2950000D03*
X10335000Y-1950000D03*
X12500000Y-31500000D03*
X28335000Y-2950000D03*
X49335000Y-8950000D03*
X40335000Y-10950000D03*
X18335000Y-17950000D03*
X33335000Y-33950000D03*
X11335000Y-36950000D03*
X32335000Y-7950000D03*
X45335000Y-22950000D03*
X27335000Y-6950000D03*
X11335000Y-11950000D03*
X17335000Y-42950000D03*
X23335000Y-1950000D03*
X17335000Y-23950000D03*
X23335000Y-12950000D03*
X2335000Y-35950000D03*
X32335000Y-3950000D03*
X22335000Y-10950000D03*
X34335000Y-32950000D03*
X32335000Y-14950000D03*
X23335000Y-42950000D03*
X8335000Y-5950000D03*
X45335000Y-26950000D03*
X13335000Y-2950000D03*
X27335000Y-9950000D03*
X54335000Y-15950000D03*
X48335000Y-22950000D03*
X29335000Y-4950000D03*
X48335000Y-39950000D03*
X27335000Y-5950000D03*
X35335000Y-7950000D03*
X14335000Y-8950000D03*
X54335000Y-8950000D03*
X7335000Y-34950000D03*
X36335000Y-2950000D03*
X48335000Y-15950000D03*
X47335000Y-21950000D03*
X3335000Y-32950000D03*
X15335000Y-17950000D03*
X50335000Y-13950000D03*
X29335000Y-13950000D03*
X29335000Y-14950000D03*
X20335000Y-21950000D03*
X19335000Y-24950000D03*
X25335000Y-22950000D03*
X6335000Y-12950000D03*
X7335000Y-33950000D03*
X26335000Y-1950000D03*
X47335000Y-38950000D03*
X13335000Y-22950000D03*
X31335000Y-13950000D03*
X38335000Y-6950000D03*
X5335000Y-26950000D03*
X32335000Y-12950000D03*
X24335000Y-42950000D03*
X6335000Y-10950000D03*
X25335000Y-42950000D03*
X25335000Y-26950000D03*
X12335000Y-4950000D03*
X38335000Y-8950000D03*
X22335000Y-8950000D03*
X20335000Y-40950000D03*
X37335000Y-3950000D03*
X46335000Y-4950000D03*
X24335000Y-12950000D03*
X39335000Y-1950000D03*
X15335000Y-21950000D03*
X43335000Y-7950000D03*
X35335000Y-33950000D03*
X37335000Y-8950000D03*
X46335000Y-21950000D03*
X23335000Y-22950000D03*
X9335000Y-9950000D03*
X12335000Y-12950000D03*
X34335000Y-6950000D03*
X43335000Y-21950000D03*
X13335000Y-10950000D03*
X14335000Y-21950000D03*
X38335000Y-1950000D03*
X14335000Y-5950000D03*
X7335000Y-27950000D03*
X2335000Y-25950000D03*
X25335000Y-24950000D03*
X25335000Y-6950000D03*
X12335000Y-5950000D03*
X36335000Y-14950000D03*
X24335000Y-25950000D03*
X33335000Y-14950000D03*
X20500000Y-6000000D03*
X34335000Y-33950000D03*
X19500000Y-8000000D03*
X19335000Y-32950000D03*
X18500000Y-3000000D03*
X19500000Y-4000000D03*
X9335000Y-2950000D03*
X1335000Y-22950000D03*
X14500000Y-29500000D03*
X52335000Y-31950000D03*
X6335000Y-36950000D03*
X36335000Y-42950000D03*
X52335000Y-35950000D03*
X10335000Y-4950000D03*
X50335000Y-11950000D03*
X39335000Y-9950000D03*
X43335000Y-20950000D03*
X34335000Y-11950000D03*
X35335000Y-12950000D03*
X9335000Y-4950000D03*
%TD*%
%TA.AperFunction,Conductor*%
%TO.N,GND*%
G36*
X53003472Y-50695D02*
G01*
X53323297Y-68656D01*
X53337094Y-70210D01*
X53649457Y-123283D01*
X53663014Y-126377D01*
X53967469Y-214089D01*
X53980593Y-218682D01*
X54273304Y-339926D01*
X54285826Y-345955D01*
X54452594Y-438125D01*
X54563139Y-499221D01*
X54574900Y-506611D01*
X54833314Y-689966D01*
X54844174Y-698627D01*
X55080418Y-909749D01*
X55090250Y-919581D01*
X55301372Y-1155825D01*
X55310035Y-1166687D01*
X55493385Y-1425094D01*
X55500778Y-1436860D01*
X55654040Y-1714166D01*
X55660073Y-1726695D01*
X55781317Y-2019406D01*
X55785910Y-2032530D01*
X55873622Y-2336985D01*
X55876716Y-2350542D01*
X55908248Y-2536122D01*
X55910000Y-2556893D01*
X55910000Y-22606000D01*
X55890315Y-22673039D01*
X55837511Y-22718794D01*
X55786000Y-22730000D01*
X51250000Y-22730000D01*
X51250000Y-26860000D01*
X55786000Y-26860000D01*
X55853039Y-26879685D01*
X55898794Y-26932489D01*
X55910000Y-26984000D01*
X55910000Y-41443105D01*
X55908248Y-41463876D01*
X55876716Y-41649457D01*
X55873622Y-41663014D01*
X55785910Y-41967469D01*
X55781317Y-41980593D01*
X55660073Y-42273304D01*
X55654040Y-42285833D01*
X55500778Y-42563139D01*
X55493380Y-42574913D01*
X55310043Y-42833302D01*
X55301372Y-42844174D01*
X55090250Y-43080418D01*
X55080418Y-43090250D01*
X54844174Y-43301372D01*
X54833302Y-43310043D01*
X54574913Y-43493380D01*
X54563139Y-43500778D01*
X54285833Y-43654040D01*
X54273304Y-43660073D01*
X53980593Y-43781317D01*
X53967469Y-43785910D01*
X53663014Y-43873622D01*
X53649457Y-43876716D01*
X53337105Y-43929787D01*
X53323287Y-43931344D01*
X53003472Y-43949305D01*
X52996519Y-43949500D01*
X3003481Y-43949500D01*
X2996528Y-43949305D01*
X2676712Y-43931344D01*
X2662894Y-43929787D01*
X2350542Y-43876716D01*
X2336985Y-43873622D01*
X2032530Y-43785910D01*
X2019406Y-43781317D01*
X1726695Y-43660073D01*
X1714166Y-43654040D01*
X1436860Y-43500778D01*
X1425094Y-43493385D01*
X1166687Y-43310035D01*
X1155825Y-43301372D01*
X919581Y-43090250D01*
X909749Y-43080418D01*
X698627Y-42844174D01*
X689966Y-42833314D01*
X506611Y-42574900D01*
X499221Y-42563139D01*
X345959Y-42285833D01*
X339926Y-42273304D01*
X218682Y-41980593D01*
X214089Y-41967469D01*
X126377Y-41663014D01*
X123283Y-41649456D01*
X101752Y-41522731D01*
X100000Y-41501961D01*
X100000Y-38425513D01*
X32669500Y-38425513D01*
X32669500Y-40614486D01*
X32699059Y-40801118D01*
X32757454Y-40980836D01*
X32843240Y-41149199D01*
X32954310Y-41302073D01*
X33087927Y-41435690D01*
X33240801Y-41546760D01*
X33320347Y-41587290D01*
X33409163Y-41632545D01*
X33409165Y-41632545D01*
X33409168Y-41632547D01*
X33482349Y-41656325D01*
X33588881Y-41690940D01*
X33775514Y-41720500D01*
X33775519Y-41720500D01*
X33964486Y-41720500D01*
X34151118Y-41690940D01*
X34330832Y-41632547D01*
X34499199Y-41546760D01*
X34652073Y-41435690D01*
X34785690Y-41302073D01*
X34896760Y-41149199D01*
X34982547Y-40980832D01*
X35040940Y-40801118D01*
X35070500Y-40614486D01*
X35070500Y-38425513D01*
X35040940Y-38238881D01*
X34982545Y-38059163D01*
X34896759Y-37890800D01*
X34785690Y-37737927D01*
X34652073Y-37604310D01*
X34499199Y-37493240D01*
X34330836Y-37407454D01*
X34151118Y-37349059D01*
X33964486Y-37319500D01*
X33964481Y-37319500D01*
X33775519Y-37319500D01*
X33775514Y-37319500D01*
X33588881Y-37349059D01*
X33409163Y-37407454D01*
X33240800Y-37493240D01*
X33153579Y-37556610D01*
X33087927Y-37604310D01*
X33087925Y-37604312D01*
X33087924Y-37604312D01*
X32954312Y-37737924D01*
X32954312Y-37737925D01*
X32954310Y-37737927D01*
X32917583Y-37788477D01*
X32843240Y-37890800D01*
X32757454Y-38059163D01*
X32699059Y-38238881D01*
X32669500Y-38425513D01*
X100000Y-38425513D01*
X100000Y-36417648D01*
X26769500Y-36417648D01*
X26769500Y-36622351D01*
X26801522Y-36824534D01*
X26864781Y-37019223D01*
X26957715Y-37201613D01*
X27078028Y-37367213D01*
X27222786Y-37511971D01*
X27349885Y-37604312D01*
X27388390Y-37632287D01*
X27504607Y-37691503D01*
X27570776Y-37725218D01*
X27570778Y-37725218D01*
X27570781Y-37725220D01*
X27675137Y-37759127D01*
X27765465Y-37788477D01*
X27866557Y-37804488D01*
X27967648Y-37820500D01*
X27967649Y-37820500D01*
X30372351Y-37820500D01*
X30372352Y-37820500D01*
X30574534Y-37788477D01*
X30769219Y-37725220D01*
X30951610Y-37632287D01*
X31044590Y-37564732D01*
X31117213Y-37511971D01*
X31117215Y-37511968D01*
X31117219Y-37511966D01*
X31261966Y-37367219D01*
X31261968Y-37367215D01*
X31261971Y-37367213D01*
X31314732Y-37294590D01*
X31382287Y-37201610D01*
X31475220Y-37019219D01*
X31538477Y-36824534D01*
X31570500Y-36622352D01*
X31570500Y-36417648D01*
X31538477Y-36215466D01*
X31475220Y-36020781D01*
X31475218Y-36020778D01*
X31475218Y-36020776D01*
X31441503Y-35954607D01*
X31382287Y-35838390D01*
X31374556Y-35827749D01*
X31261971Y-35672786D01*
X31117213Y-35528028D01*
X30951613Y-35407715D01*
X30951612Y-35407714D01*
X30951610Y-35407713D01*
X30894653Y-35378691D01*
X30769223Y-35314781D01*
X30574534Y-35251522D01*
X30399995Y-35223878D01*
X30372352Y-35219500D01*
X27967648Y-35219500D01*
X27943329Y-35223351D01*
X27765465Y-35251522D01*
X27570776Y-35314781D01*
X27388386Y-35407715D01*
X27222786Y-35528028D01*
X27078028Y-35672786D01*
X26957715Y-35838386D01*
X26864781Y-36020776D01*
X26801522Y-36215465D01*
X26769500Y-36417648D01*
X100000Y-36417648D01*
X100000Y-18504000D01*
X119685Y-18436961D01*
X172489Y-18391206D01*
X224000Y-18380000D01*
X5140000Y-18380000D01*
X5140000Y-14170000D01*
X224000Y-14170000D01*
X156961Y-14150315D01*
X111206Y-14097511D01*
X100000Y-14046000D01*
X100000Y-2498037D01*
X101752Y-2477266D01*
X123283Y-2350542D01*
X126377Y-2336985D01*
X214089Y-2032530D01*
X218682Y-2019406D01*
X265947Y-1905298D01*
X339929Y-1726686D01*
X345951Y-1714180D01*
X499227Y-1436850D01*
X506605Y-1425107D01*
X689972Y-1166676D01*
X698619Y-1155834D01*
X909750Y-919579D01*
X919581Y-909749D01*
X1155834Y-698619D01*
X1166676Y-689972D01*
X1425107Y-506605D01*
X1436850Y-499227D01*
X1714180Y-345951D01*
X1726686Y-339929D01*
X2019406Y-218682D01*
X2032526Y-214090D01*
X2336990Y-126375D01*
X2350537Y-123283D01*
X2662907Y-70210D01*
X2676700Y-68656D01*
X2996528Y-50695D01*
X3003481Y-50500D01*
X3016408Y-50500D01*
X52983592Y-50500D01*
X52996519Y-50500D01*
X53003472Y-50695D01*
G37*
%TD.AperFunction*%
%TD*%
M02*
