%TF.GenerationSoftware,KiCad,Pcbnew,9.0.6-9.0.6~ubuntu25.04.1*%
%TF.CreationDate,2025-11-26T18:02:33+05:30*%
%TF.ProjectId,HF-PA-v10,48462d50-412d-4763-9130-2e6b69636164,rev?*%
%TF.SameCoordinates,Original*%
%TF.FileFunction,Copper,L1,Top*%
%TF.FilePolarity,Positive*%
%FSLAX46Y46*%
G04 Gerber Fmt 4.6, Leading zero omitted, Abs format (unit mm)*
G04 Created by KiCad (PCBNEW 9.0.6-9.0.6~ubuntu25.04.1) date 2025-11-26 18:02:33*
%MOMM*%
%LPD*%
G01*
G04 APERTURE LIST*
G04 Aperture macros list*
%AMRoundRect*
0 Rectangle with rounded corners*
0 $1 Rounding radius*
0 $2 $3 $4 $5 $6 $7 $8 $9 X,Y pos of 4 corners*
0 Add a 4 corners polygon primitive as box body*
4,1,4,$2,$3,$4,$5,$6,$7,$8,$9,$2,$3,0*
0 Add four circle primitives for the rounded corners*
1,1,$1+$1,$2,$3*
1,1,$1+$1,$4,$5*
1,1,$1+$1,$6,$7*
1,1,$1+$1,$8,$9*
0 Add four rect primitives between the rounded corners*
20,1,$1+$1,$2,$3,$4,$5,0*
20,1,$1+$1,$4,$5,$6,$7,0*
20,1,$1+$1,$6,$7,$8,$9,0*
20,1,$1+$1,$8,$9,$2,$3,0*%
G04 Aperture macros list end*
%TA.AperFunction,SMDPad,CuDef*%
%ADD10RoundRect,0.250000X-0.475000X0.250000X-0.475000X-0.250000X0.475000X-0.250000X0.475000X0.250000X0*%
%TD*%
%TA.AperFunction,ComponentPad*%
%ADD11C,0.800000*%
%TD*%
%TA.AperFunction,ComponentPad*%
%ADD12C,6.400000*%
%TD*%
%TA.AperFunction,SMDPad,CuDef*%
%ADD13RoundRect,0.250000X1.350000X-0.385000X1.350000X0.385000X-1.350000X0.385000X-1.350000X-0.385000X0*%
%TD*%
%TA.AperFunction,SMDPad,CuDef*%
%ADD14RoundRect,0.250000X1.600000X-0.425000X1.600000X0.425000X-1.600000X0.425000X-1.600000X-0.425000X0*%
%TD*%
%TA.AperFunction,ComponentPad*%
%ADD15O,4.400000X2.200000*%
%TD*%
%TA.AperFunction,ComponentPad*%
%ADD16O,4.000000X2.000000*%
%TD*%
%TA.AperFunction,ComponentPad*%
%ADD17O,2.000000X4.000000*%
%TD*%
%TA.AperFunction,SMDPad,CuDef*%
%ADD18RoundRect,0.250000X-1.350000X0.385000X-1.350000X-0.385000X1.350000X-0.385000X1.350000X0.385000X0*%
%TD*%
%TA.AperFunction,SMDPad,CuDef*%
%ADD19RoundRect,0.250000X-1.600000X0.425000X-1.600000X-0.425000X1.600000X-0.425000X1.600000X0.425000X0*%
%TD*%
%TA.AperFunction,SMDPad,CuDef*%
%ADD20R,1.600000X3.000000*%
%TD*%
%TA.AperFunction,SMDPad,CuDef*%
%ADD21R,5.800000X10.680000*%
%TD*%
%TA.AperFunction,SMDPad,CuDef*%
%ADD22RoundRect,0.250000X-0.250000X-0.475000X0.250000X-0.475000X0.250000X0.475000X-0.250000X0.475000X0*%
%TD*%
%TA.AperFunction,SMDPad,CuDef*%
%ADD23RoundRect,0.250000X0.250000X0.475000X-0.250000X0.475000X-0.250000X-0.475000X0.250000X-0.475000X0*%
%TD*%
%TA.AperFunction,SMDPad,CuDef*%
%ADD24O,0.610000X0.360000*%
%TD*%
%TA.AperFunction,SMDPad,CuDef*%
%ADD25R,1.000000X1.600000*%
%TD*%
%TA.AperFunction,SMDPad,CuDef*%
%ADD26RoundRect,0.250000X-1.950000X-1.000000X1.950000X-1.000000X1.950000X1.000000X-1.950000X1.000000X0*%
%TD*%
%TA.AperFunction,SMDPad,CuDef*%
%ADD27R,5.500000X2.150000*%
%TD*%
%TA.AperFunction,SMDPad,CuDef*%
%ADD28RoundRect,0.237500X-0.250000X-0.237500X0.250000X-0.237500X0.250000X0.237500X-0.250000X0.237500X0*%
%TD*%
%TA.AperFunction,SMDPad,CuDef*%
%ADD29RoundRect,0.250000X-0.350000X0.850000X-0.350000X-0.850000X0.350000X-0.850000X0.350000X0.850000X0*%
%TD*%
%TA.AperFunction,SMDPad,CuDef*%
%ADD30RoundRect,0.250000X-1.125000X1.275000X-1.125000X-1.275000X1.125000X-1.275000X1.125000X1.275000X0*%
%TD*%
%TA.AperFunction,SMDPad,CuDef*%
%ADD31RoundRect,0.249997X-2.650003X3.260003X-2.650003X-3.260003X2.650003X-3.260003X2.650003X3.260003X0*%
%TD*%
%TA.AperFunction,SMDPad,CuDef*%
%ADD32RoundRect,0.250000X-1.125000X1.585000X-1.125000X-1.585000X1.125000X-1.585000X1.125000X1.585000X0*%
%TD*%
%TA.AperFunction,SMDPad,CuDef*%
%ADD33RoundRect,0.250000X-1.000000X-0.650000X1.000000X-0.650000X1.000000X0.650000X-1.000000X0.650000X0*%
%TD*%
%TA.AperFunction,ViaPad*%
%ADD34C,0.800000*%
%TD*%
%TA.AperFunction,Conductor*%
%ADD35C,1.700000*%
%TD*%
%TA.AperFunction,Conductor*%
%ADD36C,2.540000*%
%TD*%
%TA.AperFunction,Conductor*%
%ADD37C,1.000000*%
%TD*%
%TA.AperFunction,Conductor*%
%ADD38C,1.500000*%
%TD*%
%TA.AperFunction,Conductor*%
%ADD39C,0.500000*%
%TD*%
%TA.AperFunction,Conductor*%
%ADD40C,1.200000*%
%TD*%
%TA.AperFunction,Conductor*%
%ADD41C,2.000000*%
%TD*%
G04 APERTURE END LIST*
D10*
%TO.P,C2,1*%
%TO.N,+VDC*%
X20700000Y-37135986D03*
%TO.P,C2,2*%
%TO.N,GND*%
X20700000Y-39035986D03*
%TD*%
D11*
%TO.P,H3,1,1*%
%TO.N,GND*%
X1200000Y-40400000D03*
X1902944Y-38702944D03*
X1902944Y-42097056D03*
X3600000Y-38000000D03*
D12*
X3600000Y-40400000D03*
D11*
X3600000Y-42800000D03*
X5297056Y-38702944D03*
X5297056Y-42097056D03*
X6000000Y-40400000D03*
%TD*%
D13*
%TO.P,RF_OUT1,1,In*%
%TO.N,Net-(RF_OUT1-In)*%
X53587500Y-24880000D03*
D14*
%TO.P,RF_OUT1,2,Ext*%
%TO.N,GND*%
X53337500Y-22055000D03*
X53337500Y-27705000D03*
%TD*%
D10*
%TO.P,C12,1*%
%TO.N,+VDC*%
X23140000Y-37142500D03*
%TO.P,C12,2*%
%TO.N,GND*%
X23140000Y-39042500D03*
%TD*%
D15*
%TO.P,Power1,1*%
%TO.N,+VDC*%
X29170000Y-36520000D03*
D16*
%TO.P,Power1,2*%
%TO.N,GND*%
X29170000Y-42520000D03*
D17*
%TO.P,Power1,3*%
%TO.N,unconnected-(Power1-Pad3)*%
X33870000Y-39520000D03*
%TD*%
D11*
%TO.P,H4,1,1*%
%TO.N,GND*%
X50000000Y-40400000D03*
X50702944Y-38702944D03*
X50702944Y-42097056D03*
X52400000Y-38000000D03*
D12*
X52400000Y-40400000D03*
D11*
X52400000Y-42800000D03*
X54097056Y-38702944D03*
X54097056Y-42097056D03*
X54800000Y-40400000D03*
%TD*%
D18*
%TO.P,RF_IN1,1,In*%
%TO.N,Net-(RF_IN1-In)*%
X2480000Y-16280000D03*
D19*
%TO.P,RF_IN1,2,Ext*%
%TO.N,GND*%
X2730000Y-19105000D03*
X2730000Y-13455000D03*
%TD*%
D20*
%TO.P,Q1,1,G*%
%TO.N,Net-(Q1-G)*%
X16140000Y-15610000D03*
D21*
%TO.P,Q1,2,S*%
%TO.N,GND*%
X18430000Y-6530000D03*
D20*
%TO.P,Q1,3,D*%
%TO.N,/DRAIN*%
X20720000Y-15610000D03*
%TD*%
D22*
%TO.P,C7,1*%
%TO.N,+5V*%
X10970000Y-19210000D03*
%TO.P,C7,2*%
%TO.N,GND*%
X12870000Y-19210000D03*
%TD*%
D23*
%TO.P,C3,1*%
%TO.N,Net-(RF_OUT1-In)*%
X45790000Y-24860000D03*
%TO.P,C3,2*%
%TO.N,Net-(C3-Pad2)*%
X43890000Y-24860000D03*
%TD*%
D24*
%TO.P,U2,1,IN+*%
%TO.N,Net-(RF_IN1-In)*%
X9320000Y-16240000D03*
%TO.P,U2,2,GND*%
%TO.N,GND*%
X9320000Y-16890000D03*
%TO.P,U2,3,VDD*%
%TO.N,+5V*%
X9320000Y-17540000D03*
%TO.P,U2,4,OUTH*%
%TO.N,Net-(U2-OUTH)*%
X11380000Y-17540000D03*
%TO.P,U2,5,OUTL*%
X11380000Y-16890000D03*
%TO.P,U2,6,IN-*%
%TO.N,GND*%
X11380000Y-16240000D03*
D25*
%TO.P,U2,7,EP*%
X10350000Y-16890000D03*
%TD*%
D26*
%TO.P,C6,1*%
%TO.N,+VDC*%
X38280000Y-35560000D03*
%TO.P,C6,2*%
%TO.N,GND*%
X45680000Y-35560000D03*
%TD*%
D27*
%TO.P,T1,1*%
%TO.N,/DRAIN*%
X29590000Y-21405000D03*
%TO.P,T1,2*%
%TO.N,+VDC*%
X29590000Y-24835000D03*
%TO.P,T1,3*%
%TO.N,Net-(C3-Pad2)*%
X39090000Y-24835000D03*
%TO.P,T1,4*%
%TO.N,/DRAIN*%
X39090000Y-21405000D03*
%TD*%
D11*
%TO.P,H1,1,1*%
%TO.N,GND*%
X1200000Y-3600000D03*
X1902944Y-1902944D03*
X1902944Y-5297056D03*
X3600000Y-1200000D03*
D12*
X3600000Y-3600000D03*
D11*
X3600000Y-6000000D03*
X5297056Y-1902944D03*
X5297056Y-5297056D03*
X6000000Y-3600000D03*
%TD*%
D28*
%TO.P,R1,1*%
%TO.N,Net-(U2-OUTH)*%
X12505000Y-16350000D03*
%TO.P,R1,2*%
%TO.N,Net-(Q1-G)*%
X14330000Y-16350000D03*
%TD*%
D10*
%TO.P,C5,1*%
%TO.N,+VDC*%
X36420000Y-38400000D03*
%TO.P,C5,2*%
%TO.N,GND*%
X36420000Y-40300000D03*
%TD*%
D23*
%TO.P,C8,1*%
%TO.N,+5V*%
X8880000Y-25060000D03*
%TO.P,C8,2*%
%TO.N,GND*%
X6980000Y-25060000D03*
%TD*%
D29*
%TO.P,U1,1,IN*%
%TO.N,+VDC*%
X15220000Y-25180000D03*
D30*
%TO.P,U1,2*%
%TO.N,GND*%
X14465000Y-29805000D03*
X11415000Y-29805000D03*
D31*
X12940000Y-31790000D03*
D32*
X14465000Y-33465000D03*
X11415000Y-33465000D03*
D29*
%TO.P,U1,3,OUT*%
%TO.N,+5V*%
X10660000Y-25180000D03*
%TD*%
D33*
%TO.P,D4,1,K*%
%TO.N,+VDC*%
X39080000Y-41910000D03*
%TO.P,D4,2,A*%
%TO.N,GND*%
X43080000Y-41910000D03*
%TD*%
D22*
%TO.P,C10,1*%
%TO.N,+VDC*%
X32040000Y-31140000D03*
%TO.P,C10,2*%
%TO.N,GND*%
X33940000Y-31140000D03*
%TD*%
D11*
%TO.P,H2,1,1*%
%TO.N,GND*%
X50000000Y-3600000D03*
X50702944Y-1902944D03*
X50702944Y-5297056D03*
X52400000Y-1200000D03*
D12*
X52400000Y-3600000D03*
D11*
X52400000Y-6000000D03*
X54097056Y-1902944D03*
X54097056Y-5297056D03*
X54800000Y-3600000D03*
%TD*%
D23*
%TO.P,C11,1*%
%TO.N,+5V*%
X9320000Y-19220000D03*
%TO.P,C11,2*%
%TO.N,GND*%
X7420000Y-19220000D03*
%TD*%
D34*
%TO.N,GND*%
X41335000Y-10950000D03*
X14335000Y-13950000D03*
X18500000Y-5000000D03*
X3335000Y-20950000D03*
X11500000Y-30500000D03*
X14335000Y-12950000D03*
X7335000Y-14950000D03*
X27335000Y-4950000D03*
X15335000Y-40950000D03*
X6335000Y-20950000D03*
X52335000Y-32950000D03*
X4335000Y-29950000D03*
X10335000Y-7950000D03*
X49335000Y-31950000D03*
X45335000Y-8950000D03*
X48335000Y-42950000D03*
X37335000Y-14950000D03*
X12335000Y-10950000D03*
X24335000Y-15950000D03*
X45335000Y-1950000D03*
X54335000Y-19950000D03*
X18335000Y-32950000D03*
X4335000Y-25950000D03*
X5335000Y-24950000D03*
X45335000Y-41950000D03*
X25335000Y-15950000D03*
X47335000Y-13950000D03*
X11500000Y-31500000D03*
X8335000Y-6950000D03*
X43335000Y-9950000D03*
X14335000Y-39950000D03*
X45335000Y-7950000D03*
X9335000Y-8950000D03*
X23335000Y-29950000D03*
X21335000Y-24950000D03*
X13335000Y-7950000D03*
X31335000Y-32950000D03*
X17500000Y-5000000D03*
X20335000Y-12950000D03*
X13335000Y-24950000D03*
X19335000Y-34950000D03*
X6335000Y-14950000D03*
X25335000Y-1950000D03*
X43335000Y-5950000D03*
X8335000Y-27950000D03*
X7335000Y-12950000D03*
X37335000Y-4950000D03*
X44335000Y-28950000D03*
X14335000Y-17950000D03*
X25335000Y-19950000D03*
X23335000Y-8950000D03*
X36335000Y-7950000D03*
X13335000Y-35950000D03*
X47335000Y-20950000D03*
X8335000Y-20950000D03*
X52335000Y-11950000D03*
X50335000Y-31950000D03*
X52335000Y-33950000D03*
X48335000Y-11950000D03*
X11335000Y-2950000D03*
X23335000Y-25950000D03*
X5335000Y-31950000D03*
X1335000Y-6950000D03*
X32335000Y-8950000D03*
X2335000Y-24950000D03*
X25335000Y-27950000D03*
X13335000Y-42950000D03*
X12335000Y-39950000D03*
X25335000Y-11950000D03*
X19335000Y-42950000D03*
X15335000Y-35950000D03*
X37335000Y-12950000D03*
X1335000Y-36950000D03*
X24335000Y-5950000D03*
X47335000Y-3950000D03*
X18335000Y-30950000D03*
X27335000Y-3950000D03*
X46335000Y-13950000D03*
X26335000Y-42950000D03*
X26335000Y-28950000D03*
X7335000Y-4950000D03*
X35335000Y-10950000D03*
X4335000Y-28950000D03*
X22335000Y-42950000D03*
X49335000Y-36950000D03*
X26335000Y-11950000D03*
X1335000Y-26950000D03*
X16335000Y-19950000D03*
X41335000Y-2950000D03*
X44335000Y-29950000D03*
X43335000Y-8950000D03*
X33335000Y-12950000D03*
X2335000Y-9950000D03*
X14335000Y-2950000D03*
X16335000Y-22950000D03*
X2335000Y-28950000D03*
X11335000Y-9950000D03*
X49335000Y-28950000D03*
X51335000Y-12950000D03*
X23335000Y-3950000D03*
X42335000Y-7950000D03*
X19500000Y-6000000D03*
X50335000Y-16950000D03*
X9335000Y-35950000D03*
X22335000Y-20950000D03*
X16335000Y-12950000D03*
X22335000Y-32950000D03*
X18335000Y-24950000D03*
X14500000Y-30500000D03*
X14335000Y-42950000D03*
X33335000Y-1950000D03*
X44335000Y-9950000D03*
X53335000Y-7950000D03*
X19335000Y-22950000D03*
X13335000Y-36950000D03*
X54335000Y-18950000D03*
X31335000Y-3950000D03*
X18335000Y-15950000D03*
X22335000Y-22950000D03*
X54335000Y-11950000D03*
X19335000Y-31950000D03*
X17335000Y-12950000D03*
X24335000Y-27950000D03*
X16500000Y-2000000D03*
X43335000Y-19950000D03*
X8335000Y-35950000D03*
X44335000Y-21950000D03*
X43335000Y-13950000D03*
X8335000Y-28950000D03*
X54335000Y-10950000D03*
X45335000Y-40950000D03*
X47335000Y-30950000D03*
X46335000Y-3950000D03*
X7335000Y-37950000D03*
X11335000Y-39950000D03*
X51335000Y-10950000D03*
X10335000Y-6950000D03*
X51335000Y-14950000D03*
X7335000Y-26950000D03*
X22335000Y-6950000D03*
X1335000Y-30950000D03*
X11335000Y-4950000D03*
X7335000Y-7950000D03*
X32335000Y-6950000D03*
X42335000Y-10950000D03*
X36335000Y-32950000D03*
X8335000Y-3950000D03*
X29335000Y-8950000D03*
X4335000Y-27950000D03*
X28335000Y-14950000D03*
X11335000Y-3950000D03*
X23335000Y-23950000D03*
X21335000Y-12950000D03*
X44335000Y-22950000D03*
X9335000Y-6950000D03*
X52335000Y-17950000D03*
X1335000Y-29950000D03*
X23335000Y-9950000D03*
X10335000Y-36950000D03*
X42335000Y-4950000D03*
X43335000Y-29950000D03*
X1335000Y-35950000D03*
X35335000Y-32950000D03*
X18335000Y-14950000D03*
X25335000Y-32950000D03*
X10335000Y-42950000D03*
X45335000Y-12950000D03*
X12335000Y-42950000D03*
X49335000Y-12950000D03*
X23335000Y-15950000D03*
X34335000Y-8950000D03*
X23335000Y-2950000D03*
X40335000Y-5950000D03*
X10335000Y-8950000D03*
X37335000Y-6950000D03*
X52335000Y-9950000D03*
X38335000Y-7950000D03*
X50335000Y-10950000D03*
X41335000Y-12950000D03*
X1335000Y-21950000D03*
X4335000Y-33950000D03*
X12335000Y-9950000D03*
X22335000Y-23950000D03*
X45335000Y-20950000D03*
X33335000Y-4950000D03*
X1335000Y-34950000D03*
X47335000Y-26950000D03*
X44335000Y-3950000D03*
X46335000Y-40950000D03*
X13335000Y-4950000D03*
X18500000Y-6000000D03*
X18335000Y-22950000D03*
X52335000Y-12950000D03*
X19335000Y-33950000D03*
X31335000Y-7950000D03*
X32335000Y-4950000D03*
X20335000Y-18950000D03*
X54335000Y-7950000D03*
X43335000Y-12950000D03*
X36335000Y-41950000D03*
X34335000Y-4950000D03*
X18335000Y-19950000D03*
X47335000Y-31950000D03*
X14500000Y-31500000D03*
X39335000Y-8950000D03*
X2335000Y-31950000D03*
X18335000Y-42950000D03*
X13500000Y-32500000D03*
X29335000Y-11950000D03*
X47335000Y-27950000D03*
X16500000Y-7000000D03*
X51335000Y-11950000D03*
X24335000Y-19950000D03*
X9335000Y-42950000D03*
X42335000Y-14950000D03*
X45335000Y-11950000D03*
X44335000Y-26950000D03*
X35335000Y-31950000D03*
X49335000Y-33950000D03*
X2335000Y-26950000D03*
X19335000Y-30950000D03*
X48335000Y-27950000D03*
X51335000Y-16950000D03*
X50335000Y-29950000D03*
X39335000Y-4950000D03*
X4335000Y-24950000D03*
X15335000Y-19950000D03*
X2335000Y-27950000D03*
X30335000Y-12950000D03*
X26335000Y-10950000D03*
X33335000Y-11950000D03*
X5335000Y-33950000D03*
X1335000Y-28950000D03*
X25335000Y-28950000D03*
X27335000Y-30950000D03*
X10335000Y-11950000D03*
X46335000Y-17950000D03*
X47335000Y-5950000D03*
X26335000Y-6950000D03*
X14335000Y-9950000D03*
X8335000Y-4950000D03*
X31335000Y-4950000D03*
X13500000Y-30500000D03*
X20500000Y-5000000D03*
X9335000Y-12950000D03*
X10335000Y-9950000D03*
X21335000Y-21950000D03*
X17500000Y-3000000D03*
X2335000Y-30950000D03*
X29335000Y-6950000D03*
X24335000Y-1950000D03*
X6335000Y-32950000D03*
X17335000Y-39950000D03*
X19335000Y-21950000D03*
X22335000Y-26950000D03*
X5335000Y-32950000D03*
X52335000Y-8950000D03*
X7335000Y-8950000D03*
X1335000Y-23950000D03*
X34335000Y-10950000D03*
X47335000Y-10950000D03*
X19500000Y-2000000D03*
X19335000Y-19950000D03*
X24335000Y-33950000D03*
X18335000Y-12950000D03*
X47335000Y-17950000D03*
X12335000Y-7950000D03*
X30335000Y-1950000D03*
X9335000Y-14950000D03*
X6335000Y-31950000D03*
X11500000Y-34500000D03*
X49335000Y-20950000D03*
X39335000Y-12950000D03*
X50335000Y-34950000D03*
X50335000Y-20950000D03*
X24335000Y-7950000D03*
X39335000Y-14950000D03*
X23335000Y-10950000D03*
X36335000Y-13950000D03*
X11335000Y-40950000D03*
X45335000Y-4950000D03*
X9335000Y-34950000D03*
X42335000Y-11950000D03*
X43335000Y-4950000D03*
X34335000Y-12950000D03*
X20500000Y-3000000D03*
X11500000Y-33500000D03*
X15335000Y-42950000D03*
X8335000Y-14950000D03*
X24335000Y-11950000D03*
X5335000Y-29950000D03*
X46335000Y-8950000D03*
X11335000Y-12950000D03*
X16500000Y-3000000D03*
X5335000Y-35950000D03*
X41335000Y-9950000D03*
X26335000Y-5950000D03*
X7335000Y-20950000D03*
X47335000Y-7950000D03*
X52335000Y-29950000D03*
X12335000Y-20950000D03*
X18335000Y-39950000D03*
X18500000Y-8000000D03*
X25335000Y-21950000D03*
X17335000Y-32950000D03*
X44335000Y-1950000D03*
X46335000Y-9950000D03*
X18335000Y-23950000D03*
X19335000Y-29950000D03*
X12500000Y-34500000D03*
X4335000Y-22950000D03*
X24335000Y-20950000D03*
X11335000Y-6950000D03*
X8335000Y-8950000D03*
X10335000Y-3950000D03*
X17335000Y-27950000D03*
X6335000Y-33950000D03*
X43335000Y-27950000D03*
X49335000Y-13950000D03*
X46335000Y-22950000D03*
X52335000Y-16950000D03*
X12500000Y-32500000D03*
X11335000Y-13950000D03*
X40335000Y-14950000D03*
X38335000Y-9950000D03*
X42335000Y-12950000D03*
X45335000Y-42950000D03*
X22335000Y-1950000D03*
X5335000Y-21950000D03*
X20500000Y-9000000D03*
X20335000Y-23950000D03*
X41335000Y-6950000D03*
X9335000Y-26950000D03*
X48335000Y-10950000D03*
X8335000Y-22950000D03*
X24335000Y-2950000D03*
X36335000Y-5950000D03*
X44335000Y-11950000D03*
X14500000Y-32500000D03*
X8335000Y-7950000D03*
X37335000Y-7950000D03*
X11335000Y-10950000D03*
X28335000Y-6950000D03*
X17335000Y-36950000D03*
X33335000Y-32950000D03*
X29335000Y-3950000D03*
X11335000Y-1950000D03*
X18500000Y-4000000D03*
X13335000Y-40950000D03*
X47335000Y-22950000D03*
X43335000Y-6950000D03*
X36335000Y-12950000D03*
X47335000Y-37950000D03*
X34335000Y-2950000D03*
X47335000Y-4950000D03*
X24335000Y-32950000D03*
X41335000Y-7950000D03*
X15335000Y-18950000D03*
X21335000Y-23950000D03*
X26335000Y-2950000D03*
X3335000Y-34950000D03*
X28335000Y-13950000D03*
X49335000Y-14950000D03*
X44335000Y-4950000D03*
X18500000Y-9000000D03*
X30335000Y-11950000D03*
X3335000Y-23950000D03*
X4335000Y-8950000D03*
X50335000Y-33950000D03*
X18500000Y-2000000D03*
X6335000Y-13950000D03*
X12335000Y-3950000D03*
X20500000Y-8000000D03*
X4335000Y-34950000D03*
X10335000Y-2950000D03*
X22335000Y-30950000D03*
X16335000Y-21950000D03*
X23335000Y-7950000D03*
X40335000Y-9950000D03*
X43335000Y-16950000D03*
X19335000Y-40950000D03*
X5335000Y-9950000D03*
X9335000Y-20950000D03*
X11500000Y-32500000D03*
X48335000Y-21950000D03*
X40335000Y-2950000D03*
X8335000Y-36950000D03*
X19500000Y-7000000D03*
X17500000Y-8000000D03*
X15335000Y-20950000D03*
X46335000Y-10950000D03*
X22335000Y-3950000D03*
X1335000Y-32950000D03*
X7335000Y-29950000D03*
X40335000Y-12950000D03*
X23335000Y-4950000D03*
X23335000Y-34950000D03*
X6335000Y-22950000D03*
X42335000Y-2950000D03*
X21335000Y-22950000D03*
X45335000Y-13950000D03*
X41335000Y-5950000D03*
X23335000Y-30950000D03*
X7335000Y-42950000D03*
X42335000Y-3950000D03*
X17335000Y-20950000D03*
X36335000Y-4950000D03*
X17335000Y-19950000D03*
X15335000Y-12950000D03*
X44335000Y-8950000D03*
X17335000Y-40950000D03*
X35335000Y-6950000D03*
X25335000Y-20950000D03*
X49335000Y-15950000D03*
X50335000Y-30950000D03*
X17335000Y-31950000D03*
X31335000Y-33950000D03*
X40335000Y-3950000D03*
X35335000Y-11950000D03*
X46335000Y-7950000D03*
X52335000Y-18950000D03*
X5335000Y-28950000D03*
X36335000Y-8950000D03*
X16500000Y-6000000D03*
X4335000Y-21950000D03*
X5335000Y-27950000D03*
X17335000Y-28950000D03*
X46335000Y-28950000D03*
X31335000Y-9950000D03*
X13335000Y-6950000D03*
X41335000Y-13950000D03*
X33335000Y-3950000D03*
X8335000Y-29950000D03*
X47335000Y-28950000D03*
X20335000Y-42950000D03*
X34335000Y-7950000D03*
X47335000Y-2950000D03*
X23335000Y-19950000D03*
X41335000Y-14950000D03*
X22335000Y-19950000D03*
X3335000Y-30950000D03*
X54335000Y-32950000D03*
X48335000Y-29950000D03*
X10335000Y-40950000D03*
X44335000Y-13950000D03*
X26335000Y-33950000D03*
X27335000Y-8950000D03*
X13335000Y-3950000D03*
X51335000Y-7950000D03*
X30335000Y-7950000D03*
X18335000Y-35950000D03*
X1335000Y-27950000D03*
X18335000Y-37950000D03*
X47335000Y-8950000D03*
X7335000Y-13950000D03*
X26335000Y-13950000D03*
X22335000Y-25950000D03*
X3335000Y-9950000D03*
X21335000Y-42950000D03*
X44335000Y-14950000D03*
X8335000Y-31950000D03*
X1335000Y-24950000D03*
X54335000Y-33950000D03*
X17335000Y-22950000D03*
X39335000Y-11950000D03*
X49335000Y-42950000D03*
X51335000Y-9950000D03*
X44335000Y-27950000D03*
X24335000Y-3950000D03*
X14500000Y-33500000D03*
X17500000Y-9000000D03*
X26335000Y-12950000D03*
X4335000Y-35950000D03*
X24335000Y-29950000D03*
X4335000Y-26950000D03*
X47335000Y-40950000D03*
X26335000Y-30950000D03*
X2335000Y-22950000D03*
X32335000Y-5950000D03*
X52335000Y-15950000D03*
X30335000Y-9950000D03*
X30335000Y-6950000D03*
X36335000Y-11950000D03*
X27335000Y-33950000D03*
X2335000Y-21950000D03*
X11335000Y-7950000D03*
X4335000Y-9950000D03*
X27335000Y-13950000D03*
X38335000Y-14950000D03*
X23335000Y-28950000D03*
X17335000Y-18950000D03*
X16335000Y-39950000D03*
X10335000Y-12950000D03*
X48335000Y-14950000D03*
X25335000Y-10950000D03*
X45335000Y-5950000D03*
X48335000Y-20950000D03*
X5335000Y-10950000D03*
X24335000Y-22950000D03*
X17335000Y-24950000D03*
X37335000Y-1950000D03*
X36335000Y-1950000D03*
X34335000Y-3950000D03*
X12335000Y-21950000D03*
X25335000Y-12950000D03*
X43335000Y-18950000D03*
X29335000Y-7950000D03*
X47335000Y-6950000D03*
X28335000Y-12950000D03*
X40335000Y-13950000D03*
X6335000Y-8950000D03*
X21335000Y-40950000D03*
X6335000Y-29950000D03*
X50335000Y-7950000D03*
X41335000Y-11950000D03*
X33335000Y-6950000D03*
X14335000Y-20950000D03*
X9335000Y-7950000D03*
X37335000Y-11950000D03*
X24335000Y-10950000D03*
X47335000Y-12950000D03*
X18335000Y-18950000D03*
X31335000Y-11950000D03*
X49335000Y-34950000D03*
X40335000Y-8950000D03*
X37335000Y-10950000D03*
X4335000Y-20950000D03*
X35335000Y-5950000D03*
X25335000Y-2950000D03*
X7335000Y-10950000D03*
X40335000Y-7950000D03*
X3335000Y-26950000D03*
X7335000Y-1950000D03*
X10335000Y-10950000D03*
X1335000Y-31950000D03*
X36335000Y-9950000D03*
X44335000Y-2950000D03*
X7335000Y-9950000D03*
X51335000Y-13950000D03*
X49335000Y-30950000D03*
X16500000Y-5000000D03*
X48335000Y-17950000D03*
X43335000Y-3950000D03*
X27335000Y-2950000D03*
X18335000Y-29950000D03*
X8335000Y-10950000D03*
X42335000Y-1950000D03*
X24335000Y-23950000D03*
X23335000Y-14950000D03*
X54335000Y-6950000D03*
X24335000Y-6950000D03*
X47335000Y-14950000D03*
X30335000Y-2950000D03*
X30335000Y-5950000D03*
X9335000Y-3950000D03*
X17335000Y-33950000D03*
X3335000Y-25950000D03*
X48335000Y-40950000D03*
X9335000Y-1950000D03*
X23335000Y-32950000D03*
X7335000Y-32950000D03*
X5335000Y-30950000D03*
X14335000Y-7950000D03*
X18335000Y-28950000D03*
X14335000Y-22950000D03*
X12335000Y-36950000D03*
X3335000Y-7950000D03*
X42335000Y-5950000D03*
X4335000Y-11950000D03*
X48335000Y-28950000D03*
X43335000Y-26950000D03*
X34335000Y-1950000D03*
X6335000Y-28950000D03*
X16335000Y-40950000D03*
X14335000Y-18950000D03*
X29335000Y-5950000D03*
X30335000Y-3950000D03*
X28335000Y-1950000D03*
X18335000Y-21950000D03*
X35335000Y-8950000D03*
X26335000Y-4950000D03*
X25335000Y-23950000D03*
X25335000Y-4950000D03*
X7335000Y-2950000D03*
X50335000Y-8950000D03*
X7335000Y-28950000D03*
X48335000Y-31950000D03*
X39335000Y-5950000D03*
X43335000Y-28950000D03*
X30335000Y-10950000D03*
X2335000Y-8950000D03*
X34335000Y-13950000D03*
X14500000Y-34500000D03*
X35335000Y-2950000D03*
X45335000Y-9950000D03*
X45335000Y-28950000D03*
X23335000Y-40950000D03*
X44335000Y-7950000D03*
X50335000Y-14950000D03*
X25335000Y-14950000D03*
X27335000Y-31950000D03*
X47335000Y-39950000D03*
X1335000Y-9950000D03*
X48335000Y-38950000D03*
X44335000Y-10950000D03*
X8335000Y-30950000D03*
X31335000Y-5950000D03*
X6335000Y-27950000D03*
X45335000Y-29950000D03*
X54335000Y-34950000D03*
X3335000Y-33950000D03*
X8335000Y-39950000D03*
X51335000Y-8950000D03*
X19335000Y-37950000D03*
X6335000Y-26950000D03*
X4335000Y-10950000D03*
X36335000Y-3950000D03*
X3335000Y-35950000D03*
X50335000Y-17950000D03*
X24335000Y-30950000D03*
X9335000Y-22950000D03*
X15335000Y-36950000D03*
X19335000Y-38950000D03*
X2335000Y-29950000D03*
X23335000Y-33950000D03*
X46335000Y-11950000D03*
X31335000Y-14950000D03*
X16335000Y-17950000D03*
X7335000Y-11950000D03*
X16335000Y-20950000D03*
X38335000Y-11950000D03*
X13500000Y-31500000D03*
X13335000Y-39950000D03*
X37335000Y-5950000D03*
X31335000Y-10950000D03*
X25335000Y-3950000D03*
X20335000Y-22950000D03*
X13500000Y-33500000D03*
X19335000Y-28950000D03*
X49335000Y-10950000D03*
X20500000Y-4000000D03*
X3335000Y-31950000D03*
X54335000Y-35950000D03*
X41335000Y-1950000D03*
X16335000Y-42950000D03*
X48335000Y-12950000D03*
X22335000Y-9950000D03*
X3335000Y-24950000D03*
X44335000Y-6950000D03*
X17335000Y-17950000D03*
X22335000Y-33950000D03*
X48335000Y-13950000D03*
X48335000Y-7950000D03*
X22335000Y-40950000D03*
X43335000Y-11950000D03*
X41335000Y-3950000D03*
X28335000Y-5950000D03*
X2335000Y-23950000D03*
X39335000Y-13950000D03*
X18335000Y-38950000D03*
X22335000Y-12950000D03*
X41335000Y-4950000D03*
X28335000Y-11950000D03*
X3335000Y-28950000D03*
X7335000Y-5950000D03*
X27335000Y-7950000D03*
X26335000Y-29950000D03*
X16335000Y-18950000D03*
X18335000Y-16950000D03*
X38335000Y-2950000D03*
X12500000Y-33500000D03*
X38335000Y-10950000D03*
X45335000Y-10950000D03*
X27335000Y-14950000D03*
X46335000Y-14950000D03*
X24335000Y-26950000D03*
X5335000Y-25950000D03*
X13335000Y-9950000D03*
X5335000Y-8950000D03*
X3335000Y-8950000D03*
X6335000Y-11950000D03*
X34335000Y-14950000D03*
X18335000Y-33950000D03*
X24335000Y-21950000D03*
X42335000Y-9950000D03*
X3335000Y-11950000D03*
X17335000Y-35950000D03*
X28335000Y-7950000D03*
X13500000Y-34500000D03*
X4335000Y-32950000D03*
X17500000Y-7000000D03*
X29335000Y-12950000D03*
X20335000Y-20950000D03*
X30335000Y-13950000D03*
X46335000Y-2950000D03*
X54335000Y-12950000D03*
X54335000Y-14950000D03*
X47335000Y-9950000D03*
X26335000Y-9950000D03*
X15335000Y-39950000D03*
X33335000Y-8950000D03*
X21335000Y-20950000D03*
X13335000Y-12950000D03*
X8335000Y-34950000D03*
X32335000Y-2950000D03*
X36335000Y-10950000D03*
X46335000Y-12950000D03*
X48335000Y-26950000D03*
X49335000Y-9950000D03*
X24335000Y-8950000D03*
X11335000Y-5950000D03*
X49335000Y-16950000D03*
X39335000Y-2950000D03*
X43335000Y-14950000D03*
X31335000Y-6950000D03*
X17335000Y-30950000D03*
X14335000Y-4950000D03*
X24335000Y-4950000D03*
X49335000Y-6950000D03*
X25335000Y-30950000D03*
X52335000Y-34950000D03*
X6335000Y-6950000D03*
X9335000Y-36950000D03*
X49335000Y-32950000D03*
X9335000Y-10950000D03*
X40335000Y-1950000D03*
X6335000Y-7950000D03*
X14335000Y-35950000D03*
X1335000Y-10950000D03*
X25335000Y-9950000D03*
X5335000Y-20950000D03*
X46335000Y-41950000D03*
X12335000Y-11950000D03*
X46335000Y-6950000D03*
X2335000Y-10950000D03*
X19335000Y-36950000D03*
X3335000Y-22950000D03*
X37335000Y-2950000D03*
X8335000Y-33950000D03*
X23335000Y-27950000D03*
X16500000Y-8000000D03*
X39335000Y-3950000D03*
X54335000Y-16950000D03*
X8335000Y-42950000D03*
X25335000Y-8950000D03*
X48335000Y-6950000D03*
X19335000Y-39950000D03*
X5335000Y-34950000D03*
X11335000Y-14950000D03*
X20500000Y-7000000D03*
X33335000Y-7950000D03*
X31335000Y-12950000D03*
X48335000Y-32950000D03*
X18335000Y-36950000D03*
X21335000Y-19950000D03*
X18335000Y-13950000D03*
X47335000Y-32950000D03*
X27335000Y-11950000D03*
X7335000Y-30950000D03*
X24335000Y-9950000D03*
X8335000Y-21950000D03*
X35335000Y-3950000D03*
X10335000Y-13950000D03*
X14335000Y-10950000D03*
X17500000Y-6000000D03*
X50335000Y-12950000D03*
X27335000Y-12950000D03*
X18335000Y-27950000D03*
X32335000Y-33950000D03*
X28335000Y-4950000D03*
X13335000Y-8950000D03*
X50335000Y-28950000D03*
X24335000Y-14950000D03*
X8335000Y-38950000D03*
X28335000Y-3950000D03*
X12335000Y-6950000D03*
X38335000Y-4950000D03*
X7335000Y-3950000D03*
X46335000Y-26950000D03*
X13335000Y-13950000D03*
X2335000Y-7950000D03*
X38335000Y-13950000D03*
X3335000Y-21950000D03*
X45335000Y-21950000D03*
X7335000Y-35950000D03*
X32335000Y-10950000D03*
X23335000Y-24950000D03*
X13335000Y-25950000D03*
X6335000Y-9950000D03*
X48335000Y-9950000D03*
X23335000Y-11950000D03*
X46335000Y-27950000D03*
X27335000Y-10950000D03*
X14335000Y-3950000D03*
X19500000Y-5000000D03*
X7335000Y-22950000D03*
X2335000Y-33950000D03*
X26335000Y-31950000D03*
X12335000Y-8950000D03*
X23335000Y-21950000D03*
X12335000Y-2950000D03*
X26335000Y-3950000D03*
X23335000Y-13950000D03*
X22335000Y-31950000D03*
X40335000Y-4950000D03*
X3335000Y-29950000D03*
X22335000Y-29950000D03*
X36335000Y-6950000D03*
X31335000Y-1950000D03*
X22335000Y-28950000D03*
X6335000Y-21950000D03*
X30335000Y-4950000D03*
X48335000Y-37950000D03*
X23335000Y-26950000D03*
X25335000Y-25950000D03*
X19500000Y-3000000D03*
X32335000Y-13950000D03*
X8335000Y-11950000D03*
X31335000Y-8950000D03*
X46335000Y-29950000D03*
X46335000Y-5950000D03*
X54335000Y-30950000D03*
X32335000Y-9950000D03*
X15335000Y-22950000D03*
X43335000Y-22950000D03*
X50335000Y-9950000D03*
X12500000Y-30500000D03*
X50335000Y-32950000D03*
X29335000Y-2950000D03*
X2335000Y-11950000D03*
X25335000Y-33950000D03*
X42335000Y-8950000D03*
X22335000Y-4950000D03*
X41335000Y-8950000D03*
X49335000Y-17950000D03*
X18335000Y-31950000D03*
X22335000Y-34950000D03*
X4335000Y-31950000D03*
X39335000Y-7950000D03*
X26335000Y-27950000D03*
X1335000Y-25950000D03*
X24335000Y-31950000D03*
X45335000Y-6950000D03*
X19335000Y-17950000D03*
X18335000Y-20950000D03*
X14335000Y-11950000D03*
X38335000Y-12950000D03*
X9335000Y-40950000D03*
X19500000Y-9000000D03*
X33335000Y-9950000D03*
X52335000Y-30950000D03*
X32335000Y-11950000D03*
X22335000Y-27950000D03*
X12335000Y-1950000D03*
X25335000Y-31950000D03*
X1335000Y-33950000D03*
X24335000Y-13950000D03*
X26335000Y-32950000D03*
X35335000Y-14950000D03*
X20335000Y-24950000D03*
X6335000Y-35950000D03*
X26335000Y-14950000D03*
X49335000Y-29950000D03*
X52335000Y-7950000D03*
X13500000Y-29500000D03*
X26335000Y-26950000D03*
X37335000Y-13950000D03*
X33335000Y-10950000D03*
X14335000Y-6950000D03*
X18335000Y-40950000D03*
X9335000Y-13950000D03*
X45335000Y-3950000D03*
X8335000Y-37950000D03*
X2335000Y-20950000D03*
X54335000Y-31950000D03*
X4335000Y-23950000D03*
X12335000Y-13950000D03*
X3335000Y-27950000D03*
X14335000Y-1950000D03*
X7335000Y-31950000D03*
X7335000Y-21950000D03*
X10335000Y-5950000D03*
X51335000Y-17950000D03*
X28335000Y-9950000D03*
X29335000Y-1950000D03*
X43335000Y-17950000D03*
X46335000Y-20950000D03*
X29335000Y-10950000D03*
X40335000Y-11950000D03*
X1335000Y-7950000D03*
X14335000Y-36950000D03*
X39335000Y-10950000D03*
X5335000Y-23950000D03*
X33335000Y-5950000D03*
X7335000Y-36950000D03*
X30335000Y-8950000D03*
X8335000Y-13950000D03*
X8335000Y-9950000D03*
X23335000Y-20950000D03*
X46335000Y-1950000D03*
X17500000Y-2000000D03*
X52335000Y-13950000D03*
X4335000Y-30950000D03*
X11500000Y-29500000D03*
X19335000Y-20950000D03*
X2335000Y-34950000D03*
X33335000Y-13950000D03*
X54335000Y-17950000D03*
X22335000Y-2950000D03*
X45335000Y-14950000D03*
X10335000Y-14950000D03*
X16335000Y-36950000D03*
X48335000Y-41950000D03*
X9335000Y-5950000D03*
X1335000Y-20950000D03*
X17335000Y-29950000D03*
X54335000Y-29950000D03*
X17335000Y-21950000D03*
X18500000Y-7000000D03*
X28335000Y-8950000D03*
X47335000Y-11950000D03*
X43335000Y-15950000D03*
X5335000Y-11950000D03*
X8335000Y-32950000D03*
X48335000Y-8950000D03*
X22335000Y-5950000D03*
X9335000Y-39950000D03*
X52335000Y-10950000D03*
X17335000Y-34950000D03*
X22335000Y-11950000D03*
X13335000Y-20950000D03*
X35335000Y-4950000D03*
X9335000Y-21950000D03*
X3335000Y-10950000D03*
X11335000Y-8950000D03*
X43335000Y-2950000D03*
X42335000Y-6950000D03*
X18335000Y-34950000D03*
X43335000Y-10950000D03*
X28335000Y-10950000D03*
X5335000Y-22950000D03*
X26335000Y-7950000D03*
X11335000Y-42950000D03*
X38335000Y-5950000D03*
X13335000Y-5950000D03*
X22335000Y-21950000D03*
X22335000Y-24950000D03*
X8335000Y-26950000D03*
X20335000Y-19950000D03*
X14335000Y-19950000D03*
X25335000Y-13950000D03*
X16335000Y-35950000D03*
X48335000Y-30950000D03*
X34335000Y-5950000D03*
X1335000Y-11950000D03*
X12335000Y-22950000D03*
X22335000Y-7950000D03*
X19335000Y-18950000D03*
X24335000Y-28950000D03*
X1335000Y-8950000D03*
X47335000Y-1950000D03*
X9335000Y-11950000D03*
X54335000Y-9950000D03*
X16500000Y-4000000D03*
X5335000Y-7950000D03*
X20500000Y-2000000D03*
X54335000Y-13950000D03*
X25335000Y-5950000D03*
X17500000Y-4000000D03*
X50335000Y-35950000D03*
X8335000Y-40950000D03*
X12335000Y-14950000D03*
X35335000Y-13950000D03*
X37335000Y-9950000D03*
X49335000Y-7950000D03*
X35335000Y-1950000D03*
X44335000Y-20950000D03*
X43335000Y-1950000D03*
X45335000Y-2950000D03*
X50335000Y-15950000D03*
X7335000Y-6950000D03*
X10335000Y-39950000D03*
X12335000Y-40950000D03*
X30335000Y-14950000D03*
X38335000Y-3950000D03*
X8335000Y-12950000D03*
X16500000Y-9000000D03*
X13335000Y-21950000D03*
X13335000Y-11950000D03*
X32335000Y-1950000D03*
X47335000Y-15950000D03*
X8335000Y-2950000D03*
X25335000Y-29950000D03*
X49335000Y-35950000D03*
X29335000Y-9950000D03*
X26335000Y-8950000D03*
X23335000Y-5950000D03*
X23335000Y-6950000D03*
X34335000Y-9950000D03*
X19335000Y-12950000D03*
X46335000Y-42950000D03*
X27335000Y-1950000D03*
X49335000Y-11950000D03*
X25335000Y-7950000D03*
X6335000Y-34950000D03*
X44335000Y-5950000D03*
X4335000Y-7950000D03*
X39335000Y-6950000D03*
X13335000Y-23950000D03*
X47335000Y-42950000D03*
X35335000Y-9950000D03*
X13335000Y-1950000D03*
X12500000Y-29500000D03*
X13335000Y-14950000D03*
X19335000Y-23950000D03*
X45335000Y-27950000D03*
X19335000Y-35950000D03*
X8335000Y-1950000D03*
X23335000Y-31950000D03*
X44335000Y-12950000D03*
X51335000Y-15950000D03*
X2335000Y-32950000D03*
X52335000Y-14950000D03*
X6335000Y-30950000D03*
X31335000Y-2950000D03*
X24335000Y-24950000D03*
X27335000Y-32950000D03*
X47335000Y-41950000D03*
X14335000Y-40950000D03*
X47335000Y-29950000D03*
X42335000Y-13950000D03*
X40335000Y-6950000D03*
X32335000Y-32950000D03*
X36335000Y-31950000D03*
X52335000Y-19950000D03*
X33335000Y-2950000D03*
X10335000Y-1950000D03*
X12500000Y-31500000D03*
X28335000Y-2950000D03*
X49335000Y-8950000D03*
X40335000Y-10950000D03*
X18335000Y-17950000D03*
X33335000Y-33950000D03*
X11335000Y-36950000D03*
X32335000Y-7950000D03*
X45335000Y-22950000D03*
X27335000Y-6950000D03*
X11335000Y-11950000D03*
X17335000Y-42950000D03*
X23335000Y-1950000D03*
X17335000Y-23950000D03*
X23335000Y-12950000D03*
X2335000Y-35950000D03*
X32335000Y-3950000D03*
X22335000Y-10950000D03*
X34335000Y-32950000D03*
X32335000Y-14950000D03*
X23335000Y-42950000D03*
X8335000Y-5950000D03*
X45335000Y-26950000D03*
X13335000Y-2950000D03*
X27335000Y-9950000D03*
X54335000Y-15950000D03*
X48335000Y-22950000D03*
X29335000Y-4950000D03*
X48335000Y-39950000D03*
X27335000Y-5950000D03*
X35335000Y-7950000D03*
X14335000Y-8950000D03*
X54335000Y-8950000D03*
X7335000Y-34950000D03*
X36335000Y-2950000D03*
X48335000Y-15950000D03*
X47335000Y-21950000D03*
X3335000Y-32950000D03*
X15335000Y-17950000D03*
X50335000Y-13950000D03*
X29335000Y-13950000D03*
X29335000Y-14950000D03*
X20335000Y-21950000D03*
X19335000Y-24950000D03*
X25335000Y-22950000D03*
X6335000Y-12950000D03*
X7335000Y-33950000D03*
X26335000Y-1950000D03*
X47335000Y-38950000D03*
X13335000Y-22950000D03*
X31335000Y-13950000D03*
X38335000Y-6950000D03*
X5335000Y-26950000D03*
X32335000Y-12950000D03*
X24335000Y-42950000D03*
X6335000Y-10950000D03*
X25335000Y-42950000D03*
X25335000Y-26950000D03*
X12335000Y-4950000D03*
X38335000Y-8950000D03*
X22335000Y-8950000D03*
X20335000Y-40950000D03*
X37335000Y-3950000D03*
X46335000Y-4950000D03*
X24335000Y-12950000D03*
X39335000Y-1950000D03*
X15335000Y-21950000D03*
X43335000Y-7950000D03*
X35335000Y-33950000D03*
X37335000Y-8950000D03*
X46335000Y-21950000D03*
X23335000Y-22950000D03*
X9335000Y-9950000D03*
X12335000Y-12950000D03*
X34335000Y-6950000D03*
X43335000Y-21950000D03*
X13335000Y-10950000D03*
X14335000Y-21950000D03*
X38335000Y-1950000D03*
X14335000Y-5950000D03*
X7335000Y-27950000D03*
X2335000Y-25950000D03*
X25335000Y-24950000D03*
X25335000Y-6950000D03*
X12335000Y-5950000D03*
X36335000Y-14950000D03*
X24335000Y-25950000D03*
X33335000Y-14950000D03*
X20500000Y-6000000D03*
X34335000Y-33950000D03*
X19500000Y-8000000D03*
X19335000Y-32950000D03*
X18500000Y-3000000D03*
X19500000Y-4000000D03*
X9335000Y-2950000D03*
X1335000Y-22950000D03*
X14500000Y-29500000D03*
X52335000Y-31950000D03*
X6335000Y-36950000D03*
X36335000Y-42950000D03*
X52335000Y-35950000D03*
X10335000Y-4950000D03*
X50335000Y-11950000D03*
X39335000Y-9950000D03*
X43335000Y-20950000D03*
X34335000Y-11950000D03*
X35335000Y-12950000D03*
X9335000Y-4950000D03*
%TD*%
D35*
%TO.N,GND*%
X52600000Y-40400000D02*
X52600000Y-28442500D01*
X5720000Y-42520000D02*
X3600000Y-40400000D01*
X52500000Y-28542500D02*
X53337500Y-27705000D01*
X3600000Y-19975000D02*
X2730000Y-19105000D01*
X2730000Y-13455000D02*
X2730000Y-4470000D01*
X3600000Y-40400000D02*
X3600000Y-19975000D01*
X52500000Y-40250000D02*
X52500000Y-28542500D01*
X52600000Y-28442500D02*
X53337500Y-27705000D01*
X29170000Y-42520000D02*
X5720000Y-42520000D01*
D36*
X52600000Y-3600000D02*
X3600000Y-3600000D01*
D35*
X52500000Y-3500000D02*
X52500000Y-21217500D01*
X52500000Y-21217500D02*
X53337500Y-22055000D01*
D37*
%TO.N,Net-(Q1-G)*%
X14330000Y-16350000D02*
X15400000Y-16350000D01*
X15400000Y-16350000D02*
X16140000Y-15610000D01*
D38*
%TO.N,/DRAIN*%
X20720000Y-16100000D02*
X22815000Y-18195000D01*
X29057893Y-18487893D02*
X29297107Y-18727107D01*
X29590000Y-19434214D02*
X29590000Y-21405000D01*
X22815000Y-18195000D02*
X28350786Y-18195000D01*
X29300000Y-21405000D02*
X38800000Y-21405000D01*
X29297107Y-18727107D02*
G75*
G02*
X29589990Y-19434214I-707107J-707093D01*
G01*
X29057893Y-18487893D02*
G75*
G03*
X28350786Y-18195010I-707093J-707107D01*
G01*
%TO.N,Net-(RF_OUT1-In)*%
X48250000Y-24860000D02*
X49250000Y-24860000D01*
X49270000Y-24880000D02*
X53587500Y-24880000D01*
X49250000Y-24860000D02*
X49270000Y-24880000D01*
X46402500Y-24860000D02*
X48250000Y-24860000D01*
X48250000Y-24860000D02*
X51370000Y-24860000D01*
D39*
%TO.N,Net-(RF_IN1-In)*%
X9320000Y-16240000D02*
X2520000Y-16240000D01*
D40*
%TO.N,Net-(C3-Pad2)*%
X43865000Y-24835000D02*
X43890000Y-24860000D01*
X39090000Y-24835000D02*
X43865000Y-24835000D01*
D37*
%TO.N,+VDC*%
X20002893Y-26472893D02*
X20407107Y-26877107D01*
D41*
X29300000Y-24835000D02*
X29300000Y-31150000D01*
X29310000Y-31140000D02*
X31427500Y-31140000D01*
D40*
X37320000Y-36520000D02*
X38280000Y-35560000D01*
D37*
X38280000Y-41110000D02*
X39080000Y-41910000D01*
D41*
X29300000Y-25125000D02*
X29590000Y-24835000D01*
D40*
X37740000Y-38400000D02*
X38280000Y-37860000D01*
D41*
X29300000Y-31150000D02*
X29300000Y-34045000D01*
D37*
X20700000Y-27584214D02*
X20700000Y-35710000D01*
X15220000Y-26020000D02*
X15380000Y-26180000D01*
D41*
X29310000Y-36380000D02*
X29170000Y-36520000D01*
D37*
X15380000Y-26180000D02*
X19295786Y-26180000D01*
D40*
X38280000Y-37860000D02*
X38280000Y-35560000D01*
D37*
X20700000Y-35710000D02*
X20700000Y-36523486D01*
D40*
X36420000Y-38400000D02*
X37740000Y-38400000D01*
D37*
X38280000Y-35560000D02*
X38280000Y-41110000D01*
D41*
X29300000Y-31150000D02*
X29300000Y-25125000D01*
X29300000Y-31150000D02*
X29310000Y-31140000D01*
D40*
X21315986Y-36520000D02*
X20700000Y-37135986D01*
D41*
X29310000Y-31140000D02*
X29310000Y-36380000D01*
D40*
X29170000Y-36520000D02*
X21315986Y-36520000D01*
D37*
X29300000Y-35420000D02*
X29300000Y-34045000D01*
X29045000Y-35675000D02*
X29300000Y-35420000D01*
D40*
X29170000Y-36520000D02*
X37320000Y-36520000D01*
D37*
X19295786Y-26180000D02*
G75*
G02*
X20002900Y-26472886I14J-1000000D01*
G01*
X20407107Y-26877107D02*
G75*
G02*
X20699990Y-27584214I-707107J-707093D01*
G01*
%TO.N,+5V*%
X10970000Y-19210000D02*
X10970000Y-24870000D01*
D39*
X9320000Y-19220000D02*
X9320000Y-17540000D01*
D37*
X10970000Y-19210000D02*
X9330000Y-19210000D01*
X10970000Y-24870000D02*
X10660000Y-25180000D01*
X8880000Y-25060000D02*
X10540000Y-25060000D01*
X9330000Y-19210000D02*
X9320000Y-19220000D01*
X10540000Y-25060000D02*
X10660000Y-25180000D01*
D39*
%TO.N,Net-(U2-OUTH)*%
X11380000Y-16890000D02*
X11965000Y-16890000D01*
X11965000Y-16890000D02*
X12505000Y-16350000D01*
X11380000Y-16890000D02*
X11380000Y-17540000D01*
%TD*%
%TA.AperFunction,Conductor*%
%TO.N,GND*%
G36*
X45750000Y-13420000D02*
G01*
X45529904Y-13420000D01*
X45530000Y-13400000D01*
X22790000Y-13390000D01*
X22789856Y-13420000D01*
X7890000Y-13420000D01*
X8090000Y-800000D01*
X45950000Y-800000D01*
X45750000Y-13420000D01*
G37*
%TD.AperFunction*%
%TD*%
%TA.AperFunction,Conductor*%
%TO.N,GND*%
G36*
X45530000Y-13400000D02*
G01*
X45520000Y-15490000D01*
X22780000Y-15480000D01*
X22790000Y-13390000D01*
X45530000Y-13400000D01*
G37*
%TD.AperFunction*%
%TD*%
%TA.AperFunction,Conductor*%
%TO.N,GND*%
G36*
X53003472Y-50695D02*
G01*
X53323297Y-68656D01*
X53337094Y-70210D01*
X53649457Y-123283D01*
X53663014Y-126377D01*
X53967469Y-214089D01*
X53980593Y-218682D01*
X54273304Y-339926D01*
X54285826Y-345955D01*
X54452594Y-438125D01*
X54563139Y-499221D01*
X54574900Y-506611D01*
X54833314Y-689966D01*
X54844174Y-698627D01*
X55080418Y-909749D01*
X55090250Y-919581D01*
X55301372Y-1155825D01*
X55310035Y-1166687D01*
X55493385Y-1425094D01*
X55500778Y-1436860D01*
X55654040Y-1714166D01*
X55660073Y-1726695D01*
X55781317Y-2019406D01*
X55785910Y-2032530D01*
X55873622Y-2336985D01*
X55876716Y-2350542D01*
X55908248Y-2536122D01*
X55910000Y-2556893D01*
X55910000Y-22606000D01*
X55890315Y-22673039D01*
X55837511Y-22718794D01*
X55786000Y-22730000D01*
X51250000Y-22730000D01*
X51250000Y-23785500D01*
X51230315Y-23852539D01*
X51177511Y-23898294D01*
X51126000Y-23909500D01*
X48343616Y-23909500D01*
X46308884Y-23909500D01*
X46171117Y-23936903D01*
X46132354Y-23936542D01*
X46132212Y-23938058D01*
X46094270Y-23934500D01*
X46094266Y-23934500D01*
X45485734Y-23934500D01*
X45485730Y-23934500D01*
X45455300Y-23937353D01*
X45455298Y-23937353D01*
X45327119Y-23982206D01*
X45327117Y-23982207D01*
X45217850Y-24062850D01*
X45137207Y-24172117D01*
X45137206Y-24172119D01*
X45092353Y-24300298D01*
X45092353Y-24300300D01*
X45089500Y-24330730D01*
X45089500Y-25389269D01*
X45092353Y-25419699D01*
X45092353Y-25419701D01*
X45137206Y-25547880D01*
X45137207Y-25547882D01*
X45217850Y-25657150D01*
X45327118Y-25737793D01*
X45355945Y-25747880D01*
X45455299Y-25782646D01*
X45485730Y-25785500D01*
X45485734Y-25785500D01*
X46094270Y-25785500D01*
X46132213Y-25781942D01*
X46132355Y-25783461D01*
X46171121Y-25783097D01*
X46308881Y-25810500D01*
X46308884Y-25810500D01*
X48156384Y-25810500D01*
X49063627Y-25810500D01*
X49087819Y-25812883D01*
X49176381Y-25830500D01*
X49176383Y-25830500D01*
X49176384Y-25830500D01*
X51126000Y-25830500D01*
X51193039Y-25850185D01*
X51238794Y-25902989D01*
X51250000Y-25954500D01*
X51250000Y-26860000D01*
X55786000Y-26860000D01*
X55853039Y-26879685D01*
X55898794Y-26932489D01*
X55910000Y-26984000D01*
X55910000Y-41443105D01*
X55908248Y-41463876D01*
X55876716Y-41649457D01*
X55873622Y-41663014D01*
X55785910Y-41967469D01*
X55781317Y-41980593D01*
X55660073Y-42273304D01*
X55654040Y-42285833D01*
X55500778Y-42563139D01*
X55493380Y-42574912D01*
X55465458Y-42614266D01*
X55310043Y-42833302D01*
X55301372Y-42844174D01*
X55090250Y-43080418D01*
X55080418Y-43090250D01*
X54844174Y-43301372D01*
X54833302Y-43310043D01*
X54574913Y-43493380D01*
X54563139Y-43500778D01*
X54285833Y-43654040D01*
X54273304Y-43660073D01*
X53980593Y-43781317D01*
X53967469Y-43785910D01*
X53663014Y-43873622D01*
X53649457Y-43876716D01*
X53337105Y-43929787D01*
X53323287Y-43931344D01*
X53003472Y-43949305D01*
X52996519Y-43949500D01*
X3003481Y-43949500D01*
X2996528Y-43949305D01*
X2676712Y-43931344D01*
X2662894Y-43929787D01*
X2350542Y-43876716D01*
X2336985Y-43873622D01*
X2032530Y-43785910D01*
X2019406Y-43781317D01*
X1726695Y-43660073D01*
X1714166Y-43654040D01*
X1436860Y-43500778D01*
X1425094Y-43493385D01*
X1166687Y-43310035D01*
X1155825Y-43301372D01*
X919581Y-43090250D01*
X909749Y-43080418D01*
X698627Y-42844174D01*
X689966Y-42833314D01*
X506611Y-42574900D01*
X499221Y-42563139D01*
X345959Y-42285833D01*
X339926Y-42273304D01*
X218682Y-41980593D01*
X214089Y-41967469D01*
X126377Y-41663014D01*
X123283Y-41649456D01*
X101752Y-41522731D01*
X100000Y-41501961D01*
X100000Y-24530730D01*
X8179500Y-24530730D01*
X8179500Y-25589269D01*
X8182353Y-25619699D01*
X8182353Y-25619701D01*
X8227206Y-25747880D01*
X8227207Y-25747882D01*
X8307850Y-25857150D01*
X8417118Y-25937793D01*
X8459845Y-25952744D01*
X8545299Y-25982646D01*
X8575730Y-25985500D01*
X8575734Y-25985500D01*
X9184270Y-25985500D01*
X9214699Y-25982646D01*
X9214701Y-25982646D01*
X9278790Y-25960219D01*
X9342882Y-25937793D01*
X9452150Y-25857150D01*
X9454847Y-25853496D01*
X9471829Y-25840600D01*
X9485462Y-25824203D01*
X9499101Y-25819893D01*
X9510493Y-25811244D01*
X9531750Y-25809577D01*
X9552085Y-25803153D01*
X9576075Y-25806103D01*
X9580149Y-25805784D01*
X9587110Y-25807459D01*
X9767996Y-25856581D01*
X9827534Y-25893146D01*
X9857852Y-25956096D01*
X9859500Y-25976247D01*
X9859500Y-26084269D01*
X9862353Y-26114699D01*
X9862353Y-26114701D01*
X9904274Y-26234500D01*
X9907207Y-26242882D01*
X9987850Y-26352150D01*
X10097118Y-26432793D01*
X10132853Y-26445297D01*
X10225299Y-26477646D01*
X10255730Y-26480500D01*
X10255734Y-26480500D01*
X11064270Y-26480500D01*
X11094699Y-26477646D01*
X11094701Y-26477646D01*
X11187147Y-26445297D01*
X11222882Y-26432793D01*
X11332150Y-26352150D01*
X11412793Y-26242882D01*
X11443593Y-26154860D01*
X11457646Y-26114701D01*
X11457646Y-26114699D01*
X11460500Y-26084269D01*
X11460500Y-25421519D01*
X11480185Y-25354480D01*
X11496821Y-25333836D01*
X11514112Y-25316545D01*
X11514114Y-25316543D01*
X11590775Y-25201811D01*
X11643580Y-25074329D01*
X11648229Y-25050953D01*
X11651740Y-25033306D01*
X11651740Y-25033303D01*
X11670500Y-24938993D01*
X11670500Y-24275730D01*
X14419500Y-24275730D01*
X14419500Y-26084269D01*
X14422353Y-26114699D01*
X14422353Y-26114701D01*
X14464274Y-26234500D01*
X14467207Y-26242882D01*
X14547850Y-26352150D01*
X14632224Y-26414420D01*
X14661689Y-26445297D01*
X14675882Y-26466538D01*
X14675888Y-26466546D01*
X14933454Y-26724112D01*
X15048190Y-26800776D01*
X15119946Y-26830498D01*
X15175671Y-26853580D01*
X15175672Y-26853580D01*
X15175677Y-26853582D01*
X15202545Y-26858925D01*
X15202551Y-26858926D01*
X15202591Y-26858934D01*
X15292937Y-26876905D01*
X15311006Y-26880500D01*
X19216864Y-26880500D01*
X19216868Y-26880501D01*
X19287674Y-26880500D01*
X19303856Y-26881561D01*
X19357127Y-26888573D01*
X19388395Y-26896951D01*
X19430463Y-26914376D01*
X19458495Y-26930559D01*
X19501071Y-26963227D01*
X19513264Y-26973921D01*
X19906024Y-27366681D01*
X19916720Y-27378878D01*
X19949429Y-27421507D01*
X19965614Y-27449540D01*
X19983039Y-27491609D01*
X19991416Y-27522877D01*
X19998438Y-27576221D01*
X19999499Y-27592404D01*
X19999499Y-27670726D01*
X19999500Y-27670743D01*
X19999500Y-36429906D01*
X19979815Y-36496945D01*
X19949134Y-36529676D01*
X19902853Y-36563833D01*
X19902850Y-36563836D01*
X19822207Y-36673103D01*
X19822206Y-36673105D01*
X19777353Y-36801284D01*
X19777353Y-36801286D01*
X19774500Y-36831716D01*
X19774500Y-37440255D01*
X19777353Y-37470685D01*
X19777353Y-37470687D01*
X19821208Y-37596013D01*
X19822207Y-37598868D01*
X19902850Y-37708136D01*
X20012118Y-37788779D01*
X20054845Y-37803730D01*
X20140299Y-37833632D01*
X20170730Y-37836486D01*
X20170734Y-37836486D01*
X20274684Y-37836486D01*
X20322136Y-37845925D01*
X20430475Y-37890800D01*
X20466503Y-37905723D01*
X20621153Y-37936485D01*
X20621156Y-37936486D01*
X20621158Y-37936486D01*
X20778844Y-37936486D01*
X20778845Y-37936485D01*
X20933497Y-37905723D01*
X21034731Y-37863791D01*
X21077864Y-37845925D01*
X21125316Y-37836486D01*
X21229270Y-37836486D01*
X21259699Y-37833632D01*
X21259701Y-37833632D01*
X21323790Y-37811205D01*
X21387882Y-37788779D01*
X21497150Y-37708136D01*
X21577793Y-37598868D01*
X21600219Y-37534776D01*
X21622646Y-37470687D01*
X21622646Y-37470685D01*
X21625160Y-37443876D01*
X21625500Y-37440252D01*
X21625500Y-37440251D01*
X21625573Y-37438701D01*
X21625672Y-37438411D01*
X21625771Y-37437366D01*
X21626025Y-37437389D01*
X21648371Y-37372656D01*
X21703257Y-37329420D01*
X21749437Y-37320500D01*
X22090500Y-37320500D01*
X22157539Y-37340185D01*
X22203294Y-37392989D01*
X22214362Y-37443870D01*
X22214364Y-37443870D01*
X22214364Y-37443876D01*
X22214500Y-37444500D01*
X22214500Y-37446769D01*
X22217353Y-37477199D01*
X22217353Y-37477201D01*
X22262206Y-37605380D01*
X22262207Y-37605382D01*
X22342850Y-37714650D01*
X22452118Y-37795293D01*
X22494845Y-37810244D01*
X22580299Y-37840146D01*
X22610730Y-37843000D01*
X22610734Y-37843000D01*
X23669270Y-37843000D01*
X23699699Y-37840146D01*
X23699701Y-37840146D01*
X23763790Y-37817719D01*
X23827882Y-37795293D01*
X23937150Y-37714650D01*
X24017793Y-37605382D01*
X24045674Y-37525703D01*
X24062646Y-37477201D01*
X24062646Y-37477199D01*
X24065500Y-37446769D01*
X24065500Y-37444500D01*
X24065626Y-37444068D01*
X24065636Y-37443870D01*
X24065684Y-37443872D01*
X24085185Y-37377461D01*
X24137989Y-37331706D01*
X24189500Y-37320500D01*
X25931393Y-37320500D01*
X25960212Y-37323895D01*
X27495639Y-37690812D01*
X27523104Y-37700927D01*
X27570781Y-37725220D01*
X27727124Y-37776018D01*
X27765465Y-37788477D01*
X27866557Y-37804488D01*
X27967648Y-37820500D01*
X27967649Y-37820500D01*
X30372351Y-37820500D01*
X30372352Y-37820500D01*
X30574534Y-37788477D01*
X30769219Y-37725220D01*
X30816887Y-37700931D01*
X30844358Y-37690812D01*
X32379787Y-37323895D01*
X32408607Y-37320500D01*
X33096925Y-37320500D01*
X33163964Y-37340185D01*
X33209719Y-37392989D01*
X33219663Y-37462147D01*
X33190638Y-37525703D01*
X33169813Y-37544815D01*
X33087927Y-37604310D01*
X33087925Y-37604312D01*
X33087924Y-37604312D01*
X32954312Y-37737924D01*
X32954312Y-37737925D01*
X32954310Y-37737927D01*
X32917364Y-37788779D01*
X32843240Y-37890800D01*
X32757454Y-38059163D01*
X32699059Y-38238881D01*
X32669500Y-38425513D01*
X32669500Y-40614486D01*
X32699059Y-40801118D01*
X32757454Y-40980836D01*
X32843240Y-41149199D01*
X32954310Y-41302073D01*
X33087927Y-41435690D01*
X33240801Y-41546760D01*
X33320347Y-41587290D01*
X33409163Y-41632545D01*
X33409165Y-41632545D01*
X33409168Y-41632547D01*
X33482349Y-41656325D01*
X33588881Y-41690940D01*
X33775514Y-41720500D01*
X33775519Y-41720500D01*
X33964486Y-41720500D01*
X34151118Y-41690940D01*
X34330832Y-41632547D01*
X34499199Y-41546760D01*
X34652073Y-41435690D01*
X34785690Y-41302073D01*
X34896760Y-41149199D01*
X34982547Y-40980832D01*
X35040940Y-40801118D01*
X35045485Y-40772420D01*
X35070500Y-40614486D01*
X35070500Y-38425513D01*
X35040940Y-38238881D01*
X34994427Y-38095730D01*
X34982547Y-38059168D01*
X34982545Y-38059165D01*
X34982545Y-38059163D01*
X34937290Y-37970347D01*
X34896760Y-37890801D01*
X34785690Y-37737927D01*
X34652073Y-37604310D01*
X34570188Y-37544816D01*
X34527524Y-37489488D01*
X34521545Y-37419874D01*
X34554151Y-37358079D01*
X34614990Y-37323722D01*
X34643075Y-37320500D01*
X35093417Y-37320500D01*
X35118280Y-37322335D01*
X35133162Y-37320500D01*
X37178918Y-37320500D01*
X37245957Y-37340185D01*
X37291712Y-37392989D01*
X37294049Y-37398448D01*
X37306449Y-37429448D01*
X37313070Y-37499003D01*
X37281036Y-37561096D01*
X37220517Y-37596013D01*
X37191318Y-37599500D01*
X36341155Y-37599500D01*
X36186510Y-37630261D01*
X36186498Y-37630264D01*
X36042136Y-37690061D01*
X35994684Y-37699500D01*
X35890730Y-37699500D01*
X35860300Y-37702353D01*
X35860298Y-37702353D01*
X35732119Y-37747206D01*
X35732117Y-37747207D01*
X35622850Y-37827850D01*
X35542207Y-37937117D01*
X35542206Y-37937119D01*
X35497353Y-38065298D01*
X35497353Y-38065300D01*
X35494500Y-38095730D01*
X35494500Y-38704269D01*
X35497353Y-38734699D01*
X35497353Y-38734701D01*
X35542206Y-38862880D01*
X35542207Y-38862882D01*
X35622850Y-38972150D01*
X35732118Y-39052793D01*
X35774845Y-39067744D01*
X35860299Y-39097646D01*
X35890730Y-39100500D01*
X35890734Y-39100500D01*
X35994684Y-39100500D01*
X36042136Y-39109939D01*
X36186498Y-39169735D01*
X36186503Y-39169737D01*
X36341153Y-39200499D01*
X36341156Y-39200500D01*
X36341158Y-39200500D01*
X37455500Y-39200500D01*
X37522539Y-39220185D01*
X37568294Y-39272989D01*
X37579500Y-39324500D01*
X37579500Y-40103061D01*
X37575183Y-40130711D01*
X37579500Y-40234662D01*
X37579500Y-41041006D01*
X37579500Y-41178994D01*
X37579500Y-41178996D01*
X37579499Y-41178996D01*
X37606418Y-41314322D01*
X37606420Y-41314328D01*
X37620061Y-41347260D01*
X37629500Y-41394713D01*
X37629500Y-42614269D01*
X37632353Y-42644699D01*
X37632353Y-42644701D01*
X37677206Y-42772880D01*
X37677207Y-42772882D01*
X37757850Y-42882150D01*
X37867118Y-42962793D01*
X37909845Y-42977744D01*
X37995299Y-43007646D01*
X38025730Y-43010500D01*
X38025734Y-43010500D01*
X40134270Y-43010500D01*
X40164699Y-43007646D01*
X40164701Y-43007646D01*
X40228790Y-42985219D01*
X40292882Y-42962793D01*
X40402150Y-42882150D01*
X40482793Y-42772882D01*
X40520997Y-42663701D01*
X40527646Y-42644701D01*
X40527646Y-42644699D01*
X40530500Y-42614269D01*
X40530500Y-41205730D01*
X40527646Y-41175300D01*
X40527646Y-41175298D01*
X40482793Y-41047119D01*
X40482792Y-41047117D01*
X40478282Y-41041006D01*
X40402150Y-40937850D01*
X40292882Y-40857207D01*
X40292880Y-40857206D01*
X40164700Y-40812353D01*
X40134270Y-40809500D01*
X40134266Y-40809500D01*
X39807644Y-40809500D01*
X39740605Y-40789815D01*
X39719208Y-40772420D01*
X39016064Y-40057014D01*
X38983110Y-39995404D01*
X38980500Y-39970094D01*
X38980500Y-38285316D01*
X38989939Y-38237864D01*
X39048810Y-38095734D01*
X39049737Y-38093497D01*
X39066086Y-38011304D01*
X39080500Y-37938843D01*
X39080500Y-37879012D01*
X39081275Y-37872113D01*
X39084768Y-37863791D01*
X39089369Y-37839902D01*
X39090736Y-37836486D01*
X39389951Y-37088448D01*
X39433125Y-37033514D01*
X39499146Y-37010642D01*
X39505082Y-37010500D01*
X40284270Y-37010500D01*
X40314699Y-37007646D01*
X40314701Y-37007646D01*
X40378790Y-36985219D01*
X40442882Y-36962793D01*
X40552150Y-36882150D01*
X40632793Y-36772882D01*
X40655219Y-36708790D01*
X40677646Y-36644701D01*
X40677646Y-36644699D01*
X40680500Y-36614269D01*
X40680500Y-34505730D01*
X40677646Y-34475300D01*
X40677646Y-34475298D01*
X40632793Y-34347119D01*
X40632792Y-34347117D01*
X40552150Y-34237850D01*
X40442882Y-34157207D01*
X40442880Y-34157206D01*
X40314700Y-34112353D01*
X40284270Y-34109500D01*
X40284266Y-34109500D01*
X36275734Y-34109500D01*
X36275730Y-34109500D01*
X36245300Y-34112353D01*
X36245298Y-34112353D01*
X36117119Y-34157206D01*
X36117117Y-34157207D01*
X36007850Y-34237850D01*
X35927207Y-34347117D01*
X35927206Y-34347119D01*
X35882353Y-34475298D01*
X35882353Y-34475300D01*
X35879500Y-34505730D01*
X35879500Y-35006811D01*
X35859815Y-35073850D01*
X35829512Y-35106301D01*
X35038170Y-35694990D01*
X34972632Y-35719210D01*
X34964158Y-35719500D01*
X32408608Y-35719500D01*
X32379788Y-35716104D01*
X30844362Y-35349187D01*
X30816887Y-35339068D01*
X30769216Y-35314778D01*
X30596182Y-35258557D01*
X30538507Y-35219120D01*
X30511308Y-35154761D01*
X30510500Y-35140626D01*
X30510500Y-32464500D01*
X30530185Y-32397461D01*
X30582989Y-32351706D01*
X30634500Y-32340500D01*
X31521986Y-32340500D01*
X31708618Y-32310940D01*
X31888332Y-32252547D01*
X32056699Y-32166760D01*
X32104841Y-32131782D01*
X32163477Y-32089182D01*
X32229283Y-32065702D01*
X32236362Y-32065500D01*
X32344270Y-32065500D01*
X32374699Y-32062646D01*
X32374701Y-32062646D01*
X32438790Y-32040219D01*
X32502882Y-32017793D01*
X32612150Y-31937150D01*
X32692793Y-31827882D01*
X32715219Y-31763790D01*
X32737646Y-31699701D01*
X32737646Y-31699699D01*
X32740500Y-31669269D01*
X32740500Y-30610730D01*
X32737646Y-30580300D01*
X32737646Y-30580298D01*
X32692793Y-30452119D01*
X32692790Y-30452113D01*
X32618401Y-30351319D01*
X32594430Y-30285690D01*
X32609746Y-30217520D01*
X32659486Y-30168452D01*
X32716079Y-30153704D01*
X41840000Y-30000000D01*
X41814813Y-26222028D01*
X41834050Y-26154860D01*
X41861544Y-26124219D01*
X41885091Y-26105458D01*
X41918231Y-26098867D01*
X41984552Y-26054552D01*
X42025033Y-25993968D01*
X42040139Y-25981934D01*
X42055327Y-25975741D01*
X42067915Y-25965222D01*
X42071336Y-25963794D01*
X42869903Y-25644368D01*
X42915955Y-25635500D01*
X43247712Y-25635500D01*
X43314751Y-25655185D01*
X43321345Y-25659730D01*
X43427113Y-25737790D01*
X43427115Y-25737791D01*
X43427118Y-25737793D01*
X43455945Y-25747880D01*
X43555299Y-25782646D01*
X43585730Y-25785500D01*
X43585734Y-25785500D01*
X44194270Y-25785500D01*
X44224699Y-25782646D01*
X44224701Y-25782646D01*
X44288790Y-25760219D01*
X44352882Y-25737793D01*
X44462150Y-25657150D01*
X44542793Y-25547882D01*
X44573609Y-25459815D01*
X44587646Y-25419701D01*
X44587646Y-25419699D01*
X44590500Y-25389269D01*
X44590500Y-25285314D01*
X44599939Y-25237861D01*
X44614873Y-25201807D01*
X44659737Y-25093497D01*
X44690500Y-24938842D01*
X44690500Y-24781157D01*
X44690500Y-24781154D01*
X44690499Y-24781152D01*
X44659738Y-24626509D01*
X44659737Y-24626502D01*
X44599939Y-24482138D01*
X44590500Y-24434685D01*
X44590500Y-24330730D01*
X44587646Y-24300300D01*
X44587646Y-24300298D01*
X44542793Y-24172119D01*
X44542792Y-24172117D01*
X44517135Y-24137353D01*
X44462150Y-24062850D01*
X44352882Y-23982207D01*
X44352880Y-23982206D01*
X44224700Y-23937353D01*
X44194270Y-23934500D01*
X44194266Y-23934500D01*
X43585734Y-23934500D01*
X43585730Y-23934500D01*
X43555300Y-23937353D01*
X43555298Y-23937353D01*
X43427119Y-23982206D01*
X43427113Y-23982209D01*
X43389093Y-24010270D01*
X43323464Y-24034241D01*
X43315460Y-24034500D01*
X42915956Y-24034500D01*
X42869904Y-24025631D01*
X42071351Y-23706210D01*
X42043607Y-23690729D01*
X42026280Y-23677897D01*
X41984552Y-23615448D01*
X41918231Y-23571133D01*
X41868847Y-23561309D01*
X41846506Y-23544765D01*
X41841520Y-23538177D01*
X41834199Y-23534347D01*
X41820746Y-23510722D01*
X41804346Y-23489049D01*
X41803714Y-23480811D01*
X41799625Y-23473631D01*
X41796306Y-23445950D01*
X41791976Y-22796569D01*
X41811213Y-22729402D01*
X41863711Y-22683297D01*
X41891778Y-22674128D01*
X41918231Y-22668867D01*
X41984552Y-22624552D01*
X42028867Y-22558231D01*
X42028867Y-22558229D01*
X42028868Y-22558229D01*
X42040499Y-22499752D01*
X42040500Y-22499750D01*
X42040500Y-20310249D01*
X42040499Y-20310247D01*
X42028868Y-20251770D01*
X42028867Y-20251769D01*
X41984552Y-20185447D01*
X41918230Y-20141132D01*
X41918229Y-20141131D01*
X41873215Y-20132178D01*
X41811304Y-20099793D01*
X41776730Y-20039078D01*
X41773409Y-20011393D01*
X41750000Y-16500000D01*
X27000000Y-16500000D01*
X27000000Y-17120500D01*
X26980315Y-17187539D01*
X26927511Y-17233294D01*
X26876000Y-17244500D01*
X23260072Y-17244500D01*
X23193033Y-17224815D01*
X23172391Y-17208181D01*
X21756819Y-15792609D01*
X21723334Y-15731286D01*
X21720500Y-15704928D01*
X21720500Y-14090249D01*
X21720499Y-14090247D01*
X21708868Y-14031770D01*
X21708867Y-14031769D01*
X21664552Y-13965447D01*
X21598230Y-13921132D01*
X21598229Y-13921131D01*
X21539752Y-13909500D01*
X21539748Y-13909500D01*
X19900252Y-13909500D01*
X19900247Y-13909500D01*
X19841770Y-13921131D01*
X19841769Y-13921132D01*
X19775447Y-13965447D01*
X19731132Y-14031769D01*
X19731131Y-14031770D01*
X19719500Y-14090247D01*
X19719500Y-17129752D01*
X19731131Y-17188229D01*
X19731132Y-17188230D01*
X19775447Y-17254552D01*
X19841769Y-17298867D01*
X19841770Y-17298868D01*
X19900247Y-17310499D01*
X19900250Y-17310500D01*
X19900252Y-17310500D01*
X20534928Y-17310500D01*
X20601967Y-17330185D01*
X20622609Y-17346819D01*
X22076698Y-18800908D01*
X22209092Y-18933302D01*
X22209093Y-18933303D01*
X22364762Y-19037318D01*
X22364768Y-19037321D01*
X22364769Y-19037322D01*
X22537749Y-19108973D01*
X22569370Y-19115262D01*
X22629517Y-19127227D01*
X22629550Y-19127232D01*
X22629566Y-19127236D01*
X22690777Y-19139412D01*
X22721382Y-19145500D01*
X22721383Y-19145500D01*
X22721384Y-19145500D01*
X26876000Y-19145500D01*
X26943039Y-19165185D01*
X26988794Y-19217989D01*
X27000000Y-19269500D01*
X27000000Y-20005500D01*
X26980315Y-20072539D01*
X26927511Y-20118294D01*
X26876000Y-20129500D01*
X26820247Y-20129500D01*
X26761770Y-20141131D01*
X26761769Y-20141132D01*
X26695447Y-20185447D01*
X26651132Y-20251769D01*
X26651131Y-20251770D01*
X26639500Y-20310247D01*
X26639500Y-22499752D01*
X26651131Y-22558229D01*
X26651132Y-22558230D01*
X26695447Y-22624552D01*
X26761769Y-22668867D01*
X26761770Y-22668868D01*
X26820247Y-22680499D01*
X26820250Y-22680500D01*
X26820252Y-22680500D01*
X26876000Y-22680500D01*
X26943039Y-22700185D01*
X26988794Y-22752989D01*
X27000000Y-22804500D01*
X27000000Y-23435500D01*
X26980315Y-23502539D01*
X26927511Y-23548294D01*
X26876000Y-23559500D01*
X26820247Y-23559500D01*
X26761770Y-23571131D01*
X26761769Y-23571132D01*
X26695447Y-23615447D01*
X26651132Y-23681769D01*
X26651131Y-23681770D01*
X26639500Y-23740247D01*
X26639500Y-25929752D01*
X26651131Y-25988229D01*
X26651132Y-25988230D01*
X26695447Y-26054552D01*
X26761769Y-26098867D01*
X26761770Y-26098868D01*
X26820247Y-26110499D01*
X26820250Y-26110500D01*
X26820252Y-26110500D01*
X26876000Y-26110500D01*
X26943039Y-26130185D01*
X26988794Y-26182989D01*
X27000000Y-26234500D01*
X27000000Y-30249999D01*
X27000001Y-30250000D01*
X27079405Y-30248662D01*
X27973411Y-30233601D01*
X28040773Y-30252153D01*
X28087411Y-30304179D01*
X28099500Y-30357583D01*
X28099500Y-34139484D01*
X28107973Y-34192977D01*
X28109500Y-34212376D01*
X28109500Y-35095500D01*
X28089815Y-35162539D01*
X28037011Y-35208294D01*
X27985500Y-35219500D01*
X27967648Y-35219500D01*
X27900254Y-35230174D01*
X27765464Y-35251523D01*
X27765461Y-35251523D01*
X27570784Y-35314778D01*
X27523114Y-35339067D01*
X27495642Y-35349185D01*
X26686439Y-35542558D01*
X25960208Y-35716104D01*
X25931390Y-35719500D01*
X21524500Y-35719500D01*
X21457461Y-35699815D01*
X21411706Y-35647011D01*
X21400500Y-35595500D01*
X21400500Y-27509184D01*
X21400491Y-27509004D01*
X21400491Y-27506690D01*
X21400492Y-27472767D01*
X21371399Y-27251761D01*
X21354746Y-27189611D01*
X21313709Y-27036447D01*
X21270650Y-26932489D01*
X21228405Y-26830496D01*
X21116950Y-26637447D01*
X20981251Y-26460596D01*
X20965953Y-26445297D01*
X20954337Y-26433680D01*
X20954322Y-26433664D01*
X20536528Y-26015871D01*
X20536513Y-26015844D01*
X20498222Y-25977553D01*
X20498223Y-25977553D01*
X20419410Y-25898741D01*
X20419405Y-25898737D01*
X20419403Y-25898735D01*
X20242565Y-25763046D01*
X20242556Y-25763040D01*
X20167650Y-25719794D01*
X20049508Y-25651586D01*
X19972523Y-25619699D01*
X19843555Y-25566280D01*
X19628239Y-25508590D01*
X19628236Y-25508589D01*
X19407246Y-25479499D01*
X19407237Y-25479498D01*
X19407233Y-25479498D01*
X19407225Y-25479498D01*
X19295776Y-25479500D01*
X16538956Y-25479500D01*
X16471917Y-25459815D01*
X16437643Y-25426995D01*
X16043187Y-24868026D01*
X16020616Y-24801903D01*
X16020500Y-24796531D01*
X16020500Y-24275730D01*
X16017646Y-24245300D01*
X16017646Y-24245298D01*
X15979874Y-24137354D01*
X15972793Y-24117118D01*
X15892150Y-24007850D01*
X15782882Y-23927207D01*
X15782880Y-23927206D01*
X15654700Y-23882353D01*
X15624270Y-23879500D01*
X15624266Y-23879500D01*
X14815734Y-23879500D01*
X14815730Y-23879500D01*
X14785300Y-23882353D01*
X14785298Y-23882353D01*
X14657119Y-23927206D01*
X14657117Y-23927207D01*
X14547850Y-24007850D01*
X14467207Y-24117117D01*
X14467206Y-24117119D01*
X14422353Y-24245298D01*
X14422353Y-24245300D01*
X14419500Y-24275730D01*
X11670500Y-24275730D01*
X11670500Y-23534042D01*
X11672479Y-23517502D01*
X11673569Y-23505339D01*
X11673652Y-23503949D01*
X11673694Y-23503218D01*
X11670500Y-23484421D01*
X11670500Y-19141007D01*
X11670500Y-19141006D01*
X11670500Y-18680734D01*
X11667646Y-18650301D01*
X11667646Y-18650300D01*
X11667646Y-18650298D01*
X11622793Y-18522119D01*
X11622792Y-18522117D01*
X11542150Y-18412850D01*
X11432882Y-18332207D01*
X11432880Y-18332206D01*
X11304700Y-18287353D01*
X11274270Y-18284500D01*
X11274266Y-18284500D01*
X10665734Y-18284500D01*
X10665730Y-18284500D01*
X10635300Y-18287353D01*
X10635298Y-18287353D01*
X10507119Y-18332206D01*
X10507117Y-18332207D01*
X10397850Y-18412850D01*
X10397848Y-18412851D01*
X10363692Y-18459133D01*
X10359710Y-18462155D01*
X10357634Y-18466703D01*
X10332158Y-18483075D01*
X10308044Y-18501384D01*
X10301914Y-18502511D01*
X10298856Y-18504477D01*
X10263921Y-18509500D01*
X10057267Y-18509500D01*
X9990228Y-18489815D01*
X9944473Y-18437011D01*
X9940338Y-18426774D01*
X9777571Y-17965661D01*
X9770500Y-17924387D01*
X9770500Y-17770441D01*
X9787114Y-17708439D01*
X9799568Y-17686868D01*
X9799569Y-17686867D01*
X9825500Y-17590094D01*
X9825500Y-17489906D01*
X9799569Y-17393133D01*
X9749476Y-17306368D01*
X9678632Y-17235524D01*
X9678631Y-17235523D01*
X9678628Y-17235521D01*
X9631238Y-17208161D01*
X9605557Y-17188455D01*
X9596615Y-17179513D01*
X9596613Y-17179511D01*
X9493886Y-17120201D01*
X9379309Y-17089500D01*
X9260691Y-17089500D01*
X9146114Y-17120201D01*
X9146112Y-17120201D01*
X9146112Y-17120202D01*
X9043383Y-17179513D01*
X9034437Y-17188459D01*
X9008760Y-17208161D01*
X8961374Y-17235520D01*
X8961365Y-17235526D01*
X8890523Y-17306368D01*
X8854445Y-17368859D01*
X8840431Y-17393133D01*
X8814500Y-17489906D01*
X8814500Y-17590094D01*
X8831787Y-17654609D01*
X8840431Y-17686868D01*
X8852886Y-17708439D01*
X8857036Y-17723928D01*
X8864477Y-17735506D01*
X8869500Y-17770441D01*
X8869500Y-17924385D01*
X8862429Y-17965660D01*
X8647475Y-18574612D01*
X8647465Y-18574643D01*
X8640370Y-18599713D01*
X8639743Y-18602623D01*
X8638562Y-18609220D01*
X8633549Y-18628303D01*
X8622354Y-18660301D01*
X8622353Y-18660305D01*
X8619500Y-18690731D01*
X8619500Y-19749269D01*
X8622353Y-19779699D01*
X8622353Y-19779701D01*
X8667206Y-19907880D01*
X8667207Y-19907882D01*
X8747850Y-20017150D01*
X8857118Y-20097793D01*
X8899845Y-20112744D01*
X8985299Y-20142646D01*
X9015730Y-20145500D01*
X9015734Y-20145500D01*
X9624270Y-20145500D01*
X9654699Y-20142646D01*
X9654701Y-20142646D01*
X9724293Y-20118294D01*
X9782882Y-20097793D01*
X9892150Y-20017150D01*
X9933689Y-19960865D01*
X9937669Y-19957843D01*
X9939746Y-19953297D01*
X9965220Y-19936925D01*
X9989336Y-19918616D01*
X9995465Y-19917488D01*
X9998524Y-19915523D01*
X10033459Y-19910500D01*
X10145500Y-19910500D01*
X10212539Y-19930185D01*
X10258294Y-19982989D01*
X10269500Y-20034500D01*
X10269500Y-23408411D01*
X10262106Y-23450591D01*
X10099768Y-23899375D01*
X10058453Y-23955721D01*
X10056810Y-23956954D01*
X10022593Y-23982209D01*
X9987849Y-24007851D01*
X9907207Y-24117117D01*
X9860615Y-24250267D01*
X9849511Y-24265747D01*
X9842857Y-24283601D01*
X9829567Y-24293553D01*
X9819893Y-24307042D01*
X9802183Y-24314061D01*
X9786932Y-24325484D01*
X9756837Y-24332036D01*
X9754940Y-24332789D01*
X9752446Y-24332993D01*
X9584512Y-24345039D01*
X9516236Y-24330202D01*
X9475872Y-24294992D01*
X9452150Y-24262850D01*
X9342882Y-24182207D01*
X9342880Y-24182206D01*
X9214700Y-24137353D01*
X9184270Y-24134500D01*
X9184266Y-24134500D01*
X8575734Y-24134500D01*
X8575730Y-24134500D01*
X8545300Y-24137353D01*
X8545298Y-24137353D01*
X8417119Y-24182206D01*
X8417117Y-24182207D01*
X8307850Y-24262850D01*
X8227207Y-24372117D01*
X8227206Y-24372119D01*
X8182353Y-24500298D01*
X8182353Y-24500300D01*
X8179500Y-24530730D01*
X100000Y-24530730D01*
X100000Y-18714000D01*
X119685Y-18646961D01*
X172489Y-18601206D01*
X224000Y-18590000D01*
X5040000Y-18590000D01*
X5040000Y-16839906D01*
X10874500Y-16839906D01*
X10874500Y-16940094D01*
X10884956Y-16979115D01*
X10900431Y-17036868D01*
X10907760Y-17049562D01*
X10911272Y-17055645D01*
X10912886Y-17058439D01*
X10917036Y-17073928D01*
X10924477Y-17085506D01*
X10929500Y-17120441D01*
X10929500Y-17309557D01*
X10912889Y-17371555D01*
X10900431Y-17393132D01*
X10900431Y-17393133D01*
X10874500Y-17489906D01*
X10874500Y-17590094D01*
X10900431Y-17686867D01*
X10921828Y-17723928D01*
X10950522Y-17773630D01*
X10950524Y-17773632D01*
X11021368Y-17844476D01*
X11068754Y-17871834D01*
X11068760Y-17871837D01*
X11094442Y-17891544D01*
X11103387Y-17900489D01*
X11206114Y-17959799D01*
X11320691Y-17990500D01*
X11320694Y-17990500D01*
X11439306Y-17990500D01*
X11439309Y-17990500D01*
X11553886Y-17959799D01*
X11656613Y-17900489D01*
X11665558Y-17891544D01*
X11691233Y-17871840D01*
X11738632Y-17844476D01*
X11809476Y-17773632D01*
X11859569Y-17686867D01*
X11885500Y-17590094D01*
X11885500Y-17489906D01*
X11885499Y-17489905D01*
X11884439Y-17481849D01*
X11887647Y-17481426D01*
X11888966Y-17426710D01*
X11928145Y-17368859D01*
X11982331Y-17342992D01*
X11994572Y-17340500D01*
X12024309Y-17340500D01*
X12114673Y-17316286D01*
X12138887Y-17309799D01*
X12241614Y-17250489D01*
X12336498Y-17155603D01*
X12385993Y-17125311D01*
X12675789Y-17031522D01*
X12713964Y-17025500D01*
X12807760Y-17025500D01*
X12837349Y-17022725D01*
X12961975Y-16979116D01*
X13068211Y-16900711D01*
X13146616Y-16794475D01*
X13190225Y-16669849D01*
X13193000Y-16640260D01*
X13193000Y-16281007D01*
X13629500Y-16281007D01*
X13629500Y-16418993D01*
X13641306Y-16478346D01*
X13641799Y-16486983D01*
X13642000Y-16494045D01*
X13642000Y-16640260D01*
X13644774Y-16669849D01*
X13688384Y-16794476D01*
X13766788Y-16900710D01*
X13766789Y-16900711D01*
X13873023Y-16979115D01*
X13873024Y-16979115D01*
X13873025Y-16979116D01*
X13997651Y-17022725D01*
X13997650Y-17022725D01*
X14027240Y-17025500D01*
X14027244Y-17025500D01*
X14123113Y-17025500D01*
X14147303Y-17027882D01*
X14165609Y-17031524D01*
X14261004Y-17050500D01*
X14261007Y-17050500D01*
X14511402Y-17050500D01*
X14537346Y-17053244D01*
X14548564Y-17055645D01*
X15026155Y-17062541D01*
X15092903Y-17083191D01*
X15137890Y-17136650D01*
X15145981Y-17162335D01*
X15151132Y-17188230D01*
X15195447Y-17254552D01*
X15261769Y-17298867D01*
X15261770Y-17298868D01*
X15320247Y-17310499D01*
X15320250Y-17310500D01*
X15320252Y-17310500D01*
X16959750Y-17310500D01*
X16959751Y-17310499D01*
X16980521Y-17306368D01*
X17018229Y-17298868D01*
X17018229Y-17298867D01*
X17018231Y-17298867D01*
X17084552Y-17254552D01*
X17128867Y-17188231D01*
X17128867Y-17188229D01*
X17128868Y-17188229D01*
X17140499Y-17129752D01*
X17140500Y-17129750D01*
X17140500Y-14090249D01*
X17140499Y-14090247D01*
X17128868Y-14031770D01*
X17128867Y-14031769D01*
X17084552Y-13965447D01*
X17018230Y-13921132D01*
X17018229Y-13921131D01*
X16959752Y-13909500D01*
X16959748Y-13909500D01*
X15320252Y-13909500D01*
X15320247Y-13909500D01*
X15261770Y-13921131D01*
X15261769Y-13921132D01*
X15195447Y-13965447D01*
X15151132Y-14031769D01*
X15151131Y-14031770D01*
X15139500Y-14090247D01*
X15139500Y-14951605D01*
X15119815Y-15018644D01*
X15100374Y-15042006D01*
X14489109Y-15615901D01*
X14426761Y-15647437D01*
X14404235Y-15649500D01*
X14261005Y-15649500D01*
X14182494Y-15665117D01*
X14147303Y-15672117D01*
X14123113Y-15674500D01*
X14027240Y-15674500D01*
X13997650Y-15677274D01*
X13873023Y-15720884D01*
X13766789Y-15799288D01*
X13766788Y-15799289D01*
X13688384Y-15905523D01*
X13644774Y-16030150D01*
X13642000Y-16059739D01*
X13642000Y-16205953D01*
X13639617Y-16230145D01*
X13629926Y-16278859D01*
X13629926Y-16278863D01*
X13629500Y-16281007D01*
X13193000Y-16281007D01*
X13193000Y-16059739D01*
X13190225Y-16030150D01*
X13166751Y-15963067D01*
X13146616Y-15905525D01*
X13142538Y-15900000D01*
X13068211Y-15799289D01*
X13068210Y-15799288D01*
X12961976Y-15720884D01*
X12837348Y-15677274D01*
X12837349Y-15677274D01*
X12807760Y-15674500D01*
X12807756Y-15674500D01*
X12202244Y-15674500D01*
X12202240Y-15674500D01*
X12172650Y-15677274D01*
X12048023Y-15720884D01*
X11941789Y-15799288D01*
X11941788Y-15799289D01*
X11863384Y-15905523D01*
X11863384Y-15905524D01*
X11824119Y-16017736D01*
X11811461Y-16043716D01*
X11704811Y-16210032D01*
X11704803Y-16210047D01*
X11689812Y-16237944D01*
X11688372Y-16241206D01*
X11688368Y-16241216D01*
X11677851Y-16271052D01*
X11677847Y-16271065D01*
X11672297Y-16291780D01*
X11659908Y-16321688D01*
X11653190Y-16333323D01*
X11633486Y-16359000D01*
X11605536Y-16386950D01*
X11595376Y-16395757D01*
X11595428Y-16395818D01*
X11592609Y-16398203D01*
X11585934Y-16404575D01*
X11584779Y-16403364D01*
X11530482Y-16435628D01*
X11499738Y-16439500D01*
X11439309Y-16439500D01*
X11320691Y-16439500D01*
X11206114Y-16470201D01*
X11206112Y-16470201D01*
X11206112Y-16470202D01*
X11103383Y-16529513D01*
X11094437Y-16538459D01*
X11068760Y-16558161D01*
X11021374Y-16585520D01*
X11021365Y-16585526D01*
X10950523Y-16656368D01*
X10900432Y-16743131D01*
X10900431Y-16743133D01*
X10874500Y-16839906D01*
X5040000Y-16839906D01*
X5040000Y-16814500D01*
X5059685Y-16747461D01*
X5112489Y-16701706D01*
X5164000Y-16690500D01*
X9379306Y-16690500D01*
X9379309Y-16690500D01*
X9493886Y-16659799D01*
X9596613Y-16600489D01*
X9605555Y-16591546D01*
X9631233Y-16571840D01*
X9678632Y-16544476D01*
X9749476Y-16473632D01*
X9799569Y-16386867D01*
X9825500Y-16290094D01*
X9825500Y-16189906D01*
X9799569Y-16093133D01*
X9749476Y-16006368D01*
X9678632Y-15935524D01*
X9678631Y-15935523D01*
X9678628Y-15935521D01*
X9631238Y-15908161D01*
X9605557Y-15888455D01*
X9596615Y-15879513D01*
X9596613Y-15879511D01*
X9493886Y-15820201D01*
X9379309Y-15789500D01*
X9379306Y-15789500D01*
X5164000Y-15789500D01*
X5096961Y-15769815D01*
X5051206Y-15717011D01*
X5040000Y-15665500D01*
X5040000Y-14080000D01*
X224000Y-14080000D01*
X156961Y-14060315D01*
X111206Y-14007511D01*
X100000Y-13956000D01*
X100000Y-13420000D01*
X7890000Y-13420000D01*
X22789856Y-13420000D01*
X22780000Y-15480000D01*
X45520000Y-15490000D01*
X45529904Y-13420000D01*
X45750000Y-13420000D01*
X45950000Y-800000D01*
X8090000Y-800000D01*
X7890000Y-13420000D01*
X100000Y-13420000D01*
X100000Y-2498037D01*
X101752Y-2477266D01*
X123283Y-2350542D01*
X126377Y-2336985D01*
X214089Y-2032530D01*
X218682Y-2019406D01*
X265947Y-1905298D01*
X339929Y-1726686D01*
X345951Y-1714180D01*
X499227Y-1436850D01*
X506605Y-1425107D01*
X689972Y-1166676D01*
X698619Y-1155834D01*
X909750Y-919579D01*
X919581Y-909749D01*
X1155834Y-698619D01*
X1166676Y-689972D01*
X1425107Y-506605D01*
X1436850Y-499227D01*
X1714180Y-345951D01*
X1726686Y-339929D01*
X2019406Y-218682D01*
X2032526Y-214090D01*
X2336990Y-126375D01*
X2350537Y-123283D01*
X2662907Y-70210D01*
X2676700Y-68656D01*
X2996528Y-50695D01*
X3003481Y-50500D01*
X3016408Y-50500D01*
X52983592Y-50500D01*
X52996519Y-50500D01*
X53003472Y-50695D01*
G37*
%TD.AperFunction*%
%TD*%
%TA.AperFunction,Conductor*%
%TO.N,Net-(Q1-G)*%
G36*
X15347667Y-15103801D02*
G01*
X15349758Y-15105135D01*
X16131122Y-15603697D01*
X16136253Y-15611036D01*
X16134692Y-15619853D01*
X16134684Y-15619867D01*
X15343511Y-16856066D01*
X15336165Y-16861187D01*
X15333487Y-16861458D01*
X14551531Y-16850166D01*
X14543308Y-16846620D01*
X14540000Y-16838467D01*
X14540000Y-15855063D01*
X14543427Y-15846790D01*
X14543668Y-15846555D01*
X15333368Y-15105134D01*
X15341745Y-15101971D01*
X15347667Y-15103801D01*
G37*
%TD.AperFunction*%
%TD*%
%TA.AperFunction,Conductor*%
%TO.N,/DRAIN*%
G36*
X30328514Y-19241998D02*
G01*
X30333020Y-19248758D01*
X30588494Y-20323913D01*
X30587073Y-20332754D01*
X30585682Y-20334582D01*
X29598725Y-21396764D01*
X29590583Y-21400492D01*
X29582190Y-21397371D01*
X29581585Y-21396766D01*
X28594515Y-20334920D01*
X28591392Y-20326527D01*
X28591883Y-20323572D01*
X28846857Y-19479873D01*
X28852531Y-19472947D01*
X28856225Y-19471704D01*
X30319808Y-19239907D01*
X30328514Y-19241998D01*
G37*
%TD.AperFunction*%
%TD*%
%TA.AperFunction,Conductor*%
%TO.N,/DRAIN*%
G36*
X36343361Y-20406221D02*
G01*
X39052271Y-21390921D01*
X39060750Y-21394004D01*
X39067355Y-21400051D01*
X39067749Y-21408997D01*
X39061702Y-21415602D01*
X39060750Y-21415996D01*
X36343363Y-22403777D01*
X36336528Y-22404132D01*
X35348862Y-22157215D01*
X35341667Y-22151884D01*
X35340000Y-22145864D01*
X35340000Y-20664135D01*
X35343427Y-20655862D01*
X35348860Y-20652784D01*
X36336531Y-20405867D01*
X36343361Y-20406221D01*
G37*
%TD.AperFunction*%
%TD*%
%TA.AperFunction,Conductor*%
%TO.N,/DRAIN*%
G36*
X33331139Y-20652784D02*
G01*
X33338333Y-20658115D01*
X33340000Y-20664135D01*
X33340000Y-22145864D01*
X33336573Y-22154137D01*
X33331138Y-22157215D01*
X32343471Y-22404132D01*
X32336636Y-22403777D01*
X31461670Y-22085723D01*
X29619248Y-21415995D01*
X29612644Y-21409949D01*
X29612250Y-21401003D01*
X29618297Y-21394398D01*
X29619241Y-21394006D01*
X32336638Y-20406221D01*
X32343468Y-20405867D01*
X33331139Y-20652784D01*
G37*
%TD.AperFunction*%
%TD*%
%TA.AperFunction,Conductor*%
%TO.N,Net-(RF_IN1-In)*%
G36*
X4707766Y-15987012D02*
G01*
X4714105Y-15993337D01*
X4715000Y-15997826D01*
X4715000Y-16482848D01*
X4711573Y-16491121D01*
X4708634Y-16493261D01*
X3940882Y-16886558D01*
X3931957Y-16887280D01*
X3931036Y-16886940D01*
X2504587Y-16290695D01*
X2498275Y-16284343D01*
X2498304Y-16275388D01*
X2504514Y-16269136D01*
X3921159Y-15665950D01*
X3930109Y-15665863D01*
X4707766Y-15987012D01*
G37*
%TD.AperFunction*%
%TD*%
%TA.AperFunction,Conductor*%
%TO.N,Net-(C3-Pad2)*%
G36*
X41844145Y-23836658D02*
G01*
X42832645Y-24232058D01*
X42839054Y-24238312D01*
X42840000Y-24242921D01*
X42840000Y-25427079D01*
X42836573Y-25435352D01*
X42832645Y-25437942D01*
X41844145Y-25833341D01*
X41835803Y-25833474D01*
X40457373Y-25332409D01*
X39119248Y-24845995D01*
X39112644Y-24839949D01*
X39112250Y-24831003D01*
X39118297Y-24824398D01*
X39119241Y-24824006D01*
X41835804Y-23836525D01*
X41844145Y-23836658D01*
G37*
%TD.AperFunction*%
%TD*%
%TA.AperFunction,Conductor*%
%TO.N,+VDC*%
G36*
X15825573Y-24916068D02*
G01*
X16362528Y-25676966D01*
X16364669Y-25683712D01*
X16364669Y-26661046D01*
X16361242Y-26669319D01*
X16352969Y-26672746D01*
X16347725Y-26671505D01*
X15571230Y-26282216D01*
X15565370Y-26275445D01*
X15565358Y-26275408D01*
X15222132Y-25189905D01*
X15222906Y-25180984D01*
X15228464Y-25175719D01*
X15811193Y-24912153D01*
X15820143Y-24911867D01*
X15825573Y-24916068D01*
G37*
%TD.AperFunction*%
%TD*%
%TA.AperFunction,Conductor*%
%TO.N,+VDC*%
G36*
X38287305Y-35568598D02*
G01*
X38289135Y-35570428D01*
X39270227Y-36797774D01*
X39275745Y-36804677D01*
X39278234Y-36813279D01*
X39277469Y-36816327D01*
X38882942Y-37802645D01*
X38876688Y-37809054D01*
X38872079Y-37810000D01*
X37687921Y-37810000D01*
X37679648Y-37806573D01*
X37677058Y-37802645D01*
X37282530Y-36816325D01*
X37282639Y-36807373D01*
X37284251Y-36804681D01*
X38270862Y-35570431D01*
X38278703Y-35566109D01*
X38287305Y-35568598D01*
G37*
%TD.AperFunction*%
%TD*%
%TA.AperFunction,Conductor*%
%TO.N,+VDC*%
G36*
X38783368Y-40113427D02*
G01*
X38783439Y-40113499D01*
X39657994Y-41003305D01*
X39661350Y-41011607D01*
X39659465Y-41017874D01*
X39085590Y-41902383D01*
X39078212Y-41907458D01*
X39070732Y-41906573D01*
X37836354Y-41316994D01*
X37830366Y-41310336D01*
X37829707Y-41306925D01*
X37780506Y-40122184D01*
X37783587Y-40113777D01*
X37791711Y-40110010D01*
X37792196Y-40110000D01*
X38775095Y-40110000D01*
X38783368Y-40113427D01*
G37*
%TD.AperFunction*%
%TD*%
%TA.AperFunction,Conductor*%
%TO.N,+VDC*%
G36*
X38287305Y-35568598D02*
G01*
X38289135Y-35570428D01*
X38772980Y-36175718D01*
X39275327Y-36804155D01*
X39277816Y-36812757D01*
X39276653Y-36816692D01*
X38783234Y-37803532D01*
X38776469Y-37809400D01*
X38772769Y-37810000D01*
X37787231Y-37810000D01*
X37778958Y-37806573D01*
X37776766Y-37803532D01*
X37283346Y-36816692D01*
X37282711Y-36807760D01*
X37284672Y-36804155D01*
X38270862Y-35570431D01*
X38278703Y-35566109D01*
X38287305Y-35568598D01*
G37*
%TD.AperFunction*%
%TD*%
%TA.AperFunction,Conductor*%
%TO.N,+VDC*%
G36*
X27668898Y-35522593D02*
G01*
X27669230Y-35522804D01*
X28994622Y-36402882D01*
X29156321Y-36510253D01*
X29161318Y-36517684D01*
X29159596Y-36526472D01*
X29156321Y-36529747D01*
X27669246Y-37517184D01*
X27660458Y-37518906D01*
X27660061Y-37518818D01*
X26937828Y-37346228D01*
X26000117Y-37122146D01*
X25992867Y-37116890D01*
X25991136Y-37110766D01*
X25991136Y-35929233D01*
X25994563Y-35920960D01*
X26000114Y-35917854D01*
X27660057Y-35521182D01*
X27668898Y-35522593D01*
G37*
%TD.AperFunction*%
%TD*%
%TA.AperFunction,Conductor*%
%TO.N,+VDC*%
G36*
X29800639Y-34423427D02*
G01*
X29803075Y-34426988D01*
X30236862Y-35412786D01*
X30237058Y-35421738D01*
X30234543Y-35425652D01*
X29178979Y-36511760D01*
X29170756Y-36515305D01*
X29162435Y-36511996D01*
X29161666Y-36511174D01*
X28241483Y-35426215D01*
X28238745Y-35417689D01*
X28240214Y-35412901D01*
X28796643Y-34425954D01*
X28803691Y-34420430D01*
X28806835Y-34420000D01*
X29792366Y-34420000D01*
X29800639Y-34423427D01*
G37*
%TD.AperFunction*%
%TD*%
%TA.AperFunction,Conductor*%
%TO.N,+VDC*%
G36*
X30679895Y-35521171D02*
G01*
X32339884Y-35917854D01*
X32347133Y-35923109D01*
X32348864Y-35929233D01*
X32348864Y-37110766D01*
X32345437Y-37119039D01*
X32339883Y-37122146D01*
X30679944Y-37518817D01*
X30671101Y-37517406D01*
X30670753Y-37517184D01*
X30058690Y-37110766D01*
X29183677Y-36529745D01*
X29178681Y-36522316D01*
X29180403Y-36513528D01*
X29183676Y-36510254D01*
X30670755Y-35522814D01*
X30679541Y-35521093D01*
X30679895Y-35521171D01*
G37*
%TD.AperFunction*%
%TD*%
%TA.AperFunction,Conductor*%
%TO.N,+VDC*%
G36*
X36084933Y-35176949D02*
G01*
X38264873Y-35557187D01*
X38272434Y-35561983D01*
X38274388Y-35570722D01*
X38273116Y-35574346D01*
X37597014Y-36804754D01*
X37590026Y-36810355D01*
X37588192Y-36810732D01*
X35093132Y-37118380D01*
X35084501Y-37115991D01*
X35080088Y-37108200D01*
X35080000Y-37106768D01*
X35080000Y-35925877D01*
X35083427Y-35917604D01*
X35084708Y-35916497D01*
X36075963Y-35179091D01*
X36084645Y-35176903D01*
X36084933Y-35176949D01*
G37*
%TD.AperFunction*%
%TD*%
%TA.AperFunction,Conductor*%
%TO.N,+5V*%
G36*
X11465090Y-23483427D02*
G01*
X11468517Y-23491700D01*
X11468434Y-23493090D01*
X11261350Y-25223942D01*
X11256965Y-25231749D01*
X11248680Y-25234205D01*
X10667300Y-25181659D01*
X10659369Y-25177501D01*
X10657408Y-25174142D01*
X10250071Y-24096270D01*
X10250014Y-24088154D01*
X10465265Y-23493090D01*
X10467207Y-23487719D01*
X10473243Y-23481106D01*
X10478209Y-23480000D01*
X11456817Y-23480000D01*
X11465090Y-23483427D01*
G37*
%TD.AperFunction*%
%TD*%
%TA.AperFunction,Conductor*%
%TO.N,+5V*%
G36*
X9569995Y-17998427D02*
G01*
X9572755Y-18002806D01*
X9798743Y-18643021D01*
X9798265Y-18651963D01*
X9796663Y-18654447D01*
X9328953Y-19210358D01*
X9321004Y-19214483D01*
X9312468Y-19211779D01*
X9311047Y-19210358D01*
X8843336Y-18654447D01*
X8840632Y-18645911D01*
X8841254Y-18643025D01*
X9067245Y-18002806D01*
X9073230Y-17996145D01*
X9078278Y-17995000D01*
X9561722Y-17995000D01*
X9569995Y-17998427D01*
G37*
%TD.AperFunction*%
%TD*%
%TA.AperFunction,Conductor*%
%TO.N,+5V*%
G36*
X10062815Y-24520195D02*
G01*
X10063824Y-24521181D01*
X10653129Y-25171316D01*
X10656146Y-25179748D01*
X10652318Y-25187843D01*
X10652303Y-25187856D01*
X10064741Y-25718653D01*
X10056305Y-25721656D01*
X10053832Y-25721262D01*
X9468634Y-25562344D01*
X9461548Y-25556869D01*
X9460000Y-25551053D01*
X9460000Y-24570890D01*
X9463427Y-24562617D01*
X9470860Y-24559220D01*
X10054319Y-24517369D01*
X10062815Y-24520195D01*
G37*
%TD.AperFunction*%
%TD*%
%TA.AperFunction,Conductor*%
%TO.N,Net-(U2-OUTH)*%
G36*
X12029676Y-16103774D02*
G01*
X12501569Y-16347709D01*
X12507344Y-16354552D01*
X12507415Y-16354783D01*
X12643287Y-16814061D01*
X12642348Y-16822966D01*
X12635671Y-16828512D01*
X11688521Y-17135047D01*
X11679594Y-17134334D01*
X11673786Y-17127518D01*
X11673218Y-17123915D01*
X11673218Y-16643429D01*
X11675069Y-16637113D01*
X11730494Y-16550679D01*
X11734488Y-16546867D01*
X11738632Y-16544476D01*
X11809476Y-16473632D01*
X11859569Y-16386867D01*
X11876350Y-16324240D01*
X11877793Y-16320973D01*
X12014457Y-16107850D01*
X12021806Y-16102738D01*
X12029676Y-16103774D01*
G37*
%TD.AperFunction*%
%TD*%
%TA.AperFunction,Conductor*%
%TO.N,+VDC*%
G36*
X29304727Y-34046985D02*
G01*
X29304742Y-34046995D01*
X30122814Y-34594774D01*
X30127781Y-34602225D01*
X30126713Y-34609838D01*
X29405883Y-36014270D01*
X29399057Y-36020066D01*
X29390132Y-36019337D01*
X29387201Y-36017201D01*
X28693357Y-35323357D01*
X28690568Y-35318893D01*
X28323573Y-34252750D01*
X28324121Y-34243814D01*
X28330828Y-34237881D01*
X28332342Y-34237471D01*
X29295943Y-34045243D01*
X29304727Y-34046985D01*
G37*
%TD.AperFunction*%
%TD*%
M02*
