M48
; DRILL file {KiCad 9.0.6-9.0.6~ubuntu25.04.1} date 2025-12-18T10:48:41+0530
; FORMAT={-:-/ absolute / inch / decimal}
; #@! TF.CreationDate,2025-12-18T10:48:41+05:30
; #@! TF.GenerationSoftware,Kicad,Pcbnew,9.0.6-9.0.6~ubuntu25.04.1
; #@! TF.FileFunction,Plated,1,2,PTH
FMAT,2
INCH
; #@! TA.AperFunction,Plated,PTH,ViaDrill
T1C0.0157
; #@! TA.AperFunction,Plated,PTH,ComponentDrill
T2C0.0197
; #@! TA.AperFunction,Plated,PTH,ComponentDrill
T3C0.0394
; #@! TA.AperFunction,Plated,PTH,ComponentDrill
T4C0.1260
%
G90
G05
T1
X0.0526Y-0.2736
X0.0526Y-0.313
X0.0526Y-0.3524
X0.0526Y-0.3917
X0.0526Y-0.4311
X0.0526Y-0.4705
X0.0526Y-0.8248
X0.0526Y-0.8642
X0.0526Y-0.9035
X0.0526Y-0.9429
X0.0526Y-0.9823
X0.0526Y-1.0217
X0.0526Y-1.061
X0.0526Y-1.1004
X0.0526Y-1.1398
X0.0526Y-1.1791
X0.0526Y-1.2185
X0.0526Y-1.2579
X0.0526Y-1.2972
X0.0526Y-1.3366
X0.0526Y-1.376
X0.0526Y-1.4154
X0.0526Y-1.4547
X0.0919Y-0.313
X0.0919Y-0.3524
X0.0919Y-0.3917
X0.0919Y-0.4311
X0.0919Y-0.4705
X0.0919Y-0.8248
X0.0919Y-0.8642
X0.0919Y-0.9035
X0.0919Y-0.9429
X0.0919Y-0.9823
X0.0919Y-1.0217
X0.0919Y-1.061
X0.0919Y-1.1004
X0.0919Y-1.1398
X0.0919Y-1.1791
X0.0919Y-1.2185
X0.0919Y-1.2579
X0.0919Y-1.2972
X0.0919Y-1.3366
X0.0919Y-1.376
X0.0919Y-1.4154
X0.1313Y-0.313
X0.1313Y-0.3524
X0.1313Y-0.3917
X0.1313Y-0.4311
X0.1313Y-0.4705
X0.1313Y-0.8248
X0.1313Y-0.8642
X0.1313Y-0.9035
X0.1313Y-0.9429
X0.1313Y-0.9823
X0.1313Y-1.0217
X0.1313Y-1.061
X0.1313Y-1.1004
X0.1313Y-1.1398
X0.1313Y-1.1791
X0.1313Y-1.2185
X0.1313Y-1.2579
X0.1313Y-1.2972
X0.1313Y-1.3366
X0.1313Y-1.376
X0.1313Y-1.4154
X0.1707Y-0.313
X0.1707Y-0.3524
X0.1707Y-0.3917
X0.1707Y-0.4311
X0.1707Y-0.4705
X0.21Y-0.313
X0.21Y-0.3524
X0.21Y-0.3917
X0.21Y-0.4311
X0.21Y-0.4705
X0.21Y-0.8248
X0.21Y-0.8642
X0.21Y-0.9035
X0.21Y-0.9429
X0.21Y-0.9823
X0.21Y-1.0217
X0.21Y-1.061
X0.21Y-1.1004
X0.21Y-1.1398
X0.21Y-1.1791
X0.21Y-1.2185
X0.21Y-1.2579
X0.21Y-1.2972
X0.21Y-1.3366
X0.21Y-1.376
X0.21Y-1.4154
X0.2494Y-0.2736
X0.2494Y-0.313
X0.2494Y-0.3524
X0.2494Y-0.3917
X0.2494Y-0.4311
X0.2494Y-0.4705
X0.2494Y-0.5098
X0.2494Y-0.5492
X0.2494Y-0.5886
X0.2494Y-0.8248
X0.2494Y-0.8642
X0.2494Y-0.9035
X0.2494Y-1.061
X0.2494Y-1.1004
X0.2494Y-1.1398
X0.2494Y-1.1791
X0.2494Y-1.2185
X0.2494Y-1.2579
X0.2494Y-1.2972
X0.2494Y-1.3366
X0.2494Y-1.376
X0.2494Y-1.4154
X0.2494Y-1.4547
X0.2888Y-0.0768
X0.2888Y-0.1161
X0.2888Y-0.1555
X0.2888Y-0.1949
X0.2888Y-0.2343
X0.2888Y-0.2736
X0.2888Y-0.313
X0.2888Y-0.3524
X0.2888Y-0.3917
X0.2888Y-0.4311
X0.2888Y-0.4705
X0.2888Y-0.5098
X0.2888Y-0.5492
X0.2888Y-0.5886
X0.2888Y-0.8248
X0.2888Y-0.8642
X0.2888Y-0.9035
X0.2888Y-1.061
X0.2888Y-1.1004
X0.2888Y-1.1398
X0.2888Y-1.1791
X0.2888Y-1.2185
X0.2888Y-1.2579
X0.2888Y-1.2972
X0.2888Y-1.3366
X0.2888Y-1.376
X0.2888Y-1.4154
X0.2888Y-1.4547
X0.2888Y-1.4941
X0.2888Y-1.6909
X0.3281Y-0.0768
X0.3281Y-0.1161
X0.3281Y-0.1555
X0.3281Y-0.1949
X0.3281Y-0.2343
X0.3281Y-0.2736
X0.3281Y-0.313
X0.3281Y-0.3524
X0.3281Y-0.3917
X0.3281Y-0.4311
X0.3281Y-0.4705
X0.3281Y-0.5098
X0.3281Y-0.5492
X0.3281Y-0.5886
X0.3281Y-0.8248
X0.3281Y-0.8642
X0.3281Y-0.9035
X0.3281Y-1.061
X0.3281Y-1.1004
X0.3281Y-1.1398
X0.3281Y-1.1791
X0.3281Y-1.2185
X0.3281Y-1.2579
X0.3281Y-1.2972
X0.3281Y-1.3366
X0.3281Y-1.376
X0.3281Y-1.4154
X0.3281Y-1.4547
X0.3281Y-1.4941
X0.3281Y-1.5335
X0.3281Y-1.5728
X0.3281Y-1.6122
X0.3281Y-1.6909
X0.3675Y-0.0768
X0.3675Y-0.1161
X0.3675Y-0.1555
X0.3675Y-0.1949
X0.3675Y-0.2343
X0.3675Y-0.2736
X0.3675Y-0.313
X0.3675Y-0.3524
X0.3675Y-0.3917
X0.3675Y-0.4311
X0.3675Y-0.4705
X0.3675Y-0.5098
X0.3675Y-0.5492
X0.3675Y-0.5886
X0.3675Y-0.8248
X0.3675Y-0.8642
X0.3675Y-0.9035
X0.3675Y-1.061
X0.3675Y-1.376
X0.3675Y-1.4154
X0.3675Y-1.4547
X0.3675Y-1.5728
X0.3675Y-1.6122
X0.3675Y-1.6909
X0.4069Y-0.0768
X0.4069Y-0.1161
X0.4069Y-0.1555
X0.4069Y-0.1949
X0.4069Y-0.2343
X0.4069Y-0.2736
X0.4069Y-0.313
X0.4069Y-0.3524
X0.4069Y-0.3917
X0.4069Y-0.4311
X0.4069Y-0.4705
X0.4069Y-0.5098
X0.4069Y-0.5492
X0.4069Y-0.5886
X0.4069Y-1.4547
X0.4069Y-1.5728
X0.4069Y-1.6122
X0.4069Y-1.6909
X0.4463Y-0.0768
X0.4463Y-0.1161
X0.4463Y-0.1555
X0.4463Y-0.1949
X0.4463Y-0.2343
X0.4463Y-0.2736
X0.4463Y-0.313
X0.4463Y-0.3524
X0.4463Y-0.3917
X0.4463Y-0.4311
X0.4463Y-0.4705
X0.4463Y-0.5098
X0.4463Y-0.5492
X0.4463Y-0.5886
X0.4463Y-1.4547
X0.4463Y-1.5728
X0.4463Y-1.6122
X0.4463Y-1.6909
X0.4528Y-1.1614
X0.4528Y-1.2008
X0.4528Y-1.2402
X0.4528Y-1.2795
X0.4528Y-1.3189
X0.4528Y-1.3583
X0.4856Y-0.0768
X0.4856Y-0.1161
X0.4856Y-0.1555
X0.4856Y-0.1949
X0.4856Y-0.2343
X0.4856Y-0.2736
X0.4856Y-0.313
X0.4856Y-0.3524
X0.4856Y-0.3917
X0.4856Y-0.4311
X0.4856Y-0.4705
X0.4856Y-0.5098
X0.4856Y-0.5492
X0.4856Y-0.5886
X0.4856Y-0.8248
X0.4856Y-0.8642
X0.4856Y-0.9035
X0.4856Y-1.4547
X0.4856Y-1.5728
X0.4856Y-1.6122
X0.4856Y-1.6909
X0.4921Y-1.1614
X0.4921Y-1.2008
X0.4921Y-1.2402
X0.4921Y-1.2795
X0.4921Y-1.3189
X0.4921Y-1.3583
X0.525Y-0.0768
X0.525Y-0.1161
X0.525Y-0.1555
X0.525Y-0.1949
X0.525Y-0.2343
X0.525Y-0.2736
X0.525Y-0.313
X0.525Y-0.3524
X0.525Y-0.3917
X0.525Y-0.4311
X0.525Y-0.4705
X0.525Y-0.5098
X0.525Y-0.5492
X0.525Y-0.5886
X0.525Y-0.8248
X0.525Y-0.8642
X0.525Y-0.9035
X0.525Y-0.9429
X0.525Y-0.9823
X0.525Y-1.0217
X0.525Y-1.4154
X0.525Y-1.4547
X0.525Y-1.5728
X0.525Y-1.6122
X0.525Y-1.6909
X0.5315Y-1.1614
X0.5315Y-1.2008
X0.5315Y-1.2402
X0.5315Y-1.2795
X0.5315Y-1.3189
X0.5315Y-1.3583
X0.5644Y-0.0768
X0.5644Y-0.1161
X0.5644Y-0.1555
X0.5644Y-0.1949
X0.5644Y-0.2343
X0.5644Y-0.2736
X0.5644Y-0.313
X0.5644Y-0.3524
X0.5644Y-0.3917
X0.5644Y-0.4311
X0.5644Y-0.4705
X0.5644Y-0.5098
X0.5644Y-0.5492
X0.5644Y-0.7067
X0.5644Y-0.7461
X0.5644Y-0.7854
X0.5644Y-0.8248
X0.5644Y-0.8642
X0.5644Y-0.9035
X0.5644Y-1.4154
X0.5644Y-1.4547
X0.5644Y-1.5728
X0.5644Y-1.6122
X0.5644Y-1.6909
X0.5709Y-1.1614
X0.5709Y-1.2008
X0.5709Y-1.2402
X0.5709Y-1.2795
X0.5709Y-1.3189
X0.5709Y-1.3583
X0.6037Y-0.5098
X0.6037Y-0.7067
X0.6037Y-0.7461
X0.6037Y-0.7854
X0.6037Y-0.8248
X0.6037Y-0.8642
X0.6037Y-0.9035
X0.6037Y-1.4154
X0.6037Y-1.4547
X0.6037Y-1.5728
X0.6037Y-1.6122
X0.6037Y-1.6909
X0.6431Y-0.5098
X0.6431Y-0.7067
X0.6431Y-0.7461
X0.6431Y-0.7854
X0.6431Y-0.8248
X0.6431Y-0.8642
X0.6431Y-0.9035
X0.6431Y-1.4154
X0.6431Y-1.4547
X0.6431Y-1.5728
X0.6431Y-1.6122
X0.6431Y-1.6909
X0.6496Y-0.0787
X0.6496Y-0.1181
X0.6496Y-0.1575
X0.6496Y-0.1969
X0.6496Y-0.2362
X0.6496Y-0.2756
X0.6496Y-0.315
X0.6496Y-0.3543
X0.6825Y-0.5098
X0.6825Y-0.7067
X0.6825Y-0.7461
X0.6825Y-0.7854
X0.6825Y-0.8248
X0.6825Y-0.8642
X0.6825Y-0.9035
X0.6825Y-0.9429
X0.6825Y-0.9823
X0.6825Y-1.1004
X0.6825Y-1.1398
X0.6825Y-1.1791
X0.6825Y-1.2185
X0.6825Y-1.2579
X0.6825Y-1.2972
X0.6825Y-1.3366
X0.6825Y-1.376
X0.6825Y-1.4154
X0.6825Y-1.4547
X0.6825Y-1.5728
X0.6825Y-1.6122
X0.6825Y-1.6909
X0.689Y-0.0787
X0.689Y-0.1181
X0.689Y-0.1575
X0.689Y-0.1969
X0.689Y-0.2362
X0.689Y-0.2756
X0.689Y-0.315
X0.689Y-0.3543
X0.7219Y-0.5098
X0.7219Y-0.5492
X0.7219Y-0.5886
X0.7219Y-0.628
X0.7219Y-0.6673
X0.7219Y-0.7067
X0.7219Y-0.7461
X0.7219Y-0.7854
X0.7219Y-0.8248
X0.7219Y-0.8642
X0.7219Y-0.9035
X0.7219Y-0.9429
X0.7219Y-0.9823
X0.7219Y-1.1004
X0.7219Y-1.1398
X0.7219Y-1.1791
X0.7219Y-1.2185
X0.7219Y-1.2579
X0.7219Y-1.2972
X0.7219Y-1.3366
X0.7219Y-1.376
X0.7219Y-1.4154
X0.7219Y-1.4547
X0.7219Y-1.4941
X0.7219Y-1.5335
X0.7219Y-1.5728
X0.7219Y-1.6122
X0.7219Y-1.6909
X0.7283Y-0.0787
X0.7283Y-0.1181
X0.7283Y-0.1575
X0.7283Y-0.1969
X0.7283Y-0.2362
X0.7283Y-0.2756
X0.7283Y-0.315
X0.7283Y-0.3543
X0.7612Y-0.5098
X0.7612Y-0.7067
X0.7612Y-0.7461
X0.7612Y-0.7854
X0.7612Y-0.8248
X0.7612Y-0.8642
X0.7612Y-0.9035
X0.7612Y-0.9429
X0.7612Y-0.9823
X0.7612Y-1.1398
X0.7612Y-1.1791
X0.7612Y-1.2185
X0.7612Y-1.2579
X0.7612Y-1.2972
X0.7612Y-1.3366
X0.7612Y-1.376
X0.7612Y-1.4154
X0.7612Y-1.4547
X0.7612Y-1.4941
X0.7612Y-1.5335
X0.7612Y-1.5728
X0.7612Y-1.6122
X0.7612Y-1.6909
X0.7677Y-0.0787
X0.7677Y-0.1181
X0.7677Y-0.1575
X0.7677Y-0.1969
X0.7677Y-0.2362
X0.7677Y-0.2756
X0.7677Y-0.315
X0.7677Y-0.3543
X0.8006Y-0.5098
X0.8006Y-0.7461
X0.8006Y-0.7854
X0.8006Y-0.8248
X0.8006Y-0.8642
X0.8006Y-0.9035
X0.8006Y-0.9429
X0.8006Y-0.9823
X0.8006Y-1.6122
X0.8006Y-1.6909
X0.8071Y-0.0787
X0.8071Y-0.1181
X0.8071Y-0.1575
X0.8071Y-0.1969
X0.8071Y-0.2362
X0.8071Y-0.2756
X0.8071Y-0.315
X0.8071Y-0.3543
X0.84Y-0.5098
X0.84Y-0.7854
X0.84Y-0.8248
X0.84Y-0.8642
X0.84Y-0.9035
X0.84Y-0.9429
X0.84Y-0.9823
X0.84Y-1.6122
X0.84Y-1.6909
X0.8793Y-0.0768
X0.8793Y-0.1161
X0.8793Y-0.1555
X0.8793Y-0.1949
X0.8793Y-0.2343
X0.8793Y-0.2736
X0.8793Y-0.313
X0.8793Y-0.3524
X0.8793Y-0.3917
X0.8793Y-0.4311
X0.8793Y-0.4705
X0.8793Y-0.5098
X0.8793Y-0.7854
X0.8793Y-0.8248
X0.8793Y-0.8642
X0.8793Y-0.9035
X0.8793Y-0.9429
X0.8793Y-0.9823
X0.8793Y-1.0217
X0.8793Y-1.061
X0.8793Y-1.1004
X0.8793Y-1.1398
X0.8793Y-1.1791
X0.8793Y-1.2185
X0.8793Y-1.2579
X0.8793Y-1.2972
X0.8793Y-1.3366
X0.8793Y-1.376
X0.8793Y-1.6122
X0.8793Y-1.6909
X0.9187Y-0.0768
X0.9187Y-0.1161
X0.9187Y-0.1555
X0.9187Y-0.1949
X0.9187Y-0.2343
X0.9187Y-0.2736
X0.9187Y-0.313
X0.9187Y-0.3524
X0.9187Y-0.3917
X0.9187Y-0.4311
X0.9187Y-0.4705
X0.9187Y-0.5098
X0.9187Y-0.5492
X0.9187Y-0.5886
X0.9187Y-0.628
X0.9187Y-0.7854
X0.9187Y-0.8248
X0.9187Y-0.8642
X0.9187Y-0.9035
X0.9187Y-0.9429
X0.9187Y-0.9823
X0.9187Y-1.0217
X0.9187Y-1.061
X0.9187Y-1.1004
X0.9187Y-1.1398
X0.9187Y-1.1791
X0.9187Y-1.2185
X0.9187Y-1.2579
X0.9187Y-1.2972
X0.9187Y-1.3366
X0.9187Y-1.376
X0.9187Y-1.6122
X0.9187Y-1.6909
X0.9581Y-0.0768
X0.9581Y-0.1161
X0.9581Y-0.1555
X0.9581Y-0.1949
X0.9581Y-0.2343
X0.9581Y-0.2736
X0.9581Y-0.313
X0.9581Y-0.3524
X0.9581Y-0.3917
X0.9581Y-0.4311
X0.9581Y-0.4705
X0.9581Y-0.5098
X0.9581Y-0.5492
X0.9581Y-0.5886
X0.9581Y-0.628
X0.9581Y-0.7854
X0.9581Y-0.8248
X0.9581Y-0.8642
X0.9581Y-0.9035
X0.9581Y-0.9429
X0.9581Y-0.9823
X0.9581Y-1.0217
X0.9581Y-1.061
X0.9581Y-1.1004
X0.9581Y-1.1398
X0.9581Y-1.1791
X0.9581Y-1.2185
X0.9581Y-1.2579
X0.9581Y-1.2972
X0.9581Y-1.3366
X0.9581Y-1.6909
X0.9974Y-0.0768
X0.9974Y-0.1161
X0.9974Y-0.1555
X0.9974Y-0.1949
X0.9974Y-0.2343
X0.9974Y-0.2736
X0.9974Y-0.313
X0.9974Y-0.3524
X0.9974Y-0.3917
X0.9974Y-0.4311
X0.9974Y-0.4705
X0.9974Y-0.5098
X0.9974Y-0.5492
X0.9974Y-0.5886
X0.9974Y-0.628
X0.9974Y-0.7854
X0.9974Y-0.8248
X0.9974Y-0.8642
X0.9974Y-0.9035
X0.9974Y-0.9429
X0.9974Y-0.9823
X0.9974Y-1.0217
X0.9974Y-1.061
X0.9974Y-1.1004
X0.9974Y-1.1398
X0.9974Y-1.1791
X0.9974Y-1.2185
X0.9974Y-1.2579
X0.9974Y-1.2972
X0.9974Y-1.3366
X0.9974Y-1.6909
X1.0368Y-0.0768
X1.0368Y-0.1161
X1.0368Y-0.1555
X1.0368Y-0.1949
X1.0368Y-0.2343
X1.0368Y-0.2736
X1.0368Y-0.313
X1.0368Y-0.3524
X1.0368Y-0.3917
X1.0368Y-0.4311
X1.0368Y-0.4705
X1.0368Y-0.5098
X1.0368Y-0.5492
X1.0368Y-0.5886
X1.0368Y-1.061
X1.0368Y-1.1004
X1.0368Y-1.1398
X1.0368Y-1.1791
X1.0368Y-1.2185
X1.0368Y-1.2579
X1.0368Y-1.2972
X1.0368Y-1.3366
X1.0368Y-1.6909
X1.0762Y-0.0768
X1.0762Y-0.1161
X1.0762Y-0.1555
X1.0762Y-0.1949
X1.0762Y-0.2343
X1.0762Y-0.2736
X1.0762Y-0.313
X1.0762Y-0.3524
X1.0762Y-0.3917
X1.0762Y-0.4311
X1.0762Y-0.4705
X1.0762Y-0.5098
X1.0762Y-0.5492
X1.0762Y-0.5886
X1.0762Y-1.2185
X1.0762Y-1.2579
X1.0762Y-1.2972
X1.0762Y-1.3366
X1.1156Y-0.0768
X1.1156Y-0.1161
X1.1156Y-0.1555
X1.1156Y-0.1949
X1.1156Y-0.2343
X1.1156Y-0.2736
X1.1156Y-0.313
X1.1156Y-0.3524
X1.1156Y-0.3917
X1.1156Y-0.4311
X1.1156Y-0.4705
X1.1156Y-0.5098
X1.1156Y-0.5492
X1.1156Y-0.5886
X1.1549Y-0.0768
X1.1549Y-0.1161
X1.1549Y-0.1555
X1.1549Y-0.1949
X1.1549Y-0.2343
X1.1549Y-0.2736
X1.1549Y-0.313
X1.1549Y-0.3524
X1.1549Y-0.3917
X1.1549Y-0.4311
X1.1549Y-0.4705
X1.1549Y-0.5098
X1.1549Y-0.5492
X1.1549Y-0.5886
X1.1943Y-0.0768
X1.1943Y-0.1161
X1.1943Y-0.1555
X1.1943Y-0.1949
X1.1943Y-0.2343
X1.1943Y-0.2736
X1.1943Y-0.313
X1.1943Y-0.3524
X1.1943Y-0.3917
X1.1943Y-0.4311
X1.1943Y-0.4705
X1.1943Y-0.5098
X1.1943Y-0.5492
X1.1943Y-0.5886
X1.2337Y-0.0768
X1.2337Y-0.1161
X1.2337Y-0.1555
X1.2337Y-0.1949
X1.2337Y-0.2343
X1.2337Y-0.2736
X1.2337Y-0.313
X1.2337Y-0.3524
X1.2337Y-0.3917
X1.2337Y-0.4311
X1.2337Y-0.4705
X1.2337Y-0.5098
X1.2337Y-0.5492
X1.2337Y-0.5886
X1.2337Y-1.2972
X1.2337Y-1.3366
X1.273Y-0.0768
X1.273Y-0.1161
X1.273Y-0.1555
X1.273Y-0.1949
X1.273Y-0.2343
X1.273Y-0.2736
X1.273Y-0.313
X1.273Y-0.3524
X1.273Y-0.3917
X1.273Y-0.4311
X1.273Y-0.4705
X1.273Y-0.5098
X1.273Y-0.5492
X1.273Y-0.5886
X1.273Y-1.2972
X1.273Y-1.3366
X1.3124Y-0.0768
X1.3124Y-0.1161
X1.3124Y-0.1555
X1.3124Y-0.1949
X1.3124Y-0.2343
X1.3124Y-0.2736
X1.3124Y-0.313
X1.3124Y-0.3524
X1.3124Y-0.3917
X1.3124Y-0.4311
X1.3124Y-0.4705
X1.3124Y-0.5098
X1.3124Y-0.5492
X1.3124Y-0.5886
X1.3124Y-1.2972
X1.3124Y-1.3366
X1.3518Y-0.0768
X1.3518Y-0.1161
X1.3518Y-0.1555
X1.3518Y-0.1949
X1.3518Y-0.2343
X1.3518Y-0.2736
X1.3518Y-0.313
X1.3518Y-0.3524
X1.3518Y-0.3917
X1.3518Y-0.4311
X1.3518Y-0.4705
X1.3518Y-0.5098
X1.3518Y-0.5492
X1.3518Y-0.5886
X1.3518Y-1.2972
X1.3518Y-1.3366
X1.3911Y-0.0768
X1.3911Y-0.1161
X1.3911Y-0.1555
X1.3911Y-0.1949
X1.3911Y-0.2343
X1.3911Y-0.2736
X1.3911Y-0.313
X1.3911Y-0.3524
X1.3911Y-0.3917
X1.3911Y-0.4311
X1.3911Y-0.4705
X1.3911Y-0.5098
X1.3911Y-0.5492
X1.3911Y-0.5886
X1.3911Y-1.2579
X1.3911Y-1.2972
X1.3911Y-1.3366
X1.4305Y-0.0768
X1.4305Y-0.1161
X1.4305Y-0.1555
X1.4305Y-0.1949
X1.4305Y-0.2343
X1.4305Y-0.2736
X1.4305Y-0.313
X1.4305Y-0.3524
X1.4305Y-0.3917
X1.4305Y-0.4311
X1.4305Y-0.4705
X1.4305Y-0.5098
X1.4305Y-0.5492
X1.4305Y-0.5886
X1.4305Y-1.2579
X1.4305Y-1.2972
X1.4305Y-1.6516
X1.4305Y-1.6909
X1.4699Y-0.0768
X1.4699Y-0.1161
X1.4699Y-0.1555
X1.4699Y-0.1949
X1.4699Y-0.2343
X1.4699Y-0.2736
X1.4699Y-0.313
X1.4699Y-0.3524
X1.4699Y-0.3917
X1.4699Y-0.4311
X1.4699Y-0.4705
X1.4699Y-0.5098
X1.4699Y-0.5492
X1.4699Y-0.5886
X1.5093Y-0.0768
X1.5093Y-0.1161
X1.5093Y-0.1555
X1.5093Y-0.1949
X1.5093Y-0.2343
X1.5093Y-0.2736
X1.5093Y-0.313
X1.5093Y-0.3524
X1.5093Y-0.3917
X1.5093Y-0.4311
X1.5093Y-0.4705
X1.5093Y-0.5098
X1.5093Y-0.5492
X1.5093Y-0.5886
X1.5486Y-0.0768
X1.5486Y-0.1161
X1.5486Y-0.1555
X1.5486Y-0.1949
X1.5486Y-0.2343
X1.5486Y-0.2736
X1.5486Y-0.313
X1.5486Y-0.3524
X1.5486Y-0.3917
X1.5486Y-0.4311
X1.5486Y-0.4705
X1.5486Y-0.5098
X1.5486Y-0.5492
X1.5486Y-0.5886
X1.588Y-0.0768
X1.588Y-0.1161
X1.588Y-0.1555
X1.588Y-0.1949
X1.588Y-0.2343
X1.588Y-0.2736
X1.588Y-0.313
X1.588Y-0.3524
X1.588Y-0.3917
X1.588Y-0.4311
X1.588Y-0.4705
X1.588Y-0.5098
X1.588Y-0.5492
X1.588Y-0.5886
X1.6274Y-0.0768
X1.6274Y-0.1161
X1.6274Y-0.1555
X1.6274Y-0.1949
X1.6274Y-0.2343
X1.6274Y-0.2736
X1.6274Y-0.313
X1.6274Y-0.3524
X1.6274Y-0.3917
X1.6274Y-0.4311
X1.6274Y-0.4705
X1.6274Y-0.5098
X1.6274Y-0.5492
X1.6274Y-0.5886
X1.6667Y-0.0768
X1.6667Y-0.1161
X1.6667Y-0.1555
X1.6667Y-0.1949
X1.6667Y-0.2343
X1.6667Y-0.2736
X1.6667Y-0.313
X1.6667Y-0.3524
X1.6667Y-0.3917
X1.6667Y-0.4311
X1.6667Y-0.4705
X1.6667Y-0.5098
X1.6667Y-0.5492
X1.6667Y-0.5886
X1.7061Y-0.0768
X1.7061Y-0.1161
X1.7061Y-0.1555
X1.7061Y-0.1949
X1.7061Y-0.2343
X1.7061Y-0.2736
X1.7061Y-0.313
X1.7061Y-0.3524
X1.7061Y-0.3917
X1.7061Y-0.4311
X1.7061Y-0.4705
X1.7061Y-0.5098
X1.7061Y-0.5492
X1.7061Y-0.5886
X1.7061Y-0.628
X1.7061Y-0.6673
X1.7061Y-0.7067
X1.7061Y-0.7461
X1.7061Y-0.7854
X1.7061Y-0.8248
X1.7061Y-0.8642
X1.7061Y-0.9035
X1.7061Y-1.061
X1.7061Y-1.1004
X1.7061Y-1.1398
X1.7061Y-1.1791
X1.7455Y-0.0768
X1.7455Y-0.1161
X1.7455Y-0.1555
X1.7455Y-0.1949
X1.7455Y-0.2343
X1.7455Y-0.2736
X1.7455Y-0.313
X1.7455Y-0.3524
X1.7455Y-0.3917
X1.7455Y-0.4311
X1.7455Y-0.4705
X1.7455Y-0.5098
X1.7455Y-0.5492
X1.7455Y-0.5886
X1.7455Y-0.8248
X1.7455Y-0.8642
X1.7455Y-0.9035
X1.7455Y-1.061
X1.7455Y-1.1004
X1.7455Y-1.1398
X1.7455Y-1.1791
X1.7848Y-0.0768
X1.7848Y-0.1161
X1.7848Y-0.1555
X1.7848Y-0.1949
X1.7848Y-0.2343
X1.7848Y-0.2736
X1.7848Y-0.313
X1.7848Y-0.3524
X1.7848Y-0.3917
X1.7848Y-0.4311
X1.7848Y-0.4705
X1.7848Y-0.5098
X1.7848Y-0.5492
X1.7848Y-0.5886
X1.7848Y-0.8248
X1.7848Y-0.8642
X1.7848Y-0.9035
X1.7848Y-1.061
X1.7848Y-1.1004
X1.7848Y-1.1398
X1.7848Y-1.1791
X1.7848Y-1.6122
X1.7848Y-1.6516
X1.7848Y-1.6909
X1.8242Y-0.0768
X1.8242Y-0.1161
X1.8242Y-0.1555
X1.8242Y-0.1949
X1.8242Y-0.2343
X1.8242Y-0.2736
X1.8242Y-0.313
X1.8242Y-0.3524
X1.8242Y-0.3917
X1.8242Y-0.4311
X1.8242Y-0.4705
X1.8242Y-0.5098
X1.8242Y-0.5492
X1.8242Y-0.5886
X1.8242Y-0.7067
X1.8242Y-0.8248
X1.8242Y-0.8642
X1.8242Y-0.9035
X1.8242Y-1.061
X1.8242Y-1.1004
X1.8242Y-1.1398
X1.8242Y-1.1791
X1.8242Y-1.6122
X1.8242Y-1.6516
X1.8242Y-1.6909
X1.8636Y-0.0768
X1.8636Y-0.1161
X1.8636Y-0.1555
X1.8636Y-0.1949
X1.8636Y-0.2343
X1.8636Y-0.2736
X1.8636Y-0.313
X1.8636Y-0.3524
X1.8636Y-0.3917
X1.8636Y-0.4311
X1.8636Y-0.4705
X1.8636Y-0.5098
X1.8636Y-0.5492
X1.8636Y-0.5886
X1.8636Y-0.628
X1.8636Y-0.7067
X1.8636Y-0.8248
X1.8636Y-0.8642
X1.8636Y-0.9035
X1.8636Y-1.061
X1.8636Y-1.1004
X1.8636Y-1.1398
X1.8636Y-1.1791
X1.8636Y-1.2185
X1.8636Y-1.2579
X1.8636Y-1.2972
X1.8636Y-1.4941
X1.8636Y-1.5335
X1.8636Y-1.5728
X1.8636Y-1.6122
X1.8636Y-1.6516
X1.8636Y-1.6909
X1.903Y-0.2736
X1.903Y-0.313
X1.903Y-0.3524
X1.903Y-0.3917
X1.903Y-0.4311
X1.903Y-0.4705
X1.903Y-0.5098
X1.903Y-0.5492
X1.903Y-0.5886
X1.903Y-0.628
X1.903Y-0.7067
X1.903Y-0.8248
X1.903Y-0.8642
X1.903Y-0.9035
X1.903Y-1.061
X1.903Y-1.1004
X1.903Y-1.1398
X1.903Y-1.1791
X1.903Y-1.2185
X1.903Y-1.2579
X1.903Y-1.2972
X1.903Y-1.4941
X1.903Y-1.5335
X1.903Y-1.5728
X1.903Y-1.6122
X1.903Y-1.6516
X1.903Y-1.6909
X1.9423Y-0.2736
X1.9423Y-0.313
X1.9423Y-0.3524
X1.9423Y-0.3917
X1.9423Y-0.4311
X1.9423Y-0.4705
X1.9423Y-0.5098
X1.9423Y-0.5492
X1.9423Y-0.5886
X1.9423Y-0.628
X1.9423Y-0.6673
X1.9423Y-0.7067
X1.9423Y-0.8248
X1.9423Y-1.1398
X1.9423Y-1.1791
X1.9423Y-1.2185
X1.9423Y-1.2579
X1.9423Y-1.2972
X1.9423Y-1.3366
X1.9423Y-1.376
X1.9423Y-1.4154
X1.9423Y-1.4547
X1.9423Y-1.6909
X1.9817Y-0.313
X1.9817Y-0.3524
X1.9817Y-0.3917
X1.9817Y-0.4311
X1.9817Y-0.4705
X1.9817Y-0.5098
X1.9817Y-0.5492
X1.9817Y-0.5886
X1.9817Y-0.628
X1.9817Y-0.6673
X1.9817Y-0.7067
X1.9817Y-0.8248
X1.9817Y-1.1398
X1.9817Y-1.1791
X1.9817Y-1.2185
X1.9817Y-1.2579
X1.9817Y-1.2972
X1.9817Y-1.3366
X1.9817Y-1.376
X1.9817Y-1.4154
X2.0211Y-0.313
X2.0211Y-0.3524
X2.0211Y-0.3917
X2.0211Y-0.4311
X2.0211Y-0.4705
X2.0211Y-0.5098
X2.0211Y-0.5492
X2.0211Y-0.5886
X2.0211Y-0.628
X2.0211Y-0.6673
X2.0211Y-0.7067
X2.0604Y-0.313
X2.0604Y-0.3524
X2.0604Y-0.3917
X2.0604Y-0.4311
X2.0604Y-0.4705
X2.0604Y-0.5098
X2.0604Y-0.5492
X2.0604Y-0.5886
X2.0604Y-0.628
X2.0604Y-0.6673
X2.0604Y-0.7067
X2.0604Y-0.7461
X2.0604Y-0.7854
X2.0604Y-1.1791
X2.0604Y-1.2185
X2.0604Y-1.2579
X2.0604Y-1.2972
X2.0604Y-1.3366
X2.0604Y-1.376
X2.0604Y-1.4154
X2.0998Y-0.313
X2.1392Y-0.2736
X2.1392Y-0.313
X2.1392Y-0.3524
X2.1392Y-0.3917
X2.1392Y-0.4311
X2.1392Y-0.4705
X2.1392Y-0.5098
X2.1392Y-0.5492
X2.1392Y-0.5886
X2.1392Y-0.628
X2.1392Y-0.6673
X2.1392Y-0.7067
X2.1392Y-0.7461
X2.1392Y-0.7854
X2.1392Y-1.1791
X2.1392Y-1.2185
X2.1392Y-1.2579
X2.1392Y-1.2972
X2.1392Y-1.3366
X2.1392Y-1.376
X2.1392Y-1.4154
T2
X0.0472Y-0.1417
X0.0472Y-1.5906
X0.0749Y-0.0749
X0.0749Y-0.2085
X0.0749Y-1.5237
X0.0749Y-1.6574
X0.1417Y-0.0472
X0.1417Y-0.2362
X0.1417Y-1.4961
X0.1417Y-1.685
X0.2085Y-0.0749
X0.2085Y-0.2085
X0.2085Y-1.5237
X0.2085Y-1.6574
X0.2362Y-0.1417
X0.2362Y-1.5906
X1.9685Y-0.1417
X1.9685Y-1.5906
X1.9962Y-0.0749
X1.9962Y-0.2085
X1.9962Y-1.5237
X1.9962Y-1.6574
X2.063Y-0.0472
X2.063Y-0.2362
X2.063Y-1.4961
X2.063Y-1.685
X2.1298Y-0.0749
X2.1298Y-0.2085
X2.1298Y-1.5237
X2.1298Y-1.6574
X2.1575Y-0.1417
X2.1575Y-1.5906
T4
X0.1417Y-0.1417
X0.1417Y-1.5906
X2.063Y-0.1417
X2.063Y-1.5906
T3
G00X1.0992Y-1.4378
M15
G01X1.1976Y-1.4378
M16
G05
G00X1.1091Y-1.674
M15
G01X1.1878Y-1.674
M16
G05
G00X1.3335Y-1.5953
M15
G01X1.3335Y-1.5165
M16
G05
M30
