%TF.GenerationSoftware,KiCad,Pcbnew,9.0.6-9.0.6~ubuntu25.04.1*%
%TF.CreationDate,2025-12-18T10:48:41+05:30*%
%TF.ProjectId,HF-PA-v10,48462d50-412d-4763-9130-2e6b69636164,rev?*%
%TF.SameCoordinates,Original*%
%TF.FileFunction,Legend,Top*%
%TF.FilePolarity,Positive*%
%FSLAX46Y46*%
G04 Gerber Fmt 4.6, Leading zero omitted, Abs format (unit mm)*
G04 Created by KiCad (PCBNEW 9.0.6-9.0.6~ubuntu25.04.1) date 2025-12-18 10:48:41*
%MOMM*%
%LPD*%
G01*
G04 APERTURE LIST*
G04 Aperture macros list*
%AMRoundRect*
0 Rectangle with rounded corners*
0 $1 Rounding radius*
0 $2 $3 $4 $5 $6 $7 $8 $9 X,Y pos of 4 corners*
0 Add a 4 corners polygon primitive as box body*
4,1,4,$2,$3,$4,$5,$6,$7,$8,$9,$2,$3,0*
0 Add four circle primitives for the rounded corners*
1,1,$1+$1,$2,$3*
1,1,$1+$1,$4,$5*
1,1,$1+$1,$6,$7*
1,1,$1+$1,$8,$9*
0 Add four rect primitives between the rounded corners*
20,1,$1+$1,$2,$3,$4,$5,0*
20,1,$1+$1,$4,$5,$6,$7,0*
20,1,$1+$1,$6,$7,$8,$9,0*
20,1,$1+$1,$8,$9,$2,$3,0*%
G04 Aperture macros list end*
%ADD10C,0.100000*%
%ADD11C,0.150000*%
%ADD12C,0.120000*%
%ADD13C,0.127000*%
%ADD14C,0.200000*%
%ADD15C,0.300000*%
%ADD16RoundRect,0.250000X-0.475000X0.250000X-0.475000X-0.250000X0.475000X-0.250000X0.475000X0.250000X0*%
%ADD17C,0.800000*%
%ADD18C,6.400000*%
%ADD19RoundRect,0.250000X1.350000X-0.385000X1.350000X0.385000X-1.350000X0.385000X-1.350000X-0.385000X0*%
%ADD20RoundRect,0.250000X1.600000X-0.425000X1.600000X0.425000X-1.600000X0.425000X-1.600000X-0.425000X0*%
%ADD21O,4.400000X2.200000*%
%ADD22O,4.000000X2.000000*%
%ADD23O,2.000000X4.000000*%
%ADD24RoundRect,0.237500X-0.250000X-0.237500X0.250000X-0.237500X0.250000X0.237500X-0.250000X0.237500X0*%
%ADD25RoundRect,0.250000X-1.350000X0.385000X-1.350000X-0.385000X1.350000X-0.385000X1.350000X0.385000X0*%
%ADD26RoundRect,0.250000X-1.600000X0.425000X-1.600000X-0.425000X1.600000X-0.425000X1.600000X0.425000X0*%
%ADD27R,1.600000X3.000000*%
%ADD28R,5.800000X10.680000*%
%ADD29RoundRect,0.250000X-0.250000X-0.475000X0.250000X-0.475000X0.250000X0.475000X-0.250000X0.475000X0*%
%ADD30RoundRect,0.250000X0.250000X0.475000X-0.250000X0.475000X-0.250000X-0.475000X0.250000X-0.475000X0*%
%ADD31O,0.610000X0.360000*%
%ADD32R,1.000000X1.600000*%
%ADD33RoundRect,0.250000X-1.950000X-1.000000X1.950000X-1.000000X1.950000X1.000000X-1.950000X1.000000X0*%
%ADD34R,5.500000X2.150000*%
%ADD35RoundRect,0.250000X-0.350000X0.850000X-0.350000X-0.850000X0.350000X-0.850000X0.350000X0.850000X0*%
%ADD36RoundRect,0.249997X-2.650003X3.260003X-2.650003X-3.260003X2.650003X-3.260003X2.650003X3.260003X0*%
%ADD37RoundRect,0.250000X-1.000000X-0.650000X1.000000X-0.650000X1.000000X0.650000X-1.000000X0.650000X0*%
G04 APERTURE END LIST*
D10*
X50646895Y-27472782D02*
X50646895Y-27853734D01*
X50646895Y-27853734D02*
X49846895Y-27853734D01*
X50646895Y-27206115D02*
X49846895Y-27206115D01*
X49846895Y-27206115D02*
X49846895Y-26901353D01*
X49846895Y-26901353D02*
X49884990Y-26825163D01*
X49884990Y-26825163D02*
X49923085Y-26787068D01*
X49923085Y-26787068D02*
X49999276Y-26748972D01*
X49999276Y-26748972D02*
X50113561Y-26748972D01*
X50113561Y-26748972D02*
X50189752Y-26787068D01*
X50189752Y-26787068D02*
X50227847Y-26825163D01*
X50227847Y-26825163D02*
X50265942Y-26901353D01*
X50265942Y-26901353D02*
X50265942Y-27206115D01*
X50227847Y-26139449D02*
X50227847Y-26406115D01*
X50646895Y-26406115D02*
X49846895Y-26406115D01*
X49846895Y-26406115D02*
X49846895Y-26025163D01*
X50342133Y-25110877D02*
X50342133Y-24501354D01*
X50646895Y-24806115D02*
X50037371Y-24806115D01*
X50418323Y-23548973D02*
X50418323Y-23168020D01*
X50646895Y-23625163D02*
X49846895Y-23358496D01*
X49846895Y-23358496D02*
X50646895Y-23091830D01*
X50646895Y-22825163D02*
X49846895Y-22825163D01*
X49846895Y-22825163D02*
X50646895Y-22368020D01*
X50646895Y-22368020D02*
X49846895Y-22368020D01*
X49846895Y-22101354D02*
X49846895Y-21644211D01*
X50646895Y-21872783D02*
X49846895Y-21872783D01*
D11*
X44336779Y-17369819D02*
X44336779Y-16369819D01*
X44336779Y-16369819D02*
X44574874Y-16369819D01*
X44574874Y-16369819D02*
X44717731Y-16417438D01*
X44717731Y-16417438D02*
X44812969Y-16512676D01*
X44812969Y-16512676D02*
X44860588Y-16607914D01*
X44860588Y-16607914D02*
X44908207Y-16798390D01*
X44908207Y-16798390D02*
X44908207Y-16941247D01*
X44908207Y-16941247D02*
X44860588Y-17131723D01*
X44860588Y-17131723D02*
X44812969Y-17226961D01*
X44812969Y-17226961D02*
X44717731Y-17322200D01*
X44717731Y-17322200D02*
X44574874Y-17369819D01*
X44574874Y-17369819D02*
X44336779Y-17369819D01*
X45336779Y-17369819D02*
X45336779Y-16369819D01*
X45765350Y-17369819D02*
X45765350Y-16846009D01*
X45765350Y-16846009D02*
X45717731Y-16750771D01*
X45717731Y-16750771D02*
X45622493Y-16703152D01*
X45622493Y-16703152D02*
X45479636Y-16703152D01*
X45479636Y-16703152D02*
X45384398Y-16750771D01*
X45384398Y-16750771D02*
X45336779Y-16798390D01*
X46241541Y-17369819D02*
X46241541Y-16703152D01*
X46241541Y-16369819D02*
X46193922Y-16417438D01*
X46193922Y-16417438D02*
X46241541Y-16465057D01*
X46241541Y-16465057D02*
X46289160Y-16417438D01*
X46289160Y-16417438D02*
X46241541Y-16369819D01*
X46241541Y-16369819D02*
X46241541Y-16465057D01*
X46717731Y-17369819D02*
X46717731Y-16703152D01*
X46717731Y-16893628D02*
X46765350Y-16798390D01*
X46765350Y-16798390D02*
X46812969Y-16750771D01*
X46812969Y-16750771D02*
X46908207Y-16703152D01*
X46908207Y-16703152D02*
X47003445Y-16703152D01*
X47765350Y-16703152D02*
X47765350Y-17369819D01*
X47336779Y-16703152D02*
X47336779Y-17226961D01*
X47336779Y-17226961D02*
X47384398Y-17322200D01*
X47384398Y-17322200D02*
X47479636Y-17369819D01*
X47479636Y-17369819D02*
X47622493Y-17369819D01*
X47622493Y-17369819D02*
X47717731Y-17322200D01*
X47717731Y-17322200D02*
X47765350Y-17274580D01*
X44336779Y-19619819D02*
X44336779Y-18619819D01*
X44336779Y-18619819D02*
X44574874Y-18619819D01*
X44574874Y-18619819D02*
X44717731Y-18667438D01*
X44717731Y-18667438D02*
X44812969Y-18762676D01*
X44812969Y-18762676D02*
X44860588Y-18857914D01*
X44860588Y-18857914D02*
X44908207Y-19048390D01*
X44908207Y-19048390D02*
X44908207Y-19191247D01*
X44908207Y-19191247D02*
X44860588Y-19381723D01*
X44860588Y-19381723D02*
X44812969Y-19476961D01*
X44812969Y-19476961D02*
X44717731Y-19572200D01*
X44717731Y-19572200D02*
X44574874Y-19619819D01*
X44574874Y-19619819D02*
X44336779Y-19619819D01*
X45717731Y-19572200D02*
X45622493Y-19619819D01*
X45622493Y-19619819D02*
X45432017Y-19619819D01*
X45432017Y-19619819D02*
X45336779Y-19572200D01*
X45336779Y-19572200D02*
X45289160Y-19476961D01*
X45289160Y-19476961D02*
X45289160Y-19096009D01*
X45289160Y-19096009D02*
X45336779Y-19000771D01*
X45336779Y-19000771D02*
X45432017Y-18953152D01*
X45432017Y-18953152D02*
X45622493Y-18953152D01*
X45622493Y-18953152D02*
X45717731Y-19000771D01*
X45717731Y-19000771D02*
X45765350Y-19096009D01*
X45765350Y-19096009D02*
X45765350Y-19191247D01*
X45765350Y-19191247D02*
X45289160Y-19286485D01*
X46622493Y-19572200D02*
X46527255Y-19619819D01*
X46527255Y-19619819D02*
X46336779Y-19619819D01*
X46336779Y-19619819D02*
X46241541Y-19572200D01*
X46241541Y-19572200D02*
X46193922Y-19524580D01*
X46193922Y-19524580D02*
X46146303Y-19429342D01*
X46146303Y-19429342D02*
X46146303Y-19143628D01*
X46146303Y-19143628D02*
X46193922Y-19048390D01*
X46193922Y-19048390D02*
X46241541Y-19000771D01*
X46241541Y-19000771D02*
X46336779Y-18953152D01*
X46336779Y-18953152D02*
X46527255Y-18953152D01*
X46527255Y-18953152D02*
X46622493Y-19000771D01*
X47765351Y-18715057D02*
X47812970Y-18667438D01*
X47812970Y-18667438D02*
X47908208Y-18619819D01*
X47908208Y-18619819D02*
X48146303Y-18619819D01*
X48146303Y-18619819D02*
X48241541Y-18667438D01*
X48241541Y-18667438D02*
X48289160Y-18715057D01*
X48289160Y-18715057D02*
X48336779Y-18810295D01*
X48336779Y-18810295D02*
X48336779Y-18905533D01*
X48336779Y-18905533D02*
X48289160Y-19048390D01*
X48289160Y-19048390D02*
X47717732Y-19619819D01*
X47717732Y-19619819D02*
X48336779Y-19619819D01*
X48955827Y-18619819D02*
X49051065Y-18619819D01*
X49051065Y-18619819D02*
X49146303Y-18667438D01*
X49146303Y-18667438D02*
X49193922Y-18715057D01*
X49193922Y-18715057D02*
X49241541Y-18810295D01*
X49241541Y-18810295D02*
X49289160Y-19000771D01*
X49289160Y-19000771D02*
X49289160Y-19238866D01*
X49289160Y-19238866D02*
X49241541Y-19429342D01*
X49241541Y-19429342D02*
X49193922Y-19524580D01*
X49193922Y-19524580D02*
X49146303Y-19572200D01*
X49146303Y-19572200D02*
X49051065Y-19619819D01*
X49051065Y-19619819D02*
X48955827Y-19619819D01*
X48955827Y-19619819D02*
X48860589Y-19572200D01*
X48860589Y-19572200D02*
X48812970Y-19524580D01*
X48812970Y-19524580D02*
X48765351Y-19429342D01*
X48765351Y-19429342D02*
X48717732Y-19238866D01*
X48717732Y-19238866D02*
X48717732Y-19000771D01*
X48717732Y-19000771D02*
X48765351Y-18810295D01*
X48765351Y-18810295D02*
X48812970Y-18715057D01*
X48812970Y-18715057D02*
X48860589Y-18667438D01*
X48860589Y-18667438D02*
X48955827Y-18619819D01*
X49670113Y-18715057D02*
X49717732Y-18667438D01*
X49717732Y-18667438D02*
X49812970Y-18619819D01*
X49812970Y-18619819D02*
X50051065Y-18619819D01*
X50051065Y-18619819D02*
X50146303Y-18667438D01*
X50146303Y-18667438D02*
X50193922Y-18715057D01*
X50193922Y-18715057D02*
X50241541Y-18810295D01*
X50241541Y-18810295D02*
X50241541Y-18905533D01*
X50241541Y-18905533D02*
X50193922Y-19048390D01*
X50193922Y-19048390D02*
X49622494Y-19619819D01*
X49622494Y-19619819D02*
X50241541Y-19619819D01*
X51146303Y-18619819D02*
X50670113Y-18619819D01*
X50670113Y-18619819D02*
X50622494Y-19096009D01*
X50622494Y-19096009D02*
X50670113Y-19048390D01*
X50670113Y-19048390D02*
X50765351Y-19000771D01*
X50765351Y-19000771D02*
X51003446Y-19000771D01*
X51003446Y-19000771D02*
X51098684Y-19048390D01*
X51098684Y-19048390D02*
X51146303Y-19096009D01*
X51146303Y-19096009D02*
X51193922Y-19191247D01*
X51193922Y-19191247D02*
X51193922Y-19429342D01*
X51193922Y-19429342D02*
X51146303Y-19524580D01*
X51146303Y-19524580D02*
X51098684Y-19572200D01*
X51098684Y-19572200D02*
X51003446Y-19619819D01*
X51003446Y-19619819D02*
X50765351Y-19619819D01*
X50765351Y-19619819D02*
X50670113Y-19572200D01*
X50670113Y-19572200D02*
X50622494Y-19524580D01*
D10*
X9863408Y-38810704D02*
X9825312Y-38848800D01*
X9825312Y-38848800D02*
X9711027Y-38886895D01*
X9711027Y-38886895D02*
X9634836Y-38886895D01*
X9634836Y-38886895D02*
X9520550Y-38848800D01*
X9520550Y-38848800D02*
X9444360Y-38772609D01*
X9444360Y-38772609D02*
X9406265Y-38696419D01*
X9406265Y-38696419D02*
X9368169Y-38544038D01*
X9368169Y-38544038D02*
X9368169Y-38429752D01*
X9368169Y-38429752D02*
X9406265Y-38277371D01*
X9406265Y-38277371D02*
X9444360Y-38201180D01*
X9444360Y-38201180D02*
X9520550Y-38124990D01*
X9520550Y-38124990D02*
X9634836Y-38086895D01*
X9634836Y-38086895D02*
X9711027Y-38086895D01*
X9711027Y-38086895D02*
X9825312Y-38124990D01*
X9825312Y-38124990D02*
X9863408Y-38163085D01*
X10320550Y-38886895D02*
X10244360Y-38848800D01*
X10244360Y-38848800D02*
X10206265Y-38810704D01*
X10206265Y-38810704D02*
X10168169Y-38734514D01*
X10168169Y-38734514D02*
X10168169Y-38505942D01*
X10168169Y-38505942D02*
X10206265Y-38429752D01*
X10206265Y-38429752D02*
X10244360Y-38391657D01*
X10244360Y-38391657D02*
X10320550Y-38353561D01*
X10320550Y-38353561D02*
X10434836Y-38353561D01*
X10434836Y-38353561D02*
X10511027Y-38391657D01*
X10511027Y-38391657D02*
X10549122Y-38429752D01*
X10549122Y-38429752D02*
X10587217Y-38505942D01*
X10587217Y-38505942D02*
X10587217Y-38734514D01*
X10587217Y-38734514D02*
X10549122Y-38810704D01*
X10549122Y-38810704D02*
X10511027Y-38848800D01*
X10511027Y-38848800D02*
X10434836Y-38886895D01*
X10434836Y-38886895D02*
X10320550Y-38886895D01*
X11044360Y-38886895D02*
X10968170Y-38848800D01*
X10968170Y-38848800D02*
X10930075Y-38810704D01*
X10930075Y-38810704D02*
X10891979Y-38734514D01*
X10891979Y-38734514D02*
X10891979Y-38505942D01*
X10891979Y-38505942D02*
X10930075Y-38429752D01*
X10930075Y-38429752D02*
X10968170Y-38391657D01*
X10968170Y-38391657D02*
X11044360Y-38353561D01*
X11044360Y-38353561D02*
X11158646Y-38353561D01*
X11158646Y-38353561D02*
X11234837Y-38391657D01*
X11234837Y-38391657D02*
X11272932Y-38429752D01*
X11272932Y-38429752D02*
X11311027Y-38505942D01*
X11311027Y-38505942D02*
X11311027Y-38734514D01*
X11311027Y-38734514D02*
X11272932Y-38810704D01*
X11272932Y-38810704D02*
X11234837Y-38848800D01*
X11234837Y-38848800D02*
X11158646Y-38886895D01*
X11158646Y-38886895D02*
X11044360Y-38886895D01*
X11768170Y-38886895D02*
X11691980Y-38848800D01*
X11691980Y-38848800D02*
X11653885Y-38772609D01*
X11653885Y-38772609D02*
X11653885Y-38086895D01*
X12034837Y-38658323D02*
X12415790Y-38658323D01*
X11958647Y-38886895D02*
X12225314Y-38086895D01*
X12225314Y-38086895D02*
X12491980Y-38886895D01*
X12758647Y-38886895D02*
X12758647Y-38086895D01*
X12758647Y-38086895D02*
X13025313Y-38658323D01*
X13025313Y-38658323D02*
X13291980Y-38086895D01*
X13291980Y-38086895D02*
X13291980Y-38886895D01*
X13672933Y-38886895D02*
X13672933Y-38086895D01*
X13672933Y-38086895D02*
X13977695Y-38086895D01*
X13977695Y-38086895D02*
X14053885Y-38124990D01*
X14053885Y-38124990D02*
X14091980Y-38163085D01*
X14091980Y-38163085D02*
X14130076Y-38239276D01*
X14130076Y-38239276D02*
X14130076Y-38353561D01*
X14130076Y-38353561D02*
X14091980Y-38429752D01*
X14091980Y-38429752D02*
X14053885Y-38467847D01*
X14053885Y-38467847D02*
X13977695Y-38505942D01*
X13977695Y-38505942D02*
X13672933Y-38505942D01*
X15501504Y-38124990D02*
X15425314Y-38086895D01*
X15425314Y-38086895D02*
X15311028Y-38086895D01*
X15311028Y-38086895D02*
X15196742Y-38124990D01*
X15196742Y-38124990D02*
X15120552Y-38201180D01*
X15120552Y-38201180D02*
X15082457Y-38277371D01*
X15082457Y-38277371D02*
X15044361Y-38429752D01*
X15044361Y-38429752D02*
X15044361Y-38544038D01*
X15044361Y-38544038D02*
X15082457Y-38696419D01*
X15082457Y-38696419D02*
X15120552Y-38772609D01*
X15120552Y-38772609D02*
X15196742Y-38848800D01*
X15196742Y-38848800D02*
X15311028Y-38886895D01*
X15311028Y-38886895D02*
X15387219Y-38886895D01*
X15387219Y-38886895D02*
X15501504Y-38848800D01*
X15501504Y-38848800D02*
X15539600Y-38810704D01*
X15539600Y-38810704D02*
X15539600Y-38544038D01*
X15539600Y-38544038D02*
X15387219Y-38544038D01*
X15844361Y-38848800D02*
X15958647Y-38886895D01*
X15958647Y-38886895D02*
X16149123Y-38886895D01*
X16149123Y-38886895D02*
X16225314Y-38848800D01*
X16225314Y-38848800D02*
X16263409Y-38810704D01*
X16263409Y-38810704D02*
X16301504Y-38734514D01*
X16301504Y-38734514D02*
X16301504Y-38658323D01*
X16301504Y-38658323D02*
X16263409Y-38582133D01*
X16263409Y-38582133D02*
X16225314Y-38544038D01*
X16225314Y-38544038D02*
X16149123Y-38505942D01*
X16149123Y-38505942D02*
X15996742Y-38467847D01*
X15996742Y-38467847D02*
X15920552Y-38429752D01*
X15920552Y-38429752D02*
X15882457Y-38391657D01*
X15882457Y-38391657D02*
X15844361Y-38315466D01*
X15844361Y-38315466D02*
X15844361Y-38239276D01*
X15844361Y-38239276D02*
X15882457Y-38163085D01*
X15882457Y-38163085D02*
X15920552Y-38124990D01*
X15920552Y-38124990D02*
X15996742Y-38086895D01*
X15996742Y-38086895D02*
X16187219Y-38086895D01*
X16187219Y-38086895D02*
X16301504Y-38124990D01*
X16644362Y-38886895D02*
X16644362Y-38086895D01*
X16644362Y-38086895D02*
X16834838Y-38086895D01*
X16834838Y-38086895D02*
X16949124Y-38124990D01*
X16949124Y-38124990D02*
X17025314Y-38201180D01*
X17025314Y-38201180D02*
X17063409Y-38277371D01*
X17063409Y-38277371D02*
X17101505Y-38429752D01*
X17101505Y-38429752D02*
X17101505Y-38544038D01*
X17101505Y-38544038D02*
X17063409Y-38696419D01*
X17063409Y-38696419D02*
X17025314Y-38772609D01*
X17025314Y-38772609D02*
X16949124Y-38848800D01*
X16949124Y-38848800D02*
X16834838Y-38886895D01*
X16834838Y-38886895D02*
X16644362Y-38886895D01*
D12*
%TO.C,C2*%
X19965000Y-37824734D02*
X19965000Y-38347238D01*
X21435000Y-37824734D02*
X21435000Y-38347238D01*
%TO.C,RF_OUT1*%
X50827500Y-24630000D02*
X50827500Y-25130000D01*
X50827500Y-25130000D02*
X51327500Y-24880000D01*
X51327500Y-24880000D02*
X50827500Y-24630000D01*
X51877500Y-24040000D02*
X51877500Y-22930000D01*
X51877500Y-26830000D02*
X51877500Y-25720000D01*
X55127500Y-24040000D02*
X55127500Y-22930000D01*
X55127500Y-26830000D02*
X55127500Y-25720000D01*
%TO.C,C12*%
X22405000Y-37831248D02*
X22405000Y-38353752D01*
X23875000Y-37831248D02*
X23875000Y-38353752D01*
D13*
%TO.C,Power1*%
X24670000Y-35820000D02*
X26650000Y-35820000D01*
D12*
X24670000Y-43860000D02*
X33620000Y-43880000D01*
D13*
X33670000Y-35820000D02*
X31690000Y-35820000D01*
X33670000Y-35820000D02*
X33670000Y-37200000D01*
D14*
X29270000Y-34420000D02*
G75*
G02*
X29070000Y-34420000I-100000J0D01*
G01*
X29070000Y-34420000D02*
G75*
G02*
X29270000Y-34420000I100000J0D01*
G01*
D12*
%TO.C,R2*%
X6720276Y-15752500D02*
X7229724Y-15752500D01*
X6720276Y-16797500D02*
X7229724Y-16797500D01*
%TO.C,RF_IN1*%
X940000Y-14330000D02*
X940000Y-15440000D01*
X940000Y-17120000D02*
X940000Y-18230000D01*
X4190000Y-14330000D02*
X4190000Y-15440000D01*
X4190000Y-17120000D02*
X4190000Y-18230000D01*
X4740000Y-16280000D02*
X5240000Y-16530000D01*
X5240000Y-16030000D02*
X4740000Y-16280000D01*
X5240000Y-16530000D02*
X5240000Y-16030000D01*
%TO.C,C7*%
X11658748Y-18475000D02*
X12181252Y-18475000D01*
X11658748Y-19945000D02*
X12181252Y-19945000D01*
%TO.C,C3*%
X45101252Y-24125000D02*
X44578748Y-24125000D01*
X45101252Y-25595000D02*
X44578748Y-25595000D01*
D11*
%TO.C,U2*%
X9270000Y-15810000D02*
X11430000Y-15810000D01*
X9270000Y-17970000D02*
X11430000Y-17970000D01*
X8790000Y-16240000D02*
G75*
G02*
X8650000Y-16240000I-70000J0D01*
G01*
X8650000Y-16240000D02*
G75*
G02*
X8790000Y-16240000I70000J0D01*
G01*
D12*
%TO.C,C6*%
X36380000Y-33050000D02*
X37380000Y-33050000D01*
X36880000Y-32550000D02*
X36880000Y-33550000D01*
X37620000Y-32264437D02*
X37620000Y-34050000D01*
X37620000Y-32264437D02*
X38684437Y-31200000D01*
X37620000Y-38855563D02*
X37620000Y-37070000D01*
X37620000Y-38855563D02*
X38684437Y-39920000D01*
X38684437Y-31200000D02*
X46340000Y-31200000D01*
X38684437Y-39920000D02*
X46340000Y-39920000D01*
X46340000Y-31200000D02*
X46340000Y-34050000D01*
X46340000Y-39920000D02*
X46340000Y-37070000D01*
D13*
%TO.C,T1*%
X28090000Y-16870000D02*
X40590000Y-16870000D01*
X28090000Y-19210000D02*
X28090000Y-16870000D01*
X28090000Y-29370000D02*
X28090000Y-27030000D01*
X40590000Y-16870000D02*
X40590000Y-19210000D01*
X40590000Y-27030000D02*
X40590000Y-29370000D01*
X40590000Y-29370000D02*
X28090000Y-29370000D01*
D15*
X27490000Y-19720000D02*
G75*
G02*
X27190000Y-19720000I-150000J0D01*
G01*
X27190000Y-19720000D02*
G75*
G02*
X27490000Y-19720000I150000J0D01*
G01*
D12*
%TO.C,R1*%
X13162776Y-15827500D02*
X13672224Y-15827500D01*
X13162776Y-16872500D02*
X13672224Y-16872500D01*
%TO.C,C5*%
X35685000Y-39088748D02*
X35685000Y-39611252D01*
X37155000Y-39088748D02*
X37155000Y-39611252D01*
%TO.C,C8*%
X8191252Y-24325000D02*
X7668748Y-24325000D01*
X8191252Y-25795000D02*
X7668748Y-25795000D01*
%TO.C,U1*%
X9490000Y-26910000D02*
X9760000Y-26910000D01*
X9760000Y-26910000D02*
X9760000Y-25810000D01*
X16120000Y-26910000D02*
X16120000Y-24080000D01*
X16390000Y-26910000D02*
X16120000Y-26910000D01*
X16390000Y-33330000D02*
X16390000Y-26910000D01*
%TO.C,D4*%
X37570000Y-40260000D02*
X37570000Y-43560000D01*
X37570000Y-40260000D02*
X43080000Y-40260000D01*
X37570000Y-43560000D02*
X43080000Y-43560000D01*
%TO.C,C10*%
X32728748Y-30405000D02*
X33251252Y-30405000D01*
X32728748Y-31875000D02*
X33251252Y-31875000D01*
%TO.C,C11*%
X8631252Y-18485000D02*
X8108748Y-18485000D01*
X8631252Y-19955000D02*
X8108748Y-19955000D01*
%TD*%
%LPC*%
D10*
X22835000Y-13420000D02*
X45740000Y-13420000D01*
X45740000Y-15460000D01*
X22835000Y-15460000D01*
X22835000Y-13420000D01*
G36*
X22835000Y-13420000D02*
G01*
X45740000Y-13420000D01*
X45740000Y-15460000D01*
X22835000Y-15460000D01*
X22835000Y-13420000D01*
G37*
X7890000Y-210000D02*
X45750000Y-210000D01*
X45750000Y-13390000D01*
X7890000Y-13390000D01*
X7890000Y-210000D01*
G36*
X7890000Y-210000D02*
G01*
X45750000Y-210000D01*
X45750000Y-13390000D01*
X7890000Y-13390000D01*
X7890000Y-210000D01*
G37*
D16*
%TO.C,C2*%
X20700000Y-37135986D03*
X20700000Y-39035986D03*
%TD*%
D17*
%TO.C,H3*%
X1200000Y-40400000D03*
X1902944Y-38702944D03*
X1902944Y-42097056D03*
X3600000Y-38000000D03*
D18*
X3600000Y-40400000D03*
D17*
X3600000Y-42800000D03*
X5297056Y-38702944D03*
X5297056Y-42097056D03*
X6000000Y-40400000D03*
%TD*%
D19*
%TO.C,RF_OUT1*%
X53587500Y-24880000D03*
D20*
X53337500Y-22055000D03*
X53337500Y-27705000D03*
%TD*%
D16*
%TO.C,C12*%
X23140000Y-37142500D03*
X23140000Y-39042500D03*
%TD*%
D21*
%TO.C,Power1*%
X29170000Y-36520000D03*
D22*
X29170000Y-42520000D03*
D23*
X33870000Y-39520000D03*
%TD*%
D17*
%TO.C,H4*%
X50000000Y-40400000D03*
X50702944Y-38702944D03*
X50702944Y-42097056D03*
X52400000Y-38000000D03*
D18*
X52400000Y-40400000D03*
D17*
X52400000Y-42800000D03*
X54097056Y-38702944D03*
X54097056Y-42097056D03*
X54800000Y-40400000D03*
%TD*%
D24*
%TO.C,R2*%
X6062500Y-16275000D03*
X7887500Y-16275000D03*
%TD*%
D25*
%TO.C,RF_IN1*%
X2480000Y-16280000D03*
D26*
X2730000Y-19105000D03*
X2730000Y-13455000D03*
%TD*%
D27*
%TO.C,Q1*%
X16140000Y-15610000D03*
D28*
X18430000Y-6530000D03*
D27*
X20720000Y-15610000D03*
%TD*%
D29*
%TO.C,C7*%
X10970000Y-19210000D03*
X12870000Y-19210000D03*
%TD*%
D30*
%TO.C,C3*%
X45790000Y-24860000D03*
X43890000Y-24860000D03*
%TD*%
D31*
%TO.C,U2*%
X9320000Y-16240000D03*
X9320000Y-16890000D03*
X9320000Y-17540000D03*
X11380000Y-17540000D03*
X11380000Y-16890000D03*
X11380000Y-16240000D03*
D32*
X10350000Y-16890000D03*
%TD*%
D33*
%TO.C,C6*%
X38280000Y-35560000D03*
X45680000Y-35560000D03*
%TD*%
D34*
%TO.C,T1*%
X29590000Y-21405000D03*
X29590000Y-24835000D03*
X39090000Y-24835000D03*
X39090000Y-21405000D03*
%TD*%
D17*
%TO.C,H1*%
X1200000Y-3600000D03*
X1902944Y-1902944D03*
X1902944Y-5297056D03*
X3600000Y-1200000D03*
D18*
X3600000Y-3600000D03*
D17*
X3600000Y-6000000D03*
X5297056Y-1902944D03*
X5297056Y-5297056D03*
X6000000Y-3600000D03*
%TD*%
D24*
%TO.C,R1*%
X12505000Y-16350000D03*
X14330000Y-16350000D03*
%TD*%
D16*
%TO.C,C5*%
X36420000Y-38400000D03*
X36420000Y-40300000D03*
%TD*%
D30*
%TO.C,C8*%
X8880000Y-25060000D03*
X6980000Y-25060000D03*
%TD*%
D35*
%TO.C,U1*%
X15220000Y-25180000D03*
D36*
X12940000Y-31790000D03*
D35*
X10660000Y-25180000D03*
%TD*%
D37*
%TO.C,D4*%
X39080000Y-41910000D03*
X43080000Y-41910000D03*
%TD*%
D29*
%TO.C,C10*%
X32040000Y-31140000D03*
X33940000Y-31140000D03*
%TD*%
D17*
%TO.C,H2*%
X50000000Y-3600000D03*
X50702944Y-1902944D03*
X50702944Y-5297056D03*
X52400000Y-1200000D03*
D18*
X52400000Y-3600000D03*
D17*
X52400000Y-6000000D03*
X54097056Y-1902944D03*
X54097056Y-5297056D03*
X54800000Y-3600000D03*
%TD*%
D30*
%TO.C,C11*%
X9320000Y-19220000D03*
X7420000Y-19220000D03*
%TD*%
%LPD*%
M02*
